<?xml version="1.0" standalone="no"?>
<!DOCTYPE svg PUBLIC "-//W3C//DTD SVG 1.1//EN" "http://www.w3.org/Graphics/SVG/1.1/DTD/svg11.dtd" >
<svg xmlns="http://www.w3.org/2000/svg" xmlns:xlink="http://www.w3.org/1999/xlink" version="1.1">
<metadata>
Created by FontForge 20170731 at Fri Mar 31 11:45:25 2023
 By Aleksey,,,
Copyright (c) 2023 by Moriztype. All rights reserved.
</metadata>
<defs>
<font id="ElyzabethPro-Thin" horiz-adv-x="860" >
  <font-face 
    font-family="Elyzabeth Thin"
    font-weight="100"
    font-stretch="normal"
    units-per-em="2048"
    panose-1="0 0 0 0 0 0 0 0 0 0"
    ascent="1638"
    descent="-410"
    x-height="860"
    cap-height="1208"
    bbox="-123 -354 1827 1505"
    underline-thickness="102"
    underline-position="-358"
    unicode-range="U+000D-FB05"
  />
<missing-glyph horiz-adv-x="512" 
 />
    <glyph glyph-name="f_f" unicode="ff" horiz-adv-x="1099" 
d="M147 0h-43v819h-43v43h43v127q1 54 7.5 88.5t26 65.5t58 46.5t99.5 18.5h229v-43h-227q-49 0 -80 -12.5t-46 -39.5t-19.5 -55.5t-4.5 -72.5v-123h492v127q1 54 7.5 88.5t25.5 65.5t57.5 46.5t99.5 18.5h230v-43h-228q-49 0 -80 -12.5t-45.5 -39.5t-19 -55t-4.5 -73v-123
h377v-43h-377v-819h-43v819h-492v-819z" />
    <glyph glyph-name="fi" unicode="fi" horiz-adv-x="841" 
d="M117 0h-43v819h-43v43h43v127q1 54 7.5 88.5t25.5 65.5t57.5 46.5t99.5 18.5h230v-43h-228q-49 0 -80 -12.5t-45.5 -39.5t-19 -55t-4.5 -73v-123h602v-862h-43v819h-559v-819zM696 1122q-24 0 -34 19.5t0 39t34 19.5q23 0 32.5 -19.5t0 -39t-32.5 -19.5z" />
    <glyph glyph-name="fl" unicode="fl" horiz-adv-x="823" 
d="M117 0h-43v819h-43v43h43v127q1 54 7.5 88.5t25.5 65.5t57.5 46.5t99.5 18.5h436v-1208h-43v1165h-391q-49 0 -80 -12.5t-45.5 -39.5t-19 -55t-4.5 -73v-123h377v-43h-377v-819z" />
    <glyph glyph-name="f_f_i" unicode="ffi" horiz-adv-x="1376" 
d="M117 0h-43v819h-43v43h43v127q1 54 7.5 88.5t25.5 65.5t57.5 46.5t99.5 18.5h230v-43h-228q-49 0 -80 -12.5t-45.5 -39.5t-19 -55t-4.5 -73v-123h491v127q1 54 7.5 88.5t26 65.5t58 46.5t99.5 18.5h229v-43h-227q-49 0 -80 -12.5t-46 -39.5t-19.5 -55.5t-4.5 -72.5v-123
h602v-862h-43v819h-559v-819h-43v819h-491v-819zM1231 1122q-24 0 -34 19.5t0 39t34 19.5q23 0 32.5 -19.5t0 -39t-32.5 -19.5z" />
    <glyph glyph-name="f_f_l" unicode="ffl" horiz-adv-x="1357" 
d="M117 0h-43v819h-43v43h43v127q1 54 7.5 88.5t25.5 65.5t57.5 46.5t99.5 18.5h230v-43h-228q-49 0 -80 -12.5t-45.5 -39.5t-19 -55t-4.5 -73v-123h491v127q1 54 7.5 88.5t26 65.5t58 46.5t99.5 18.5h436v-1208h-43v1165h-391q-49 0 -80 -12.5t-46 -39.5t-19.5 -55.5
t-4.5 -72.5v-123h377v-43h-377v-819h-43v819h-491v-819z" />
    <glyph glyph-name="longs_t" unicode="&#x17f;t" horiz-adv-x="1103" 
d="M154 0h-43v989q1 54 7.5 88.5t25.5 65.5t57.5 46.5t99.5 18.5h145q106 -6 147 -50.5t46 -133.5v-162h307v-43h-307v-581q0 -57 6.5 -90.5t27.5 -59t60 -35.5t103 -10h239v-43h-239q-143 0 -192.5 53.5t-49.5 184.5v581h-55v43h55v123q0 44 -4.5 72.5t-19.5 55.5t-46 39.5
t-80 12.5h-141q-49 0 -80 -12.5t-45.5 -39.5t-19 -55t-4.5 -73v-985z" />
    <glyph glyph-name=".notdef" horiz-adv-x="512" 
 />
    <glyph glyph-name="uni0000" horiz-adv-x="0" 
 />
    <glyph glyph-name="uni0000" horiz-adv-x="0" 
 />
    <glyph glyph-name="uni000D" unicode="&#xd;" horiz-adv-x="512" 
 />
    <glyph glyph-name="space" unicode=" " horiz-adv-x="532" 
 />
    <glyph glyph-name="exclam" unicode="!" horiz-adv-x="337" 
d="M180 156h-22l-15 1052h52zM168 0q-24 0 -34 19.5t0 39t34 19.5q23 0 32.5 -19.5t0 -39t-32.5 -19.5z" />
    <glyph glyph-name="quotedbl" unicode="&#x22;" horiz-adv-x="239" 
d="M207 1077h-39l-8 131h59zM68 1077h-39l-9 131h60z" />
    <glyph glyph-name="numbersign" unicode="#" horiz-adv-x="636" 
d="M98 0h-47l74 375h-76l8 43h76l68 336h-88l8 43h88l82 411h47l-82 -411h207l82 411h47l-82 -411h78l-8 -43h-78l-68 -336h90l-8 -43h-90l-74 -375h-47l74 375h-207zM248 754l-68 -336h207l68 336h-207z" />
    <glyph glyph-name="dollar" unicode="$" horiz-adv-x="903" 
d="M473 0h-43v53h-61q-146 0 -204.5 64t-58.5 192v33h44v-33q0 -52 7.5 -86t29.5 -65.5t67 -46.5t115 -15h61v477h-61q-146 0 -204.5 64t-58.5 192v64q0 128 58.5 192t204.5 64h61v59h43v-59h49q146 0 204 -64t58 -192v-33h-43v33q0 52 -7.5 86t-29.5 65.5t-67 46.5t-115 15
h-49v-490h88q146 0 204 -64t58 -192v-51q0 -128 -58 -192t-204 -64h-88v-53zM369 616h61v490h-61q-70 0 -115 -15t-67 -46.5t-29.5 -65.5t-7.5 -86v-64q0 -52 7.5 -86t29.5 -65.5t67 -46.5t115 -15zM473 573v-477h88q70 0 115 15t67 46.5t29.5 65.5t7.5 86v51q0 52 -7.5 86
t-29.5 65.5t-67 46.5t-115 15h-88z" />
    <glyph glyph-name="percent" unicode="%" horiz-adv-x="1292" 
d="M66 825v129q0 128 58 192t204 64t203.5 -63.5t62.5 -192.5v-129q-5 -129 -62.5 -192.5t-203.5 -63.5t-204 64t-58 192zM420 0h-47l465 1208h47zM109 954v-129q0 -52 7.5 -86t29.5 -65.5t67 -46.5t115 -15t115 15t67 46.5t30 65t11 86.5v129q-2 52 -10 86t-30 65.5
t-67.5 46.5t-115.5 15t-115 -15t-67 -46.5t-29.5 -65.5t-7.5 -86zM680 256v129q0 128 58 192t204 64t203.5 -63.5t62.5 -192.5v-129q-5 -129 -62.5 -192.5t-203.5 -63.5t-204 64t-58 192zM723 385v-129q0 -52 7.5 -86t29.5 -65.5t67 -46.5t115 -15t115 15t67 46.5t30 65
t11 86.5v129q-2 52 -10 86t-30 65.5t-67.5 46.5t-115.5 15t-115 -15t-67 -46.5t-29.5 -65.5t-7.5 -86z" />
    <glyph glyph-name="ampersand" unicode="&#x26;" horiz-adv-x="878" 
d="M188 952v-55q0 -52 7.5 -86t29.5 -65t67.5 -46t115.5 -16h221v-43h-264q-70 1 -115.5 -14t-67.5 -46.5t-29.5 -66t-7.5 -86.5v-170q0 -52 7.5 -86.5t29.5 -65.5t67.5 -46t115.5 -15h137q64 0 103 10t59.5 35.5t27 58.5t6.5 91v499h43v-55h58v-43h-58v-401
q0 -127 -44 -180.5t-173 -57.5h-159q-146 0 -204.5 64t-58.5 192v170q0 99 34 158.5t116 83.5q-107 55 -107 227v55q0 128 58.5 192t204.5 64h71q146 0 204 -64t58 -192v-32h-43v32q0 52 -7.5 86t-29.5 65.5t-67 46.5t-115 15h-71q-70 0 -115.5 -15t-67.5 -46t-29.5 -65.5
t-7.5 -86.5z" />
    <glyph glyph-name="quotesingle" unicode="'" horiz-adv-x="100" 
d="M68 1077h-39l-9 131h60z" />
    <glyph glyph-name="parenleft" unicode="(" horiz-adv-x="436" 
d="M270 1208h43q-224 -372 -230 -775t204 -781h-41q-213 368 -207 781.5t231 774.5z" />
    <glyph glyph-name="parenright" unicode=")" horiz-adv-x="438" 
d="M123 1208h43q225 -361 231 -774.5t-207 -781.5h-40q210 379 203.5 781t-230.5 775z" />
    <glyph glyph-name="asterisk" unicode="*" horiz-adv-x="528" 
d="M244 920l-201 -119l-23 37l201 120l-201 117l21 37l203 -119v215h43v-213l198 119l23 -37l-201 -121l201 -116l-21 -37l-200 117v-215h-43v215z" />
    <glyph glyph-name="plus" unicode="+" horiz-adv-x="581" 
d="M313 332h-43v250h-250v43h250v247h43v-247h248v-43h-248v-250z" />
    <glyph glyph-name="comma" unicode="," horiz-adv-x="116" 
d="M33 -27l20 27q-21 3 -29 22.5t2 37.5t33 18q21 0 29.5 -15.5t5.5 -35.5q-5 -24 -31 -54h-30z" />
    <glyph glyph-name="hyphen" unicode="-" horiz-adv-x="581" 
d="M561 582h-541v43h541v-43z" />
    <glyph glyph-name="period" unicode="." horiz-adv-x="116" 
d="M59 0q-24 0 -34 19.5t0 39t34 19.5q23 0 32.5 -19.5t0 -39t-32.5 -19.5z" />
    <glyph glyph-name="slash" unicode="/" horiz-adv-x="569" 
d="M74 0h-47l465 1208h47z" />
    <glyph glyph-name="zero" unicode="0" horiz-adv-x="923" 
d="M102 256v696q0 128 58.5 192t204.5 64h194q75 0 126 -17t80 -52t41.5 -79t14.5 -108v-696q-2 -64 -14.5 -108t-41.5 -79t-80 -52t-126 -17h-194q-146 0 -204.5 64t-58.5 192zM145 952v-696q0 -52 7.5 -86.5t29.5 -65.5t67.5 -46t115.5 -15h194q56 0 96 11t63 28t36 46.5
t17.5 57t6.5 70.5v696q-2 53 -9.5 86.5t-29 65t-66 46.5t-114.5 15h-194q-70 0 -115.5 -15t-67.5 -46t-29.5 -65.5t-7.5 -86.5z" />
    <glyph glyph-name="one" unicode="1" horiz-adv-x="520" 
d="M123 0v43h121v1122h-121v43h164v-1165h110v-43h-274z" />
    <glyph glyph-name="two" unicode="2" horiz-adv-x="962" 
d="M797 848v104q0 52 -7.5 86t-29.5 65.5t-67 46.5t-115 15h-154q-70 0 -115 -15t-67 -46.5t-29.5 -65.5t-7.5 -86v-32h-43v32q0 128 58 192t204 64h154q146 0 204 -64t58 -192v-104q0 -128 -58 -192t-204 -64h-193q-70 0 -115 -15t-67 -46.5t-29.5 -65.5t-7.5 -86v-123
q0 -52 7.5 -86t29.5 -65.5t67 -46.5t115 -15h193q70 0 115 15t67 46.5t29.5 65.5t7.5 86v33h43v-33q0 -128 -58 -192t-204 -64h-193q-146 0 -204 64t-58 192v123q0 128 58 192t204 64h193q70 0 115 15t67 46.5t29.5 65.5t7.5 86z" />
    <glyph glyph-name="three" unicode="3" horiz-adv-x="962" 
d="M797 829v123q0 52 -7.5 86t-29.5 65.5t-67 46.5t-115 15h-193q-70 0 -115 -15t-67 -46.5t-29.5 -65.5t-7.5 -86v-32h-43v32q0 128 58 192t204 64h193q146 0 204 -64t58 -192v-123q0 -186 -125 -235q68 -27 96.5 -85t28.5 -149v-104q0 -128 -58 -192t-204 -64h-193
q-146 0 -204 64t-58 192v33h43v-33q0 -52 7.5 -86t29.5 -65.5t67 -46.5t115 -15h193q70 0 115 15t67 46.5t29.5 65.5t7.5 86v104q0 52 -7.5 86t-29.5 65.5t-67 46.5t-115 15h-275v43h275q70 0 115 15t67 46.5t29.5 65.5t7.5 86z" />
    <glyph glyph-name="four" unicode="4" horiz-adv-x="821" 
d="M608 270h-577v45l557 893h63v-895h47v-43h-47v-270h-43v270zM608 1159l-528 -846h528v846z" />
    <glyph glyph-name="five" unicode="5" horiz-adv-x="962" 
d="M487 0h-364v43h364q111 0 190.5 62.5t101 151.5t7.5 178t-90 151.5t-192 62.5h-381v559h668v-43h-625v-475h340q135 0 222 -71.5t102 -173.5t-11 -204t-117 -172.5t-215 -68.5z" />
    <glyph glyph-name="six" unicode="6" horiz-adv-x="890" 
d="M496 1165h-174q-46 0 -78.5 -10t-51 -24.5t-29 -39.5t-14 -47t-4.5 -55v-334q60 82 220 82h118q56 0 99 -7t72.5 -18.5t50.5 -32.5t33 -42t18 -53.5t8 -61.5t2 -71v-195q0 -62 -11 -105t-40.5 -79t-87 -54t-144.5 -18h-118q-146 0 -204.5 64t-58.5 192v733q3 109 49 164
t171 55h174q146 0 204 -64t58 -192h-43q0 52 -7.5 86t-29.5 65.5t-67 46.5t-115 15zM483 694h-118q-70 0 -115.5 -15t-67.5 -46t-29.5 -65.5t-7.5 -86.5v-225q0 -52 7.5 -86.5t29.5 -65.5t67.5 -46t115.5 -15h118q75 0 124 14.5t73.5 45.5t33 66t9.5 89v193q1 44 -1 71
t-9 58.5t-22.5 49.5t-42 34t-67.5 23t-98 7z" />
    <glyph glyph-name="seven" unicode="7" horiz-adv-x="831" 
d="M31 1165v43h401q297 0 297 -243v-965h-43v967q0 94 -59.5 146t-196.5 52h-399z" />
    <glyph glyph-name="eight" unicode="8" horiz-adv-x="921" 
d="M227 594q-125 49 -125 235v123q0 128 58.5 192t204.5 64h192q146 0 204 -64t58 -192v-123q0 -186 -125 -235q68 -27 96.5 -85t28.5 -149v-104q0 -128 -58 -192t-204 -64h-192q-146 0 -204.5 64t-58.5 192v104q0 91 28.5 149t96.5 85zM145 952v-123q0 -52 7.5 -86.5
t29.5 -65.5t67.5 -46t115.5 -15h192q70 0 115 15t67 46.5t29.5 65.5t7.5 86v123q0 52 -7.5 86t-29.5 65.5t-67 46.5t-115 15h-192q-70 0 -115.5 -15t-67.5 -46t-29.5 -65.5t-7.5 -86.5zM145 360v-104q0 -52 7.5 -86.5t29.5 -65.5t67.5 -46t115.5 -15h192q70 0 115 15
t67 46.5t29.5 65.5t7.5 86v104q0 52 -7.5 86t-29.5 65.5t-67 46.5t-115 15h-192q-70 0 -115.5 -15t-67.5 -46t-29.5 -65.5t-7.5 -86.5z" />
    <glyph glyph-name="nine" unicode="9" horiz-adv-x="870" 
d="M113 256h43q0 -52 7.5 -86t29.5 -65.5t67 -46.5t115 -15h174q57 0 93 13t53 41t22.5 54t7.5 68v334q-60 -82 -219 -82h-119q-42 0 -77 3.5t-62 10t-48 16t-36 22.5t-25.5 29t-17 34.5t-10.5 40t-5.5 46t-1.5 51v56.5v31v94q0 43 2 72.5t8.5 64t18.5 57t33 45t50.5 35.5
t72.5 21t98 8h119q146 0 204 -64t58 -192v-733q-3 -109 -48.5 -164t-170.5 -55h-174q-146 0 -204 64t-58 192zM387 514h119q70 0 115 15t67 46.5t29.5 65.5t7.5 86v225q0 52 -7.5 86t-29.5 65.5t-67 46.5t-115 15h-119q-55 0 -96 -7.5t-67 -25t-42 -37t-23.5 -51t-10 -60
t-1.5 -71.5v-102v-47q-1 -35 -0.5 -65.5t4.5 -55.5t13 -45.5t26 -36t43 -26t64 -16t90 -5.5z" />
    <glyph glyph-name="colon" unicode=":" horiz-adv-x="116" 
d="M59 784q-24 0 -34 19.5t0 39t34 19.5q23 0 32.5 -19.5t0 -39t-32.5 -19.5zM59 0q-24 0 -34 19.5t0 39t34 19.5q23 0 32.5 -19.5t0 -39t-32.5 -19.5z" />
    <glyph glyph-name="semicolon" unicode=";" horiz-adv-x="137" 
d="M59 784q-24 0 -34 19.5t0 39t34 19.5q23 0 32.5 -19.5t0 -39t-32.5 -19.5zM33 -27l20 27q-21 3 -29 22.5t2 37.5t33 18q21 0 29.5 -15.5t5.5 -35.5q-5 -24 -31 -54h-30z" />
    <glyph glyph-name="less" unicode="&#x3c;" horiz-adv-x="788" 
d="M686 31l-655 362v47l655 363v-47l-612 -340l612 -338v-47z" />
    <glyph glyph-name="equal" unicode="=" horiz-adv-x="700" 
d="M680 582h-660v43h660v-43zM680 301h-660v43h660v-43z" />
    <glyph glyph-name="greater" unicode="&#x3e;" horiz-adv-x="788" 
d="M758 393l-656 -362v47l613 338l-613 340v47l656 -363v-47z" />
    <glyph glyph-name="question" unicode="?" horiz-adv-x="843" 
d="M281 207h-43v153q0 128 58 192t204 64q70 0 116.5 15t70 46t32 66t8.5 86v123q0 52 -7.5 86t-29.5 65.5t-67 46.5t-115 15h-172q-70 0 -115 -15t-67 -46.5t-29.5 -65.5t-7.5 -86v-32h-43v32q0 128 58 192t204 64h172q146 0 204 -64t58 -192v-123q0 -127 -61.5 -191.5
t-208.5 -64.5q-70 0 -115 -15t-67 -46.5t-29.5 -65.5t-7.5 -86v-153zM252 0q-24 0 -34 19.5t0 39t34 19.5q23 0 32.5 -19.5t0 -39t-32.5 -19.5z" />
    <glyph glyph-name="at" unicode="@" horiz-adv-x="1513" 
d="M1360 100h51q-123 -156 -262.5 -219t-349.5 -63q-145 0 -270 43.5t-221 127.5t-151 218.5t-55 304.5q0 156 51 287t140.5 219.5t214 138t268.5 49.5q109 0 212.5 -36.5t188 -105t136 -179t51.5 -246.5q0 -126 -28.5 -229.5t-74 -166.5t-97 -96.5t-101.5 -33.5
q-65 0 -102.5 54.5t-30.5 154.5q-55 -118 -145.5 -179t-184.5 -55q-79 6 -137 58.5t-82.5 152.5t8.5 246q41 183 155 286t236 97q72 -3 127.5 -49t79.5 -131l10 106h47l-69 -551q-7 -69 18 -107t70 -38q41 0 85 30.5t84 87.5t65.5 153t25.5 212q0 148 -74 269.5t-199.5 189
t-273.5 67.5q-178 0 -320 -81t-224.5 -230t-86.5 -340q-3 -148 45.5 -272t135.5 -207.5t208 -129.5t263 -46q197 0 326.5 57t236.5 182zM604 133q54 -5 111.5 21.5t107.5 79t86.5 137.5t46.5 186q16 148 -35.5 233t-140.5 95q-102 11 -201.5 -79t-140.5 -261
q-22 -104 -17 -179.5t34.5 -126t67.5 -76.5t81 -30z" />
    <glyph glyph-name="A" unicode="A" horiz-adv-x="995" 
d="M545 0h-504l477 1206h60l376 -1206h-45l-362 1161l-443 -1118h441v-43z" />
    <glyph glyph-name="B" unicode="B" horiz-adv-x="1003" 
d="M598 0h-455v1208h455q146 0 204 -64t58 -192v-116q0 -90 -28 -148t-95 -84q67 -26 95 -84.5t28 -150.5v-113q0 -128 -58 -192t-204 -64zM186 1165v-540h412q70 0 115 15t67 46.5t29.5 65.5t7.5 86v114q0 52 -7.5 86t-29.5 65.5t-67 46.5t-115 15h-412zM186 582v-539h412
q70 0 115 15t67 46.5t29.5 65.5t7.5 86v113q0 52 -7.5 86t-29.5 65.5t-67 46.5t-115 15h-412z" />
    <glyph glyph-name="C" unicode="C" horiz-adv-x="929" 
d="M825 43v-43h-315q-79 0 -141 18t-104 46.5t-72.5 75.5t-47 92.5t-26 111.5t-12.5 119t-3 127t2.5 131.5t12.5 124.5t27 116.5t48 98t73 79.5t103.5 49.5t139.5 18.5h315v-43h-315q-54 0 -99.5 -10.5t-79.5 -28.5t-61 -47t-45 -59.5t-31.5 -73t-21 -80.5t-12 -89t-5.5 -92
t-1 -95q0 -55 1 -92t4.5 -87.5t10.5 -85.5t20 -76.5t31 -69t45 -55.5t61 -44.5t80.5 -26.5t102.5 -10h315z" />
    <glyph glyph-name="D" unicode="D" horiz-adv-x="962" 
d="M453 0h-310v1208h310q62 0 113 -11t89.5 -29t69.5 -47.5t51.5 -60.5t35.5 -74.5t23.5 -82t13.5 -91.5t7 -95t2 -99q0 -74 -2.5 -131.5t-12 -124.5t-27 -116.5t-48 -98t-72.5 -79t-104 -49.5t-139 -19zM186 1165v-1122h267q54 0 99.5 10.5t79.5 28.5t61 47t45 59.5
t31.5 73t21 80.5t12 89t5.5 92t1 95q0 55 -1 92t-4.5 87.5t-10.5 85.5t-20 76.5t-31 69t-45 55.5t-61 44.5t-80.5 26.5t-102.5 10h-267z" />
    <glyph glyph-name="E" unicode="E" horiz-adv-x="923" 
d="M815 573h-670v-317q0 -52 7.5 -86.5t29.5 -65.5t67.5 -46t115.5 -15h450v-43h-450q-146 0 -204.5 64t-58.5 192v696q0 128 58.5 192t204.5 64h452v-43h-452q-70 0 -115.5 -15t-67.5 -46t-29.5 -65.5t-7.5 -86.5v-338h670v-41z" />
    <glyph glyph-name="F" unicode="F" horiz-adv-x="964" 
d="M166 0h-43v952q0 128 58 192t204 64h453v-43h-453q-70 0 -115 -15t-67 -46.5t-29.5 -65.5t-7.5 -86v-338h670v-41h-670v-573z" />
    <glyph glyph-name="G" unicode="G" horiz-adv-x="935" 
d="M774 532h-180v41h223v-317q0 -128 -58 -192t-204 -64h-92q-66 0 -119 12t-90 34t-64.5 52.5t-42.5 68.5t-25.5 82.5t-13 92.5t-4.5 99.5t0 104.5v18.5v17v18.5q0 207 7 271q19 193 121 270q87 67 245 67h78q146 0 204 -64t58 -192v-32h-43v32q0 52 -7.5 86t-29.5 65.5
t-67 46.5t-115 15h-82q-79 0 -137 -19.5t-91.5 -54.5t-55.5 -83t-28 -104t-9 -118t0 -125v-65q0 -203 5 -256q15 -173 99 -240q72 -57 203 -57h96q70 0 115 15t67 46.5t29.5 65.5t7.5 86v276z" />
    <glyph glyph-name="H" unicode="H" horiz-adv-x="1003" 
d="M186 0h-43v1208h43v-635h631v635h43v-1208h-43v530h-631v-530z" />
    <glyph glyph-name="I" unicode="I" horiz-adv-x="329" 
d="M186 0h-43v1208h43v-1208z" />
    <glyph glyph-name="J" unicode="J" horiz-adv-x="882" 
d="M477 0h-434v43h434q64 0 113 22.5t75 59.5t39 76.5t13 79.5v927h43v-927q0 -115 -76 -198t-207 -83z" />
    <glyph glyph-name="K" unicode="K" horiz-adv-x="899" 
d="M186 0h-43v1208h43v-635l613 635h61l-563 -577l565 -631h-61l-535 600l-80 -84v-516z" />
    <glyph glyph-name="L" unicode="L" horiz-adv-x="890" 
d="M850 43v-43h-434q-131 0 -207 83t-76 198v927h43v-927q0 -40 13 -79.5t39 -76.5t75 -59.5t113 -22.5h434z" />
    <glyph glyph-name="M" unicode="M" horiz-adv-x="1343" 
d="M186 0h-43v1208h58l473 -1155l471 1155h55v-1208h-43v1130l-459 -1130h-49l-463 1126v-1126z" />
    <glyph glyph-name="N" unicode="N" horiz-adv-x="1005" 
d="M186 0h-43v1208h56l620 -1147v1147h43v-1208h-59l-617 1143v-1143z" />
    <glyph glyph-name="O" unicode="O" horiz-adv-x="1019" 
d="M510 0q-78 0 -139.5 18.5t-103.5 49.5t-73 79.5t-48 98t-27 116.5t-12.5 124.5t-2.5 131.5t3 127t12.5 119t26 111.5t47 92.5t72.5 75.5t104 46.5t141 18q62 0 113 -11t89.5 -29t69.5 -47.5t51.5 -60.5t35.5 -74.5t23.5 -82t13.5 -91.5t7 -95t2 -99q0 -74 -2.5 -131.5
t-12 -124.5t-27 -116.5t-48 -98t-72.5 -79t-104 -49.5t-139 -19zM510 43q54 0 99.5 10.5t79.5 28.5t61 47t45 59.5t31.5 73t21 80.5t12 89t5.5 92t1 95q0 55 -1 92t-4.5 87.5t-10.5 85.5t-20 76.5t-31 69t-45 55.5t-61 44.5t-80.5 26.5t-102.5 10t-102.5 -10t-80.5 -26.5
t-61 -44.5t-45 -55.5t-31 -69t-20 -76.5t-10.5 -85.5t-4.5 -87.5t-1 -92q0 -54 1 -95t5.5 -92t12 -89t21 -80.5t31.5 -73t45 -59.5t61 -47t79.5 -28.5t99.5 -10.5z" />
    <glyph glyph-name="P" unicode="P" horiz-adv-x="962" 
d="M186 0h-43v1208h455q146 0 204 -64t58 -192v-125q0 -128 -58 -191t-204 -63h-412v-573zM186 1165v-551h412q70 0 115 15t67 46.5t29.5 65.5t7.5 86v125q0 52 -7.5 86t-29.5 65.5t-67 46.5t-115 15h-412z" />
    <glyph glyph-name="Q" unicode="Q" horiz-adv-x="923" 
d="M532 -150l-81 150h-86q-146 0 -204.5 64t-58.5 192v696q0 128 58.5 192t204.5 64h194q146 0 204 -64t58 -192v-696q0 -128 -58 -192t-204 -64h-59l82 -150h-50zM428 43l-72 129h50l71 -129h82q70 0 115 15t67 46.5t29.5 65.5t7.5 86v696q0 52 -7.5 86t-29.5 65.5
t-67 46.5t-115 15h-194q-70 0 -115.5 -15t-67.5 -46t-29.5 -65.5t-7.5 -86.5v-696q0 -52 7.5 -86.5t29.5 -65.5t67.5 -46t115.5 -15h63z" />
    <glyph glyph-name="R" unicode="R" horiz-adv-x="983" 
d="M186 0h-43v1208h455q146 0 204 -64t58 -192v-125q0 -128 -58 -191t-204 -63h-156l414 -573h-53l-414 573h-203v-573zM186 1165v-551h412q70 0 115 15t67 46.5t29.5 65.5t7.5 86v125q0 52 -7.5 86t-29.5 65.5t-67 46.5t-115 15h-412z" />
    <glyph glyph-name="S" unicode="S" horiz-adv-x="962" 
d="M123 256v33h43v-33q0 -52 7.5 -86t29.5 -65.5t67 -46.5t115 -15h193q70 0 115 15t67 46.5t29.5 65.5t7.5 86v123q0 52 -7.5 86t-29.5 65.5t-67 46.5t-115 15h-193q-146 0 -204 64t-58 192v104q0 128 58 192t204 64h154q146 0 204 -64t58 -192v-32h-43v32q0 52 -7.5 86
t-29.5 65.5t-67 46.5t-115 15h-154q-70 0 -115 -15t-67 -46.5t-29.5 -65.5t-7.5 -86v-104q0 -52 7.5 -86t29.5 -65.5t67 -46.5t115 -15h193q146 0 204 -64t58 -192v-123q0 -128 -58 -192t-204 -64h-193q-146 0 -204 64t-58 192z" />
    <glyph glyph-name="T" unicode="T" horiz-adv-x="964" 
d="M504 -2h-43v1167h-441v43h924v-43h-440v-1167z" />
    <glyph glyph-name="U" unicode="U" horiz-adv-x="983" 
d="M133 281v927h43v-927q0 -40 13 -79.5t39 -76.5t75 -59.5t113 -22.5h151q64 0 113 22.5t75 59.5t39 76.5t13 79.5v927h43v-927q0 -115 -76 -198t-207 -83h-151q-131 0 -207 83t-76 198z" />
    <glyph glyph-name="V" unicode="V" horiz-adv-x="841" 
d="M455 0h-62l-379 1208h45l365 -1163l356 1163h45z" />
    <glyph glyph-name="W" unicode="W" horiz-adv-x="1619" 
d="M461 0h-62l-379 1208h46l364 -1163l356 1163h48l364 -1163l356 1163h45l-370 -1208h-62l-356 1139z" />
    <glyph glyph-name="X" unicode="X" 
d="M72 0h-52l386 604l-386 604h52l358 -563l358 563h52l-383 -604l383 -604h-52l-358 563z" />
    <glyph glyph-name="Y" unicode="Y" 
d="M451 6h-43v594l-388 608h52l358 -563l358 563h52l-389 -612v-590z" />
    <glyph glyph-name="Z" unicode="Z" horiz-adv-x="962" 
d="M840 0h-717v45l665 1120h-665v43h717v-43l-668 -1122h668v-43z" />
    <glyph glyph-name="bracketleft" unicode="[" horiz-adv-x="382" 
d="M76 1165v-1476h184v-43h-227v1562h227v-43h-184z" />
    <glyph glyph-name="backslash" unicode="\" horiz-adv-x="579" 
d="M543 0h-47l-465 1208h47z" />
    <glyph glyph-name="bracketright" unicode="]" horiz-adv-x="380" 
d="M123 -311h184v1476h-184v43h227v-1562h-227v43z" />
    <glyph glyph-name="asciicircum" unicode="^" horiz-adv-x="626" 
d="M72 862h-54l269 346h53l268 -346h-53l-242 312z" />
    <glyph glyph-name="underscore" unicode="_" horiz-adv-x="700" 
d="M680 -59h-660v43h660v-43z" />
    <glyph glyph-name="grave" unicode="`" horiz-adv-x="188" 
d="M141 1208h-45l-80 84h70z" />
    <glyph glyph-name="a" unicode="a" horiz-adv-x="831" 
d="M160 604h-43q0 128 58 192t204 64h102q146 0 204 -64t58 -192v-348q0 -128 -58 -192t-204 -64h-153q-82 0 -138 36.5t-79 90t-23 119.5q0 69 26 127.5t85 98.5t143 40h358v92q0 52 -7.5 86t-29.5 65.5t-67 46.5t-115 15h-102q-70 0 -115 -15t-67 -46.5t-29.5 -65.5
t-7.5 -86zM700 256v217h-358q-99 0 -154 -67.5t-57 -159.5q-2 -86 46.5 -144.5t152.5 -58.5h151q70 0 115 15t67 46.5t29.5 65.5t7.5 86z" />
    <glyph glyph-name="b" unicode="b" horiz-adv-x="888" 
d="M145 1208v-348h283q86 0 153 -24t108.5 -63t68.5 -95t37.5 -114t11.5 -126q0 -438 -383 -438h-59q-146 0 -204.5 64t-58.5 192v952h43zM426 817h-281v-561q0 -52 7 -86t28.5 -65.5t66.5 -46.5t115 -15h64q84 0 145.5 23t97.5 59t57 89.5t27 106t5 117.5q-1 61 -10 113
t-32.5 102t-60 85.5t-95 57t-134.5 21.5z" />
    <glyph glyph-name="c" unicode="c" horiz-adv-x="708" 
d="M627 43v-43h-181q-94 0 -162.5 26.5t-107 68t-60.5 103.5t-28 120.5t-4 132.5q2 68 11.5 123.5t34 110.5t63.5 92t103 60t148 23h183v-43h-183q-74 0 -130 -21t-89 -53.5t-54 -82.5t-29 -98.5t-11 -110.5q-3 -69 0.5 -120.5t21.5 -109t51 -94t94 -60.5t146 -24h183z" />
    <glyph glyph-name="d" unicode="d" horiz-adv-x="839" 
d="M442 860h252v348h43v-952q0 -128 -58 -192t-204 -64h-33q-77 0 -136.5 17t-98 49t-64 71t-38.5 91.5t-18 101t-5 108.5q1 69 9.5 126t32.5 114t63 95.5t104 62.5t151 24zM694 256v561h-252q-79 0 -137 -22t-91.5 -56t-54 -86t-27 -101.5t-7.5 -113.5q-1 -67 3.5 -117.5
t23.5 -105.5t52.5 -90.5t93.5 -58.5t144 -23h33q70 0 115 15t67 46.5t29.5 65.5t7.5 86z" />
    <glyph glyph-name="e" unicode="e" horiz-adv-x="837" 
d="M545 473h-420v-211q0 -70 15 -115t46.5 -67t65.5 -29.5t86 -7.5h135q70 0 115 15t67 46.5t29.5 65.5t7.5 86h43q0 -128 -58 -192t-204 -64h-135q-128 0 -192 58t-64 204v340q0 146 63.5 202t192.5 56h213q48 0 82.5 -11t53.5 -27.5t30 -43.5t14 -50.5t4 -57.5
q0 -43 -6.5 -73.5t-24.5 -61t-58 -46.5t-101 -16zM125 602v-90h420q40 0 68 9.5t43 23t23.5 36.5t10.5 42t2 47q0 35 -3.5 55.5t-16.5 44.5t-43.5 35.5t-79.5 11.5h-211q-52 0 -86 -7t-65.5 -28t-46.5 -65.5t-15 -114.5z" />
    <glyph glyph-name="f" unicode="f" horiz-adv-x="565" 
d="M147 0h-43v819h-43v43h43v127q1 54 7.5 88.5t26 65.5t58 46.5t99.5 18.5h229v-43h-227q-49 0 -80 -12.5t-46 -39.5t-19.5 -55.5t-4.5 -72.5v-123h377v-43h-377v-819z" />
    <glyph glyph-name="g" unicode="g" horiz-adv-x="841" 
d="M84 -92h43q0 -52 7.5 -86t29.5 -65.5t67 -46.5t115 -15h174q57 0 93 13t53 41t22.5 54t7.5 68v211q-60 -82 -219 -82h-80q-62 0 -111 13t-82 33.5t-56 55t-35.5 67.5t-19.5 81t-8.5 86t-0.5 92q3 161 16 222q30 142 146 187q62 23 151 23h80q146 0 204 -64t58 -192v-733
q-3 -109 -48.5 -164t-170.5 -55h-174q-146 0 -204 64t-58 192zM397 43h80q70 0 115 15t67 46.5t29.5 65.5t7.5 86v348q0 52 -7.5 86t-29.5 65.5t-67 46.5t-115 15h-80q-78 0 -131.5 -23t-80.5 -52.5t-40.5 -89t-15.5 -98t-2 -114.5v-12q0 -41 0.5 -65t3 -61t7.5 -60
t14 -53.5t22.5 -49t34 -39t47 -31.5t62.5 -18.5t79 -7.5z" />
    <glyph glyph-name="h" unicode="h" horiz-adv-x="880" 
d="M166 0h-43v1208h43v-430q60 82 219 82h131q146 0 204 -64t58 -192v-604h-43v604q0 52 -7.5 86t-29.5 65.5t-67 46.5t-115 15h-131q-70 0 -115 -15t-67 -46.5t-29.5 -65.5t-7.5 -86v-604z" />
    <glyph glyph-name="i" unicode="i" horiz-adv-x="321" 
d="M162 1122q-24 0 -34 19.5t0 39t34 19.5q23 0 32.5 -19.5t0 -39t-32.5 -19.5zM184 0h-43v860h43v-860z" />
    <glyph glyph-name="j" unicode="j" horiz-adv-x="288" 
d="M145 1126q-24 0 -34 19.5t0 39t34 19.5q23 0 32.5 -19.5t0 -39t-32.5 -19.5zM-96 -348v43q70 0 115 15t67 46.5t29.5 65.5t7.5 86v952h43v-952q0 -128 -58 -192t-204 -64z" />
    <glyph glyph-name="k" unicode="k" horiz-adv-x="819" 
d="M166 0h-43v1208h43v-700l545 352h77l-475 -307l475 -553h-53l-461 526l-108 -69v-457z" />
    <glyph glyph-name="l" unicode="l" horiz-adv-x="288" 
d="M166 0h-43v1208h43v-1208z" />
    <glyph glyph-name="m" unicode="m" horiz-adv-x="1484" 
d="M145 0h-43v604q0 128 58.5 192t204.5 64h137q100 0 158 -29.5t83 -91.5q51 121 240 121h137q143 0 202.5 -61t59.5 -195v-604h-43v604q0 41 -3 67.5t-15 57t-35 48t-64.5 29t-101.5 11.5h-135q-70 0 -115.5 -15t-67.5 -46t-30 -66t-8 -86v-604h-43v604q0 41 -3 67.5
t-15 57t-35 48t-64.5 29t-101.5 11.5h-135q-70 0 -115.5 -15t-68 -46t-30.5 -66t-8 -86v-604z" />
    <glyph glyph-name="n" unicode="n" 
d="M145 0h-43v604q0 128 58.5 192t204.5 64h131q146 0 204 -56.5t58 -199.5v-604h-43v604q0 41 -3 67.5t-15 57t-35 48t-64.5 29t-101.5 11.5h-129q-70 0 -115.5 -15t-68 -46t-30.5 -66t-8 -86v-604z" />
    <glyph glyph-name="o" unicode="o" horiz-adv-x="868" 
d="M483 6h-98q-49 0 -89.5 8t-70.5 18.5t-52.5 34t-37.5 40.5t-25.5 52.5t-15.5 55.5t-7.5 65t-2.5 65v69v30q0 45 0.5 71t3.5 67.5t8 66.5t15.5 58.5t25.5 53.5t38 42.5t52.5 34.5t69 20t88.5 8h98q49 0 88.5 -8t69 -20t52.5 -34.5t38 -42.5t25.5 -53.5t15.5 -58.5t8 -66.5
t3.5 -67.5t0.5 -71q0 -160 -8 -214q-22 -145 -128 -194q-64 -30 -165 -30zM385 49h98q55 0 97 10t69 28t46 43t27.5 55.5t14 65.5t5 72t-0.5 76v45v8q0 75 -2 113t-15 96.5t-38.5 87t-76.5 51.5t-126 23h-98q-75 0 -126 -23t-76.5 -51.5t-38.5 -87t-15 -96.5t-2 -113v-4v-4
q0 -148 3 -177q12 -133 91 -181q59 -37 164 -37z" />
    <glyph glyph-name="p" unicode="p" horiz-adv-x="839" 
d="M145 -346h-43v952q0 128 58 191t205 63h131q146 0 204 -63t58 -191v-350q0 -128 -58 -192t-204 -64h-351v-346zM145 606v-563h351q70 0 115 15t67 46.5t29.5 65.5t7.5 86v350q0 52 -7.5 86t-29.5 65.5t-67 46.5t-115 15h-131q-70 0 -115.5 -15t-67.5 -46t-29.5 -65.5
t-7.5 -86.5z" />
    <glyph glyph-name="q" unicode="q" 
d="M758 -348h-43v346h-350q-146 0 -204.5 64t-58.5 192v350q0 128 58 191t205 63h131q146 0 204 -63t58 -191v-952zM365 41h350v563q0 52 -7.5 86t-29.5 65.5t-67 46.5t-115 15h-131q-70 0 -115.5 -15t-67.5 -46t-29.5 -65.5t-7.5 -86.5v-350q0 -52 7.5 -86.5t29.5 -65.5
t67.5 -46t115.5 -15z" />
    <glyph glyph-name="r" unicode="r" horiz-adv-x="630" 
d="M145 0h-43v616q0 117 58 180.5t198 63.5h242v-43h-240q-56 0 -96.5 -12.5t-63 -31.5t-35.5 -48t-16.5 -54.5t-3.5 -58.5v-612z" />
    <glyph glyph-name="s" unicode="s" horiz-adv-x="722" 
d="M426 0h-303v43h303q93 0 144 54t51 130q0 84 -46 141.5t-145 57.5h-117q-118 0 -179.5 60.5t-61.5 152.5q0 97 57.5 159t177.5 62h273v-43h-271q-101 0 -146.5 -49t-45.5 -129q0 -83 49.5 -126.5t146.5 -43.5h119q118 0 176 -71t58 -171q0 -94 -61.5 -160.5t-178.5 -66.5
z" />
    <glyph glyph-name="t" unicode="t" horiz-adv-x="608" 
d="M567 0h-239q-74 0 -120.5 13t-73 43.5t-36.5 73t-10 108.5v581h-57v43h57v162h43v-162h307v-43h-307v-581q0 -57 6.5 -90.5t27.5 -59t60 -35.5t103 -10h239v-43z" />
    <glyph glyph-name="u" unicode="u" 
d="M102 258v604h43v-604q0 -51 8 -86t30.5 -66t68 -46t115.5 -15h129q60 0 101.5 11.5t64.5 29t35 48t15 57t3 67.5v604h43v-604q0 -134 -59.5 -195t-202.5 -61h-131q-146 0 -204.5 64t-58.5 192z" />
    <glyph glyph-name="v" unicode="v" horiz-adv-x="698" 
d="M371 0h-58l-293 860h46l276 -819l289 819h47z" />
    <glyph glyph-name="w" unicode="w" horiz-adv-x="1484" 
d="M102 256v604h43v-604q0 -51 8 -86t30.5 -66t68 -46t115.5 -15h135q60 0 101.5 11.5t64.5 29t35 48t15 57t3 67.5v604h43v-604q0 -51 8 -86t30 -66t67.5 -46t115.5 -15h135q60 0 101.5 11.5t64.5 29t35 48t15 57t3 67.5v604h43v-604q0 -134 -59.5 -195t-202.5 -61h-137
q-189 0 -240 121q-25 -62 -83 -91.5t-158 -29.5h-137q-146 0 -204.5 64t-58.5 192z" />
    <glyph glyph-name="x" unicode="x" horiz-adv-x="696" 
d="M74 0h-54l302 430l-302 430h54l274 -391l275 391h53l-301 -430l301 -430h-53l-275 391z" />
    <glyph glyph-name="y" unicode="y" horiz-adv-x="880" 
d="M102 -92h43q0 -52 7.5 -86.5t29.5 -65.5t67.5 -46t115.5 -15h94q256 0 256 199v188q-57 -80 -219 -80h-131q-146 0 -204.5 64t-58.5 192v604h43v-604q0 -51 8 -86t30.5 -66t68 -46t115.5 -15h129q60 0 101.5 11.5t64.5 29t35 48t15 57t3 67.5v604h43v-966
q0 -244 -297 -244h-96q-146 0 -204.5 64t-58.5 192z" />
    <glyph glyph-name="z" unicode="z" horiz-adv-x="731" 
d="M625 793l-498 -750h512v-43h-522q-30 0 -39 18.5t10 47.5l500 751h-486v43h486q38 0 47 -21t-10 -46z" />
    <glyph glyph-name="braceleft" unicode="{" horiz-adv-x="516" 
d="M393 -305v-43q-140 0 -198 62.5t-58 179.5v360q0 131 -112 176v47q112 42 112 176v312q0 117 58 180t198 63v-43q-69 0 -114 -17.5t-65.5 -50t-27 -63t-6.5 -73.5v-324q-6 -128 -102 -184q96 -55 102 -179v-376q0 -33 3.5 -58.5t16 -54t35 -47t62.5 -31t96 -12.5z" />
    <glyph glyph-name="bar" unicode="|" horiz-adv-x="288" 
d="M123 1208h43v-1208h-43v1208z" />
    <glyph glyph-name="braceright" unicode="}" horiz-adv-x="524" 
d="M123 -348v43q56 0 96 12.5t62.5 31t35 47t16 54t3.5 58.5v376q6 124 102 179q-96 56 -102 184v324q0 43 -6.5 73.5t-27 63t-65.5 50t-114 17.5v43q140 0 198 -63t58 -180v-312q0 -133 113 -176v-47q-113 -45 -113 -176v-360q0 -117 -58 -179.5t-198 -62.5z" />
    <glyph glyph-name="asciitilde" unicode="~" horiz-adv-x="980" 
d="M20 496v57q106 88 228 88q97 0 256 -66q162 -63 237 -63q55 0 106.5 23.5t113.5 78.5v-55q-107 -86 -224 -86q-93 0 -260 68q-85 32 -136.5 46.5t-96.5 14.5q-56 0 -108 -24.5t-116 -81.5z" />
    <glyph glyph-name="uni00A0" unicode="&#xa0;" horiz-adv-x="532" 
 />
    <glyph glyph-name="exclamdown" unicode="&#xa1;" horiz-adv-x="321" 
d="M162 782q-24 0 -34 19.5t0 39t34 19.5q23 0 32.5 -19.5t0 -39t-32.5 -19.5zM152 698h22l14 -1052h-51z" />
    <glyph glyph-name="cent" unicode="&#xa2;" horiz-adv-x="708" 
d="M571 -133h-43v133h-82q-94 0 -162.5 26.5t-107 68t-60.5 103.5t-28 120.5t-4 132.5q2 68 11.5 123.5t34 110.5t63.5 92t103 60t148 23h84v135h43v-135h56v-43h-183q-74 0 -130 -21t-89 -53.5t-54 -82.5t-29 -98.5t-11 -110.5q-3 -69 0.5 -120.5t21.5 -109t51 -94
t94 -60.5t146 -24h183v-43h-56v-133z" />
    <glyph glyph-name="sterling" unicode="&#xa3;" horiz-adv-x="796" 
d="M760 -4h-697v43q113 43 113 180v320h-113v43h113v385q0 117 58 179t198 62h250v-43h-252q-68 0 -112.5 -17t-64.5 -49t-27 -63t-7 -73v-381h328v-43h-328v-336q-6 -108 -74 -164h615v-43z" />
    <glyph glyph-name="currency" unicode="&#xa4;" horiz-adv-x="1028" 
d="M111 0h-58l121 182q-72 142 -68 436q2 140 14.5 238.5t51.5 173.5l-119 178h58l84 -139q98 139 317 139t315 -137l84 137h58l-117 -176q39 -75 51.5 -174t14.5 -240q4 -297 -70 -438l121 -180h-58l-86 141q-97 -141 -313 -141q-217 0 -313 143zM512 43q50 0 92.5 8.5
t75 26.5t59 39.5t45.5 53t33.5 62t23.5 71t14.5 75t8 80t3.5 79.5t1 80q0 48 -1 81.5t-3.5 78.5t-8 77.5t-14.5 71.5t-23 66.5t-33 56.5t-45.5 48.5t-59 35.5t-75.5 23.5t-93 7.5q-56 0 -103 -10.5t-81.5 -27t-61.5 -45.5t-45 -57t-30.5 -70t-19 -76t-10 -85t-4.5 -86.5
t-1 -89.5q0 -68 1.5 -116t9.5 -112.5t22 -109.5t40.5 -93t63.5 -77t92.5 -48t126.5 -19z" />
    <glyph glyph-name="yen" unicode="&#xa5;" horiz-adv-x="901" 
d="M428 201h-305v43h305v237h-305v43h305v76l-387 608h51l359 -563l358 563h51l-389 -612v-72h311v-43h-311v-237h311v-43h-311v-195h-43v195z" />
    <glyph glyph-name="brokenbar" unicode="&#xa6;" horiz-adv-x="83" 
d="M63 766h-45v442h45v-442zM61 0h-43v442h43v-442z" />
    <glyph glyph-name="section" unicode="&#xa7;" horiz-adv-x="927" 
d="M586 0h-426v43h426q93 0 143.5 54t50.5 130q0 84 -45.5 141.5t-144.5 57.5h-287q-87 0 -135.5 59.5t-46.5 139.5q0 58 28 107t80 71q-53 27 -79.5 75.5t-26.5 108.5q0 97 57.5 159t177.5 62h412v-43h-410q-101 0 -146.5 -49t-45.5 -129q0 -83 50 -126.5t147 -43.5h270
q85 -3 132.5 -61.5t45.5 -137.5q0 -56 -26.5 -104t-75.5 -72q58 -31 86 -88t28 -127q0 -94 -61 -160.5t-178 -66.5zM303 469h326q63 0 99.5 43t39.5 104q3 62 -32.5 109.5t-102.5 48.5h-334q-65 -1 -100 -45t-35 -104q0 -63 37 -109.5t102 -46.5z" />
    <glyph glyph-name="dieresis" unicode="&#xa8;" horiz-adv-x="282" 
d="M55 1208q-24 0 -34 19.5t0 39t34 19.5q23 0 32.5 -19.5t0 -39t-32.5 -19.5zM227 1208q-24 0 -34 19.5t0 39t34 19.5q23 0 32.5 -19.5t0 -39t-32.5 -19.5z" />
    <glyph glyph-name="copyright" unicode="&#xa9;" horiz-adv-x="1370" 
d="M90 590q0 267 164 430.5t432 163.5q267 0 430.5 -163.5t163.5 -430.5t-163.5 -430.5t-430.5 -163.5q-268 0 -432 163.5t-164 430.5zM131 592q0 -250 152.5 -402.5t402.5 -152.5q249 0 401 152.5t152 402.5q0 249 -152 401t-401 152q-250 0 -402.5 -152t-152.5 -401z
M934 420h43q0 -110 -62.5 -179.5t-199.5 -76.5q-93 -5 -161.5 20t-107 67t-60.5 105.5t-28 123.5t-4 134q2 68 11.5 124.5t34.5 113.5t63.5 94.5t103 59.5t148.5 18q74 -4 127 -24.5t81.5 -56.5t41 -78.5t12.5 -96.5h-43q-1 34 -4.5 56.5t-16.5 53t-35 49t-63.5 34
t-99.5 20.5q-74 6 -130 -13t-89 -53t-54.5 -86.5t-29.5 -102.5t-11 -112q-4 -50 0 -101t12 -97.5t31 -86.5t56.5 -68.5t88.5 -43t126 -10.5q64 4 109 23t67 51t31.5 65t11.5 74z" />
    <glyph glyph-name="ordfeminine" unicode="&#xaa;" horiz-adv-x="794" 
d="M133 1026h-43q0 47 14 80t37.5 53t65.5 31t87 14.5t112 3.5h32q151 0 206.5 -47.5t55.5 -169.5v-153q0 -128 -58 -192t-204 -64h-137q-122 0 -169.5 50.5t-47.5 151.5t51.5 147t179.5 46h342v14q0 50 -7 79.5t-30 53t-66.5 32.5t-115.5 9h-32q-156 0 -214.5 -26
t-58.5 -113zM657 838v100h-342q-104 0 -145 -34.5t-43 -119.5q-2 -83 34 -121t142 -38h135q70 0 115 15t67 46.5t29.5 65.5t7.5 86z" />
    <glyph glyph-name="guillemotleft" unicode="&#xab;" horiz-adv-x="880" 
d="M758 61v-61l-430 432l430 432v-61l-371 -371zM471 61v-61l-430 432l430 432v-61l-371 -371z" />
    <glyph glyph-name="logicalnot" unicode="&#xac;" horiz-adv-x="700" 
d="M637 582h-617v43h660v-240h-43v197z" />
    <glyph glyph-name="uni00AD" unicode="&#xad;" horiz-adv-x="700" 
d="M680 582h-660v43h660v-43z" />
    <glyph glyph-name="registered" unicode="&#xae;" horiz-adv-x="1370" 
d="M90 590q0 267 164 430.5t432 163.5q267 0 430.5 -163.5t163.5 -430.5t-163.5 -430.5t-430.5 -163.5q-268 0 -432 163.5t-164 430.5zM131 592q0 -250 152.5 -402.5t402.5 -152.5q249 0 401 152.5t152 402.5q0 249 -152 401t-401 152q-250 0 -402.5 -152t-152.5 -401z
M555 199h-43v753h215q118 0 165.5 -50.5t47.5 -151.5q0 -103 -47.5 -154t-165.5 -51h-49l221 -346h-51l-223 346h-70v-346zM555 909v-321h172q56 0 91 10.5t52 34.5t22 49.5t5 67.5q0 41 -5 66t-22 48.5t-52 34t-91 10.5h-172z" />
    <glyph glyph-name="macron" unicode="&#xaf;" horiz-adv-x="552" 
d="M512 1192h-471v43h471v-43z" />
    <glyph glyph-name="degree" unicode="&#xb0;" horiz-adv-x="532" 
d="M266 801q-75 0 -129.5 52.5t-54.5 147.5t53.5 148t126.5 53q76 2 132.5 -51t56.5 -147t-55 -147.5t-130 -55.5zM268 842q61 3 101.5 42t40.5 117t-42.5 120t-105.5 40q-60 0 -99.5 -41.5t-39.5 -120.5q0 -80 42.5 -120t102.5 -37z" />
    <glyph glyph-name="plusminus" unicode="&#xb1;" horiz-adv-x="700" 
d="M330 582h-310v43h308v307h45v-307h307v-43h-307v-308h-43v308zM680 127h-660v43h660v-43z" />
    <glyph glyph-name="twosuperior" unicode="&#xb2;" horiz-adv-x="890" 
d="M156 1028h-43q0 48 10.5 80.5t28.5 52t52.5 30t72.5 14t98 3.5h231q83 -1 129.5 -50.5t46.5 -115.5q0 -68 -47.5 -116.5t-134.5 -48.5h-336q-67 0 -102 -37.5t-33 -91.5q2 -49 39.5 -86t99.5 -37h250q129 0 174 26t45 115h43q0 -60 -14.5 -96.5t-49.5 -55.5t-79.5 -25.5
t-118.5 -6.5h-250q-86 0 -134 50t-48 118q-2 69 44.5 119.5t131.5 50.5h338q64 0 101.5 36.5t37.5 85.5q2 49 -34 85.5t-101 37.5h-229q-68 0 -104.5 -4t-65.5 -18.5t-39 -41.5t-10 -73z" />
    <glyph glyph-name="threesuperior" unicode="&#xb3;" horiz-adv-x="874" 
d="M102 766h43q0 -92 36.5 -116.5t162.5 -24.5h250q62 0 99.5 37t39.5 86q3 53 -32.5 91t-102.5 38h-369v43h367q65 0 102 37t37 87q0 48 -35 84t-100 37h-238q-68 0 -104.5 -4t-65.5 -18.5t-39 -41.5t-10 -73h-43q0 48 10.5 80.5t28.5 52t52.5 30t72.5 14t98 3.5h240
q83 -3 129.5 -51t46.5 -113q0 -44 -22 -83t-64 -62q42 -23 64 -63.5t20 -87.5q-2 -68 -50 -117t-132 -49h-250q-74 0 -115.5 6t-72.5 26t-42.5 55.5t-11.5 96.5z" />
    <glyph glyph-name="acute" unicode="&#xb4;" horiz-adv-x="198" 
d="M86 1208h-45l55 84h70z" />
    <glyph glyph-name="paragraph" unicode="&#xb6;" horiz-adv-x="976" 
d="M420 -348h-43v743q-99 0 -164.5 83.5t-80 203.5t-0.5 239.5t74 203t144 83.5h504v-1556h-43v1513h-391v-1513z" />
    <glyph glyph-name="periodcentered" unicode="&#xb7;" horiz-adv-x="116" 
d="M59 784q-24 0 -34 19.5t0 39t34 19.5q23 0 32.5 -19.5t0 -39t-32.5 -19.5z" />
    <glyph glyph-name="cedilla" unicode="&#xb8;" horiz-adv-x="276" 
d="M29 -248v47q155 0 155 56q0 36 -69 36q-43 0 -64 -6l84 119h53l-55 -74q43 0 69.5 -19.5t26.5 -55.5q0 -103 -200 -103z" />
    <glyph glyph-name="onesuperior" unicode="&#xb9;" horiz-adv-x="423" 
d="M356 582h-274v43h121v540h-121v43h164v-583h110v-43z" />
    <glyph glyph-name="ordmasculine" unicode="&#xba;" horiz-adv-x="753" 
d="M367 575q-55 0 -105 20t-90 58.5t-64 100t-24 137.5q0 149 83.5 232t199.5 85q119 3 209 -80.5t90 -232.5q0 -76 -26 -138.5t-68.5 -101.5t-95.5 -60t-109 -20zM367 616q104 0 182 75.5t78 203.5q0 127 -78 200.5t-182 71.5q-100 -2 -171 -74.5t-71 -201.5t71.5 -202
t170.5 -73z" />
    <glyph glyph-name="guillemotright" unicode="&#xbb;" horiz-adv-x="880" 
d="M553 432l-430 -432v61l371 371l-371 371v61zM840 432l-430 -432v61l370 371l-370 371v61z" />
    <glyph glyph-name="onequarter" unicode="&#xbc;" horiz-adv-x="1071" 
d="M356 582h-274v43h121v540h-121v43h164v-583h110v-43zM287 0h-47l465 1208h47zM891 102h-447v45l426 478h64v-480h47v-43h-47v-104h-43v104zM891 582l-391 -437h391v437z" />
    <glyph glyph-name="onehalf" unicode="&#xbd;" horiz-adv-x="1415" 
d="M356 582h-274v43h121v540h-121v43h164v-583h110v-43zM319 0h-47l465 1208h47zM692 444h-43q0 48 10.5 80.5t29 52.5t52.5 30.5t72 14t98 3.5h232q83 -1 128.5 -49t47.5 -113q2 -68 -46.5 -119t-135.5 -51h-336q-61 0 -96.5 -32.5t-38.5 -80.5q-3 -55 34 -97t105 -42h250
q129 0 174 26t45 115h43q0 -60 -14.5 -96.5t-49.5 -55.5t-79.5 -25.5t-118.5 -6.5h-250q-90 0 -138.5 55t-43.5 127q3 65 49.5 110.5t126.5 45.5h338q63 0 100 36.5t39 84.5q2 49 -34 86.5t-101 38.5h-230q-130 0 -174.5 -25t-44.5 -113z" />
    <glyph glyph-name="threequarters" unicode="&#xbe;" horiz-adv-x="1517" 
d="M102 766h43q0 -92 36.5 -116.5t162.5 -24.5h250q59 0 95.5 33t43.5 79q7 56 -28.5 98t-106.5 42h-369v43h367q62 0 99 34t40 82q3 50 -32 89t-103 40h-238q-68 0 -104.5 -4t-65.5 -18.5t-39 -41.5t-10 -73h-43q0 48 10.5 80.5t28.5 52t52.5 30t72.5 14t98 3.5h240
q86 -3 132.5 -53.5t43.5 -118.5q-2 -43 -24 -79.5t-62 -57.5q44 -24 66.5 -68.5t17.5 -93.5q-7 -65 -54 -110t-128 -45h-250q-74 0 -115.5 6t-72.5 26t-42.5 55.5t-11.5 96.5zM676 0h-47l465 1208h47zM1315 102h-447v45l426 478h64v-480h47v-43h-47v-104h-43v104zM1315 582
l-391 -437h391v437z" />
    <glyph glyph-name="questiondown" unicode="&#xbf;" horiz-adv-x="942" 
d="M635 780q-23 0 -32.5 19.5t0 39t32.5 19.5q24 0 34 -19.5t0 -39t-34 -19.5zM776 -98v32h43v-32q0 -128 -58 -192t-204 -64h-172q-146 0 -204 64t-58 192v123q0 127 61.5 191.5t208.5 64.5q70 0 115 15t67 46.5t29.5 65.5t7.5 86v153h43v-153q0 -128 -58 -192t-204 -64
q-70 0 -116.5 -15t-70 -46t-32 -66t-8.5 -86v-123q0 -52 7.5 -86t29.5 -65.5t67 -46.5t115 -15h172q70 0 115 15t67 46.5t29.5 65.5t7.5 86z" />
    <glyph glyph-name="Agrave" unicode="&#xc0;" horiz-adv-x="995" 
d="M612 1294h-45l-80 84h70zM545 0h-504l477 1206h60l376 -1206h-45l-362 1161l-443 -1118h441v-43z" />
    <glyph glyph-name="Aacute" unicode="&#xc1;" horiz-adv-x="995" 
d="M522 1294h-45l55 84h70zM545 0h-504l477 1206h60l376 -1206h-45l-362 1161l-443 -1118h441v-43z" />
    <glyph glyph-name="Acircumflex" unicode="&#xc2;" horiz-adv-x="995" 
d="M518 1294h-55l67 84h35l70 -84h-55l-31 47zM545 0h-504l477 1206h60l376 -1206h-45l-362 1161l-443 -1118h441v-43z" />
    <glyph glyph-name="Atilde" unicode="&#xc3;" horiz-adv-x="995" 
d="M360 1288v64q53 53 111 53q38 0 98.5 -32t87.5 -32q50 0 97 74v-65q-48 -56 -97 -56q-35 0 -97 34t-93 34q-55 0 -107 -74zM545 0h-504l477 1206h60l376 -1206h-45l-362 1161l-443 -1118h441v-43z" />
    <glyph glyph-name="Adieresis" unicode="&#xc4;" horiz-adv-x="995" 
d="M463 1294q-24 0 -34 19.5t0 39t34 19.5q23 0 32.5 -19.5t0 -39t-32.5 -19.5zM635 1294q-24 0 -34 19.5t0 39t34 19.5q23 0 32.5 -19.5t0 -39t-32.5 -19.5zM545 0h-504l477 1206h60l376 -1206h-45l-362 1161l-443 -1118h441v-43z" />
    <glyph glyph-name="Aring" unicode="&#xc5;" horiz-adv-x="997" 
d="M545 0h-504l465 1176q-47 18 -61 69t15 95t89 44q38 0 65 -18t36.5 -45.5t7.5 -56t-20.5 -53.5t-49.5 -35l366 -1176h-45l-362 1161l-443 -1118h441v-43zM549 1210q43 0 61.5 33t1 66.5t-60.5 33.5q-26 0 -43.5 -13.5t-22 -33t-0.5 -39.5t21 -33.5t43 -13.5z" />
    <glyph glyph-name="AE" unicode="&#xc6;" horiz-adv-x="1619" 
d="M90 0h-47l477 1208h993v-43h-452q-70 0 -115 -15t-67 -46.5t-29.5 -65.5t-7.5 -86v-338h669v-41h-669v-317q0 -52 7.5 -86t29.5 -65.5t67 -46.5t115 -15h450v-43h-450q-146 0 -204 64t-58 192v184h-535zM551 1165l-270 -682h518v469q0 154 84 213h-332z" />
    <glyph glyph-name="Ccedilla" unicode="&#xc7;" horiz-adv-x="929" 
d="M825 43v-43h-239l-54 -70q43 0 70 -19.5t27 -55.5q0 -103 -201 -103v47q156 0 156 56q0 36 -70 36q-42 0 -63 -6l81 115h-22q-79 0 -141 18t-104 46.5t-72.5 75.5t-47 92.5t-26 111.5t-12.5 119t-3 127t2.5 131.5t12.5 124.5t27 116.5t48 98t73 79.5t103.5 49.5
t139.5 18.5h315v-43h-315q-54 0 -99.5 -10.5t-79.5 -28.5t-61 -47t-45 -59.5t-31.5 -73t-21 -80.5t-12 -89t-5.5 -92t-1 -95q0 -55 1 -92t4.5 -87.5t10.5 -85.5t20 -76.5t31 -69t45 -55.5t61 -44.5t80.5 -26.5t102.5 -10h315z" />
    <glyph glyph-name="Egrave" unicode="&#xc8;" horiz-adv-x="923" 
d="M557 1290h-45l-80 84h70zM815 573h-670v-317q0 -52 7.5 -86.5t29.5 -65.5t67.5 -46t115.5 -15h450v-43h-450q-146 0 -204.5 64t-58.5 192v696q0 128 58.5 192t204.5 64h452v-43h-452q-70 0 -115.5 -15t-67.5 -46t-29.5 -65.5t-7.5 -86.5v-338h670v-41z" />
    <glyph glyph-name="Eacute" unicode="&#xc9;" horiz-adv-x="923" 
d="M506 1290h-45l55 84h70zM815 573h-670v-317q0 -52 7.5 -86.5t29.5 -65.5t67.5 -46t115.5 -15h450v-43h-450q-146 0 -204.5 64t-58.5 192v696q0 128 58.5 192t204.5 64h452v-43h-452q-70 0 -115.5 -15t-67.5 -46t-29.5 -65.5t-7.5 -86.5v-338h670v-41z" />
    <glyph glyph-name="Ecircumflex" unicode="&#xca;" horiz-adv-x="923" 
d="M453 1290h-56l68 84h35l69 -84h-55l-31 47zM815 573h-670v-317q0 -52 7.5 -86.5t29.5 -65.5t67.5 -46t115.5 -15h450v-43h-450q-146 0 -204.5 64t-58.5 192v696q0 128 58.5 192t204.5 64h452v-43h-452q-70 0 -115.5 -15t-67.5 -46t-29.5 -65.5t-7.5 -86.5v-338h670v-41z
" />
    <glyph glyph-name="Edieresis" unicode="&#xcb;" horiz-adv-x="923" 
d="M408 1294q-24 0 -34 19.5t0 39t34 19.5q23 0 32.5 -19.5t0 -39t-32.5 -19.5zM580 1294q-24 0 -34 19.5t0 39t34 19.5q23 0 32.5 -19.5t0 -39t-32.5 -19.5zM815 573h-670v-317q0 -52 7.5 -86.5t29.5 -65.5t67.5 -46t115.5 -15h450v-43h-450q-146 0 -204.5 64t-58.5 192
v696q0 128 58.5 192t204.5 64h452v-43h-452q-70 0 -115.5 -15t-67.5 -46t-29.5 -65.5t-7.5 -86.5v-338h670v-41z" />
    <glyph glyph-name="Igrave" unicode="&#xcc;" horiz-adv-x="329" 
d="M236 1294h-46l-79 84h69zM186 0h-43v1208h43v-1208z" />
    <glyph glyph-name="Iacute" unicode="&#xcd;" horiz-adv-x="329" 
d="M152 1292h-46l56 84h69zM186 0h-43v1208h43v-1208z" />
    <glyph glyph-name="Icircumflex" unicode="&#xce;" horiz-adv-x="329" 
d="M135 1290h-55l67 84h35l70 -84h-55l-31 47zM186 0h-43v1208h43v-1208z" />
    <glyph glyph-name="Idieresis" unicode="&#xcf;" horiz-adv-x="329" 
d="M80 1294q-24 0 -34 19.5t0 39t34 19.5q23 0 32.5 -19.5t0 -39t-32.5 -19.5zM252 1294q-24 0 -34 19.5t0 39t34 19.5q23 0 32.5 -19.5t0 -39t-32.5 -19.5zM186 0h-43v1208h43v-1208z" />
    <glyph glyph-name="Eth" unicode="&#xd0;" horiz-adv-x="966" 
d="M453 0h-310v559h-71v43h71v606h310q62 0 113 -11t89.5 -29t69.5 -47.5t51.5 -60.5t35.5 -74.5t23.5 -82t13.5 -91.5t7 -95t2 -99q0 -74 -2.5 -131.5t-12 -124.5t-27 -116.5t-48 -98t-72.5 -79t-104 -49.5t-139 -19zM186 559v-516h267q54 0 99.5 10.5t79.5 28.5t61 47
t45 59.5t31.5 73t21 80.5t12 89t5.5 92t1 95q0 55 -1 92t-4.5 87.5t-10.5 85.5t-20 76.5t-31 69t-45 55.5t-61 44.5t-80.5 26.5t-102.5 10h-267v-563h369v-43h-369z" />
    <glyph glyph-name="Ntilde" unicode="&#xd1;" horiz-adv-x="1005" 
d="M326 1290v64q53 53 110 53q38 0 99 -32t88 -32q49 0 96 74v-65q-48 -56 -96 -56q-35 0 -97.5 34t-93.5 34q-54 0 -106 -74zM186 0h-43v1208h56l620 -1147v1147h43v-1208h-59l-617 1143v-1143z" />
    <glyph glyph-name="Ograve" unicode="&#xd2;" horiz-adv-x="1019" 
d="M573 1294h-45l-79 84h69zM510 0q-78 0 -139.5 18.5t-103.5 49.5t-73 79.5t-48 98t-27 116.5t-12.5 124.5t-2.5 131.5t3 127t12.5 119t26 111.5t47 92.5t72.5 75.5t104 46.5t141 18q62 0 113 -11t89.5 -29t69.5 -47.5t51.5 -60.5t35.5 -74.5t23.5 -82t13.5 -91.5t7 -95
t2 -99q0 -74 -2.5 -131.5t-12 -124.5t-27 -116.5t-48 -98t-72.5 -79t-104 -49.5t-139 -19zM510 43q54 0 99.5 10.5t79.5 28.5t61 47t45 59.5t31.5 73t21 80.5t12 89t5.5 92t1 95q0 55 -1 92t-4.5 87.5t-10.5 85.5t-20 76.5t-31 69t-45 55.5t-61 44.5t-80.5 26.5t-102.5 10
t-102.5 -10t-80.5 -26.5t-61 -44.5t-45 -55.5t-31 -69t-20 -76.5t-10.5 -85.5t-4.5 -87.5t-1 -92q0 -54 1 -95t5.5 -92t12 -89t21 -80.5t31.5 -73t45 -59.5t61 -47t79.5 -28.5t99.5 -10.5z" />
    <glyph glyph-name="Oacute" unicode="&#xd3;" horiz-adv-x="1019" 
d="M494 1294h-45l55 84h69zM510 0q-78 0 -139.5 18.5t-103.5 49.5t-73 79.5t-48 98t-27 116.5t-12.5 124.5t-2.5 131.5t3 127t12.5 119t26 111.5t47 92.5t72.5 75.5t104 46.5t141 18q62 0 113 -11t89.5 -29t69.5 -47.5t51.5 -60.5t35.5 -74.5t23.5 -82t13.5 -91.5t7 -95
t2 -99q0 -74 -2.5 -131.5t-12 -124.5t-27 -116.5t-48 -98t-72.5 -79t-104 -49.5t-139 -19zM510 43q54 0 99.5 10.5t79.5 28.5t61 47t45 59.5t31.5 73t21 80.5t12 89t5.5 92t1 95q0 55 -1 92t-4.5 87.5t-10.5 85.5t-20 76.5t-31 69t-45 55.5t-61 44.5t-80.5 26.5t-102.5 10
t-102.5 -10t-80.5 -26.5t-61 -44.5t-45 -55.5t-31 -69t-20 -76.5t-10.5 -85.5t-4.5 -87.5t-1 -92q0 -54 1 -95t5.5 -92t12 -89t21 -80.5t31.5 -73t45 -59.5t61 -47t79.5 -28.5t99.5 -10.5z" />
    <glyph glyph-name="Ocircumflex" unicode="&#xd4;" horiz-adv-x="1019" 
d="M479 1288h-55l68 84h34l70 -84h-55l-31 47zM510 0q-78 0 -139.5 18.5t-103.5 49.5t-73 79.5t-48 98t-27 116.5t-12.5 124.5t-2.5 131.5t3 127t12.5 119t26 111.5t47 92.5t72.5 75.5t104 46.5t141 18q62 0 113 -11t89.5 -29t69.5 -47.5t51.5 -60.5t35.5 -74.5t23.5 -82
t13.5 -91.5t7 -95t2 -99q0 -74 -2.5 -131.5t-12 -124.5t-27 -116.5t-48 -98t-72.5 -79t-104 -49.5t-139 -19zM510 43q54 0 99.5 10.5t79.5 28.5t61 47t45 59.5t31.5 73t21 80.5t12 89t5.5 92t1 95q0 55 -1 92t-4.5 87.5t-10.5 85.5t-20 76.5t-31 69t-45 55.5t-61 44.5
t-80.5 26.5t-102.5 10t-102.5 -10t-80.5 -26.5t-61 -44.5t-45 -55.5t-31 -69t-20 -76.5t-10.5 -85.5t-4.5 -87.5t-1 -92q0 -54 1 -95t5.5 -92t12 -89t21 -80.5t31.5 -73t45 -59.5t61 -47t79.5 -28.5t99.5 -10.5z" />
    <glyph glyph-name="Otilde" unicode="&#xd5;" horiz-adv-x="1019" 
d="M313 1288v64q53 53 111 53q38 0 98.5 -32t87.5 -32q50 0 97 74v-65q-48 -56 -97 -56q-35 0 -97 34t-93 34q-55 0 -107 -74zM510 0q-78 0 -139.5 18.5t-103.5 49.5t-73 79.5t-48 98t-27 116.5t-12.5 124.5t-2.5 131.5t3 127t12.5 119t26 111.5t47 92.5t72.5 75.5t104 46.5
t141 18q62 0 113 -11t89.5 -29t69.5 -47.5t51.5 -60.5t35.5 -74.5t23.5 -82t13.5 -91.5t7 -95t2 -99q0 -74 -2.5 -131.5t-12 -124.5t-27 -116.5t-48 -98t-72.5 -79t-104 -49.5t-139 -19zM510 43q54 0 99.5 10.5t79.5 28.5t61 47t45 59.5t31.5 73t21 80.5t12 89t5.5 92t1 95
q0 55 -1 92t-4.5 87.5t-10.5 85.5t-20 76.5t-31 69t-45 55.5t-61 44.5t-80.5 26.5t-102.5 10t-102.5 -10t-80.5 -26.5t-61 -44.5t-45 -55.5t-31 -69t-20 -76.5t-10.5 -85.5t-4.5 -87.5t-1 -92q0 -54 1 -95t5.5 -92t12 -89t21 -80.5t31.5 -73t45 -59.5t61 -47t79.5 -28.5
t99.5 -10.5z" />
    <glyph glyph-name="Odieresis" unicode="&#xd6;" horiz-adv-x="1019" 
d="M424 1294q-24 0 -34 19.5t0 39t34 19.5q23 0 32.5 -19.5t0 -39t-32.5 -19.5zM596 1294q-24 0 -34 19.5t0 39t34 19.5q23 0 32.5 -19.5t0 -39t-32.5 -19.5zM510 0q-78 0 -139.5 18.5t-103.5 49.5t-73 79.5t-48 98t-27 116.5t-12.5 124.5t-2.5 131.5t3 127t12.5 119
t26 111.5t47 92.5t72.5 75.5t104 46.5t141 18q62 0 113 -11t89.5 -29t69.5 -47.5t51.5 -60.5t35.5 -74.5t23.5 -82t13.5 -91.5t7 -95t2 -99q0 -74 -2.5 -131.5t-12 -124.5t-27 -116.5t-48 -98t-72.5 -79t-104 -49.5t-139 -19zM510 43q54 0 99.5 10.5t79.5 28.5t61 47
t45 59.5t31.5 73t21 80.5t12 89t5.5 92t1 95q0 55 -1 92t-4.5 87.5t-10.5 85.5t-20 76.5t-31 69t-45 55.5t-61 44.5t-80.5 26.5t-102.5 10t-102.5 -10t-80.5 -26.5t-61 -44.5t-45 -55.5t-31 -69t-20 -76.5t-10.5 -85.5t-4.5 -87.5t-1 -92q0 -54 1 -95t5.5 -92t12 -89
t21 -80.5t31.5 -73t45 -59.5t61 -47t79.5 -28.5t99.5 -10.5z" />
    <glyph glyph-name="multiply" unicode="&#xd7;" horiz-adv-x="696" 
d="M348 543l-328 -271v60l293 237l-293 242v51l328 -264l328 264v-51l-293 -242l293 -237v-60z" />
    <glyph glyph-name="Oslash" unicode="&#xd8;" horiz-adv-x="1019" 
d="M510 0q-115 0 -195 39l-14 -39h-47l25 61q-56 38 -93 98t-54 138t-23 151.5t-5 169.5q0 74 3 127t12.5 119t26 111.5t47 92.5t72.5 75.5t104 46.5t141 18q113 0 195 -37l14 37h47l-23 -57q38 -24 66.5 -58t47 -77.5t30 -86.5t17.5 -99.5t8 -102.5t3 -109
q0 -74 -2.5 -131.5t-12 -124.5t-27 -116.5t-48 -98t-72.5 -79t-104 -49.5t-139 -19zM295 106l393 1024q-72 35 -178 35q-56 0 -102.5 -10t-80.5 -26.5t-61 -44.5t-45 -55.5t-31 -69t-20 -76.5t-10.5 -85.5t-4.5 -87.5t-1 -92q0 -90 4.5 -154t17.5 -138t43 -129t76 -91z
M510 43q54 0 99.5 10.5t79.5 28.5t61 47t45 59.5t31.5 73t21 80.5t12 89t5.5 92t1 95q0 91 -3.5 150.5t-16.5 131t-42.5 123t-76.5 85.5l-395 -1026q73 -39 178 -39z" />
    <glyph glyph-name="Ugrave" unicode="&#xd9;" horiz-adv-x="983" 
d="M555 1294h-45l-80 84h70zM133 281v927h43v-927q0 -40 13 -79.5t39 -76.5t75 -59.5t113 -22.5h151q64 0 113 22.5t75 59.5t39 76.5t13 79.5v927h43v-927q0 -115 -76 -198t-207 -83h-151q-131 0 -207 83t-76 198z" />
    <glyph glyph-name="Uacute" unicode="&#xda;" horiz-adv-x="983" 
d="M475 1294h-45l55 84h70zM133 281v927h43v-927q0 -40 13 -79.5t39 -76.5t75 -59.5t113 -22.5h151q64 0 113 22.5t75 59.5t39 76.5t13 79.5v927h43v-927q0 -115 -76 -198t-207 -83h-151q-131 0 -207 83t-76 198z" />
    <glyph glyph-name="Ucircumflex" unicode="&#xdb;" horiz-adv-x="983" 
d="M461 1290h-55l67 84h35l70 -84h-56l-30 47zM133 281v927h43v-927q0 -40 13 -79.5t39 -76.5t75 -59.5t113 -22.5h151q64 0 113 22.5t75 59.5t39 76.5t13 79.5v927h43v-927q0 -115 -76 -198t-207 -83h-151q-131 0 -207 83t-76 198z" />
    <glyph glyph-name="Udieresis" unicode="&#xdc;" horiz-adv-x="983" 
d="M406 1294q-24 0 -34 19.5t0 39t34 19.5q23 0 32.5 -19.5t0 -39t-32.5 -19.5zM578 1294q-24 0 -34 19.5t0 39t34 19.5q23 0 32.5 -19.5t0 -39t-32.5 -19.5zM133 281v927h43v-927q0 -40 13 -79.5t39 -76.5t75 -59.5t113 -22.5h151q64 0 113 22.5t75 59.5t39 76.5t13 79.5
v927h43v-927q0 -115 -76 -198t-207 -83h-151q-131 0 -207 83t-76 198z" />
    <glyph glyph-name="Yacute" unicode="&#xdd;" 
d="M414 1294h-45l55 84h70zM451 6h-43v594l-388 608h52l358 -563l358 563h52l-389 -612v-590z" />
    <glyph glyph-name="Thorn" unicode="&#xde;" horiz-adv-x="952" 
d="M166 0h-43v1208h43v-235q60 82 219 82h59q383 0 383 -439q-1 -56 -8.5 -105.5t-24 -98t-46 -87t-70 -68.5t-99 -46t-130.5 -16h-283v-195zM166 799v-561h280q76 0 134.5 21.5t95 56.5t60 85t32.5 102t10 113q1 65 -5 117.5t-27 106.5t-57 90t-97.5 59t-145.5 23h-63
q-70 0 -115 -15t-66.5 -46.5t-28.5 -65.5t-7 -86z" />
    <glyph glyph-name="germandbls" unicode="&#xdf;" horiz-adv-x="985" 
d="M166 0h-43v989q1 54 7.5 88.5t25.5 65.5t57.5 46.5t99.5 18.5h287q146 0 204 -64t58 -192v-116q0 -90 -28 -148t-95 -84q67 -26 95 -84.5t28 -150.5v-113q0 -128 -58 -192t-204 -64h-262v43h262q70 0 115 15t67 46.5t29.5 65.5t7.5 86v113q0 52 -7.5 86t-29.5 65.5
t-67 46.5t-115 15h-121v43h121q70 0 115 15t67 46.5t29.5 65.5t7.5 86v114q0 52 -7.5 86t-29.5 65.5t-67 46.5t-115 15h-285q-49 0 -80 -12.5t-45.5 -39.5t-19 -55t-4.5 -73v-985z" />
    <glyph glyph-name="agrave" unicode="&#xe0;" horiz-adv-x="831" 
d="M469 952h-45l-80 84h70zM160 604h-43q0 128 58 192t204 64h102q146 0 204 -64t58 -192v-348q0 -128 -58 -192t-204 -64h-153q-82 0 -138 36.5t-79 90t-23 119.5q0 69 26 127.5t85 98.5t143 40h358v92q0 52 -7.5 86t-29.5 65.5t-67 46.5t-115 15h-102q-70 0 -115 -15
t-67 -46.5t-29.5 -65.5t-7.5 -86zM700 256v217h-358q-99 0 -154 -67.5t-57 -159.5q-2 -86 46.5 -144.5t152.5 -58.5h151q70 0 115 15t67 46.5t29.5 65.5t7.5 86z" />
    <glyph glyph-name="aacute" unicode="&#xe1;" horiz-adv-x="831" 
d="M428 952h-45l55 84h70zM160 604h-43q0 128 58 192t204 64h102q146 0 204 -64t58 -192v-348q0 -128 -58 -192t-204 -64h-153q-82 0 -138 36.5t-79 90t-23 119.5q0 69 26 127.5t85 98.5t143 40h358v92q0 52 -7.5 86t-29.5 65.5t-67 46.5t-115 15h-102q-70 0 -115 -15
t-67 -46.5t-29.5 -65.5t-7.5 -86zM700 256v217h-358q-99 0 -154 -67.5t-57 -159.5q-2 -86 46.5 -144.5t152.5 -58.5h151q70 0 115 15t67 46.5t29.5 65.5t7.5 86z" />
    <glyph glyph-name="acircumflex" unicode="&#xe2;" horiz-adv-x="831" 
d="M412 952h-70l82 84h35l84 -84h-70l-31 47zM160 604h-43q0 128 58 192t204 64h102q146 0 204 -64t58 -192v-348q0 -128 -58 -192t-204 -64h-153q-82 0 -138 36.5t-79 90t-23 119.5q0 69 26 127.5t85 98.5t143 40h358v92q0 52 -7.5 86t-29.5 65.5t-67 46.5t-115 15h-102
q-70 0 -115 -15t-67 -46.5t-29.5 -65.5t-7.5 -86zM700 256v217h-358q-99 0 -154 -67.5t-57 -159.5q-2 -86 46.5 -144.5t152.5 -58.5h151q70 0 115 15t67 46.5t29.5 65.5t7.5 86z" />
    <glyph glyph-name="atilde" unicode="&#xe3;" horiz-adv-x="831" 
d="M219 944v64q53 53 111 53q38 0 98.5 -32t87.5 -32q49 0 96 74v-65q-48 -56 -96 -56q-35 0 -97 34t-93 34q-55 0 -107 -74zM160 604h-43q0 128 58 192t204 64h102q146 0 204 -64t58 -192v-348q0 -128 -58 -192t-204 -64h-153q-82 0 -138 36.5t-79 90t-23 119.5
q0 69 26 127.5t85 98.5t143 40h358v92q0 52 -7.5 86t-29.5 65.5t-67 46.5t-115 15h-102q-70 0 -115 -15t-67 -46.5t-29.5 -65.5t-7.5 -86zM700 256v217h-358q-99 0 -154 -67.5t-57 -159.5q-2 -86 46.5 -144.5t152.5 -58.5h151q70 0 115 15t67 46.5t29.5 65.5t7.5 86z" />
    <glyph glyph-name="adieresis" unicode="&#xe4;" horiz-adv-x="831" 
d="M340 952q-24 0 -34 19.5t0 39t34 19.5q23 0 32.5 -19.5t0 -39t-32.5 -19.5zM512 952q-24 0 -34 19.5t0 39t34 19.5q23 0 32.5 -19.5t0 -39t-32.5 -19.5zM160 604h-43q0 128 58 192t204 64h102q146 0 204 -64t58 -192v-348q0 -128 -58 -192t-204 -64h-153q-82 0 -138 36.5
t-79 90t-23 119.5q0 69 26 127.5t85 98.5t143 40h358v92q0 52 -7.5 86t-29.5 65.5t-67 46.5t-115 15h-102q-70 0 -115 -15t-67 -46.5t-29.5 -65.5t-7.5 -86zM700 256v217h-358q-99 0 -154 -67.5t-57 -159.5q-2 -86 46.5 -144.5t152.5 -58.5h151q70 0 115 15t67 46.5
t29.5 65.5t7.5 86z" />
    <glyph glyph-name="aring" unicode="&#xe5;" horiz-adv-x="831" 
d="M430 952q-40 0 -67.5 22t-33.5 54t0.5 63.5t34.5 53.5t68 22q42 0 70.5 -22t34.5 -53.5t-0.5 -63.5t-35.5 -54t-71 -22zM432 993q43 0 61.5 33.5t1 66.5t-60.5 33q-26 0 -43.5 -13.5t-22 -33t-0.5 -39.5t21 -33.5t43 -13.5zM160 604h-43q0 128 58 192t204 64h102
q146 0 204 -64t58 -192v-348q0 -128 -58 -192t-204 -64h-153q-82 0 -138 36.5t-79 90t-23 119.5q0 69 26 127.5t85 98.5t143 40h358v92q0 52 -7.5 86t-29.5 65.5t-67 46.5t-115 15h-102q-70 0 -115 -15t-67 -46.5t-29.5 -65.5t-7.5 -86zM700 256v217h-358q-99 0 -154 -67.5
t-57 -159.5q-2 -86 46.5 -144.5t152.5 -58.5h151q70 0 115 15t67 46.5t29.5 65.5t7.5 86z" />
    <glyph glyph-name="ae" unicode="&#xe6;" horiz-adv-x="1456" 
d="M160 604h-43q0 128 58 192t204 64h102q192 0 240 -121q26 66 84.5 93.5t150.5 27.5h213q48 0 82.5 -11t54 -27.5t30.5 -43.5t14 -50.5t4 -57.5q0 -43 -6.5 -73.5t-25 -61t-58.5 -46.5t-101 -16h-420v-211q0 -70 15 -115t46.5 -67t65.5 -29.5t86 -7.5h136q70 0 115 15
t67 46.5t29.5 65.5t7.5 86h43q0 -128 -58 -192t-204 -64h-136q-184 0 -233 123q-49 -123 -242 -123h-153q-82 0 -138 36.5t-79 90t-23 119.5q0 69 26 127.5t85 98.5t143 40h358v92q0 52 -7.5 86t-29.5 65.5t-67 46.5t-115 15h-102q-70 0 -115 -15t-67 -46.5t-29.5 -65.5
t-7.5 -86zM743 602v-90h420q40 0 68 9.5t43.5 23t24 36.5t10.5 42t2 47q0 34 -3.5 55t-16.5 45t-44 35.5t-80 11.5h-211q-52 0 -86 -7t-65.5 -28t-46.5 -65.5t-15 -114.5zM700 256v217h-358q-99 0 -154 -67.5t-57 -159.5q-2 -86 46.5 -144.5t152.5 -58.5h151q70 0 115 15
t67 46.5t29.5 65.5t7.5 86z" />
    <glyph glyph-name="ccedilla" unicode="&#xe7;" horiz-adv-x="708" 
d="M627 43v-43h-99l-53 -70q43 0 69.5 -19.5t26.5 -55.5q0 -103 -200 -103v47q155 0 155 56q0 36 -69 36q-43 0 -64 -6l82 115h-29q-94 0 -162.5 26.5t-107 68t-60.5 103.5t-28 120.5t-4 132.5q2 68 11.5 123.5t34 110.5t63.5 92t103 60t148 23h183v-43h-183q-74 0 -130 -21
t-89 -53.5t-54 -82.5t-29 -98.5t-11 -110.5q-3 -69 0.5 -120.5t21.5 -109t51 -94t94 -60.5t146 -24h183z" />
    <glyph glyph-name="egrave" unicode="&#xe8;" horiz-adv-x="837" 
d="M469 952h-45l-80 84h70zM545 473h-420v-211q0 -70 15 -115t46.5 -67t65.5 -29.5t86 -7.5h135q70 0 115 15t67 46.5t29.5 65.5t7.5 86h43q0 -128 -58 -192t-204 -64h-135q-128 0 -192 58t-64 204v340q0 146 63.5 202t192.5 56h213q48 0 82.5 -11t53.5 -27.5t30 -43.5
t14 -50.5t4 -57.5q0 -43 -6.5 -73.5t-24.5 -61t-58 -46.5t-101 -16zM125 602v-90h420q40 0 68 9.5t43 23t23.5 36.5t10.5 42t2 47q0 35 -3.5 55.5t-16.5 44.5t-43.5 35.5t-79.5 11.5h-211q-52 0 -86 -7t-65.5 -28t-46.5 -65.5t-15 -114.5z" />
    <glyph glyph-name="eacute" unicode="&#xe9;" horiz-adv-x="837" 
d="M401 952h-45l56 84h69zM545 473h-420v-211q0 -70 15 -115t46.5 -67t65.5 -29.5t86 -7.5h135q70 0 115 15t67 46.5t29.5 65.5t7.5 86h43q0 -128 -58 -192t-204 -64h-135q-128 0 -192 58t-64 204v340q0 146 63.5 202t192.5 56h213q48 0 82.5 -11t53.5 -27.5t30 -43.5
t14 -50.5t4 -57.5q0 -43 -6.5 -73.5t-24.5 -61t-58 -46.5t-101 -16zM125 602v-90h420q40 0 68 9.5t43 23t23.5 36.5t10.5 42t2 47q0 35 -3.5 55.5t-16.5 44.5t-43.5 35.5t-79.5 11.5h-211q-52 0 -86 -7t-65.5 -28t-46.5 -65.5t-15 -114.5z" />
    <glyph glyph-name="ecircumflex" unicode="&#xea;" horiz-adv-x="837" 
d="M410 952h-56l68 84h35l69 -84h-55l-31 47zM545 473h-420v-211q0 -70 15 -115t46.5 -67t65.5 -29.5t86 -7.5h135q70 0 115 15t67 46.5t29.5 65.5t7.5 86h43q0 -128 -58 -192t-204 -64h-135q-128 0 -192 58t-64 204v340q0 146 63.5 202t192.5 56h213q48 0 82.5 -11
t53.5 -27.5t30 -43.5t14 -50.5t4 -57.5q0 -43 -6.5 -73.5t-24.5 -61t-58 -46.5t-101 -16zM125 602v-90h420q40 0 68 9.5t43 23t23.5 36.5t10.5 42t2 47q0 35 -3.5 55.5t-16.5 44.5t-43.5 35.5t-79.5 11.5h-211q-52 0 -86 -7t-65.5 -28t-46.5 -65.5t-15 -114.5z" />
    <glyph glyph-name="edieresis" unicode="&#xeb;" horiz-adv-x="837" 
d="M346 950q-24 0 -34 19.5t0 39t34 19.5q23 0 32.5 -19.5t0 -39t-32.5 -19.5zM518 950q-24 0 -34 19.5t0 39t34 19.5q23 0 32.5 -19.5t0 -39t-32.5 -19.5zM545 473h-420v-211q0 -70 15 -115t46.5 -67t65.5 -29.5t86 -7.5h135q70 0 115 15t67 46.5t29.5 65.5t7.5 86h43
q0 -128 -58 -192t-204 -64h-135q-128 0 -192 58t-64 204v340q0 146 63.5 202t192.5 56h213q48 0 82.5 -11t53.5 -27.5t30 -43.5t14 -50.5t4 -57.5q0 -43 -6.5 -73.5t-24.5 -61t-58 -46.5t-101 -16zM125 602v-90h420q40 0 68 9.5t43 23t23.5 36.5t10.5 42t2 47
q0 35 -3.5 55.5t-16.5 44.5t-43.5 35.5t-79.5 11.5h-211q-52 0 -86 -7t-65.5 -28t-46.5 -65.5t-15 -114.5z" />
    <glyph glyph-name="igrave" unicode="&#xec;" horiz-adv-x="321" 
d="M223 952h-45l-80 84h70zM184 0h-43v860h43v-860z" />
    <glyph glyph-name="iacute" unicode="&#xed;" horiz-adv-x="321" 
d="M143 952h-45l56 84h69zM184 0h-43v860h43v-860z" />
    <glyph glyph-name="icircumflex" unicode="&#xee;" horiz-adv-x="321" 
d="M131 952h-55l67 84h35l70 -84h-55l-31 47zM184 0h-43v860h43v-860z" />
    <glyph glyph-name="idieresis" unicode="&#xef;" horiz-adv-x="321" 
d="M76 952q-24 0 -34 19.5t0 39t34 19.5q23 0 32.5 -19.5t0 -39t-32.5 -19.5zM248 952q-24 0 -34 19.5t0 39t34 19.5q23 0 32.5 -19.5t0 -39t-32.5 -19.5zM184 0h-43v860h43v-860z" />
    <glyph glyph-name="eth" unicode="&#xf0;" horiz-adv-x="899" 
d="M473 887h-55l166 203q-72 37 -162 40h-92v44h96q102 -7 186 -52l70 86h55l-88 -108q48 -34 78 -83t44.5 -122t18.5 -119.5t8 -140.5q1 -14 1 -21v-43q-1 -69 -4.5 -123t-13 -116t-24.5 -107.5t-41.5 -90t-62 -72.5t-87 -45t-115.5 -17h-97q-79 0 -137.5 45t-85.5 112.5
t-27 147.5q1 80 28.5 148.5t87 114.5t140.5 46h394q-1 14 -3 61.5t-3 63t-4.5 56t-7.5 58t-10.5 50t-16 50.5t-22 41.5t-29 40.5t-37.5 32zM754 573h-394q-97 0 -151.5 -79.5t-56.5 -188.5q0 -108 53 -185t151 -77h95q56 0 100 16t74.5 41t53 67t35.5 83t22 100.5
t12.5 107.5t5.5 115z" />
    <glyph glyph-name="ntilde" unicode="&#xf1;" 
d="M233 948v64q53 53 111 53q38 0 98.5 -32t87.5 -32q50 0 97 74v-65q-48 -56 -97 -56q-35 0 -97 34t-93 34q-55 0 -107 -74zM145 0h-43v604q0 128 58.5 192t204.5 64h131q146 0 204 -56.5t58 -199.5v-604h-43v604q0 41 -3 67.5t-15 57t-35 48t-64.5 29t-101.5 11.5h-129
q-70 0 -115.5 -15t-68 -46t-30.5 -66t-8 -86v-604z" />
    <glyph glyph-name="ograve" unicode="&#xf2;" horiz-adv-x="868" 
d="M498 950h-45l-80 84h69zM483 6h-98q-49 0 -89.5 8t-70.5 18.5t-52.5 34t-37.5 40.5t-25.5 52.5t-15.5 55.5t-7.5 65t-2.5 65v69v30q0 45 0.5 71t3.5 67.5t8 66.5t15.5 58.5t25.5 53.5t38 42.5t52.5 34.5t69 20t88.5 8h98q49 0 88.5 -8t69 -20t52.5 -34.5t38 -42.5
t25.5 -53.5t15.5 -58.5t8 -66.5t3.5 -67.5t0.5 -71q0 -160 -8 -214q-22 -145 -128 -194q-64 -30 -165 -30zM385 49h98q55 0 97 10t69 28t46 43t27.5 55.5t14 65.5t5 72t-0.5 76v45v8q0 75 -2 113t-15 96.5t-38.5 87t-76.5 51.5t-126 23h-98q-75 0 -126 -23t-76.5 -51.5
t-38.5 -87t-15 -96.5t-2 -113v-4v-4q0 -148 3 -177q12 -133 91 -181q59 -37 164 -37z" />
    <glyph glyph-name="oacute" unicode="&#xf3;" horiz-adv-x="868" 
d="M418 952h-45l55 84h70zM483 6h-98q-49 0 -89.5 8t-70.5 18.5t-52.5 34t-37.5 40.5t-25.5 52.5t-15.5 55.5t-7.5 65t-2.5 65v69v30q0 45 0.5 71t3.5 67.5t8 66.5t15.5 58.5t25.5 53.5t38 42.5t52.5 34.5t69 20t88.5 8h98q49 0 88.5 -8t69 -20t52.5 -34.5t38 -42.5
t25.5 -53.5t15.5 -58.5t8 -66.5t3.5 -67.5t0.5 -71q0 -160 -8 -214q-22 -145 -128 -194q-64 -30 -165 -30zM385 49h98q55 0 97 10t69 28t46 43t27.5 55.5t14 65.5t5 72t-0.5 76v45v8q0 75 -2 113t-15 96.5t-38.5 87t-76.5 51.5t-126 23h-98q-75 0 -126 -23t-76.5 -51.5
t-38.5 -87t-15 -96.5t-2 -113v-4v-4q0 -148 3 -177q12 -133 91 -181q59 -37 164 -37z" />
    <glyph glyph-name="ocircumflex" unicode="&#xf4;" horiz-adv-x="868" 
d="M403 952h-55l68 84h35l69 -84h-55l-31 47zM483 6h-98q-49 0 -89.5 8t-70.5 18.5t-52.5 34t-37.5 40.5t-25.5 52.5t-15.5 55.5t-7.5 65t-2.5 65v69v30q0 45 0.5 71t3.5 67.5t8 66.5t15.5 58.5t25.5 53.5t38 42.5t52.5 34.5t69 20t88.5 8h98q49 0 88.5 -8t69 -20
t52.5 -34.5t38 -42.5t25.5 -53.5t15.5 -58.5t8 -66.5t3.5 -67.5t0.5 -71q0 -160 -8 -214q-22 -145 -128 -194q-64 -30 -165 -30zM385 49h98q55 0 97 10t69 28t46 43t27.5 55.5t14 65.5t5 72t-0.5 76v45v8q0 75 -2 113t-15 96.5t-38.5 87t-76.5 51.5t-126 23h-98
q-75 0 -126 -23t-76.5 -51.5t-38.5 -87t-15 -96.5t-2 -113v-4v-4q0 -148 3 -177q12 -133 91 -181q59 -37 164 -37z" />
    <glyph glyph-name="otilde" unicode="&#xf5;" horiz-adv-x="868" 
d="M238 948v64q53 53 110 53q38 0 99 -32t88 -32q49 0 96 74v-65q-48 -56 -96 -56q-35 0 -97.5 34t-93.5 34q-54 0 -106 -74zM483 6h-98q-49 0 -89.5 8t-70.5 18.5t-52.5 34t-37.5 40.5t-25.5 52.5t-15.5 55.5t-7.5 65t-2.5 65v69v30q0 45 0.5 71t3.5 67.5t8 66.5t15.5 58.5
t25.5 53.5t38 42.5t52.5 34.5t69 20t88.5 8h98q49 0 88.5 -8t69 -20t52.5 -34.5t38 -42.5t25.5 -53.5t15.5 -58.5t8 -66.5t3.5 -67.5t0.5 -71q0 -160 -8 -214q-22 -145 -128 -194q-64 -30 -165 -30zM385 49h98q55 0 97 10t69 28t46 43t27.5 55.5t14 65.5t5 72t-0.5 76v45v8
q0 75 -2 113t-15 96.5t-38.5 87t-76.5 51.5t-126 23h-98q-75 0 -126 -23t-76.5 -51.5t-38.5 -87t-15 -96.5t-2 -113v-4v-4q0 -148 3 -177q12 -133 91 -181q59 -37 164 -37z" />
    <glyph glyph-name="odieresis" unicode="&#xf6;" horiz-adv-x="868" 
d="M348 952q-24 0 -34 19.5t0 39t34 19.5q23 0 32.5 -19.5t0 -39t-32.5 -19.5zM520 952q-24 0 -34 19.5t0 39t34 19.5q23 0 32.5 -19.5t0 -39t-32.5 -19.5zM483 6h-98q-49 0 -89.5 8t-70.5 18.5t-52.5 34t-37.5 40.5t-25.5 52.5t-15.5 55.5t-7.5 65t-2.5 65v69v30
q0 45 0.5 71t3.5 67.5t8 66.5t15.5 58.5t25.5 53.5t38 42.5t52.5 34.5t69 20t88.5 8h98q49 0 88.5 -8t69 -20t52.5 -34.5t38 -42.5t25.5 -53.5t15.5 -58.5t8 -66.5t3.5 -67.5t0.5 -71q0 -160 -8 -214q-22 -145 -128 -194q-64 -30 -165 -30zM385 49h98q55 0 97 10t69 28
t46 43t27.5 55.5t14 65.5t5 72t-0.5 76v45v8q0 75 -2 113t-15 96.5t-38.5 87t-76.5 51.5t-126 23h-98q-75 0 -126 -23t-76.5 -51.5t-38.5 -87t-15 -96.5t-2 -113v-4v-4q0 -148 3 -177q12 -133 91 -181q59 -37 164 -37z" />
    <glyph glyph-name="divide" unicode="&#xf7;" horiz-adv-x="700" 
d="M326 784q-24 0 -34 19.5t0 39t34 19.5q23 0 32.5 -19.5t0 -39t-32.5 -19.5zM680 582h-660v43h660v-43zM326 340q-24 0 -34 19.5t0 39t34 19.5q23 0 32.5 -19.5t0 -39t-32.5 -19.5z" />
    <glyph glyph-name="oslash" unicode="&#xf8;" horiz-adv-x="868" 
d="M483 6h-98q-71 0 -131 17l-21 -52h-47l27 68q-24 12 -43 28.5t-32 35.5t-23 42t-15.5 47t-9.5 51t-4.5 54.5t-1.5 57t0 58.5v10.5v9.5v11q0 45 0.5 71t3.5 67.5t8 66.5t15.5 58.5t25.5 53.5t38 42.5t52.5 34.5t69 20t88.5 8h98q33 0 47 -2l23 60h47l-25 -66
q43 -9 76.5 -27t55.5 -39t37 -56t23 -62t12 -73.5t4.5 -75.5t0.5 -81q0 -160 -8 -214q-22 -145 -128 -194q-64 -30 -165 -30zM229 82l285 741h-129q-75 0 -126 -23t-76.5 -51.5t-38.5 -87t-15 -96.5t-2 -113v-4v-4q0 -15 -0.5 -49t0 -50.5t1 -46.5t3.5 -46.5t7.5 -41.5
t12 -40.5t18.5 -33t26 -31t34 -23.5zM385 49h98q55 0 97 10t69 28t46 43t27.5 55.5t14 65.5t5 72t-0.5 76v45q0 152 -14 212q-30 125 -147 156q-10 3 -21 5l-291 -754q43 -14 117 -14z" />
    <glyph glyph-name="ugrave" unicode="&#xf9;" 
d="M485 952h-45l-80 84h70zM102 258v604h43v-604q0 -51 8 -86t30.5 -66t68 -46t115.5 -15h129q60 0 101.5 11.5t64.5 29t35 48t15 57t3 67.5v604h43v-604q0 -134 -59.5 -195t-202.5 -61h-131q-146 0 -204.5 64t-58.5 192z" />
    <glyph glyph-name="uacute" unicode="&#xfa;" 
d="M420 952h-45l55 84h70zM102 258v604h43v-604q0 -51 8 -86t30.5 -66t68 -46t115.5 -15h129q60 0 101.5 11.5t64.5 29t35 48t15 57t3 67.5v604h43v-604q0 -134 -59.5 -195t-202.5 -61h-131q-146 0 -204.5 64t-58.5 192z" />
    <glyph glyph-name="ucircumflex" unicode="&#xfb;" 
d="M399 950h-55l68 84h34l70 -84h-55l-31 47zM102 258v604h43v-604q0 -51 8 -86t30.5 -66t68 -46t115.5 -15h129q60 0 101.5 11.5t64.5 29t35 48t15 57t3 67.5v604h43v-604q0 -134 -59.5 -195t-202.5 -61h-131q-146 0 -204.5 64t-58.5 192z" />
    <glyph glyph-name="udieresis" unicode="&#xfc;" 
d="M344 952q-24 0 -34 19.5t0 39t34 19.5q23 0 32.5 -19.5t0 -39t-32.5 -19.5zM516 952q-24 0 -34 19.5t0 39t34 19.5q23 0 32.5 -19.5t0 -39t-32.5 -19.5zM102 258v604h43v-604q0 -51 8 -86t30.5 -66t68 -46t115.5 -15h129q60 0 101.5 11.5t64.5 29t35 48t15 57t3 67.5v604
h43v-604q0 -134 -59.5 -195t-202.5 -61h-131q-146 0 -204.5 64t-58.5 192z" />
    <glyph glyph-name="yacute" unicode="&#xfd;" horiz-adv-x="880" 
d="M424 952h-45l55 84h70zM102 -92h43q0 -52 7.5 -86.5t29.5 -65.5t67.5 -46t115.5 -15h94q256 0 256 199v188q-57 -80 -219 -80h-131q-146 0 -204.5 64t-58.5 192v604h43v-604q0 -51 8 -86t30.5 -66t68 -46t115.5 -15h129q60 0 101.5 11.5t64.5 29t35 48t15 57t3 67.5v604
h43v-966q0 -244 -297 -244h-96q-146 0 -204.5 64t-58.5 192z" />
    <glyph glyph-name="thorn" unicode="&#xfe;" horiz-adv-x="950" 
d="M166 -346h-43v1554h43v-428q60 82 219 82h59q383 0 383 -438q-1 -68 -11.5 -126t-37 -114t-68 -95t-108.5 -63t-153 -24h-283v-348zM166 606v-561h280q76 0 134.5 21.5t95 57t60 85.5t32.5 102t10 113q1 65 -5 117.5t-27 106t-57 89.5t-97.5 59t-145.5 23h-63
q-70 0 -115 -15t-66.5 -46.5t-28.5 -65.5t-7 -86z" />
    <glyph glyph-name="ydieresis" unicode="&#xff;" horiz-adv-x="880" 
d="M354 952q-24 0 -34 19.5t0 39t34 19.5q23 0 32.5 -19.5t0 -39t-32.5 -19.5zM526 952q-24 0 -34 19.5t0 39t34 19.5q23 0 32.5 -19.5t0 -39t-32.5 -19.5zM102 -92h43q0 -52 7.5 -86.5t29.5 -65.5t67.5 -46t115.5 -15h94q256 0 256 199v188q-57 -80 -219 -80h-131
q-146 0 -204.5 64t-58.5 192v604h43v-604q0 -51 8 -86t30.5 -66t68 -46t115.5 -15h129q60 0 101.5 11.5t64.5 29t35 48t15 57t3 67.5v604h43v-966q0 -244 -297 -244h-96q-146 0 -204.5 64t-58.5 192z" />
    <glyph glyph-name="Amacron" unicode="&#x100;" horiz-adv-x="995" 
d="M782 1290h-471v43h471v-43zM545 0h-504l477 1206h60l376 -1206h-45l-362 1161l-443 -1118h441v-43z" />
    <glyph glyph-name="amacron" unicode="&#x101;" horiz-adv-x="831" 
d="M668 952h-471v43h471v-43zM160 604h-43q0 128 58 192t204 64h102q146 0 204 -64t58 -192v-348q0 -128 -58 -192t-204 -64h-153q-82 0 -138 36.5t-79 90t-23 119.5q0 69 26 127.5t85 98.5t143 40h358v92q0 52 -7.5 86t-29.5 65.5t-67 46.5t-115 15h-102q-70 0 -115 -15
t-67 -46.5t-29.5 -65.5t-7.5 -86zM700 256v217h-358q-99 0 -154 -67.5t-57 -159.5q-2 -86 46.5 -144.5t152.5 -58.5h151q70 0 115 15t67 46.5t29.5 65.5t7.5 86z" />
    <glyph glyph-name="Abreve" unicode="&#x102;" horiz-adv-x="995" 
d="M387 1395h47q8 -41 22.5 -51.5t69.5 -10.5h39q54 0 67 10.5t21 51.5h47q-10 -55 -19 -69q-23 -36 -116 -36h-39q-46 0 -73 6t-40.5 22.5t-17.5 31t-8 45.5zM545 0h-504l477 1206h60l376 -1206h-45l-362 1161l-443 -1118h441v-43z" />
    <glyph glyph-name="abreve" unicode="&#x103;" horiz-adv-x="831" 
d="M270 1057h47q8 -41 22.5 -51.5t70.5 -10.5h39q54 0 67 10.5t21 51.5h47q-10 -55 -19 -69q-23 -36 -116 -36h-39q-46 0 -73.5 6t-41 22.5t-17.5 31.5t-8 45zM160 604h-43q0 128 58 192t204 64h102q146 0 204 -64t58 -192v-348q0 -128 -58 -192t-204 -64h-153
q-82 0 -138 36.5t-79 90t-23 119.5q0 69 26 127.5t85 98.5t143 40h358v92q0 52 -7.5 86t-29.5 65.5t-67 46.5t-115 15h-102q-70 0 -115 -15t-67 -46.5t-29.5 -65.5t-7.5 -86zM700 256v217h-358q-99 0 -154 -67.5t-57 -159.5q-2 -86 46.5 -144.5t152.5 -58.5h151q70 0 115 15
t67 46.5t29.5 65.5t7.5 86z" />
    <glyph glyph-name="Aogonek" unicode="&#x104;" horiz-adv-x="995" 
d="M545 0h-504l477 1206h60l376 -1206q-81 -44 -73 -100q3 -27 32 -27q31 0 62 25v-45q-36 -25 -70 -25q-56 0 -71 49q-21 78 71 137l-358 1147l-443 -1118h441v-43z" />
    <glyph glyph-name="aogonek" unicode="&#x105;" horiz-adv-x="831" 
d="M160 604h-43q0 128 58 192t204 64h102q146 0 204 -64t58 -192v-348q0 -165 -92 -219q-81 -44 -73 -100q3 -27 32 -27q32 0 62 24v-45q-34 -24 -70 -24q-57 0 -72 49q-15 46 19 90q-40 -4 -68 -4h-153q-82 0 -138 36.5t-79 90t-23 119.5q0 69 26 127.5t85 98.5t143 40h358
v92q0 52 -7.5 86t-29.5 65.5t-67 46.5t-115 15h-102q-70 0 -115 -15t-67 -46.5t-29.5 -65.5t-7.5 -86zM700 256v217h-358q-99 0 -154 -67.5t-57 -159.5q-2 -86 46.5 -144.5t152.5 -58.5h151q70 0 115 15t67 46.5t29.5 65.5t7.5 86z" />
    <glyph glyph-name="Cacute" unicode="&#x106;" horiz-adv-x="929" 
d="M547 1292h-45l55 84h70zM825 43v-43h-315q-79 0 -141 18t-104 46.5t-72.5 75.5t-47 92.5t-26 111.5t-12.5 119t-3 127t2.5 131.5t12.5 124.5t27 116.5t48 98t73 79.5t103.5 49.5t139.5 18.5h315v-43h-315q-54 0 -99.5 -10.5t-79.5 -28.5t-61 -47t-45 -59.5t-31.5 -73
t-21 -80.5t-12 -89t-5.5 -92t-1 -95q0 -55 1 -92t4.5 -87.5t10.5 -85.5t20 -76.5t31 -69t45 -55.5t61 -44.5t80.5 -26.5t102.5 -10h315z" />
    <glyph glyph-name="cacute" unicode="&#x107;" horiz-adv-x="708" 
d="M412 952h-45l55 84h70zM627 43v-43h-181q-94 0 -162.5 26.5t-107 68t-60.5 103.5t-28 120.5t-4 132.5q2 68 11.5 123.5t34 110.5t63.5 92t103 60t148 23h183v-43h-183q-74 0 -130 -21t-89 -53.5t-54 -82.5t-29 -98.5t-11 -110.5q-3 -69 0.5 -120.5t21.5 -109t51 -94
t94 -60.5t146 -24h183z" />
    <glyph glyph-name="Ccircumflex" unicode="&#x108;" horiz-adv-x="929" 
d="M485 1290h-55l68 84h34l70 -84h-55l-31 47zM825 43v-43h-315q-79 0 -141 18t-104 46.5t-72.5 75.5t-47 92.5t-26 111.5t-12.5 119t-3 127t2.5 131.5t12.5 124.5t27 116.5t48 98t73 79.5t103.5 49.5t139.5 18.5h315v-43h-315q-54 0 -99.5 -10.5t-79.5 -28.5t-61 -47
t-45 -59.5t-31.5 -73t-21 -80.5t-12 -89t-5.5 -92t-1 -95q0 -55 1 -92t4.5 -87.5t10.5 -85.5t20 -76.5t31 -69t45 -55.5t61 -44.5t80.5 -26.5t102.5 -10h315z" />
    <glyph glyph-name="ccircumflex" unicode="&#x109;" horiz-adv-x="708" 
d="M418 952h-56l68 84h35l70 -84h-56l-30 47zM627 43v-43h-181q-94 0 -162.5 26.5t-107 68t-60.5 103.5t-28 120.5t-4 132.5q2 68 11.5 123.5t34 110.5t63.5 92t103 60t148 23h183v-43h-183q-74 0 -130 -21t-89 -53.5t-54 -82.5t-29 -98.5t-11 -110.5q-3 -69 0.5 -120.5
t21.5 -109t51 -94t94 -60.5t146 -24h183z" />
    <glyph glyph-name="Cdotaccent" unicode="&#x10a;" horiz-adv-x="929" 
d="M545 1290q-24 0 -34 19.5t0 39t34 19.5q23 0 32.5 -19.5t0 -39t-32.5 -19.5zM825 43v-43h-315q-79 0 -141 18t-104 46.5t-72.5 75.5t-47 92.5t-26 111.5t-12.5 119t-3 127t2.5 131.5t12.5 124.5t27 116.5t48 98t73 79.5t103.5 49.5t139.5 18.5h315v-43h-315
q-54 0 -99.5 -10.5t-79.5 -28.5t-61 -47t-45 -59.5t-31.5 -73t-21 -80.5t-12 -89t-5.5 -92t-1 -95q0 -55 1 -92t4.5 -87.5t10.5 -85.5t20 -76.5t31 -69t45 -55.5t61 -44.5t80.5 -26.5t102.5 -10h315z" />
    <glyph glyph-name="cdotaccent" unicode="&#x10b;" horiz-adv-x="708" 
d="M410 952q-24 0 -34 19.5t0 39t34 19.5q23 0 32.5 -19.5t0 -39t-32.5 -19.5zM627 43v-43h-181q-94 0 -162.5 26.5t-107 68t-60.5 103.5t-28 120.5t-4 132.5q2 68 11.5 123.5t34 110.5t63.5 92t103 60t148 23h183v-43h-183q-74 0 -130 -21t-89 -53.5t-54 -82.5t-29 -98.5
t-11 -110.5q-3 -69 0.5 -120.5t21.5 -109t51 -94t94 -60.5t146 -24h183z" />
    <glyph glyph-name="Ccaron" unicode="&#x10c;" horiz-adv-x="929" 
d="M512 1288l-68 84h56l30 -47l31 47h55l-69 -84h-35zM825 43v-43h-315q-79 0 -141 18t-104 46.5t-72.5 75.5t-47 92.5t-26 111.5t-12.5 119t-3 127t2.5 131.5t12.5 124.5t27 116.5t48 98t73 79.5t103.5 49.5t139.5 18.5h315v-43h-315q-54 0 -99.5 -10.5t-79.5 -28.5
t-61 -47t-45 -59.5t-31.5 -73t-21 -80.5t-12 -89t-5.5 -92t-1 -95q0 -55 1 -92t4.5 -87.5t10.5 -85.5t20 -76.5t31 -69t45 -55.5t61 -44.5t80.5 -26.5t102.5 -10h315z" />
    <glyph glyph-name="ccaron" unicode="&#x10d;" horiz-adv-x="708" 
d="M434 952h-35l-67 84h55l31 -47l31 47h55zM627 43v-43h-181q-94 0 -162.5 26.5t-107 68t-60.5 103.5t-28 120.5t-4 132.5q2 68 11.5 123.5t34 110.5t63.5 92t103 60t148 23h183v-43h-183q-74 0 -130 -21t-89 -53.5t-54 -82.5t-29 -98.5t-11 -110.5q-3 -69 0.5 -120.5
t21.5 -109t51 -94t94 -60.5t146 -24h183z" />
    <glyph glyph-name="Dcaron" unicode="&#x10e;" horiz-adv-x="962" 
d="M475 1290h-35l-67 84h55l31 -47l30 47h56zM453 0h-310v1208h310q62 0 113 -11t89.5 -29t69.5 -47.5t51.5 -60.5t35.5 -74.5t23.5 -82t13.5 -91.5t7 -95t2 -99q0 -74 -2.5 -131.5t-12 -124.5t-27 -116.5t-48 -98t-72.5 -79t-104 -49.5t-139 -19zM186 1165v-1122h267
q54 0 99.5 10.5t79.5 28.5t61 47t45 59.5t31.5 73t21 80.5t12 89t5.5 92t1 95q0 55 -1 92t-4.5 87.5t-10.5 85.5t-20 76.5t-31 69t-45 55.5t-61 44.5t-80.5 26.5t-102.5 10h-267z" />
    <glyph glyph-name="dcaron" unicode="&#x10f;" horiz-adv-x="917" 
d="M442 860h252v348h43v-952q0 -128 -58 -192t-204 -64h-33q-77 0 -136.5 17t-98 49t-64 71t-38.5 91.5t-18 101t-5 108.5q1 69 9.5 126t32.5 114t63 95.5t104 62.5t151 24zM870 1077h-53l31 131h35zM694 256v561h-252q-79 0 -137 -22t-91.5 -56t-54 -86t-27 -101.5
t-7.5 -113.5q-1 -67 3.5 -117.5t23.5 -105.5t52.5 -90.5t93.5 -58.5t144 -23h33q70 0 115 15t67 46.5t29.5 65.5t7.5 86z" />
    <glyph glyph-name="Dcroat" unicode="&#x110;" horiz-adv-x="962" 
d="M453 0h-310v559h-71v43h71v606h310q62 0 113 -11t89.5 -29t69.5 -47.5t51.5 -60.5t35.5 -74.5t23.5 -82t13.5 -91.5t7 -95t2 -99q0 -74 -2.5 -131.5t-12 -124.5t-27 -116.5t-48 -98t-72.5 -79t-104 -49.5t-139 -19zM186 559v-516h267q54 0 99.5 10.5t79.5 28.5t61 47
t45 59.5t31.5 73t21 80.5t12 89t5.5 92t1 95q0 55 -1 92t-4.5 87.5t-10.5 85.5t-20 76.5t-31 69t-45 55.5t-61 44.5t-80.5 26.5t-102.5 10h-267v-563h369v-43h-369z" />
    <glyph glyph-name="dcroat" unicode="&#x111;" horiz-adv-x="839" 
d="M442 860h252v248h-370v43h370v57h43v-57h58v-43h-58v-852q0 -128 -58 -192t-204 -64h-33q-77 0 -136.5 17t-98 49t-64 71t-38.5 91.5t-18 101t-5 108.5q1 69 9.5 126t32.5 114t63 95.5t104 62.5t151 24zM694 256v561h-252q-79 0 -137 -22t-91.5 -56t-54 -86t-27 -101.5
t-7.5 -113.5q-1 -67 3.5 -117.5t23.5 -105.5t52.5 -90.5t93.5 -58.5t144 -23h33q70 0 115 15t67 46.5t29.5 65.5t7.5 86z" />
    <glyph glyph-name="Emacron" unicode="&#x112;" horiz-adv-x="923" 
d="M711 1290h-471v43h471v-43zM815 573h-670v-317q0 -52 7.5 -86.5t29.5 -65.5t67.5 -46t115.5 -15h450v-43h-450q-146 0 -204.5 64t-58.5 192v696q0 128 58.5 192t204.5 64h452v-43h-452q-70 0 -115.5 -15t-67.5 -46t-29.5 -65.5t-7.5 -86.5v-338h670v-41z" />
    <glyph glyph-name="emacron" unicode="&#x113;" horiz-adv-x="837" 
d="M655 952h-471v43h471v-43zM545 473h-420v-211q0 -70 15 -115t46.5 -67t65.5 -29.5t86 -7.5h135q70 0 115 15t67 46.5t29.5 65.5t7.5 86h43q0 -128 -58 -192t-204 -64h-135q-128 0 -192 58t-64 204v340q0 146 63.5 202t192.5 56h213q48 0 82.5 -11t53.5 -27.5t30 -43.5
t14 -50.5t4 -57.5q0 -43 -6.5 -73.5t-24.5 -61t-58 -46.5t-101 -16zM125 602v-90h420q40 0 68 9.5t43 23t23.5 36.5t10.5 42t2 47q0 35 -3.5 55.5t-16.5 44.5t-43.5 35.5t-79.5 11.5h-211q-52 0 -86 -7t-65.5 -28t-46.5 -65.5t-15 -114.5z" />
    <glyph glyph-name="Ebreve" unicode="&#x114;" horiz-adv-x="923" 
d="M342 1393h47q8 -41 22.5 -51.5t69.5 -10.5h39q54 0 67 10.5t21 51.5h47q-10 -55 -19 -69q-23 -36 -116 -36h-39q-46 0 -73 6t-40.5 22.5t-17.5 31t-8 45.5zM815 573h-670v-317q0 -52 7.5 -86.5t29.5 -65.5t67.5 -46t115.5 -15h450v-43h-450q-146 0 -204.5 64t-58.5 192
v696q0 128 58.5 192t204.5 64h452v-43h-452q-70 0 -115.5 -15t-67.5 -46t-29.5 -65.5t-7.5 -86.5v-338h670v-41z" />
    <glyph glyph-name="ebreve" unicode="&#x115;" horiz-adv-x="837" 
d="M268 1057h47q8 -41 22.5 -51.5t70.5 -10.5h38q54 0 67.5 10.5t21.5 51.5h47q-1 -4 -2 -11q-5 -28 -9 -40.5t-17 -27.5t-39 -20.5t-69 -5.5h-38q-46 0 -73.5 6t-41 22.5t-17.5 31.5t-8 45zM545 473h-420v-211q0 -70 15 -115t46.5 -67t65.5 -29.5t86 -7.5h135q70 0 115 15
t67 46.5t29.5 65.5t7.5 86h43q0 -128 -58 -192t-204 -64h-135q-128 0 -192 58t-64 204v340q0 146 63.5 202t192.5 56h213q48 0 82.5 -11t53.5 -27.5t30 -43.5t14 -50.5t4 -57.5q0 -43 -6.5 -73.5t-24.5 -61t-58 -46.5t-101 -16zM125 602v-90h420q40 0 68 9.5t43 23
t23.5 36.5t10.5 42t2 47q0 35 -3.5 55.5t-16.5 44.5t-43.5 35.5t-79.5 11.5h-211q-52 0 -86 -7t-65.5 -28t-46.5 -65.5t-15 -114.5z" />
    <glyph glyph-name="Edotaccent" unicode="&#x116;" horiz-adv-x="923" 
d="M494 1290q-24 0 -34 19.5t0 39t34 19.5q23 0 32.5 -19.5t0 -39t-32.5 -19.5zM815 573h-670v-317q0 -52 7.5 -86.5t29.5 -65.5t67.5 -46t115.5 -15h450v-43h-450q-146 0 -204.5 64t-58.5 192v696q0 128 58.5 192t204.5 64h452v-43h-452q-70 0 -115.5 -15t-67.5 -46
t-29.5 -65.5t-7.5 -86.5v-338h670v-41z" />
    <glyph glyph-name="edotaccent" unicode="&#x117;" horiz-adv-x="837" 
d="M420 950q-24 0 -34 19.5t0 39t34 19.5q23 0 32.5 -19.5t0 -39t-32.5 -19.5zM545 473h-420v-211q0 -70 15 -115t46.5 -67t65.5 -29.5t86 -7.5h135q70 0 115 15t67 46.5t29.5 65.5t7.5 86h43q0 -128 -58 -192t-204 -64h-135q-128 0 -192 58t-64 204v340q0 146 63.5 202
t192.5 56h213q48 0 82.5 -11t53.5 -27.5t30 -43.5t14 -50.5t4 -57.5q0 -43 -6.5 -73.5t-24.5 -61t-58 -46.5t-101 -16zM125 602v-90h420q40 0 68 9.5t43 23t23.5 36.5t10.5 42t2 47q0 35 -3.5 55.5t-16.5 44.5t-43.5 35.5t-79.5 11.5h-211q-52 0 -86 -7t-65.5 -28
t-46.5 -65.5t-15 -114.5z" />
    <glyph glyph-name="Eogonek" unicode="&#x118;" horiz-adv-x="923" 
d="M815 573h-670v-317q0 -52 7.5 -86.5t29.5 -65.5t67.5 -46t115.5 -15h450v-43h-20q-42 -23 -59.5 -50t-14.5 -50q3 -27 33 -27t61 25v-45q-36 -25 -70 -25q-56 0 -71 49q-20 67 49 123h-358q-146 0 -204.5 64t-58.5 192v696q0 128 58.5 192t204.5 64h452v-43h-452
q-70 0 -115.5 -15t-67.5 -46t-29.5 -65.5t-7.5 -86.5v-338h670v-41z" />
    <glyph glyph-name="eogonek" unicode="&#x119;" horiz-adv-x="837" 
d="M545 473h-420v-211q0 -70 15 -115t46.5 -67t65.5 -29.5t86 -7.5h135q70 0 115 15t67 46.5t29.5 65.5t7.5 86h43q0 -86 -24.5 -142.5t-81.5 -84.5q-51 -40 -43 -80q3 -27 32 -27q31 0 62 25v-45q-36 -25 -70 -25q-56 0 -71 49q-11 42 10 80q-35 -6 -76 -6h-135
q-128 0 -192 58t-64 204v340q0 146 63.5 202t192.5 56h213q48 0 82.5 -11t53.5 -27.5t30 -43.5t14 -50.5t4 -57.5q0 -43 -6.5 -73.5t-24.5 -61t-58 -46.5t-101 -16zM125 602v-90h420q40 0 68 9.5t43 23t23.5 36.5t10.5 42t2 47q0 35 -3.5 55.5t-16.5 44.5t-43.5 35.5
t-79.5 11.5h-211q-52 0 -86 -7t-65.5 -28t-46.5 -65.5t-15 -114.5z" />
    <glyph glyph-name="Ecaron" unicode="&#x11a;" horiz-adv-x="923" 
d="M510 1292h-35l-67 84h55l31 -47l30 47h56zM815 573h-670v-317q0 -52 7.5 -86.5t29.5 -65.5t67.5 -46t115.5 -15h450v-43h-450q-146 0 -204.5 64t-58.5 192v696q0 128 58.5 192t204.5 64h452v-43h-452q-70 0 -115.5 -15t-67.5 -46t-29.5 -65.5t-7.5 -86.5v-338h670v-41z
" />
    <glyph glyph-name="ecaron" unicode="&#x11b;" horiz-adv-x="837" 
d="M436 952h-35l-67 84h55l31 -47l31 47h55zM545 473h-420v-211q0 -70 15 -115t46.5 -67t65.5 -29.5t86 -7.5h135q70 0 115 15t67 46.5t29.5 65.5t7.5 86h43q0 -128 -58 -192t-204 -64h-135q-128 0 -192 58t-64 204v340q0 146 63.5 202t192.5 56h213q48 0 82.5 -11
t53.5 -27.5t30 -43.5t14 -50.5t4 -57.5q0 -43 -6.5 -73.5t-24.5 -61t-58 -46.5t-101 -16zM125 602v-90h420q40 0 68 9.5t43 23t23.5 36.5t10.5 42t2 47q0 35 -3.5 55.5t-16.5 44.5t-43.5 35.5t-79.5 11.5h-211q-52 0 -86 -7t-65.5 -28t-46.5 -65.5t-15 -114.5z" />
    <glyph glyph-name="Gcircumflex" unicode="&#x11c;" horiz-adv-x="935" 
d="M469 1286h-55l67 84h35l70 -84h-56l-30 47zM774 532h-180v41h223v-317q0 -128 -58 -192t-204 -64h-92q-66 0 -119 12t-90 34t-64.5 52.5t-42.5 68.5t-25.5 82.5t-13 92.5t-4.5 99.5t0 104.5v18.5v17v18.5q0 207 7 271q19 193 121 270q87 67 245 67h78q146 0 204 -64
t58 -192v-32h-43v32q0 52 -7.5 86t-29.5 65.5t-67 46.5t-115 15h-82q-79 0 -137 -19.5t-91.5 -54.5t-55.5 -83t-28 -104t-9 -118t0 -125v-65q0 -203 5 -256q15 -173 99 -240q72 -57 203 -57h96q70 0 115 15t67 46.5t29.5 65.5t7.5 86v276z" />
    <glyph glyph-name="gcircumflex" unicode="&#x11d;" horiz-adv-x="841" 
d="M408 952h-56l68 84h35l69 -84h-55l-31 47zM84 -92h43q0 -52 7.5 -86t29.5 -65.5t67 -46.5t115 -15h174q57 0 93 13t53 41t22.5 54t7.5 68v211q-60 -82 -219 -82h-80q-62 0 -111 13t-82 33.5t-56 55t-35.5 67.5t-19.5 81t-8.5 86t-0.5 92q3 161 16 222q30 142 146 187
q62 23 151 23h80q146 0 204 -64t58 -192v-733q-3 -109 -48.5 -164t-170.5 -55h-174q-146 0 -204 64t-58 192zM397 43h80q70 0 115 15t67 46.5t29.5 65.5t7.5 86v348q0 52 -7.5 86t-29.5 65.5t-67 46.5t-115 15h-80q-78 0 -131.5 -23t-80.5 -52.5t-40.5 -89t-15.5 -98
t-2 -114.5v-12q0 -41 0.5 -65t3 -61t7.5 -60t14 -53.5t22.5 -49t34 -39t47 -31.5t62.5 -18.5t79 -7.5z" />
    <glyph glyph-name="Gbreve" unicode="&#x11e;" horiz-adv-x="935" 
d="M340 1397h47q8 -41 22.5 -51.5t69.5 -10.5h39q54 0 67 10.5t21 51.5h47q-10 -55 -19 -69q-23 -36 -116 -36h-39q-46 0 -73 6t-40.5 22.5t-17.5 31t-8 45.5zM774 532h-180v41h223v-317q0 -128 -58 -192t-204 -64h-92q-66 0 -119 12t-90 34t-64.5 52.5t-42.5 68.5
t-25.5 82.5t-13 92.5t-4.5 99.5t0 104.5v18.5v17v18.5q0 207 7 271q19 193 121 270q87 67 245 67h78q146 0 204 -64t58 -192v-32h-43v32q0 52 -7.5 86t-29.5 65.5t-67 46.5t-115 15h-82q-79 0 -137 -19.5t-91.5 -54.5t-55.5 -83t-28 -104t-9 -118t0 -125v-65q0 -203 5 -256
q15 -173 99 -240q72 -57 203 -57h96q70 0 115 15t67 46.5t29.5 65.5t7.5 86v276z" />
    <glyph glyph-name="gbreve" unicode="&#x11f;" horiz-adv-x="841" 
d="M272 1055h47q8 -41 22.5 -51.5t70.5 -10.5h39q54 0 67 10.5t21 51.5h47q-10 -55 -19 -69q-23 -36 -116 -36h-39q-46 0 -73.5 6t-41 22.5t-17.5 31.5t-8 45zM84 -92h43q0 -52 7.5 -86t29.5 -65.5t67 -46.5t115 -15h174q57 0 93 13t53 41t22.5 54t7.5 68v211
q-60 -82 -219 -82h-80q-62 0 -111 13t-82 33.5t-56 55t-35.5 67.5t-19.5 81t-8.5 86t-0.5 92q3 161 16 222q30 142 146 187q62 23 151 23h80q146 0 204 -64t58 -192v-733q-3 -109 -48.5 -164t-170.5 -55h-174q-146 0 -204 64t-58 192zM397 43h80q70 0 115 15t67 46.5
t29.5 65.5t7.5 86v348q0 52 -7.5 86t-29.5 65.5t-67 46.5t-115 15h-80q-78 0 -131.5 -23t-80.5 -52.5t-40.5 -89t-15.5 -98t-2 -114.5v-12q0 -41 0.5 -65t3 -61t7.5 -60t14 -53.5t22.5 -49t34 -39t47 -31.5t62.5 -18.5t79 -7.5z" />
    <glyph glyph-name="Gdotaccent" unicode="&#x120;" horiz-adv-x="935" 
d="M477 1290q-24 0 -34 19.5t0 39t34 19.5q23 0 32.5 -19.5t0 -39t-32.5 -19.5zM774 532h-180v41h223v-317q0 -128 -58 -192t-204 -64h-92q-66 0 -119 12t-90 34t-64.5 52.5t-42.5 68.5t-25.5 82.5t-13 92.5t-4.5 99.5t0 104.5v18.5v17v18.5q0 207 7 271q19 193 121 270
q87 67 245 67h78q146 0 204 -64t58 -192v-32h-43v32q0 52 -7.5 86t-29.5 65.5t-67 46.5t-115 15h-82q-79 0 -137 -19.5t-91.5 -54.5t-55.5 -83t-28 -104t-9 -118t0 -125v-65q0 -203 5 -256q15 -173 99 -240q72 -57 203 -57h96q70 0 115 15t67 46.5t29.5 65.5t7.5 86v276z
" />
    <glyph glyph-name="gdotaccent" unicode="&#x121;" horiz-adv-x="841" 
d="M422 950q-24 0 -34 19.5t0 39t34 19.5q23 0 32.5 -19.5t0 -39t-32.5 -19.5zM84 -92h43q0 -52 7.5 -86t29.5 -65.5t67 -46.5t115 -15h174q57 0 93 13t53 41t22.5 54t7.5 68v211q-60 -82 -219 -82h-80q-62 0 -111 13t-82 33.5t-56 55t-35.5 67.5t-19.5 81t-8.5 86t-0.5 92
q3 161 16 222q30 142 146 187q62 23 151 23h80q146 0 204 -64t58 -192v-733q-3 -109 -48.5 -164t-170.5 -55h-174q-146 0 -204 64t-58 192zM397 43h80q70 0 115 15t67 46.5t29.5 65.5t7.5 86v348q0 52 -7.5 86t-29.5 65.5t-67 46.5t-115 15h-80q-78 0 -131.5 -23
t-80.5 -52.5t-40.5 -89t-15.5 -98t-2 -114.5v-12q0 -41 0.5 -65t3 -61t7.5 -60t14 -53.5t22.5 -49t34 -39t47 -31.5t62.5 -18.5t79 -7.5z" />
    <glyph glyph-name="uni0122" unicode="&#x122;" horiz-adv-x="919" 
d="M774 532h-180v41h223v-317q0 -128 -58 -192t-204 -64h-92q-66 0 -119 12t-90 34t-64.5 52.5t-42.5 68.5t-25.5 82.5t-13 92.5t-4.5 99.5t0 104.5v18.5v17v18.5q0 207 7 271q19 193 121 270q87 67 245 67h78q146 0 204 -64t58 -192v-32h-43v32q0 52 -7.5 86t-29.5 65.5
t-67 46.5t-115 15h-82q-79 0 -137 -19.5t-91.5 -54.5t-55.5 -83t-28 -104t-9 -118t0 -125v-65q0 -203 5 -256q15 -173 99 -240q72 -57 203 -57h96q70 0 115 15t67 46.5t29.5 65.5t7.5 86v276zM442 -176h-45l56 84h69z" />
    <glyph glyph-name="uni0123" unicode="&#x123;" horiz-adv-x="841" 
d="M414 1036h69l-80 -84h-45zM84 -92h43q0 -52 7.5 -86t29.5 -65.5t67 -46.5t115 -15h174q57 0 93 13t53 41t22.5 54t7.5 68v211q-60 -82 -219 -82h-80q-62 0 -111 13t-82 33.5t-56 55t-35.5 67.5t-19.5 81t-8.5 86t-0.5 92q3 161 16 222q30 142 146 187q62 23 151 23h80
q146 0 204 -64t58 -192v-733q-3 -109 -48.5 -164t-170.5 -55h-174q-146 0 -204 64t-58 192zM397 43h80q70 0 115 15t67 46.5t29.5 65.5t7.5 86v348q0 52 -7.5 86t-29.5 65.5t-67 46.5t-115 15h-80q-78 0 -131.5 -23t-80.5 -52.5t-40.5 -89t-15.5 -98t-2 -114.5v-12
q0 -41 0.5 -65t3 -61t7.5 -60t14 -53.5t22.5 -49t34 -39t47 -31.5t62.5 -18.5t79 -7.5z" />
    <glyph glyph-name="Hcircumflex" unicode="&#x124;" horiz-adv-x="1003" 
d="M471 1290h-55l67 84h35l70 -84h-56l-30 47zM186 0h-43v1208h43v-635h631v635h43v-1208h-43v530h-631v-530z" />
    <glyph glyph-name="hcircumflex" unicode="&#x125;" horiz-adv-x="880" 
d="M115 1290h-56l68 84h35l69 -84h-55l-31 47zM166 0h-43v1208h43v-430q60 82 219 82h131q146 0 204 -64t58 -192v-604h-43v604q0 52 -7.5 86t-29.5 65.5t-67 46.5t-115 15h-131q-70 0 -115 -15t-67 -46.5t-29.5 -65.5t-7.5 -86v-604z" />
    <glyph glyph-name="Hbar" unicode="&#x126;" horiz-adv-x="1003" 
d="M186 0h-43v1036h-53v43h53v129h43v-129h631v129h43v-129h53v-43h-53v-1036h-43v530h-631v-530zM186 1036v-463h631v463h-631z" />
    <glyph glyph-name="hbar" unicode="&#x127;" horiz-adv-x="880" 
d="M166 0h-43v1036h-53v43h53v129h43v-129h377v-43h-377v-258q60 82 219 82h131q146 0 204 -64t58 -192v-604h-43v604q0 52 -7.5 86t-29.5 65.5t-67 46.5t-115 15h-131q-70 0 -115 -15t-67 -46.5t-29.5 -65.5t-7.5 -86v-604z" />
    <glyph glyph-name="Itilde" unicode="&#x128;" horiz-adv-x="329" 
d="M27 1290v45q36 31 77 31q29 0 77.5 -19.5t68.5 -19.5q36 0 59 37v-49q-30 -33 -65 -33q-23 0 -72.5 20.5t-75.5 20.5q-36 0 -69 -33zM186 0h-43v1208h43v-1208z" />
    <glyph glyph-name="itilde" unicode="&#x129;" horiz-adv-x="321" 
d="M18 961v45q35 30 78 30q29 0 77.5 -19.5t68.5 -19.5q36 0 59 37v-49q-30 -33 -65 -33q-23 0 -72.5 20.5t-75.5 20.5q-38 0 -70 -32zM184 0h-43v860h43v-860z" />
    <glyph glyph-name="Imacron" unicode="&#x12a;" horiz-adv-x="329" 
d="M309 1290h-293v43h293v-43zM186 0h-43v1208h43v-1208z" />
    <glyph glyph-name="imacron" unicode="&#x12b;" horiz-adv-x="321" 
d="M309 952h-293v43h293v-43zM184 0h-43v860h43v-860z" />
    <glyph glyph-name="Ibreve" unicode="&#x12c;" horiz-adv-x="329" 
d="M8 1395h47q8 -41 22.5 -51.5t69.5 -10.5h39q54 0 67 10.5t21 51.5h48q-1 -4 -2 -11q-5 -28 -9 -40.5t-17 -27.5t-39 -20.5t-69 -5.5h-39q-46 0 -73 6t-40.5 22.5t-17.5 31t-8 45.5zM186 0h-43v1208h43v-1208z" />
    <glyph glyph-name="ibreve" unicode="&#x12d;" horiz-adv-x="321" 
d="M4 1057h47q8 -41 22.5 -51.5t69.5 -10.5h39q54 0 67 10.5t21 51.5h47q-10 -55 -19 -69q-23 -36 -116 -36h-39q-46 0 -73 6t-40.5 22.5t-17.5 31t-8 45.5zM184 0h-43v860h43v-860z" />
    <glyph glyph-name="Iogonek" unicode="&#x12e;" horiz-adv-x="329" 
d="M207 -102v-45q-36 -25 -70 -25q-56 0 -71 49q-25 83 77 143v1188h43v-1208q-81 -44 -73 -100q3 -27 32 -27q31 0 62 25z" />
    <glyph glyph-name="iogonek" unicode="&#x12f;" horiz-adv-x="321" 
d="M162 1122q-24 0 -34 19.5t0 39t34 19.5q23 0 32.5 -19.5t0 -39t-32.5 -19.5zM205 -102v-45q-36 -25 -70 -25q-57 0 -72 49q-11 34 6 72.5t72 70.5v840h43v-860q-81 -44 -73 -100q3 -27 32 -27q31 0 62 25z" />
    <glyph glyph-name="Idotaccent" unicode="&#x130;" horiz-adv-x="329" 
d="M166 1290q-24 0 -34 19.5t0 39t34 19.5q23 0 32.5 -19.5t0 -39t-32.5 -19.5zM186 0h-43v1208h43v-1208z" />
    <glyph glyph-name="dotlessi" unicode="&#x131;" horiz-adv-x="288" 
d="M166 0h-43v860h43v-860z" />
    <glyph glyph-name="IJ" unicode="&#x132;" horiz-adv-x="1220" 
d="M186 0h-43v1208h43v-1208zM805 0h-434v43h434q64 0 112.5 22.5t75 59.5t39 76.5t12.5 79.5v927h43v-927q0 -115 -75.5 -198t-206.5 -83z" />
    <glyph glyph-name="ij" unicode="&#x133;" horiz-adv-x="600" 
d="M440 1126q-24 0 -34 19.5t0 39t34 19.5q23 0 32.5 -19.5t0 -39t-32.5 -19.5zM162 1122q-24 0 -34 19.5t0 39t34 19.5q23 0 32.5 -19.5t0 -39t-32.5 -19.5zM184 0h-43v860h43v-860zM199 -348v43q70 0 115 15t67 46.5t29.5 65.5t7.5 86v952h43v-952q0 -128 -58 -192
t-204 -64z" />
    <glyph glyph-name="Jcircumflex" unicode="&#x134;" horiz-adv-x="882" 
d="M709 1290h-56l68 84h35l69 -84h-55l-31 47zM477 0h-434v43h434q64 0 113 22.5t75 59.5t39 76.5t13 79.5v927h43v-927q0 -115 -76 -198t-207 -83z" />
    <glyph glyph-name="jcircumflex" unicode="&#x135;" horiz-adv-x="278" 
d="M86 952h-55l67 84h35l70 -84h-56l-30 47zM-123 -348v43q70 0 115 15t67 46.5t29.5 65.5t7.5 86v952h43v-952q0 -128 -58 -192t-204 -64z" />
    <glyph glyph-name="uni0136" unicode="&#x136;" horiz-adv-x="903" 
d="M186 0h-43v1208h43v-635l613 635h61l-563 -577l565 -631h-61l-535 600l-80 -84v-516zM434 -176h-45l55 84h70z" />
    <glyph glyph-name="uni0137" unicode="&#x137;" horiz-adv-x="819" 
d="M166 0h-43v1208h43v-700l545 352h77l-475 -307l475 -553h-53l-461 526l-108 -69v-457zM393 -176h-45l55 84h70z" />
    <glyph glyph-name="kgreenlandic" unicode="&#x138;" horiz-adv-x="819" 
d="M166 0h-43v862h43v-354l545 352h77l-475 -307l475 -553h-53l-463 526l-106 -69v-457z" />
    <glyph glyph-name="Lacute" unicode="&#x139;" horiz-adv-x="890" 
d="M156 1290h-45l55 84h70zM850 43v-43h-434q-131 0 -207 83t-76 198v927h43v-927q0 -40 13 -79.5t39 -76.5t75 -59.5t113 -22.5h434z" />
    <glyph glyph-name="lacute" unicode="&#x13a;" horiz-adv-x="288" 
d="M127 1290h-45l55 84h70zM166 0h-43v1208h43v-1208z" />
    <glyph glyph-name="uni013B" unicode="&#x13b;" horiz-adv-x="890" 
d="M850 43v-43h-434q-131 0 -207 83t-76 198v927h43v-927q0 -40 13 -79.5t39 -76.5t75 -59.5t113 -22.5h434zM428 -176h-45l55 84h70z" />
    <glyph glyph-name="uni013C" unicode="&#x13c;" horiz-adv-x="288" 
d="M166 0h-43v1208h43v-1208zM127 -176h-45l55 84h70z" />
    <glyph glyph-name="Lcaron" unicode="&#x13d;" horiz-adv-x="890" 
d="M850 43v-43h-434q-131 0 -207 83t-76 198v927h43v-927q0 -40 13 -79.5t39 -76.5t75 -59.5t113 -22.5h434zM356 1124h-45l56 84h69z" />
    <glyph glyph-name="lcaron" unicode="&#x13e;" horiz-adv-x="501" 
d="M166 0h-43v1208h43v-1208zM346 1108h-45l55 84h70z" />
    <glyph glyph-name="Ldot" unicode="&#x13f;" horiz-adv-x="890" 
d="M850 43v-43h-434q-131 0 -207 83t-76 198v927h43v-927q0 -40 13 -79.5t39 -76.5t75 -59.5t113 -22.5h434zM537 614q-24 0 -34 19.5t0 39t34 19.5q23 0 32.5 -19.5t0 -39t-32.5 -19.5z" />
    <glyph glyph-name="ldot" unicode="&#x140;" horiz-adv-x="405" 
d="M166 0h-43v1208h43v-1208zM279 614q-24 0 -34 19.5t0 39t34 19.5q23 0 32.5 -19.5t0 -39t-32.5 -19.5z" />
    <glyph glyph-name="Lslash" unicode="&#x141;" horiz-adv-x="890" 
d="M850 43v-43h-434q-131 0 -207 83t-76 198v112l-78 -49v49l78 49v766h43v-739l313 199v-52l-313 -196v-139q0 -40 13 -79.5t39 -76.5t75 -59.5t113 -22.5h434z" />
    <glyph glyph-name="lslash" unicode="&#x142;" horiz-adv-x="288" 
d="M166 0h-43v479l-84 -53v49l84 53v680h43v-651l94 59v-51l-94 -59v-506z" />
    <glyph glyph-name="Nacute" unicode="&#x143;" horiz-adv-x="1005" 
d="M485 1290h-45l56 84h69zM186 0h-43v1208h56l620 -1147v1147h43v-1208h-59l-617 1143v-1143z" />
    <glyph glyph-name="nacute" unicode="&#x144;" 
d="M434 952h-45l55 84h70zM145 0h-43v604q0 128 58.5 192t204.5 64h131q146 0 204 -56.5t58 -199.5v-604h-43v604q0 41 -3 67.5t-15 57t-35 48t-64.5 29t-101.5 11.5h-129q-70 0 -115.5 -15t-68 -46t-30.5 -66t-8 -86v-604z" />
    <glyph glyph-name="uni0145" unicode="&#x145;" horiz-adv-x="1005" 
d="M186 0h-43v1208h56l620 -1147v1147h43v-1208h-59l-617 1143v-1143zM485 -176h-45l56 84h69z" />
    <glyph glyph-name="uni0146" unicode="&#x146;" 
d="M145 0h-43v604q0 128 58.5 192t204.5 64h131q146 0 204 -56.5t58 -199.5v-604h-43v604q0 41 -3 67.5t-15 57t-35 48t-64.5 29t-101.5 11.5h-129q-70 0 -115.5 -15t-68 -46t-30.5 -66t-8 -86v-604zM414 -176h-45l55 84h70z" />
    <glyph glyph-name="Ncaron" unicode="&#x147;" horiz-adv-x="1005" 
d="M520 1290h-35l-67 84h55l31 -47l31 47h55zM186 0h-43v1208h56l620 -1147v1147h43v-1208h-59l-617 1143v-1143z" />
    <glyph glyph-name="ncaron" unicode="&#x148;" 
d="M446 952h-34l-68 84h55l31 -47l31 47h55zM145 0h-43v604q0 128 58.5 192t204.5 64h131q146 0 204 -56.5t58 -199.5v-604h-43v604q0 41 -3 67.5t-15 57t-35 48t-64.5 29t-101.5 11.5h-129q-70 0 -115.5 -15t-68 -46t-30.5 -66t-8 -86v-604z" />
    <glyph glyph-name="napostrophe" unicode="&#x149;" 
d="M66 858h-46l56 84h69zM145 0h-43v604q0 128 58.5 192t204.5 64h131q146 0 204 -56.5t58 -199.5v-604h-43v604q0 41 -3 67.5t-15 57t-35 48t-64.5 29t-101.5 11.5h-129q-70 0 -115.5 -15t-68 -46t-30.5 -66t-8 -86v-604z" />
    <glyph glyph-name="Eng" unicode="&#x14a;" horiz-adv-x="1005" 
d="M186 0h-43v1208h56l620 -1147v1147h43v-1208q0 -114 -75.5 -196.5t-206.5 -82.5v43q57 0 101.5 19t72 50t43 66.5t20.5 73.5l-631 1170v-1143z" />
    <glyph glyph-name="eng" unicode="&#x14b;" 
d="M145 0h-43v604q0 128 58.5 192t204.5 64h131q146 0 204 -56.5t58 -199.5v-604q0 -128 -58 -192t-204 -64v43q70 0 115 15t67 46.5t29.5 65.5t7.5 86v604q0 41 -3 67.5t-15 57t-35 48t-64.5 29t-101.5 11.5h-129q-70 0 -115.5 -15t-68 -46t-30.5 -66t-8 -86v-604z" />
    <glyph glyph-name="Omacron" unicode="&#x14c;" horiz-adv-x="1019" 
d="M745 1290h-471v43h471v-43zM510 0q-78 0 -139.5 18.5t-103.5 49.5t-73 79.5t-48 98t-27 116.5t-12.5 124.5t-2.5 131.5t3 127t12.5 119t26 111.5t47 92.5t72.5 75.5t104 46.5t141 18q62 0 113 -11t89.5 -29t69.5 -47.5t51.5 -60.5t35.5 -74.5t23.5 -82t13.5 -91.5t7 -95
t2 -99q0 -74 -2.5 -131.5t-12 -124.5t-27 -116.5t-48 -98t-72.5 -79t-104 -49.5t-139 -19zM510 43q54 0 99.5 10.5t79.5 28.5t61 47t45 59.5t31.5 73t21 80.5t12 89t5.5 92t1 95q0 55 -1 92t-4.5 87.5t-10.5 85.5t-20 76.5t-31 69t-45 55.5t-61 44.5t-80.5 26.5t-102.5 10
t-102.5 -10t-80.5 -26.5t-61 -44.5t-45 -55.5t-31 -69t-20 -76.5t-10.5 -85.5t-4.5 -87.5t-1 -92q0 -54 1 -95t5.5 -92t12 -89t21 -80.5t31.5 -73t45 -59.5t61 -47t79.5 -28.5t99.5 -10.5z" />
    <glyph glyph-name="omacron" unicode="&#x14d;" horiz-adv-x="868" 
d="M670 950h-471v43h471v-43zM483 6h-98q-49 0 -89.5 8t-70.5 18.5t-52.5 34t-37.5 40.5t-25.5 52.5t-15.5 55.5t-7.5 65t-2.5 65v69v30q0 45 0.5 71t3.5 67.5t8 66.5t15.5 58.5t25.5 53.5t38 42.5t52.5 34.5t69 20t88.5 8h98q49 0 88.5 -8t69 -20t52.5 -34.5t38 -42.5
t25.5 -53.5t15.5 -58.5t8 -66.5t3.5 -67.5t0.5 -71q0 -160 -8 -214q-22 -145 -128 -194q-64 -30 -165 -30zM385 49h98q55 0 97 10t69 28t46 43t27.5 55.5t14 65.5t5 72t-0.5 76v45v8q0 75 -2 113t-15 96.5t-38.5 87t-76.5 51.5t-126 23h-98q-75 0 -126 -23t-76.5 -51.5
t-38.5 -87t-15 -96.5t-2 -113v-4v-4q0 -148 3 -177q12 -133 91 -181q59 -37 164 -37z" />
    <glyph glyph-name="Obreve" unicode="&#x14e;" horiz-adv-x="1019" 
d="M354 1395h47q8 -41 22.5 -51.5t70.5 -10.5h38q54 0 67.5 10.5t21.5 51.5h47q-1 -4 -2 -11q-5 -28 -9 -40.5t-17 -27.5t-39 -20.5t-69 -5.5h-38q-46 0 -73.5 6t-41 22.5t-17.5 31.5t-8 45zM510 0q-78 0 -139.5 18.5t-103.5 49.5t-73 79.5t-48 98t-27 116.5t-12.5 124.5
t-2.5 131.5t3 127t12.5 119t26 111.5t47 92.5t72.5 75.5t104 46.5t141 18q62 0 113 -11t89.5 -29t69.5 -47.5t51.5 -60.5t35.5 -74.5t23.5 -82t13.5 -91.5t7 -95t2 -99q0 -74 -2.5 -131.5t-12 -124.5t-27 -116.5t-48 -98t-72.5 -79t-104 -49.5t-139 -19zM510 43
q54 0 99.5 10.5t79.5 28.5t61 47t45 59.5t31.5 73t21 80.5t12 89t5.5 92t1 95q0 55 -1 92t-4.5 87.5t-10.5 85.5t-20 76.5t-31 69t-45 55.5t-61 44.5t-80.5 26.5t-102.5 10t-102.5 -10t-80.5 -26.5t-61 -44.5t-45 -55.5t-31 -69t-20 -76.5t-10.5 -85.5t-4.5 -87.5t-1 -92
q0 -54 1 -95t5.5 -92t12 -89t21 -80.5t31.5 -73t45 -59.5t61 -47t79.5 -28.5t99.5 -10.5z" />
    <glyph glyph-name="obreve" unicode="&#x14f;" horiz-adv-x="868" 
d="M279 1057h47q8 -41 22.5 -51.5t69.5 -10.5h39q54 0 67 10.5t21 51.5h47q-10 -55 -19 -69q-23 -36 -116 -36h-39q-46 0 -73 6t-40.5 22.5t-17.5 31t-8 45.5zM483 6h-98q-49 0 -89.5 8t-70.5 18.5t-52.5 34t-37.5 40.5t-25.5 52.5t-15.5 55.5t-7.5 65t-2.5 65v69v30
q0 45 0.5 71t3.5 67.5t8 66.5t15.5 58.5t25.5 53.5t38 42.5t52.5 34.5t69 20t88.5 8h98q49 0 88.5 -8t69 -20t52.5 -34.5t38 -42.5t25.5 -53.5t15.5 -58.5t8 -66.5t3.5 -67.5t0.5 -71q0 -160 -8 -214q-22 -145 -128 -194q-64 -30 -165 -30zM385 49h98q55 0 97 10t69 28
t46 43t27.5 55.5t14 65.5t5 72t-0.5 76v45v8q0 75 -2 113t-15 96.5t-38.5 87t-76.5 51.5t-126 23h-98q-75 0 -126 -23t-76.5 -51.5t-38.5 -87t-15 -96.5t-2 -113v-4v-4q0 -148 3 -177q12 -133 91 -181q59 -37 164 -37z" />
    <glyph glyph-name="Ohungarumlaut" unicode="&#x150;" horiz-adv-x="1019" 
d="M422 1290h-45l55 84h70zM565 1290h-45l55 84h70zM510 0q-78 0 -139.5 18.5t-103.5 49.5t-73 79.5t-48 98t-27 116.5t-12.5 124.5t-2.5 131.5t3 127t12.5 119t26 111.5t47 92.5t72.5 75.5t104 46.5t141 18q62 0 113 -11t89.5 -29t69.5 -47.5t51.5 -60.5t35.5 -74.5
t23.5 -82t13.5 -91.5t7 -95t2 -99q0 -74 -2.5 -131.5t-12 -124.5t-27 -116.5t-48 -98t-72.5 -79t-104 -49.5t-139 -19zM510 43q54 0 99.5 10.5t79.5 28.5t61 47t45 59.5t31.5 73t21 80.5t12 89t5.5 92t1 95q0 55 -1 92t-4.5 87.5t-10.5 85.5t-20 76.5t-31 69t-45 55.5
t-61 44.5t-80.5 26.5t-102.5 10t-102.5 -10t-80.5 -26.5t-61 -44.5t-45 -55.5t-31 -69t-20 -76.5t-10.5 -85.5t-4.5 -87.5t-1 -92q0 -54 1 -95t5.5 -92t12 -89t21 -80.5t31.5 -73t45 -59.5t61 -47t79.5 -28.5t99.5 -10.5z" />
    <glyph glyph-name="ohungarumlaut" unicode="&#x151;" horiz-adv-x="868" 
d="M346 950h-45l55 84h70zM489 950h-45l56 84h69zM483 6h-98q-49 0 -89.5 8t-70.5 18.5t-52.5 34t-37.5 40.5t-25.5 52.5t-15.5 55.5t-7.5 65t-2.5 65v69v30q0 45 0.5 71t3.5 67.5t8 66.5t15.5 58.5t25.5 53.5t38 42.5t52.5 34.5t69 20t88.5 8h98q49 0 88.5 -8t69 -20
t52.5 -34.5t38 -42.5t25.5 -53.5t15.5 -58.5t8 -66.5t3.5 -67.5t0.5 -71q0 -160 -8 -214q-22 -145 -128 -194q-64 -30 -165 -30zM385 49h98q55 0 97 10t69 28t46 43t27.5 55.5t14 65.5t5 72t-0.5 76v45v8q0 75 -2 113t-15 96.5t-38.5 87t-76.5 51.5t-126 23h-98
q-75 0 -126 -23t-76.5 -51.5t-38.5 -87t-15 -96.5t-2 -113v-4v-4q0 -148 3 -177q12 -133 91 -181q59 -37 164 -37z" />
    <glyph glyph-name="OE" unicode="&#x152;" horiz-adv-x="1677" 
d="M494 0q-78 0 -139.5 18.5t-103.5 49.5t-73 79.5t-48 98t-27 116.5t-12.5 124.5t-2.5 131.5t3 127t12.5 119t26 111.5t47 92.5t72.5 75.5t104 46.5t141 18q153 0 238.5 -60t123.5 -171q5 116 63.5 173.5t198.5 57.5h453v-43h-453q-70 0 -115 -15t-67 -46.5t-29.5 -65.5
t-7.5 -86v-338h670v-41h-670v-317q0 -52 7.5 -86t29.5 -65.5t67 -46.5t115 -15h451v-43h-451q-142 0 -201 61.5t-61 182.5q-84 -244 -362 -244zM494 43q54 0 99.5 10.5t79.5 28.5t61 47t45 59.5t31.5 73t21 80.5t12 89t5.5 92t1 95q0 55 -1 92t-4.5 87.5t-10.5 85.5
t-20 76.5t-31 69t-45 55.5t-61 44.5t-80.5 26.5t-102.5 10t-102.5 -10t-80.5 -26.5t-61.5 -44.5t-45.5 -56t-31 -69t-19.5 -76t-10.5 -85t-5 -88t-1 -92q0 -70 2 -122t10.5 -116t23.5 -109t41.5 -90.5t63.5 -74t92 -46t124 -17.5z" />
    <glyph glyph-name="oe" unicode="&#x153;" horiz-adv-x="1499" 
d="M483 6h-98q-49 0 -89.5 8t-70.5 18.5t-52.5 34t-37.5 40.5t-25.5 52.5t-15.5 55.5t-7.5 65t-2.5 65v69v30q0 45 0.5 71t3.5 67.5t8 66.5t15.5 58.5t25.5 53.5t38 42.5t52.5 34.5t69 20t88.5 8h98q116 0 180.5 -40.5t92.5 -114.5q22 83 81.5 116t161.5 33h213
q48 0 82.5 -11t54 -27.5t30.5 -43.5t14 -50.5t4 -57.5q0 -43 -6.5 -73.5t-25 -61t-58.5 -46.5t-101 -16h-420v-211q0 -70 15 -115t46.5 -67t65.5 -29.5t86 -7.5h136q70 0 115 15t67 46.5t29.5 65.5t7.5 86h43q0 -128 -58 -192t-204 -64h-136q-100 0 -160.5 34.5t-82.5 117.5
q-59 -146 -273 -146zM385 49h98q55 0 97 10t69 28t46 43t27.5 55.5t14 65.5t5 72t-0.5 76v45v8q0 75 -2 113t-15 96.5t-38.5 87t-76.5 51.5t-126 23h-98q-75 0 -126 -23t-76.5 -51.5t-38.5 -87t-15 -96.5t-2 -113v-4v-4q0 -148 3 -177q12 -133 91 -181q59 -37 164 -37z
M786 602v-90h420q40 0 68 9.5t43.5 23t24 36.5t10.5 42t2 47q0 34 -3.5 55t-16.5 45t-44 35.5t-80 11.5h-211q-52 0 -86 -7t-65.5 -28t-46.5 -65.5t-15 -114.5z" />
    <glyph glyph-name="Racute" unicode="&#x154;" horiz-adv-x="983" 
d="M475 1290h-45l55 84h70zM186 0h-43v1208h455q146 0 204 -64t58 -192v-125q0 -128 -58 -191t-204 -63h-156l414 -573h-53l-414 573h-203v-573zM186 1165v-551h412q70 0 115 15t67 46.5t29.5 65.5t7.5 86v125q0 52 -7.5 86t-29.5 65.5t-67 46.5t-115 15h-412z" />
    <glyph glyph-name="racute" unicode="&#x155;" horiz-adv-x="630" 
d="M365 952h-46l56 84h69zM145 0h-43v616q0 117 58 180.5t198 63.5h242v-43h-240q-56 0 -96.5 -12.5t-63 -31.5t-35.5 -48t-16.5 -54.5t-3.5 -58.5v-612z" />
    <glyph glyph-name="uni0156" unicode="&#x156;" horiz-adv-x="983" 
d="M186 0h-43v1208h455q146 0 204 -64t58 -192v-125q0 -128 -58 -191t-204 -63h-156l414 -573h-53l-414 573h-203v-573zM186 1165v-551h412q70 0 115 15t67 46.5t29.5 65.5t7.5 86v125q0 52 -7.5 86t-29.5 65.5t-67 46.5t-115 15h-412zM475 -176h-45l55 84h70z" />
    <glyph glyph-name="uni0157" unicode="&#x157;" horiz-adv-x="630" 
d="M145 0h-43v616q0 117 58 180.5t198 63.5h242v-43h-240q-56 0 -96.5 -12.5t-63 -31.5t-35.5 -48t-16.5 -54.5t-3.5 -58.5v-612zM299 -176h-45l55 84h70z" />
    <glyph glyph-name="Rcaron" unicode="&#x158;" horiz-adv-x="983" 
d="M500 1290h-35l-68 84h56l30 -47l31 47h55zM186 0h-43v1208h455q146 0 204 -64t58 -192v-125q0 -128 -58 -191t-204 -63h-156l414 -573h-53l-414 573h-203v-573zM186 1165v-551h412q70 0 115 15t67 46.5t29.5 65.5t7.5 86v125q0 52 -7.5 86t-29.5 65.5t-67 46.5t-115 15
h-412z" />
    <glyph glyph-name="rcaron" unicode="&#x159;" horiz-adv-x="630" 
d="M391 952h-35l-67 84h55l31 -47l31 47h55zM145 0h-43v616q0 117 58 180.5t198 63.5h242v-43h-240q-56 0 -96.5 -12.5t-63 -31.5t-35.5 -48t-16.5 -54.5t-3.5 -58.5v-612z" />
    <glyph glyph-name="Sacute" unicode="&#x15a;" horiz-adv-x="962" 
d="M465 1290h-45l55 84h70zM123 256v33h43v-33q0 -52 7.5 -86t29.5 -65.5t67 -46.5t115 -15h193q70 0 115 15t67 46.5t29.5 65.5t7.5 86v123q0 52 -7.5 86t-29.5 65.5t-67 46.5t-115 15h-193q-146 0 -204 64t-58 192v104q0 128 58 192t204 64h154q146 0 204 -64t58 -192v-32
h-43v32q0 52 -7.5 86t-29.5 65.5t-67 46.5t-115 15h-154q-70 0 -115 -15t-67 -46.5t-29.5 -65.5t-7.5 -86v-104q0 -52 7.5 -86t29.5 -65.5t67 -46.5t115 -15h193q146 0 204 -64t58 -192v-123q0 -128 -58 -192t-204 -64h-193q-146 0 -204 64t-58 192z" />
    <glyph glyph-name="sacute" unicode="&#x15b;" horiz-adv-x="722" 
d="M373 952h-45l55 84h70zM426 0h-303v43h303q93 0 144 54t51 130q0 84 -46 141.5t-145 57.5h-117q-118 0 -179.5 60.5t-61.5 152.5q0 97 57.5 159t177.5 62h273v-43h-271q-101 0 -146.5 -49t-45.5 -129q0 -83 49.5 -126.5t146.5 -43.5h119q118 0 176 -71t58 -171
q0 -94 -61.5 -160.5t-178.5 -66.5z" />
    <glyph glyph-name="Scircumflex" unicode="&#x15c;" horiz-adv-x="962" 
d="M451 1290h-56l68 84h35l69 -84h-55l-31 47zM123 256v33h43v-33q0 -52 7.5 -86t29.5 -65.5t67 -46.5t115 -15h193q70 0 115 15t67 46.5t29.5 65.5t7.5 86v123q0 52 -7.5 86t-29.5 65.5t-67 46.5t-115 15h-193q-146 0 -204 64t-58 192v104q0 128 58 192t204 64h154
q146 0 204 -64t58 -192v-32h-43v32q0 52 -7.5 86t-29.5 65.5t-67 46.5t-115 15h-154q-70 0 -115 -15t-67 -46.5t-29.5 -65.5t-7.5 -86v-104q0 -52 7.5 -86t29.5 -65.5t67 -46.5t115 -15h193q146 0 204 -64t58 -192v-123q0 -128 -58 -192t-204 -64h-193q-146 0 -204 64
t-58 192z" />
    <glyph glyph-name="scircumflex" unicode="&#x15d;" horiz-adv-x="722" 
d="M326 950h-56l68 84h35l69 -84h-55l-31 47zM426 0h-303v43h303q93 0 144 54t51 130q0 84 -46 141.5t-145 57.5h-117q-118 0 -179.5 60.5t-61.5 152.5q0 97 57.5 159t177.5 62h273v-43h-271q-101 0 -146.5 -49t-45.5 -129q0 -83 49.5 -126.5t146.5 -43.5h119q118 0 176 -71
t58 -171q0 -94 -61.5 -160.5t-178.5 -66.5z" />
    <glyph glyph-name="Scedilla" unicode="&#x15e;" horiz-adv-x="962" 
d="M123 254v33h43v-33q0 -52 7.5 -86t29.5 -65.5t67 -46.5t115 -15h193q70 0 115 15t67 46.5t29.5 65.5t7.5 86v123q0 52 -7.5 86t-29.5 65.5t-67 46.5t-115 15h-193q-146 0 -204 64t-58 192v106q0 128 58 192t204 64h154q146 0 204 -64t58 -192v-32h-43v32q0 52 -7.5 86
t-29.5 65.5t-67 46.5t-115 15h-154q-70 0 -115 -15t-67 -46.5t-29.5 -65.5t-7.5 -86v-106q0 -52 7.5 -86t29.5 -65.5t67 -46.5t115 -15h193q146 0 204 -64t58 -192v-123q0 -128 -58 -192t-204 -64h-72l-43 -57q45 3 68.5 -17t25.5 -59q1 -24 -8 -42.5t-27.5 -29.5
t-36.5 -17.5t-45 -9.5t-42.5 -3.5t-39.5 -0.5v43q158 0 156 60q0 41 -59 41q-32 0 -72 -10l72 102h-70q-146 0 -204 64t-58 192z" />
    <glyph glyph-name="scedilla" unicode="&#x15f;" horiz-adv-x="722" 
d="M328 0h-205v43h303q93 0 144 54t51 130q0 84 -46 141.5t-145 57.5h-117q-118 0 -179.5 60.5t-61.5 152.5q0 97 57.5 159t177.5 62h273v-43h-271q-101 0 -146.5 -49t-45.5 -129q0 -83 49.5 -126.5t146.5 -43.5h119q118 0 176 -71t58 -171q0 -94 -61.5 -160.5t-178.5 -66.5
h-55l-31 -59q44 3 70 -15.5t28 -50.5q1 -33 -18 -54.5t-48.5 -29t-63 -10.5t-60.5 2v45q28 -2 61 -2t60 13t26 36q0 31 -57 31q-36 0 -57 -8z" />
    <glyph glyph-name="Scaron" unicode="&#x160;" horiz-adv-x="962" 
d="M498 1290h-35l-68 84h56l30 -47l31 47h55zM123 256v33h43v-33q0 -52 7.5 -86t29.5 -65.5t67 -46.5t115 -15h193q70 0 115 15t67 46.5t29.5 65.5t7.5 86v123q0 52 -7.5 86t-29.5 65.5t-67 46.5t-115 15h-193q-146 0 -204 64t-58 192v104q0 128 58 192t204 64h154
q146 0 204 -64t58 -192v-32h-43v32q0 52 -7.5 86t-29.5 65.5t-67 46.5t-115 15h-154q-70 0 -115 -15t-67 -46.5t-29.5 -65.5t-7.5 -86v-104q0 -52 7.5 -86t29.5 -65.5t67 -46.5t115 -15h193q146 0 204 -64t58 -192v-123q0 -128 -58 -192t-204 -64h-193q-146 0 -204 64
t-58 192z" />
    <glyph glyph-name="scaron" unicode="&#x161;" horiz-adv-x="722" 
d="M354 952h-35l-67 84h55l31 -47l31 47h55zM426 0h-303v43h303q93 0 144 54t51 130q0 84 -46 141.5t-145 57.5h-117q-118 0 -179.5 60.5t-61.5 152.5q0 97 57.5 159t177.5 62h273v-43h-271q-101 0 -146.5 -49t-45.5 -129q0 -83 49.5 -126.5t146.5 -43.5h119q118 0 176 -71
t58 -171q0 -94 -61.5 -160.5t-178.5 -66.5z" />
    <glyph glyph-name="uni0162" unicode="&#x162;" horiz-adv-x="964" 
d="M463 0h-2v1165h-441v43h924v-43h-440v-1165l-47 -68q36 0 59 -18t23 -49q0 -88 -174 -88v41q135 0 135 47q0 33 -60 33q-34 0 -55 -7z" />
    <glyph glyph-name="uni0163" unicode="&#x163;" horiz-adv-x="608" 
d="M254 -236v48q156 0 156 55q0 37 -70 37q-43 0 -64 -6l72 102q-77 0 -123 9t-78.5 35.5t-45.5 72.5t-13 121v581h-57v43h57v162h43v-162h307v-43h-307v-581q0 -57 6.5 -90.5t27.5 -59t60 -35.5t103 -10h239v-43h-166l-43 -57q43 0 70 -20t27 -56q0 -103 -201 -103z" />
    <glyph glyph-name="Tcaron" unicode="&#x164;" horiz-adv-x="964" 
d="M500 1290h-35l-68 84h56l30 -47l31 47h55zM504 -2h-43v1167h-441v43h924v-43h-440v-1167z" />
    <glyph glyph-name="tcaron" unicode="&#x165;" horiz-adv-x="608" 
d="M428 952h-45l55 84h70zM567 0h-239q-74 0 -120.5 13t-73 43.5t-36.5 73t-10 108.5v581h-57v43h57v162h43v-162h307v-43h-307v-581q0 -57 6.5 -90.5t27.5 -59t60 -35.5t103 -10h239v-43z" />
    <glyph glyph-name="Tbar" unicode="&#x166;" horiz-adv-x="964" 
d="M504 -2h-43v745h-213v43h213v379h-441v43h924v-43h-440v-379h215v-43h-215v-745z" />
    <glyph glyph-name="tbar" unicode="&#x167;" horiz-adv-x="608" 
d="M567 0h-239q-74 0 -120.5 13t-73 43.5t-36.5 73t-10 108.5v376h-57v43h57v162h-57v43h57v162h43v-162h307v-43h-307v-162h307v-43h-307v-376q0 -57 6.5 -90.5t27.5 -59t60 -35.5t103 -10h239v-43z" />
    <glyph glyph-name="Utilde" unicode="&#x168;" horiz-adv-x="983" 
d="M295 1284v64q53 53 111 53q38 0 98.5 -32t87.5 -32q49 0 96 74v-65q-48 -56 -96 -56q-35 0 -97.5 34t-93.5 34q-54 0 -106 -74zM133 281v927h43v-927q0 -40 13 -79.5t39 -76.5t75 -59.5t113 -22.5h151q64 0 113 22.5t75 59.5t39 76.5t13 79.5v927h43v-927
q0 -115 -76 -198t-207 -83h-151q-131 0 -207 83t-76 198z" />
    <glyph glyph-name="utilde" unicode="&#x169;" 
d="M233 946v64q53 53 111 53q38 0 98.5 -32t87.5 -32q50 0 97 74v-65q-48 -56 -97 -56q-35 0 -97 34t-93 34q-55 0 -107 -74zM102 258v604h43v-604q0 -51 8 -86t30.5 -66t68 -46t115.5 -15h129q60 0 101.5 11.5t64.5 29t35 48t15 57t3 67.5v604h43v-604q0 -134 -59.5 -195
t-202.5 -61h-131q-146 0 -204.5 64t-58.5 192z" />
    <glyph glyph-name="Umacron" unicode="&#x16a;" horiz-adv-x="983" 
d="M727 1290h-471v43h471v-43zM133 281v927h43v-927q0 -40 13 -79.5t39 -76.5t75 -59.5t113 -22.5h151q64 0 113 22.5t75 59.5t39 76.5t13 79.5v927h43v-927q0 -115 -76 -198t-207 -83h-151q-131 0 -207 83t-76 198z" />
    <glyph glyph-name="umacron" unicode="&#x16b;" 
d="M666 950h-471v43h471v-43zM102 258v604h43v-604q0 -51 8 -86t30.5 -66t68 -46t115.5 -15h129q60 0 101.5 11.5t64.5 29t35 48t15 57t3 67.5v604h43v-604q0 -134 -59.5 -195t-202.5 -61h-131q-146 0 -204.5 64t-58.5 192z" />
    <glyph glyph-name="Ubreve" unicode="&#x16c;" horiz-adv-x="983" 
d="M336 1395h47q8 -41 22.5 -51.5t69.5 -10.5h39q54 0 67 10.5t21 51.5h47q-10 -55 -19 -69q-23 -36 -116 -36h-39q-46 0 -73 6t-40.5 22.5t-17.5 31t-8 45.5zM133 281v927h43v-927q0 -40 13 -79.5t39 -76.5t75 -59.5t113 -22.5h151q64 0 113 22.5t75 59.5t39 76.5t13 79.5
v927h43v-927q0 -115 -76 -198t-207 -83h-151q-131 0 -207 83t-76 198z" />
    <glyph glyph-name="ubreve" unicode="&#x16d;" 
d="M274 1059h48q8 -41 22.5 -51.5t69.5 -10.5h39q54 0 67 10.5t21 51.5h47q-10 -55 -19 -69q-23 -36 -116 -36h-39q-46 0 -73.5 6t-41 22.5t-17.5 31.5t-8 45zM102 258v604h43v-604q0 -51 8 -86t30.5 -66t68 -46t115.5 -15h129q60 0 101.5 11.5t64.5 29t35 48t15 57t3 67.5
v604h43v-604q0 -134 -59.5 -195t-202.5 -61h-131q-146 0 -204.5 64t-58.5 192z" />
    <glyph glyph-name="Uring" unicode="&#x16e;" horiz-adv-x="983" 
d="M487 1290q-40 0 -67.5 22t-33.5 54t0.5 63.5t34.5 53.5t68 22q42 0 70.5 -22t34.5 -53.5t-0.5 -63.5t-35.5 -54t-71 -22zM489 1331q43 0 62 33.5t1.5 66.5t-60.5 33q-26 0 -43.5 -13.5t-22 -33t-1 -39.5t20.5 -33.5t43 -13.5zM133 281v927h43v-927q0 -40 13 -79.5
t39 -76.5t75 -59.5t113 -22.5h151q64 0 113 22.5t75 59.5t39 76.5t13 79.5v927h43v-927q0 -115 -76 -198t-207 -83h-151q-131 0 -207 83t-76 198z" />
    <glyph glyph-name="uring" unicode="&#x16f;" 
d="M438 952q-40 0 -67.5 22t-33.5 54t0.5 63.5t34.5 53.5t68 22q42 0 70.5 -22t34.5 -53.5t-0.5 -63.5t-35.5 -54t-71 -22zM440 993q43 0 61.5 33.5t1 66.5t-60.5 33q-42 0 -60 -33t-1 -66.5t59 -33.5zM102 258v604h43v-604q0 -51 8 -86t30.5 -66t68 -46t115.5 -15h129
q60 0 101.5 11.5t64.5 29t35 48t15 57t3 67.5v604h43v-604q0 -134 -59.5 -195t-202.5 -61h-131q-146 0 -204.5 64t-58.5 192z" />
    <glyph glyph-name="Uhungarumlaut" unicode="&#x170;" horiz-adv-x="983" 
d="M403 1290h-45l56 84h69zM547 1290h-45l55 84h70zM133 281v927h43v-927q0 -40 13 -79.5t39 -76.5t75 -59.5t113 -22.5h151q64 0 113 22.5t75 59.5t39 76.5t13 79.5v927h43v-927q0 -115 -76 -198t-207 -83h-151q-131 0 -207 83t-76 198z" />
    <glyph glyph-name="uhungarumlaut" unicode="&#x171;" 
d="M352 952h-45l55 84h70zM496 952h-45l55 84h69zM102 258v604h43v-604q0 -51 8 -86t30.5 -66t68 -46t115.5 -15h129q60 0 101.5 11.5t64.5 29t35 48t15 57t3 67.5v604h43v-604q0 -134 -59.5 -195t-202.5 -61h-131q-146 0 -204.5 64t-58.5 192z" />
    <glyph glyph-name="Uogonek" unicode="&#x172;" horiz-adv-x="983" 
d="M133 281v927h43v-927q0 -40 13 -79.5t39 -76.5t75 -59.5t113 -22.5h151q64 0 113 22.5t75 59.5t39 76.5t13 79.5v927h43v-927q0 -78 -37.5 -145t-105.5 -103q-58 -41 -50 -86q3 -27 33 -27q31 0 62 25v-45q-36 -25 -70 -25q-57 0 -72 49q-11 41 11 80q-32 -4 -54 -4h-151
q-131 0 -207 83t-76 198z" />
    <glyph glyph-name="uogonek" unicode="&#x173;" 
d="M102 258v604h43v-604q0 -51 8 -86t30.5 -66t68 -46t115.5 -15h129q60 0 101.5 11.5t64.5 29t35 48t15 57t3 67.5v604h43v-604q0 -91 -26 -146.5t-85 -82.5q-61 -44 -53 -88q3 -27 33 -27t61 25v-45q-36 -25 -70 -25q-56 0 -71 49q-14 45 16 88q-40 -4 -67 -4h-131
q-146 0 -204.5 64t-58.5 192z" />
    <glyph glyph-name="Wcircumflex" unicode="&#x174;" horiz-adv-x="1619" 
d="M780 1290h-55l68 84h34l70 -84h-55l-31 47zM461 0h-62l-379 1208h46l364 -1163l356 1163h48l364 -1163l356 1163h45l-370 -1208h-62l-356 1139z" />
    <glyph glyph-name="wcircumflex" unicode="&#x175;" horiz-adv-x="1484" 
d="M713 952h-56l68 84h35l69 -84h-55l-31 47zM102 256v604h43v-604q0 -51 8 -86t30.5 -66t68 -46t115.5 -15h135q60 0 101.5 11.5t64.5 29t35 48t15 57t3 67.5v604h43v-604q0 -51 8 -86t30 -66t67.5 -46t115.5 -15h135q60 0 101.5 11.5t64.5 29t35 48t15 57t3 67.5v604h43
v-604q0 -134 -59.5 -195t-202.5 -61h-137q-189 0 -240 121q-25 -62 -83 -91.5t-158 -29.5h-137q-146 0 -204.5 64t-58.5 192z" />
    <glyph glyph-name="Ycircumflex" unicode="&#x176;" 
d="M399 1290h-55l68 84h34l70 -84h-55l-31 47zM451 6h-43v594l-388 608h52l358 -563l358 563h52l-389 -612v-590z" />
    <glyph glyph-name="ycircumflex" unicode="&#x177;" horiz-adv-x="880" 
d="M410 952h-56l68 84h35l69 -84h-55l-31 47zM102 -92h43q0 -52 7.5 -86.5t29.5 -65.5t67.5 -46t115.5 -15h94q256 0 256 199v188q-57 -80 -219 -80h-131q-146 0 -204.5 64t-58.5 192v604h43v-604q0 -51 8 -86t30.5 -66t68 -46t115.5 -15h129q60 0 101.5 11.5t64.5 29t35 48
t15 57t3 67.5v604h43v-966q0 -244 -297 -244h-96q-146 0 -204.5 64t-58.5 192z" />
    <glyph glyph-name="Ydieresis" unicode="&#x178;" 
d="M344 1290q-24 0 -34 19.5t0 39t34 19.5q23 0 32.5 -19.5t0 -39t-32.5 -19.5zM516 1290q-24 0 -34 19.5t0 39t34 19.5q23 0 32.5 -19.5t0 -39t-32.5 -19.5zM451 6h-43v594l-388 608h52l358 -563l358 563h52l-389 -612v-590z" />
    <glyph glyph-name="Zacute" unicode="&#x179;" horiz-adv-x="962" 
d="M465 1290h-45l55 84h70zM840 0h-717v45l665 1120h-665v43h717v-43l-668 -1122h668v-43z" />
    <glyph glyph-name="zacute" unicode="&#x17a;" horiz-adv-x="731" 
d="M412 952h-45l55 84h70zM625 793l-498 -750h512v-43h-522q-30 0 -39 18.5t10 47.5l500 751h-486v43h486q38 0 47 -21t-10 -46z" />
    <glyph glyph-name="Zdotaccent" unicode="&#x17b;" horiz-adv-x="962" 
d="M481 1290q-24 0 -34 19.5t0 39t34 19.5q23 0 32.5 -19.5t0 -39t-32.5 -19.5zM840 0h-717v45l665 1120h-665v43h717v-43l-668 -1122h668v-43z" />
    <glyph glyph-name="zdotaccent" unicode="&#x17c;" horiz-adv-x="731" 
d="M430 952q-24 0 -34 19.5t0 39t34 19.5q23 0 32.5 -19.5t0 -39t-32.5 -19.5zM625 793l-498 -750h512v-43h-522q-30 0 -39 18.5t10 47.5l500 751h-486v43h486q38 0 47 -21t-10 -46z" />
    <glyph glyph-name="Zcaron" unicode="&#x17d;" horiz-adv-x="962" 
d="M498 1290h-35l-68 84h56l30 -47l31 47h55zM840 0h-717v45l665 1120h-665v43h717v-43l-668 -1122h668v-43z" />
    <glyph glyph-name="zcaron" unicode="&#x17e;" horiz-adv-x="731" 
d="M446 952h-34l-68 84h55l31 -47l31 47h55zM625 793l-498 -750h512v-43h-522q-30 0 -39 18.5t10 47.5l500 751h-486v43h486q38 0 47 -21t-10 -46z" />
    <glyph glyph-name="longs" unicode="&#x17f;" horiz-adv-x="421" 
d="M145 0h-43v989q1 54 7.5 88.5t26 65.5t58 46.5t99.5 18.5h74v-43h-72q-49 0 -80 -12.5t-46 -39.5t-19.5 -55.5t-4.5 -72.5v-985z" />
    <glyph glyph-name="florin" unicode="&#x192;" horiz-adv-x="514" 
d="M82 0h-74v43h72q49 0 80 12.5t45.5 39.5t19 55t4.5 73v596h-79v43h79v127q1 54 7.5 88.5t26 65.5t58 46.5t99.5 18.5h74v-43h-72q-49 0 -80 -12.5t-46 -39.5t-19.5 -55.5t-4.5 -72.5v-123h185v-43h-185v-600q-1 -54 -7.5 -88.5t-25.5 -65.5t-57.5 -46.5t-99.5 -18.5z" />
    <glyph glyph-name="uni0218" unicode="&#x218;" horiz-adv-x="962" 
d="M123 256v33h43v-33q0 -52 7.5 -86t29.5 -65.5t67 -46.5t115 -15h193q70 0 115 15t67 46.5t29.5 65.5t7.5 86v123q0 52 -7.5 86t-29.5 65.5t-67 46.5t-115 15h-193q-146 0 -204 64t-58 192v104q0 128 58 192t204 64h154q146 0 204 -64t58 -192v-32h-43v32q0 52 -7.5 86
t-29.5 65.5t-67 46.5t-115 15h-154q-70 0 -115 -15t-67 -46.5t-29.5 -65.5t-7.5 -86v-104q0 -52 7.5 -86t29.5 -65.5t67 -46.5t115 -15h193q146 0 204 -64t58 -192v-123q0 -128 -58 -192t-204 -64h-193q-146 0 -204 64t-58 192zM465 -176h-45l55 84h70z" />
    <glyph glyph-name="uni0219" unicode="&#x219;" horiz-adv-x="802" 
d="M485 0h-368v43h368q93 0 144 54t51 130q0 84 -46 141.5t-145 57.5h-176q-118 0 -179.5 60.5t-61.5 152.5q0 97 57.5 159t177.5 62h373v-43h-371q-101 0 -146.5 -49t-45.5 -129q0 -83 49.5 -126.5t146.5 -43.5h179q118 0 175.5 -70.5t57.5 -171.5q0 -94 -61.5 -160.5
t-178.5 -66.5zM381 -176h-45l55 84h70z" />
    <glyph glyph-name="uni021A" unicode="&#x21a;" horiz-adv-x="964" 
d="M504 -2h-43v1167h-441v43h924v-43h-440v-1167zM469 -176h-45l55 84h70z" />
    <glyph glyph-name="uni021B" unicode="&#x21b;" horiz-adv-x="608" 
d="M567 0h-239q-74 0 -120.5 13t-73 43.5t-36.5 73t-10 108.5v581h-57v43h57v162h43v-162h307v-43h-307v-581q0 -57 6.5 -90.5t27.5 -59t60 -35.5t103 -10h239v-43zM287 -176h-45l55 84h70z" />
    <glyph glyph-name="uni0237" unicode="&#x237;" horiz-adv-x="278" 
d="M-123 -348v43q70 0 115 15t67 46.5t29.5 65.5t7.5 86v952h43v-952q0 -128 -58 -192t-204 -64z" />
    <glyph glyph-name="circumflex" unicode="&#x2c6;" horiz-adv-x="241" 
d="M90 1206h-55l67 84h35l70 -84h-55l-31 47z" />
    <glyph glyph-name="caron" unicode="&#x2c7;" horiz-adv-x="241" 
d="M137 1206h-35l-67 84h55l31 -47l31 47h55z" />
    <glyph glyph-name="breve" unicode="&#x2d8;" horiz-adv-x="354" 
d="M20 1319h48q8 -41 22.5 -51.5t69.5 -10.5h39q54 0 67 10.5t21 51.5h47q-10 -55 -19 -69q-25 -36 -116 -36h-39q-46 0 -73.5 6t-41 22.5t-17.5 31.5t-8 45z" />
    <glyph glyph-name="dotaccent" unicode="&#x2d9;" horiz-adv-x="110" 
d="M55 1133q-24 0 -34 19.5t0 38.5t34 19q23 0 32.5 -19t0 -38.5t-32.5 -19.5z" />
    <glyph glyph-name="ring" unicode="&#x2da;" horiz-adv-x="260" 
d="M129 1208q-40 0 -67.5 22t-33.5 54t0.5 63.5t34.5 53.5t68 22q42 0 70.5 -22t34.5 -53.5t-0.5 -63.5t-35.5 -54t-71 -22zM131 1249q43 0 61.5 33.5t1 66.5t-60.5 33q-26 0 -43.5 -13.5t-22 -33t-0.5 -39.5t21 -33.5t43 -13.5z" />
    <glyph glyph-name="ogonek" unicode="&#x2db;" horiz-adv-x="190" 
d="M166 -86v-45q-36 -25 -70 -25q-56 0 -71 50q-4 23 -1.5 47t28 53.5t71.5 52.5l22 -31q-81 -44 -73 -100q3 -27 32 -27q31 0 62 25z" />
    <glyph glyph-name="tilde" unicode="&#x2dc;" horiz-adv-x="446" 
d="M20 1266v63q53 53 111 53q38 0 98.5 -31.5t87.5 -31.5q50 0 97 74v-66q-47 -55 -97 -55q-35 0 -97 33.5t-93 33.5q-55 0 -107 -73z" />
    <glyph glyph-name="hungarumlaut" unicode="&#x2dd;" horiz-adv-x="309" 
d="M66 1208h-46l56 84h69zM209 1208h-45l55 84h70z" />
    <glyph glyph-name="uni0326" unicode="&#x326;" horiz-adv-x="180" 
d="M66 -176h-46l56 84h69z" />
    <glyph glyph-name="tonos" unicode="&#x384;" horiz-adv-x="198" 
d="M86 1208h-45l55 84h70z" />
    <glyph glyph-name="Alphatonos" unicode="&#x386;" horiz-adv-x="995" 
d="M408 1174l-46 -3l56 86h69zM545 0h-504l477 1206h60l376 -1206h-45l-362 1161l-443 -1118h441v-43z" />
    <glyph glyph-name="Epsilontonos" unicode="&#x388;" horiz-adv-x="944" 
d="M90 1174h-45l55 83h70zM836 573h-670v-317q0 -52 7.5 -86t29.5 -65.5t67 -46.5t115 -15h451v-43h-451q-146 0 -204 64t-58 192v696q0 128 58 192t204 64h453v-43h-453q-70 0 -115 -15t-67 -46.5t-29.5 -65.5t-7.5 -86v-338h670v-41z" />
    <glyph glyph-name="Etatonos" unicode="&#x389;" horiz-adv-x="1048" 
d="M68 1174h-45l55 83h69zM231 0h-43v1208h43v-635h631v635h43v-1208h-43v530h-631v-530z" />
    <glyph glyph-name="Iotatonos" unicode="&#x38a;" horiz-adv-x="362" 
d="M59 1174h-45l56 83h69zM219 0h-43v1208h43v-1208z" />
    <glyph glyph-name="Omicrontonos" unicode="&#x38c;" horiz-adv-x="1019" 
d="M186 1174h-45l56 83h69zM510 0q-78 0 -139.5 18.5t-103.5 49.5t-73 79.5t-48 98t-27 116.5t-12.5 124.5t-2.5 131.5t3 127t12.5 119t26 111.5t47 92.5t72.5 75.5t104 46.5t141 18q62 0 113 -11t89.5 -29t69.5 -47.5t51.5 -60.5t35.5 -74.5t23.5 -82t13.5 -91.5t7 -95
t2 -99q0 -74 -2.5 -131.5t-12 -124.5t-27 -116.5t-48 -98t-72.5 -79t-104 -49.5t-139 -19zM510 43q54 0 99.5 10.5t79.5 28.5t61 47t45 59.5t31.5 73t21 80.5t12 89t5.5 92t1 95q0 55 -1 92t-4.5 87.5t-10.5 85.5t-20 76.5t-31 69t-45 55.5t-61 44.5t-80.5 26.5t-102.5 10
t-102.5 -10t-80.5 -26.5t-61 -44.5t-45 -55.5t-31 -69t-20 -76.5t-10.5 -85.5t-4.5 -87.5t-1 -92q0 -54 1 -95t5.5 -92t12 -89t21 -80.5t31.5 -73t45 -59.5t61 -47t79.5 -28.5t99.5 -10.5z" />
    <glyph glyph-name="Upsilontonos" unicode="&#x38e;" horiz-adv-x="1015" 
d="M63 1174h-45l56 83h69zM598 6h-43v594l-387 608h51l359 -563l358 563h51l-389 -612v-590z" />
    <glyph glyph-name="Omegatonos" unicode="&#x38f;" horiz-adv-x="1234" 
d="M528 0h-424v43h293q-105 45 -177.5 137.5t-103.5 203t-30 234.5q1 92 19.5 175.5t59.5 160t101 132.5t150 89t200 33t200.5 -33t151 -89t102 -132.5t60 -160t19.5 -175.5q1 -124 -30 -234.5t-103.5 -203t-177.5 -137.5h292v-43h-423v45q131 23 223 107.5t134 203
t42 262.5q0 83 -16.5 160t-54.5 148t-93.5 123.5t-139 84t-186.5 31.5t-186.5 -31.5t-138.5 -84t-92 -123.5t-53.5 -148t-16.5 -160q0 -99 24.5 -192t72 -173t126 -135.5t176.5 -72.5v-45zM100 1124h-45l56 84h69z" />
    <glyph glyph-name="iotadieresistonos" unicode="&#x390;" horiz-adv-x="763" 
d="M170 1038h-45l55 84h70zM55 952q-24 0 -34 19.5t0 39t34 19.5q23 0 32.5 -19.5t0 -39t-32.5 -19.5zM242 952q-24 0 -34 19.5t0 39t34 19.5q23 0 32.5 -19.5t0 -39t-32.5 -19.5zM608 0h-239q-74 0 -120.5 13t-73 43.5t-36.5 73t-10 108.5v622h43v-622q0 -57 6.5 -90.5
t27.5 -59t60 -35.5t103 -10h239v-43z" />
    <glyph glyph-name="Alpha" unicode="&#x391;" horiz-adv-x="995" 
d="M545 0h-504l477 1206h60l376 -1206h-45l-362 1161l-443 -1118h441v-43z" />
    <glyph glyph-name="Beta" unicode="&#x392;" horiz-adv-x="1003" 
d="M598 0h-455v1208h455q146 0 204 -64t58 -192v-116q0 -90 -28 -148t-95 -84q67 -26 95 -84.5t28 -150.5v-113q0 -128 -58 -192t-204 -64zM186 1165v-540h412q70 0 115 15t67 46.5t29.5 65.5t7.5 86v114q0 52 -7.5 86t-29.5 65.5t-67 46.5t-115 15h-412zM186 582v-539h412
q70 0 115 15t67 46.5t29.5 65.5t7.5 86v113q0 52 -7.5 86t-29.5 65.5t-67 46.5t-115 15h-412z" />
    <glyph glyph-name="Gamma" unicode="&#x393;" horiz-adv-x="964" 
d="M166 0h-43v952q0 128 58 192t204 64h453v-43h-453q-70 0 -115 -15t-67 -46.5t-29.5 -65.5t-7.5 -86v-952z" />
    <glyph glyph-name="uni0394" unicode="&#x394;" horiz-adv-x="1001" 
d="M954 0h-913l477 1206h60zM547 1161l-443 -1118h791z" />
    <glyph glyph-name="Epsilon" unicode="&#x395;" horiz-adv-x="923" 
d="M815 573h-670v-317q0 -52 7.5 -86.5t29.5 -65.5t67.5 -46t115.5 -15h450v-43h-450q-146 0 -204.5 64t-58.5 192v696q0 128 58.5 192t204.5 64h452v-43h-452q-70 0 -115.5 -15t-67.5 -46t-29.5 -65.5t-7.5 -86.5v-338h670v-41z" />
    <glyph glyph-name="Zeta" unicode="&#x396;" horiz-adv-x="962" 
d="M840 0h-717v45l665 1120h-665v43h717v-43l-668 -1122h668v-43z" />
    <glyph glyph-name="Eta" unicode="&#x397;" horiz-adv-x="1003" 
d="M186 0h-43v1208h43v-635h631v635h43v-1208h-43v530h-631v-530z" />
    <glyph glyph-name="Theta" unicode="&#x398;" horiz-adv-x="987" 
d="M494 0q-78 0 -139.5 18.5t-103.5 49.5t-73 79.5t-48 98t-27 116.5t-12.5 124.5t-2.5 131.5t3 127t12.5 119t26 111.5t47 92.5t72.5 75.5t104 46.5t141 18q62 0 113 -11t89.5 -29t69.5 -47.5t51.5 -60.5t35.5 -74.5t23.5 -82t13.5 -91.5t7 -95t2 -99q0 -74 -2.5 -131.5
t-12 -124.5t-27 -116.5t-48 -98t-72.5 -79t-104 -49.5t-139 -19zM494 43q54 0 99.5 10.5t79.5 28.5t61 47t45 59.5t31.5 73t21 80.5t12 89t5.5 92t1 95q0 55 -1 92t-4.5 87.5t-10.5 85.5t-20 76.5t-31 69t-45 55.5t-61 44.5t-80.5 26.5t-102.5 10t-102.5 -10t-80.5 -26.5
t-61.5 -44.5t-45.5 -56t-31 -69t-19.5 -76t-10.5 -85t-5 -88t-1 -92q0 -70 2 -122t10.5 -116t23.5 -109t41.5 -90.5t63.5 -74t92 -46t124 -17.5zM729 584h-471v43h471v-43z" />
    <glyph glyph-name="Iota" unicode="&#x399;" horiz-adv-x="329" 
d="M186 0h-43v1208h43v-1208z" />
    <glyph glyph-name="Kappa" unicode="&#x39a;" horiz-adv-x="899" 
d="M186 0h-43v1208h43v-635l613 635h61l-563 -577l565 -631h-61l-535 600l-80 -84v-516z" />
    <glyph glyph-name="Lambda" unicode="&#x39b;" horiz-adv-x="841" 
d="M14 0l379 1208h62l370 -1208h-45l-356 1163l-365 -1163h-45z" />
    <glyph glyph-name="Mu" unicode="&#x39c;" horiz-adv-x="1343" 
d="M186 0h-43v1208h58l473 -1155l471 1155h55v-1208h-43v1130l-459 -1130h-49l-463 1126v-1126z" />
    <glyph glyph-name="Nu" unicode="&#x39d;" horiz-adv-x="1005" 
d="M186 0h-43v1208h56l620 -1147v1147h43v-1208h-59l-617 1143v-1143z" />
    <glyph glyph-name="Xi" unicode="&#x39e;" horiz-adv-x="962" 
d="M840 1165h-717v43h717v-43zM717 594h-471v43h471v-43zM840 0h-717v45l717 -2v-43z" />
    <glyph glyph-name="Omicron" unicode="&#x39f;" horiz-adv-x="1019" 
d="M510 0q-78 0 -139.5 18.5t-103.5 49.5t-73 79.5t-48 98t-27 116.5t-12.5 124.5t-2.5 131.5t3 127t12.5 119t26 111.5t47 92.5t72.5 75.5t104 46.5t141 18q62 0 113 -11t89.5 -29t69.5 -47.5t51.5 -60.5t35.5 -74.5t23.5 -82t13.5 -91.5t7 -95t2 -99q0 -74 -2.5 -131.5
t-12 -124.5t-27 -116.5t-48 -98t-72.5 -79t-104 -49.5t-139 -19zM510 43q54 0 99.5 10.5t79.5 28.5t61 47t45 59.5t31.5 73t21 80.5t12 89t5.5 92t1 95q0 55 -1 92t-4.5 87.5t-10.5 85.5t-20 76.5t-31 69t-45 55.5t-61 44.5t-80.5 26.5t-102.5 10t-102.5 -10t-80.5 -26.5
t-61 -44.5t-45 -55.5t-31 -69t-20 -76.5t-10.5 -85.5t-4.5 -87.5t-1 -92q0 -54 1 -95t5.5 -92t12 -89t21 -80.5t31.5 -73t45 -59.5t61 -47t79.5 -28.5t99.5 -10.5z" />
    <glyph glyph-name="Pi" unicode="&#x3a0;" horiz-adv-x="964" 
d="M166 0h-43v1208h713v-1208h-43v1165h-627v-1165z" />
    <glyph glyph-name="Rho" unicode="&#x3a1;" horiz-adv-x="962" 
d="M186 0h-43v1208h455q146 0 204 -64t58 -192v-125q0 -128 -58 -191t-204 -63h-412v-573zM186 1165v-551h412q70 0 115 15t67 46.5t29.5 65.5t7.5 86v125q0 52 -7.5 86t-29.5 65.5t-67 46.5t-115 15h-412z" />
    <glyph glyph-name="Sigma" unicode="&#x3a3;" horiz-adv-x="962" 
d="M573 651l-423 516v43h659v-43h-604l422 -514l-426 -610h608v-43h-659v43z" />
    <glyph glyph-name="Tau" unicode="&#x3a4;" horiz-adv-x="964" 
d="M504 -2h-43v1167h-441v43h924v-43h-440v-1167z" />
    <glyph glyph-name="Upsilon" unicode="&#x3a5;" 
d="M451 6h-43v594l-388 608h52l358 -563l358 563h52l-389 -612v-590z" />
    <glyph glyph-name="Phi" unicode="&#x3a6;" horiz-adv-x="970" 
d="M504 0h-43v131q-59 1 -106.5 9t-84.5 20t-65.5 32.5t-48.5 42t-34 54t-22 63.5t-12.5 74.5t-6 82.5t-1.5 93t1.5 93t6 82.5t12.5 74.5t22 63.5t34 54t48.5 42t65.5 32.5t84.5 20t106.5 9v135h43v-135q59 -1 107.5 -8.5t86 -19.5t66 -32t49 -42t35 -54.5t23 -63.5
t13 -74.5t6 -83t1.5 -93.5t-1.5 -93.5t-6 -83t-13 -74.5t-23 -63.5t-35 -54.5t-49 -42t-66 -32t-86 -19.5t-107.5 -8.5v-131zM461 174v856q-67 -2 -118 -13t-86.5 -27.5t-59.5 -47.5t-37.5 -60t-20.5 -79t-8.5 -91.5t-1.5 -109.5t1.5 -109.5t8.5 -91.5t20.5 -79t37.5 -60
t59.5 -47.5t86.5 -27.5t118 -13zM504 1030v-856q48 1 88 6t71.5 15.5t56.5 22t43 31.5t31.5 38.5t22 48t13.5 54.5t8 64t3.5 70t0.5 78t-0.5 78t-3.5 70t-8 64t-13.5 54.5t-22 48t-31.5 38.5t-43 31.5t-56.5 22t-71.5 15.5t-88 6z" />
    <glyph glyph-name="Chi" unicode="&#x3a7;" 
d="M72 0h-52l386 604l-386 604h52l358 -563l358 563h52l-383 -604l383 -604h-52l-358 563z" />
    <glyph glyph-name="Psi" unicode="&#x3a8;" horiz-adv-x="983" 
d="M133 764v444h43v-444q0 -40 13 -79.5t39 -76.5t75 -59.5t113 -22.5h55v682h43v-682h53q64 0 113 22.5t75 59.5t39 76.5t13 79.5v444h43v-444q0 -115 -76 -198t-207 -83h-53v-483h-43v483h-55q-131 0 -207 83t-76 198z" />
    <glyph glyph-name="uni03A9" unicode="&#x3a9;" horiz-adv-x="1234" 
d="M528 0h-424v43h293q-105 45 -177.5 137.5t-103.5 203t-30 234.5q1 92 19.5 175.5t59.5 160t101 132.5t150 89t200 33t200.5 -33t151 -89t102 -132.5t60 -160t19.5 -175.5q1 -124 -30 -234.5t-103.5 -203t-177.5 -137.5h292v-43h-423v45q131 23 223 107.5t134 203
t42 262.5q0 83 -16.5 160t-54.5 148t-93.5 123.5t-139 84t-186.5 31.5t-186.5 -31.5t-138.5 -84t-92 -123.5t-53.5 -148t-16.5 -160q0 -99 24.5 -192t72 -173t126 -135.5t176.5 -72.5v-45z" />
    <glyph glyph-name="Iotadieresis" unicode="&#x3aa;" horiz-adv-x="329" 
d="M80 1290q-24 0 -34 19.5t0 39t34 19.5q23 0 32.5 -19.5t0 -39t-32.5 -19.5zM252 1290q-24 0 -34 19.5t0 39t34 19.5q23 0 32.5 -19.5t0 -39t-32.5 -19.5zM186 0h-43v1208h43v-1208z" />
    <glyph glyph-name="Upsilondieresis" unicode="&#x3ab;" 
d="M344 1290q-24 0 -34 19.5t0 39t34 19.5q23 0 32.5 -19.5t0 -39t-32.5 -19.5zM516 1290q-24 0 -34 19.5t0 39t34 19.5q23 0 32.5 -19.5t0 -39t-32.5 -19.5zM451 6h-43v594l-388 608h52l358 -563l358 563h52l-389 -612v-590z" />
    <glyph glyph-name="alphatonos" unicode="&#x3ac;" horiz-adv-x="880" 
d="M428 952h-45l55 84h70zM862 43v-43q-60 0 -95.5 23t-55.5 79q-54 -102 -234 -102h-80q-62 0 -111 13t-82 33.5t-56 55t-35.5 67.5t-19.5 81t-8.5 86t-0.5 92q3 161 16 222q30 142 146 187q62 23 151 23h80q144 0 215 -67l13 67h34v-633q0 -34 1.5 -56.5t8.5 -49t20 -42
t36.5 -26t56.5 -10.5zM397 43h80q70 0 115 15t67 46.5t29.5 65.5t7.5 86v348q0 52 -7.5 86t-29.5 65.5t-67 46.5t-115 15h-80q-78 0 -131.5 -23t-80.5 -52.5t-40.5 -89t-15.5 -98t-2 -114.5v-12q0 -41 0.5 -65t3 -61t7.5 -60t14 -53.5t22.5 -49t34 -39t47 -31.5t62.5 -18.5
t79 -7.5z" />
    <glyph glyph-name="epsilontonos" unicode="&#x3ad;" horiz-adv-x="897" 
d="M469 952h-45l55 84h70zM774 43v-43h-354q-49 0 -89.5 8t-70.5 18.5t-52.5 34t-37.5 40.5t-25.5 52.5t-15.5 55.5t-7.5 65t-2.5 65v69v30q0 45 0.5 71t3.5 67.5t8 66.5t15.5 58.5t25.5 53.5t38 42.5t52.5 34.5t69 20t88.5 8h354v-43h-354q-37 0 -68.5 -4.5t-55.5 -15.5
t-43.5 -22.5t-33 -31.5t-23.5 -36.5t-16.5 -43.5t-10 -46.5t-5 -51.5t-2 -52.5t-0.5 -55.5h514v-43h-514q-3 -47 -0.5 -93t6.5 -87t21 -76t43.5 -60.5t74.5 -40t113 -14.5h354z" />
    <glyph glyph-name="etatonos" unicode="&#x3ae;" 
d="M418 952h-45l55 84h70zM145 0h-43v606q0 128 58 191t205 63h131q146 0 204 -63t58 -191v-954h-43v954q0 52 -7.5 86t-29.5 65.5t-67 46.5t-115 15h-131q-70 0 -115.5 -15t-67.5 -46t-29.5 -65.5t-7.5 -86.5v-606z" />
    <glyph glyph-name="iotatonos" unicode="&#x3af;" horiz-adv-x="587" 
d="M100 952h-45l56 84h69zM567 0h-239q-74 0 -120.5 13t-73 43.5t-36.5 73t-10 108.5v622h43v-622q0 -57 6.5 -90.5t27.5 -59t60 -35.5t103 -10h239v-43z" />
    <glyph glyph-name="upsilondieresistonos" unicode="&#x3b0;" horiz-adv-x="827" 
d="M420 1038h-45l55 84h70zM311 952q-24 0 -34 19.5t0 39t34 19.5q23 0 32.5 -19.5t0 -39t-32.5 -19.5zM498 952q-24 0 -34 19.5t0 39t34 19.5q23 0 32.5 -19.5t0 -39t-32.5 -19.5zM102 254v606h43v-606q0 -52 7.5 -86.5t29.5 -65.5t67.5 -46t115.5 -15h77q61 0 106 18.5
t72 48t42 75t18.5 91.5t-1.5 105.5t-14.5 109.5t-24.5 111t-27.5 101.5t-27.5 90t-20 68.5h45q5 -19 18 -62q21 -73 32.5 -115t31 -124.5t23.5 -136t7 -126t-15.5 -118.5t-47.5 -90.5t-85 -66t-132 -21.5h-77q-147 0 -205 63t-58 191z" />
    <glyph glyph-name="alpha" unicode="&#x3b1;" horiz-adv-x="894" 
d="M862 43v-43q-60 0 -95.5 23t-55.5 79q-54 -102 -234 -102h-80q-62 0 -111 13t-82 33.5t-56 55t-35.5 67.5t-19.5 81t-8.5 86t-0.5 92q3 161 16 222q30 142 146 187q62 23 151 23h80q144 0 215 -67l13 67h34v-633q0 -34 1.5 -56.5t8.5 -49t20 -42t36.5 -26t56.5 -10.5z
M397 43h80q70 0 115 15t67 46.5t29.5 65.5t7.5 86v348q0 52 -7.5 86t-29.5 65.5t-67 46.5t-115 15h-80q-78 0 -131.5 -23t-80.5 -52.5t-40.5 -89t-15.5 -98t-2 -114.5v-12q0 -41 0.5 -65t3 -61t7.5 -60t14 -53.5t22.5 -49t34 -39t47 -31.5t62.5 -18.5t79 -7.5z" />
    <glyph glyph-name="beta" unicode="&#x3b2;" horiz-adv-x="985" 
d="M166 -348h-43v1337q1 54 7.5 88.5t25.5 65.5t57.5 46.5t99.5 18.5h287q146 0 204 -64t58 -192v-116q0 -90 -28 -148t-95 -84q67 -26 95 -84.5t28 -150.5v-113q0 -128 -58 -192t-204 -64h-262v43h262q70 0 115 15t67 46.5t29.5 65.5t7.5 86v113q0 52 -7.5 86t-29.5 65.5
t-67 46.5t-115 15h-121v43h121q70 0 115 15t67 46.5t29.5 65.5t7.5 86v114q0 52 -7.5 86t-29.5 65.5t-67 46.5t-115 15h-285q-49 0 -80 -12.5t-45.5 -39.5t-19 -55t-4.5 -73v-1333z" />
    <glyph glyph-name="gamma" unicode="&#x3b3;" horiz-adv-x="698" 
d="M244 -348h-43q34 212 135 473l-273 735h46l249 -678q25 62 84.5 197t106 250t84.5 231h45q-49 -152 -121 -325t-126 -292t-107 -278t-80 -313z" />
    <glyph glyph-name="delta" unicode="&#x3b4;" horiz-adv-x="868" 
d="M483 6h-98q-49 0 -89.5 8t-70.5 18.5t-52.5 34t-37.5 40.5t-25.5 52.5t-15.5 55.5t-7.5 65t-2.5 65v69v30q0 45 0.5 71t3.5 67.5t8 66.5t15.5 58.5t25.5 53.5t38 42.5t52.5 34.5t69 20t88.5 8l170 -4l-340 279q-16 13 -21 28.5t9 27t49 11.5h485v-43h-485l422 -346
q32 -21 53.5 -54t32.5 -64.5t16.5 -82t6.5 -83t1 -91.5q0 -160 -8 -214q-22 -145 -128 -194q-64 -30 -165 -30zM385 49h98q55 0 97 10t69 28t46 43t27.5 55.5t14 65.5t5 72t-0.5 76v45v8q0 75 -2 113t-15 96.5t-38.5 87t-76.5 51.5t-126 23h-98q-75 0 -126 -23t-76.5 -51.5
t-38.5 -87t-15 -96.5t-2 -113v-4v-4q0 -148 3 -177q12 -133 91 -181q59 -37 164 -37z" />
    <glyph glyph-name="epsilon" unicode="&#x3b5;" horiz-adv-x="897" 
d="M774 43v-43h-354q-49 0 -89.5 8t-70.5 18.5t-52.5 34t-37.5 40.5t-25.5 52.5t-15.5 55.5t-7.5 65t-2.5 65v69v30q0 45 0.5 71t3.5 67.5t8 66.5t15.5 58.5t25.5 53.5t38 42.5t52.5 34.5t69 20t88.5 8h354v-43h-354q-37 0 -68.5 -4.5t-55.5 -15.5t-43.5 -22.5t-33 -31.5
t-23.5 -36.5t-16.5 -43.5t-10 -46.5t-5 -51.5t-2 -52.5t-0.5 -55.5h514v-43h-514q-3 -47 -0.5 -93t6.5 -87t21 -76t43.5 -60.5t74.5 -40t113 -14.5h354z" />
    <glyph glyph-name="zeta" unicode="&#x3b6;" horiz-adv-x="778" 
d="M397 -178v45q42 0 89 -0.5t88 20.5t47 62q4 28 -14 51t-52.5 38.5t-79.5 32.5t-93.5 33t-97 41.5t-87.5 56t-66 78.5t-33 107q-8 82 26.5 168t98.5 166.5t132 151.5t144.5 152.5t116.5 139.5h-430v43h484v-43q-46 -68 -125.5 -154t-148.5 -157t-133.5 -149t-97.5 -159.5
t-24 -158.5q12 -61 49 -107t86 -73t105 -48t108 -39.5t93 -40t62.5 -57t14.5 -83.5q-6 -38 -30 -63t-64.5 -36t-78 -14.5t-89.5 -3.5z" />
    <glyph glyph-name="eta" unicode="&#x3b7;" 
d="M145 0h-43v604q0 128 58.5 192t204.5 64h131q146 0 204 -56.5t58 -199.5v-952h-43v952q0 41 -3 67.5t-15 57t-35 48t-64.5 29t-101.5 11.5h-129q-70 0 -115.5 -15t-68 -46t-30.5 -66t-8 -86v-604z" />
    <glyph glyph-name="theta" unicode="&#x3b8;" horiz-adv-x="923" 
d="M494 0q-78 0 -139.5 18.5t-103.5 49.5t-73 79.5t-48 98t-27 116.5t-12.5 124.5t-2.5 131.5t3 127t12.5 119t26 111.5t47 92.5t72.5 75.5t104 46.5t141 18q62 0 113 -11t89.5 -29t69.5 -47.5t51.5 -60.5t35.5 -74.5t23.5 -82t13.5 -91.5t7 -95t2 -99q0 -74 -2.5 -131.5
t-12 -124.5t-27 -116.5t-48 -98t-72.5 -79t-104 -49.5t-139 -19zM137 627h713q0 53 -1 91t-5 87t-11 84t-20 75t-31.5 67.5t-45 54.5t-61 43t-80.5 26t-101 10t-101 -10t-80.5 -26t-61.5 -43t-45 -54.5t-31 -67.5t-20.5 -75t-11.5 -84t-5 -87t-1 -91zM494 43q66 0 119 16
t90 43t63.5 69t42.5 85.5t25 102t12.5 109.5t3.5 116h-713q0 -65 3.5 -116t13 -109.5t25 -102t42.5 -85.5t64 -69t90 -43t119 -16z" />
    <glyph glyph-name="iota" unicode="&#x3b9;" horiz-adv-x="583" 
d="M567 0h-239q-74 0 -120.5 13t-73 43.5t-36.5 73t-10 108.5v622h43v-622q0 -57 6.5 -90.5t27.5 -59t60 -35.5t103 -10h239v-43z" />
    <glyph glyph-name="kappa" unicode="&#x3ba;" horiz-adv-x="755" 
d="M186 0h-43v860h43v-422l473 422h66l-428 -381l430 -479h-57l-406 449l-78 -68v-381z" />
    <glyph glyph-name="lambda" unicode="&#x3bb;" horiz-adv-x="925" 
d="M881 49v-43q-30 -6 -54 -6q-60 0 -94 35t-65 112l-252 684l-316 -823h-45l340 883l-55 149q-28 73 -56.5 103.5t-68.5 30.5q-44 0 -147 -41v47q101 37 155 37q51 0 86.5 -35.5t67.5 -120.5l330 -893q25 -64 52 -94.5t75 -30.5q20 0 47 6z" />
    <glyph glyph-name="uni03BC" unicode="&#x3bc;" 
d="M102 -348v1210h43v-604q0 -51 8 -86t30.5 -66t68 -46t115.5 -15h129q60 0 101.5 11.5t64.5 29t35 48t15 57t3 67.5v604h43v-604q0 -134 -59.5 -195t-202.5 -61h-131q-160 0 -220 82v-432h-43z" />
    <glyph glyph-name="nu" unicode="&#x3bd;" horiz-adv-x="800" 
d="M371 0h-58l-293 860h46l280 -821q134 205 194.5 384t94.5 437h43q-33 -269 -97.5 -453t-209.5 -407z" />
    <glyph glyph-name="xi" unicode="&#x3be;" horiz-adv-x="722" 
d="M395 -178v45q42 0 89.5 -0.5t88 20.5t45.5 62q4 33 -17 58.5t-59.5 41.5t-88 34t-102.5 34.5t-104 44.5t-91.5 62t-65 88.5t-24.5 123.5q0 90 41.5 163t98 113t120.5 56q-183 48 -183 190q0 144 166 207h-180v43h485v-43q-31 0 -61.5 -1.5t-75 -6.5t-82.5 -13.5
t-77.5 -24.5t-67.5 -37t-46 -53t-18 -71q0 -49 29 -84t77.5 -51.5t95.5 -23t99 -6.5h117v-43h-117q-177 0 -277.5 -87t-100.5 -227q1 -64 26.5 -113.5t66 -79.5t92 -55t104.5 -41t102.5 -35.5t87 -40t57 -54.5t12.5 -78q-6 -38 -30 -63t-64.5 -36t-78 -14.5t-89.5 -3.5z" />
    <glyph glyph-name="omicron" unicode="&#x3bf;" horiz-adv-x="868" 
d="M483 6h-98q-49 0 -89.5 8t-70.5 18.5t-52.5 34t-37.5 40.5t-25.5 52.5t-15.5 55.5t-7.5 65t-2.5 65v69v30q0 45 0.5 71t3.5 67.5t8 66.5t15.5 58.5t25.5 53.5t38 42.5t52.5 34.5t69 20t88.5 8h98q49 0 88.5 -8t69 -20t52.5 -34.5t38 -42.5t25.5 -53.5t15.5 -58.5t8 -66.5
t3.5 -67.5t0.5 -71q0 -160 -8 -214q-22 -145 -128 -194q-64 -30 -165 -30zM385 49h98q55 0 97 10t69 28t46 43t27.5 55.5t14 65.5t5 72t-0.5 76v45v8q0 75 -2 113t-15 96.5t-38.5 87t-76.5 51.5t-126 23h-98q-75 0 -126 -23t-76.5 -51.5t-38.5 -87t-15 -96.5t-2 -113v-4v-4
q0 -148 3 -177q12 -133 91 -181q59 -37 164 -37z" />
    <glyph glyph-name="pi" unicode="&#x3c0;" horiz-adv-x="1013" 
d="M184 0h-43v819h-100v15l100 28h674v-43h-307v-581q0 -57 6.5 -90.5t27.5 -59t60 -35.5t103 -10h239v-43h-239q-74 0 -120.5 13t-73 43.5t-36.5 73t-10 108.5v581h-281v-819z" />
    <glyph glyph-name="rho" unicode="&#x3c1;" horiz-adv-x="839" 
d="M145 -346h-43v952q0 128 58 191t205 63h131q146 0 204 -63t58 -191v-350q0 -128 -58 -192t-204 -64h-95q-194 0 -256 82v-428zM145 606v-350q0 -103 47 -158t173 -55h131q70 0 115 15t67 46.5t29.5 65.5t7.5 86v350q0 52 -7.5 86t-29.5 65.5t-67 46.5t-115 15h-131
q-70 0 -115.5 -15t-67.5 -46t-29.5 -65.5t-7.5 -86.5z" />
    <glyph glyph-name="uni03C2" unicode="&#x3c2;" horiz-adv-x="833" 
d="M608 -246h-57l18.5 18.5t26 26.5t22.5 30t15 34.5t-3.5 35t-25 36.5t-58 33.5t-95.5 31.5q-115 28 -190 70.5t-112.5 102t-50 124t-10.5 154.5q2 68 11.5 123.5t34.5 110.5t64 92t103 60t148 23q88 0 147.5 -12.5t142.5 -50.5v-47q-86 37 -147.5 52t-142.5 15
q-74 0 -130.5 -21t-90 -54t-55.5 -82.5t-30.5 -98.5t-11.5 -110q-3 -65 2.5 -113t24 -96t54 -82.5t94.5 -65t143 -51.5q74 -18 124 -42t73.5 -47.5t31 -49.5t2 -48t-18.5 -43.5t-26.5 -35t-26.5 -23.5z" />
    <glyph glyph-name="sigma" unicode="&#x3c3;" horiz-adv-x="899" 
d="M483 0h-98q-49 0 -89.5 8t-70.5 18.5t-52.5 34t-37.5 40.5t-25.5 52.5t-15.5 55.5t-7.5 65t-2.5 65v69v30q0 45 0.5 71t3.5 67.5t8 66.5t15.5 58.5t25.5 53.5t38 42.5t52.5 34.5t69 20t88.5 8h483v-43h-200q28 -17 48.5 -41t33 -56.5t20 -60t10.5 -72t3.5 -72t0.5 -77.5
q0 -160 -8 -214q-22 -145 -128 -194q-64 -30 -165 -30zM385 43h98q55 0 97 10t69 28t46 43t27.5 55.5t14 65.5t5 72t-0.5 76v45v8q0 75 -2 113t-15 96.5t-38.5 87t-76.5 51.5t-126 23h-98q-75 0 -126 -23t-76.5 -51.5t-38.5 -87t-15 -96.5t-2 -113v-4v-4q0 -148 3 -177
q12 -133 91 -181q59 -37 164 -37z" />
    <glyph glyph-name="tau" unicode="&#x3c4;" horiz-adv-x="755" 
d="M195 819h-170v15l100 28h420v-43h-307v-581q0 -58 6.5 -91t27 -58.5t59.5 -35.5t103 -10h240v-43h-240q-74 0 -120.5 13t-73 43.5t-36 72.5t-9.5 109v581z" />
    <glyph glyph-name="upsilon" unicode="&#x3c5;" 
d="M102 256v604h43v-604q0 -51 8 -86t30.5 -66t68 -46t115.5 -15h129q75 0 126 34t75.5 89.5t33 129.5t1.5 150.5t-22.5 156t-34 143t-38.5 114.5h45q20 -42 39.5 -106t34 -145t20.5 -164.5t-6 -163.5t-40.5 -142.5t-88.5 -100.5t-145 -38h-131q-146 0 -204.5 64t-58.5 192z
" />
    <glyph glyph-name="phi" unicode="&#x3c6;" horiz-adv-x="995" 
d="M518 -348h-43v348q-103 0 -180 32t-120.5 86t-67.5 126t-25 152t12.5 163t39 159.5t59.5 141.5h45q-29 -57 -53.5 -126t-40.5 -148t-19.5 -155t14.5 -147t55.5 -124t109.5 -85t171 -32v563q0 116 60 187t141 71q75 0 134.5 -65t80.5 -193q12 -74 14 -142.5t-7 -139
t-36 -127.5t-70 -102t-113 -70t-161 -25v-348zM518 606v-563q73 0 130 17.5t94.5 47t63 73.5t38 91.5t16 106t0.5 112t-12 115.5q-14 104 -62.5 158.5t-109.5 54.5q-64 0 -111 -57.5t-47 -155.5z" />
    <glyph glyph-name="chi" unicode="&#x3c7;" horiz-adv-x="847" 
d="M831 -299v-43q-30 -6 -53 -6q-60 0 -94.5 35.5t-65.5 111.5l-194 529l-369 -676h-49l400 731l-115 309q-29 74 -59 105.5t-70 31.5q-26 0 -64 -12v43q42 10 68 10q53 0 92 -36.5t70 -120.5l104 -281l234 428h49l-264 -483l206 -557q23 -63 50.5 -94t76.5 -31q20 0 47 6z
" />
    <glyph glyph-name="psi" unicode="&#x3c8;" horiz-adv-x="1034" 
d="M539 -348h-43v348q-103 0 -180 32t-120.5 86t-67.5 126t-25.5 152t12 163t39 159.5t59.5 141.5h45q-29 -57 -53.5 -126t-40.5 -148t-19 -155t14.5 -147t55.5 -124t110 -85t171 -32v1167h43v-1167q99 0 171 32t109.5 85t55.5 124t14.5 147t-19.5 155t-40.5 148t-53.5 126
h45q34 -65 59.5 -141.5t39 -159.5t12.5 -163t-25 -152t-67.5 -126t-120.5 -86t-180 -32v-348z" />
    <glyph glyph-name="omega" unicode="&#x3c9;" horiz-adv-x="1425" 
d="M690 356v240h43v-242q0 -54 14.5 -103.5t44 -91t79 -66.5t112.5 -25q97 0 164 53.5t95.5 140.5t31.5 194.5t-21.5 219t-68.5 209.5h45q64 -135 84.5 -285.5t-3.5 -278.5t-109 -212t-220 -84q-94 0 -166.5 51.5t-99.5 134.5q-24 -93 -109 -152t-188 -59q-108 0 -183 55
t-107 145t-35.5 202.5t24 231t78.5 226.5h45q-45 -99 -71 -210t-27 -218.5t23.5 -194.5t89 -140.5t161.5 -53.5q132 0 203 81.5t71 231.5z" />
    <glyph glyph-name="iotadieresis" unicode="&#x3ca;" horiz-adv-x="618" 
d="M59 952q-24 0 -34 19.5t0 39t34 19.5q23 0 32.5 -19.5t0 -39t-32.5 -19.5zM231 952q-24 0 -34 19.5t0 39t34 19.5q23 0 32.5 -19.5t0 -39t-32.5 -19.5zM602 0h-240q-74 0 -120.5 13t-73 43.5t-36 72.5t-9.5 109v622h43v-622q0 -58 6.5 -91t27 -58.5t59.5 -35.5t103 -10
h240v-43z" />
    <glyph glyph-name="upsilondieresis" unicode="&#x3cb;" horiz-adv-x="829" 
d="M313 952q-24 0 -34 19.5t0 39t34 19.5q23 0 32.5 -19.5t0 -39t-32.5 -19.5zM485 952q-24 0 -34 19.5t0 39t34 19.5q23 0 32.5 -19.5t0 -39t-32.5 -19.5zM102 256v604h43v-604q0 -51 8 -86t30.5 -66t68 -46t115.5 -15h129q75 0 126 34t75.5 89.5t33 129.5t1.5 150.5
t-22.5 156t-34 143t-38.5 114.5h45q20 -42 39.5 -106t34 -145t20.5 -164.5t-6 -163.5t-40.5 -142.5t-88.5 -100.5t-145 -38h-131q-146 0 -204.5 64t-58.5 192z" />
    <glyph glyph-name="omicrontonos" unicode="&#x3cc;" horiz-adv-x="868" 
d="M418 950h-45l55 84h70zM483 6h-98q-49 0 -89.5 8t-70.5 18.5t-52.5 34t-37.5 40.5t-25.5 52.5t-15.5 55.5t-7.5 65t-2.5 65v69v30q0 45 0.5 71t3.5 67.5t8 66.5t15.5 58.5t25.5 53.5t38 42.5t52.5 34.5t69 20t88.5 8h98q49 0 88.5 -8t69 -20t52.5 -34.5t38 -42.5
t25.5 -53.5t15.5 -58.5t8 -66.5t3.5 -67.5t0.5 -71q0 -160 -8 -214q-22 -145 -128 -194q-64 -30 -165 -30zM385 49h98q55 0 97 10t69 28t46 43t27.5 55.5t14 65.5t5 72t-0.5 76v45v8q0 75 -2 113t-15 96.5t-38.5 87t-76.5 51.5t-126 23h-98q-75 0 -126 -23t-76.5 -51.5
t-38.5 -87t-15 -96.5t-2 -113v-4v-4q0 -148 3 -177q12 -133 91 -181q59 -37 164 -37z" />
    <glyph glyph-name="upsilontonos" unicode="&#x3cd;" horiz-adv-x="851" 
d="M383 950h-45l55 84h70zM102 256v604h43v-604q0 -51 8 -86t30.5 -66t68 -46t115.5 -15h129q75 0 126 34t75.5 89.5t33 129.5t1.5 150.5t-22.5 156t-34 143t-38.5 114.5h45q20 -42 39.5 -106t34 -145t20.5 -164.5t-6 -163.5t-40.5 -142.5t-88.5 -100.5t-145 -38h-131
q-146 0 -204.5 64t-58.5 192z" />
    <glyph glyph-name="omegatonos" unicode="&#x3ce;" horiz-adv-x="1400" 
d="M666 950h-45l55 84h69zM674 356v240h43v-242q0 -54 14.5 -103.5t44 -91t79 -66.5t112.5 -25q97 0 164 53.5t95 140.5t31 194.5t-21.5 219t-68.5 209.5h45q42 -89 66.5 -188t29 -194t-15 -182t-59 -152.5t-108.5 -104.5t-160 -39q-94 0 -167 51.5t-100 134.5
q-24 -93 -109 -152t-188 -59q-108 0 -183 55t-107 145t-35.5 202.5t24 231t78.5 226.5h45q-45 -99 -71 -210t-27 -218.5t23.5 -194.5t89 -140.5t161.5 -53.5q132 0 203.5 82t71.5 231z" />
    <glyph glyph-name="uni0401" unicode="&#x401;" horiz-adv-x="983" 
d="M446 1290q-24 0 -34 19.5t0 39t34 19.5q23 0 32.5 -19.5t0 -39t-32.5 -19.5zM618 1290q-24 0 -34 19.5t0 39t34 19.5q23 0 32.5 -19.5t0 -39t-32.5 -19.5zM846 573h-670v-317q0 -52 7.5 -86t29.5 -65.5t67 -46.5t115 -15h451v-43h-451q-146 0 -204 64t-58 192v696
q0 128 58 192t204 64h453v-43h-453q-70 0 -115 -15t-67 -46.5t-29.5 -65.5t-7.5 -86v-338h670v-41z" />
    <glyph glyph-name="uni0402" unicode="&#x402;" horiz-adv-x="1167" 
d="M422 -2h-43v1167h-336v43h715v-43h-336v-385q61 80 217 80h131q146 0 204 -64t58 -192v-348q0 -128 -58 -192t-204 -64v43q70 0 115 15t67 46.5t29.5 65.5t7.5 86v348q0 52 -7.5 86t-29.5 65.5t-67 46.5t-115 15h-131q-116 0 -163 -41t-54 -121v-657z" />
    <glyph glyph-name="uni0403" unicode="&#x403;" horiz-adv-x="755" 
d="M520 1290h-45l55 84h70zM186 0h-43v928q0 114 76 197t207 83h311v-43h-311q-64 0 -113 -22.5t-75 -59t-39 -76t-13 -79.5v-928z" />
    <glyph glyph-name="uni0404" unicode="&#x404;" horiz-adv-x="1019" 
d="M719 1290h-412v43h412v-43zM510 0q-78 0 -139.5 18.5t-103.5 49.5t-73 79.5t-48 98t-27 116.5t-12.5 124.5t-2.5 131.5t3 127t12.5 119t26 111.5t47 92.5t72.5 75.5t104 46.5t141 18q62 0 113 -11t89.5 -29t69.5 -47.5t51.5 -60.5t35.5 -74.5t23.5 -82t13.5 -91.5t7 -95
t2 -99q0 -74 -2.5 -131.5t-12 -124.5t-27 -116.5t-48 -98t-72.5 -79t-104 -49.5t-139 -19zM510 43q54 0 99.5 10.5t79.5 28.5t61 47t45 59.5t31.5 73t21 80.5t12 89t5.5 92t1 95q0 55 -1 92t-4.5 87.5t-10.5 85.5t-20 76.5t-31 69t-45 55.5t-61 44.5t-80.5 26.5t-102.5 10
t-102.5 -10t-80.5 -26.5t-61 -44.5t-45 -55.5t-31 -69t-20 -76.5t-10.5 -85.5t-4.5 -87.5t-1 -92q0 -54 1 -95t5.5 -92t12 -89t21 -80.5t31.5 -73t45 -59.5t61 -47t79.5 -28.5t99.5 -10.5z" />
    <glyph glyph-name="uni0405" unicode="&#x405;" horiz-adv-x="962" 
d="M123 256v33h43v-33q0 -52 7.5 -86t29.5 -65.5t67 -46.5t115 -15h193q70 0 115 15t67 46.5t29.5 65.5t7.5 86v123q0 52 -7.5 86t-29.5 65.5t-67 46.5t-115 15h-193q-146 0 -204 64t-58 192v104q0 128 58 192t204 64h154q146 0 204 -64t58 -192v-32h-43v32q0 52 -7.5 86
t-29.5 65.5t-67 46.5t-115 15h-154q-70 0 -115 -15t-67 -46.5t-29.5 -65.5t-7.5 -86v-104q0 -52 7.5 -86t29.5 -65.5t67 -46.5t115 -15h193q146 0 204 -64t58 -192v-123q0 -128 -58 -192t-204 -64h-193q-146 0 -204 64t-58 192z" />
    <glyph glyph-name="uni0406" unicode="&#x406;" horiz-adv-x="329" 
d="M186 0h-43v1208h43v-1208z" />
    <glyph glyph-name="uni0407" unicode="&#x407;" horiz-adv-x="329" 
d="M80 1290q-24 0 -34 19.5t0 39t34 19.5q23 0 32.5 -19.5t0 -39t-32.5 -19.5zM252 1290q-24 0 -34 19.5t0 39t34 19.5q23 0 32.5 -19.5t0 -39t-32.5 -19.5zM186 0h-43v1208h43v-1208z" />
    <glyph glyph-name="uni0408" unicode="&#x408;" horiz-adv-x="882" 
d="M477 0h-434v43h434q64 0 113 22.5t75 59.5t39 76.5t13 79.5v927h43v-927q0 -115 -76 -198t-207 -83z" />
    <glyph glyph-name="uni0409" unicode="&#x409;" horiz-adv-x="1574" 
d="M84 0h-66v43h66q51 0 94 20.5t68 48.5t43.5 64t26 60.5t10.5 44.5l151 927h311v-348h283q86 0 153 -24t108.5 -63t68.5 -95t37.5 -114t11.5 -126q0 -438 -383 -438h-59q-146 0 -204.5 64t-58.5 192v909h-231l-145 -884q-8 -50 -27.5 -96.5t-52.5 -89.5t-86 -69t-119 -26z
M1069 817h-281v-561q0 -41 4 -70t17 -58t36.5 -46t64 -28t96.5 -11h63q84 0 145.5 23t97.5 59t57 89.5t27 106t5 117.5q-1 61 -10 113t-32.5 102t-60 85.5t-95 57t-134.5 21.5z" />
    <glyph glyph-name="uni040A" unicode="&#x40a;" horiz-adv-x="1427" 
d="M186 0h-43v1208h43v-348h416v348h43v-348h283q86 0 153 -24t108.5 -63t68.5 -95t37.5 -114t11.5 -126q0 -438 -383 -438h-60q-146 0 -204 64t-58 192v561h-416v-817zM926 817h-281v-561q0 -52 7 -86t28.5 -65.5t66.5 -46.5t115 -15h64q84 0 145.5 23t97 59t56.5 89.5
t27 106t5 117.5q-1 77 -16.5 140.5t-51 119.5t-102.5 87.5t-161 31.5z" />
    <glyph glyph-name="uni040B" unicode="&#x40b;" horiz-adv-x="1146" 
d="M401 -2h-43v1167h-335v43h714v-43h-336v-385q61 80 217 80h132q146 0 204 -64t58 -192v-604h-43v604q0 52 -7.5 86t-29.5 65.5t-67 46.5t-115 15h-132q-116 0 -163 -41t-54 -121v-657z" />
    <glyph glyph-name="uni040C" unicode="&#x40c;" horiz-adv-x="899" 
d="M434 1290h-45l55 84h70zM186 0h-43v1208h43v-635l613 635h61l-563 -577l565 -631h-61l-535 600l-80 -84v-516z" />
    <glyph glyph-name="uni040E" unicode="&#x40e;" horiz-adv-x="751" 
d="M227 1395h47q8 -41 22.5 -51.5t70.5 -10.5h39q54 0 67 10.5t21 51.5h47q-10 -55 -19 -69q-23 -36 -116 -36h-39q-46 0 -73.5 6t-41 22.5t-17.5 31.5t-8 45zM154 0h-66v43h66q52 0 92.5 18t67.5 52t41.5 61t29.5 66q36 114 43 139l-412 829h50l380 -770l244 770h45
l-305 -968q-17 -49 -38 -87.5t-53 -75.5t-79 -57t-106 -20z" />
    <glyph glyph-name="uni040F" unicode="&#x40f;" horiz-adv-x="946" 
d="M461 0h-318v1208h43v-1165h574v1165h43v-1208h-299v-92h-43v92z" />
    <glyph glyph-name="uni0410" unicode="&#x410;" horiz-adv-x="995" 
d="M545 0h-504l477 1206h60l376 -1206h-45l-362 1161l-443 -1118h441v-43z" />
    <glyph glyph-name="uni0411" unicode="&#x411;" horiz-adv-x="997" 
d="M598 0h-455v1208h617v-43h-574v-530h412q146 0 204 -63t58 -191v-125q0 -128 -58 -192t-204 -64zM186 594v-551h412q70 0 115 15t67 46.5t29.5 65.5t7.5 86v125q0 52 -7.5 86t-29.5 65.5t-67 46.5t-115 15h-412z" />
    <glyph glyph-name="uni0412" unicode="&#x412;" horiz-adv-x="1003" 
d="M598 0h-455v1208h455q146 0 204 -64t58 -192v-116q0 -90 -28 -148t-95 -84q67 -26 95 -84.5t28 -150.5v-113q0 -128 -58 -192t-204 -64zM186 1165v-540h412q70 0 115 15t67 46.5t29.5 65.5t7.5 86v114q0 52 -7.5 86t-29.5 65.5t-67 46.5t-115 15h-412zM186 582v-539h412
q70 0 115 15t67 46.5t29.5 65.5t7.5 86v113q0 52 -7.5 86t-29.5 65.5t-67 46.5t-115 15h-412z" />
    <glyph glyph-name="uni0413" unicode="&#x413;" horiz-adv-x="778" 
d="M176 0h-43v928q0 114 76 197t207 83h311v-43h-311q-64 0 -113 -22.5t-75 -59t-39 -76t-13 -79.5v-928z" />
    <glyph glyph-name="uni0414" unicode="&#x414;" horiz-adv-x="866" 
d="M76 -162h-43v205h102q140 212 215.5 517.5t75.5 647.5h260v-1165h148v-205h-43v162h-715v-162zM184 43h459v1122h-174q-5 -327 -77 -614.5t-208 -507.5z" />
    <glyph glyph-name="uni0415" unicode="&#x415;" horiz-adv-x="919" 
d="M815 573h-670v-317q0 -52 7.5 -86.5t29.5 -65.5t67.5 -46t115.5 -15h450v-43h-450q-146 0 -204.5 64t-58.5 192v696q0 128 58.5 192t204.5 64h452v-43h-452q-70 0 -115.5 -15t-67.5 -46t-29.5 -65.5t-7.5 -86.5v-338h670v-41z" />
    <glyph glyph-name="uni0416" unicode="&#x416;" horiz-adv-x="1054" 
d="M121 0h-51l379 635l-377 573h51l373 -569v569h43v-569l372 569h52l-377 -573l379 -635h-52l-374 631v-631h-43v631z" />
    <glyph glyph-name="uni0417" unicode="&#x417;" horiz-adv-x="962" 
d="M797 829v123q0 52 -7.5 86t-29.5 65.5t-67 46.5t-115 15h-193q-70 0 -115 -15t-67 -46.5t-29.5 -65.5t-7.5 -86v-32h-43v32q0 128 58 192t204 64h193q146 0 204 -64t58 -192v-123q0 -186 -125 -235q68 -27 96.5 -85t28.5 -149v-104q0 -128 -58 -192t-204 -64h-193
q-146 0 -204 64t-58 192v33h43v-33q0 -52 7.5 -86t29.5 -65.5t67 -46.5t115 -15h193q70 0 115 15t67 46.5t29.5 65.5t7.5 86v104q0 52 -7.5 86t-29.5 65.5t-67 46.5t-115 15h-275v43h275q70 0 115 15t67 46.5t29.5 65.5t7.5 86z" />
    <glyph glyph-name="uni0418" unicode="&#x418;" horiz-adv-x="1005" 
d="M199 0h-56v1208h43v-1142l617 1142h59v-1208h-43v1147z" />
    <glyph glyph-name="uni0419" unicode="&#x419;" horiz-adv-x="1005" 
d="M346 1395h47q8 -41 22.5 -51.5t69.5 -10.5h39q54 0 67 10.5t21 51.5h47q-10 -55 -19 -69q-23 -36 -116 -36h-39q-46 0 -73 6t-40.5 22.5t-17.5 31t-8 45.5zM199 0h-56v1208h43v-1142l617 1142h59v-1208h-43v1147z" />
    <glyph glyph-name="uni041A" unicode="&#x41a;" horiz-adv-x="899" 
d="M186 0h-43v1208h43v-635l613 635h61l-563 -577l565 -631h-61l-535 600l-80 -84v-516z" />
    <glyph glyph-name="uni041B" unicode="&#x41b;" horiz-adv-x="960" 
d="M66 0h-31v43h31q67 0 124.5 57t96.5 146t70 207.5t49 230t30.5 226t17 184t5.5 114.5h358v-1208h-43v1165h-272q-3 -58 -7.5 -112.5t-13.5 -143.5t-20.5 -167.5t-31 -173.5t-42 -172.5t-55.5 -153.5t-71 -127.5t-88 -83t-107 -31.5z" />
    <glyph glyph-name="uni041C" unicode="&#x41c;" horiz-adv-x="1343" 
d="M186 0h-43v1208h58l473 -1155l471 1155h55v-1208h-43v1130l-459 -1130h-49l-463 1126v-1126z" />
    <glyph glyph-name="uni041D" unicode="&#x41d;" horiz-adv-x="1003" 
d="M186 0h-43v1208h43v-635h631v635h43v-1208h-43v530h-631v-530z" />
    <glyph glyph-name="uni041E" unicode="&#x41e;" horiz-adv-x="987" 
d="M494 0q-78 0 -139.5 18.5t-103.5 49.5t-73 79.5t-48 98t-27 116.5t-12.5 124.5t-2.5 131.5t3 127t12.5 119t26 111.5t47 92.5t72.5 75.5t104 46.5t141 18q62 0 113 -11t89.5 -29t69.5 -47.5t51.5 -60.5t35.5 -74.5t23.5 -82t13.5 -91.5t7 -95t2 -99q0 -74 -2.5 -131.5
t-12 -124.5t-27 -116.5t-48 -98t-72.5 -79t-104 -49.5t-139 -19zM494 43q54 0 99.5 10.5t79.5 28.5t61 47t45 59.5t31.5 73t21 80.5t12 89t5.5 92t1 95q0 55 -1 92t-4.5 87.5t-10.5 85.5t-20 76.5t-31 69t-45 55.5t-61 44.5t-80.5 26.5t-102.5 10t-102.5 -10t-80.5 -26.5
t-61.5 -44.5t-45.5 -56t-31 -69t-19.5 -76t-10.5 -85t-5 -88t-1 -92q0 -70 2 -122t10.5 -116t23.5 -109t41.5 -90.5t63.5 -74t92 -46t124 -17.5z" />
    <glyph glyph-name="uni041F" unicode="&#x41f;" horiz-adv-x="946" 
d="M803 0h-660v1208h43v-1165h574v1165h43v-1208z" />
    <glyph glyph-name="uni0420" unicode="&#x420;" horiz-adv-x="962" 
d="M186 0h-43v1208h455q146 0 204 -64t58 -192v-125q0 -128 -58 -191t-204 -63h-412v-573zM186 1165v-551h412q70 0 115 15t67 46.5t29.5 65.5t7.5 86v125q0 52 -7.5 86t-29.5 65.5t-67 46.5t-115 15h-412z" />
    <glyph glyph-name="uni0421" unicode="&#x421;" horiz-adv-x="929" 
d="M825 43v-43h-315q-79 0 -141 18t-104 46.5t-72.5 75.5t-47 92.5t-26 111.5t-12.5 119t-3 127t2.5 131.5t12.5 124.5t27 116.5t48 98t73 79.5t103.5 49.5t139.5 18.5h315v-43h-315q-54 0 -99.5 -10.5t-79.5 -28.5t-61 -47t-45 -59.5t-31.5 -73t-21 -80.5t-12 -89t-5.5 -92
t-1 -95q0 -55 1 -92t4.5 -87.5t10.5 -85.5t20 -76.5t31 -69t45 -55.5t61 -44.5t80.5 -26.5t102.5 -10h315z" />
    <glyph glyph-name="uni0422" unicode="&#x422;" horiz-adv-x="964" 
d="M504 -2h-43v1167h-441v43h924v-43h-440v-1167z" />
    <glyph glyph-name="uni0423" unicode="&#x423;" horiz-adv-x="768" 
d="M158 0h-66v43h66q52 0 92.5 18t67.5 52t41.5 61t29.5 66q36 114 43 139l-412 829h50l381 -770l243 770h45l-305 -968q-17 -49 -38 -87.5t-53 -75.5t-79 -57t-106 -20z" />
    <glyph glyph-name="uni0424" unicode="&#x424;" horiz-adv-x="970" 
d="M504 0h-43v131q-59 1 -106.5 9t-84.5 20t-65.5 32.5t-48.5 42t-34 54t-22 63.5t-12.5 74.5t-6 82.5t-1.5 93t1.5 93t6 82.5t12.5 74.5t22 63.5t34 54t48.5 42t65.5 32.5t84.5 20t106.5 9v135h43v-135q59 -1 107.5 -8.5t86 -19.5t66 -32t49 -42t35 -54.5t23 -63.5
t13 -74.5t6 -83t1.5 -93.5t-1.5 -93.5t-6 -83t-13 -74.5t-23 -63.5t-35 -54.5t-49 -42t-66 -32t-86 -19.5t-107.5 -8.5v-131zM461 174v856q-67 -2 -118 -13t-86.5 -27.5t-59.5 -47.5t-37.5 -60t-20.5 -79t-8.5 -91.5t-1.5 -109.5t1.5 -109.5t8.5 -91.5t20.5 -79t37.5 -60
t59.5 -47.5t86.5 -27.5t118 -13zM504 1030v-856q48 1 88 6t71.5 15.5t56.5 22t43 31.5t31.5 38.5t22 48t13.5 54.5t8 64t3.5 70t0.5 78t-0.5 78t-3.5 70t-8 64t-13.5 54.5t-22 48t-31.5 38.5t-43 31.5t-56.5 22t-71.5 15.5t-88 6z" />
    <glyph glyph-name="uni0425" unicode="&#x425;" 
d="M68 0h-52l385 604l-385 604h52l358 -563l358 563h52l-383 -604l383 -604h-52l-358 563z" />
    <glyph glyph-name="uni0426" unicode="&#x426;" horiz-adv-x="946" 
d="M860 0h-717v1208h43v-1165h574v1165h43v-1165h100v-205h-43v162z" />
    <glyph glyph-name="uni0427" unicode="&#x427;" horiz-adv-x="1003" 
d="M860 0h-43v494q-35 -58 -96 -91.5t-143 -33.5h-152q-131 0 -207 83t-76 197v559h43v-559q0 -40 13 -79.5t39 -76t75 -59t113 -22.5h152q64 0 112.5 22.5t75 59t39 76t12.5 79.5v559h43v-1208z" />
    <glyph glyph-name="uni0428" unicode="&#x428;" horiz-adv-x="1566" 
d="M1423 0h-1280v1208h43v-1165h574v1165h43v-1165h577v1165h43v-1208z" />
    <glyph glyph-name="uni0429" unicode="&#x429;" horiz-adv-x="1566" 
d="M1481 0h-1338v1208h43v-1165h578v1165h43v-1165h573v1165h43v-1165h101v-205h-43v162z" />
    <glyph glyph-name="uni042A" unicode="&#x42a;" horiz-adv-x="1011" 
d="M250 1208v-348h282q86 0 153 -24t108.5 -63t68.5 -95t37.5 -114t11.5 -126q0 -438 -383 -438h-59q-146 0 -204 64t-58 192v909h-174v43h217zM530 817h-280v-561q0 -52 7 -86t28.5 -65.5t66.5 -46.5t115 -15h63q84 0 145.5 23t97.5 59t57 89.5t27 106t5 117.5
q-1 61 -10 113t-32.5 102t-60 85.5t-95 57t-134.5 21.5z" />
    <glyph glyph-name="uni042B" unicode="&#x42b;" horiz-adv-x="1155" 
d="M145 1208v-348h283q86 0 153 -24t108.5 -63t68.5 -95t37.5 -114t11.5 -126q0 -438 -383 -438h-59q-146 0 -204.5 64t-58.5 192v952h43zM1012 0h-43v1208h43v-1208zM426 817h-281v-561q0 -52 7 -86t28.5 -65.5t66.5 -46.5t115 -15h64q84 0 145.5 23t97.5 59t57 89.5
t27 106t5 117.5q-1 61 -10 113t-32.5 102t-60 85.5t-95 57t-134.5 21.5z" />
    <glyph glyph-name="uni042C" unicode="&#x42c;" horiz-adv-x="972" 
d="M143 0v1208h43v-573h412q146 0 204 -63t58 -191v-125q0 -128 -58 -192t-204 -64h-455zM598 594h-412v-551h412q70 0 115 15t67 46.5t29.5 65.5t7.5 86v125q0 52 -7.5 86t-29.5 65.5t-67 46.5t-115 15z" />
    <glyph glyph-name="uni042D" unicode="&#x42d;" horiz-adv-x="962" 
d="M430 0h-307v43h307q70 0 125 16t92 41t63.5 66.5t41 82.5t22.5 100t10 107t2 115h-518v43h518q0 58 -2.5 103.5t-8.5 98.5t-17.5 94t-29 82.5t-44.5 71t-62.5 53.5t-84 36t-107.5 12h-307v43h307q78 0 139.5 -18.5t103.5 -49.5t73 -79.5t48 -98t27 -116.5t12.5 -124.5
t2.5 -131.5t-3 -127t-12.5 -119t-26 -111.5t-47 -92.5t-72.5 -75.5t-104 -46.5t-141 -18z" />
    <glyph glyph-name="uni042E" unicode="&#x42e;" horiz-adv-x="1568" 
d="M186 0h-43v1208h43v-571h482q1 72 4 124t13.5 115.5t27.5 108t47 89.5t72 72.5t103 44.5t138 17q79 0 141 -18t104 -46.5t72.5 -75.5t47 -92.5t26 -111.5t12.5 -119t3 -127t-2.5 -131.5t-12.5 -124.5t-27 -116.5t-48 -98t-73 -79.5t-103.5 -49.5t-139.5 -18.5
q-59 0 -108.5 11t-87.5 29.5t-69 47.5t-52.5 61t-37.5 74.5t-25.5 83.5t-15 91.5t-7.5 96t-2 99.5h-482v-594zM1073 43q69 0 124 17.5t92 46t63.5 74t41.5 90.5t23.5 109t10.5 116t2 122q0 54 -1 92t-5 88t-10.5 85t-19.5 76t-31 69t-45.5 56t-61.5 44.5t-80.5 26.5
t-102.5 10t-102.5 -10t-80.5 -26.5t-61 -44.5t-45 -55.5t-31 -69t-20 -76.5t-10.5 -85.5t-4.5 -87.5t-1 -92q0 -54 1 -95t5.5 -92t12 -89t21 -80.5t31.5 -73t45 -59.5t61 -47t79.5 -28.5t99.5 -10.5z" />
    <glyph glyph-name="uni042F" unicode="&#x42f;" horiz-adv-x="1003" 
d="M860 1208v-1208h-43v573h-203l-413 -573h-54l414 573h-155q-147 0 -205 63t-58 191v125q0 128 58.5 192t204.5 64h454zM406 614h411v551h-411q-70 0 -115.5 -15t-67.5 -46t-29.5 -65.5t-7.5 -86.5v-125q0 -52 7.5 -86.5t29.5 -65.5t67.5 -46t115.5 -15z" />
    <glyph glyph-name="uni0430" unicode="&#x430;" horiz-adv-x="831" 
d="M160 604h-43q0 128 58 192t204 64h102q146 0 204 -64t58 -192v-348q0 -128 -58 -192t-204 -64h-153q-82 0 -138 36.5t-79 90t-23 119.5q0 69 26 127.5t85 98.5t143 40h358v92q0 52 -7.5 86t-29.5 65.5t-67 46.5t-115 15h-102q-70 0 -115 -15t-67 -46.5t-29.5 -65.5
t-7.5 -86zM700 256v217h-358q-99 0 -154 -67.5t-57 -159.5q-2 -86 46.5 -144.5t152.5 -58.5h151q70 0 115 15t67 46.5t29.5 65.5t7.5 86z" />
    <glyph glyph-name="uni0431" unicode="&#x431;" horiz-adv-x="892" 
d="M563 1174v-44h-92q-88 -3 -150 -35.5t-94 -67.5t-52 -115.5t-24 -122.5t-10 -146q-1 -19 -2 -29h393q81 0 140.5 -46t87 -114.5t28.5 -148.5q0 -59 -16 -113t-46 -97t-78.5 -69t-108.5 -26h-97q-64 0 -115.5 17t-87 45t-62 72.5t-41.5 90t-24.5 107.5t-13 116t-4.5 123
q0 72 2 122t10 116t23 111.5t42.5 94.5t66.5 79.5t97 52.5t132 27h96zM532 573h-393q2 -67 5.5 -115t12.5 -107.5t22 -100.5t35.5 -83t53 -67t74.5 -41t100 -16h95q98 0 151 77t53 185q-2 108 -57 188t-152 80z" />
    <glyph glyph-name="uni0432" unicode="&#x432;" horiz-adv-x="952" 
d="M578 0h-435v860h435q138 0 200 -48t62 -165q0 -89 -27.5 -143.5t-95.5 -81.5q70 -21 96.5 -70t26.5 -147q0 -104 -70 -154.5t-192 -50.5zM186 817v-375h392q70 0 115 14t67 44t29.5 63.5t7.5 85.5q0 93 -47.5 130.5t-171.5 37.5h-392zM186 399v-356h392q100 0 159.5 41.5
t59.5 120.5q0 55 -7 88t-30 59t-66.5 36.5t-115.5 10.5h-392z" />
    <glyph glyph-name="uni0433" unicode="&#x433;" horiz-adv-x="626" 
d="M145 0h-43v616q0 117 58 180.5t198 63.5h242v-43h-240q-56 0 -96.5 -12.5t-63 -31.5t-35.5 -48t-16.5 -54.5t-3.5 -58.5v-612z" />
    <glyph glyph-name="uni0434" unicode="&#x434;" horiz-adv-x="849" 
d="M63 -162h-43v205h103q213 321 272 817h279v-817h147v-205h-43v162h-715v-162zM172 43h459v774h-199q-59 -451 -260 -774z" />
    <glyph glyph-name="uni0435" unicode="&#x435;" horiz-adv-x="837" 
d="M553 473h-420v-211q0 -70 15 -115t46.5 -67t65.5 -29.5t86 -7.5h135q70 0 115 15t67 46.5t29.5 65.5t7.5 86h43q0 -128 -58 -192t-204 -64h-135q-128 0 -192 58t-64 204v340q0 146 63.5 202t192.5 56h213q48 0 82.5 -11t53.5 -27.5t30 -43.5t14 -50.5t4 -57.5
q0 -43 -6.5 -73.5t-24.5 -61t-58 -46.5t-101 -16zM133 602v-90h420q40 0 68 9.5t43 23t23.5 36.5t10.5 42t2 47q0 35 -3.5 55.5t-16.5 44.5t-43.5 35.5t-79.5 11.5h-211q-52 0 -86 -7t-65.5 -28t-46.5 -65.5t-15 -114.5z" />
    <glyph glyph-name="uni0436" unicode="&#x436;" horiz-adv-x="808" 
d="M70 0h-54l316 459l-295 401h53l293 -399v399h43v-399l293 399h53l-295 -401l316 -459h-54l-313 457v-457h-43v457z" />
    <glyph glyph-name="uni0437" unicode="&#x437;" horiz-adv-x="919" 
d="M94 256v33h43v-33q0 -52 7.5 -86t29.5 -65.5t67 -46.5t115 -15h193q70 0 115.5 15.5t67 47t29 66t7.5 86.5q0 63 -12.5 101.5t-48.5 60.5h-398v43h391q68 32 68 141q0 52 -7.5 86t-29.5 65.5t-67 46.5t-115 15h-193q-70 0 -115 -15t-67 -46.5t-29.5 -65.5t-7.5 -86v-33
h-43v33q0 128 58 192t204 64h193q146 0 204 -64t58 -192q0 -125 -63 -166q63 -52 63 -180q0 -129 -58 -193.5t-204 -64.5h-193q-146 0 -204 64t-58 192z" />
    <glyph glyph-name="uni0438" unicode="&#x438;" horiz-adv-x="1005" 
d="M190 0h-47v860h43v-794l627 794h49v-860h-43v799z" />
    <glyph glyph-name="uni0439" unicode="&#x439;" horiz-adv-x="1005" 
d="M352 1059h47q8 -41 22.5 -51.5t70.5 -10.5h38q54 0 67 10.5t21 51.5h48q-1 -4 -2 -11q-5 -28 -9 -40.5t-17 -27.5t-39 -20.5t-69 -5.5h-38q-46 0 -73.5 6t-41 22.5t-17.5 31.5t-8 45zM190 0h-47v860h43v-794l627 794h49v-860h-43v799z" />
    <glyph glyph-name="uni043A" unicode="&#x43a;" horiz-adv-x="751" 
d="M186 0h-43v860h43v-422l473 422h66l-428 -381l430 -479h-57l-406 449l-78 -68v-381z" />
    <glyph glyph-name="uni043B" unicode="&#x43b;" horiz-adv-x="921" 
d="M53 0h-30v43h30q65 0 120.5 52.5t94 133.5t70 194t50 217.5t32.5 219.5h358v-860h-43v817h-276q-12 -98 -28.5 -186.5t-40 -184.5t-56 -173t-73 -140.5t-94 -98t-114.5 -34.5z" />
    <glyph glyph-name="uni043C" unicode="&#x43c;" horiz-adv-x="1058" 
d="M186 0h-43v860h58l329 -805l330 805h55v-860h-43v782l-317 -782h-49l-320 778v-778z" />
    <glyph glyph-name="uni043D" unicode="&#x43d;" horiz-adv-x="1003" 
d="M186 0h-43v860h43v-395h631v395h43v-860h-43v422h-631v-422z" />
    <glyph glyph-name="uni043E" unicode="&#x43e;" horiz-adv-x="868" 
d="M483 2h-98q-49 0 -89.5 8t-70.5 18.5t-52.5 34t-37.5 40.5t-25.5 52.5t-15.5 55.5t-7.5 65t-2.5 65v69v30q0 45 0.5 71t3.5 67.5t8 66.5t15.5 58.5t25.5 53.5t38 42.5t52.5 34.5t69 20t88.5 8h98q49 0 88.5 -8t69 -20t52.5 -34.5t38 -42.5t25.5 -53.5t15.5 -58.5t8 -66.5
t3.5 -67.5t0.5 -71q0 -160 -8 -214q-22 -145 -128 -194q-64 -30 -165 -30zM385 45h98q55 0 97 10t69 28t46 43t27.5 55.5t14 65.5t5 72t-0.5 76v45v8q0 75 -2 113t-15 96.5t-38.5 87t-76.5 51.5t-126 23h-98q-75 0 -126 -23t-76.5 -51.5t-38.5 -87t-15 -96.5t-2 -113v-4v-4
q0 -148 3 -177q12 -133 91 -181q59 -37 164 -37z" />
    <glyph glyph-name="uni043F" unicode="&#x43f;" horiz-adv-x="944" 
d="M186 0h-43v860h658v-860h-43v817h-572v-817z" />
    <glyph glyph-name="uni0440" unicode="&#x440;" horiz-adv-x="858" 
d="M147 -346h-43v952q0 128 58 191t205 63h131q146 0 204 -63t58 -191v-350q0 -128 -58 -192t-204 -64h-351v-346zM147 606v-563h351q70 0 115 15t67 46.5t29.5 65.5t7.5 86v350q0 52 -7.5 86t-29.5 65.5t-67 46.5t-115 15h-131q-70 0 -115.5 -15t-67.5 -46t-29.5 -65.5
t-7.5 -86.5z" />
    <glyph glyph-name="uni0441" unicode="&#x441;" horiz-adv-x="708" 
d="M627 43v-43h-181q-94 0 -162.5 26.5t-107 68t-60.5 103.5t-28 120.5t-4 132.5q2 68 11.5 123.5t34 110.5t63.5 92t103 60t148 23h183v-43h-183q-74 0 -130 -21t-89 -53.5t-54 -82.5t-29 -98.5t-11 -110.5q-3 -69 0.5 -120.5t21.5 -109t51 -94t94 -60.5t146 -24h183z" />
    <glyph glyph-name="uni0442" unicode="&#x442;" horiz-adv-x="761" 
d="M399 0h-43v817h-336v43h715v-43h-336v-817z" />
    <glyph glyph-name="uni0443" unicode="&#x443;" horiz-adv-x="880" 
d="M102 -92h43q0 -52 7.5 -86.5t29.5 -65.5t67.5 -46t115.5 -15h94q256 0 256 199v188q-57 -80 -219 -80h-131q-146 0 -204.5 64t-58.5 192v604h43v-604q0 -51 8 -86t30.5 -66t68 -46t115.5 -15h129q60 0 101.5 11.5t64.5 29t35 48t15 57t3 67.5v604h43v-966
q0 -244 -297 -244h-96q-146 0 -204.5 64t-58.5 192z" />
    <glyph glyph-name="uni0444" unicode="&#x444;" horiz-adv-x="937" 
d="M494 0h-43v72h-74q-115 0 -198 75.5t-83 206.5v152q0 131 83 206.5t198 75.5h74v72h43v-72h65q115 0 198 -75.5t83 -206.5v-152q0 -131 -83 -206.5t-198 -75.5h-65v-72zM377 115h74v630h-74q-40 0 -79.5 -12.5t-76.5 -39t-59.5 -75t-22.5 -112.5v-152q0 -64 22.5 -112.5
t59.5 -75t76.5 -39t79.5 -12.5zM494 745v-630h65q40 0 79.5 12.5t76.5 39t59.5 75t22.5 112.5v152q0 64 -22.5 112.5t-59.5 75t-76.5 39t-79.5 12.5h-65z" />
    <glyph glyph-name="uni0445" unicode="&#x445;" horiz-adv-x="696" 
d="M74 0h-54l302 430l-302 430h54l274 -391l275 391h53l-301 -430l301 -430h-53l-275 391z" />
    <glyph glyph-name="uni0446" unicode="&#x446;" horiz-adv-x="944" 
d="M858 0h-715v860h43v-817h572v817h43v-817h100v-205h-43v162z" />
    <glyph glyph-name="uni0447" unicode="&#x447;" horiz-adv-x="942" 
d="M799 0h-43v309q-35 -58 -96.5 -91.5t-143.5 -33.5h-90q-131 0 -207 83t-76 198v395h43v-395q0 -40 13 -79.5t39 -76.5t75 -59.5t113 -22.5h90q64 0 113 22.5t75 59.5t39 76.5t13 79.5v395h43v-860z" />
    <glyph glyph-name="uni0448" unicode="&#x448;" horiz-adv-x="1587" 
d="M1444 0h-1301v860h43v-817h574v817h43v-817h598v817h43v-860z" />
    <glyph glyph-name="uni0449" unicode="&#x449;" horiz-adv-x="1566" 
d="M1481 0h-1338v860h43v-817h578v817h43v-817h573v817h43v-817h101v-205h-43v162z" />
    <glyph glyph-name="uni044A" unicode="&#x44a;" horiz-adv-x="995" 
d="M231 860v-311h431q225 0 225 -279q0 -53 -10.5 -98t-34 -85.5t-69 -63.5t-109.5 -23h-213q-146 0 -204.5 64t-58.5 192v561h-174v43h217zM662 506h-431v-250q0 -41 4 -70t17 -58t36.5 -46t64 -28t96.5 -11h215q180 0 180 227q0 236 -182 236z" />
    <glyph glyph-name="uni044B" unicode="&#x44b;" horiz-adv-x="1097" 
d="M145 860v-311h430q65 0 111.5 -23.5t70.5 -65.5t34 -88t10 -102q0 -53 -10.5 -98t-34 -85.5t-69 -63.5t-109.5 -23h-213q-146 0 -204.5 64t-58.5 192v604h43zM954 0h-43v860h43v-860zM575 506h-430v-250q0 -52 7 -86t28.5 -65.5t66.5 -46.5t115 -15h216q180 0 180 227
q0 236 -183 236z" />
    <glyph glyph-name="uni044C" unicode="&#x44c;" horiz-adv-x="903" 
d="M145 860v-311h430q65 0 111.5 -23.5t70.5 -65.5t34 -88t10 -102q0 -53 -10.5 -98t-34 -85.5t-69 -63.5t-109.5 -23h-213q-146 0 -204.5 64t-58.5 192v604h43zM575 506h-430v-250q0 -52 7 -86t28.5 -65.5t66.5 -46.5t115 -15h216q180 0 180 227q0 236 -183 236z" />
    <glyph glyph-name="uni044D" unicode="&#x44d;" horiz-adv-x="864" 
d="M457 6h-355v43h355q65 0 113 14.5t74.5 40t43.5 60.5t21 76t6.5 87t-0.5 93h-514v43h514q0 35 -0.5 55.5t-2 52.5t-5 51.5t-10 46.5t-16.5 43.5t-23.5 36.5t-33 31.5t-43.5 22.5t-55.5 15.5t-68.5 4.5h-355v43h355q49 0 88.5 -8t69 -20t52.5 -34.5t38 -42.5t25.5 -53.5
t15.5 -58.5t8 -66.5t3.5 -67.5t0.5 -71q0 -160 -8 -214q-22 -145 -128 -194q-64 -30 -165 -30z" />
    <glyph glyph-name="uni044E" unicode="&#x44e;" horiz-adv-x="1337" 
d="M184 0h-43v860h43v-397h332q0 53 1.5 87.5t8 81t18 76.5t33.5 63t53.5 51.5t79 31t107.5 12.5h98q86 0 145.5 -25.5t89.5 -59.5t46 -98.5t18.5 -110.5t2.5 -128v-28q0 -83 -2 -125t-17 -106.5t-45 -96.5t-90 -57t-148 -25h-98q-87 0 -146.5 24.5t-89.5 56t-45.5 95.5
t-17.5 105.5t-2 124.5v8h-332v-420zM817 49h98q55 0 97 10t69.5 28t46.5 43.5t27.5 56t14 65.5t5 72.5t-0.5 76.5v43v6q0 75 -2 113.5t-15 97t-38.5 87.5t-77 52t-126.5 23h-98q-42 0 -76.5 -7t-60 -17.5t-45 -30.5t-32.5 -37t-21.5 -47.5t-13 -50.5t-6.5 -58t-2.5 -58.5
t-0.5 -62.5v-8q0 -149 3 -179q12 -133 91 -181q60 -37 164 -37z" />
    <glyph glyph-name="uni044F" unicode="&#x44f;" horiz-adv-x="944" 
d="M254 0h-53l223 311h-96q-65 0 -111.5 23.5t-70.5 65.5t-34 88t-10 102q0 53 10.5 98t34.5 85.5t69.5 63.5t109.5 23h475v-860h-43v311h-281zM328 354h430v463h-432q-181 0 -181 -227q0 -236 183 -236z" />
    <glyph glyph-name="uni0451" unicode="&#x451;" horiz-adv-x="837" 
d="M324 952q-24 0 -34 19.5t0 39t34 19.5q23 0 32.5 -19.5t0 -39t-32.5 -19.5zM496 952q-24 0 -34 19.5t0 39t34 19.5q23 0 32.5 -19.5t0 -39t-32.5 -19.5zM549 473h-420v-211q0 -70 15 -115t46.5 -67t65.5 -29.5t86 -7.5h135q70 0 115 15t67 46.5t29.5 65.5t7.5 86h43
q0 -128 -58 -192t-204 -64h-135q-128 0 -192 58t-64 204v340q0 146 63.5 202t192.5 56h213q48 0 82.5 -11t53.5 -27.5t30 -43.5t14 -50.5t4 -57.5q0 -43 -6.5 -73.5t-24.5 -61t-58 -46.5t-101 -16zM129 602v-90h420q40 0 68 9.5t43 23t23.5 36.5t10.5 42t2 47
q0 35 -3.5 55.5t-16.5 44.5t-43.5 35.5t-79.5 11.5h-211q-52 0 -86 -7t-65.5 -28t-46.5 -65.5t-15 -114.5z" />
    <glyph glyph-name="uni0452" unicode="&#x452;" horiz-adv-x="849" 
d="M129 -2h-43v819h-57v43h57v164h43v-164h289v-43h-289v-239q60 79 217 79h131q146 0 204 -64t58 -192v-493q0 -128 -58 -192t-204 -64v43q70 0 115 15t67 46.5t29.5 65.5t7.5 86v493q0 52 -7.5 86t-29.5 65.5t-67 46.5t-115 15h-131q-80 0 -128 -21.5t-66.5 -54.5
t-22.5 -85v-455z" />
    <glyph glyph-name="uni0453" unicode="&#x453;" horiz-adv-x="632" 
d="M414 952h-45l55 84h70zM145 0h-43v616q0 117 58 180.5t198 63.5h242v-43h-240q-56 0 -96.5 -12.5t-63 -31.5t-35.5 -48t-16.5 -54.5t-3.5 -58.5v-612z" />
    <glyph glyph-name="uni0454" unicode="&#x454;" horiz-adv-x="864" 
d="M664 420h-514q-3 -47 -0.5 -93t6.5 -87t21 -76t43.5 -60.5t74.5 -40t113 -14.5h354v-43h-354q-63 0 -112 13t-80.5 30.5t-53.5 54t-33 62.5t-16.5 79t-6 81.5t-0.5 89.5v28q0 82 2.5 128t18.5 110.5t46 98.5t89.5 59.5t145.5 25.5h354v-43h-354q-37 0 -68.5 -4.5
t-55.5 -15.5t-43.5 -22.5t-33 -31.5t-23.5 -36.5t-16.5 -43.5t-10 -46.5t-5 -51.5t-2 -52.5t-0.5 -55.5h514v-43z" />
    <glyph glyph-name="uni0455" unicode="&#x455;" horiz-adv-x="802" 
d="M485 0h-368v43h368q93 0 144 54t51 130q0 84 -46 141.5t-145 57.5h-176q-118 0 -179.5 60.5t-61.5 152.5q0 97 57.5 159t177.5 62h373v-43h-371q-101 0 -146.5 -49t-45.5 -129q0 -83 49.5 -126.5t146.5 -43.5h179q118 0 175.5 -70.5t57.5 -171.5q0 -94 -61.5 -160.5
t-178.5 -66.5z" />
    <glyph glyph-name="uni0456" unicode="&#x456;" horiz-adv-x="329" 
d="M164 1128q-24 0 -34 19.5t0 39t34 19.5q23 0 32.5 -19.5t0 -39t-32.5 -19.5zM186 0h-43v860h43v-860z" />
    <glyph glyph-name="uni0457" unicode="&#x457;" horiz-adv-x="329" 
d="M78 952q-24 0 -34 19.5t0 39t34 19.5q23 0 32.5 -19.5t0 -39t-32.5 -19.5zM250 952q-24 0 -34 19.5t0 39t34 19.5q23 0 32.5 -19.5t0 -39t-32.5 -19.5zM186 0h-43v860h43v-860z" />
    <glyph glyph-name="uni0458" unicode="&#x458;" horiz-adv-x="282" 
d="M119 1128q-24 0 -34 19.5t0 39t34 19.5q23 0 32.5 -19.5t0 -39t-32.5 -19.5zM-123 -348v43q70 0 115 15t67 46.5t29.5 65.5t7.5 86v952h43v-952q0 -128 -58 -192t-204 -64z" />
    <glyph glyph-name="uni0459" unicode="&#x459;" horiz-adv-x="1452" 
d="M90 0h-65v43h65q51 0 94 20.5t68 48.5t43.5 64t26 60.5t10.5 44.5l98 579h270v-311h430q65 0 111.5 -23.5t70.5 -65.5t34 -88t10 -102q0 -53 -10.5 -98t-34 -85.5t-69 -63.5t-109.5 -23h-213q-146 0 -204.5 64t-58.5 192v561h-192l-90 -536q-8 -50 -27.5 -96.5
t-52.5 -89.5t-86 -69t-119 -26zM1130 506h-430v-250q0 -41 4 -70t17 -58t36.5 -46t64 -28t96.5 -11h215q180 0 180 227q0 236 -183 236z" />
    <glyph glyph-name="uni045A" unicode="&#x45a;" horiz-adv-x="1470" 
d="M186 0h-43v860h43v-311h478v311h43v-311h430q225 0 225 -279q0 -53 -10.5 -98t-34 -85.5t-69 -63.5t-109.5 -23h-213q-146 0 -204 64t-58 192v250h-478v-506zM1137 506h-430v-250q0 -52 7 -86t28.5 -65.5t66.5 -46.5t115 -15h215q180 0 180 227q0 236 -182 236z" />
    <glyph glyph-name="uni045B" unicode="&#x45b;" horiz-adv-x="841" 
d="M117 0h-43v817h-58v43h58v164h43v-164h307v-43h-307v-242q61 80 217 80h131q146 0 204 -64t58 -192v-399h-43v399q0 52 -7.5 86t-29.5 65.5t-67 46.5t-115 15h-131q-80 0 -128 -21.5t-66.5 -54.5t-22.5 -85v-451z" />
    <glyph glyph-name="uni045C" unicode="&#x45c;" horiz-adv-x="759" 
d="M393 952h-45l55 84h70zM186 0h-43v860h43v-422l473 422h66l-428 -381l430 -479h-57l-406 449l-78 -68v-381z" />
    <glyph glyph-name="uni045E" unicode="&#x45e;" horiz-adv-x="880" 
d="M285 1057h47q8 -41 22.5 -51.5t69.5 -10.5h39q54 0 67 10.5t21 51.5h47q-10 -55 -19 -69q-23 -36 -116 -36h-39q-46 0 -73 6t-40.5 22.5t-17.5 31t-8 45.5zM102 -92h43q0 -52 7.5 -86.5t29.5 -65.5t67.5 -46t115.5 -15h94q256 0 256 199v188q-57 -80 -219 -80h-131
q-146 0 -204.5 64t-58.5 192v604h43v-604q0 -51 8 -86t30.5 -66t68 -46t115.5 -15h129q60 0 101.5 11.5t64.5 29t35 48t15 57t3 67.5v604h43v-966q0 -244 -297 -244h-96q-146 0 -204.5 64t-58.5 192z" />
    <glyph glyph-name="uni045F" unicode="&#x45f;" horiz-adv-x="942" 
d="M461 0h-318v860h43v-817h570v817h43v-860h-295v-92h-43v92z" />
    <glyph glyph-name="uni0490" unicode="&#x490;" horiz-adv-x="768" 
d="M186 0h-43v928q0 114 76 197t207 83h268v82h43v-125h-311q-64 0 -113 -22.5t-75 -59t-39 -76t-13 -79.5v-928z" />
    <glyph glyph-name="uni0491" unicode="&#x491;" horiz-adv-x="638" 
d="M145 0h-43v616q0 117 58 180.5t198 63.5h199v92h43v-135h-240q-56 0 -96.5 -12.5t-63 -31.5t-35.5 -48t-16.5 -54.5t-3.5 -58.5v-612z" />
    <glyph glyph-name="Wgrave" unicode="&#x1e80;" horiz-adv-x="1613" 
d="M866 1290h-45l-80 84h70zM455 0h-62l-379 1208h45l365 -1163l356 1163h47l365 -1163l356 1163h45l-370 -1208h-62l-356 1139z" />
    <glyph glyph-name="wgrave" unicode="&#x1e81;" horiz-adv-x="1484" 
d="M805 952h-45l-80 84h70zM102 256v604h43v-604q0 -51 8 -86t30.5 -66t68 -46t115.5 -15h135q60 0 101.5 11.5t64.5 29t35 48t15 57t3 67.5v604h43v-604q0 -51 8 -86t30 -66t67.5 -46t115.5 -15h135q60 0 101.5 11.5t64.5 29t35 48t15 57t3 67.5v604h43v-604
q0 -134 -59.5 -195t-202.5 -61h-137q-189 0 -240 121q-25 -62 -83 -91.5t-158 -29.5h-137q-146 0 -204.5 64t-58.5 192z" />
    <glyph glyph-name="Wacute" unicode="&#x1e82;" horiz-adv-x="1619" 
d="M793 1290h-45l55 84h69zM461 0h-62l-379 1208h46l364 -1163l356 1163h48l364 -1163l356 1163h45l-370 -1208h-62l-356 1139z" />
    <glyph glyph-name="wacute" unicode="&#x1e83;" horiz-adv-x="1484" 
d="M725 952h-45l55 84h70zM102 256v604h43v-604q0 -51 8 -86t30.5 -66t68 -46t115.5 -15h135q60 0 101.5 11.5t64.5 29t35 48t15 57t3 67.5v604h43v-604q0 -51 8 -86t30 -66t67.5 -46t115.5 -15h135q60 0 101.5 11.5t64.5 29t35 48t15 57t3 67.5v604h43v-604
q0 -134 -59.5 -195t-202.5 -61h-137q-189 0 -240 121q-25 -62 -83 -91.5t-158 -29.5h-137q-146 0 -204.5 64t-58.5 192z" />
    <glyph glyph-name="Wdieresis" unicode="&#x1e84;" horiz-adv-x="1619" 
d="M725 1290q-24 0 -34 19.5t0 39t34 19.5q23 0 32.5 -19.5t0 -39t-32.5 -19.5zM897 1290q-24 0 -34 19.5t0 39t34 19.5q23 0 32.5 -19.5t0 -39t-32.5 -19.5zM461 0h-62l-379 1208h46l364 -1163l356 1163h48l364 -1163l356 1163h45l-370 -1208h-62l-356 1139z" />
    <glyph glyph-name="wdieresis" unicode="&#x1e85;" horiz-adv-x="1484" 
d="M657 952q-24 0 -34 19.5t0 39t34 19.5q23 0 32.5 -19.5t0 -39t-32.5 -19.5zM829 952q-24 0 -34 19.5t0 39t34 19.5q23 0 32.5 -19.5t0 -39t-32.5 -19.5zM102 256v604h43v-604q0 -51 8 -86t30.5 -66t68 -46t115.5 -15h135q60 0 101.5 11.5t64.5 29t35 48t15 57t3 67.5v604
h43v-604q0 -51 8 -86t30 -66t67.5 -46t115.5 -15h135q60 0 101.5 11.5t64.5 29t35 48t15 57t3 67.5v604h43v-604q0 -134 -59.5 -195t-202.5 -61h-137q-189 0 -240 121q-25 -62 -83 -91.5t-158 -29.5h-137q-146 0 -204.5 64t-58.5 192z" />
    <glyph glyph-name="endash" unicode="&#x2013;" horiz-adv-x="700" 
d="M680 582h-660v43h660v-43z" />
    <glyph glyph-name="emdash" unicode="&#x2014;" horiz-adv-x="1071" 
d="M1051 582h-1031v43h1031v-43z" />
    <glyph glyph-name="quoteleft" unicode="&#x2018;" horiz-adv-x="94" 
d="M43 1077h-35l12 131h54z" />
    <glyph glyph-name="quoteright" unicode="&#x2019;" horiz-adv-x="96" 
d="M63 1077h-53l31 131h35z" />
    <glyph glyph-name="quotesinglbase" unicode="&#x201a;" horiz-adv-x="106" 
d="M55 -72h-35l13 131h53z" />
    <glyph glyph-name="quotedblleft" unicode="&#x201c;" horiz-adv-x="251" 
d="M219 1077h-53l31 131h34zM63 1077h-53l31 131h35z" />
    <glyph glyph-name="quotedblright" unicode="&#x201d;" horiz-adv-x="276" 
d="M225 1077h-35l13 131h53zM53 1077h-35l13 131h53z" />
    <glyph glyph-name="quotedblbase" unicode="&#x201e;" horiz-adv-x="278" 
d="M55 -72h-35l13 131h53zM227 -72h-34l12 131h53z" />
    <glyph glyph-name="dagger" unicode="&#x2020;" horiz-adv-x="587" 
d="M272 1208h43v-256h248v-43h-248v-909h-43v909h-249v43h249v256z" />
    <glyph glyph-name="daggerdbl" unicode="&#x2021;" horiz-adv-x="532" 
d="M246 1208h43v-305h243v-43h-243v-516h243v-43h-243v-301h-43v301h-246v43h246v516h-246v43h246v305z" />
    <glyph glyph-name="bullet" unicode="&#x2022;" horiz-adv-x="180" 
d="M88 688q-26 0 -43 13.5t-21 33t0.5 39.5t22 33.5t43.5 13.5q43 0 60.5 -33.5t-1 -66.5t-61.5 -33z" />
    <glyph glyph-name="ellipsis" unicode="&#x2026;" horiz-adv-x="350" 
d="M59 0q-24 0 -34 19.5t0 39t34 19.5q23 0 32.5 -19.5t0 -39t-32.5 -19.5zM176 0q-24 0 -34 19.5t0 39t34 19.5q23 0 32.5 -19.5t0 -39t-32.5 -19.5zM293 0q-24 0 -34 19.5t0 39t34 19.5q23 0 32.5 -19.5t0 -39t-32.5 -19.5z" />
    <glyph glyph-name="perthousand" unicode="&#x2030;" horiz-adv-x="1921" 
d="M90 825v129q0 128 58 192t204 64t203.5 -63.5t62.5 -192.5v-129q-5 -129 -62.5 -192.5t-203.5 -63.5t-204 64t-58 192zM444 0h-47l465 1208h47zM133 954v-129q0 -52 7.5 -86t29.5 -65.5t67 -46.5t115 -15t115 15t67 46.5t30 65t11 86.5v129q-2 52 -10 86t-30 65.5
t-67.5 46.5t-115.5 15t-115 -15t-67 -46.5t-29.5 -65.5t-7.5 -86zM705 256v129q0 128 58 192t204 64t203.5 -63.5t62.5 -192.5v-129q-5 -129 -62.5 -192.5t-203.5 -63.5t-204 64t-58 192zM1298 256v129q0 128 58.5 192t204.5 64t203.5 -63.5t62.5 -192.5v-129
q-5 -129 -62.5 -192.5t-203.5 -63.5t-204.5 64t-58.5 192zM748 385v-129q0 -52 7.5 -86t29.5 -65.5t67 -46.5t115 -15t115 15t67 46.5t30 65t11 86.5v129q-2 52 -10 86t-30 65.5t-67.5 46.5t-115.5 15t-115 -15t-67 -46.5t-29.5 -65.5t-7.5 -86zM1341 385v-129
q0 -52 7.5 -86.5t29.5 -65.5t67.5 -46t115.5 -15t115 15t67 46.5t30 65t11 86.5v129q-2 52 -10 86t-30 65.5t-67.5 46.5t-115.5 15t-115.5 -15t-67.5 -46t-29.5 -65.5t-7.5 -86.5z" />
    <glyph glyph-name="guilsinglleft" unicode="&#x2039;" horiz-adv-x="593" 
d="M471 0l-430 432l430 432v-61l-371 -371l371 -371v-61z" />
    <glyph glyph-name="guilsinglright" unicode="&#x203a;" horiz-adv-x="593" 
d="M553 432l-430 -432v61l371 371l-371 371v61z" />
    <glyph glyph-name="fraction" unicode="&#x2044;" horiz-adv-x="577" 
d="M76 0h-47l465 1208h47z" />
    <glyph glyph-name="franc" unicode="&#x20a3;" horiz-adv-x="894" 
d="M137 0h-43v219h-63v43h63v690q0 128 58 192t204 64h453v-43h-453q-70 0 -115 -15t-67 -46.5t-29.5 -65.5t-7.5 -86v-338h670v-41h-670v-311h434v-43h-434v-219z" />
    <glyph glyph-name="lira" unicode="&#x20a4;" horiz-adv-x="796" 
d="M760 -4h-697v43q113 43 113 180v84h-113v43h113v193h-113v43h113v385q0 117 58 179t198 62h250v-43h-252q-68 0 -112.5 -17t-64.5 -49t-27 -63t-7 -73v-381h328v-43h-328v-193h328v-43h-328v-100q-6 -108 -74 -164h615v-43z" />
    <glyph glyph-name="peseta" unicode="&#x20a7;" horiz-adv-x="1601" 
d="M186 0h-43v1208h455q146 0 204 -64t58 -192v-125q0 -128 -58 -191t-204 -63h-412v-573zM186 1165v-551h412q70 0 115 15t67 46.5t29.5 65.5t7.5 86v125q0 52 -7.5 86t-29.5 65.5t-67 46.5t-115 15h-412zM1540 0h-240q-74 0 -120.5 13t-73 43.5t-36 72.5t-9.5 109v581h-57
v43h57v162h43v-162h307v-43h-307v-581q0 -58 6.5 -91t27 -58.5t59.5 -35.5t103 -10h240v-43z" />
    <glyph glyph-name="Euro" unicode="&#x20ac;" horiz-adv-x="958" 
d="M131 365h-72v43h66q-8 68 -8 210q0 48 4 142h-62v43h66q7 73 21 129t42.5 110t71 89t109 56.5t153.5 20.5h41q129 -3 188.5 -69t59.5 -176h-43q0 84 -49 141.5t-166 60.5h-31q-77 0 -136 -19t-96.5 -50t-62.5 -79t-37 -98.5t-18 -115.5h573v-43h-577q-2 -45 -2 -142
q0 -142 8 -210h571v-43h-565q9 -57 24.5 -103t42 -88t63.5 -70t90.5 -44.5t121.5 -16.5h41q58 3 100 21.5t64 48.5t31.5 62.5t9.5 70.5h43q0 -112 -59 -177.5t-189 -68.5h-37q-97 -1 -169.5 26t-117.5 79t-70.5 115t-37.5 145z" />
    <glyph glyph-name="uni2113" unicode="&#x2113;" horiz-adv-x="653" 
d="M88 238v264q-20 -18 -59 -49v55q18 13 59 49v401q0 120 60.5 184t142.5 64q90 0 139 -70.5t8 -185.5q-40 -110 -140 -235t-167 -176v-301q0 -195 197 -195q41 0 72 7t62.5 26.5t48.5 61t17 102.5h37q0 -71 -19.5 -120t-54.5 -74t-74 -35.5t-89 -10.5q-112 0 -176 58.5
t-64 179.5zM131 958v-364q47 37 136 148.5t128 205.5q39 96 1 156.5t-109 60.5q-65 0 -112 -53.5t-44 -153.5z" />
    <glyph glyph-name="trademark" unicode="&#x2122;" horiz-adv-x="1282" 
d="M289 582h-43v583h-205v43h453v-43h-205v-583zM715 582h-43v626h49l231 -569l234 569h55v-626h-43v548l-221 -544h-49l-213 518v-522z" />
    <glyph glyph-name="estimated" unicode="&#x212e;" horiz-adv-x="858" 
d="M188 471v-375q48 -55 170 -55h136q70 0 115 15t67 46.5t29.5 65.5t7.5 86h43q0 -128 -58 -192t-204 -64h-136q-128 0 -192 58t-64 204v340q0 146 63.5 202t192.5 56h213q48 0 82.5 -11t54 -27.5t30.5 -43.5t14 -50.5t4 -57.5q0 -43 -6.5 -73.5t-25 -61t-58.5 -46.5
t-101 -16h-377zM188 764v-254h377q70 0 107 29v252q-30 24 -103 24h-211q-63 0 -103 -10t-67 -41z" />
    <glyph glyph-name="partialdiff" unicode="&#x2202;" horiz-adv-x="946" 
d="M821 629q-3 -67 -10 -125.5t-21.5 -125.5t-36 -121.5t-56 -105.5t-78.5 -84.5t-106.5 -52t-137.5 -14.5q-119 6 -185.5 94.5t-64.5 210.5q1 92 23 167.5t58.5 126.5t86 85.5t102.5 50t109 15.5q84 0 156.5 -33.5t113.5 -91.5q7 108 -5 197.5t-37 147.5t-59.5 98t-72 57.5
t-76.5 17.5q-58 0 -104 -38t-58 -101h-40q9 78 71.5 130t141.5 52q58 0 109.5 -30t95 -92.5t66 -174.5t15.5 -260zM768 547q-33 72 -106 113.5t-160 41.5q-49 0 -95.5 -14t-89 -45t-74 -76.5t-51 -112.5t-20.5 -149q-2 -106 51.5 -180.5t153.5 -81.5q165 -11 269.5 117
t121.5 387z" />
    <glyph glyph-name="product" unicode="&#x220f;" horiz-adv-x="983" 
d="M176 -346h-43v928q0 114 76 197t207 83h151q131 0 207 -83t76 -197v-928h-43v928q0 40 -13 79.5t-39 76t-75 59t-113 22.5h-151q-64 0 -113 -22.5t-75 -59t-39 -76t-13 -79.5v-928z" />
    <glyph glyph-name="summation" unicode="&#x2211;" horiz-adv-x="864" 
d="M526 651l-424 516v43h660v-43h-604l422 -514l-426 -610h608v-43h-660v43z" />
    <glyph glyph-name="minus" unicode="&#x2212;" horiz-adv-x="700" 
d="M680 582h-660v43h660v-43z" />
    <glyph glyph-name="uni2215" unicode="&#x2215;" horiz-adv-x="569" 
d="M74 0h-47l465 1208h47z" />
    <glyph glyph-name="radical" unicode="&#x221a;" horiz-adv-x="892" 
d="M403 0h-47l-235 614h-74v29h107l227 -582l440 1147h47z" />
    <glyph glyph-name="infinity" unicode="&#x221e;" horiz-adv-x="1392" 
d="M707 416q-49 -125 -236 -125h-123q-128 0 -192 58t-64 204v45q0 146 64 204t192 58h123q187 0 236 -125q27 68 84.5 96.5t148.5 28.5h104q128 0 192 -58t64 -204v-45q0 -146 -64 -204t-192 -58h-104q-91 0 -148.5 28.5t-84.5 96.5zM348 334h123q52 0 86 7.5t65.5 29.5
t46.5 67t15 115v45q0 70 -15 115t-46.5 67t-65.5 29.5t-86 7.5h-123q-52 0 -86 -7.5t-65.5 -29.5t-46.5 -67t-15 -115v-45q0 -70 15 -115t46.5 -67t65.5 -29.5t86 -7.5zM940 334h104q52 0 86 7.5t65.5 29.5t46.5 67t15 115v45q0 70 -15 115t-46.5 67t-65.5 29.5t-86 7.5
h-104q-52 0 -86 -7.5t-65.5 -29.5t-46.5 -67t-15 -115v-45q0 -70 15 -115t46.5 -67t65.5 -29.5t86 -7.5z" />
    <glyph glyph-name="integral" unicode="&#x222b;" horiz-adv-x="546" 
d="M104 -348h-73v43h71q49 0 80 12.5t46 39.5t19.5 55.5t4.5 72.5v1114q1 54 7.5 88.5t25.5 65.5t57.5 46.5t99.5 18.5h74v-43h-72q-49 0 -80 -12.5t-45.5 -39.5t-19 -55t-4.5 -73v-1114q-1 -54 -7.5 -88.5t-26 -65.5t-58 -46.5t-99.5 -18.5z" />
    <glyph glyph-name="approxequal" unicode="&#x2248;" horiz-adv-x="980" 
d="M20 715v57q107 86 226 86q98 0 258 -63q161 -66 237 -66q101 0 220 105v-56q-107 -86 -224 -86q-93 0 -260 68q-85 32 -136.5 46.5t-96.5 14.5q-56 0 -108 -24.5t-116 -81.5zM20 467v57q107 86 226 86q98 0 258 -63q161 -66 237 -66q101 0 220 105v-56q-107 -86 -224 -86
q-93 0 -260 68q-85 32 -136.5 46.5t-96.5 14.5q-56 0 -108 -24.5t-116 -81.5z" />
    <glyph glyph-name="notequal" unicode="&#x2260;" horiz-adv-x="700" 
d="M385 571h-365v43h381l97 252h47l-96 -252h231v-43h-248l-104 -270h352v-43h-369l-100 -258h-47l100 258h-244v43h261z" />
    <glyph glyph-name="lessequal" unicode="&#x2264;" horiz-adv-x="765" 
d="M709 440l-656 363v47l656 362v-47l-613 -340l613 -338v-47zM711 324h-660v43h660v-43z" />
    <glyph glyph-name="greaterequal" unicode="&#x2265;" horiz-adv-x="780" 
d="M717 803l-656 -363v47l613 338l-613 340v47l656 -362v-47zM719 324h-660v43h660v-43z" />
    <glyph glyph-name="lozenge" unicode="&#x25ca;" horiz-adv-x="935" 
d="M489 -61h-43l-423 634l423 635h43l426 -635zM74 573l395 -589l395 589l-395 590z" />
    <glyph glyph-name="grave.case" horiz-adv-x="165" 
d="M145 1290h-45l-80 84h70z" />
    <glyph glyph-name="dieresis.case" horiz-adv-x="288" 
d="M59 1290q-24 0 -34 19.5t0 39t34 19.5q23 0 32.5 -19.5t0 -39t-32.5 -19.5zM231 1290q-24 0 -34 19.5t0 39t34 19.5q23 0 32.5 -19.5t0 -39t-32.5 -19.5z" />
    <glyph glyph-name="macron.case" horiz-adv-x="512" 
d="M492 1290h-472v43h472v-43z" />
    <glyph glyph-name="acute.case" horiz-adv-x="165" 
d="M66 1290h-46l56 84h69z" />
    <glyph glyph-name="circumflex.case" horiz-adv-x="212" 
d="M76 1290h-56l68 84h35l70 -84h-56l-31 47z" />
    <glyph glyph-name="caron.case" horiz-adv-x="212" 
d="M123 1290h-35l-68 84h56l30 -47l31 47h56z" />
    <glyph glyph-name="breve.case" horiz-adv-x="354" 
d="M20 1395h48q8 -41 22.5 -51.5t69.5 -10.5h39q54 0 67 10.5t21 51.5h47q-10 -55 -19 -69q-25 -36 -116 -36h-39q-46 0 -73.5 6t-41 22.5t-17.5 31.5t-8 45z" />
    <glyph glyph-name="dotaccent.case" horiz-adv-x="116" 
d="M59 1290q-24 0 -34 19.5t0 39t34 19.5q23 0 32.5 -19.5t0 -39t-32.5 -19.5z" />
    <glyph glyph-name="ring.case" horiz-adv-x="260" 
d="M127 1290q-40 0 -67.5 22t-33.5 54t0.5 63.5t34.5 53.5t68 22q42 0 70.5 -22t34.5 -53.5t-0.5 -63.5t-35.5 -54t-71 -22zM129 1331q43 0 61.5 33.5t1 66.5t-60.5 33q-26 0 -43.5 -13.5t-22 -33t-0.5 -39.5t21 -33.5t43 -13.5z" />
    <glyph glyph-name="tilde.case" horiz-adv-x="434" 
d="M20 1284v64q53 53 111 53q38 0 98.5 -32t87.5 -32q50 0 97 74v-65q-48 -56 -97 -56q-35 0 -97 34t-93 34q-55 0 -107 -74z" />
    <glyph glyph-name="hungarumlaut.case" horiz-adv-x="309" 
d="M66 1290h-46l56 84h69zM209 1290h-45l55 84h70z" />
    <glyph glyph-name="caron.salt" horiz-adv-x="212" 
d="M88 1290l-68 84h56l30 -47l31 47h56l-70 -84h-35z" />
    <glyph glyph-name="commaaccent.salt" horiz-adv-x="174" 
d="M76 -92h69l-79 -84h-46z" />
    </font>
</defs>
</svg>
