<?xml version="1.0" standalone="no"?>
<!DOCTYPE svg PUBLIC "-//W3C//DTD SVG 1.1//EN" "http://www.w3.org/Graphics/SVG/1.1/DTD/svg11.dtd" >
<svg xmlns="http://www.w3.org/2000/svg" xmlns:xlink="http://www.w3.org/1999/xlink" version="1.1">
<metadata>
Created by FontForge 20170731 at Fri Mar 31 11:45:26 2023
 By Aleksey,,,
Copyright (c) 2023 by Moriztype. All rights reserved.
</metadata>
<defs>
<font id="ElyzabethPro-Regular" horiz-adv-x="954" >
  <font-face 
    font-family="Elyzabeth"
    font-weight="400"
    font-stretch="normal"
    units-per-em="2048"
    panose-1="0 0 0 0 0 0 0 0 0 0"
    ascent="1638"
    descent="-410"
    x-height="870"
    cap-height="1212"
    bbox="-109 -350 1935 1536"
    underline-thickness="102"
    underline-position="-358"
    unicode-range="U+000D-FB05"
  />
<missing-glyph horiz-adv-x="512" 
 />
    <glyph glyph-name="f_f" unicode="ff" horiz-adv-x="1105" 
d="M166 0h-74v807h-43v65h43v115q2 112 46 168t159 59h229v-65h-227q-45 0 -72.5 -11.5t-40.5 -36.5t-16.5 -50.5t-3.5 -67.5v-111h471v115q2 112 46 168t159 59h227v-65h-225q-45 0 -72.5 -11.5t-40.5 -36.5t-16.5 -50.5t-3.5 -67.5v-111h358v-65h-358v-807h-74v807h-471
v-807z" />
    <glyph glyph-name="fi" unicode="fi" horiz-adv-x="884" 
d="M147 0h-73v807h-43v65h43v115q2 112 46 167.5t159 59.5h227v-65h-225q-45 0 -73 -11.5t-40.5 -36.5t-16.5 -50.5t-4 -67.5v-111h611v-872h-74v807h-537v-807zM721 1106q-35 0 -49 24.5t0.5 49t48.5 24.5q32 0 45.5 -24.5t0 -49t-45.5 -24.5z" />
    <glyph glyph-name="fl" unicode="fl" horiz-adv-x="862" 
d="M147 0h-73v807h-43v65h43v115q2 112 46 168t159 59h460v-1214h-73v1149h-385q-45 0 -73 -11.5t-40.5 -36.5t-16.5 -50.5t-4 -67.5v-111h359v-65h-359v-807z" />
    <glyph glyph-name="f_f_i" unicode="ffi" horiz-adv-x="1429" 
d="M147 0h-73v807h-43v65h43v115q2 112 46 167.5t159 59.5h227v-65h-225q-45 0 -73 -11.5t-40.5 -36.5t-16.5 -50.5t-4 -67.5v-111h469v115q2 112 46 167.5t159 59.5h228v-65h-226q-45 0 -72.5 -11.5t-40.5 -36.5t-16.5 -50.5t-3.5 -67.5v-111h610v-872h-73v807h-537v-807
h-74v807h-469v-807zM1264 1106q-35 0 -49 24.5t0.5 49t48.5 24.5q32 0 45.5 -24.5t0 -49t-45.5 -24.5z" />
    <glyph glyph-name="f_f_l" unicode="ffl" horiz-adv-x="1404" 
d="M147 0h-73v807h-43v65h43v115q2 112 46 168t159 59h227v-65h-225q-45 0 -73 -11.5t-40.5 -36.5t-16.5 -50.5t-4 -67.5v-111h469v115q2 112 46 168t159 59h461v-1214h-74v1149h-385q-45 0 -72.5 -11.5t-40.5 -36.5t-16.5 -50.5t-3.5 -67.5v-111h359v-65h-359v-807h-74v807
h-469v-807z" />
    <glyph glyph-name="longs_t" unicode="&#x17f;t" horiz-adv-x="1138" 
d="M184 0h-73v987q2 113 45.5 168.5t158.5 58.5h177q109 -3 155 -53.5t49 -150.5v-138h279v-65h-279v-561q0 -54 5.5 -84t24 -54t54.5 -33t97 -9h231v-66h-231q-79 0 -130 15.5t-78 49t-36.5 75.5t-9.5 106v561h-86v65h86v111q0 42 -4 67.5t-16.5 50.5t-40.5 36.5t-73 11.5
h-172q-45 0 -72.5 -11.5t-40.5 -36.5t-16.5 -50.5t-3.5 -67.5v-983z" />
    <glyph glyph-name=".notdef" horiz-adv-x="512" 
 />
    <glyph glyph-name="uni0000" horiz-adv-x="0" 
 />
    <glyph glyph-name="uni0000" horiz-adv-x="0" 
 />
    <glyph glyph-name="uni000D" unicode="&#xd;" horiz-adv-x="512" 
 />
    <glyph glyph-name="space" unicode=" " horiz-adv-x="532" 
 />
    <glyph glyph-name="exclam" unicode="!" horiz-adv-x="368" 
d="M211 180h-53l-15 1034h82zM184 51q3 0 3 -1t-3 -1q-8 0 -8 1t8 1z" />
    <glyph glyph-name="quotedbl" unicode="&#x22;" horiz-adv-x="270" 
d="M238 1063h-66l-8 149h88zM92 1063h-65l-9 149h88z" />
    <glyph glyph-name="numbersign" unicode="#" horiz-adv-x="667" 
d="M129 0h-78l74 369h-76l12 65h76l64 309h-88l12 66h88l82 405h76l-80 -405h174l82 405h76l-82 -405h77l-12 -66h-78l-61 -309h88l-12 -65h-88l-74 -369h-78l74 369h-176zM276 743l-61 -309h174l64 309h-177z" />
    <glyph glyph-name="dollar" unicode="$" horiz-adv-x="927" 
d="M502 0h-74v53h-45q-68 0 -118 14.5t-80 38.5t-48 60.5t-24.5 75t-6.5 88.5v30h74v-30q0 -54 6 -87.5t26 -64.5t62 -45t109 -14h45v446h-45q-140 0 -205.5 60.5t-71.5 185.5v80q0 61 12.5 106.5t42.5 82.5t85.5 56t136.5 19h45v59h74v-59h43q84 0 140.5 -20.5t84.5 -60.5
t38.5 -85t10.5 -108v-33h-74v33q0 43 -3.5 71t-15 57t-32.5 45t-58.5 26t-90.5 10h-43v-459h71q79 0 133 -17t85 -51.5t44.5 -81t14.5 -112.5v-52q0 -61 -12.5 -106.5t-42.5 -82.5t-85.5 -56t-136.5 -19h-71v-53zM383 631h45v459h-45q-64 0 -105.5 -13.5t-62 -41.5t-28 -61
t-7.5 -83v-62q0 -50 7.5 -83t28 -61t62 -41t105.5 -13zM502 565v-446h71q64 0 105.5 13t62 41t28 61t7.5 83v52q0 49 -7.5 81.5t-28 60.5t-62 41t-105.5 13h-71z" />
    <glyph glyph-name="percent" unicode="%" horiz-adv-x="1351" 
d="M66 825v127q0 128 60.5 196.5t215.5 68.5q80 0 135.5 -19t86 -56t44 -83t15.5 -107v-127q-3 -133 -69 -198.5t-212 -65.5q-81 0 -136 19t-85 56t-42.5 82.5t-12.5 106.5zM465 0h-78l469 1214h80zM139 952v-127q0 -50 7.5 -83t28 -61t62 -41t105.5 -13t105 13t62.5 41.5
t29.5 61t10 82.5v127q-1 50 -9 83t-29 61t-63 41.5t-106 13.5t-105.5 -13.5t-62 -41.5t-28 -61t-7.5 -83zM717 264v127q0 134 64.5 199t211.5 65q154 0 216 -68.5t65 -195.5v-127q-3 -127 -65 -195.5t-216 -68.5q-81 0 -136 19t-85 56t-42.5 82.5t-12.5 106.5zM791 391v-127
q0 -50 7 -82.5t27.5 -61t62 -41.5t105.5 -13t105 13t62.5 41.5t29.5 61t10 82.5v127q-1 50 -9 83t-29 61t-63 41.5t-106 13.5t-105.5 -13.5t-62 -41.5t-27.5 -61t-7 -83z" />
    <glyph glyph-name="ampersand" unicode="&#x26;" horiz-adv-x="903" 
d="M213 967v-70q0 -50 7 -82.5t28 -60.5t62.5 -41.5t105.5 -14.5h213v-65h-258q-63 1 -104.5 -12.5t-62 -42t-27.5 -61.5t-7 -83v-168q0 -50 7.5 -83t28 -61t62 -41t105.5 -13h135q61 0 96.5 9t54 33t24 54t5.5 84v506h72v-56h57v-65h-57v-385q0 -60 -8 -99.5t-31 -74.5
t-70.5 -53t-120.5 -19h-157q-81 0 -136.5 19t-85.5 56t-42.5 82.5t-12.5 106.5v168q0 89 30 150.5t107 91.5q-91 58 -94 213v61q0 61 12.5 106.5t42.5 82.5t85.5 56t136.5 19h69q84 0 140.5 -20.5t85 -60.5t39 -85t10.5 -108v-33h-72v33q0 53 -6 86.5t-26 64t-62 44.5
t-109 14h-69q-115 0 -157.5 -43.5t-45.5 -138.5z" />
    <glyph glyph-name="quotesingle" unicode="'" horiz-adv-x="133" 
d="M98 1063h-67l-11 149h91z" />
    <glyph glyph-name="parenleft" unicode="(" horiz-adv-x="473" 
d="M274 1212h76q-224 -370 -231.5 -774.5t205.5 -779.5h-74q-214 368 -208.5 780.5t232.5 773.5z" />
    <glyph glyph-name="parenright" unicode=")" horiz-adv-x="475" 
d="M127 1212h76q228 -361 233.5 -773.5t-209.5 -780.5h-71q212 374 204 779t-233 775z" />
    <glyph glyph-name="asterisk" unicode="*" horiz-adv-x="563" 
d="M246 895l-191 -113l-35 58l195 116l-195 111l33 57l193 -112v200h73v-198l187 112l37 -57l-193 -115l193 -112l-33 -58l-191 111v-201h-73v201z" />
    <glyph glyph-name="plus" unicode="+" horiz-adv-x="608" 
d="M342 328h-74v245h-248v66h248v244h74v-244h246v-66h-246v-245z" />
    <glyph glyph-name="comma" unicode="," horiz-adv-x="145" 
d="M25 -37l22 45q-21 11 -24 34t12 41t41 17q29 0 40 -22.5t3 -46.5q-4 -14 -14.5 -28t-23 -26.5l-13.5 -13.5h-43z" />
    <glyph glyph-name="hyphen" unicode="-" horiz-adv-x="608" 
d="M588 573h-568v66h568v-66z" />
    <glyph glyph-name="period" unicode="." horiz-adv-x="147" 
d="M74 0q-31 0 -44 26.5t0 53t44 26.5q23 0 36 -16.5t12.5 -36.5t-13.5 -36.5t-35 -16.5z" />
    <glyph glyph-name="slash" unicode="/" horiz-adv-x="606" 
d="M104 0h-77l471 1212h77z" />
    <glyph glyph-name="zero" unicode="0" horiz-adv-x="948" 
d="M102 264v686q0 61 12.5 106.5t42.5 82.5t85.5 56t136.5 19h192q153 0 213.5 -68t63.5 -196v-686q-3 -127 -63.5 -195.5t-213.5 -68.5h-192q-81 0 -136.5 19t-85.5 56t-42.5 82.5t-12.5 106.5zM176 950v-686q0 -50 7.5 -83t28 -61t62 -41t105.5 -13h192q63 0 104 13
t61.5 41.5t28 60.5t9.5 83v686q-1 40 -5 67.5t-16.5 54.5t-34.5 42.5t-58.5 25t-88.5 9.5h-192q-64 0 -105.5 -13.5t-62 -41.5t-28 -61t-7.5 -83z" />
    <glyph glyph-name="one" unicode="1" horiz-adv-x="548" 
d="M123 0v66h121v1083h-121v65h194v-1148h111v-66h-305z" />
    <glyph glyph-name="two" unicode="2" horiz-adv-x="987" 
d="M793 848v108q0 50 -7.5 83t-28 61t-62 41.5t-105.5 13.5h-152q-67 0 -109 -14t-61.5 -45t-25.5 -64.5t-6 -87.5v-31h-74v43q0 128 60.5 196.5t215.5 68.5h152q155 0 215.5 -68.5t60.5 -196.5v-108q0 -61 -12.5 -106.5t-42.5 -82.5t-85 -56t-136 -19h-191
q-64 0 -105.5 -13.5t-62 -41.5t-27.5 -61t-7 -83v-121q0 -50 7 -82.5t27.5 -61t62 -41.5t105.5 -13h191q67 0 109 14t62 44.5t26 64t6 87.5v31h73v-43q0 -61 -12.5 -106.5t-42.5 -82.5t-85 -56t-136 -19h-191q-81 0 -136 19t-85 56t-42.5 82.5t-12.5 106.5v121
q0 61 12.5 106.5t42.5 82.5t85 56t136 19h191q64 0 105.5 13.5t62 41.5t28 61t7.5 83z" />
    <glyph glyph-name="three" unicode="3" horiz-adv-x="989" 
d="M793 829v121q0 50 -7.5 83t-28 61t-62 41.5t-105.5 13.5h-191q-67 0 -109 -14t-61.5 -45t-25.5 -64.5t-6 -87.5v-31h-74v43q0 61 12.5 106.5t42.5 82.5t85 56t136 19h191q81 0 136 -19t85 -56t42.5 -82.5t12.5 -106.5v-121q0 -175 -112 -231q62 -32 87 -89t25 -142v-103
q0 -61 -12.5 -106.5t-42.5 -82.5t-85 -56t-136 -19h-191q-84 0 -140.5 20.5t-85 60.5t-39.5 86t-11 109v31h74v-31q0 -54 6 -87.5t25.5 -64t61.5 -44.5t109 -14h191q120 0 161.5 47.5t41.5 148.5v105q0 50 -7.5 83t-28 61t-62 41t-105.5 13h-287v66h287q64 0 105.5 13t62 41
t28 61t7.5 83z" />
    <glyph glyph-name="four" unicode="4" horiz-adv-x="847" 
d="M604 266h-573v60l559 888h88v-882h47v-66h-47v-266h-74v266zM604 1104l-485 -772h485v772z" />
    <glyph glyph-name="five" unicode="5" horiz-adv-x="987" 
d="M504 0h-381v66h377q105 0 180 59t95.5 143.5t7.5 169.5t-85 144t-182 59h-393v573h694v-65h-620v-444h321q102 0 178.5 -39t113.5 -101.5t52 -138t-7.5 -151t-64 -137.5t-117.5 -100.5t-169 -37.5z" />
    <glyph glyph-name="six" unicode="6" horiz-adv-x="915" 
d="M508 1149h-172q-50 0 -83 -11.5t-49 -35.5t-21.5 -50t-6.5 -65v-301q67 64 203 64h117q69 0 120 -8.5t83 -28.5t51.5 -42t28.5 -59t11.5 -68t2.5 -81v-180q0 -53 -5 -90t-22.5 -76t-49 -63t-87 -39t-133.5 -15h-117q-81 0 -136.5 19t-85.5 56t-42.5 82.5t-12.5 106.5v723
q1 51 11 89t34 71t71.5 50t117.5 17h172q81 0 136.5 -19t85.5 -56t42 -82t12 -107h-73q0 50 -7.5 83t-28 61t-62 41.5t-105.5 13.5zM496 684h-117q-64 0 -105.5 -13.5t-62 -41.5t-28 -61t-7.5 -83v-221q0 -50 7.5 -83t28 -61t62 -41t105.5 -13h117q72 0 117.5 13.5
t67.5 43.5t29.5 64t8.5 89v187q1 42 -1 67.5t-8.5 54t-21 44t-39.5 30t-62.5 20t-90.5 5.5z" />
    <glyph glyph-name="seven" unicode="7" horiz-adv-x="856" 
d="M31 1149v65h413q155 0 233.5 -64t78.5 -187v-963h-74v965q0 90 -56.5 137t-183.5 47h-411z" />
    <glyph glyph-name="eight" unicode="8" horiz-adv-x="948" 
d="M215 598q-113 56 -113 231v121q0 61 12.5 106.5t42.5 82.5t85.5 56t136.5 19h190q81 0 136.5 -19t85.5 -56t42.5 -82.5t12.5 -106.5v-121q0 -175 -113 -231q58 -29 84 -80.5t29 -144.5v-109q0 -61 -12.5 -106.5t-42.5 -82.5t-85.5 -56t-136.5 -19h-190q-145 0 -209.5 63
t-67.5 193v111q0 175 113 231zM176 950v-121q0 -50 7.5 -83t28 -61t62 -41t105.5 -13h190q64 0 105.5 13t62 41t28 61t7.5 83v121q0 50 -7.5 83t-28 61t-62 41.5t-105.5 13.5h-190q-64 0 -105.5 -13.5t-62 -41.5t-28 -61t-7.5 -83zM176 367v-103q0 -50 7.5 -83t28 -61
t62 -41t105.5 -13h190q64 0 105.5 13t62 41t28 61t7.5 83v103q0 50 -7.5 83t-28 61t-62 41t-105.5 13h-190q-64 0 -105.5 -13t-62 -41t-28 -61t-7.5 -83z" />
    <glyph glyph-name="nine" unicode="9" horiz-adv-x="894" 
d="M113 264h73q0 -40 4 -67.5t16.5 -54t34.5 -42t58.5 -25t87.5 -9.5h174q50 0 82 11.5t48 35.5t21.5 50t6.5 66v301q-62 -65 -201 -65h-119q-72 0 -124 9t-84 33t-50.5 45.5t-26 67t-9 75t-1.5 91.5v11v102q0 43 1.5 71.5t8 65t18 59.5t33.5 48t52.5 39t76.5 23t105 9h119
q155 0 215 -68t60 -196v-721q-1 -52 -10.5 -89.5t-33.5 -71t-71 -51t-117 -17.5h-174q-154 0 -214 68.5t-60 195.5zM399 530h119q64 0 105 13.5t61.5 41.5t27.5 61t7 83v221q0 50 -7 83t-27.5 61t-61.5 41.5t-105 13.5h-119q-61 0 -102.5 -11t-65 -28.5t-36 -50t-15.5 -63.5
t-2 -81v-129q0 -119 8 -153q16 -66 82 -87q47 -16 131 -16z" />
    <glyph glyph-name="colon" unicode=":" horiz-adv-x="147" 
d="M76 772q-35 0 -49.5 25t0 50t49.5 25q32 0 45.5 -25t0 -50t-45.5 -25zM76 0q-35 0 -49.5 25t0 50t49.5 25q32 0 45.5 -25t0 -50t-45.5 -25z" />
    <glyph glyph-name="semicolon" unicode=";" horiz-adv-x="165" 
d="M76 772q-35 0 -49.5 25t0 50t49.5 25q32 0 45.5 -25t0 -50t-45.5 -25zM25 -37l22 45q-21 11 -24 34t12 41t41 17q29 -1 40 -24t3 -47q-8 -23 -51 -66h-43z" />
    <glyph glyph-name="less" unicode="&#x3c;" horiz-adv-x="815" 
d="M711 18l-680 375v58l680 374v-75l-596 -328l596 -328v-76z" />
    <glyph glyph-name="equal" unicode="=" horiz-adv-x="727" 
d="M705 573h-685v66h685v-66zM705 297h-685v65h685v-65z" />
    <glyph glyph-name="greater" unicode="&#x3e;" horiz-adv-x="815" 
d="M782 393l-680 -375v76l598 328l-598 328v75l680 -374v-58z" />
    <glyph glyph-name="question" unicode="?" horiz-adv-x="868" 
d="M311 205h-73v162q0 61 12.5 106.5t42.5 82.5t85 56t136 19q122 0 165.5 49t43.5 149v121q0 50 -7 83t-27.5 61t-61.5 41.5t-105 13.5h-172q-67 0 -109 -14t-62 -45t-26 -64.5t-6 -87.5v-31h-73v43q0 61 12.5 106.5t42.5 82.5t85 56t136 19h172q154 0 214.5 -68.5
t60.5 -195.5v-121q0 -126 -64 -195t-219 -69q-64 0 -105.5 -13t-62 -41t-28 -61t-7.5 -83v-162zM266 0q-33 0 -46.5 25t0 50t46.5 25q34 0 48 -25t0 -50t-48 -25z" />
    <glyph glyph-name="at" unicode="@" horiz-adv-x="1546" 
d="M1358 121h86q-134 -168 -274 -234.5t-361 -66.5q-150 0 -277.5 45t-224 130.5t-151 219t-54.5 301.5q0 206 88 364.5t244 244t354 85.5q114 0 220 -38t190.5 -108t135 -180t50.5 -243q0 -128 -29.5 -232.5t-76.5 -167t-100 -95.5t-105 -33q-63 0 -102.5 44.5t-40.5 127.5
q-52 -96 -136 -149t-176 -50q-139 6 -206.5 131t-26.5 320q38 180 151.5 292t249.5 109q69 -3 121 -39t78 -102l10 84h76l-74 -580q-4 -59 17 -90t57 -31q37 0 78 30.5t79 86t62.5 147t24.5 199.5q0 142 -71 259.5t-192 183t-264 65.5q-267 0 -435 -176.5t-177 -454.5
q-3 -287 172 -461t459 -174q190 0 318.5 57t232.5 179zM618 154q117 -6 214.5 109t117.5 294q15 137 -31.5 223t-134.5 92q-102 6 -192.5 -86t-126.5 -247q-39 -169 9.5 -274.5t143.5 -110.5z" />
    <glyph glyph-name="A" unicode="A" horiz-adv-x="1028" 
d="M578 0h-537l483 1212h82l381 -1212h-76l-348 1114l-418 -1048h433v-66z" />
    <glyph glyph-name="B" unicode="B" horiz-adv-x="1017" 
d="M610 0h-467v1214h467q146 0 211.5 -64t65.5 -196v-118q0 -81 -24 -139t-87 -89q111 -56 111 -233v-111q0 -61 -12.5 -106.5t-42.5 -82.5t-85.5 -56t-136.5 -19zM217 1149v-510h393q64 0 105.5 13.5t62 41.5t28 61t7.5 83v112q0 50 -7.5 83t-28 61t-62 41.5t-105.5 13.5
h-393zM217 573v-507h393q64 0 105.5 13t62 41t28 61t7.5 83v111q0 49 -7.5 82t-28 61t-62 41.5t-105.5 13.5h-393z" />
    <glyph glyph-name="C" unicode="C" 
d="M852 66v-66h-330q-81 0 -145 18t-107 46.5t-74 75.5t-48.5 93.5t-27.5 113t-13 120.5t-3 129q0 73 3 131.5t13.5 124.5t29 116.5t50 98.5t75 79t106.5 49.5t141 18.5h330v-65h-330q-67 0 -120 -18t-88 -45.5t-60 -73.5t-38.5 -89t-21 -105.5t-9 -109.5t-1.5 -114
q0 -52 0.5 -86.5t4 -83.5t10 -82t18.5 -74t29 -67.5t42.5 -54.5t58.5 -44t77 -26t98 -10h330z" />
    <glyph glyph-name="D" unicode="D" horiz-adv-x="987" 
d="M467 0h-324v1214h324q64 0 117 -11t92.5 -29.5t71 -48.5t53 -61.5t37 -76t24.5 -84.5t14 -93.5t7 -96.5t2 -101q0 -73 -3 -131.5t-13.5 -124t-29 -115t-50 -96.5t-75 -77.5t-106.5 -49t-141 -18.5zM217 1149v-1083h250q53 0 96.5 11t76 28.5t58 47t43 59t29.5 72t19 78.5
t10.5 85.5t4.5 87t1 88.5q0 53 -0.5 86.5t-4 82.5t-9.5 81.5t-18 73.5t-29 67.5t-42.5 54.5t-58.5 44t-77.5 26t-98.5 10h-250z" />
    <glyph glyph-name="E" unicode="E" 
d="M842 565h-666v-301q0 -50 7.5 -83t28 -61t62 -41t105.5 -13h463v-66h-463q-81 0 -136.5 19t-85.5 56t-42.5 82.5t-12.5 106.5v686q0 61 12.5 106.5t42.5 82.5t85.5 56t136.5 19h465v-65h-465q-64 0 -105.5 -13.5t-62 -41.5t-28 -61t-7.5 -83v-321h666v-64z" />
    <glyph glyph-name="F" unicode="F" horiz-adv-x="985" 
d="M201 0h-74v950q0 61 12.5 106.5t42.5 82.5t85 56t136 19h465v-65h-465q-64 0 -105.5 -13.5t-62 -41.5t-27.5 -61t-7 -83v-321h665v-64h-665v-565z" />
    <glyph glyph-name="G" unicode="G" 
d="M768 524h-178v64h252v-324q0 -127 -60.5 -195.5t-214.5 -68.5h-92q-61 0 -111 11t-86.5 25t-64.5 45.5t-46 55t-31 71.5t-19 76.5t-9 88.5t-3.5 89.5t-0.5 96.5v12v11v12v47v98t3.5 91.5t10 90t19.5 79t32 73t48 57t67 47t90 26.5t115 11h78q84 0 140 -20.5t84.5 -60.5
t39.5 -86t11 -109v-31h-74v31q0 54 -6 87.5t-26 64.5t-61.5 45t-107.5 14h-82q-65 0 -115 -14.5t-81.5 -40.5t-54 -61.5t-32.5 -78t-16 -90.5t-5 -98.5t0 -101.5q1 -48 1 -72q0 -190 3 -231q13 -174 96 -241q68 -54 190 -54h96q51 0 87.5 9.5t58.5 25t34.5 42t16.5 54
t4 67.5v260z" />
    <glyph glyph-name="H" unicode="H" horiz-adv-x="1028" 
d="M217 0h-74v1214h74v-626h596v626h74v-1214h-74v522h-596v-522z" />
    <glyph glyph-name="I" unicode="I" horiz-adv-x="360" 
d="M217 0h-74v1212h74v-1212z" />
    <glyph glyph-name="J" unicode="J" horiz-adv-x="911" 
d="M487 0h-446v66h446q58 0 103 20t70.5 53.5t38 71.5t12.5 78v925h73v-925q0 -53 -18.5 -103.5t-54 -92.5t-94 -67.5t-130.5 -25.5z" />
    <glyph glyph-name="K" unicode="K" horiz-adv-x="940" 
d="M217 0h-74v1212h74v-602l586 602h98l-569 -579l569 -633h-96l-524 582l-64 -66v-516z" />
    <glyph glyph-name="L" unicode="L" horiz-adv-x="915" 
d="M877 66v-66h-447q-72 0 -130.5 25.5t-94 67.5t-54 92.5t-18.5 103.5v925h74v-925q0 -40 12.5 -78t38 -71.5t70 -53.5t102.5 -20h447z" />
    <glyph glyph-name="M" unicode="M" horiz-adv-x="1366" 
d="M217 0h-74v1212h84l459 -1110l457 1110h80v-1212h-72v1051l-430 -1051h-72l-432 1047v-1047z" />
    <glyph glyph-name="N" unicode="N" horiz-adv-x="1030" 
d="M217 0h-74v1212h80l592 -1083v1083h74v-1212h-84l-588 1081v-1081z" />
    <glyph glyph-name="O" unicode="O" horiz-adv-x="1042" 
d="M522 0q-78 0 -141 18.5t-106.5 49t-75 77.5t-50 96.5t-29 115t-13.5 124t-3 131.5q0 65 2.5 113.5t9 108t19.5 103t33.5 89.5t52 78t73 58t99.5 39t129 13q64 0 117 -11t92.5 -29.5t71 -48.5t53 -61.5t37 -76t24.5 -84.5t14 -93.5t7 -96.5t2 -101q0 -73 -3 -131.5
t-13.5 -124t-29 -115t-50 -96.5t-75 -77.5t-106.5 -49t-141 -18.5zM522 66q52 0 95.5 11t76 28.5t58 46.5t43 59t29.5 71.5t19 78.5t11 86t5 87t1 89q0 53 -0.5 86.5t-4 82.5t-9.5 81.5t-18 73.5t-29 67.5t-42.5 54.5t-58.5 44t-77.5 26t-98.5 10t-98.5 -10t-77.5 -26
t-58.5 -44t-42.5 -54.5t-29 -67.5t-18 -73.5t-9.5 -81.5t-4 -82.5t-0.5 -86.5q0 -51 1 -89t5 -87t11 -86t19 -78.5t29.5 -71.5t43 -59t58 -46.5t76 -28.5t95.5 -11z" />
    <glyph glyph-name="P" unicode="P" horiz-adv-x="991" 
d="M217 0h-74v1214h467q81 0 136.5 -19t85.5 -56t42.5 -82.5t12.5 -106.5v-123q0 -61 -12.5 -106.5t-42.5 -82t-85.5 -55t-136.5 -18.5h-393v-565zM217 1149v-520h393q64 0 105.5 13t62 41t28 61t7.5 83v123q0 50 -7.5 83t-28 61t-62 41.5t-105.5 13.5h-393z" />
    <glyph glyph-name="Q" unicode="Q" horiz-adv-x="948" 
d="M541 -147l-82 147h-80q-81 0 -136.5 19t-85.5 56t-42.5 82.5t-12.5 106.5v686q0 61 12.5 106.5t42.5 82.5t85.5 56t136.5 19h192q81 0 136.5 -19t85.5 -56t42.5 -82.5t12.5 -106.5v-686q0 -126 -58 -193.5t-208 -70.5h-41l82 -147h-82zM424 66l-70 127h80l72 -127h65
q64 0 105.5 13t62 41t28 61t7.5 83v686q0 50 -7.5 83t-28 61t-62 41.5t-105.5 13.5h-192q-64 0 -105.5 -13.5t-62 -41.5t-28 -61t-7.5 -83v-686q0 -50 7.5 -83t28 -61t62 -41t105.5 -13h45z" />
    <glyph glyph-name="R" unicode="R" horiz-adv-x="1017" 
d="M217 0h-74v1214h467q81 0 136.5 -19t85.5 -56t42.5 -82.5t12.5 -106.5v-123q0 -61 -12.5 -106.5t-42.5 -82t-85.5 -55t-136.5 -18.5h-129l412 -565h-88l-410 565h-178v-565zM217 1149v-520h393q64 0 105.5 13t62 41t28 61t7.5 83v123q0 50 -7.5 83t-28 61t-62 41.5
t-105.5 13.5h-393z" />
    <glyph glyph-name="S" unicode="S" horiz-adv-x="987" 
d="M123 276v31h74v-31q0 -54 6 -87.5t25.5 -64t61.5 -44.5t109 -14h191q64 0 105.5 13t62 41t28 61t7.5 83v121q0 50 -7.5 83t-28 61t-62 41.5t-105.5 13.5h-191q-81 0 -136 19t-85 56t-42.5 82.5t-12.5 106.5v102q0 61 12.5 106.5t42.5 82.5t85 56t136 19h152
q84 0 140.5 -20.5t85 -60.5t39.5 -86t11 -109v-31h-73v31q0 54 -6 87.5t-26 64.5t-62 45t-109 14h-152q-64 0 -105.5 -13.5t-62 -41.5t-27.5 -61t-7 -83v-102q0 -50 7 -83t27.5 -61t62 -41.5t105.5 -13.5h191q81 0 136 -19t85 -56t42.5 -82.5t12.5 -106.5v-121
q0 -61 -12.5 -106.5t-42.5 -82.5t-85 -56t-136 -19h-191q-84 0 -140.5 20.5t-85 60.5t-39.5 86t-11 109z" />
    <glyph glyph-name="T" unicode="T" horiz-adv-x="995" 
d="M535 -2h-74v1151h-441v65h955v-65h-440v-1151z" />
    <glyph glyph-name="U" unicode="U" horiz-adv-x="1007" 
d="M133 289v925h74v-925q0 -40 12.5 -78t38 -71.5t70 -53.5t102.5 -20h150q58 0 102.5 20t70 53.5t38 71.5t12.5 78v925h74v-925q0 -53 -18.5 -103.5t-54 -92.5t-94 -67.5t-130.5 -25.5h-150q-72 0 -130.5 25.5t-94 67.5t-54 92.5t-18.5 103.5z" />
    <glyph glyph-name="V" unicode="V" horiz-adv-x="878" 
d="M485 0h-86l-383 1212h76l350 -1108l342 1108h76z" />
    <glyph glyph-name="W" unicode="W" horiz-adv-x="1646" 
d="M489 0h-86l-383 1212h76l350 -1108l342 1108h70l350 -1108l342 1108h76l-375 -1212h-86l-342 1083z" />
    <glyph glyph-name="X" unicode="X" horiz-adv-x="903" 
d="M104 0h-84l392 606l-392 606h84l349 -538l346 538h84l-389 -606l389 -606h-84l-346 541z" />
    <glyph glyph-name="Y" unicode="Y" horiz-adv-x="903" 
d="M485 4h-71v594l-394 614h84l347 -540l348 540h82l-396 -618v-590z" />
    <glyph glyph-name="Z" unicode="Z" horiz-adv-x="987" 
d="M864 0h-741v61l653 1088h-653v65h741v-57l-653 -1091h653v-66z" />
    <glyph glyph-name="bracketleft" unicode="[" horiz-adv-x="411" 
d="M106 1149v-1432h183v-65h-256v1562h256v-65h-183z" />
    <glyph glyph-name="backslash" unicode="\" horiz-adv-x="616" 
d="M580 0h-78l-471 1212h78z" />
    <glyph glyph-name="bracketright" unicode="]" horiz-adv-x="409" 
d="M123 -283h184v1432h-184v65h256v-1562h-256v65z" />
    <glyph glyph-name="asciicircum" unicode="^" horiz-adv-x="675" 
d="M106 850h-88l285 362h70l284 -362h-88l-231 295z" />
    <glyph glyph-name="underscore" unicode="_" horiz-adv-x="727" 
d="M705 -57h-685v65h685v-65z" />
    <glyph glyph-name="grave" unicode="`" horiz-adv-x="243" 
d="M195 1212h-76l-103 105h109z" />
    <glyph glyph-name="a" unicode="a" horiz-adv-x="860" 
d="M197 606h-74q0 61 12.5 106.5t42.5 82.5t85 56t136 19h101q155 0 214.5 -68t59.5 -196v-342q0 -128 -59.5 -196t-214.5 -68h-152q-67 0 -118.5 22t-79.5 60t-42 81t-14 91q0 50 15.5 96.5t46 86.5t84 64.5t122.5 24.5h338v80q0 51 -7 83t-27 61t-61 42t-105 13h-101
q-64 0 -105.5 -13.5t-62 -41.5t-27.5 -61t-7 -83zM700 264v203h-338q-92 0 -143 -64.5t-51 -150.5q-2 -81 42.5 -133.5t139.5 -52.5h150q64 0 105 13t61 41.5t27 61t7 82.5z" />
    <glyph glyph-name="b" unicode="b" horiz-adv-x="913" 
d="M176 1212v-342h266q90 0 160 -25.5t113 -66.5t70 -98.5t37.5 -114.5t11.5 -123q0 -442 -396 -442h-59q-81 0 -136.5 19t-85.5 56t-42.5 82.5t-12.5 106.5v948h74zM440 805h-264v-541q0 -50 7 -82.5t27.5 -61t61.5 -41.5t105 -13h63q78 0 136 21t92 54.5t54 83.5
t26.5 99.5t5.5 111.5q-4 369 -314 369z" />
    <glyph glyph-name="c" unicode="c" horiz-adv-x="739" 
d="M657 66v-66h-198q-96 0 -167 27t-110.5 68t-63 102.5t-29.5 118t-5 126.5q1 67 9.5 121t32.5 114t63.5 100t108 66.5t159.5 26.5h200v-65h-200q-72 0 -125.5 -21t-85 -54t-51 -83.5t-26.5 -99t-9 -111.5q-1 -64 3.5 -111.5t22 -99t49 -84.5t88 -54t134.5 -21h200z" />
    <glyph glyph-name="d" unicode="d" horiz-adv-x="866" 
d="M457 870h233v342h74v-948q0 -62 -12.5 -107t-42 -82t-85.5 -56t-137 -19h-30q-70 0 -127 14t-95.5 37.5t-67 59t-44.5 72t-25.5 83.5t-12.5 87t-3 89q1 67 9 122.5t32.5 114.5t64.5 99t108.5 66t160.5 26zM690 264v541h-233q-75 0 -130.5 -21t-87.5 -53.5t-51 -83.5
t-25 -100.5t-7 -114.5q-1 -63 4.5 -110.5t24 -98t50 -83t88 -53.5t134.5 -21h30q64 0 105.5 13t62 41t28 61t7.5 83z" />
    <glyph glyph-name="e" unicode="e" horiz-adv-x="864" 
d="M557 467h-401v-197q0 -119 46 -161.5t150 -42.5h133q64 0 105.5 13t62 41t28 61t7.5 83h72q0 -128 -60 -196t-215 -68h-133q-142 0 -206 66t-64 204v334q0 138 63.5 202t206.5 64h211q63 0 104.5 -16.5t60 -48t25 -61t7.5 -72.5q0 -43 -7 -75t-26.5 -64t-62.5 -49
t-107 -17zM156 604v-78h401q81 0 106 37t25 109q0 27 -1.5 43.5t-9 35.5t-20.5 29.5t-37 17.5t-59 7h-209q-105 0 -150.5 -41t-45.5 -160z" />
    <glyph glyph-name="f" unicode="f" horiz-adv-x="563" 
d="M166 0h-74v807h-43v65h43v115q2 112 46 168t159 59h227v-65h-225q-45 0 -72.5 -11.5t-40.5 -36.5t-16.5 -50.5t-3.5 -67.5v-111h358v-65h-358v-807z" />
    <glyph glyph-name="g" unicode="g" horiz-adv-x="866" 
d="M84 -78h74q0 -50 7 -82.5t27.5 -61t61 -41.5t104.5 -13h174q50 0 82 11t48 35t21.5 49.5t6.5 65.5v181q-63 -66 -201 -66h-79q-61 0 -110 12.5t-83 33.5t-59 54t-39 67.5t-22.5 81.5t-10.5 89t-2 96q1 88 4 135.5t20.5 114.5t50 101t96 59.5t155.5 25.5h79q155 0 215 -68
t60 -196v-721q-1 -52 -10.5 -89t-33.5 -70.5t-71 -50.5t-117 -17h-174q-154 0 -214 68.5t-60 195.5zM410 66h79q51 0 87.5 9.5t58.5 25t34.5 42t16.5 54t4 67.5v342q0 50 -7 83t-27.5 61t-61.5 41.5t-105 13.5h-79q-73 0 -123 -22t-75 -49.5t-37.5 -84t-14.5 -93.5t-2 -110
v-2v-2v-4q0 -74 2 -111.5t14.5 -96.5t37.5 -88t75 -52.5t123 -23.5z" />
    <glyph glyph-name="h" unicode="h" horiz-adv-x="907" 
d="M197 0h-74v1212h74v-405q66 63 202 63h129q81 0 137 -19t85.5 -56t42 -82t12.5 -107v-606h-74v606q0 50 -7.5 83t-28 61t-62 41.5t-105.5 13.5h-129q-64 0 -105.5 -13.5t-62 -41.5t-27.5 -61t-7 -83v-606z" />
    <glyph glyph-name="i" unicode="i" horiz-adv-x="352" 
d="M178 1106q-35 0 -49 24.5t0.5 49t48.5 24.5q32 0 45.5 -24.5t0 -49t-45.5 -24.5zM215 0h-74v870h74v-870z" />
    <glyph glyph-name="j" unicode="j" horiz-adv-x="313" 
d="M150 1110q-35 0 -49 24.5t0.5 49t48.5 24.5q32 0 45.5 -24.5t0 -49t-45.5 -24.5zM-92 -342v66q64 0 105.5 13t62 41t28 61t7.5 83v948h73v-948q0 -62 -12 -107t-42 -82t-85.5 -56t-136.5 -19z" />
    <glyph glyph-name="k" unicode="k" horiz-adv-x="872" 
d="M197 0h-74v1212h74v-675l520 333h125l-494 -317l479 -553h-88l-452 514l-90 -57v-457z" />
    <glyph glyph-name="l" unicode="l" horiz-adv-x="319" 
d="M197 0h-74v1212h74v-1212z" />
    <glyph glyph-name="m" unicode="m" horiz-adv-x="1507" 
d="M176 0h-74v606q0 61 12.5 106.5t42.5 82.5t85.5 56t136.5 19h135q94 0 153 -25t89 -81q60 106 237 106h135q155 0 216 -66t61 -198v-606h-74v606q0 41 -3 67t-15 53.5t-33.5 43t-59 25.5t-92.5 10h-133q-64 0 -105.5 -13.5t-62.5 -41.5t-28.5 -61t-7.5 -83v-606h-74v606
q0 41 -3 67t-15 53.5t-33.5 43t-59 25.5t-92.5 10h-133q-64 0 -106 -13.5t-63 -41.5t-28.5 -61t-7.5 -83v-606z" />
    <glyph glyph-name="n" unicode="n" horiz-adv-x="886" 
d="M176 0h-74v606q0 61 12.5 106.5t42.5 82.5t85.5 56t136.5 19h129q158 0 217 -62.5t59 -201.5v-606h-73v606q0 41 -3 67t-15 53.5t-33.5 43t-59 25.5t-92.5 10h-127q-64 0 -106 -13.5t-63 -41.5t-28.5 -61t-7.5 -83v-606z" />
    <glyph glyph-name="o" unicode="o" horiz-adv-x="892" 
d="M496 6h-99q-66 0 -116 13t-83 31t-55.5 55.5t-34 66t-17 83.5t-6.5 88t-1 99q0 57 1.5 95t8.5 88t19 82.5t35 67.5t56 55.5t81.5 33.5t111.5 13h99q63 0 111.5 -13t81.5 -33.5t56 -55.5t35 -67.5t19 -82.5t8.5 -88t1.5 -95q0 -66 -1 -99t-6.5 -88t-17 -83.5t-34 -66
t-55.5 -55.5t-83 -31t-116 -13zM397 72h99q51 0 89.5 9.5t63.5 26.5t43 41t26 52.5t13 61.5t4.5 68.5t-0.5 71.5v39q0 150 -14 209q-31 128 -152 153q-34 7 -73 7h-99q-69 0 -116.5 -23t-71 -51.5t-36 -86t-14 -94t-1.5 -107.5v-7q0 -143 3 -173q13 -125 93 -168
q54 -29 143 -29z" />
    <glyph glyph-name="p" unicode="p" horiz-adv-x="866" 
d="M176 -340h-74v948q0 61 12.5 106.5t42.5 82t85.5 55t136.5 18.5h129q81 0 136.5 -18.5t85.5 -55.5t42 -81.5t12 -106.5v-344q0 -62 -12 -107t-42 -82t-85.5 -56t-136.5 -19h-332v-340zM176 608v-542h332q64 0 105.5 13t62 41t28 61t7.5 83v344q0 50 -7.5 83t-28 61
t-62 41.5t-105.5 13.5h-129q-64 0 -105.5 -13.5t-62 -41.5t-28 -61t-7.5 -83z" />
    <glyph glyph-name="q" unicode="q" horiz-adv-x="886" 
d="M784 -342h-73v340h-332q-81 0 -136.5 19t-85.5 56t-42.5 82.5t-12.5 106.5v344q0 61 12.5 106.5t42.5 82t85.5 55t136.5 18.5h129q81 0 136.5 -18.5t85.5 -55.5t42 -81.5t12 -106.5v-948zM379 63h332v543q0 50 -7.5 83t-28 61t-62 41.5t-105.5 13.5h-129
q-64 0 -105.5 -13.5t-62 -41.5t-28 -61t-7.5 -83v-344q0 -50 7.5 -83t28 -61t62 -41.5t105.5 -13.5z" />
    <glyph glyph-name="r" unicode="r" horiz-adv-x="657" 
d="M176 0h-74v618q0 117 61.5 184.5t209.5 67.5h256v-65h-254q-62 0 -103.5 -15t-61 -44t-27 -59.5t-7.5 -72.5v-614z" />
    <glyph glyph-name="s" unicode="s" horiz-adv-x="747" 
d="M432 0h-311v66h311q85 0 131.5 49.5t46.5 120.5q0 80 -42 132t-132 52h-108q-124 0 -188 63t-64 158q0 99 60 164t186 65h284v-65h-282q-92 0 -134.5 -44t-42.5 -120q0 -156 195 -156h96q66 0 115.5 -22.5t76 -59.5t39.5 -79t13 -88q0 -97 -63 -166.5t-187 -69.5z" />
    <glyph glyph-name="t" unicode="t" horiz-adv-x="612" 
d="M578 0h-232q-80 0 -131 15.5t-77.5 49t-36 75.5t-9.5 106v561h-57v65h57v154h74v-154h278v-65h-278v-561q0 -54 5.5 -84t24 -54t54 -33t96.5 -9h232v-66z" />
    <glyph glyph-name="u" unicode="u" horiz-adv-x="884" 
d="M102 266v606h74v-606q0 -50 7.5 -83t28.5 -61t63 -41t106 -13h127q68 0 110 13.5t61.5 43t25.5 60t6 81.5v606h73v-606q0 -131 -61 -197.5t-215 -66.5h-129q-81 0 -136.5 19t-85.5 56t-42.5 82.5t-12.5 106.5z" />
    <glyph glyph-name="v" unicode="v" horiz-adv-x="733" 
d="M399 0h-80l-299 870h76l264 -774l275 774h78z" />
    <glyph glyph-name="w" unicode="w" horiz-adv-x="1507" 
d="M102 264v606h74v-606q0 -50 7.5 -83t28.5 -61t63 -41t106 -13h133q68 0 110 13.5t61.5 43t25.5 60t6 81.5v606h74v-606q0 -50 7.5 -83t28.5 -61t62.5 -41t105.5 -13h133q68 0 110 13.5t61.5 43t25.5 60t6 81.5v606h74v-606q0 -131 -61.5 -197.5t-215.5 -66.5h-135
q-177 0 -237 106q-59 -106 -242 -106h-135q-81 0 -136.5 19t-85.5 56t-42.5 82.5t-12.5 106.5z" />
    <glyph glyph-name="x" unicode="x" horiz-adv-x="743" 
d="M109 0h-89l308 436l-308 434h89l264 -372l262 372h88l-307 -434l307 -436h-88l-262 373z" />
    <glyph glyph-name="y" unicode="y" horiz-adv-x="907" 
d="M102 -78h74q0 -50 7.5 -83t28 -61t62 -41t105.5 -13h94q126 0 182 47t56 137v158q-61 -64 -203 -64h-129q-81 0 -136.5 19t-85.5 56t-42.5 82.5t-12.5 106.5v606h74v-606q0 -50 7.5 -83t28.5 -61t63 -41t106 -13h127q68 0 110 13.5t61.5 43t25.5 60t6 81.5v606h73v-962
q0 -123 -77.5 -187.5t-231.5 -64.5h-96q-81 0 -136.5 19t-85.5 56t-42.5 82.5t-12.5 106.5z" />
    <glyph glyph-name="z" unicode="z" horiz-adv-x="755" 
d="M641 770l-477 -704h498v-66h-521q-41 0 -53.5 29.5t12.5 64.5l482 711h-467v65h471q38 0 56 -16t16.5 -38.5t-17.5 -45.5z" />
    <glyph glyph-name="braceleft" unicode="{" horiz-adv-x="544" 
d="M422 -276v-66q-146 0 -215.5 60.5t-69.5 189.5v354q0 65 -25.5 104.5t-86.5 63.5v59q60 23 86 63t26 103v308q0 130 68.5 190.5t216.5 60.5v-65q-122 0 -166.5 -47t-44.5 -144v-317q-3 -121 -94 -182q91 -60 94 -176v-371q0 -96 45 -142t166 -46z" />
    <glyph glyph-name="bar" unicode="|" horiz-adv-x="319" 
d="M123 1212h74v-1212h-74v1212z" />
    <glyph glyph-name="braceright" unicode="}" horiz-adv-x="552" 
d="M123 -342v66q122 0 166.5 46t44.5 142v371q3 117 96 176q-93 60 -96 182v317q0 97 -44.5 144t-166.5 47v65q148 0 216.5 -60.5t68.5 -190.5v-308q0 -63 26 -103t86 -63v-59q-61 -24 -86.5 -63.5t-25.5 -104.5v-354q0 -130 -69 -190t-216 -60z" />
    <glyph glyph-name="asciitilde" unicode="~" horiz-adv-x="1005" 
d="M20 469v92q112 90 242 90q111 0 260 -63q153 -62 223 -62q56 0 110 28t130 93v-90q-117 -90 -237 -90q-94 0 -263 65q-159 60 -225 60q-56 0 -110 -28t-130 -95z" />
    <glyph glyph-name="uni00A0" unicode="&#xa0;" horiz-adv-x="532" 
 />
    <glyph glyph-name="exclamdown" unicode="&#xa1;" horiz-adv-x="352" 
d="M178 770q-35 0 -49.5 25t0 50t49.5 25q32 0 45.5 -25t0 -50t-45.5 -25zM152 711h53l14 -1061h-82z" />
    <glyph glyph-name="cent" unicode="&#xa2;" horiz-adv-x="739" 
d="M598 -131h-74v131h-65q-96 0 -167 27t-110.5 68t-63 102.5t-29.5 118t-5 126.5q1 67 9.5 121t32.5 114t63.5 100t108 66.5t159.5 26.5h67v134h74v-134h59v-65h-200q-72 0 -125.5 -21t-85 -54t-51 -83.5t-26.5 -99t-9 -111.5q-1 -64 3.5 -111.5t22 -99t49 -84.5t88 -54
t134.5 -21h200v-66h-59v-131z" />
    <glyph glyph-name="sterling" unicode="&#xa3;" horiz-adv-x="821" 
d="M786 -4h-723v61q113 40 113 170v303h-113v66h113v369q0 117 61 183t209 66h265v-65h-267q-61 0 -101.5 -14.5t-59.5 -43t-26 -58.5t-7 -72v-365h325v-66h-325v-319q-3 -91 -62 -150h598v-65z" />
    <glyph glyph-name="currency" unicode="&#xa4;" horiz-adv-x="1071" 
d="M145 0h-92l129 197q-69 138 -65 413q1 95 4 152t17 131.5t40 126.5l-127 194h92l78 -127q99 127 314 127q214 0 313 -127l78 127h92l-127 -194q34 -75 45.5 -172.5t13.5 -237.5q4 -277 -65 -415l127 -195h-92l-78 127q-99 -127 -307 -127q-210 0 -308 129zM535 66
q48 0 88.5 8.5t71.5 26t56.5 38.5t43 52t31 60t22 69.5t13.5 72.5t7.5 77t3 76.5t0.5 76.5q0 52 -0.5 86t-4 83t-10 81.5t-18.5 73.5t-28.5 67.5t-42 54.5t-58.5 44t-77 26t-98 10t-98.5 -10t-77.5 -26t-58.5 -44t-42.5 -54.5t-29 -67.5t-18 -73.5t-9.5 -81.5t-4 -82.5
t-0.5 -86.5q0 -51 1 -86t4.5 -85t10 -85.5t18.5 -78.5t29 -73t42.5 -60t58 -48t77 -29.5t97.5 -11.5z" />
    <glyph glyph-name="yen" unicode="&#xa5;" horiz-adv-x="944" 
d="M434 199h-303v65h303v211h-303v66h303v59l-393 614h86l344 -540l346 540h84l-395 -616v-57h309v-66h-309v-211h309v-65h-309v-193h-72v193z" />
    <glyph glyph-name="brokenbar" unicode="&#xa6;" horiz-adv-x="114" 
d="M94 756h-76v456h76v-456zM92 0h-74v459h74v-459z" />
    <glyph glyph-name="section" unicode="&#xa7;" horiz-adv-x="952" 
d="M598 0h-438v66h438q83 0 129.5 49.5t46.5 120.5q0 80 -42 132t-132 52h-283q-96 0 -147 64t-49 143q0 53 25 101.5t75 74.5q-98 59 -98 182q0 98 61.5 163.5t188.5 65.5h422v-65h-420q-92 0 -134 -44t-42 -120t45.5 -117t134.5 -41h266q94 -3 144.5 -66t48.5 -138
q0 -52 -24.5 -99.5t-70.5 -74.5q107 -67 107 -213q0 -96 -64.5 -166t-187.5 -70zM317 485h322q56 0 88.5 40.5t34.5 97.5q2 56 -30 97t-89 42h-330q-56 -1 -87 -40t-31 -95q0 -58 32.5 -100t89.5 -42z" />
    <glyph glyph-name="dieresis" unicode="&#xa8;" horiz-adv-x="319" 
d="M72 1214q-35 0 -49 25t0.5 49.5t48.5 24.5q32 0 45.5 -24.5t0 -49.5t-45.5 -25zM250 1214q-34 0 -48 25t0 49.5t48 24.5q32 0 45.5 -24.5t0 -49.5t-45.5 -25z" />
    <glyph glyph-name="copyright" unicode="&#xa9;" horiz-adv-x="1380" 
d="M94 592q0 266 164.5 430t431.5 164t430.5 -164t163.5 -430q0 -267 -163.5 -430.5t-430.5 -163.5t-431.5 163.5t-164.5 430.5zM147 592q0 -244 149 -392.5t394 -148.5q243 0 392 148.5t149 392.5t-149 392.5t-392 148.5q-245 0 -394 -148.5t-149 -392.5zM905 432h56
q0 -229 -242 -239q-87 -3 -151.5 20t-100.5 61t-57 95.5t-26.5 110.5t-4.5 118q1 61 9 112t30 105.5t58 91.5t98 59t145 19q72 -3 121 -22.5t74.5 -54t35.5 -73t11 -90.5h-56q-1 33 -4.5 54t-14.5 46.5t-30 41t-53.5 28t-83.5 15.5q-66 5 -115 -13t-78 -49t-47.5 -79
t-25.5 -93.5t-9 -103.5q-1 -59 3 -104.5t20 -94.5t45 -80t81.5 -49.5t125.5 -15.5q106 6 144.5 53t41.5 131z" />
    <glyph glyph-name="ordfeminine" unicode="&#xaa;" horiz-adv-x="821" 
d="M164 1026h-74q0 46 14 79.5t36.5 54t61 32.5t79 16.5t98.5 5.5h72q158 0 217 -51t59 -174v-151q0 -128 -60.5 -196.5t-215.5 -68.5h-136q-129 0 -180 54.5t-51 156.5q0 103 56 152t190 49h323v19q-1 58 -17.5 87.5t-62 43.5t-135.5 14h-51q-48 0 -80 -2.5t-61.5 -9.5
t-46 -20.5t-26 -36t-9.5 -54.5zM653 838v86h-323q-98 0 -134 -32t-38 -112q-2 -75 31 -108t128 -33h134q64 0 105.5 13.5t62 41.5t27.5 61t7 83z" />
    <glyph glyph-name="guillemotleft" unicode="&#xab;" horiz-adv-x="909" 
d="M786 76v-99l-460 459l460 459v-96l-364 -363zM502 76v-99l-461 459l461 459v-96l-365 -363z" />
    <glyph glyph-name="logicalnot" unicode="&#xac;" horiz-adv-x="727" 
d="M633 573h-613v66h687v-258h-74v192z" />
    <glyph glyph-name="uni00AD" unicode="&#xad;" horiz-adv-x="727" 
d="M705 573h-685v66h685v-66z" />
    <glyph glyph-name="registered" unicode="&#xae;" horiz-adv-x="1380" 
d="M94 592q0 267 163.5 429.5t432.5 162.5q267 0 430.5 -162.5t163.5 -429.5t-163.5 -430.5t-430.5 -163.5q-268 0 -432 163.5t-164 430.5zM147 592q0 -243 149.5 -392t393.5 -149t392.5 149t148.5 392q0 244 -148.5 392.5t-392.5 148.5q-245 0 -394 -148.5t-149 -392.5z
M569 209h-61v739h219q124 0 172.5 -53.5t48.5 -153.5q0 -99 -47 -152.5t-166 -56.5h-37l209 -323h-73l-211 323h-54v-323zM569 891v-301h158q51 0 83 9.5t48 30.5t21.5 46t5.5 65q0 78 -30.5 114t-127.5 36h-158z" />
    <glyph glyph-name="macron" unicode="&#xaf;" horiz-adv-x="573" 
d="M541 1202h-508v66h508v-66z" />
    <glyph glyph-name="degree" unicode="&#xb0;" horiz-adv-x="561" 
d="M279 788q-89 0 -143 60.5t-54 150.5q0 89 53.5 149t140.5 60q91 1 147 -59.5t56 -149.5q0 -87 -55 -148.5t-145 -62.5zM281 852q56 2 91.5 40t35.5 107q0 68 -36.5 108t-92.5 38q-55 0 -90 -39.5t-35 -108.5q0 -68 36 -107.5t91 -37.5z" />
    <glyph glyph-name="plusminus" unicode="&#xb1;" horiz-adv-x="727" 
d="M328 573h-308v66h306v303h75v-303h306v-66h-306v-303h-73v303zM707 125h-687v65h687v-65z" />
    <glyph glyph-name="twosuperior" unicode="&#xb2;" horiz-adv-x="915" 
d="M186 1024h-73q0 61 16 99.5t53 58t83.5 26t121.5 6.5h229q90 -1 140.5 -54.5t50.5 -121.5q0 -70 -51.5 -122t-145.5 -52h-331q-58 0 -89.5 -33t-29.5 -81q2 -45 35 -78t88 -33h247q121 0 161 22.5t40 104.5h74q0 -117 -62.5 -155t-212.5 -38h-247q-93 0 -145 54.5
t-52 124.5q-2 71 48 123.5t142 52.5h334q56 0 89.5 33t33.5 79q2 43 -30.5 75.5t-88.5 33.5h-227q-123 0 -162 -21.5t-39 -103.5z" />
    <glyph glyph-name="threesuperior" unicode="&#xb3;" horiz-adv-x="899" 
d="M102 766h74q0 -85 31.5 -106t150.5 -21h248q56 0 88.5 32.5t34.5 78.5q2 48 -29.5 81t-89.5 33h-381v64h379q57 0 90 33t33 79q0 44 -31.5 76t-87.5 33h-235q-52 0 -81.5 -2t-56.5 -8.5t-39 -20.5t-19 -36.5t-7 -57.5h-74q0 61 16 99.5t54 58t84.5 26t122.5 6.5h237
q91 -1 141 -53.5t50 -120.5q0 -91 -78 -143q39 -25 58.5 -64.5t17.5 -82.5q-2 -70 -53.5 -123.5t-143.5 -53.5h-248q-149 0 -202.5 38t-53.5 155z" />
    <glyph glyph-name="acute" unicode="&#xb4;" horiz-adv-x="253" 
d="M119 1212h-78l72 105h106z" />
    <glyph glyph-name="paragraph" unicode="&#xb6;" horiz-adv-x="1005" 
d="M453 -342h-74v733q-73 0 -128.5 45.5t-83 118t-39 160t1.5 175.5t39.5 160.5t75 118t107.5 45.5h531v-1556h-74v1491h-356v-1491z" />
    <glyph glyph-name="periodcentered" unicode="&#xb7;" horiz-adv-x="147" 
d="M76 772q-35 0 -49.5 25t0 50t49.5 25q32 0 45.5 -25t0 -50t-45.5 -25z" />
    <glyph glyph-name="cedilla" unicode="&#xb8;" horiz-adv-x="317" 
d="M31 -264v57q168 0 168 55q0 53 -138 35l78 127h66l-51 -80q53 0 83.5 -22.5t30.5 -63.5q0 -23 -10.5 -41t-23.5 -29t-37.5 -19t-40.5 -11.5t-46.5 -5.5t-41 -2h-37.5z" />
    <glyph glyph-name="onesuperior" unicode="&#xb9;" horiz-adv-x="452" 
d="M387 573h-305v66h121v510h-121v65h194v-575h111v-66z" />
    <glyph glyph-name="ordmasculine" unicode="&#xba;" horiz-adv-x="780" 
d="M381 567q-132 0 -214.5 93t-82.5 231q0 136 82.5 229t216.5 94q136 1 222.5 -90.5t86.5 -228.5q0 -139 -87 -234t-224 -94zM381 631q102 0 173 74.5t71 189.5q0 113 -71 185.5t-173 70.5q-95 -2 -160 -74t-65 -186q0 -115 64 -187.5t161 -72.5z" />
    <glyph glyph-name="guillemotright" unicode="&#xbb;" horiz-adv-x="909" 
d="M584 436l-461 -459v99l364 360l-364 363v96zM868 436l-460 -459v99l364 360l-364 363v96z" />
    <glyph glyph-name="onequarter" unicode="&#xbc;" horiz-adv-x="1142" 
d="M387 573h-305v66h121v510h-121v65h194v-575h111v-66zM338 0h-78l469 1214h78zM936 100h-442v62l428 477h86v-473h47v-66h-47v-102h-72v102zM936 549l-344 -383h344v383z" />
    <glyph glyph-name="onehalf" unicode="&#xbd;" horiz-adv-x="1435" 
d="M385 573h-303v66h121v510h-121v65h194v-575h109v-66zM346 0h-78l469 1214h78zM719 451h-74q0 61 16 98.5t54 57t84.5 26t122.5 6.5h229q89 -1 138.5 -53t51.5 -119q2 -70 -50.5 -124t-145.5 -54h-334q-53 0 -85 -30t-34 -73q-2 -49 31.5 -86t91.5 -37h248q123 0 163 22.5
t40 104.5h73q0 -116 -62.5 -154t-213.5 -38h-248q-95 0 -147.5 57.5t-49.5 130.5q2 66 52 117t139 51h336q56 0 88.5 32.5t34.5 76.5q2 45 -30.5 77t-88.5 33h-227q-124 0 -163.5 -20.5t-39.5 -101.5z" />
    <glyph glyph-name="threequarters" unicode="&#xbe;" horiz-adv-x="1540" 
d="M102 766h74q0 -85 31.5 -106t150.5 -21h248q53 0 86.5 30.5t36.5 73.5q5 50 -27 85.5t-92 35.5h-381v64h379q56 0 88.5 31.5t34.5 76.5t-30 78.5t-89 34.5h-235q-52 0 -81.5 -2t-56.5 -8.5t-39 -20.5t-19 -36.5t-7 -57.5h-74q0 61 16 99.5t54 58t84.5 26t122.5 6.5h237
q92 -1 142.5 -55.5t48.5 -124.5q-2 -40 -21.5 -76.5t-56.5 -60.5q40 -25 59.5 -67t16.5 -87q-3 -68 -55 -119t-142 -51h-248q-149 0 -202.5 38t-53.5 155zM698 0h-77l471 1214h77zM1307 100h-443v62l428 477h86v-473h47v-66h-47v-102h-71v102zM1307 549l-344 -383h344v383z
" />
    <glyph glyph-name="questiondown" unicode="&#xbf;" horiz-adv-x="966" 
d="M647 768q-32 0 -45.5 25t0 50t45.5 25q33 0 46.5 -25t0 -50t-46.5 -25zM772 -72v31h74v-43q0 -127 -60.5 -195.5t-214.5 -68.5h-172q-81 0 -136 19t-85 56t-42.5 82.5t-12.5 106.5v121q0 127 64.5 195.5t220.5 68.5q64 0 105.5 13.5t62 41.5t27.5 60.5t7 81.5v161h72
v-161q0 -61 -12 -106t-41.5 -81.5t-85 -55.5t-135.5 -19q-64 0 -107 -13.5t-65 -41.5t-30.5 -61.5t-8.5 -82.5v-121q0 -50 7 -83t27.5 -61t62 -41.5t105.5 -13.5h172q66 0 107.5 14t61.5 45t26 64.5t6 87.5z" />
    <glyph glyph-name="Agrave" unicode="&#xc0;" horiz-adv-x="1028" 
d="M657 1305h-77l-101 104h107zM578 0h-537l483 1212h82l381 -1212h-76l-348 1114l-418 -1048h433v-66z" />
    <glyph glyph-name="Aacute" unicode="&#xc1;" horiz-adv-x="1028" 
d="M553 1305h-78l72 104h106zM578 0h-537l483 1212h82l381 -1212h-76l-348 1114l-418 -1048h433v-66z" />
    <glyph glyph-name="Acircumflex" unicode="&#xc2;" horiz-adv-x="1028" 
d="M532 1305h-81l86 104h51l90 -104h-84l-31 47zM578 0h-537l483 1212h82l381 -1212h-76l-348 1114l-418 -1048h433v-66z" />
    <glyph glyph-name="Atilde" unicode="&#xc3;" horiz-adv-x="1028" 
d="M358 1303v83q66 60 123 60q42 0 107 -37t94 -37q51 0 102 70v-86q-54 -51 -102 -51q-36 0 -101.5 35.5t-101.5 35.5q-59 0 -121 -73zM578 0h-537l483 1212h82l381 -1212h-76l-348 1114l-418 -1048h433v-66z" />
    <glyph glyph-name="Adieresis" unicode="&#xc4;" horiz-adv-x="1028" 
d="M475 1305q-34 0 -48 24.5t0 49t48 24.5q32 0 45.5 -24.5t0 -49t-45.5 -24.5zM653 1305q-33 0 -46.5 24.5t0 49t46.5 24.5q32 0 45.5 -24.5t0 -49t-45.5 -24.5zM578 0h-537l483 1212h82l381 -1212h-76l-348 1114l-418 -1048h433v-66z" />
    <glyph glyph-name="Aring" unicode="&#xc5;" horiz-adv-x="1030" 
d="M578 0h-537l471 1182q-31 12 -50 39t-19.5 58t10.5 60.5t40.5 48.5t69.5 19q52 0 85 -29t39 -66.5t-12.5 -75.5t-58.5 -54l371 -1182h-76l-348 1112l-418 -1046h433v-66zM565 1231q23 0 38.5 12.5t19.5 29.5t1 34.5t-18.5 30t-38.5 12.5t-39 -12.5t-20 -30t-0.5 -34.5
t19 -29.5t38.5 -12.5z" />
    <glyph glyph-name="AE" unicode="&#xc6;" horiz-adv-x="1699" 
d="M121 0h-78l483 1212h1063v-65h-465q-64 0 -105.5 -13.5t-62 -41.5t-27.5 -61t-7 -83v-319h665v-64h-665v-301q0 -50 7 -82.5t27.5 -61t62 -41.5t105.5 -13h463v-66h-463q-81 0 -136 19t-85 56t-42.5 82.5t-12.5 106.5v148h-563zM578 1147l-267 -670h537v471q0 137 70 199
h-340z" />
    <glyph glyph-name="Ccedilla" unicode="&#xc7;" 
d="M850 66v-66h-244l-47 -70q53 0 84 -22.5t31 -63.5q0 -23 -10.5 -41t-23.5 -29t-37.5 -19t-40.5 -11.5t-46.5 -5.5t-41.5 -2h-38v57q168 0 168 55q0 53 -137 35l74 117h-19q-81 0 -145 18t-107 46.5t-74 75.5t-48.5 93.5t-27.5 113t-13 120.5t-3 129q0 73 3 131.5
t13.5 124.5t29 116.5t50 98.5t75 79t106.5 49.5t141 18.5h328v-65h-328q-67 0 -120 -18t-88 -45.5t-60 -73.5t-38.5 -89t-21 -105.5t-9 -109.5t-1.5 -114q0 -52 0.5 -86.5t4 -83.5t10 -82t18.5 -74t29 -67.5t42.5 -54.5t58.5 -44t77 -26t98 -10h328z" />
    <glyph glyph-name="Egrave" unicode="&#xc8;" 
d="M590 1303h-78l-100 104h108zM842 565h-666v-301q0 -50 7.5 -83t28 -61t62 -41t105.5 -13h463v-66h-463q-81 0 -136.5 19t-85.5 56t-42.5 82.5t-12.5 106.5v686q0 61 12.5 106.5t42.5 82.5t85.5 56t136.5 19h465v-65h-465q-64 0 -105.5 -13.5t-62 -41.5t-28 -61t-7.5 -83
v-321h666v-64z" />
    <glyph glyph-name="Eacute" unicode="&#xc9;" 
d="M532 1303h-77l71 104h107zM842 565h-666v-301q0 -50 7.5 -83t28 -61t62 -41t105.5 -13h463v-66h-463q-81 0 -136.5 19t-85.5 56t-42.5 82.5t-12.5 106.5v686q0 61 12.5 106.5t42.5 82.5t85.5 56t136.5 19h465v-65h-465q-64 0 -105.5 -13.5t-62 -41.5t-28 -61t-7.5 -83
v-321h666v-64z" />
    <glyph glyph-name="Ecircumflex" unicode="&#xca;" 
d="M473 1300h-82l88 105h49l93 -105h-84l-31 48zM842 565h-666v-301q0 -50 7.5 -83t28 -61t62 -41t105.5 -13h463v-66h-463q-81 0 -136.5 19t-85.5 56t-42.5 82.5t-12.5 106.5v686q0 61 12.5 106.5t42.5 82.5t85.5 56t136.5 19h465v-65h-465q-64 0 -105.5 -13.5t-62 -41.5
t-28 -61t-7.5 -83v-321h666v-64z" />
    <glyph glyph-name="Edieresis" unicode="&#xcb;" 
d="M420 1305q-34 0 -48 24.5t0 49t48 24.5q32 0 45.5 -24.5t0 -49t-45.5 -24.5zM598 1305q-33 0 -46.5 24.5t0 49t46.5 24.5q32 0 45.5 -24.5t0 -49t-45.5 -24.5zM842 565h-666v-301q0 -50 7.5 -83t28 -61t62 -41t105.5 -13h463v-66h-463q-81 0 -136.5 19t-85.5 56
t-42.5 82.5t-12.5 106.5v686q0 61 12.5 106.5t42.5 82.5t85.5 56t136.5 19h465v-65h-465q-64 0 -105.5 -13.5t-62 -41.5t-28 -61t-7.5 -83v-321h666v-64z" />
    <glyph glyph-name="Igrave" unicode="&#xcc;" horiz-adv-x="360" 
d="M276 1305h-77l-103 104h109zM217 0h-74v1212h74v-1212z" />
    <glyph glyph-name="Iacute" unicode="&#xcd;" horiz-adv-x="360" 
d="M172 1303h-78l72 104h106zM217 0h-74v1212h74v-1212z" />
    <glyph glyph-name="Icircumflex" unicode="&#xce;" horiz-adv-x="360" 
d="M150 1300h-82l86 105h51l92 -105h-84l-33 48zM217 0h-74v1212h74v-1212z" />
    <glyph glyph-name="Idieresis" unicode="&#xcf;" horiz-adv-x="360" 
d="M92 1303q-34 0 -48 24.5t0 49t48 24.5q33 0 46.5 -24.5t0 -49t-46.5 -24.5zM270 1303q-33 0 -46.5 24.5t0 49t46.5 24.5t46.5 -24.5t0 -49t-46.5 -24.5zM217 0h-74v1212h74v-1212z" />
    <glyph glyph-name="Eth" unicode="&#xd0;" horiz-adv-x="989" 
d="M467 0h-324v547h-71v65h71v602h324q64 0 117 -11t92.5 -29.5t71 -48.5t53 -61.5t37 -76t24.5 -84.5t14 -93.5t7 -96.5t2 -101q0 -73 -3 -131.5t-13.5 -124t-29 -115t-50 -96.5t-75 -77.5t-106.5 -49t-141 -18.5zM217 547v-481h250q67 0 120 18t88 45.5t60 73.5t38.5 89
t21 105.5t9 109.5t1.5 114q0 69 -1.5 111.5t-8 105t-19.5 101t-37.5 83t-60 69t-89 41.5t-122.5 17h-250v-537h338v-65h-338z" />
    <glyph glyph-name="Ntilde" unicode="&#xd1;" horiz-adv-x="1030" 
d="M315 1303v86q62 57 121 57q42 0 107 -37t96 -37q51 0 102 70v-86q-54 -51 -102 -51q-37 0 -102 35.5t-101 35.5q-59 0 -121 -73zM217 0h-74v1212h80l592 -1083v1083h74v-1212h-84l-588 1081v-1081z" />
    <glyph glyph-name="Ograve" unicode="&#xd2;" horiz-adv-x="1042" 
d="M612 1305h-77l-101 104h107zM522 0q-78 0 -141 18.5t-106.5 49t-75 77.5t-50 96.5t-29 115t-13.5 124t-3 131.5q0 65 2.5 113.5t9 108t19.5 103t33.5 89.5t52 78t73 58t99.5 39t129 13q64 0 117 -11t92.5 -29.5t71 -48.5t53 -61.5t37 -76t24.5 -84.5t14 -93.5t7 -96.5
t2 -101q0 -73 -3 -131.5t-13.5 -124t-29 -115t-50 -96.5t-75 -77.5t-106.5 -49t-141 -18.5zM522 66q52 0 95.5 11t76 28.5t58 46.5t43 59t29.5 71.5t19 78.5t11 86t5 87t1 89q0 53 -0.5 86.5t-4 82.5t-9.5 81.5t-18 73.5t-29 67.5t-42.5 54.5t-58.5 44t-77.5 26t-98.5 10
t-98.5 -10t-77.5 -26t-58.5 -44t-42.5 -54.5t-29 -67.5t-18 -73.5t-9.5 -81.5t-4 -82.5t-0.5 -86.5q0 -51 1 -89t5 -87t11 -86t19 -78.5t29.5 -71.5t43 -59t58 -46.5t76 -28.5t95.5 -11z" />
    <glyph glyph-name="Oacute" unicode="&#xd3;" horiz-adv-x="1042" 
d="M522 1305h-78l72 104h107zM522 0q-78 0 -141 18.5t-106.5 49t-75 77.5t-50 96.5t-29 115t-13.5 124t-3 131.5q0 65 2.5 113.5t9 108t19.5 103t33.5 89.5t52 78t73 58t99.5 39t129 13q64 0 117 -11t92.5 -29.5t71 -48.5t53 -61.5t37 -76t24.5 -84.5t14 -93.5t7 -96.5
t2 -101q0 -73 -3 -131.5t-13.5 -124t-29 -115t-50 -96.5t-75 -77.5t-106.5 -49t-141 -18.5zM522 66q52 0 95.5 11t76 28.5t58 46.5t43 59t29.5 71.5t19 78.5t11 86t5 87t1 89q0 53 -0.5 86.5t-4 82.5t-9.5 81.5t-18 73.5t-29 67.5t-42.5 54.5t-58.5 44t-77.5 26t-98.5 10
t-98.5 -10t-77.5 -26t-58.5 -44t-42.5 -54.5t-29 -67.5t-18 -73.5t-9.5 -81.5t-4 -82.5t-0.5 -86.5q0 -51 1 -89t5 -87t11 -86t19 -78.5t29.5 -71.5t43 -59t58 -46.5t76 -28.5t95.5 -11z" />
    <glyph glyph-name="Ocircumflex" unicode="&#xd4;" horiz-adv-x="1042" 
d="M492 1298h-82l88 105h49l92 -105h-84l-31 48zM522 0q-78 0 -141 18.5t-106.5 49t-75 77.5t-50 96.5t-29 115t-13.5 124t-3 131.5q0 65 2.5 113.5t9 108t19.5 103t33.5 89.5t52 78t73 58t99.5 39t129 13q64 0 117 -11t92.5 -29.5t71 -48.5t53 -61.5t37 -76t24.5 -84.5
t14 -93.5t7 -96.5t2 -101q0 -73 -3 -131.5t-13.5 -124t-29 -115t-50 -96.5t-75 -77.5t-106.5 -49t-141 -18.5zM522 66q52 0 95.5 11t76 28.5t58 46.5t43 59t29.5 71.5t19 78.5t11 86t5 87t1 89q0 53 -0.5 86.5t-4 82.5t-9.5 81.5t-18 73.5t-29 67.5t-42.5 54.5t-58.5 44
t-77.5 26t-98.5 10t-98.5 -10t-77.5 -26t-58.5 -44t-42.5 -54.5t-29 -67.5t-18 -73.5t-9.5 -81.5t-4 -82.5t-0.5 -86.5q0 -51 1 -89t5 -87t11 -86t19 -78.5t29.5 -71.5t43 -59t58 -46.5t76 -28.5t95.5 -11z" />
    <glyph glyph-name="Otilde" unicode="&#xd5;" horiz-adv-x="1042" 
d="M309 1303v86q62 57 121 57q41 0 106 -36t95 -36q51 0 102 70v-88q-54 -51 -102 -51q-36 0 -101 35.5t-100 35.5q-61 0 -121 -73zM522 0q-78 0 -141 18.5t-106.5 49t-75 77.5t-50 96.5t-29 115t-13.5 124t-3 131.5q0 65 2.5 113.5t9 108t19.5 103t33.5 89.5t52 78t73 58
t99.5 39t129 13q64 0 117 -11t92.5 -29.5t71 -48.5t53 -61.5t37 -76t24.5 -84.5t14 -93.5t7 -96.5t2 -101q0 -73 -3 -131.5t-13.5 -124t-29 -115t-50 -96.5t-75 -77.5t-106.5 -49t-141 -18.5zM522 66q52 0 95.5 11t76 28.5t58 46.5t43 59t29.5 71.5t19 78.5t11 86t5 87t1 89
q0 53 -0.5 86.5t-4 82.5t-9.5 81.5t-18 73.5t-29 67.5t-42.5 54.5t-58.5 44t-77.5 26t-98.5 10t-98.5 -10t-77.5 -26t-58.5 -44t-42.5 -54.5t-29 -67.5t-18 -73.5t-9.5 -81.5t-4 -82.5t-0.5 -86.5q0 -51 1 -89t5 -87t11 -86t19 -78.5t29.5 -71.5t43 -59t58 -46.5t76 -28.5
t95.5 -11z" />
    <glyph glyph-name="Odieresis" unicode="&#xd6;" horiz-adv-x="1042" 
d="M434 1303q-34 0 -48 24.5t0 49t48 24.5q32 0 45.5 -24.5t0 -49t-45.5 -24.5zM612 1303q-33 0 -46.5 24.5t0 49t46.5 24.5q32 0 45.5 -24.5t0 -49t-45.5 -24.5zM522 0q-78 0 -141 18.5t-106.5 49t-75 77.5t-50 96.5t-29 115t-13.5 124t-3 131.5q0 65 2.5 113.5t9 108
t19.5 103t33.5 89.5t52 78t73 58t99.5 39t129 13q64 0 117 -11t92.5 -29.5t71 -48.5t53 -61.5t37 -76t24.5 -84.5t14 -93.5t7 -96.5t2 -101q0 -73 -3 -131.5t-13.5 -124t-29 -115t-50 -96.5t-75 -77.5t-106.5 -49t-141 -18.5zM522 66q52 0 95.5 11t76 28.5t58 46.5t43 59
t29.5 71.5t19 78.5t11 86t5 87t1 89q0 53 -0.5 86.5t-4 82.5t-9.5 81.5t-18 73.5t-29 67.5t-42.5 54.5t-58.5 44t-77.5 26t-98.5 10t-98.5 -10t-77.5 -26t-58.5 -44t-42.5 -54.5t-29 -67.5t-18 -73.5t-9.5 -81.5t-4 -82.5t-0.5 -86.5q0 -51 1 -89t5 -87t11 -86t19 -78.5
t29.5 -71.5t43 -59t58 -46.5t76 -28.5t95.5 -11z" />
    <glyph glyph-name="multiply" unicode="&#xd7;" horiz-adv-x="722" 
d="M360 528l-340 -276v90l287 231l-287 232v86l340 -275l340 275v-86l-284 -232l284 -231v-90z" />
    <glyph glyph-name="Oslash" unicode="&#xd8;" horiz-adv-x="1042" 
d="M522 0q-107 0 -182 35l-14 -35h-78l26 70q-53 38 -88.5 97t-52.5 133.5t-23.5 147.5t-5.5 164q0 65 2.5 113.5t9 108t19.5 103t33.5 89.5t52 78t73 58t99.5 39t129 13q100 0 185 -30l10 30h80l-25 -65q44 -30 75.5 -76t49 -93.5t27.5 -115t12.5 -121.5t3.5 -131
q0 -73 -3 -131.5t-13.5 -124t-29 -115t-50 -96.5t-75 -77.5t-106.5 -49t-141 -18.5zM303 143l377 977q-66 29 -158 29q-54 0 -98.5 -10t-77.5 -26t-58.5 -44t-42.5 -54.5t-29 -67.5t-18 -73.5t-9.5 -81.5t-4 -82.5t-0.5 -86.5q0 -65 1.5 -111t8.5 -106t19 -103.5t35 -87
t55 -72.5zM522 66q52 0 95.5 11t76 28.5t58 46.5t43 59t29.5 71.5t19 78.5t11 86t5 87t1 89q0 84 -2.5 136t-13 119.5t-36 117t-65.5 83.5l-378 -981q66 -32 157 -32z" />
    <glyph glyph-name="Ugrave" unicode="&#xd9;" horiz-adv-x="1007" 
d="M592 1305h-78l-100 104h106zM133 289v925h74v-925q0 -40 12.5 -78t38 -71.5t70 -53.5t102.5 -20h150q58 0 102.5 20t70 53.5t38 71.5t12.5 78v925h74v-925q0 -53 -18.5 -103.5t-54 -92.5t-94 -67.5t-130.5 -25.5h-150q-72 0 -130.5 25.5t-94 67.5t-54 92.5t-18.5 103.5z
" />
    <glyph glyph-name="Uacute" unicode="&#xda;" horiz-adv-x="1007" 
d="M502 1305h-78l72 104h106zM133 289v925h74v-925q0 -40 12.5 -78t38 -71.5t70 -53.5t102.5 -20h150q58 0 102.5 20t70 53.5t38 71.5t12.5 78v925h74v-925q0 -53 -18.5 -103.5t-54 -92.5t-94 -67.5t-130.5 -25.5h-150q-72 0 -130.5 25.5t-94 67.5t-54 92.5t-18.5 103.5z
" />
    <glyph glyph-name="Ucircumflex" unicode="&#xdb;" horiz-adv-x="1007" 
d="M475 1303h-82l88 104h49l93 -104h-86l-31 45zM133 289v925h74v-925q0 -40 12.5 -78t38 -71.5t70 -53.5t102.5 -20h150q58 0 102.5 20t70 53.5t38 71.5t12.5 78v925h74v-925q0 -53 -18.5 -103.5t-54 -92.5t-94 -67.5t-130.5 -25.5h-150q-72 0 -130.5 25.5t-94 67.5
t-54 92.5t-18.5 103.5z" />
    <glyph glyph-name="Udieresis" unicode="&#xdc;" horiz-adv-x="1007" 
d="M416 1305q-34 0 -47.5 24.5t0.5 49t47 24.5t46.5 -24.5t0 -49t-46.5 -24.5zM594 1305q-33 0 -46.5 24.5t0 49t46.5 24.5t46.5 -24.5t0 -49t-46.5 -24.5zM133 289v925h74v-925q0 -40 12.5 -78t38 -71.5t70 -53.5t102.5 -20h150q58 0 102.5 20t70 53.5t38 71.5t12.5 78v925
h74v-925q0 -53 -18.5 -103.5t-54 -92.5t-94 -67.5t-130.5 -25.5h-150q-72 0 -130.5 25.5t-94 67.5t-54 92.5t-18.5 103.5z" />
    <glyph glyph-name="Yacute" unicode="&#xdd;" horiz-adv-x="903" 
d="M438 1305h-76l70 104h109zM485 6h-71v594l-394 612h84l347 -538l346 538h84l-396 -616v-590z" />
    <glyph glyph-name="Thorn" unicode="&#xde;" horiz-adv-x="976" 
d="M197 0h-74v1214h74v-215q67 61 194 64h68q395 0 395 -442q-1 -66 -11 -123t-37.5 -115t-70 -98.5t-112.5 -66t-160 -25.5h-266v-193zM197 799v-541h264q309 0 313 369q1 62 -5.5 111.5t-26.5 99.5t-53.5 83.5t-91.5 54.5t-136 21h-64q-64 0 -105 -13t-61 -41.5t-27 -61
t-7 -82.5z" />
    <glyph glyph-name="germandbls" unicode="&#xdf;" horiz-adv-x="1013" 
d="M195 0h-74v987q2 113 45.5 168.5t159.5 58.5h284q147 0 211 -64.5t64 -195.5v-118q0 -81 -24 -139t-87 -89q113 -59 113 -233l-2 -111q0 -128 -60 -196t-215 -68h-274v66h274q64 0 105.5 13t62 41t28 61t7.5 83v111q0 50 -7.5 83t-28 61t-62 41t-105.5 13h-135v66h135
q64 0 105.5 13.5t62 41.5t28 61t7.5 83v112q0 50 -7.5 83t-28 61t-62 41.5t-105.5 13.5h-282q-45 0 -72.5 -11.5t-40.5 -36.5t-16.5 -50.5t-3.5 -67.5v-983z" />
    <glyph glyph-name="agrave" unicode="&#xe0;" horiz-adv-x="860" 
d="M514 969h-78l-100 104h106zM197 606h-74q0 127 60 195.5t214 68.5h103q155 0 214.5 -68t59.5 -196v-342q0 -128 -59.5 -196t-214.5 -68h-152q-67 0 -118 22.5t-79.5 59.5t-42.5 80.5t-14 91.5q0 50 15.5 96.5t46 86.5t84 64.5t122.5 24.5h338v80q0 50 -7 83t-27.5 61
t-61.5 41.5t-104 13.5h-103q-63 0 -104 -13.5t-61.5 -41.5t-27.5 -61t-7 -83zM700 264v203h-338q-92 0 -142 -64.5t-52 -150.5q-2 -80 43 -133t139 -53h150q64 0 104.5 13t61 41.5t27.5 61t7 82.5z" />
    <glyph glyph-name="aacute" unicode="&#xe1;" horiz-adv-x="860" 
d="M457 969h-76l70 104h106zM197 606h-74q0 127 60 195.5t214 68.5h103q155 0 214.5 -68t59.5 -196v-342q0 -128 -59.5 -196t-214.5 -68h-152q-67 0 -118 22.5t-79.5 59.5t-42.5 80.5t-14 91.5q0 50 15.5 96.5t46 86.5t84 64.5t122.5 24.5h338v80q0 50 -7 83t-27.5 61
t-61.5 41.5t-104 13.5h-103q-63 0 -104 -13.5t-61.5 -41.5t-27.5 -61t-7 -83zM700 264v203h-338q-92 0 -142 -64.5t-52 -150.5q-2 -80 43 -133t139 -53h150q64 0 104.5 13t61 41.5t27.5 61t7 82.5z" />
    <glyph glyph-name="acircumflex" unicode="&#xe2;" horiz-adv-x="860" 
d="M428 969h-92l96 104h49l101 -104h-93l-30 47zM197 606h-74q0 127 60 195.5t214 68.5h103q155 0 214.5 -68t59.5 -196v-342q0 -128 -59.5 -196t-214.5 -68h-152q-67 0 -118 22.5t-79.5 59.5t-42.5 80.5t-14 91.5q0 50 15.5 96.5t46 86.5t84 64.5t122.5 24.5h338v80
q0 50 -7 83t-27.5 61t-61.5 41.5t-104 13.5h-103q-63 0 -104 -13.5t-61.5 -41.5t-27.5 -61t-7 -83zM700 264v203h-338q-92 0 -142 -64.5t-52 -150.5q-2 -80 43 -133t139 -53h150q64 0 104.5 13t61 41.5t27.5 61t7 82.5z" />
    <glyph glyph-name="atilde" unicode="&#xe3;" horiz-adv-x="860" 
d="M221 958v86q63 58 121 58q42 0 107 -36t94 -36q51 0 102 70v-86q-54 -51 -102 -51q-36 0 -100 34.5t-99 34.5q-60 0 -123 -74zM197 606h-74q0 127 60 195.5t214 68.5h103q155 0 214.5 -68t59.5 -196v-342q0 -128 -59.5 -196t-214.5 -68h-152q-67 0 -118 22.5t-79.5 59.5
t-42.5 80.5t-14 91.5q0 50 15.5 96.5t46 86.5t84 64.5t122.5 24.5h338v80q0 50 -7 83t-27.5 61t-61.5 41.5t-104 13.5h-103q-63 0 -104 -13.5t-61.5 -41.5t-27.5 -61t-7 -83zM700 264v203h-338q-92 0 -142 -64.5t-52 -150.5q-2 -80 43 -133t139 -53h150q64 0 104.5 13
t61 41.5t27.5 61t7 82.5z" />
    <glyph glyph-name="adieresis" unicode="&#xe4;" horiz-adv-x="860" 
d="M360 969q-34 0 -48 24.5t0 49t48 24.5q32 0 45.5 -24.5t0 -49t-45.5 -24.5zM537 969q-33 0 -46.5 24.5t0 49t46.5 24.5t46.5 -24.5t0 -49t-46.5 -24.5zM197 606h-74q0 127 60 195.5t214 68.5h103q155 0 214.5 -68t59.5 -196v-342q0 -128 -59.5 -196t-214.5 -68h-152
q-67 0 -118 22.5t-79.5 59.5t-42.5 80.5t-14 91.5q0 50 15.5 96.5t46 86.5t84 64.5t122.5 24.5h338v80q0 50 -7 83t-27.5 61t-61.5 41.5t-104 13.5h-103q-63 0 -104 -13.5t-61.5 -41.5t-27.5 -61t-7 -83zM700 264v203h-338q-92 0 -142 -64.5t-52 -150.5q-2 -80 43 -133
t139 -53h150q64 0 104.5 13t61 41.5t27.5 61t7 82.5z" />
    <glyph glyph-name="aring" unicode="&#xe5;" horiz-adv-x="860" 
d="M451 969q-46 0 -76.5 24t-37.5 58.5t1 68.5t39 58t76 24q47 0 79.5 -24t40 -58t-0.5 -68.5t-40.5 -58.5t-80.5 -24zM455 1026q23 0 38.5 12.5t19.5 30t1 34.5t-18.5 29.5t-38.5 12.5t-38.5 -12.5t-19.5 -29.5t-1 -34.5t18.5 -30t38.5 -12.5zM197 606h-74q0 127 60 195.5
t214 68.5h103q155 0 214.5 -68t59.5 -196v-342q0 -128 -59.5 -196t-214.5 -68h-152q-67 0 -118 22.5t-79.5 59.5t-42.5 80.5t-14 91.5q0 50 15.5 96.5t46 86.5t84 64.5t122.5 24.5h338v80q0 50 -7 83t-27.5 61t-61.5 41.5t-104 13.5h-103q-63 0 -104 -13.5t-61.5 -41.5
t-27.5 -61t-7 -83zM700 264v203h-338q-92 0 -142 -64.5t-52 -150.5q-2 -80 43 -133t139 -53h150q64 0 104.5 13t61 41.5t27.5 61t7 82.5z" />
    <glyph glyph-name="ae" unicode="&#xe6;" horiz-adv-x="1482" 
d="M197 606h-74q0 127 60 195.5t214 68.5h103q179 0 237 -106q54 106 234 106h211q64 0 105.5 -16.5t60 -48t25 -61t7.5 -72.5q0 -34 -3.5 -60t-16 -55t-33.5 -47.5t-59 -30.5t-90 -12h-404v-197q0 -119 46.5 -161.5t150.5 -42.5h135q64 0 105.5 13t62 41t28 61t7.5 83h71
q0 -128 -59.5 -196t-214.5 -68h-135q-176 0 -232 109q-59 -109 -239 -109h-152q-67 0 -118 22.5t-79.5 59.5t-42.5 80.5t-14 91.5q0 50 15.5 96.5t46 86.5t84 64.5t122.5 24.5h338v80q0 50 -7 83t-27.5 61t-61.5 41.5t-104 13.5h-103q-63 0 -104 -13.5t-61.5 -41.5
t-27.5 -61t-7 -83zM774 604v-78h404q81 0 106 37t25 109q0 27 -1.5 43.5t-9 35.5t-20.5 29.5t-37 17.5t-59 7h-211q-105 0 -151 -41.5t-46 -159.5zM700 264v203h-338q-92 0 -142 -64.5t-52 -150.5q-2 -80 43 -133t139 -53h150q64 0 104.5 13t61 41.5t27.5 61t7 82.5z" />
    <glyph glyph-name="ccedilla" unicode="&#xe7;" horiz-adv-x="739" 
d="M659 66v-66h-108l-47 -70q53 0 83.5 -22.5t30.5 -63.5q0 -23 -10.5 -41t-23.5 -29t-37.5 -19t-40.5 -11.5t-46.5 -5.5t-41 -2h-37.5v57q168 0 168 55q0 53 -137 35l73 117h-26q-96 0 -167 27t-110.5 68t-63 102.5t-29.5 118t-5 126.5q1 67 9.5 121t32.5 114t63.5 100
t108 66.5t159.5 26.5h202v-65h-202q-72 0 -125.5 -21t-85 -54t-51 -83.5t-26.5 -99t-9 -111.5q-1 -64 3.5 -111.5t22 -99t49 -84.5t88 -54t134.5 -21h202z" />
    <glyph glyph-name="egrave" unicode="&#xe8;" horiz-adv-x="864" 
d="M514 969h-78l-100 104h106zM557 467h-401v-197q0 -119 46 -161.5t150 -42.5h133q64 0 105.5 13t62 41t28 61t7.5 83h72q0 -128 -60 -196t-215 -68h-133q-142 0 -206 66t-64 204v334q0 138 63.5 202t206.5 64h211q63 0 104.5 -16.5t60 -48t25 -61t7.5 -72.5q0 -43 -7 -75
t-26.5 -64t-62.5 -49t-107 -17zM156 604v-78h401q81 0 106 37t25 109q0 27 -1.5 43.5t-9 35.5t-20.5 29.5t-37 17.5t-59 7h-209q-105 0 -150.5 -41t-45.5 -160z" />
    <glyph glyph-name="eacute" unicode="&#xe9;" horiz-adv-x="864" 
d="M424 969h-76l70 104h106zM557 467h-401v-197q0 -119 46 -161.5t150 -42.5h133q64 0 105.5 13t62 41t28 61t7.5 83h72q0 -128 -60 -196t-215 -68h-133q-142 0 -206 66t-64 204v334q0 138 63.5 202t206.5 64h211q63 0 104.5 -16.5t60 -48t25 -61t7.5 -72.5q0 -43 -7 -75
t-26.5 -64t-62.5 -49t-107 -17zM156 604v-78h401q81 0 106 37t25 109q0 27 -1.5 43.5t-9 35.5t-20.5 29.5t-37 17.5t-59 7h-209q-105 0 -150.5 -41t-45.5 -160z" />
    <glyph glyph-name="ecircumflex" unicode="&#xea;" horiz-adv-x="864" 
d="M418 969h-82l86 104h49l92 -104h-84l-30 47zM557 467h-401v-197q0 -119 46 -161.5t150 -42.5h133q64 0 105.5 13t62 41t28 61t7.5 83h72q0 -128 -60 -196t-215 -68h-133q-142 0 -206 66t-64 204v334q0 138 63.5 202t206.5 64h211q63 0 104.5 -16.5t60 -48t25 -61
t7.5 -72.5q0 -43 -7 -75t-26.5 -64t-62.5 -49t-107 -17zM156 604v-78h401q81 0 106 37t25 109q0 27 -1.5 43.5t-9 35.5t-20.5 29.5t-37 17.5t-59 7h-209q-105 0 -150.5 -41t-45.5 -160z" />
    <glyph glyph-name="edieresis" unicode="&#xeb;" horiz-adv-x="864" 
d="M352 967q-34 0 -48 24.5t0 49t48 24.5q32 0 45.5 -24.5t0 -49t-45.5 -24.5zM530 967q-34 0 -48 24.5t0 49t48 24.5q32 0 45.5 -24.5t0 -49t-45.5 -24.5zM557 467h-401v-197q0 -119 46 -161.5t150 -42.5h133q64 0 105.5 13t62 41t28 61t7.5 83h72q0 -128 -60 -196
t-215 -68h-133q-142 0 -206 66t-64 204v334q0 138 63.5 202t206.5 64h211q63 0 104.5 -16.5t60 -48t25 -61t7.5 -72.5q0 -43 -7 -75t-26.5 -64t-62.5 -49t-107 -17zM156 604v-78h401q81 0 106 37t25 109q0 27 -1.5 43.5t-9 35.5t-20.5 29.5t-37 17.5t-59 7h-209
q-105 0 -150.5 -41t-45.5 -160z" />
    <glyph glyph-name="igrave" unicode="&#xec;" horiz-adv-x="352" 
d="M266 969h-78l-102 104h109zM215 0h-74v870h74v-870z" />
    <glyph glyph-name="iacute" unicode="&#xed;" horiz-adv-x="352" 
d="M164 969h-78l72 104h108zM215 0h-74v870h74v-870z" />
    <glyph glyph-name="icircumflex" unicode="&#xee;" horiz-adv-x="352" 
d="M145 969h-82l89 104h49l92 -104h-84l-31 47zM215 0h-74v870h74v-870z" />
    <glyph glyph-name="idieresis" unicode="&#xef;" horiz-adv-x="352" 
d="M88 969q-34 0 -48 24.5t0 49t48 24.5q32 0 45.5 -24.5t0 -49t-45.5 -24.5zM266 969q-33 0 -46.5 24.5t0 49t46.5 24.5t46.5 -24.5t0 -49t-46.5 -24.5zM215 2h-74v868h74v-868z" />
    <glyph glyph-name="eth" unicode="&#xf0;" horiz-adv-x="946" 
d="M502 874h-90l170 205q-62 32 -160 35h-86v66h90q118 -3 201 -47l65 81h90l-96 -118q38 -28 65.5 -71t42 -83.5t23 -101.5t10.5 -102.5t4 -108.5v-66q0 -65 -3.5 -118t-13.5 -113t-26 -106t-43 -90t-64 -72.5t-90.5 -46t-119.5 -17.5h-94q-54 0 -99.5 19.5t-75 51
t-50.5 73t-30 84t-9 85.5q1 42 10 84.5t30.5 85t51.5 74.5t76 52t102 20h373q-1 10 -3 59t-3 63t-4.5 55.5t-8 58t-13 49.5t-19 51t-26.5 39.5t-36 37.5zM756 565h-373q-90 0 -140.5 -76.5t-52.5 -177.5q0 -98 49 -171.5t140 -73.5h92q41 0 76 10t61.5 26t47.5 42t35.5 53
t26 64.5t17.5 70t11 77t6.5 78t3.5 78.5z" />
    <glyph glyph-name="ntilde" unicode="&#xf1;" horiz-adv-x="886" 
d="M227 967v86q62 57 121 57q41 0 106 -36t95 -36q51 0 102 70v-88q-49 -49 -102 -49q-36 0 -100 34.5t-99 34.5q-61 0 -123 -73zM176 0h-74v606q0 61 12.5 106.5t42.5 82.5t85.5 56t136.5 19h129q158 0 217 -62.5t59 -201.5v-606h-73v606q0 41 -3 67t-15 53.5t-33.5 43
t-59 25.5t-92.5 10h-127q-64 0 -106 -13.5t-63 -41.5t-28.5 -61t-7.5 -83v-606z" />
    <glyph glyph-name="ograve" unicode="&#xf2;" horiz-adv-x="892" 
d="M537 967h-78l-101 106h107zM496 6h-99q-66 0 -116 13t-83 31t-55.5 55.5t-34 66t-17 83.5t-6.5 88t-1 99q0 57 1.5 95t8.5 88t19 82.5t35 67.5t56 55.5t81.5 33.5t111.5 13h99q63 0 111.5 -13t81.5 -33.5t56 -55.5t35 -67.5t19 -82.5t8.5 -88t1.5 -95q0 -66 -1 -99
t-6.5 -88t-17 -83.5t-34 -66t-55.5 -55.5t-83 -31t-116 -13zM397 72h99q51 0 89.5 9.5t63.5 26.5t43 41t26 52.5t13 61.5t4.5 68.5t-0.5 71.5v39q0 150 -14 209q-31 128 -152 153q-34 7 -73 7h-99q-69 0 -116.5 -23t-71 -51.5t-36 -86t-14 -94t-1.5 -107.5v-7q0 -143 3 -173
q13 -125 93 -168q54 -29 143 -29z" />
    <glyph glyph-name="oacute" unicode="&#xf3;" horiz-adv-x="892" 
d="M438 969h-78l72 104h107zM496 6h-99q-66 0 -116 13t-83 31t-55.5 55.5t-34 66t-17 83.5t-6.5 88t-1 99q0 57 1.5 95t8.5 88t19 82.5t35 67.5t56 55.5t81.5 33.5t111.5 13h99q63 0 111.5 -13t81.5 -33.5t56 -55.5t35 -67.5t19 -82.5t8.5 -88t1.5 -95q0 -66 -1 -99
t-6.5 -88t-17 -83.5t-34 -66t-55.5 -55.5t-83 -31t-116 -13zM397 72h99q51 0 89.5 9.5t63.5 26.5t43 41t26 52.5t13 61.5t4.5 68.5t-0.5 71.5v39q0 150 -14 209q-31 128 -152 153q-34 7 -73 7h-99q-69 0 -116.5 -23t-71 -51.5t-36 -86t-14 -94t-1.5 -107.5v-7q0 -143 3 -173
q13 -125 93 -168q54 -29 143 -29z" />
    <glyph glyph-name="ocircumflex" unicode="&#xf4;" horiz-adv-x="892" 
d="M414 969h-82l86 104h49l92 -104h-84l-31 47zM496 6h-99q-66 0 -116 13t-83 31t-55.5 55.5t-34 66t-17 83.5t-6.5 88t-1 99q0 57 1.5 95t8.5 88t19 82.5t35 67.5t56 55.5t81.5 33.5t111.5 13h99q63 0 111.5 -13t81.5 -33.5t56 -55.5t35 -67.5t19 -82.5t8.5 -88t1.5 -95
q0 -66 -1 -99t-6.5 -88t-17 -83.5t-34 -66t-55.5 -55.5t-83 -31t-116 -13zM397 72h99q51 0 89.5 9.5t63.5 26.5t43 41t26 52.5t13 61.5t4.5 68.5t-0.5 71.5v39q0 150 -14 209q-31 128 -152 153q-34 7 -73 7h-99q-69 0 -116.5 -23t-71 -51.5t-36 -86t-14 -94t-1.5 -107.5v-7
q0 -143 3 -173q13 -125 93 -168q54 -29 143 -29z" />
    <glyph glyph-name="otilde" unicode="&#xf5;" horiz-adv-x="892" 
d="M233 967v86q62 57 121 57q41 0 106 -36t95 -36q51 0 102 70v-88q-54 -51 -102 -51q-36 0 -100.5 35.5t-100.5 35.5q-59 0 -121 -73zM496 6h-99q-66 0 -116 13t-83 31t-55.5 55.5t-34 66t-17 83.5t-6.5 88t-1 99q0 57 1.5 95t8.5 88t19 82.5t35 67.5t56 55.5t81.5 33.5
t111.5 13h99q63 0 111.5 -13t81.5 -33.5t56 -55.5t35 -67.5t19 -82.5t8.5 -88t1.5 -95q0 -66 -1 -99t-6.5 -88t-17 -83.5t-34 -66t-55.5 -55.5t-83 -31t-116 -13zM397 72h99q51 0 89.5 9.5t63.5 26.5t43 41t26 52.5t13 61.5t4.5 68.5t-0.5 71.5v39q0 150 -14 209
q-31 128 -152 153q-34 7 -73 7h-99q-69 0 -116.5 -23t-71 -51.5t-36 -86t-14 -94t-1.5 -107.5v-7q0 -143 3 -173q13 -125 93 -168q54 -29 143 -29z" />
    <glyph glyph-name="odieresis" unicode="&#xf6;" horiz-adv-x="892" 
d="M358 969q-34 0 -48 24.5t0 49t48 24.5q32 0 45.5 -24.5t0 -49t-45.5 -24.5zM537 969q-34 0 -48 24.5t0 49t48 24.5q32 0 45.5 -24.5t0 -49t-45.5 -24.5zM496 6h-99q-66 0 -116 13t-83 31t-55.5 55.5t-34 66t-17 83.5t-6.5 88t-1 99q0 57 1.5 95t8.5 88t19 82.5t35 67.5
t56 55.5t81.5 33.5t111.5 13h99q63 0 111.5 -13t81.5 -33.5t56 -55.5t35 -67.5t19 -82.5t8.5 -88t1.5 -95q0 -66 -1 -99t-6.5 -88t-17 -83.5t-34 -66t-55.5 -55.5t-83 -31t-116 -13zM397 72h99q51 0 89.5 9.5t63.5 26.5t43 41t26 52.5t13 61.5t4.5 68.5t-0.5 71.5v39
q0 150 -14 209q-31 128 -152 153q-34 7 -73 7h-99q-69 0 -116.5 -23t-71 -51.5t-36 -86t-14 -94t-1.5 -107.5v-7q0 -143 3 -173q13 -125 93 -168q54 -29 143 -29z" />
    <glyph glyph-name="divide" unicode="&#xf7;" horiz-adv-x="727" 
d="M338 823q4 0 4 -1t-4 -1t-4 1t4 1zM705 573h-685v66h685v-66zM338 385q4 0 4 -1t-4 -1t-4 1t4 1z" />
    <glyph glyph-name="oslash" unicode="&#xf8;" horiz-adv-x="892" 
d="M496 6h-99q-67 0 -116 12l-19 -49h-78l29 76q-31 17 -54 40t-37 56.5t-22 61.5t-11.5 76t-4 77t-0.5 86t1.5 95t8.5 88t19 82.5t35 67.5t56 55.5t81.5 33.5t111.5 13h99q21 0 39 -3l24 64h78l-29 -76q40 -10 71.5 -29.5t52.5 -41.5t36 -55.5t23 -63t12 -73.5t5 -76t1 -81
q0 -66 -1 -99t-6.5 -88t-17 -83.5t-34 -66t-55.5 -55.5t-83 -31t-116 -13zM240 113l270 698h-113q-69 0 -116.5 -23t-71 -51.5t-36 -86t-14 -94t-1.5 -107.5v-7q0 -12 -0.5 -49t0 -50.5t2 -45.5t4.5 -47t9 -39.5t14.5 -39t22 -30.5t30.5 -28zM397 72h99q51 0 89.5 9.5
t63.5 26.5t43 41t26 52.5t13 61.5t4.5 68.5t-0.5 71.5v39q0 147 -13 204q-29 122 -138 153l-279 -717q42 -10 92 -10z" />
    <glyph glyph-name="ugrave" unicode="&#xf9;" horiz-adv-x="884" 
d="M524 969h-75l-101 106h107zM102 266v606h74v-606q0 -50 7.5 -83t28.5 -61t63 -41t106 -13h127q68 0 110 13.5t61.5 43t25.5 60t6 81.5v606h73v-606q0 -131 -61 -197.5t-215 -66.5h-129q-81 0 -136.5 19t-85.5 56t-42.5 82.5t-12.5 106.5z" />
    <glyph glyph-name="uacute" unicode="&#xfa;" horiz-adv-x="884" 
d="M451 969h-78l71 106h107zM102 266v606h74v-606q0 -50 7.5 -83t28.5 -61t63 -41t106 -13h127q68 0 110 13.5t61.5 43t25.5 60t6 81.5v606h73v-606q0 -131 -61 -197.5t-215 -66.5h-129q-81 0 -136.5 19t-85.5 56t-42.5 82.5t-12.5 106.5z" />
    <glyph glyph-name="ucircumflex" unicode="&#xfb;" horiz-adv-x="884" 
d="M412 969h-82l88 104h49l92 -104h-84l-31 45zM102 266v606h74v-606q0 -50 7.5 -83t28.5 -61t63 -41t106 -13h127q68 0 110 13.5t61.5 43t25.5 60t6 81.5v606h73v-606q0 -131 -61 -197.5t-215 -66.5h-129q-81 0 -136.5 19t-85.5 56t-42.5 82.5t-12.5 106.5z" />
    <glyph glyph-name="udieresis" unicode="&#xfc;" horiz-adv-x="884" 
d="M360 969q-34 0 -48 24.5t0 49t48 24.5q32 0 45.5 -24.5t0 -49t-45.5 -24.5zM539 969q-34 0 -48 24.5t0 49t48 24.5q32 0 45.5 -24.5t0 -49t-45.5 -24.5zM102 266v606h74v-606q0 -50 7.5 -83t28.5 -61t63 -41t106 -13h127q68 0 110 13.5t61.5 43t25.5 60t6 81.5v606h73
v-606q0 -131 -61 -197.5t-215 -66.5h-129q-81 0 -136.5 19t-85.5 56t-42.5 82.5t-12.5 106.5z" />
    <glyph glyph-name="yacute" unicode="&#xfd;" horiz-adv-x="907" 
d="M449 969h-76l69 106h109zM102 -78h74q0 -50 7.5 -83t28 -61t62 -41t105.5 -13h94q126 0 182 47t56 137v158q-61 -64 -203 -64h-129q-81 0 -136.5 19t-85.5 56t-42.5 82.5t-12.5 106.5v606h74v-606q0 -50 7.5 -83t28.5 -61t63 -41t106 -13h127q68 0 110 13.5t61.5 43
t25.5 60t6 81.5v606h73v-962q0 -123 -77.5 -187.5t-231.5 -64.5h-96q-81 0 -136.5 19t-85.5 56t-42.5 82.5t-12.5 106.5z" />
    <glyph glyph-name="thorn" unicode="&#xfe;" horiz-adv-x="974" 
d="M197 -340h-74v1552h74v-403q63 60 194 63h68q395 0 395 -442q-1 -66 -11 -123t-37.5 -115t-70 -98.5t-112.5 -66t-160 -25.5h-266v-342zM197 608v-540h264q309 0 313 368q1 62 -5.5 111.5t-26.5 100t-53.5 84t-91.5 54.5t-136 21h-64q-64 0 -105 -13t-61 -42t-27 -61
t-7 -83z" />
    <glyph glyph-name="ydieresis" unicode="&#xff;" horiz-adv-x="907" 
d="M367 969q-34 0 -48 24.5t0 49t48 24.5q32 0 45.5 -24.5t0 -49t-45.5 -24.5zM545 969q-34 0 -48 24.5t0 49t48 24.5q32 0 45.5 -24.5t0 -49t-45.5 -24.5zM102 -78h74q0 -50 7.5 -83t28 -61t62 -41t105.5 -13h94q126 0 182 47t56 137v158q-61 -64 -203 -64h-129
q-81 0 -136.5 19t-85.5 56t-42.5 82.5t-12.5 106.5v606h74v-606q0 -50 7.5 -83t28.5 -61t63 -41t106 -13h127q68 0 110 13.5t61.5 43t25.5 60t6 81.5v606h73v-962q0 -123 -77.5 -187.5t-231.5 -64.5h-96q-81 0 -136.5 19t-85.5 56t-42.5 82.5t-12.5 106.5z" />
    <glyph glyph-name="Amacron" unicode="&#x100;" horiz-adv-x="1028" 
d="M817 1300h-508v66h508v-66zM578 0h-537l483 1210h82l381 -1210h-76l-348 1112l-418 -1046h433v-66z" />
    <glyph glyph-name="amacron" unicode="&#x101;" horiz-adv-x="860" 
d="M702 969h-503v65h503v-65zM197 606h-74q0 127 60 195.5t214 68.5h103q155 0 214.5 -68t59.5 -196v-342q0 -128 -59.5 -196t-214.5 -68h-152q-67 0 -118 22.5t-79.5 59.5t-42.5 80.5t-14 91.5q0 50 15.5 96.5t46 86.5t84 64.5t122.5 24.5h338v80q0 50 -7 83t-27.5 61
t-61.5 41.5t-104 13.5h-103q-63 0 -104 -13.5t-61.5 -41.5t-27.5 -61t-7 -83zM700 264v203h-338q-92 0 -142 -64.5t-52 -150.5q-2 -80 43 -133t139 -53h150q64 0 104.5 13t61 41.5t27.5 61t7 82.5z" />
    <glyph glyph-name="Abreve" unicode="&#x102;" horiz-adv-x="1028" 
d="M393 1417h62q5 -38 17 -49.5t60 -11.5h64q44 0 56.5 13t17.5 48h59q-4 -32 -8 -48.5t-17 -35t-39.5 -26t-68.5 -7.5h-64q-56 0 -85.5 14.5t-39 37t-14.5 65.5zM578 0h-537l483 1210h82l381 -1210h-76l-348 1112l-418 -1046h433v-66z" />
    <glyph glyph-name="abreve" unicode="&#x103;" horiz-adv-x="860" 
d="M279 1085h59q5 -27 9 -37t20.5 -17t50.5 -7h61q44 0 56.5 13t17.5 48h59q-4 -32 -8 -48.5t-17 -34.5t-39.5 -25.5t-68.5 -7.5h-61q-82 0 -108 26.5t-31 89.5zM197 606h-74q0 127 60 195.5t214 68.5h103q155 0 214.5 -68t59.5 -196v-342q0 -128 -59.5 -196t-214.5 -68
h-152q-67 0 -118 22.5t-79.5 59.5t-42.5 80.5t-14 91.5q0 50 15.5 96.5t46 86.5t84 64.5t122.5 24.5h338v80q0 50 -7 83t-27.5 61t-61.5 41.5t-104 13.5h-103q-63 0 -104 -13.5t-61.5 -41.5t-27.5 -61t-7 -83zM700 264v203h-338q-92 0 -142 -64.5t-52 -150.5q-2 -80 43 -133
t139 -53h150q64 0 104.5 13t61 41.5t27.5 61t7 82.5z" />
    <glyph glyph-name="Aogonek" unicode="&#x104;" horiz-adv-x="1028" 
d="M578 0h-537l483 1212h82l381 -1212q-49 -29 -73 -65t-17 -60q6 -25 33 -25q34 0 74 35v-69q-43 -35 -91 -35q-29 0 -51 14t-31 39q-19 43 1 91t75 87l-344 1102l-418 -1048h433v-66z" />
    <glyph glyph-name="aogonek" unicode="&#x105;" horiz-adv-x="860" 
d="M197 606h-74q0 127 60 195.5t214 68.5h103q155 0 214.5 -68t59.5 -196v-342q0 -170 -100 -225q-47 -29 -70 -65t-18 -60q6 -25 32 -25q34 0 74 35v-69q-43 -35 -90 -35q-60 0 -82 53q-28 63 25 129q-7 0 -22 -1t-23 -1h-152q-67 0 -118 22.5t-79.5 59.5t-42.5 80.5
t-14 91.5q0 50 15.5 96.5t46 86.5t84 64.5t122.5 24.5h338v80q0 50 -7 83t-27.5 61t-61.5 41.5t-104 13.5h-103q-63 0 -104 -13.5t-61.5 -41.5t-27.5 -61t-7 -83zM700 264v203h-338q-92 0 -142 -64.5t-52 -150.5q-2 -80 43 -133t139 -53h150q64 0 104.5 13t61 41.5t27.5 61
t7 82.5z" />
    <glyph glyph-name="Cacute" unicode="&#x106;" 
d="M559 1305h-76l70 104h109zM852 66v-66h-330q-81 0 -145 18t-107 46.5t-74 75.5t-48.5 93.5t-27.5 113t-13 120.5t-3 129q0 73 3 131.5t13.5 124.5t29 116.5t50 98.5t75 79t106.5 49.5t141 18.5h330v-65h-330q-67 0 -120 -18t-88 -45.5t-60 -73.5t-38.5 -89t-21 -105.5
t-9 -109.5t-1.5 -114q0 -52 0.5 -86.5t4 -83.5t10 -82t18.5 -74t29 -67.5t42.5 -54.5t58.5 -44t77 -26t98 -10h330z" />
    <glyph glyph-name="cacute" unicode="&#x107;" horiz-adv-x="739" 
d="M449 969h-76l69 104h109zM657 66v-66h-198q-96 0 -167 27t-110.5 68t-63 102.5t-29.5 118t-5 126.5q1 67 9.5 121t32.5 114t63.5 100t108 66.5t159.5 26.5h200v-65h-200q-72 0 -125.5 -21t-85 -54t-51 -83.5t-26.5 -99t-9 -111.5q-1 -64 3.5 -111.5t22 -99t49 -84.5
t88 -54t134.5 -21h200z" />
    <glyph glyph-name="Ccircumflex" unicode="&#x108;" 
d="M506 1300h-82l88 105h49l92 -105h-84l-30 48zM852 66v-66h-330q-81 0 -145 18t-107 46.5t-74 75.5t-48.5 93.5t-27.5 113t-13 120.5t-3 129q0 73 3 131.5t13.5 124.5t29 116.5t50 98.5t75 79t106.5 49.5t141 18.5h330v-65h-330q-67 0 -120 -18t-88 -45.5t-60 -73.5
t-38.5 -89t-21 -105.5t-9 -109.5t-1.5 -114q0 -52 0.5 -86.5t4 -83.5t10 -82t18.5 -74t29 -67.5t42.5 -54.5t58.5 -44t77 -26t98 -10h330z" />
    <glyph glyph-name="ccircumflex" unicode="&#x109;" horiz-adv-x="739" 
d="M414 969h-82l88 104h49l92 -104h-84l-31 47zM657 66v-66h-198q-96 0 -167 27t-110.5 68t-63 102.5t-29.5 118t-5 126.5q1 67 9.5 121t32.5 114t63.5 100t108 66.5t159.5 26.5h200v-65h-200q-72 0 -125.5 -21t-85 -54t-51 -83.5t-26.5 -99t-9 -111.5q-1 -64 3.5 -111.5
t22 -99t49 -84.5t88 -54t134.5 -21h200z" />
    <glyph glyph-name="Cdotaccent" unicode="&#x10a;" 
d="M559 1300q-34 0 -48 25t0 49.5t48 24.5q33 0 46.5 -24.5t0 -49.5t-46.5 -25zM852 66v-66h-330q-81 0 -145 18t-107 46.5t-74 75.5t-48.5 93.5t-27.5 113t-13 120.5t-3 129q0 73 3 131.5t13.5 124.5t29 116.5t50 98.5t75 79t106.5 49.5t141 18.5h330v-65h-330
q-67 0 -120 -18t-88 -45.5t-60 -73.5t-38.5 -89t-21 -105.5t-9 -109.5t-1.5 -114q0 -52 0.5 -86.5t4 -83.5t10 -82t18.5 -74t29 -67.5t42.5 -54.5t58.5 -44t77 -26t98 -10h330z" />
    <glyph glyph-name="cdotaccent" unicode="&#x10b;" horiz-adv-x="739" 
d="M436 969q-35 0 -49 24.5t0.5 49t48.5 24.5q32 0 45.5 -24.5t0 -49t-45.5 -24.5zM657 66v-66h-198q-96 0 -167 27t-110.5 68t-63 102.5t-29.5 118t-5 126.5q1 67 9.5 121t32.5 114t63.5 100t108 66.5t159.5 26.5h200v-65h-200q-72 0 -125.5 -21t-85 -54t-51 -83.5
t-26.5 -99t-9 -111.5q-1 -64 3.5 -111.5t22 -99t49 -84.5t88 -54t134.5 -21h200z" />
    <glyph glyph-name="Ccaron" unicode="&#x10c;" 
d="M530 1300l-86 105h82l31 -45l31 45h84l-90 -105h-52zM852 66v-66h-330q-81 0 -145 18t-107 46.5t-74 75.5t-48.5 93.5t-27.5 113t-13 120.5t-3 129q0 73 3 131.5t13.5 124.5t29 116.5t50 98.5t75 79t106.5 49.5t141 18.5h330v-65h-330q-67 0 -120 -18t-88 -45.5
t-60 -73.5t-38.5 -89t-21 -105.5t-9 -109.5t-1.5 -114q0 -52 0.5 -86.5t4 -83.5t10 -82t18.5 -74t29 -67.5t42.5 -54.5t58.5 -44t77 -26t98 -10h330z" />
    <glyph glyph-name="ccaron" unicode="&#x10d;" horiz-adv-x="739" 
d="M455 969h-52l-86 104h82l31 -47l31 47h84zM657 66v-66h-198q-96 0 -167 27t-110.5 68t-63 102.5t-29.5 118t-5 126.5q1 67 9.5 121t32.5 114t63.5 100t108 66.5t159.5 26.5h200v-65h-200q-72 0 -125.5 -21t-85 -54t-51 -83.5t-26.5 -99t-9 -111.5q-1 -64 3.5 -111.5
t22 -99t49 -84.5t88 -54t134.5 -21h200z" />
    <glyph glyph-name="Dcaron" unicode="&#x10e;" horiz-adv-x="987" 
d="M479 1303h-49l-88 104h84l31 -47l30 47h84zM467 0h-324v1214h324q64 0 117 -11t92.5 -29.5t71 -48.5t53 -61.5t37 -76t24.5 -84.5t14 -93.5t7 -96.5t2 -101q0 -73 -3 -131.5t-13.5 -124t-29 -115t-50 -96.5t-75 -77.5t-106.5 -49t-141 -18.5zM217 1149v-1083h250
q53 0 96.5 11t76 28.5t58 47t43 59t29.5 72t19 78.5t10.5 85.5t4.5 87t1 88.5q0 53 -0.5 86.5t-4 82.5t-9.5 81.5t-18 73.5t-29 67.5t-42.5 54.5t-58.5 44t-77.5 26t-98.5 10h-250z" />
    <glyph glyph-name="dcaron" unicode="&#x10f;" horiz-adv-x="1015" 
d="M457 870h233v342h74v-948q0 -62 -12.5 -107t-42 -82t-85.5 -56t-137 -19h-30q-70 0 -127 14t-95.5 37.5t-67 59t-44.5 72t-25.5 83.5t-12.5 87t-3 89q1 67 9 122.5t32.5 114.5t64.5 99t108.5 66t160.5 26zM942 1063h-86l37 149h63zM690 264v541h-233q-75 0 -130.5 -21
t-87.5 -53.5t-51 -83.5t-25 -100.5t-7 -114.5q-1 -63 4.5 -110.5t24 -98t50 -83t88 -53.5t134.5 -21h30q64 0 105.5 13t62 41t28 61t7.5 83z" />
    <glyph glyph-name="Dcroat" unicode="&#x110;" horiz-adv-x="987" 
d="M467 0h-324v547h-71v65h71v602h324q64 0 117 -11t92.5 -29.5t71 -48.5t53 -61.5t37 -76t24.5 -84.5t14 -93.5t7 -96.5t2 -101q0 -73 -3 -131.5t-13.5 -124t-29 -115t-50 -96.5t-75 -77.5t-106.5 -49t-141 -18.5zM217 547v-481h250q67 0 120 18t88 45.5t60 73.5t38.5 89
t21 105.5t9 109.5t1.5 114q0 69 -1.5 111.5t-8 105t-19.5 101t-37.5 83t-60 69t-89 41.5t-122.5 17h-250v-537h338v-65h-338z" />
    <glyph glyph-name="dcroat" unicode="&#x111;" horiz-adv-x="864" 
d="M457 870h233v220h-375v65h375v57h74v-57h57v-65h-57v-826q0 -62 -12.5 -107t-42 -82t-85.5 -56t-137 -19h-30q-70 0 -127 14t-95.5 37.5t-67 59t-44.5 72t-25.5 83.5t-12.5 87t-3 89q1 67 9 122.5t32.5 114.5t64.5 99t108.5 66t160.5 26zM690 264v541h-233
q-75 0 -130.5 -21t-87.5 -53.5t-51 -83.5t-25 -100.5t-7 -114.5q-1 -63 4.5 -110.5t24 -98t50 -83t88 -53.5t134.5 -21h30q64 0 105.5 13t62 41t28 61t7.5 83z" />
    <glyph glyph-name="Emacron" unicode="&#x112;" 
d="M745 1300h-507v66h507v-66zM842 565h-666v-301q0 -50 7.5 -83t28 -61t62 -41t105.5 -13h463v-66h-463q-81 0 -136.5 19t-85.5 56t-42.5 82.5t-12.5 106.5v686q0 61 12.5 106.5t42.5 82.5t85.5 56t136.5 19h465v-65h-465q-64 0 -105.5 -13.5t-62 -41.5t-28 -61t-7.5 -83
v-321h666v-64z" />
    <glyph glyph-name="emacron" unicode="&#x113;" horiz-adv-x="864" 
d="M686 969h-506v65h506v-65zM557 467h-401v-197q0 -119 46 -161.5t150 -42.5h133q64 0 105.5 13t62 41t28 61t7.5 83h72q0 -128 -60 -196t-215 -68h-133q-142 0 -206 66t-64 204v334q0 138 63.5 202t206.5 64h211q63 0 104.5 -16.5t60 -48t25 -61t7.5 -72.5q0 -43 -7 -75
t-26.5 -64t-62.5 -49t-107 -17zM156 604v-78h401q81 0 106 37t25 109q0 27 -1.5 43.5t-9 35.5t-20.5 29.5t-37 17.5t-59 7h-209q-105 0 -150.5 -41t-45.5 -160z" />
    <glyph glyph-name="Ebreve" unicode="&#x114;" 
d="M344 1417h59q5 -27 9 -37t20.5 -17t50.5 -7h62q24 0 38 3t21 13t9 17.5t5 27.5h62q-4 -32 -8 -48.5t-17.5 -35t-40 -26t-69.5 -7.5h-62q-82 0 -108 26.5t-31 90.5zM842 565h-666v-301q0 -50 7.5 -83t28 -61t62 -41t105.5 -13h463v-66h-463q-81 0 -136.5 19t-85.5 56
t-42.5 82.5t-12.5 106.5v686q0 61 12.5 106.5t42.5 82.5t85.5 56t136.5 19h465v-65h-465q-64 0 -105.5 -13.5t-62 -41.5t-28 -61t-7.5 -83v-321h666v-64z" />
    <glyph glyph-name="ebreve" unicode="&#x115;" horiz-adv-x="864" 
d="M268 1085h60q5 -37 17.5 -49t60.5 -12h63q44 0 56.5 13t17.5 48h59q-4 -32 -8 -48.5t-17 -34.5t-39.5 -25.5t-68.5 -7.5h-63q-81 0 -107 26.5t-31 89.5zM557 467h-401v-197q0 -119 46 -161.5t150 -42.5h133q64 0 105.5 13t62 41t28 61t7.5 83h72q0 -128 -60 -196
t-215 -68h-133q-142 0 -206 66t-64 204v334q0 138 63.5 202t206.5 64h211q63 0 104.5 -16.5t60 -48t25 -61t7.5 -72.5q0 -43 -7 -75t-26.5 -64t-62.5 -49t-107 -17zM156 604v-78h401q81 0 106 37t25 109q0 27 -1.5 43.5t-9 35.5t-20.5 29.5t-37 17.5t-59 7h-209
q-105 0 -150.5 -41t-45.5 -160z" />
    <glyph glyph-name="Edotaccent" unicode="&#x116;" 
d="M518 1300q-34 0 -48 25t0 49.5t48 24.5q32 0 45.5 -24.5t0 -49.5t-45.5 -25zM842 565h-666v-301q0 -50 7.5 -83t28 -61t62 -41t105.5 -13h463v-66h-463q-81 0 -136.5 19t-85.5 56t-42.5 82.5t-12.5 106.5v686q0 61 12.5 106.5t42.5 82.5t85.5 56t136.5 19h465v-65h-465
q-64 0 -105.5 -13.5t-62 -41.5t-28 -61t-7.5 -83v-321h666v-64z" />
    <glyph glyph-name="edotaccent" unicode="&#x117;" horiz-adv-x="864" 
d="M436 967q-34 0 -47.5 24.5t0.5 49t47 24.5t46.5 -24.5t0 -49t-46.5 -24.5zM557 467h-401v-197q0 -119 46 -161.5t150 -42.5h133q64 0 105.5 13t62 41t28 61t7.5 83h72q0 -128 -60 -196t-215 -68h-133q-142 0 -206 66t-64 204v334q0 138 63.5 202t206.5 64h211
q63 0 104.5 -16.5t60 -48t25 -61t7.5 -72.5q0 -43 -7 -75t-26.5 -64t-62.5 -49t-107 -17zM156 604v-78h401q81 0 106 37t25 109q0 27 -1.5 43.5t-9 35.5t-20.5 29.5t-37 17.5t-59 7h-209q-105 0 -150.5 -41t-45.5 -160z" />
    <glyph glyph-name="Eogonek" unicode="&#x118;" 
d="M842 565h-666v-301q0 -50 7.5 -83t28 -61t62 -41t105.5 -13h463v-66h-21q-49 -29 -73 -65t-17 -60q6 -25 31 -25q32 0 72 35v-69q-43 -35 -89 -35q-59 0 -81 53q-17 40 -1.5 84t60.5 82h-344q-81 0 -136.5 19t-85.5 56t-42.5 82.5t-12.5 106.5v686q0 61 12.5 106.5
t42.5 82.5t85.5 56t136.5 19h465v-65h-465q-64 0 -105.5 -13.5t-62 -41.5t-28 -61t-7.5 -83v-321h666v-64z" />
    <glyph glyph-name="eogonek" unicode="&#x119;" horiz-adv-x="864" 
d="M557 467h-401v-197q0 -119 46 -161.5t150 -42.5h133q64 0 105.5 13t62 41t28 61t7.5 83h72q0 -175 -109 -231q-35 -28 -50.5 -57.5t-10.5 -49.5q6 -24 33 -24q33 0 73 35v-70q-43 -35 -90 -35q-29 0 -51 14t-31 39q-24 58 15 119q-32 -4 -54 -4h-133q-142 0 -206 66
t-64 204v334q0 138 63.5 202t206.5 64h211q63 0 104.5 -16.5t60 -48t25 -61t7.5 -72.5q0 -43 -7 -75t-26.5 -64t-62.5 -49t-107 -17zM156 604v-78h401q81 0 106 37t25 109q0 27 -1.5 43.5t-9 35.5t-20.5 29.5t-37 17.5t-59 7h-209q-105 0 -150.5 -41t-45.5 -160z" />
    <glyph glyph-name="Ecaron" unicode="&#x11a;" 
d="M522 1303h-49l-86 104h82l31 -45l30 45h84zM842 565h-666v-301q0 -50 7.5 -83t28 -61t62 -41t105.5 -13h463v-66h-463q-81 0 -136.5 19t-85.5 56t-42.5 82.5t-12.5 106.5v686q0 61 12.5 106.5t42.5 82.5t85.5 56t136.5 19h465v-65h-465q-64 0 -105.5 -13.5t-62 -41.5
t-28 -61t-7.5 -83v-321h666v-64z" />
    <glyph glyph-name="ecaron" unicode="&#x11b;" horiz-adv-x="864" 
d="M459 969h-49l-88 104h81l31 -47l31 47h84zM557 467h-401v-197q0 -119 46 -161.5t150 -42.5h133q64 0 105.5 13t62 41t28 61t7.5 83h72q0 -128 -60 -196t-215 -68h-133q-142 0 -206 66t-64 204v334q0 138 63.5 202t206.5 64h211q63 0 104.5 -16.5t60 -48t25 -61t7.5 -72.5
q0 -43 -7 -75t-26.5 -64t-62.5 -49t-107 -17zM156 604v-78h401q81 0 106 37t25 109q0 27 -1.5 43.5t-9 35.5t-20.5 29.5t-37 17.5t-59 7h-209q-105 0 -150.5 -41t-45.5 -160z" />
    <glyph glyph-name="Gcircumflex" unicode="&#x11c;" 
d="M475 1298h-82l88 105h49l93 -105h-86l-29 48zM768 524h-178v64h252v-324q0 -127 -60.5 -195.5t-214.5 -68.5h-92q-61 0 -111 11t-86.5 25t-64.5 45.5t-46 55t-31 71.5t-19 76.5t-9 88.5t-3.5 89.5t-0.5 96.5v12v11v12v47v98t3.5 91.5t10 90t19.5 79t32 73t48 57t67 47
t90 26.5t115 11h78q84 0 140 -20.5t84.5 -60.5t39.5 -86t11 -109v-31h-74v31q0 54 -6 87.5t-26 64.5t-61.5 45t-107.5 14h-82q-65 0 -115 -14.5t-81.5 -40.5t-54 -61.5t-32.5 -78t-16 -90.5t-5 -98.5t0 -101.5q1 -48 1 -72q0 -190 3 -231q13 -174 96 -241q68 -54 190 -54h96
q51 0 87.5 9.5t58.5 25t34.5 42t16.5 54t4 67.5v260z" />
    <glyph glyph-name="gcircumflex" unicode="&#x11d;" horiz-adv-x="866" 
d="M418 969h-82l88 104h49l90 -104h-84l-30 47zM84 -80h74q0 -50 7 -82.5t27.5 -60t61 -40.5t104.5 -13h174q50 0 82 11t48 34.5t21.5 49t6.5 64.5v183q-63 -66 -201 -66h-79q-61 0 -110 12.5t-83 33.5t-59 54t-39 67.5t-22.5 81.5t-10.5 89t-2 96q1 88 4 135.5t20.5 114.5
t50 101t96 59.5t155.5 25.5h79q155 0 215 -68t60 -196v-723q-1 -52 -10.5 -89t-33.5 -69.5t-71 -49.5t-117 -17h-174q-154 0 -214 67.5t-60 194.5zM410 66h79q51 0 87.5 9.5t58.5 25t34.5 42t16.5 54t4 67.5v342q0 50 -7 83t-27.5 61t-61.5 41.5t-105 13.5h-79
q-73 0 -123 -22t-75 -49.5t-37.5 -84t-14.5 -93.5t-2 -110v-2v-2v-4q0 -74 2 -111.5t14.5 -96.5t37.5 -88t75 -52.5t123 -23.5z" />
    <glyph glyph-name="Gbreve" unicode="&#x11e;" 
d="M342 1419h61q5 -38 17 -49.5t61 -11.5h62q43 0 55.5 13t17.5 48h60q-3 -27 -5.5 -40t-10.5 -30.5t-21 -25.5t-37 -14t-59 -6h-62q-81 0 -107.5 26.5t-31.5 89.5zM768 524h-178v64h252v-324q0 -127 -60.5 -195.5t-214.5 -68.5h-92q-61 0 -111 11t-86.5 25t-64.5 45.5
t-46 55t-31 71.5t-19 76.5t-9 88.5t-3.5 89.5t-0.5 96.5v12v11v12v47v98t3.5 91.5t10 90t19.5 79t32 73t48 57t67 47t90 26.5t115 11h78q84 0 140 -20.5t84.5 -60.5t39.5 -86t11 -109v-31h-74v31q0 54 -6 87.5t-26 64.5t-61.5 45t-107.5 14h-82q-65 0 -115 -14.5
t-81.5 -40.5t-54 -61.5t-32.5 -78t-16 -90.5t-5 -98.5t0 -101.5q1 -48 1 -72q0 -190 3 -231q13 -174 96 -241q68 -54 190 -54h96q51 0 87.5 9.5t58.5 25t34.5 42t16.5 54t4 67.5v260z" />
    <glyph glyph-name="gbreve" unicode="&#x11f;" horiz-adv-x="866" 
d="M274 1083h60q5 -27 9 -37t20.5 -17t50.5 -7h61q44 0 56.5 13t17.5 48h59q-4 -32 -8 -48.5t-17 -34.5t-39.5 -25.5t-68.5 -7.5h-61q-82 0 -108.5 26.5t-31.5 89.5zM84 -78h74q0 -50 7 -82.5t27.5 -61t61 -41.5t104.5 -13h174q50 0 82 11t48 35t21.5 49.5t6.5 65.5v181
q-63 -66 -201 -66h-79q-61 0 -110 12.5t-83 33.5t-59 54t-39 67.5t-22.5 81.5t-10.5 89t-2 96q1 88 4 135.5t20.5 114.5t50 101t96 59.5t155.5 25.5h79q155 0 215 -68t60 -196v-721q-1 -52 -10.5 -89t-33.5 -70.5t-71 -50.5t-117 -17h-174q-154 0 -214 68.5t-60 195.5z
M410 66h79q51 0 87.5 9.5t58.5 25t34.5 42t16.5 54t4 67.5v342q0 50 -7 83t-27.5 61t-61.5 41.5t-105 13.5h-79q-73 0 -123 -22t-75 -49.5t-37.5 -84t-14.5 -93.5t-2 -110v-2v-2v-4q0 -74 2 -111.5t14.5 -96.5t37.5 -88t75 -52.5t123 -23.5z" />
    <glyph glyph-name="Gdotaccent" unicode="&#x120;" 
d="M496 1300q-34 0 -47.5 25t0.5 49.5t47 24.5q32 0 45.5 -24.5t0 -49.5t-45.5 -25zM768 524h-178v64h252v-324q0 -127 -60.5 -195.5t-214.5 -68.5h-92q-61 0 -111 11t-86.5 25t-64.5 45.5t-46 55t-31 71.5t-19 76.5t-9 88.5t-3.5 89.5t-0.5 96.5v12v11v12v47v98t3.5 91.5
t10 90t19.5 79t32 73t48 57t67 47t90 26.5t115 11h78q84 0 140 -20.5t84.5 -60.5t39.5 -86t11 -109v-31h-74v31q0 54 -6 87.5t-26 64.5t-61.5 45t-107.5 14h-82q-65 0 -115 -14.5t-81.5 -40.5t-54 -61.5t-32.5 -78t-16 -90.5t-5 -98.5t0 -101.5q1 -48 1 -72q0 -190 3 -231
q13 -174 96 -241q68 -54 190 -54h96q51 0 87.5 9.5t58.5 25t34.5 42t16.5 54t4 67.5v260z" />
    <glyph glyph-name="gdotaccent" unicode="&#x121;" horiz-adv-x="866" 
d="M436 967q-34 0 -48 24.5t0 49t48 24.5q32 0 45.5 -24.5t0 -49t-45.5 -24.5zM84 -78h74q0 -50 7 -82.5t27.5 -61t61 -41.5t104.5 -13h174q50 0 82 11t48 35t21.5 49.5t6.5 65.5v181q-63 -66 -201 -66h-79q-61 0 -110 12.5t-83 33.5t-59 54t-39 67.5t-22.5 81.5t-10.5 89
t-2 96q1 88 4 135.5t20.5 114.5t50 101t96 59.5t155.5 25.5h79q155 0 215 -68t60 -196v-721q-1 -52 -10.5 -89t-33.5 -70.5t-71 -50.5t-117 -17h-174q-154 0 -214 68.5t-60 195.5zM410 66h79q51 0 87.5 9.5t58.5 25t34.5 42t16.5 54t4 67.5v342q0 50 -7 83t-27.5 61
t-61.5 41.5t-105 13.5h-79q-73 0 -123 -22t-75 -49.5t-37.5 -84t-14.5 -93.5t-2 -110v-2v-2v-4q0 -74 2 -111.5t14.5 -96.5t37.5 -88t75 -52.5t123 -23.5z" />
    <glyph glyph-name="uni0122" unicode="&#x122;" horiz-adv-x="944" 
d="M768 524h-178v64h252v-324q0 -127 -60.5 -195.5t-214.5 -68.5h-92q-61 0 -111 11t-86.5 25t-64.5 45.5t-46 55t-31 71.5t-19 76.5t-9 88.5t-3.5 89.5t-0.5 96.5v12v11v12v47v98t3.5 91.5t10 90t19.5 79t32 73t48 57t67 47t90 26.5t115 11h78q84 0 140 -20.5t84.5 -60.5
t39.5 -86t11 -109v-31h-74v31q0 54 -6 87.5t-26 64.5t-61.5 45t-107.5 14h-82q-65 0 -115 -14.5t-81.5 -40.5t-54 -61.5t-32.5 -78t-16 -90.5t-5 -98.5t0 -101.5q1 -48 1 -72q0 -190 3 -231q13 -174 96 -241q68 -54 190 -54h96q51 0 87.5 9.5t58.5 25t34.5 42t16.5 54
t4 67.5v260zM461 -197h-76l70 105h106z" />
    <glyph glyph-name="uni0123" unicode="&#x123;" horiz-adv-x="866" 
d="M442 1073h109l-102 -104h-76zM84 -78h74q0 -50 7 -82.5t27.5 -61t61 -41.5t104.5 -13h174q50 0 82 11t48 35t21.5 49.5t6.5 65.5v181q-63 -66 -201 -66h-79q-61 0 -110 12.5t-83 33.5t-59 54t-39 67.5t-22.5 81.5t-10.5 89t-2 96q1 88 4 135.5t20.5 114.5t50 101t96 59.5
t155.5 25.5h79q155 0 215 -68t60 -196v-721q-1 -52 -10.5 -89t-33.5 -70.5t-71 -50.5t-117 -17h-174q-154 0 -214 68.5t-60 195.5zM410 66h79q51 0 87.5 9.5t58.5 25t34.5 42t16.5 54t4 67.5v342q0 50 -7 83t-27.5 61t-61.5 41.5t-105 13.5h-79q-73 0 -123 -22t-75 -49.5
t-37.5 -84t-14.5 -93.5t-2 -110v-2v-2v-4q0 -74 2 -111.5t14.5 -96.5t37.5 -88t75 -52.5t123 -23.5z" />
    <glyph glyph-name="Hcircumflex" unicode="&#x124;" horiz-adv-x="1028" 
d="M485 1303h-82l86 104h50l92 -104h-84l-31 45zM217 0h-74v1214h74v-626h596v626h74v-1214h-74v522h-596v-522z" />
    <glyph glyph-name="hcircumflex" unicode="&#x125;" horiz-adv-x="907" 
d="M127 1300h-82l88 107h49l92 -107h-84l-30 48zM197 0h-74v1212h74v-405q66 63 202 63h129q81 0 137 -19t85.5 -56t42 -82t12.5 -107v-606h-74v606q0 50 -7.5 83t-28 61t-62 41.5t-105.5 13.5h-129q-64 0 -105.5 -13.5t-62 -41.5t-27.5 -61t-7 -83v-606z" />
    <glyph glyph-name="Hbar" unicode="&#x126;" horiz-adv-x="1028" 
d="M217 0h-74v1032h-55v66h55v116h74v-116h596v116h74v-116h55v-66h-55v-1032h-74v522h-596v-522zM217 1032v-444h596v444h-596z" />
    <glyph glyph-name="hbar" unicode="&#x127;" horiz-adv-x="907" 
d="M197 0h-74v1032h-55v66h55v116h74v-116h378v-66h-378v-225q66 63 202 63h129q81 0 137 -19t85.5 -56t42 -82t12.5 -107v-606h-74v606q0 50 -7.5 83t-28 61t-62 41.5t-105.5 13.5h-129q-64 0 -105.5 -13.5t-62 -41.5t-27.5 -61t-7 -83v-606z" />
    <glyph glyph-name="Itilde" unicode="&#x128;" horiz-adv-x="360" 
d="M25 1319v67q40 35 86 35q33 0 87.5 -25.5t77.5 -25.5q37 0 64 39v-72q-32 -32 -72 -32q-29 0 -84 26.5t-82 26.5q-41 0 -77 -39zM217 0h-74v1212h74v-1212z" />
    <glyph glyph-name="itilde" unicode="&#x129;" horiz-adv-x="352" 
d="M18 985v68q39 34 86 34q32 0 86.5 -25.5t77.5 -25.5q37 0 64 39v-71q-33 -33 -72 -33q-28 0 -82 26.5t-82 26.5q-42 0 -78 -39zM215 0h-74v870h74v-870z" />
    <glyph glyph-name="Imacron" unicode="&#x12a;" horiz-adv-x="360" 
d="M338 1300h-315v66h315v-66zM217 0h-74v1212h74v-1212z" />
    <glyph glyph-name="imacron" unicode="&#x12b;" horiz-adv-x="352" 
d="M334 969h-311v65h311v-65zM215 0h-74v870h74v-870z" />
    <glyph glyph-name="Ibreve" unicode="&#x12c;" horiz-adv-x="360" 
d="M12 1417h60q5 -27 9 -37t20.5 -17t50.5 -7h63q44 0 56.5 13t17.5 48h59q-4 -32 -8 -48.5t-17 -35t-39.5 -26t-68.5 -7.5h-63q-82 0 -108.5 27t-31.5 90zM217 0h-74v1212h74v-1212z" />
    <glyph glyph-name="ibreve" unicode="&#x12d;" horiz-adv-x="352" 
d="M8 1085h60q5 -28 9 -37.5t20 -16.5t50 -7h62q46 0 58.5 13t17.5 48h59q-4 -32 -8 -48.5t-17.5 -34.5t-40 -25.5t-69.5 -7.5h-62q-82 0 -108 26.5t-31 89.5zM215 0h-74v870h74v-870z" />
    <glyph glyph-name="Iogonek" unicode="&#x12e;" horiz-adv-x="360" 
d="M233 -115v-69q-46 -35 -92 -35q-29 0 -51 14t-31 39q-20 45 2 95t82 89v1194h74v-1212q-49 -29 -73 -65t-19 -60q6 -25 35 -25q33 0 73 35z" />
    <glyph glyph-name="iogonek" unicode="&#x12f;" horiz-adv-x="352" 
d="M178 1106q-35 0 -49 24.5t0.5 49t48.5 24.5q32 0 45.5 -24.5t0 -49t-45.5 -24.5zM231 -115v-69q-46 -35 -92 -35q-29 0 -51 14t-31 39q-20 45 2 95t82 89v852h74v-870q-49 -29 -73 -65t-19 -62q6 -23 33 -23q37 0 75 35z" />
    <glyph glyph-name="Idotaccent" unicode="&#x130;" horiz-adv-x="360" 
d="M182 1300q-35 0 -49 25t0.5 49.5t48.5 24.5q32 0 45.5 -24.5t0 -49.5t-45.5 -25zM217 0h-74v1212h74v-1212z" />
    <glyph glyph-name="dotlessi" unicode="&#x131;" horiz-adv-x="331" 
d="M203 0h-74v870h74v-870z" />
    <glyph glyph-name="IJ" unicode="&#x132;" horiz-adv-x="1275" 
d="M217 0h-74v1214h74v-1214zM848 0h-447v66h447q58 0 102.5 20t70 53.5t38 71.5t12.5 78v925h74v-925q0 -53 -18.5 -103.5t-54 -92.5t-94 -67.5t-130.5 -25.5z" />
    <glyph glyph-name="ij" unicode="&#x133;" horiz-adv-x="643" 
d="M471 1110q-35 0 -49 24.5t0.5 49t48.5 24.5q32 0 45.5 -24.5t0 -49t-45.5 -24.5zM178 1106q-35 0 -49 24.5t0.5 49t48.5 24.5q32 0 45.5 -24.5t0 -49t-45.5 -24.5zM215 2h-74v868h74v-868zM229 -342v66q64 0 105.5 13t62 41t28 61t7.5 83v948h74v-948q0 -62 -12.5 -107
t-42 -82t-85.5 -56t-137 -19z" />
    <glyph glyph-name="Jcircumflex" unicode="&#x134;" horiz-adv-x="911" 
d="M715 1303h-82l88 104h49l92 -104h-84l-30 45zM487 0h-446v66h446q58 0 103 20t70.5 53.5t38 71.5t12.5 78v925h73v-925q0 -53 -18.5 -103.5t-54 -92.5t-94 -67.5t-130.5 -25.5z" />
    <glyph glyph-name="jcircumflex" unicode="&#x135;" horiz-adv-x="307" 
d="M98 971h-82l86 104h52l92 -104h-84l-33 45zM-109 -342v66q64 0 105.5 13t62 41t28 61t7.5 83v950h74v-950q0 -62 -12.5 -107t-42 -82t-85.5 -56t-137 -19z" />
    <glyph glyph-name="uni0136" unicode="&#x136;" horiz-adv-x="944" 
d="M217 0h-74v1212h74v-602l586 602h98l-569 -579l569 -633h-96l-524 582l-64 -66v-516zM461 -207h-78l72 105h106z" />
    <glyph glyph-name="uni0137" unicode="&#x137;" horiz-adv-x="872" 
d="M197 0h-74v1212h74v-675l520 333h125l-494 -317l479 -553h-88l-452 514l-90 -57v-457zM424 -207h-76l72 105h106z" />
    <glyph glyph-name="kgreenlandic" unicode="&#x138;" horiz-adv-x="872" 
d="M197 0h-74v872h74v-335l520 333h125l-494 -317l479 -553h-88l-454 514l-88 -57v-457z" />
    <glyph glyph-name="Lacute" unicode="&#x139;" horiz-adv-x="915" 
d="M174 1303h-78l72 104h106zM877 66v-66h-447q-72 0 -130.5 25.5t-94 67.5t-54 92.5t-18.5 103.5v925h74v-925q0 -40 12.5 -78t38 -71.5t70 -53.5t102.5 -20h447z" />
    <glyph glyph-name="lacute" unicode="&#x13a;" horiz-adv-x="319" 
d="M147 1300h-75l69 105h109zM197 0h-74v1212h74v-1212z" />
    <glyph glyph-name="uni013B" unicode="&#x13b;" horiz-adv-x="915" 
d="M877 66v-66h-447q-72 0 -130.5 25.5t-94 67.5t-54 92.5t-18.5 103.5v925h74v-925q0 -40 12.5 -78t38 -71.5t70 -53.5t102.5 -20h447zM446 -207h-75l69 105h109z" />
    <glyph glyph-name="uni013C" unicode="&#x13c;" horiz-adv-x="319" 
d="M197 0h-74v1212h74v-1212zM137 -207h-78l72 105h107z" />
    <glyph glyph-name="Lcaron" unicode="&#x13d;" horiz-adv-x="915" 
d="M877 66v-66h-447q-72 0 -130.5 25.5t-94 67.5t-54 92.5t-18.5 103.5v925h74v-925q0 -40 12.5 -78t38 -71.5t70 -53.5t102.5 -20h447zM506 1110h-76l70 104h108z" />
    <glyph glyph-name="lcaron" unicode="&#x13e;" horiz-adv-x="567" 
d="M197 0h-74v1212h74v-1212zM383 1098h-76l72 104h106z" />
    <glyph glyph-name="Ldot" unicode="&#x13f;" horiz-adv-x="915" 
d="M877 66v-66h-447q-72 0 -130.5 25.5t-94 67t-54 92t-18.5 104.5v925h74v-925q0 -40 12.5 -78t38 -71.5t70 -53.5t102.5 -20h447zM573 612q-34 0 -48 25t0 50.5t48 25.5q32 0 45.5 -25.5t0 -50.5t-45.5 -25z" />
    <glyph glyph-name="ldot" unicode="&#x140;" horiz-adv-x="466" 
d="M197 0h-74v1214h74v-1214zM324 612q-34 0 -48 25t0 50.5t48 25.5q32 0 45.5 -25.5t0 -50.5t-45.5 -25z" />
    <glyph glyph-name="Lslash" unicode="&#x141;" horiz-adv-x="915" 
d="M877 66v-66h-447q-72 0 -130.5 25.5t-94 67.5t-54 92.5t-18.5 103.5v94l-80 -47v74l80 47v757h74v-716l323 192v-76l-323 -190v-135q0 -40 12.5 -78t38 -71.5t70 -53.5t102.5 -20h447z" />
    <glyph glyph-name="lslash" unicode="&#x142;" horiz-adv-x="319" 
d="M197 0h-74v434l-80 -47v74l80 47v704h74v-661l92 53v-76l-92 -53v-475z" />
    <glyph glyph-name="Nacute" unicode="&#x143;" horiz-adv-x="1030" 
d="M518 1300h-78l72 105h106zM217 0h-74v1212h80l592 -1083v1083h74v-1212h-84l-588 1081v-1081z" />
    <glyph glyph-name="nacute" unicode="&#x144;" horiz-adv-x="886" 
d="M459 969h-76l70 104h108zM176 0h-74v606q0 61 12.5 106.5t42.5 82.5t85.5 56t136.5 19h129q158 0 217 -62.5t59 -201.5v-606h-73v606q0 41 -3 67t-15 53.5t-33.5 43t-59 25.5t-92.5 10h-127q-64 0 -106 -13.5t-63 -41.5t-28.5 -61t-7.5 -83v-606z" />
    <glyph glyph-name="uni0145" unicode="&#x145;" horiz-adv-x="1030" 
d="M217 0h-74v1212h80l592 -1083v1083h74v-1212h-84l-588 1081v-1081zM504 -207h-76l70 105h106z" />
    <glyph glyph-name="uni0146" unicode="&#x146;" horiz-adv-x="886" 
d="M176 0h-74v606q0 61 12.5 106.5t42.5 82.5t85.5 56t136.5 19h129q158 0 217 -62.5t59 -201.5v-606h-73v606q0 41 -3 67t-15 53.5t-33.5 43t-59 25.5t-92.5 10h-127q-64 0 -106 -13.5t-63 -41.5t-28.5 -61t-7.5 -83v-606zM432 -209h-76l70 105h106z" />
    <glyph glyph-name="Ncaron" unicode="&#x147;" horiz-adv-x="1030" 
d="M543 1300h-49l-88 105h81l33 -45l31 45h84zM217 0h-74v1212h80l592 -1083v1083h74v-1212h-84l-588 1081v-1081z" />
    <glyph glyph-name="ncaron" unicode="&#x148;" horiz-adv-x="886" 
d="M467 969h-49l-88 104h82l30 -47l31 47h86zM176 0h-74v606q0 61 12.5 106.5t42.5 82.5t85.5 56t136.5 19h129q158 0 217 -62.5t59 -201.5v-606h-73v606q0 41 -3 67t-15 53.5t-33.5 43t-59 25.5t-92.5 10h-127q-64 0 -106 -13.5t-63 -41.5t-28.5 -61t-7.5 -83v-606z" />
    <glyph glyph-name="napostrophe" unicode="&#x149;" horiz-adv-x="886" 
d="M100 909h-75l69 105h109zM176 0h-74v606q0 61 12.5 106.5t42.5 82.5t85.5 56t136.5 19h129q158 0 217 -62.5t59 -201.5v-606h-73v606q0 41 -3 67t-15 53.5t-33.5 43t-59 25.5t-92.5 10h-127q-64 0 -106 -13.5t-63 -41.5t-28.5 -61t-7.5 -83v-606z" />
    <glyph glyph-name="Eng" unicode="&#x14a;" horiz-adv-x="1030" 
d="M217 0h-74v1214h80l592 -1085v1085h74v-1214q0 -53 -18.5 -103t-54 -91.5t-94 -67t-130.5 -25.5v66q103 0 159.5 60.5t61.5 142.5l-596 1099v-1081z" />
    <glyph glyph-name="eng" unicode="&#x14b;" horiz-adv-x="886" 
d="M176 0h-74v606q0 61 12.5 106.5t42.5 82.5t85.5 56t136.5 19h129q158 0 217 -62.5t59 -201.5v-606q0 -62 -12 -107t-42 -82t-85.5 -56t-136.5 -19v65q64 0 105.5 13.5t62 41.5t28 61t7.5 83v606q0 41 -3 67t-15 53.5t-33.5 43t-59 25.5t-92.5 10h-127q-64 0 -106 -13.5
t-63 -41.5t-28.5 -61t-7.5 -83v-606z" />
    <glyph glyph-name="Omacron" unicode="&#x14c;" horiz-adv-x="1042" 
d="M774 1300h-504v66h504v-66zM522 0q-78 0 -141 18.5t-106.5 49t-75 77.5t-50 96.5t-29 115t-13.5 124t-3 131.5q0 65 2.5 113.5t9 108t19.5 103t33.5 89.5t52 78t73 58t99.5 39t129 13q64 0 117 -11t92.5 -29.5t71 -48.5t53 -61.5t37 -76t24.5 -84.5t14 -93.5t7 -96.5
t2 -101q0 -73 -3 -131.5t-13.5 -124t-29 -115t-50 -96.5t-75 -77.5t-106.5 -49t-141 -18.5zM522 66q52 0 95.5 11t76 28.5t58 46.5t43 59t29.5 71.5t19 78.5t11 86t5 87t1 89q0 53 -0.5 86.5t-4 82.5t-9.5 81.5t-18 73.5t-29 67.5t-42.5 54.5t-58.5 44t-77.5 26t-98.5 10
t-98.5 -10t-77.5 -26t-58.5 -44t-42.5 -54.5t-29 -67.5t-18 -73.5t-9.5 -81.5t-4 -82.5t-0.5 -86.5q0 -51 1 -89t5 -87t11 -86t19 -78.5t29.5 -71.5t43 -59t58 -46.5t76 -28.5t95.5 -11z" />
    <glyph glyph-name="omacron" unicode="&#x14d;" horiz-adv-x="892" 
d="M698 967h-503v65h503v-65zM496 6h-99q-66 0 -116 13t-83 31t-55.5 55.5t-34 66t-17 83.5t-6.5 88t-1 99q0 57 1.5 95t8.5 88t19 82.5t35 67.5t56 55.5t81.5 33.5t111.5 13h99q63 0 111.5 -13t81.5 -33.5t56 -55.5t35 -67.5t19 -82.5t8.5 -88t1.5 -95q0 -66 -1 -99
t-6.5 -88t-17 -83.5t-34 -66t-55.5 -55.5t-83 -31t-116 -13zM397 72h99q51 0 89.5 9.5t63.5 26.5t43 41t26 52.5t13 61.5t4.5 68.5t-0.5 71.5v39q0 150 -14 209q-31 128 -152 153q-34 7 -73 7h-99q-69 0 -116.5 -23t-71 -51.5t-36 -86t-14 -94t-1.5 -107.5v-7q0 -143 3 -173
q13 -125 93 -168q54 -29 143 -29z" />
    <glyph glyph-name="Obreve" unicode="&#x14e;" horiz-adv-x="1042" 
d="M356 1417h60q5 -37 17.5 -49t60.5 -12h63q44 0 56.5 13t17.5 48h59q-4 -32 -8 -48.5t-17 -35t-39.5 -26t-68.5 -7.5h-63q-42 0 -69 7t-41 23.5t-19.5 35.5t-8.5 51zM522 0q-78 0 -141 18.5t-106.5 49t-75 77.5t-50 96.5t-29 115t-13.5 124t-3 131.5q0 65 2.5 113.5t9 108
t19.5 103t33.5 89.5t52 78t73 58t99.5 39t129 13q64 0 117 -11t92.5 -29.5t71 -48.5t53 -61.5t37 -76t24.5 -84.5t14 -93.5t7 -96.5t2 -101q0 -73 -3 -131.5t-13.5 -124t-29 -115t-50 -96.5t-75 -77.5t-106.5 -49t-141 -18.5zM522 66q52 0 95.5 11t76 28.5t58 46.5t43 59
t29.5 71.5t19 78.5t11 86t5 87t1 89q0 53 -0.5 86.5t-4 82.5t-9.5 81.5t-18 73.5t-29 67.5t-42.5 54.5t-58.5 44t-77.5 26t-98.5 10t-98.5 -10t-77.5 -26t-58.5 -44t-42.5 -54.5t-29 -67.5t-18 -73.5t-9.5 -81.5t-4 -82.5t-0.5 -86.5q0 -51 1 -89t5 -87t11 -86t19 -78.5
t29.5 -71.5t43 -59t58 -46.5t76 -28.5t95.5 -11z" />
    <glyph glyph-name="obreve" unicode="&#x14f;" horiz-adv-x="892" 
d="M281 1085h59q5 -27 9 -37t20.5 -17t50.5 -7h61q44 0 56.5 13t17.5 48h59q-4 -32 -8 -48.5t-17 -34.5t-39.5 -25.5t-68.5 -7.5h-61q-82 0 -108 26.5t-31 89.5zM496 6h-99q-66 0 -116 13t-83 31t-55.5 55.5t-34 66t-17 83.5t-6.5 88t-1 99q0 57 1.5 95t8.5 88t19 82.5
t35 67.5t56 55.5t81.5 33.5t111.5 13h99q63 0 111.5 -13t81.5 -33.5t56 -55.5t35 -67.5t19 -82.5t8.5 -88t1.5 -95q0 -66 -1 -99t-6.5 -88t-17 -83.5t-34 -66t-55.5 -55.5t-83 -31t-116 -13zM397 72h99q51 0 89.5 9.5t63.5 26.5t43 41t26 52.5t13 61.5t4.5 68.5t-0.5 71.5
v39q0 150 -14 209q-31 128 -152 153q-34 7 -73 7h-99q-69 0 -116.5 -23t-71 -51.5t-36 -86t-14 -94t-1.5 -107.5v-7q0 -143 3 -173q13 -125 93 -168q54 -29 143 -29z" />
    <glyph glyph-name="Ohungarumlaut" unicode="&#x150;" horiz-adv-x="1042" 
d="M444 1303h-71l71 104h95zM610 1303h-71l69 104h97zM522 0q-78 0 -141 18.5t-106.5 49t-75 77.5t-50 96.5t-29 115t-13.5 124t-3 131.5q0 65 2.5 113.5t9 108t19.5 103t33.5 89.5t52 78t73 58t99.5 39t129 13q64 0 117 -11t92.5 -29.5t71 -48.5t53 -61.5t37 -76
t24.5 -84.5t14 -93.5t7 -96.5t2 -101q0 -73 -3 -131.5t-13.5 -124t-29 -115t-50 -96.5t-75 -77.5t-106.5 -49t-141 -18.5zM522 66q52 0 95.5 11t76 28.5t58 46.5t43 59t29.5 71.5t19 78.5t11 86t5 87t1 89q0 53 -0.5 86.5t-4 82.5t-9.5 81.5t-18 73.5t-29 67.5t-42.5 54.5
t-58.5 44t-77.5 26t-98.5 10t-98.5 -10t-77.5 -26t-58.5 -44t-42.5 -54.5t-29 -67.5t-18 -73.5t-9.5 -81.5t-4 -82.5t-0.5 -86.5q0 -51 1 -89t5 -87t11 -86t19 -78.5t29.5 -71.5t43 -59t58 -46.5t76 -28.5t95.5 -11z" />
    <glyph glyph-name="ohungarumlaut" unicode="&#x151;" horiz-adv-x="892" 
d="M371 967h-72l72 104h94zM537 967h-72l70 104h96zM496 6h-99q-66 0 -116 13t-83 31t-55.5 55.5t-34 66t-17 83.5t-6.5 88t-1 99q0 57 1.5 95t8.5 88t19 82.5t35 67.5t56 55.5t81.5 33.5t111.5 13h99q63 0 111.5 -13t81.5 -33.5t56 -55.5t35 -67.5t19 -82.5t8.5 -88
t1.5 -95q0 -66 -1 -99t-6.5 -88t-17 -83.5t-34 -66t-55.5 -55.5t-83 -31t-116 -13zM397 72h99q51 0 89.5 9.5t63.5 26.5t43 41t26 52.5t13 61.5t4.5 68.5t-0.5 71.5v39q0 150 -14 209q-31 128 -152 153q-34 7 -73 7h-99q-69 0 -116.5 -23t-71 -51.5t-36 -86t-14 -94
t-1.5 -107.5v-7q0 -143 3 -173q13 -125 93 -168q54 -29 143 -29z" />
    <glyph glyph-name="OE" unicode="&#x152;" horiz-adv-x="1708" 
d="M512 0q-78 0 -141 18.5t-106.5 49t-75 77.5t-50 97t-29 115.5t-13.5 124.5t-3 132q0 57 2 100t7 96.5t14 93.5t24.5 84t37.5 75.5t53.5 61.5t71 48.5t92.5 29.5t116 11q263 0 352 -196q13 96 75 146t194 50h464v-65h-464q-64 0 -105.5 -13.5t-62 -41.5t-28 -61t-7.5 -83
v-321h665v-64h-665v-301q0 -50 7.5 -83t28 -61t62 -41t105.5 -13h462v-66h-462q-134 0 -196 53.5t-73 153.5q-94 -207 -352 -207zM512 66q52 0 95.5 11t76 28.5t58 46.5t43 59t29.5 71.5t19 78.5t11 86t5 87t1 89q0 53 -0.5 86.5t-4 83t-9.5 82t-18 73.5t-29 67t-42.5 54
t-58.5 44t-77.5 26t-98.5 10t-98.5 -10t-77.5 -26t-58.5 -44t-42.5 -54t-29 -67t-18 -73.5t-9.5 -82t-4 -83t-0.5 -86.5q0 -51 1 -89t5 -87t11 -86t19 -78.5t29.5 -71.5t43 -59t58 -46.5t76 -28.5t95.5 -11z" />
    <glyph glyph-name="oe" unicode="&#x153;" horiz-adv-x="1511" 
d="M496 6h-99q-66 0 -116 13.5t-83 31.5t-55.5 55.5t-34 66t-17 83.5t-6.5 88t-1 98q0 57 1.5 95t8.5 88t19 82.5t35 67.5t56 55.5t81.5 33.5t111.5 13h99q197 0 266 -138q26 70 86 100.5t160 30.5h211q64 0 105.5 -16.5t60 -48t25 -61t7.5 -72.5q0 -43 -7 -75t-26.5 -64
t-62.5 -49t-107 -17h-403v-197q0 -119 46.5 -161.5t150.5 -42.5h135q64 0 105.5 13t62 41t28 61t7.5 83h71q0 -128 -59.5 -196t-214.5 -68h-135q-194 0 -244 131q-69 -125 -268 -125zM397 72h99q51 0 89.5 9.5t63.5 26.5t43 41t26 53t13 62t4.5 68.5t-0.5 72.5v39v10
q0 70 -1.5 106t-14 92.5t-36 85t-71 51t-116.5 22.5h-99q-69 0 -116.5 -23t-71 -51.5t-36 -86t-14 -93.5t-1.5 -107v-6v-42q-1 -33 0 -64t2.5 -60.5t8.5 -56t17 -49.5t28.5 -41.5t43 -31.5t60 -20t79.5 -7zM811 604v-78h403q81 0 106.5 37t25.5 109q0 27 -1.5 43.5t-9 35.5
t-20.5 29.5t-37 17.5t-59 7h-211q-105 0 -151 -41.5t-46 -159.5z" />
    <glyph glyph-name="Racute" unicode="&#x154;" horiz-adv-x="1017" 
d="M498 1303h-76l70 104h108zM217 0h-74v1214h467q81 0 136.5 -19t85.5 -56t42.5 -82.5t12.5 -106.5v-123q0 -61 -12.5 -106.5t-42.5 -82t-85.5 -55t-136.5 -18.5h-129l412 -565h-88l-410 565h-178v-565zM217 1149v-520h393q64 0 105.5 13t62 41t28 61t7.5 83v123
q0 50 -7.5 83t-28 61t-62 41.5t-105.5 13.5h-393z" />
    <glyph glyph-name="racute" unicode="&#x155;" horiz-adv-x="657" 
d="M389 969h-76l70 104h109zM176 0h-74v618q0 117 61.5 184.5t209.5 67.5h256v-65h-254q-62 0 -103.5 -15t-61 -44t-27 -59.5t-7.5 -72.5v-614z" />
    <glyph glyph-name="uni0156" unicode="&#x156;" horiz-adv-x="1017" 
d="M217 0h-74v1214h467q81 0 136.5 -19t85.5 -56t42.5 -82.5t12.5 -106.5v-123q0 -61 -12.5 -106.5t-42.5 -82t-85.5 -55t-136.5 -18.5h-129l412 -565h-88l-410 565h-178v-565zM217 1149v-520h393q64 0 105.5 13t62 41t28 61t7.5 83v123q0 50 -7.5 83t-28 61t-62 41.5
t-105.5 13.5h-393zM498 -207h-76l70 105h108z" />
    <glyph glyph-name="uni0157" unicode="&#x157;" horiz-adv-x="657" 
d="M176 0h-74v618q0 117 61.5 184.5t209.5 67.5h256v-65h-254q-62 0 -103.5 -15t-61 -44t-27 -59.5t-7.5 -72.5v-614zM317 -209h-75l71 105h107z" />
    <glyph glyph-name="Rcaron" unicode="&#x158;" horiz-adv-x="1017" 
d="M526 1303h-49l-86 104h82l31 -47l31 47h83zM217 0h-74v1214h467q81 0 136.5 -19t85.5 -56t42.5 -82.5t12.5 -106.5v-123q0 -61 -12.5 -106.5t-42.5 -82t-85.5 -55t-136.5 -18.5h-129l412 -565h-88l-410 565h-178v-565zM217 1149v-520h393q64 0 105.5 13t62 41t28 61
t7.5 83v123q0 50 -7.5 83t-28 61t-62 41.5t-105.5 13.5h-393z" />
    <glyph glyph-name="rcaron" unicode="&#x159;" horiz-adv-x="657" 
d="M408 969h-50l-88 104h84l31 -47l31 47h84zM176 0h-74v618q0 117 61.5 184.5t209.5 67.5h256v-65h-254q-62 0 -103.5 -15t-61 -44t-27 -59.5t-7.5 -72.5v-614z" />
    <glyph glyph-name="Sacute" unicode="&#x15a;" horiz-adv-x="987" 
d="M483 1303h-75l69 104h107zM123 276v31h74v-31q0 -54 6 -87.5t25.5 -64t61.5 -44.5t109 -14h191q64 0 105.5 13t62 41t28 61t7.5 83v121q0 50 -7.5 83t-28 61t-62 41.5t-105.5 13.5h-191q-81 0 -136 19t-85 56t-42.5 82.5t-12.5 106.5v102q0 61 12.5 106.5t42.5 82.5
t85 56t136 19h152q84 0 140.5 -20.5t85 -60.5t39.5 -86t11 -109v-31h-73v31q0 54 -6 87.5t-26 64.5t-62 45t-109 14h-152q-64 0 -105.5 -13.5t-62 -41.5t-27.5 -61t-7 -83v-102q0 -50 7 -83t27.5 -61t62 -41.5t105.5 -13.5h191q81 0 136 -19t85 -56t42.5 -82.5t12.5 -106.5
v-121q0 -61 -12.5 -106.5t-42.5 -82.5t-85 -56t-136 -19h-191q-84 0 -140.5 20.5t-85 60.5t-39.5 86t-11 109z" />
    <glyph glyph-name="sacute" unicode="&#x15b;" horiz-adv-x="747" 
d="M393 969h-76l70 106h109zM432 0h-311v66h311q85 0 131.5 49.5t46.5 120.5q0 80 -42 132t-132 52h-108q-124 0 -188 63t-64 158q0 99 60 164t186 65h284v-65h-282q-92 0 -134.5 -44t-42.5 -120q0 -156 195 -156h96q66 0 115.5 -22.5t76 -59.5t39.5 -79t13 -88
q0 -97 -63 -166.5t-187 -69.5z" />
    <glyph glyph-name="Scircumflex" unicode="&#x15c;" horiz-adv-x="987" 
d="M463 1300h-82l88 105h49l92 -105h-86l-30 48zM123 276v31h74v-31q0 -54 6 -87.5t25.5 -64t61.5 -44.5t109 -14h191q64 0 105.5 13t62 41t28 61t7.5 83v121q0 50 -7.5 83t-28 61t-62 41.5t-105.5 13.5h-191q-81 0 -136 19t-85 56t-42.5 82.5t-12.5 106.5v102
q0 61 12.5 106.5t42.5 82.5t85 56t136 19h152q84 0 140.5 -20.5t85 -60.5t39.5 -86t11 -109v-31h-73v31q0 54 -6 87.5t-26 64.5t-62 45t-109 14h-152q-64 0 -105.5 -13.5t-62 -41.5t-27.5 -61t-7 -83v-102q0 -50 7 -83t27.5 -61t62 -41.5t105.5 -13.5h191q81 0 136 -19
t85 -56t42.5 -82.5t12.5 -106.5v-121q0 -61 -12.5 -106.5t-42.5 -82.5t-85 -56t-136 -19h-191q-84 0 -140.5 20.5t-85 60.5t-39.5 86t-11 109z" />
    <glyph glyph-name="scircumflex" unicode="&#x15d;" horiz-adv-x="747" 
d="M338 967h-82l86 104h51l90 -104h-84l-30 47zM432 0h-311v66h311q85 0 131.5 49.5t46.5 120.5q0 80 -42 132t-132 52h-108q-124 0 -188 63t-64 158q0 99 60 164t186 65h284v-65h-282q-92 0 -134.5 -44t-42.5 -120q0 -156 195 -156h96q66 0 115.5 -22.5t76 -59.5t39.5 -79
t13 -88q0 -97 -63 -166.5t-187 -69.5z" />
    <glyph glyph-name="Scedilla" unicode="&#x15e;" horiz-adv-x="987" 
d="M123 274v31h74v-31q0 -54 6 -87.5t25.5 -64.5t61.5 -45t109 -14h193q64 0 105 13.5t61.5 41.5t27.5 61t7 83v121q0 50 -7 83t-27.5 61t-61.5 41.5t-105 13.5h-193q-81 0 -136 19t-85 56t-42.5 82.5t-12.5 106.5v104q0 61 12.5 106.5t42.5 82.5t85 56t136 19h154
q84 0 140 -20.5t84 -60.5t39 -86t11 -109v-31h-73v31q0 54 -6 87.5t-26 64.5t-61.5 45t-107.5 14h-154q-64 0 -105.5 -13.5t-62 -41.5t-27.5 -61t-7 -83v-104q0 -50 7 -83t27.5 -61t62 -41.5t105.5 -13.5h193q154 0 214 -68.5t60 -195.5v-121q0 -127 -60 -195.5t-214 -68.5
h-66l-41 -64q55 3 84 -19.5t29 -64.5q0 -26 -10 -46t-31.5 -31.5t-41.5 -19t-51.5 -10t-48 -3t-44.5 -0.5h-9v55q168 0 168 58q0 41 -71 41q-22 0 -64 -7l68 111h-64q-84 0 -140.5 20.5t-85 60.5t-39.5 86t-11 109z" />
    <glyph glyph-name="scedilla" unicode="&#x15f;" horiz-adv-x="747" 
d="M330 0h-209v66h309q85 0 132.5 49.5t47.5 120.5q0 80 -42 132t-134 52h-106q-124 0 -188 63t-64 158q0 99 60 164t186 65h284v-65h-282q-92 0 -134.5 -44t-42.5 -120q0 -156 195 -156h94q67 0 116.5 -22t76.5 -59.5t40 -79.5t13 -88q0 -45 -14.5 -85.5t-43.5 -75t-79 -55
t-115 -20.5h-39l-33 -63q54 3 84.5 -18.5t30.5 -59.5q1 -38 -24 -63t-61 -32t-75.5 -10.5t-68.5 0.5v56q25 0 61 -0.5t68.5 13t32.5 38.5q0 20 -25 28.5t-52.5 7.5t-47.5 -6z" />
    <glyph glyph-name="Scaron" unicode="&#x160;" horiz-adv-x="987" 
d="M518 1303h-49l-88 104h82l31 -47l30 47h86zM123 276v31h74v-31q0 -54 6 -87.5t25.5 -64t61.5 -44.5t109 -14h191q64 0 105.5 13t62 41t28 61t7.5 83v121q0 50 -7.5 83t-28 61t-62 41.5t-105.5 13.5h-191q-81 0 -136 19t-85 56t-42.5 82.5t-12.5 106.5v102
q0 61 12.5 106.5t42.5 82.5t85 56t136 19h152q84 0 140.5 -20.5t85 -60.5t39.5 -86t11 -109v-31h-73v31q0 54 -6 87.5t-26 64.5t-62 45t-109 14h-152q-64 0 -105.5 -13.5t-62 -41.5t-27.5 -61t-7 -83v-102q0 -50 7 -83t27.5 -61t62 -41.5t105.5 -13.5h191q81 0 136 -19
t85 -56t42.5 -82.5t12.5 -106.5v-121q0 -61 -12.5 -106.5t-42.5 -82.5t-85 -56t-136 -19h-191q-84 0 -140.5 20.5t-85 60.5t-39.5 86t-11 109z" />
    <glyph glyph-name="scaron" unicode="&#x161;" horiz-adv-x="747" 
d="M379 969h-49l-88 104h82l30 -47l31 47h86zM432 0h-311v66h311q85 0 131.5 49.5t46.5 120.5q0 80 -42 132t-132 52h-108q-124 0 -188 63t-64 158q0 99 60 164t186 65h284v-65h-282q-92 0 -134.5 -44t-42.5 -120q0 -156 195 -156h96q66 0 115.5 -22.5t76 -59.5t39.5 -79
t13 -88q0 -97 -63 -166.5t-187 -69.5z" />
    <glyph glyph-name="uni0162" unicode="&#x162;" horiz-adv-x="995" 
d="M477 0h-16v1149h-441v65h955v-65h-440v-1149l-48 -76q49 0 78 -21.5t29 -58.5q0 -21 -9.5 -37.5t-22 -27t-35 -17.5t-38 -10.5t-43 -5.5t-38.5 -2h-35v51q155 0 155 51q0 16 -15 25.5t-38.5 10.5t-40.5 0t-33 -3z" />
    <glyph glyph-name="uni0163" unicode="&#x163;" horiz-adv-x="608" 
d="M240 -254v55q168 0 168 58q0 53 -138 35l66 106q-144 4 -196 58.5t-52 187.5v561h-57v65h57v154h74v-154h278v-65h-278v-561q0 -54 5.5 -84t24 -54t54 -33t96.5 -9h231v-66h-172l-39 -59q53 0 84 -22.5t31 -63.5q0 -23 -10.5 -41t-24 -29t-37.5 -19t-41 -12t-46 -6
t-41 -2h-37z" />
    <glyph glyph-name="Tcaron" unicode="&#x164;" horiz-adv-x="995" 
d="M522 1303h-51l-88 104h84l31 -47l30 47h84zM535 -2h-74v1151h-441v65h955v-65h-440v-1151z" />
    <glyph glyph-name="tcaron" unicode="&#x165;" horiz-adv-x="616" 
d="M438 969h-76l70 106h109zM578 0h-232q-80 0 -131 15.5t-77.5 49t-36 75.5t-9.5 106v561h-57v65h57v154h74v-154h278v-65h-278v-561q0 -54 5.5 -84t24 -54t54 -33t96.5 -9h232v-66z" />
    <glyph glyph-name="Tbar" unicode="&#x166;" horiz-adv-x="995" 
d="M535 -2h-74v737h-215v66h215v348h-441v65h955v-65h-440v-348h217v-66h-217v-737z" />
    <glyph glyph-name="tbar" unicode="&#x167;" horiz-adv-x="616" 
d="M580 0h-232q-80 0 -131 15.5t-77.5 49t-36 75.5t-9.5 106v329h-59v66h59v166h-57v65h57v154h74v-154h278v-65h-278v-166h278v-66h-278v-329q0 -54 5.5 -84t24 -54t54 -33t96.5 -9h232v-66z" />
    <glyph glyph-name="Utilde" unicode="&#x168;" horiz-adv-x="1007" 
d="M293 1298v93q62 57 121 57q42 0 106.5 -36t93.5 -36q51 0 105 70v-92q-54 -51 -105 -51q-36 0 -99.5 34.5t-98.5 34.5q-60 0 -123 -74zM133 289v925h74v-925q0 -40 12.5 -78t38 -71.5t70 -53.5t102.5 -20h150q58 0 102.5 20t70 53.5t38 71.5t12.5 78v925h74v-925
q0 -53 -18.5 -103.5t-54 -92.5t-94 -67.5t-130.5 -25.5h-150q-72 0 -130.5 25.5t-94 67.5t-54 92.5t-18.5 103.5z" />
    <glyph glyph-name="utilde" unicode="&#x169;" horiz-adv-x="884" 
d="M252 973v80q52 49 106 49q39 0 100 -33t89 -33q47 0 88 62v-82q-44 -49 -92 -49q-35 0 -97.5 35.5t-93.5 35.5q-51 0 -100 -65zM102 266v606h74v-606q0 -50 7.5 -83t28.5 -61t63 -41t106 -13h127q68 0 110 13.5t61.5 43t25.5 60t6 81.5v606h73v-606q0 -131 -61 -197.5
t-215 -66.5h-129q-81 0 -136.5 19t-85.5 56t-42.5 82.5t-12.5 106.5z" />
    <glyph glyph-name="Umacron" unicode="&#x16a;" horiz-adv-x="1007" 
d="M752 1300h-494v66h494v-66zM133 289v923h74v-923q0 -40 12.5 -78t38 -71.5t70 -53.5t102.5 -20h150q58 0 102.5 20t70 53.5t38 71.5t12.5 78v923h74v-923q0 -54 -18.5 -104.5t-54 -92t-94 -67t-130.5 -25.5h-150q-72 0 -130.5 25.5t-94 67t-54 92t-18.5 104.5z" />
    <glyph glyph-name="umacron" unicode="&#x16b;" horiz-adv-x="884" 
d="M680 967h-473v65h473v-65zM102 266v606h74v-606q0 -50 7.5 -83t28.5 -61t63 -41t106 -13h127q68 0 110 13t61.5 42.5t25.5 60.5t6 82v606h73v-606q0 -131 -61 -197.5t-215 -66.5h-129q-81 0 -136.5 19t-85.5 56t-42.5 82.5t-12.5 106.5z" />
    <glyph glyph-name="Ubreve" unicode="&#x16c;" horiz-adv-x="1007" 
d="M338 1417h61q5 -37 17.5 -49t60.5 -12h62q24 0 38 3t21.5 13t9.5 17t6 28h60q-4 -32 -8 -48.5t-17.5 -35t-40 -26t-69.5 -7.5h-62q-81 0 -107.5 27t-31.5 90zM133 289v923h74v-923q0 -40 12.5 -78t38 -71.5t70 -53.5t102.5 -20h150q58 0 102.5 20t70 53.5t38 71.5
t12.5 78v923h74v-923q0 -54 -18.5 -104.5t-54 -92t-94 -67t-130.5 -25.5h-150q-72 0 -130.5 25.5t-94 67t-54 92t-18.5 104.5z" />
    <glyph glyph-name="ubreve" unicode="&#x16d;" horiz-adv-x="884" 
d="M276 1087h62q5 -37 17.5 -49t60.5 -12h61q24 0 38 3t22 13t10 17.5t6 27.5h59q-4 -32 -8 -48.5t-17.5 -34.5t-40 -25.5t-69.5 -7.5h-61q-81 0 -108 26.5t-32 89.5zM102 266v606h74v-606q0 -50 7.5 -83t28.5 -61t63 -41t106 -13h127q68 0 110 13.5t61.5 43t25.5 60t6 81.5
v606h73v-606q0 -131 -61 -197.5t-215 -66.5h-129q-81 0 -136.5 19t-85.5 56t-42.5 82.5t-12.5 106.5z" />
    <glyph glyph-name="Uring" unicode="&#x16e;" horiz-adv-x="1007" 
d="M502 1300q-46 0 -77.5 24.5t-38 59t1 69t39 59t77.5 24.5q47 0 79.5 -24.5t39.5 -59t-1 -69t-40.5 -59t-79.5 -24.5zM504 1358q23 0 38.5 12.5t19.5 30t1 35.5t-18.5 30.5t-38.5 12.5t-38.5 -12.5t-19.5 -30.5t-1 -35.5t18.5 -30t38.5 -12.5zM133 289v923h74v-923
q0 -40 12.5 -78t38 -71.5t70 -53.5t102.5 -20h150q58 0 102.5 20t70 53.5t38 71.5t12.5 78v923h74v-923q0 -54 -18.5 -104.5t-54 -92t-94 -67t-130.5 -25.5h-150q-72 0 -130.5 25.5t-94 67t-54 92t-18.5 104.5z" />
    <glyph glyph-name="uring" unicode="&#x16f;" horiz-adv-x="884" 
d="M446 969q-46 0 -76.5 24t-37 58.5t1 68.5t39 58t76.5 24q48 0 80.5 -24t39.5 -58t-1 -68.5t-41 -58.5t-81 -24zM451 1026q23 0 38.5 12.5t19.5 30t1 34.5t-18.5 29.5t-38.5 12.5t-38.5 -12.5t-19.5 -29.5t-1 -34.5t18.5 -30t38.5 -12.5zM102 266v606h74v-606
q0 -50 7.5 -83t28.5 -61t63 -41t106 -13h127q68 0 110 13.5t61.5 43t25.5 60t6 81.5v606h73v-606q0 -131 -61 -197.5t-215 -66.5h-129q-81 0 -136.5 19t-85.5 56t-42.5 82.5t-12.5 106.5z" />
    <glyph glyph-name="Uhungarumlaut" unicode="&#x170;" horiz-adv-x="1007" 
d="M426 1303h-74l72 104h96zM590 1303h-72l70 104h96zM133 289v925h74v-925q0 -40 12.5 -78t38 -71.5t70 -53.5t102.5 -20h150q58 0 102.5 20t70 53.5t38 71.5t12.5 78v925h74v-925q0 -53 -18.5 -103.5t-54 -92.5t-94 -67.5t-130.5 -25.5h-150q-72 0 -130.5 25.5t-94 67.5
t-54 92.5t-18.5 103.5z" />
    <glyph glyph-name="uhungarumlaut" unicode="&#x171;" horiz-adv-x="884" 
d="M365 969h-72l72 106h94zM530 969h-71l69 106h97zM102 266v606h74v-606q0 -50 7.5 -83t28.5 -61t63 -41t106 -13h127q68 0 110 13.5t61.5 43t25.5 60t6 81.5v606h73v-606q0 -131 -61 -197.5t-215 -66.5h-129q-81 0 -136.5 19t-85.5 56t-42.5 82.5t-12.5 106.5z" />
    <glyph glyph-name="Uogonek" unicode="&#x172;" horiz-adv-x="1007" 
d="M133 289v925h74v-925q0 -40 12.5 -78t38 -71.5t70 -53.5t102.5 -20h150q58 0 102.5 20t70 53.5t38 71.5t12.5 78v925h74v-925q0 -76 -38 -145t-104 -105q-35 -26 -50.5 -56t-10.5 -51q6 -22 33 -22q35 0 73 33v-70q-43 -35 -90 -35q-28 0 -50.5 15t-31.5 41
q-21 51 10 108q-6 0 -18.5 -1t-19.5 -1h-150q-72 0 -130.5 25.5t-94 67.5t-54 92.5t-18.5 103.5z" />
    <glyph glyph-name="uogonek" unicode="&#x173;" horiz-adv-x="884" 
d="M102 266v606h74v-606q0 -50 7.5 -83t28.5 -61t63 -41t106 -13h127q68 0 110 13.5t61.5 43t25.5 60t6 81.5v606h73v-606q0 -88 -25 -145t-87 -88q-34 -28 -50.5 -57.5t-11.5 -49.5q6 -22 33 -22q39 0 74 35v-70q-46 -37 -90 -37q-63 0 -82 55q-25 58 16 117q-8 0 -26 -1
t-27 -1h-129q-81 0 -136.5 19t-85.5 56t-42.5 82.5t-12.5 106.5z" />
    <glyph glyph-name="Wcircumflex" unicode="&#x174;" horiz-adv-x="1646" 
d="M793 1300h-82l86 105h49l92 -105h-84l-31 48zM489 0h-86l-383 1212h76l350 -1108l342 1108h70l350 -1108l342 1108h76l-375 -1212h-86l-342 1083z" />
    <glyph glyph-name="wcircumflex" unicode="&#x175;" horiz-adv-x="1507" 
d="M723 969h-82l86 104h51l92 -104h-84l-32 47zM102 264v606h74v-606q0 -50 7.5 -83t28.5 -61t63 -41t106 -13h133q68 0 110 13.5t61.5 43t25.5 60t6 81.5v606h74v-606q0 -50 7.5 -83t28.5 -61t62.5 -41t105.5 -13h133q68 0 110 13.5t61.5 43t25.5 60t6 81.5v606h74v-606
q0 -131 -61.5 -197.5t-215.5 -66.5h-135q-177 0 -237 106q-59 -106 -242 -106h-135q-81 0 -136.5 19t-85.5 56t-42.5 82.5t-12.5 106.5z" />
    <glyph glyph-name="Ycircumflex" unicode="&#x176;" horiz-adv-x="903" 
d="M418 1300h-82l88 105h49l92 -105h-84l-30 48zM485 6h-71v594l-394 612h84l347 -538l346 538h84l-396 -616v-590z" />
    <glyph glyph-name="ycircumflex" unicode="&#x177;" horiz-adv-x="907" 
d="M422 969h-82l88 104h49l92 -104h-86l-30 47zM102 -80h74q0 -50 7 -82.5t28 -60t62.5 -40.5t105.5 -13h94q126 0 182 46t56 136v160q-61 -64 -203 -64h-129q-81 0 -136.5 19t-85.5 56t-42.5 82.5t-12.5 106.5v606h74v-606q0 -50 7.5 -83t28.5 -61t63 -41t106 -13h127
q68 0 110 13.5t61.5 43t25.5 60t6 81.5v606h73v-964q0 -123 -77.5 -186.5t-231.5 -63.5h-96q-81 0 -136.5 18.5t-85.5 55t-42.5 82t-12.5 106.5z" />
    <glyph glyph-name="Ydieresis" unicode="&#x178;" horiz-adv-x="903" 
d="M362 1300q-34 0 -48 25t0 49.5t48 24.5q32 0 45.5 -24.5t0 -49.5t-45.5 -25zM541 1300q-34 0 -48 25t0 49.5t48 24.5q32 0 45.5 -24.5t0 -49.5t-45.5 -25zM485 6h-71v592l-394 614h84l347 -540l346 540h84l-396 -618v-588z" />
    <glyph glyph-name="Zacute" unicode="&#x179;" horiz-adv-x="987" 
d="M483 1303h-77l71 104h107zM864 0h-741v61l653 1088h-653v65h741v-57l-653 -1091h653v-66z" />
    <glyph glyph-name="zacute" unicode="&#x17a;" horiz-adv-x="755" 
d="M455 969h-76l72 106h106zM641 768l-477 -702h498v-66h-521q-39 0 -52 29.5t11 64.5l482 711h-467v65h471q38 0 56 -16t16.5 -38.5t-17.5 -47.5z" />
    <glyph glyph-name="Zdotaccent" unicode="&#x17b;" horiz-adv-x="987" 
d="M494 1300q-34 0 -47.5 25t0.5 49.5t47 24.5t46.5 -24.5t0 -49.5t-46.5 -25zM864 0h-741v61l653 1088h-653v65h741v-57l-653 -1091h653v-66z" />
    <glyph glyph-name="zdotaccent" unicode="&#x17c;" horiz-adv-x="755" 
d="M449 969q-34 0 -48 24.5t0 49t48 24.5q32 0 45.5 -24.5t0 -49t-45.5 -24.5zM641 768l-477 -702h498v-66h-521q-39 0 -52 29.5t11 64.5l482 711h-467v65h471q38 0 56 -16t16.5 -38.5t-17.5 -47.5z" />
    <glyph glyph-name="Zcaron" unicode="&#x17d;" horiz-adv-x="987" 
d="M516 1303h-49l-86 104h82l31 -47l30 47h84zM864 0h-741v61l653 1088h-653v65h741v-57l-653 -1091h653v-66z" />
    <glyph glyph-name="zcaron" unicode="&#x17e;" horiz-adv-x="755" 
d="M469 969h-51l-86 104h82l30 -47l31 47h84zM641 768l-477 -702h498v-66h-521q-39 0 -52 29.5t11 64.5l482 711h-467v65h471q38 0 56 -16t16.5 -38.5t-17.5 -47.5z" />
    <glyph glyph-name="longs" unicode="&#x17f;" horiz-adv-x="460" 
d="M176 0h-74v987q2 112 46 168t159 59h88v-65h-86q-45 0 -72.5 -11.5t-40.5 -36.5t-16.5 -50.5t-3.5 -67.5v-983z" />
    <glyph glyph-name="florin" unicode="&#x192;" horiz-adv-x="540" 
d="M96 0h-88v66h86q45 0 72.5 11.5t40.5 36t16.5 50t3.5 67.5v576h-80v65h80v115q2 112 46 168t159 59h88v-65h-86q-45 0 -72.5 -11.5t-40.5 -36.5t-16.5 -50.5t-3.5 -67.5v-111h182v-67l-182 2v-580q-2 -112 -46 -167.5t-159 -59.5z" />
    <glyph glyph-name="uni0218" unicode="&#x218;" horiz-adv-x="987" 
d="M123 276v31h74v-31q0 -54 6 -87.5t25.5 -64t61.5 -44.5t109 -14h191q64 0 105.5 13t62 41t28 61t7.5 83v121q0 50 -7.5 83t-28 61t-62 41.5t-105.5 13.5h-191q-81 0 -136 19t-85 56t-42.5 82.5t-12.5 106.5v102q0 61 12.5 106.5t42.5 82.5t85 56t136 19h152
q84 0 140.5 -20.5t85 -60.5t39.5 -86t11 -109v-31h-73v31q0 54 -6 87.5t-26 64.5t-62 45t-109 14h-152q-64 0 -105.5 -13.5t-62 -41.5t-27.5 -61t-7 -83v-102q0 -50 7 -83t27.5 -61t62 -41.5t105.5 -13.5h191q81 0 136 -19t85 -56t42.5 -82.5t12.5 -106.5v-121
q0 -61 -12.5 -106.5t-42.5 -82.5t-85 -56t-136 -19h-191q-84 0 -140.5 20.5t-85 60.5t-39.5 86t-11 109zM483 -207h-75l69 105h107z" />
    <glyph glyph-name="uni0219" unicode="&#x219;" horiz-adv-x="798" 
d="M469 0h-352v66h352q85 0 131.5 49.5t46.5 120.5q0 80 -42 132t-132 52h-145q-124 0 -188 63t-64 158q0 99 60 164t186 65h348v-65h-346q-92 0 -134.5 -44t-42.5 -120q0 -156 195 -156h133q66 0 115.5 -22.5t76 -59.5t39.5 -79t13 -88q0 -97 -63 -166.5t-187 -69.5z
M381 -207h-76l70 105h108z" />
    <glyph glyph-name="uni021A" unicode="&#x21a;" horiz-adv-x="995" 
d="M535 -2h-74v1151h-441v65h955v-65h-440v-1151zM471 -207h-78l72 105h106z" />
    <glyph glyph-name="uni021B" unicode="&#x21b;" horiz-adv-x="608" 
d="M573 0h-231q-80 0 -131 15.5t-77.5 49t-36 75.5t-9.5 106v561h-57v65h57v154h74v-154h278v-65h-278v-561q0 -54 5.5 -84t24 -54t54 -33t96.5 -9h231v-66zM293 -207h-76l70 105h108z" />
    <glyph glyph-name="uni0237" unicode="&#x237;" horiz-adv-x="307" 
d="M-109 -342v66q64 0 105.5 13t62 41t28 61t7.5 83v950h74v-950q0 -62 -12.5 -107t-42 -82t-85.5 -56t-137 -19z" />
    <glyph glyph-name="circumflex" unicode="&#x2c6;" horiz-adv-x="288" 
d="M113 1249h-84l88 105h49l92 -105h-84l-31 45z" />
    <glyph glyph-name="caron" unicode="&#x2c7;" horiz-adv-x="288" 
d="M166 1249h-49l-88 105h84l30 -47l31 47h84z" />
    <glyph glyph-name="breve" unicode="&#x2d8;" horiz-adv-x="409" 
d="M37 1333h61q5 -37 17.5 -49t60.5 -12h64q43 0 55.5 13t17.5 48h60q-4 -32 -8 -48.5t-17 -34.5t-39.5 -25.5t-68.5 -7.5h-64q-42 0 -69 7t-41 23.5t-20 35t-9 50.5z" />
    <glyph glyph-name="dotaccent" unicode="&#x2d9;" horiz-adv-x="141" 
d="M72 1116q-35 0 -49 24.5t0.5 49t48.5 24.5q32 0 45.5 -24.5t0 -49t-45.5 -24.5z" />
    <glyph glyph-name="ring" unicode="&#x2da;" horiz-adv-x="288" 
d="M141 1212q-33 0 -58.5 13t-39 33.5t-19.5 45.5t0.5 50t20 45.5t39.5 33.5t59 13q47 0 79.5 -24t40 -58.5t-0.5 -69t-40.5 -58.5t-80.5 -24zM143 1270q23 0 39 12.5t20 30t0.5 34.5t-19 29.5t-38.5 12.5q-38 0 -53.5 -30t-0.5 -59.5t52 -29.5z" />
    <glyph glyph-name="ogonek" unicode="&#x2db;" horiz-adv-x="225" 
d="M184 -23l17 -55q-56 -38 -97 -51q-36 -14 -45 -8q-16 19 45 63q34 34 72 56l2 -9q2 0 6 4z" />
    <glyph glyph-name="tilde" unicode="&#x2dc;" horiz-adv-x="430" 
d="M20 1249v80q52 49 107 49q38 0 99 -33.5t89 -33.5q46 0 86 61v-82q-44 -47 -92 -47q-34 0 -95.5 35t-94.5 35q-51 0 -99 -64z" />
    <glyph glyph-name="hungarumlaut" unicode="&#x2dd;" horiz-adv-x="376" 
d="M94 1212h-74l72 105h96zM258 1212h-72l70 105h96z" />
    <glyph glyph-name="uni0326" unicode="&#x326;" horiz-adv-x="243" 
d="M100 -197h-77l71 105h107z" />
    <glyph glyph-name="tonos" unicode="&#x384;" horiz-adv-x="253" 
d="M119 1212h-78l72 105h106z" />
    <glyph glyph-name="Alphatonos" unicode="&#x386;" horiz-adv-x="1028" 
d="M397 1178l-75 -2l69 106h109zM578 0h-537l483 1212h82l381 -1212h-76l-348 1114l-418 -1048h433v-66z" />
    <glyph glyph-name="Epsilontonos" unicode="&#x388;" horiz-adv-x="1009" 
d="M117 1178h-76l72 104h106zM895 565h-666v-301q0 -50 7.5 -83t28 -61t62 -41t105.5 -13h463v-66h-463q-81 0 -136 19t-85 56t-42.5 82.5t-12.5 106.5v686q0 61 12.5 106.5t42.5 82.5t85 56t136 19h465v-65h-465q-64 0 -105.5 -13.5t-62 -41.5t-28 -61t-7.5 -83v-321h666
v-64z" />
    <glyph glyph-name="Etatonos" unicode="&#x389;" horiz-adv-x="1126" 
d="M104 1176h-77l71 106h107zM315 0h-73v1214h73v-626h596v626h74v-1214h-74v522h-596v-522z" />
    <glyph glyph-name="Iotatonos" unicode="&#x38a;" horiz-adv-x="454" 
d="M98 1176h-75l69 104h109zM311 0h-73v1212h73v-1212z" />
    <glyph glyph-name="Omicrontonos" unicode="&#x38c;" horiz-adv-x="1042" 
d="M176 1178h-78l72 104h109zM522 0q-78 0 -141 18.5t-106.5 49t-75 77.5t-50 96.5t-29 115t-13.5 124t-3 131.5q0 65 2.5 113.5t9 108t19.5 103t33.5 89.5t52 78t73 58t99.5 39t129 13q64 0 117 -11t92.5 -29.5t71 -48.5t53 -61.5t37 -76t24.5 -84.5t14 -93.5t7 -96.5
t2 -101q0 -73 -3 -131.5t-13.5 -124t-29 -115t-50 -96.5t-75 -77.5t-106.5 -49t-141 -18.5zM522 66q52 0 95.5 11t76 28.5t58 46.5t43 59t29.5 71.5t19 78.5t11 86t5 87t1 89q0 53 -0.5 86.5t-4 82.5t-9.5 81.5t-18 73.5t-29 67.5t-42.5 54.5t-58.5 44t-77.5 26t-98.5 10
t-98.5 -10t-77.5 -26t-58.5 -44t-42.5 -54.5t-29 -67.5t-18 -73.5t-9.5 -81.5t-4 -82.5t-0.5 -86.5q0 -51 1 -89t5 -87t11 -86t19 -78.5t29.5 -71.5t43 -59t58 -46.5t76 -28.5t95.5 -11z" />
    <glyph glyph-name="Upsilontonos" unicode="&#x38e;" horiz-adv-x="1107" 
d="M98 1176h-78l72 104h107zM686 4h-72v596l-393 612h84l346 -538l348 538h82l-395 -616v-592z" />
    <glyph glyph-name="Omegatonos" unicode="&#x38f;" horiz-adv-x="1325" 
d="M563 0h-454v74h268q-138 73 -208.5 224t-68.5 331q1 90 21.5 173t65 158.5t108.5 131t159 88t210 32.5t210.5 -33.5t160 -90t108.5 -133.5t64 -162t20 -177q0 -175 -71 -322.5t-208 -219.5h271v-74h-457v76q121 18 209.5 98.5t132 195t45.5 248.5q1 80 -14.5 153.5
t-53 141t-93 117.5t-139.5 79.5t-187 29.5q-100 0 -182 -29t-137 -78t-92.5 -115.5t-54.5 -139t-18 -150.5q-1 -130 40.5 -246t131 -201t213.5 -104v-76zM119 1108h-76l70 104h106z" />
    <glyph glyph-name="iotadieresistonos" unicode="&#x390;" horiz-adv-x="724" 
d="M201 1087h-76l72 107h106zM51 969q-34 0 -48 24.5t0 49t48 24.5q33 0 46.5 -24.5t0 -49t-46.5 -24.5zM279 969q-34 0 -48 24.5t0 49t48 24.5q32 0 45.5 -24.5t0 -49t-45.5 -24.5zM614 0h-231q-80 0 -131 15.5t-77.5 49t-36 75.5t-9.5 106v624h74v-624q0 -54 5.5 -84
t24 -54t54 -33t96.5 -9h231v-66z" />
    <glyph glyph-name="Alpha" unicode="&#x391;" horiz-adv-x="1028" 
d="M578 0h-537l483 1212h82l381 -1212h-76l-348 1114l-418 -1048h433v-66z" />
    <glyph glyph-name="Beta" unicode="&#x392;" horiz-adv-x="1017" 
d="M610 0h-467v1214h467q146 0 211.5 -64t65.5 -196v-118q0 -81 -24 -139t-87 -89q111 -56 111 -233v-111q0 -61 -12.5 -106.5t-42.5 -82.5t-85.5 -56t-136.5 -19zM217 1149v-510h393q64 0 105.5 13.5t62 41.5t28 61t7.5 83v112q0 50 -7.5 83t-28 61t-62 41.5t-105.5 13.5
h-393zM217 573v-507h393q64 0 105.5 13t62 41t28 61t7.5 83v111q0 49 -7.5 82t-28 61t-62 41.5t-105.5 13.5h-393z" />
    <glyph glyph-name="Gamma" unicode="&#x393;" horiz-adv-x="985" 
d="M201 0h-74v950q0 61 12.5 106.5t42.5 82.5t85 56t136 19h465v-65h-465q-64 0 -105.5 -13.5t-62 -41.5t-27.5 -61t-7 -83v-950z" />
    <glyph glyph-name="uni0394" unicode="&#x394;" horiz-adv-x="1032" 
d="M987 0h-946l483 1212h82zM563 1114l-418 -1048h746z" />
    <glyph glyph-name="Epsilon" unicode="&#x395;" 
d="M842 565h-666v-301q0 -50 7.5 -83t28 -61t62 -41t105.5 -13h463v-66h-463q-81 0 -136.5 19t-85.5 56t-42.5 82.5t-12.5 106.5v686q0 61 12.5 106.5t42.5 82.5t85.5 56t136.5 19h465v-65h-465q-64 0 -105.5 -13.5t-62 -41.5t-28 -61t-7.5 -83v-321h666v-64z" />
    <glyph glyph-name="Zeta" unicode="&#x396;" horiz-adv-x="987" 
d="M864 0h-741v61l653 1088h-653v65h741v-57l-653 -1091h653v-66z" />
    <glyph glyph-name="Eta" unicode="&#x397;" horiz-adv-x="1028" 
d="M217 0h-74v1214h74v-626h596v626h74v-1214h-74v522h-596v-522z" />
    <glyph glyph-name="Theta" unicode="&#x398;" horiz-adv-x="1021" 
d="M512 0q-78 0 -141 18.5t-106.5 49t-75 77.5t-50 96.5t-29 115t-13.5 124t-3 131.5q0 65 2.5 113.5t9 108t19.5 103t33.5 89.5t52 78t73 58t99.5 39t129 13q64 0 117 -11t92.5 -29.5t71 -48.5t53 -61.5t37 -76t24.5 -84.5t14 -93.5t7 -96.5t2 -101q0 -73 -3 -131.5
t-13.5 -124t-29 -115t-50 -96.5t-75 -77.5t-106.5 -49t-141 -18.5zM512 66q52 0 95.5 11t76 28.5t58 46.5t43 59t29.5 71.5t19 78t11 85.5t5 86.5t1 88.5q0 69 -1.5 111.5t-8 105t-19.5 101t-37.5 83t-60 69t-89 41.5t-122.5 17t-122.5 -17t-89 -41.5t-60 -69t-37.5 -83
t-19.5 -101t-8 -105t-1.5 -111.5q0 -51 1 -88.5t5 -86.5t11 -85.5t19 -78t29.5 -71.5t43 -59t58 -46.5t76 -28.5t95.5 -11zM745 573h-462v66h462v-66z" />
    <glyph glyph-name="Iota" unicode="&#x399;" horiz-adv-x="360" 
d="M217 0h-74v1212h74v-1212z" />
    <glyph glyph-name="Kappa" unicode="&#x39a;" horiz-adv-x="940" 
d="M217 0h-74v1212h74v-602l586 602h98l-569 -579l569 -633h-96l-524 582l-64 -66v-516z" />
    <glyph glyph-name="Lambda" unicode="&#x39b;" horiz-adv-x="878" 
d="M16 0l383 1212h86l375 -1212h-76l-342 1108l-350 -1108h-76z" />
    <glyph glyph-name="Mu" unicode="&#x39c;" horiz-adv-x="1366" 
d="M217 0h-74v1212h84l459 -1110l457 1110h80v-1212h-72v1051l-430 -1051h-72l-432 1047v-1047z" />
    <glyph glyph-name="Nu" unicode="&#x39d;" horiz-adv-x="1030" 
d="M217 0h-74v1212h80l592 -1083v1083h74v-1212h-84l-588 1081v-1081z" />
    <glyph glyph-name="Xi" unicode="&#x39e;" horiz-adv-x="987" 
d="M864 1149h-741v65h741v-65zM748 586h-506v65h506v-65zM864 0h-741v66l741 -3v-63z" />
    <glyph glyph-name="Omicron" unicode="&#x39f;" horiz-adv-x="1042" 
d="M522 0q-78 0 -141 18.5t-106.5 49t-75 77.5t-50 96.5t-29 115t-13.5 124t-3 131.5q0 65 2.5 113.5t9 108t19.5 103t33.5 89.5t52 78t73 58t99.5 39t129 13q64 0 117 -11t92.5 -29.5t71 -48.5t53 -61.5t37 -76t24.5 -84.5t14 -93.5t7 -96.5t2 -101q0 -73 -3 -131.5
t-13.5 -124t-29 -115t-50 -96.5t-75 -77.5t-106.5 -49t-141 -18.5zM522 66q52 0 95.5 11t76 28.5t58 46.5t43 59t29.5 71.5t19 78.5t11 86t5 87t1 89q0 53 -0.5 86.5t-4 82.5t-9.5 81.5t-18 73.5t-29 67.5t-42.5 54.5t-58.5 44t-77.5 26t-98.5 10t-98.5 -10t-77.5 -26
t-58.5 -44t-42.5 -54.5t-29 -67.5t-18 -73.5t-9.5 -81.5t-4 -82.5t-0.5 -86.5q0 -51 1 -89t5 -87t11 -86t19 -78.5t29.5 -71.5t43 -59t58 -46.5t76 -28.5t95.5 -11z" />
    <glyph glyph-name="Pi" unicode="&#x3a0;" horiz-adv-x="1001" 
d="M205 0h-74v1212h737v-1212h-73v1149h-590v-1149z" />
    <glyph glyph-name="Rho" unicode="&#x3a1;" horiz-adv-x="991" 
d="M217 0h-74v1214h467q81 0 136.5 -19t85.5 -56t42.5 -82.5t12.5 -106.5v-123q0 -61 -12.5 -106.5t-42.5 -82t-85.5 -55t-136.5 -18.5h-393v-565zM217 1149v-520h393q64 0 105.5 13t62 41t28 61t7.5 83v123q0 50 -7.5 83t-28 61t-62 41.5t-105.5 13.5h-393z" />
    <glyph glyph-name="Sigma" unicode="&#x3a3;" horiz-adv-x="974" 
d="M578 653l-435 496v65h684v-65h-598l430 -490l-440 -593h608v-66h-684v66z" />
    <glyph glyph-name="Tau" unicode="&#x3a4;" horiz-adv-x="995" 
d="M535 -2h-74v1151h-441v65h955v-65h-440v-1151z" />
    <glyph glyph-name="Upsilon" unicode="&#x3a5;" horiz-adv-x="903" 
d="M485 4h-71v594l-394 614h84l347 -540l348 540h82l-396 -618v-590z" />
    <glyph glyph-name="Phi" unicode="&#x3a6;" horiz-adv-x="1011" 
d="M541 0h-74v129q-59 2 -107 11t-84.5 22t-65 35t-48 44.5t-33.5 56t-22 64t-12.5 74t-5.5 80t-1 88.5t1 89t5.5 80.5t12.5 74t22 64t33.5 56t48 44t65 34.5t84.5 22t107 11v133h74v-133q76 -2 134 -15.5t98.5 -33.5t68.5 -55t44 -69.5t24.5 -88t11 -99.5t2.5 -114
t-2.5 -113.5t-11 -99t-24.5 -88t-44 -69.5t-68.5 -55.5t-98.5 -34t-134 -15.5v-129zM467 197v815q-85 -4 -142 -25t-88 -49t-46.5 -86t-19 -107.5t-3.5 -140.5q0 -45 0.5 -73.5t3 -65t6.5 -59.5t12 -51t19.5 -45.5t27.5 -37t38 -31t50 -22t63.5 -15.5t78.5 -7zM541 1012
v-815q44 1 80 6.5t64 15.5t50.5 21.5t39 31t28 36.5t19 45.5t12 51.5t7 60t3 65.5t0.5 73.5q0 50 -0.5 81.5t-4 71.5t-9 64.5t-16 54t-26.5 47t-38.5 36t-52 28t-68.5 16.5t-88 9z" />
    <glyph glyph-name="Chi" unicode="&#x3a7;" horiz-adv-x="903" 
d="M104 0h-84l392 606l-392 606h84l349 -538l346 538h84l-389 -606l389 -606h-84l-346 541z" />
    <glyph glyph-name="Psi" unicode="&#x3a8;" horiz-adv-x="1083" 
d="M133 739v473h74v-473q0 -40 12.5 -77t38 -69.5t70 -52.5t102.5 -20h76v692h74v-692h75q58 0 103 20t70.5 52.5t38 70t12.5 76.5v473h73v-473q0 -113 -78 -199.5t-219 -86.5h-75v-455h-74v455h-76q-141 0 -219 86.5t-78 199.5z" />
    <glyph glyph-name="uni03A9" unicode="&#x3a9;" horiz-adv-x="1325" 
d="M563 0h-454v74h268q-138 73 -208.5 224t-68.5 331q1 90 21.5 173t65 158.5t108.5 131t159 88t210 32.5t210.5 -33.5t160 -90t108.5 -133.5t64 -162t20 -177q0 -175 -71 -322.5t-208 -219.5h271v-74h-457v76q121 18 209.5 98.5t132 195t45.5 248.5q1 80 -14.5 153.5
t-53 141t-93 117.5t-139.5 79.5t-187 29.5q-100 0 -182 -29t-137 -78t-92.5 -115.5t-54.5 -139t-18 -150.5q-1 -130 40.5 -246t131 -201t213.5 -104v-76z" />
    <glyph glyph-name="Iotadieresis" unicode="&#x3aa;" horiz-adv-x="360" 
d="M92 1300q-34 0 -48 25t0 49.5t48 24.5q33 0 46.5 -24.5t0 -49.5t-46.5 -25zM270 1300q-33 0 -46.5 25t0 49.5t46.5 24.5t46.5 -24.5t0 -49.5t-46.5 -25zM217 0h-74v1212h74v-1212z" />
    <glyph glyph-name="Upsilondieresis" unicode="&#x3ab;" horiz-adv-x="903" 
d="M362 1300q-34 0 -48 25t0 49.5t48 24.5q32 0 45.5 -24.5t0 -49.5t-45.5 -25zM541 1300q-33 0 -46.5 25t0 49.5t46.5 24.5t46.5 -24.5t0 -49.5t-46.5 -25zM485 4h-71v594l-394 614h84l347 -540l348 540h82l-396 -618v-590z" />
    <glyph glyph-name="alphatonos" unicode="&#x3ac;" horiz-adv-x="917" 
d="M473 969h-76l72 104h106zM895 66v-66q-128 0 -172 94q-31 -46 -92.5 -70t-134.5 -24h-78q-86 0 -147.5 24.5t-96 62t-54.5 97.5t-25.5 116.5t-4.5 133.5q0 48 1 76t4.5 71t9.5 68.5t17.5 60t28 55t41 43t56.5 34.5t75 20t95 8h78q131 0 200 -55l27 55h49v-630
q0 -35 1.5 -57t8.5 -46.5t20 -38t36 -22.5t57 -10zM418 66h78q64 0 105.5 13t62 41.5t27.5 61t7 82.5v342q0 50 -7 83t-27.5 61t-62 41.5t-105.5 13.5h-78q-73 0 -123.5 -22t-76 -49.5t-38 -84t-14.5 -93.5t-2 -110v-2v-2v-4q0 -61 1.5 -92.5t8 -83.5t22.5 -80t43 -58.5
t72 -44t107 -13.5z" />
    <glyph glyph-name="epsilontonos" unicode="&#x3ad;" horiz-adv-x="931" 
d="M500 967h-76l70 104h108zM805 70v-68h-367q-216 0 -279 141q-33 75 -34 237v44v4q0 65 1 97.5t6.5 88t17 85t34 68.5t55.5 58t83.5 33t115.5 14h367v-67h-367q-48 0 -86 -9.5t-63 -24.5t-42.5 -41t-27 -50t-15 -62t-6.5 -67t-1 -74h510v-67h-510q-2 -46 0 -88.5
t6.5 -80.5t20.5 -69.5t41 -54t69 -35t104 -12.5h367z" />
    <glyph glyph-name="etatonos" unicode="&#x3ae;" horiz-adv-x="886" 
d="M453 969h-76l69 104h109zM176 0h-74v608q0 61 12.5 106.5t42.5 82t85.5 55t136.5 18.5h129q83 0 138.5 -18t85 -54.5t41 -81t11.5 -108.5v-950h-73v950q0 51 -6.5 83t-27 61t-62 42t-107.5 13h-129q-64 0 -105.5 -13.5t-62 -41.5t-28 -61t-7.5 -83v-608z" />
    <glyph glyph-name="iotatonos" unicode="&#x3af;" horiz-adv-x="602" 
d="M127 969h-78l72 106h106zM580 0h-232q-80 0 -131 15.5t-77.5 49t-36 75.5t-9.5 106v624h74v-624q0 -54 5.5 -84t24 -54t54 -33t96.5 -9h232v-66z" />
    <glyph glyph-name="upsilondieresistonos" unicode="&#x3b0;" horiz-adv-x="880" 
d="M455 1073h-76l70 105h108zM291 969q-34 0 -47.5 24.5t0.5 49t47 24.5t46.5 -24.5t0 -49t-46.5 -24.5zM561 969q-34 0 -48 24.5t0 49t48 24.5q33 0 46.5 -24.5t0 -49t-46.5 -24.5zM102 262v608h74v-608q0 -50 7.5 -83t28 -61t62 -41.5t105.5 -13.5h96q74 0 124 31t72.5 81
t29 119t-0.5 138t-22.5 145.5t-30.5 133.5t-31 111q-10 35 -14 48h74q73 -254 91 -390q64 -480 -292 -480h-96q-81 0 -136.5 18.5t-85.5 55t-42.5 82t-12.5 106.5z" />
    <glyph glyph-name="alpha" unicode="&#x3b1;" horiz-adv-x="925" 
d="M895 66v-66q-128 0 -172 94q-31 -46 -92.5 -70t-134.5 -24h-78q-86 0 -147.5 24.5t-96 62t-54.5 97.5t-25.5 116.5t-4.5 133.5q0 48 1 76t4.5 71t9.5 68.5t17.5 60t28 55t41 43t56.5 34.5t75 20t95 8h78q131 0 200 -55l27 55h49v-630q0 -35 1.5 -57t8.5 -46.5t20 -38
t36 -22.5t57 -10zM418 66h78q64 0 105.5 13t62 41.5t27.5 61t7 82.5v342q0 50 -7 83t-27.5 61t-62 41.5t-105.5 13.5h-78q-73 0 -123.5 -22t-76 -49.5t-38 -84t-14.5 -93.5t-2 -110v-2v-2v-4q0 -61 1.5 -92.5t8 -83.5t22.5 -80t43 -58.5t72 -44t107 -13.5z" />
    <glyph glyph-name="beta" unicode="&#x3b2;" horiz-adv-x="1013" 
d="M195 -342h-74v1329q2 113 45.5 168.5t159.5 58.5h284q147 0 211 -64.5t64 -195.5v-118q0 -81 -24 -139t-87 -89q113 -59 113 -233l-2 -111q0 -128 -60 -196t-215 -68h-274v66h274q64 0 105.5 13t62 41t28 61t7.5 83v111q0 50 -7.5 83t-28 61t-62 41t-105.5 13h-135v66
h135q64 0 105.5 13.5t62 41.5t28 61t7.5 83v112q0 50 -7.5 83t-28 61t-62 41.5t-105.5 13.5h-282q-45 0 -72.5 -11.5t-40.5 -36.5t-16.5 -50.5t-3.5 -67.5v-1325z" />
    <glyph glyph-name="gamma" unicode="&#x3b3;" horiz-adv-x="741" 
d="M279 -342h-72q38 239 139 494l-295 718h76l256 -626q19 45 78.5 178.5t101 236t78.5 211.5h76q-51 -151 -125 -326.5t-127.5 -295t-106.5 -278.5t-79 -312z" />
    <glyph glyph-name="delta" unicode="&#x3b4;" horiz-adv-x="907" 
d="M502 6h-96q-66 0 -116.5 13t-84 31t-56 55.5t-34 66t-17.5 83.5t-7 88.5t-1 98.5q0 57 1.5 95t8.5 88t19.5 82.5t36 67.5t56.5 55.5t82 33.5t112 13l124 -3l-292 238q-23 18 -28 41t16 41t65 18h471v-65h-459l397 -322q27 -18 47 -42.5t32.5 -56t20.5 -61.5t11.5 -71.5
t4.5 -73t1 -78.5q0 -66 -1 -99t-6.5 -88t-17 -83.5t-34.5 -66t-56 -55.5t-83.5 -31t-116.5 -13zM406 72h96q51 0 90 9.5t64.5 26.5t43.5 41t26 52.5t13 61.5t4.5 68.5t-0.5 72.5v38q0 72 -2 110t-14 96t-36 87.5t-72 52.5t-117 23h-96q-40 0 -72 -7t-56 -17.5t-42.5 -31
t-30 -37t-20 -47t-12.5 -50.5t-6 -57t-2.5 -57.5t-0.5 -60.5v-4v-37q0 -29 -0.5 -57t2 -54.5t6 -51.5t12 -47t20.5 -41t30.5 -34t42 -26t56.5 -16.5t73 -5.5z" />
    <glyph glyph-name="epsilon" unicode="&#x3b5;" horiz-adv-x="931" 
d="M805 68v-68h-367q-216 0 -279 141q-33 75 -34 237v44v4q0 65 1 98t6.5 89t17 85.5t34 68.5t55.5 58t83.5 33t115.5 14h367v-67h-367q-48 0 -86 -9.5t-63 -24.5t-42.5 -41t-27 -50.5t-15 -62.5t-6.5 -67.5t-1 -74.5h510v-67h-510q-2 -46 0 -88.5t6.5 -80.5t20.5 -69.5
t41 -54t69 -35t104 -12.5h367z" />
    <glyph glyph-name="zeta" unicode="&#x3b6;" horiz-adv-x="827" 
d="M424 -244v74q24 -8 55 -8q79 0 119.5 48t-2.5 97q-15 24 -51 45.5t-79.5 39.5t-94 38t-97.5 47.5t-86.5 62.5t-65.5 88.5t-30 119.5q-5 94 29 182.5t98 165.5t127.5 138t145 134t124.5 121h-430v65h535v-65q-39 -51 -104 -113t-125 -112t-123.5 -113t-108.5 -122
t-71.5 -134.5t-20.5 -153.5q8 -64 39.5 -111.5t76 -75.5t96.5 -49t104.5 -38.5t97 -37.5t76.5 -52t40 -76q23 -63 -11.5 -117t-107.5 -79t-155 -9z" />
    <glyph glyph-name="eta" unicode="&#x3b7;" horiz-adv-x="886" 
d="M176 0h-74v606q0 61 12.5 106.5t42.5 82.5t85.5 56t136.5 19h129q158 0 217 -62.5t59 -201.5v-950h-73v950q0 41 -3 67t-15 53.5t-33.5 43t-59 25.5t-92.5 10h-127q-64 0 -106 -13.5t-63 -41.5t-28.5 -61t-7.5 -83v-606z" />
    <glyph glyph-name="theta" unicode="&#x3b8;" horiz-adv-x="983" 
d="M512 0q-78 0 -141 18.5t-106.5 49t-75 77.5t-50 96.5t-29 115t-13.5 124t-3 131.5q0 65 2.5 113.5t9 108t19.5 103t33.5 89.5t52 78t73 58t99.5 39t129 13q64 0 117 -11t92.5 -29.5t71 -48.5t53 -61.5t37 -76t24.5 -84.5t14 -93.5t7 -96.5t2 -101q0 -73 -3 -131.5
t-13.5 -124t-29 -115t-50 -96.5t-75 -77.5t-106.5 -49t-141 -18.5zM174 639h676q0 50 -1 85t-4.5 81.5t-10.5 79.5t-19 71t-29.5 64.5t-43 52.5t-58 41.5t-76 25t-96.5 9.5t-96.5 -9.5t-76 -25t-58 -41.5t-43 -52.5t-29.5 -64.5t-19 -71t-10.5 -79.5t-4.5 -81.5t-1 -85z
M512 66q63 0 113.5 15.5t85 41t60 65t40.5 80.5t24 95.5t12 102t3 107.5h-676q0 -60 3 -107.5t12 -102t24 -95.5t40.5 -80.5t60 -65t85 -41t113.5 -15.5z" />
    <glyph glyph-name="iota" unicode="&#x3b9;" horiz-adv-x="591" 
d="M573 0h-231q-80 0 -131 15.5t-77.5 49t-36 75.5t-9.5 106v624h74v-624q0 -54 5.5 -84t24 -54t54 -33t96.5 -9h231v-66z" />
    <glyph glyph-name="kappa" unicode="&#x3ba;" horiz-adv-x="794" 
d="M209 0h-74v872h74v-397l448 397h107l-440 -389l438 -483h-96l-396 434l-61 -53v-381z" />
    <glyph glyph-name="lambda" unicode="&#x3bb;" horiz-adv-x="976" 
d="M930 78v-68q-42 -10 -68 -10q-59 0 -98 38t-70 114l-243 618l-322 -764h-76l361 854l-86 205q-26 67 -52 94t-63 27q-26 0 -127 -33v68q85 32 137 32q57 0 96.5 -36t73.5 -119l367 -916q24 -61 47.5 -87.5t64.5 -26.5q20 0 58 10z" />
    <glyph glyph-name="uni03BC" unicode="&#x3bc;" horiz-adv-x="884" 
d="M102 -342v1214h74v-606q0 -50 7.5 -83t28.5 -61t63 -41t106 -13h127q68 0 110 13.5t61.5 43t25.5 60t6 81.5v606h73v-606q0 -131 -61 -197.5t-215 -66.5h-129q-140 0 -203 66v-410h-74z" />
    <glyph glyph-name="nu" unicode="&#x3bd;" horiz-adv-x="827" 
d="M399 0h-80l-299 870h76l273 -790q133 192 190 368t84 422h70q-20 -262 -90 -451t-224 -419z" />
    <glyph glyph-name="xi" unicode="&#x3be;" horiz-adv-x="747" 
d="M393 -244v68q24 0 52 -0.5t56.5 5t51.5 14.5t38.5 29.5t16.5 49.5q3 34 -24.5 60t-74.5 44.5t-104 37t-114.5 46t-105 63.5t-77.5 96t-30 137q0 68 23.5 127t62.5 99t83 66.5t91 38.5q-197 49 -197 201q0 79 55.5 134.5t133.5 76.5h-203v65h512v-65q-38 -3 -63 -5
t-74.5 -8.5t-84 -15t-77.5 -24.5t-69.5 -36.5t-45 -50.5t-18.5 -67q0 -158 305 -158h117v-65h-117q-166 0 -268.5 -92t-100.5 -226q1 -67 31.5 -117t78 -80t104.5 -53t114 -43t103 -43t73.5 -60t24.5 -87q-4 -162 -279 -162z" />
    <glyph glyph-name="omicron" unicode="&#x3bf;" horiz-adv-x="892" 
d="M496 6h-99q-66 0 -116 13t-83 31t-55.5 55.5t-34 66t-17 83.5t-6.5 88t-1 99q0 57 1.5 95t8.5 88t19 82.5t35 67.5t56 55.5t81.5 33.5t111.5 13h99q63 0 111.5 -13t81.5 -33.5t56 -55.5t35 -67.5t19 -82.5t8.5 -88t1.5 -95q0 -66 -1 -99t-6.5 -88t-17 -83.5t-34 -66
t-55.5 -55.5t-83 -31t-116 -13zM397 72h99q51 0 89.5 9.5t63.5 26.5t43 41t26 52.5t13 61.5t4.5 68.5t-0.5 71.5v39q0 150 -14 209q-31 128 -152 153q-34 7 -73 7h-99q-69 0 -116.5 -23t-71 -51.5t-36 -86t-14 -94t-1.5 -107.5v-7q0 -143 3 -173q13 -125 93 -168
q54 -29 143 -29z" />
    <glyph glyph-name="pi" unicode="&#x3c0;" horiz-adv-x="1067" 
d="M231 0h-73v807h-115v22l115 43h688v-65h-279v-561q0 -54 5.5 -84t24 -54t54.5 -33t97 -9h231v-66h-231q-80 0 -131 15.5t-77.5 49t-36 75.5t-9.5 106v561h-263v-807z" />
    <glyph glyph-name="rho" unicode="&#x3c1;" horiz-adv-x="872" 
d="M176 -340h-74v948q0 61 12.5 106.5t42.5 82t85.5 55t136.5 18.5h129q81 0 136.5 -18.5t85.5 -55.5t42 -81.5t12 -106.5v-344q0 -62 -12 -107t-42 -82t-85.5 -56t-136.5 -19h-88q-178 0 -244 66v-406zM176 608v-344q0 -49 8 -82.5t29.5 -61t62.5 -41t103 -13.5h129
q64 0 105.5 13t62 41t28 61t7.5 83v344q0 50 -7.5 83t-28 61t-62 41.5t-105.5 13.5h-129q-64 0 -105.5 -13.5t-62 -41.5t-28 -61t-7.5 -83z" />
    <glyph glyph-name="uni03C2" unicode="&#x3c2;" horiz-adv-x="876" 
d="M657 -281h-82q5 7 19.5 26.5t24.5 33t21 36t13 40t-5 39.5t-27 39.5t-58 35.5t-94 31q-96 22 -164.5 55.5t-109.5 72.5t-64.5 91.5t-30.5 104t-6 118.5t9.5 121t32.5 114t63.5 100t108 66.5t159.5 26.5q92 0 155 -12t150 -47v-68q-87 32 -153.5 47t-151.5 15
q-71 0 -124.5 -21t-85.5 -54.5t-52 -84t-27.5 -100t-9.5 -111.5q-1 -60 5 -103.5t24.5 -85.5t52 -73t87.5 -57.5t130 -46.5q79 -21 133 -46.5t79.5 -54.5t36 -58t2.5 -63.5t-22.5 -63t-38.5 -63.5z" />
    <glyph glyph-name="sigma" unicode="&#x3c3;" horiz-adv-x="923" 
d="M496 2h-99q-66 0 -116 13.5t-83 31.5t-55.5 55.5t-34 66t-17 83.5t-6.5 88t-1 98q0 44 1 74.5t4.5 70.5t9.5 68t17 60.5t27 54.5t40 44t54 35t70.5 21t89.5 8h496v-65h-186q35 -27 57 -66.5t31 -94t11.5 -97.5t2.5 -113q0 -65 -1 -98t-6.5 -88t-17 -83.5t-34 -66
t-55.5 -55.5t-83 -31.5t-116 -13.5zM397 68h99q51 0 89.5 9.5t63.5 26.5t43 41t26 53t13 62t4.5 68.5t-0.5 72.5v39q0 149 -14 209q-31 129 -154 153q-33 7 -71 7h-99q-69 0 -116.5 -23t-71 -52t-36 -86t-14 -94t-1.5 -108v-6v-42q-1 -33 0 -64t2.5 -60.5t8.5 -56t17 -49.5
t28.5 -41.5t43 -31.5t60 -20t79.5 -7z" />
    <glyph glyph-name="tau" unicode="&#x3c4;" horiz-adv-x="798" 
d="M225 807h-194v22l116 43h431v-65h-279v-561q0 -54 5.5 -84t24 -54t54 -33t96.5 -9h232v-66h-232q-80 0 -131 15.5t-77.5 49t-36 75.5t-9.5 106v561z" />
    <glyph glyph-name="upsilon" unicode="&#x3c5;" horiz-adv-x="892" 
d="M102 264v606h74v-606q0 -50 7.5 -83t28.5 -61t63 -41t106 -13h127q71 0 119 34t70 88t28 128.5t-0.5 148t-22 154.5t-31 139.5t-32.5 111.5h74q20 -50 38.5 -117t32.5 -151t18.5 -166.5t-9 -162t-44.5 -139.5t-92.5 -97t-148.5 -37h-129q-81 0 -136.5 19t-85.5 56
t-42.5 82.5t-12.5 106.5z" />
    <glyph glyph-name="phi" unicode="&#x3c6;" horiz-adv-x="1091" 
d="M588 -344h-74v344q-105 0 -186 31t-129 84.5t-75.5 124.5t-31 151t9 164.5t40.5 165t67 151.5h74q-32 -59 -58.5 -129t-42.5 -148t-19 -153t15.5 -143.5t57 -120t109.5 -82t169 -30.5v544q0 122 65.5 195.5t155.5 73.5q84 0 153.5 -68t92.5 -199q14 -75 15.5 -145.5
t-10 -139.5t-41.5 -126.5t-76 -102t-118 -70.5t-163 -28v-344zM588 610v-544q97 2 166 35.5t105 86t51.5 125t13 145t-18.5 154.5q-18 95 -65 145t-103 50q-62 0 -105.5 -53.5t-43.5 -143.5z" />
    <glyph glyph-name="chi" unicode="&#x3c7;" horiz-adv-x="874" 
d="M856 -266v-68q-42 -10 -65 -10q-59 0 -99 37.5t-71 113.5l-193 488l-338 -637h-78l381 723l-123 309q-28 67 -54 94t-64 27q-23 0 -74 -14v65q53 17 86 17q56 0 97 -37.5t73 -118.5l102 -258l215 405h82l-262 -493l215 -537q22 -60 47 -88t68 -28q17 0 55 10z" />
    <glyph glyph-name="psi" unicode="&#x3c8;" horiz-adv-x="1112" 
d="M596 -344h-74v344q-105 1 -184.5 32.5t-127 85t-75 124.5t-30.5 151t9.5 164t40 164t66.5 151h76q-32 -59 -58.5 -128.5t-42.5 -147t-19.5 -152t15 -143t56 -120.5t107.5 -83t167 -32v1148h74v-1148q96 1 165.5 32.5t107 83.5t55 120t14.5 142.5t-19 152.5t-42 147
t-58 128h74q39 -71 67.5 -151t41 -163.5t9.5 -163.5t-30 -151t-74.5 -124.5t-127 -85.5t-183.5 -33v-344z" />
    <glyph glyph-name="omega" unicode="&#x3c9;" horiz-adv-x="1470" 
d="M698 336l-2 237h74v-237q1 -49 16 -93t44.5 -80t78 -57.5t109.5 -21.5q104 1 169.5 54.5t88 138t19.5 193t-26.5 213t-60.5 204.5h74q39 -94 62.5 -193.5t30.5 -197.5t-11 -184t-57.5 -152.5t-114 -105t-176.5 -38.5q-90 0 -167 46t-114 122q-30 -84 -114.5 -133
t-182.5 -49q-101 0 -174 38.5t-111.5 104.5t-55 151.5t-8.5 183.5t32 196.5t63 193.5h74q-26 -70 -45.5 -143.5t-32 -153t-13.5 -151t13.5 -137t44 -113t84 -76t129.5 -28.5q123 0 190.5 73t69.5 195z" />
    <glyph glyph-name="iotadieresis" unicode="&#x3ca;" horiz-adv-x="628" 
d="M78 969q-34 0 -47.5 24.5t0.5 49t47 24.5t46.5 -24.5t0 -49t-46.5 -24.5zM258 969q-34 0 -48 24.5t0 49t48 24.5q32 0 45.5 -24.5t0 -49t-45.5 -24.5zM610 0h-231q-80 0 -131 15.5t-77.5 49t-36 75.5t-9.5 106v624h74v-624q0 -54 5.5 -84t24 -54t54 -33t96.5 -9h231v-66z
" />
    <glyph glyph-name="upsilondieresis" unicode="&#x3cb;" horiz-adv-x="874" 
d="M332 969q-34 0 -48 24.5t0 49t48 24.5q32 0 45.5 -24.5t0 -49t-45.5 -24.5zM510 969q-33 0 -46.5 24.5t0 49t46.5 24.5q32 0 45.5 -24.5t0 -49t-45.5 -24.5zM102 264v606h74v-606q0 -50 7.5 -83t28.5 -61t63 -41t106 -13h127q71 0 119 34t70 88t28 128.5t-0.5 148
t-22 154.5t-31 139.5t-32.5 111.5h74q20 -50 38.5 -117t32.5 -151t18.5 -166.5t-9 -162t-44.5 -139.5t-92.5 -97t-148.5 -37h-129q-81 0 -136.5 19t-85.5 56t-42.5 82.5t-12.5 106.5z" />
    <glyph glyph-name="omicrontonos" unicode="&#x3cc;" horiz-adv-x="892" 
d="M436 967h-78l72 106h107zM496 6h-99q-66 0 -116 13t-83 31t-55.5 55.5t-34 66t-17 83.5t-6.5 88t-1 99q0 57 1.5 95t8.5 88t19 82.5t35 67.5t56 55.5t81.5 33.5t111.5 13h99q63 0 111.5 -13t81.5 -33.5t56 -55.5t35 -67.5t19 -82.5t8.5 -88t1.5 -95q0 -66 -1 -99
t-6.5 -88t-17 -83.5t-34 -66t-55.5 -55.5t-83 -31t-116 -13zM397 72h99q51 0 89.5 9.5t63.5 26.5t43 41t26 52.5t13 61.5t4.5 68.5t-0.5 71.5v39q0 150 -14 209q-31 128 -152 153q-34 7 -73 7h-99q-69 0 -116.5 -23t-71 -51.5t-36 -86t-14 -94t-1.5 -107.5v-7q0 -143 3 -173
q13 -125 93 -168q54 -29 143 -29z" />
    <glyph glyph-name="upsilontonos" unicode="&#x3cd;" horiz-adv-x="888" 
d="M414 967h-78l72 106h106zM102 264v606h74v-606q0 -50 7.5 -83t28.5 -61t63 -41t106 -13h127q71 0 119 34t70 88t28 128.5t-0.5 148t-22 154.5t-31 139.5t-32.5 111.5h74q20 -50 38.5 -117t32.5 -151t18.5 -166.5t-9 -162t-44.5 -139.5t-92.5 -97t-148.5 -37h-129
q-81 0 -136.5 19t-85.5 56t-42.5 82.5t-12.5 106.5z" />
    <glyph glyph-name="omegatonos" unicode="&#x3ce;" horiz-adv-x="1470" 
d="M713 967h-78l72 106h108zM694 336v237h74v-237q1 -49 16 -93t44.5 -80t78 -57.5t109.5 -21.5q104 1 169.5 54.5t88 138t19.5 193t-26.5 213t-60.5 204.5h74q39 -94 62.5 -193.5t30.5 -197.5t-11 -184t-57.5 -152.5t-114 -105t-176.5 -38.5q-90 0 -168 46t-113 122
q-30 -84 -114.5 -133t-182.5 -49q-101 0 -174 38.5t-111.5 104.5t-55 151.5t-8.5 183.5t32 196.5t63 193.5h74q-26 -70 -45.5 -143.5t-32 -153t-13.5 -151t13.5 -137t44 -113t84 -76t129.5 -28.5q123 0 190.5 73t67.5 195z" />
    <glyph glyph-name="uni0401" unicode="&#x401;" horiz-adv-x="1013" 
d="M465 1300q-35 0 -49 25t0.5 49.5t48.5 24.5q32 0 45.5 -24.5t0 -49.5t-45.5 -25zM643 1300q-34 0 -48 25t0 49.5t48 24.5q32 0 45.5 -24.5t0 -49.5t-45.5 -25zM874 565h-665v-301q0 -50 7.5 -83t28 -61t62 -41t105.5 -13h462v-66h-462q-81 0 -136.5 19t-85.5 56
t-42.5 82.5t-12.5 106.5v686q0 61 12.5 106.5t42.5 82.5t85.5 56t136.5 19h465v-65h-465q-64 0 -105.5 -13.5t-62 -41.5t-28 -61t-7.5 -83v-321h665v-64z" />
    <glyph glyph-name="uni0402" unicode="&#x402;" horiz-adv-x="1189" 
d="M444 -2h-71v1147h-334v67h739v-67h-334v-336q67 61 201 61h129q153 0 215 -66t62 -198v-342q0 -139 -68.5 -201.5t-222.5 -62.5v68q127 0 172 44t45 152v342q0 50 -7.5 83t-28.5 60.5t-62 40.5t-105 13h-129q-100 0 -148 -36.5t-53 -109.5v-659z" />
    <glyph glyph-name="uni0403" unicode="&#x403;" horiz-adv-x="786" 
d="M526 1300h-77l71 105h107zM217 0h-74v924q0 119 79.5 203.5t217.5 84.5h324v-67h-324q-111 0 -167 -65.5t-56 -155.5v-924z" />
    <glyph glyph-name="uni0404" unicode="&#x404;" horiz-adv-x="1042" 
d="M758 1300h-467v66h467v-66zM522 0q-78 0 -141 18.5t-106.5 49t-75 77.5t-50 96.5t-29 115t-13.5 124t-3 131.5q0 65 2.5 113.5t9 108t19.5 103t33.5 89.5t52 78t73 58t99.5 39t129 13q64 0 117 -11t92.5 -29.5t71 -48.5t53 -61.5t37 -76t24.5 -84.5t14 -93.5t7 -96.5
t2 -101q0 -73 -3 -131.5t-13.5 -124t-29 -115t-50 -96.5t-75 -77.5t-106.5 -49t-141 -18.5zM522 66q52 0 95.5 11t76 28.5t58 46.5t43 59t29.5 71.5t19 78.5t11 86t5 87t1 89q0 53 -0.5 86.5t-4 82.5t-9.5 81.5t-18 73.5t-29 67.5t-42.5 54.5t-58.5 44t-77.5 26t-98.5 10
t-98.5 -10t-77.5 -26t-58.5 -44t-42.5 -54.5t-29 -67.5t-18 -73.5t-9.5 -81.5t-4 -82.5t-0.5 -86.5q0 -51 1 -89t5 -87t11 -86t19 -78.5t29.5 -71.5t43 -59t58 -46.5t76 -28.5t95.5 -11z" />
    <glyph glyph-name="uni0405" unicode="&#x405;" horiz-adv-x="987" 
d="M123 276v31h74v-31q0 -54 6 -87.5t25.5 -64t61.5 -44.5t109 -14h191q64 0 105.5 13t62 41t28 61t7.5 83v121q0 50 -7.5 83t-28 61t-62 41.5t-105.5 13.5h-191q-81 0 -136 19t-85 56t-42.5 82.5t-12.5 106.5v102q0 61 12.5 106.5t42.5 82.5t85 56t136 19h152
q84 0 140.5 -20.5t85 -60.5t39.5 -86t11 -109v-31h-73v31q0 54 -6 87.5t-26 64.5t-62 45t-109 14h-152q-64 0 -105.5 -13.5t-62 -41.5t-27.5 -61t-7 -83v-102q0 -50 7 -83t27.5 -61t62 -41.5t105.5 -13.5h191q81 0 136 -19t85 -56t42.5 -82.5t12.5 -106.5v-121
q0 -61 -12.5 -106.5t-42.5 -82.5t-85 -56t-136 -19h-191q-84 0 -140.5 20.5t-85 60.5t-39.5 86t-11 109z" />
    <glyph glyph-name="uni0406" unicode="&#x406;" horiz-adv-x="360" 
d="M217 0h-74v1212h74v-1212z" />
    <glyph glyph-name="uni0407" unicode="&#x407;" horiz-adv-x="360" 
d="M92 1300q-34 0 -48 25t0 49.5t48 24.5q33 0 46.5 -24.5t0 -49.5t-46.5 -25zM270 1300q-33 0 -46.5 25t0 49.5t46.5 24.5t46.5 -24.5t0 -49.5t-46.5 -25zM217 0h-74v1212h74v-1212z" />
    <glyph glyph-name="uni0408" unicode="&#x408;" horiz-adv-x="911" 
d="M487 0h-446v66h446q58 0 103 20t70.5 53.5t38 71.5t12.5 78v925h73v-925q0 -53 -18.5 -103.5t-54 -92.5t-94 -67.5t-130.5 -25.5z" />
    <glyph glyph-name="uni0409" unicode="&#x409;" horiz-adv-x="1591" 
d="M98 0h-80v68h80q44 0 82 16.5t62 41t42 56t27 58t13 51.5l151 921h338v-342h266q88 0 156.5 -24t111.5 -64t71.5 -96t39.5 -115.5t12 -128.5q0 -442 -395 -442h-59q-151 0 -214 67t-63 197v881h-200l-142 -858q-9 -52 -30 -99t-55 -91t-89.5 -70.5t-124.5 -26.5z
M1077 803h-264v-539q0 -51 7 -84t28 -60t61.5 -39.5t104.5 -12.5h63q77 0 134.5 20t91.5 52.5t55 81.5t27.5 100t5.5 114q0 76 -15 138t-48.5 115.5t-97.5 83.5t-153 30z" />
    <glyph glyph-name="uni040A" unicode="&#x40a;" horiz-adv-x="1452" 
d="M217 0h-74v1212h74v-342h381v342h74v-342h266q88 0 156.5 -24t111.5 -64t71.5 -96t39.5 -115.5t12 -128.5q0 -442 -395 -442h-60q-151 0 -213.5 66.5t-62.5 197.5v539h-381v-803zM936 803h-264v-539q0 -51 7 -84t27.5 -60t61 -39.5t104.5 -12.5h64q77 0 134 20t91 52.5
t54.5 81.5t27.5 99.5t6 114.5q-4 367 -313 367z" />
    <glyph glyph-name="uni040B" unicode="&#x40b;" horiz-adv-x="1177" 
d="M428 -2h-72v1147h-333v67h741v-67h-336v-336q67 61 201 61h131q151 0 213.5 -66t62.5 -198v-606h-73v606q0 50 -7.5 83t-28.5 60.5t-62 40.5t-105 13h-131q-100 0 -148 -36t-53 -110v-659z" />
    <glyph glyph-name="uni040C" unicode="&#x40c;" horiz-adv-x="940" 
d="M461 1300h-78l72 105h106zM217 0h-74v1212h74v-602l586 602h98l-569 -579l569 -633h-96l-524 582l-64 -66v-516z" />
    <glyph glyph-name="uni040E" unicode="&#x40e;" horiz-adv-x="798" 
d="M246 1417h59q5 -27 9 -37t20.5 -17t50.5 -7h61q24 0 38 3t22 13t10 17.5t6 27.5h60q-4 -32 -8.5 -48.5t-17.5 -35t-40 -26t-70 -7.5h-61q-81 0 -107.5 27t-31.5 90zM182 0h-80v68h80q49 0 87 17t63.5 49.5t39 60t29.5 69.5q2 7 18 55.5t19 63.5l-415 829h81l365 -731
l233 731h76l-307 -968q-86 -244 -289 -244z" />
    <glyph glyph-name="uni040F" unicode="&#x40f;" horiz-adv-x="993" 
d="M467 0h-324v1212h74v-1144h561v1144h72v-1212h-309v-102h-74v102z" />
    <glyph glyph-name="uni0410" unicode="&#x410;" horiz-adv-x="1028" 
d="M578 0h-537l483 1212h82l381 -1212h-76l-348 1114l-418 -1048h433v-66z" />
    <glyph glyph-name="uni0411" unicode="&#x411;" horiz-adv-x="1009" 
d="M610 0h-467v1212h641v-67h-567v-496h393q150 0 212.5 -65.5t62.5 -196.5v-123q0 -130 -62.5 -197t-212.5 -67zM217 584v-516h393q63 0 103.5 12.5t61.5 40t28.5 60.5t7.5 83v123q0 50 -7.5 83t-28.5 60.5t-61.5 40.5t-103.5 13h-393z" />
    <glyph glyph-name="uni0412" unicode="&#x412;" horiz-adv-x="1017" 
d="M610 0h-467v1214h467q146 0 211.5 -64t65.5 -196v-118q0 -81 -24 -139t-87 -89q111 -56 111 -233v-111q0 -61 -12.5 -106.5t-42.5 -82.5t-85.5 -56t-136.5 -19zM217 1149v-510h393q64 0 105.5 13.5t62 41.5t28 61t7.5 83v112q0 50 -7.5 83t-28 61t-62 41.5t-105.5 13.5
h-393zM217 573v-507h393q64 0 105.5 13t62 41t28 61t7.5 83v111q0 49 -7.5 82t-28 61t-62 41.5t-105.5 13.5h-393z" />
    <glyph glyph-name="uni0413" unicode="&#x413;" horiz-adv-x="796" 
d="M211 0h-74v924q0 119 79.5 203.5t217.5 84.5h324v-67h-324q-111 0 -167 -65.5t-56 -155.5v-924z" />
    <glyph glyph-name="uni0414" unicode="&#x414;" horiz-adv-x="882" 
d="M102 -160h-73v228h108q138 213 209.5 517t71.5 627h289v-1144h147v-228h-74v160h-678v-160zM219 68h416v1077h-143q-6 -305 -74 -582t-199 -495z" />
    <glyph glyph-name="uni0415" unicode="&#x415;" horiz-adv-x="960" 
d="M842 565h-666v-301q0 -50 7.5 -83t28 -61t62 -41t105.5 -13h463v-66h-463q-81 0 -136.5 19t-85.5 56t-42.5 82.5t-12.5 106.5v686q0 61 12.5 106.5t42.5 82.5t85.5 56t136.5 19h465v-65h-465q-64 0 -105.5 -13.5t-62 -41.5t-28 -61t-7.5 -83v-321h666v-64z" />
    <glyph glyph-name="uni0416" unicode="&#x416;" horiz-adv-x="1110" 
d="M133 0h-84l383 637l-383 577h86l377 -571v571h72v-571l377 571h86l-383 -577l383 -637h-84l-379 631v-631h-72v631z" />
    <glyph glyph-name="uni0417" unicode="&#x417;" horiz-adv-x="989" 
d="M793 829v121q0 50 -7.5 83t-28 61t-62 41.5t-105.5 13.5h-191q-67 0 -109 -14t-61.5 -45t-25.5 -64.5t-6 -87.5v-31h-74v43q0 61 12.5 106.5t42.5 82.5t85 56t136 19h191q81 0 136 -19t85 -56t42.5 -82.5t12.5 -106.5v-121q0 -175 -112 -231q62 -32 87 -89t25 -142v-103
q0 -61 -12.5 -106.5t-42.5 -82.5t-85 -56t-136 -19h-191q-84 0 -140.5 20.5t-85 60.5t-39.5 86t-11 109v31h74v-31q0 -54 6 -87.5t25.5 -64t61.5 -44.5t109 -14h191q120 0 161.5 47.5t41.5 148.5v105q0 50 -7.5 83t-28 61t-62 41t-105.5 13h-287v66h287q64 0 105.5 13t62 41
t28 61t7.5 83z" />
    <glyph glyph-name="uni0418" unicode="&#x418;" horiz-adv-x="1030" 
d="M223 0h-80v1212h74v-1079l588 1079h84v-1212h-74v1083z" />
    <glyph glyph-name="uni0419" unicode="&#x419;" horiz-adv-x="1030" 
d="M354 1417h62q5 -37 17.5 -49t60.5 -12h61q24 0 38 3t22 13t10 17.5t6 27.5h59q-4 -32 -8 -48.5t-17.5 -35t-40 -26t-69.5 -7.5h-61q-81 0 -108 27t-32 90zM225 0h-82v1212h74v-1081l588 1081h84v-1212h-74v1083z" />
    <glyph glyph-name="uni041A" unicode="&#x41a;" horiz-adv-x="940" 
d="M217 0h-74v1212h74v-602l586 602h98l-569 -579l569 -633h-96l-524 582l-64 -66v-516z" />
    <glyph glyph-name="uni041B" unicode="&#x41b;" horiz-adv-x="978" 
d="M76 0h-45v68h45q63 0 117 55t91.5 142.5t67.5 201.5t47.5 225.5t29.5 221.5t16.5 182.5t5.5 115.5h385v-1212h-74v1145h-240q-3 -57 -7.5 -111.5t-14 -142t-21.5 -165t-31.5 -170.5t-42.5 -169t-57 -150t-72.5 -124.5t-90 -81.5t-109.5 -31z" />
    <glyph glyph-name="uni041C" unicode="&#x41c;" horiz-adv-x="1366" 
d="M217 0h-74v1212h84l459 -1110l457 1110h80v-1212h-72v1051l-430 -1051h-72l-432 1047v-1047z" />
    <glyph glyph-name="uni041D" unicode="&#x41d;" horiz-adv-x="1028" 
d="M217 0h-74v1214h74v-626h596v626h74v-1214h-74v522h-596v-522z" />
    <glyph glyph-name="uni041E" unicode="&#x41e;" horiz-adv-x="1021" 
d="M512 0q-78 0 -141 18.5t-106.5 49t-75 77.5t-50 96.5t-29 115t-13.5 124t-3 131.5q0 65 2.5 113.5t9 108t19.5 103t33.5 89.5t52 78t73 58t99.5 39t129 13q64 0 117 -11t92.5 -29.5t71 -48.5t53 -61.5t37 -76t24.5 -84.5t14 -93.5t7 -96.5t2 -101q0 -73 -3 -131.5
t-13.5 -124t-29 -115t-50 -96.5t-75 -77.5t-106.5 -49t-141 -18.5zM512 66q52 0 95.5 11t76 28.5t58 46.5t43 59t29.5 71.5t19 78.5t11 86t5 87t1 89q0 53 -0.5 86.5t-4 82.5t-9.5 81.5t-18 73.5t-29 67.5t-42.5 54.5t-58.5 44t-77.5 26t-98.5 10t-98.5 -10t-77.5 -26
t-58.5 -44t-42.5 -54.5t-29 -67.5t-18 -73.5t-9.5 -81.5t-4 -82.5t-0.5 -86.5q0 -51 1 -89t5 -87t11 -86t19 -78.5t29.5 -71.5t43 -59t58 -46.5t76 -28.5t95.5 -11z" />
    <glyph glyph-name="uni041F" unicode="&#x41f;" horiz-adv-x="993" 
d="M850 0h-707v1212h74v-1144h561v1144h72v-1212z" />
    <glyph glyph-name="uni0420" unicode="&#x420;" horiz-adv-x="991" 
d="M217 0h-74v1214h467q81 0 136.5 -19t85.5 -56t42.5 -82.5t12.5 -106.5v-123q0 -61 -12.5 -106.5t-42.5 -82t-85.5 -55t-136.5 -18.5h-393v-565zM217 1149v-520h393q64 0 105.5 13t62 41t28 61t7.5 83v123q0 50 -7.5 83t-28 61t-62 41.5t-105.5 13.5h-393z" />
    <glyph glyph-name="uni0421" unicode="&#x421;" 
d="M852 66v-66h-330q-81 0 -145 18t-107 46.5t-74 75.5t-48.5 93.5t-27.5 113t-13 120.5t-3 129q0 73 3 131.5t13.5 124.5t29 116.5t50 98.5t75 79t106.5 49.5t141 18.5h330v-65h-330q-67 0 -120 -18t-88 -45.5t-60 -73.5t-38.5 -89t-21 -105.5t-9 -109.5t-1.5 -114
q0 -52 0.5 -86.5t4 -83.5t10 -82t18.5 -74t29 -67.5t42.5 -54.5t58.5 -44t77 -26t98 -10h330z" />
    <glyph glyph-name="uni0422" unicode="&#x422;" horiz-adv-x="995" 
d="M535 -2h-74v1151h-441v65h955v-65h-440v-1151z" />
    <glyph glyph-name="uni0423" unicode="&#x423;" horiz-adv-x="800" 
d="M178 0h-80v68h80q49 0 87 17t63.5 49.5t39 60t29.5 69.5q2 7 18 55.5t19 63.5l-416 829h82l365 -731l233 731h76l-307 -968q-86 -244 -289 -244z" />
    <glyph glyph-name="uni0424" unicode="&#x424;" horiz-adv-x="1011" 
d="M541 0h-74v129q-59 2 -107 11t-84.5 22t-65 35t-48 44.5t-33.5 56t-22 64t-12.5 74t-5.5 80t-1 88.5t1 89t5.5 80.5t12.5 74t22 64t33.5 56t48 44t65 34.5t84.5 22t107 11v133h74v-133q76 -2 134 -15.5t98.5 -33.5t68.5 -55t44 -69.5t24.5 -88t11 -99.5t2.5 -114
t-2.5 -113.5t-11 -99t-24.5 -88t-44 -69.5t-68.5 -55.5t-98.5 -34t-134 -15.5v-129zM467 197v815q-85 -4 -142 -25t-88 -49t-46.5 -86t-19 -107.5t-3.5 -140.5q0 -45 0.5 -73.5t3 -65t6.5 -59.5t12 -51t19.5 -45.5t27.5 -37t38 -31t50 -22t63.5 -15.5t78.5 -7zM541 1012
v-815q44 1 80 6.5t64 15.5t50.5 21.5t39 31t28 36.5t19 45.5t12 51.5t7 60t3 65.5t0.5 73.5q0 50 -0.5 81.5t-4 71.5t-9 64.5t-16 54t-26.5 47t-38.5 36t-52 28t-68.5 16.5t-88 9z" />
    <glyph glyph-name="uni0425" unicode="&#x425;" horiz-adv-x="903" 
d="M102 0h-84l390 606l-390 606h84l347 -538l348 538h82l-387 -606l387 -606h-82l-348 541z" />
    <glyph glyph-name="uni0426" unicode="&#x426;" horiz-adv-x="970" 
d="M854 0h-711v1212h74v-1144h539v1144h71v-1144h99v-228h-72v160z" />
    <glyph glyph-name="uni0427" unicode="&#x427;" horiz-adv-x="1028" 
d="M885 0h-74v461q-79 -99 -221 -99h-150q-138 0 -217.5 85t-79.5 204v561h74v-561q0 -41 13 -79t38.5 -70.5t70 -52t101.5 -19.5h150q57 0 101 19.5t69.5 52t38 70.5t12.5 79v561h74v-1212z" />
    <glyph glyph-name="uni0428" unicode="&#x428;" horiz-adv-x="1593" 
d="M1450 0h-1307v1212h74v-1144h539v1144h71v-1144h551v1144h72v-1212z" />
    <glyph glyph-name="uni0429" unicode="&#x429;" horiz-adv-x="1615" 
d="M1503 0h-1360v1212h74v-1144h543v1144h71v-1144h539v1144h72v-1144h133v-228h-72v160z" />
    <glyph glyph-name="uni042A" unicode="&#x42a;" horiz-adv-x="1040" 
d="M274 1212v-342h267q88 0 156.5 -24t111.5 -64t71.5 -96t39.5 -115.5t12 -128.5q0 -442 -395 -442h-60q-151 0 -212.5 66.5t-61.5 197.5v881h-174v67h245zM539 803h-265v-539q0 -51 7 -84t28 -60t61.5 -39.5t104.5 -12.5h64q77 0 134 20t91 52.5t54.5 81.5t27.5 99.5
t6 114.5q0 367 -313 367z" />
    <glyph glyph-name="uni042B" unicode="&#x42b;" horiz-adv-x="1206" 
d="M176 1212v-342h264q88 0 156.5 -24t111.5 -64t71.5 -96t39.5 -115.5t12 -128.5q0 -442 -395 -442h-57q-151 0 -214 67t-63 197v948h74zM1063 0h-74v1212h74v-1212zM438 803h-262v-539q0 -51 7 -84t28 -60t61.5 -39.5t104.5 -12.5h61q77 0 134 20t91.5 52.5t55 81.5
t27.5 99.5t6 114.5q-4 367 -314 367z" />
    <glyph glyph-name="uni042C" unicode="&#x42c;" horiz-adv-x="997" 
d="M143 0v1214h74v-565h393q81 0 136.5 -18.5t85.5 -55t42.5 -82t12.5 -106.5v-123q0 -61 -12.5 -106.5t-42.5 -82.5t-85.5 -56t-136.5 -19h-467zM610 586h-393v-520h393q64 0 105.5 13t62 41t28 61t7.5 83v123q0 50 -7.5 83t-28 61t-62 41.5t-105.5 13.5z" />
    <glyph glyph-name="uni042D" unicode="&#x42d;" horiz-adv-x="987" 
d="M451 0h-320v68h320q51 0 94 9t75 24t57.5 39t43 49.5t30 61.5t19.5 69t11.5 76.5t5.5 80t1 84.5h-514v70h514q0 47 -2 84.5t-6.5 82.5t-12 79.5t-20.5 72t-30.5 65t-43 53t-57 42t-73.5 26t-92 9.5h-320v67h320q81 0 145.5 -20t108 -51.5t74.5 -81.5t48 -99.5t27 -116
t12 -120.5t2 -123q0 -57 -2 -100.5t-7 -97t-14 -93.5t-25 -83.5t-37.5 -75.5t-53 -61.5t-71 -48t-92 -29.5t-115.5 -11z" />
    <glyph glyph-name="uni042E" unicode="&#x42e;" horiz-adv-x="1607" 
d="M217 0h-74v1212h74v-561h457q1 66 4.5 116.5t14 112t28 106t49 90t74.5 73.5t106 45.5t142 17.5q71 0 128.5 -12.5t99 -39t72.5 -57.5t51 -77t33 -89.5t19.5 -103t9 -107.5t2.5 -114q0 -70 -2 -123.5t-11.5 -120t-26.5 -116t-48 -99.5t-74 -81.5t-107.5 -51.5t-145.5 -20
q-78 0 -140.5 18.5t-105.5 48.5t-75 76.5t-50 94.5t-29 110t-14.5 116t-3.5 120h-457v-584zM1092 68q52 0 95.5 10.5t76 28.5t58 46.5t43 58t29.5 70.5t19 77.5t11 85.5t5 87t1 89q0 69 -1.5 111.5t-8 104.5t-19.5 100t-37.5 82t-60 68.5t-89 41t-122.5 16.5
q-54 0 -98.5 -10t-77.5 -25.5t-58.5 -43t-42.5 -53.5t-29 -66.5t-18 -72.5t-9.5 -82t-4 -83.5t-0.5 -87.5q0 -68 1.5 -115t9 -109.5t21 -105t38.5 -88t60 -73t88 -45t120 -17.5z" />
    <glyph glyph-name="uni042F" unicode="&#x42f;" horiz-adv-x="1038" 
d="M895 1214v-1214h-74v565h-178l-410 -565h-88l412 565h-129q-81 0 -136 18.5t-85 55t-42.5 82t-12.5 106.5v123q0 61 12.5 106.5t42.5 82.5t85 56t136 19h467zM428 629h393v520h-393q-64 0 -105.5 -13.5t-62 -41.5t-28 -61t-7.5 -83v-123q0 -50 7.5 -83t28 -61t62 -41
t105.5 -13z" />
    <glyph glyph-name="uni0430" unicode="&#x430;" horiz-adv-x="860" 
d="M197 606h-74q0 127 60 195.5t214 68.5h103q155 0 214.5 -68t59.5 -196v-342q0 -128 -59.5 -196t-214.5 -68h-152q-67 0 -118 22.5t-79.5 59.5t-42.5 80.5t-14 91.5q0 50 15.5 96.5t46 86.5t84 64.5t122.5 24.5h338v80q0 50 -7 83t-27.5 61t-61.5 41.5t-104 13.5h-103
q-63 0 -104 -13.5t-61.5 -41.5t-27.5 -61t-7 -83zM700 264v203h-338q-92 0 -142 -64.5t-52 -150.5q-2 -80 43 -133t139 -53h150q64 0 104.5 13t61 41.5t27.5 61t7 82.5z" />
    <glyph glyph-name="uni0431" unicode="&#x431;" horiz-adv-x="919" 
d="M594 1180v-68h-107q-83 -3 -142 -34t-89.5 -65.5t-49 -110.5t-22.5 -118t-9 -139q-1 -9 -1 -14h373q67 0 120.5 -29t85 -76t47.5 -101.5t17 -111.5q0 -77 -26.5 -146t-88.5 -118t-149 -49h-94q-68 0 -123 18.5t-92 48.5t-64 77t-42.5 94.5t-24.5 111.5t-12 117.5
t-3 122.5q0 68 3 122t13 116t26.5 109t46 93.5t69 76.5t97.5 50t130 23h111zM547 563h-373q2 -68 6 -118.5t14.5 -112.5t30 -105t49.5 -81.5t77 -58t108 -19.5h92q91 0 139.5 71.5t48.5 173.5q0 100 -51 175t-141 75z" />
    <glyph glyph-name="uni0432" unicode="&#x432;" horiz-adv-x="964" 
d="M582 0h-447v870h447q142 0 209 -49.5t67 -171.5q0 -80 -23.5 -134.5t-82.5 -84.5q62 -26 84 -77t22 -138q0 -111 -74.5 -163t-201.5 -52zM209 803v-342h373q64 0 104.5 11.5t61.5 38t28.5 58.5t7.5 82q0 88 -42.5 120t-159.5 32h-373zM209 393v-325h373q94 0 148 37
t54 110q0 71 -13.5 106t-57.5 53.5t-131 18.5h-373z" />
    <glyph glyph-name="uni0433" unicode="&#x433;" horiz-adv-x="655" 
d="M176 0h-74v618q0 122 63.5 187t207.5 65h254v-67h-252q-61 0 -102 -14.5t-61.5 -42.5t-28 -59t-7.5 -73v-614z" />
    <glyph glyph-name="uni0434" unicode="&#x434;" horiz-adv-x="878" 
d="M98 -160h-73v228h108q205 312 266 802h303v-802h148v-228h-74v160h-678v-160zM217 68h414v735h-168q-61 -426 -246 -735z" />
    <glyph glyph-name="uni0435" unicode="&#x435;" horiz-adv-x="864" 
d="M563 467h-401v-197q0 -119 46 -161.5t150 -42.5h134q64 0 105.5 13t62 41.5t27.5 61t7 82.5h72q0 -128 -59.5 -196t-214.5 -68h-134q-142 0 -206 66t-64 204v334q0 138 63.5 202t206.5 64h211q63 0 104.5 -16.5t60 -48t25 -61t7.5 -72.5q0 -43 -7 -75t-26.5 -64
t-62.5 -49t-107 -17zM162 604v-78h401q81 0 106 37t25 109q0 27 -1.5 43.5t-9 35.5t-20.5 29.5t-37 17.5t-59 7h-209q-105 0 -150.5 -41t-45.5 -160z" />
    <glyph glyph-name="uni0436" unicode="&#x436;" horiz-adv-x="917" 
d="M106 0h-88l322 465l-301 407h88l295 -401v401h74v-401l295 401h90l-303 -407l321 -465h-88l-315 457v-457h-74v457z" />
    <glyph glyph-name="uni0437" unicode="&#x437;" horiz-adv-x="944" 
d="M98 276v35h74v-35q0 -55 6.5 -88.5t26.5 -63.5t61 -43t107 -13h190q64 0 105 13t62 40.5t28.5 61t7.5 83.5q0 55 -10 91t-41 57h-404v67h402q53 26 53 125q0 50 -7.5 83t-28.5 60.5t-62 40.5t-105 13h-190q-66 0 -107 -13t-61 -43t-26.5 -64t-6.5 -89v-33h-74v45
q0 131 62.5 197.5t212.5 66.5h190q153 0 215 -66t62 -198q0 -115 -58 -162q58 -58 58 -178q0 -131 -62.5 -198.5t-214.5 -67.5h-190q-81 0 -136.5 19.5t-85 58t-41.5 85.5t-12 113z" />
    <glyph glyph-name="uni0438" unicode="&#x438;" horiz-adv-x="1015" 
d="M205 0h-70v872h74v-753l600 753h72v-872h-74v758z" />
    <glyph glyph-name="uni0439" unicode="&#x439;" horiz-adv-x="1001" 
d="M342 1087h61q5 -37 17.5 -49t60.5 -12h62q45 0 57.5 12.5t17.5 48.5h60q-4 -32 -8 -48.5t-17.5 -34.5t-40 -25.5t-69.5 -7.5h-62q-42 0 -69 7t-41 23.5t-20 35t-9 50.5zM199 2h-70v870h74v-753l598 753h71v-870h-73v756z" />
    <glyph glyph-name="uni043A" unicode="&#x43a;" horiz-adv-x="790" 
d="M209 0h-74v872h74v-397l448 397h107l-440 -389l438 -483h-96l-396 434l-61 -53v-381z" />
    <glyph glyph-name="uni043B" unicode="&#x43b;" horiz-adv-x="937" 
d="M70 0h-45v68h45q63 0 118 58.5t91.5 144t66.5 201.5t46 209t28 189h383v-870h-72v803h-246q-10 -75 -21.5 -143t-31 -151.5t-42 -152.5t-55 -137t-70.5 -114.5t-88 -75.5t-107 -29z" />
    <glyph glyph-name="uni043C" unicode="&#x43c;" horiz-adv-x="1067" 
d="M209 0h-74v872h84l316 -768l315 768h82v-872h-74v707l-289 -707h-69l-291 705v-705z" />
    <glyph glyph-name="uni043D" unicode="&#x43d;" horiz-adv-x="1013" 
d="M209 0h-74v872h74v-389h596v389h74v-872h-74v416h-596v-416z" />
    <glyph glyph-name="uni043E" unicode="&#x43e;" horiz-adv-x="892" 
d="M496 4h-99q-66 0 -116 13t-83 31t-55.5 55.5t-34 66t-17 83.5t-6.5 88t-1 99q0 49 1.5 83t5.5 78.5t13.5 74.5t24 64t38 56t55 41t76 28t99.5 9h99q55 0 99.5 -9t76 -28t55 -41t38 -56t24 -64t13.5 -74.5t5.5 -78.5t1.5 -83q0 -66 -1 -99t-6.5 -88t-17 -83.5t-34 -66
t-55.5 -55.5t-83 -31t-116 -13zM397 70h99q51 0 89.5 9.5t63.5 26.5t43 41t26 52.5t13 61.5t4.5 68.5t-0.5 71.5v39q0 150 -14 209q-31 128 -152 153q-34 7 -73 7h-99q-69 0 -116.5 -23t-71 -51.5t-36 -86t-14 -94t-1.5 -107.5v-7q0 -143 3 -173q13 -125 93 -168
q54 -29 143 -29z" />
    <glyph glyph-name="uni043F" unicode="&#x43f;" horiz-adv-x="976" 
d="M209 0h-74v874h707v-874h-72v807h-561v-807z" />
    <glyph glyph-name="uni0440" unicode="&#x440;" horiz-adv-x="884" 
d="M178 -340h-74v948q0 61 12.5 106.5t42.5 82t85.5 55t136.5 18.5h129q155 0 214.5 -67t59.5 -195v-344q0 -128 -59.5 -196t-214.5 -68h-332v-340zM178 608v-542h332q64 0 105.5 13t62 41t28 61t7.5 83v344q0 50 -7.5 83t-28 61t-62 41.5t-105.5 13.5h-129
q-64 0 -105.5 -13.5t-62 -41.5t-28 -61t-7.5 -83z" />
    <glyph glyph-name="uni0441" unicode="&#x441;" horiz-adv-x="739" 
d="M657 66v-66h-198q-96 0 -167 27t-110.5 68t-63 102.5t-29.5 118t-5 126.5q1 67 9.5 121t32.5 114t63.5 100t108 66.5t159.5 26.5h200v-65h-200q-72 0 -125.5 -21t-85 -54t-51 -83.5t-26.5 -99t-9 -111.5q-1 -64 3.5 -111.5t22 -99t49 -84.5t88 -54t134.5 -21h200z" />
    <glyph glyph-name="uni0442" unicode="&#x442;" horiz-adv-x="784" 
d="M426 0h-72v803h-334v67h740v-67h-334v-803z" />
    <glyph glyph-name="uni0443" unicode="&#x443;" horiz-adv-x="907" 
d="M102 -78h74q0 -50 7.5 -83t28 -61t62 -41t105.5 -13h94q126 0 182 47t56 137v158q-61 -64 -203 -64h-129q-81 0 -136.5 19t-85.5 56t-42.5 82.5t-12.5 106.5v606h74v-606q0 -50 7.5 -83t28.5 -61t63 -41t106 -13h127q68 0 110 13.5t61.5 43t25.5 60t6 81.5v606h73v-962
q0 -123 -77.5 -187.5t-231.5 -64.5h-96q-81 0 -136.5 19t-85.5 56t-42.5 82.5t-12.5 106.5z" />
    <glyph glyph-name="uni0444" unicode="&#x444;" horiz-adv-x="980" 
d="M530 0h-71v70h-58q-127 0 -211 81.5t-84 210.5v150q0 128 84 209.5t211 81.5h58v69h71v-69h50q127 0 209.5 -81.5t82.5 -209.5v-150q0 -129 -82.5 -210.5t-209.5 -81.5h-50v-70zM401 139h58v594h-58q-90 0 -155.5 -56.5t-65.5 -164.5v-150q0 -109 65 -166t156 -57z
M530 733v-594h50q91 0 156 57t65 166v150q0 108 -65.5 164.5t-155.5 56.5h-50z" />
    <glyph glyph-name="uni0445" unicode="&#x445;" horiz-adv-x="743" 
d="M109 0h-89l308 436l-308 434h89l262 -372l264 372h88l-307 -434l307 -436h-88l-264 373z" />
    <glyph glyph-name="uni0446" unicode="&#x446;" horiz-adv-x="983" 
d="M877 0h-742v870h74v-802h536v802h72v-802h131v-228h-71v160z" />
    <glyph glyph-name="uni0447" unicode="&#x447;" horiz-adv-x="944" 
d="M807 2h-72v279q-82 -99 -221 -99h-90q-136 0 -215.5 85t-79.5 204v401h74v-401q0 -41 12.5 -79t38 -70.5t69.5 -52t101 -19.5h90q57 0 101 19.5t69.5 52t38 70.5t12.5 79v401h72v-870z" />
    <glyph glyph-name="uni0448" unicode="&#x448;" horiz-adv-x="1591" 
d="M1454 0h-1319v870h74v-802h539v802h71v-802h563v802h72v-870z" />
    <glyph glyph-name="uni0449" unicode="&#x449;" horiz-adv-x="1597" 
d="M1491 0h-1356v870h74v-802h543v802h71v-802h539v802h72v-802h129v-228h-72v160z" />
    <glyph glyph-name="uni044A" unicode="&#x44a;" horiz-adv-x="1017" 
d="M262 870v-305h412q239 0 239 -286q0 -53 -11 -99t-36 -88.5t-73.5 -67t-116.5 -24.5h-211q-151 0 -213 66.5t-62 197.5v539h-174v67h246zM674 498h-412v-234q0 -51 7 -83.5t28 -60t61.5 -40t104.5 -12.5h213q164 0 164 211q0 219 -166 219z" />
    <glyph glyph-name="uni044B" unicode="&#x44b;" horiz-adv-x="1140" 
d="M176 870v-305h412q56 0 99 -17t68.5 -44.5t42 -66t22 -76.5t5.5 -82q0 -42 -6 -79t-22.5 -74.5t-42 -64.5t-68 -44t-96.5 -17h-211q-151 0 -214 67t-63 197v606h74zM1006 0h-72v870h72v-870zM588 498h-412v-234q0 -51 7 -83.5t28 -60t61.5 -40t104.5 -12.5h213
q162 0 162 211q0 219 -164 219z" />
    <glyph glyph-name="uni044C" unicode="&#x44c;" horiz-adv-x="927" 
d="M176 870v-305h412q56 0 99 -17t68.5 -44.5t42 -66t22 -76.5t5.5 -82q0 -42 -6 -79t-22.5 -74.5t-42 -64.5t-68 -44t-96.5 -17h-211q-151 0 -214 67t-63 197v606h74zM588 498h-412v-234q0 -51 7 -83.5t28 -60t61.5 -40t104.5 -12.5h213q162 0 162 211q0 219 -164 219z" />
    <glyph glyph-name="uni044D" unicode="&#x44d;" horiz-adv-x="899" 
d="M477 6h-366v68h366q52 0 91.5 9.5t65 26.5t43.5 40.5t26 53t12.5 63.5t4 71t-0.5 76h-510v67h510q0 63 -3 102t-16 87t-38 75t-71.5 45.5t-113.5 18.5h-366v68h366q212 0 276 -142q37 -80 38 -255v-52q0 -160 -16 -227q-35 -141 -169 -179q-55 -16 -129 -16z" />
    <glyph glyph-name="uni044E" unicode="&#x44e;" horiz-adv-x="1355" 
d="M209 0h-74v870h74v-383h307q1 71 6.5 119.5t24.5 104t51.5 89t91 55.5t139.5 22h99q49 0 90 -8t71.5 -21t54 -35t39.5 -44t27.5 -54.5t17.5 -60.5t9.5 -68t4.5 -70t1 -74q0 -66 -1 -99t-6.5 -88t-17 -83.5t-34.5 -66t-56 -55.5t-83.5 -31t-116.5 -13h-99q-49 0 -90 7
t-71 18.5t-54 31.5t-39.5 40t-27 50.5t-17.5 56t-9 64t-4 67.5t-1 73h-307v-414zM829 72h99q45 0 80.5 7.5t60 21t43 32.5t29 42t17 50t8.5 57t3 61.5t0 63.5v35q0 150 -14 209q-31 128 -153 153q-34 7 -74 7h-99q-70 0 -117.5 -22.5t-71.5 -51.5t-36.5 -86t-14 -93.5
t-1.5 -107.5v-6v-39q-1 -33 0 -64.5t2.5 -61t8.5 -56.5t17.5 -50t29 -41.5t43 -32t60 -20.5t80.5 -7z" />
    <glyph glyph-name="uni044F" unicode="&#x44f;" horiz-adv-x="960" 
d="M276 0h-88l222 305h-68q-57 0 -100.5 17t-69.5 44.5t-42 66.5t-22 77t-6 82q0 42 6.5 79t23 74.5t42.5 64t68.5 43.5t97.5 17h485v-870h-73v305h-254zM342 375h410v428h-412q-164 0 -164 -211q0 -217 166 -217z" />
    <glyph glyph-name="uni0451" unicode="&#x451;" horiz-adv-x="864" 
d="M338 969q-34 0 -48 24.5t0 49t48 24.5q32 0 45.5 -24.5t0 -49t-45.5 -24.5zM516 969q-34 0 -48 24.5t0 49t48 24.5q32 0 45.5 -24.5t0 -49t-45.5 -24.5zM559 467h-401v-197q0 -119 46 -161.5t150 -42.5h133q64 0 105.5 13t62 41t28 61t7.5 83h72q0 -128 -60 -196
t-215 -68h-133q-142 0 -206 66t-64 204v334q0 138 63.5 202t206.5 64h211q63 0 104.5 -16.5t60 -48t25 -61t7.5 -72.5q0 -43 -7 -75t-26.5 -64t-62.5 -49t-107 -17zM158 604v-78h401q81 0 106 37t25 109q0 27 -1.5 43.5t-9 35.5t-20.5 29.5t-37 17.5t-59 7h-209
q-105 0 -150.5 -41t-45.5 -160z" />
    <glyph glyph-name="uni0452" unicode="&#x452;" horiz-adv-x="868" 
d="M156 -2h-72v805h-57v67h57v162h72v-162h286v-67h-286v-193q67 64 200 64h129q152 0 214.5 -67t62.5 -199v-486q0 -132 -62 -198t-215 -66v68q64 0 105 12.5t62 40t28.5 60.5t7.5 83v486q0 50 -7.5 83t-28.5 60.5t-62 40t-105 12.5h-129q-100 0 -147.5 -35.5t-52.5 -109.5
v-461z" />
    <glyph glyph-name="uni0453" unicode="&#x453;" horiz-adv-x="657" 
d="M424 967h-76l70 104h108zM176 0h-74v618q0 122 63.5 187t207.5 65h254v-67h-252q-61 0 -102 -14.5t-61.5 -42.5t-28 -59t-7.5 -73v-614z" />
    <glyph glyph-name="uni0454" unicode="&#x454;" horiz-adv-x="894" 
d="M690 414h-510q0 -39 -0.5 -76t4 -71t12.5 -63.5t26 -53t43.5 -40.5t65 -26.5t91.5 -9.5h364v-68h-364q-219 0 -282 143q-33 74 -34 237v42q0 64 1 97.5t7 89.5t17.5 86.5t34 69t56 58.5t84 34t116.5 14h364v-68h-364q-67 0 -113.5 -18.5t-71.5 -45.5t-38 -75t-16 -87
t-3 -102h510v-67z" />
    <glyph glyph-name="uni0455" unicode="&#x455;" horiz-adv-x="798" 
d="M469 0h-352v66h352q85 0 131.5 49.5t46.5 120.5q0 80 -42 132t-132 52h-145q-124 0 -188 63t-64 158q0 99 60 164t186 65h348v-65h-346q-92 0 -134.5 -44t-42.5 -120q0 -156 195 -156h133q66 0 115.5 -22.5t76 -59.5t39.5 -79t13 -88q0 -97 -63 -166.5t-187 -69.5z" />
    <glyph glyph-name="uni0456" unicode="&#x456;" horiz-adv-x="356" 
d="M180 1110q-35 0 -49 24.5t0.5 49t48.5 24.5q32 0 45.5 -24.5t0 -49t-45.5 -24.5zM217 0h-74v870h74v-870z" />
    <glyph glyph-name="uni0457" unicode="&#x457;" horiz-adv-x="356" 
d="M90 969q-34 0 -48 24.5t0 49t48 24.5q32 0 45.5 -24.5t0 -49t-45.5 -24.5zM268 969q-33 0 -46.5 24.5t0 49t46.5 24.5t46.5 -24.5t0 -49t-46.5 -24.5zM217 0h-74v870h74v-870z" />
    <glyph glyph-name="uni0458" unicode="&#x458;" horiz-adv-x="309" 
d="M133 1112q-35 0 -49 24.5t0.5 49t48.5 24.5q32 0 45.5 -24.5t0 -49t-45.5 -24.5zM-109 -342v66q64 0 105.5 13t62 41t28 61t7.5 83v948h74v-948q0 -62 -12.5 -107t-42 -82t-85.5 -56t-137 -19z" />
    <glyph glyph-name="uni0459" unicode="&#x459;" horiz-adv-x="1472" 
d="M104 0h-79v68h79q44 0 82 16.5t62 41t42 56t27 58t13 51.5l98 579h297v-305h410q239 0 239 -286q0 -42 -6 -79t-22 -74.5t-42 -64.5t-68.5 -44t-98.5 -17h-211q-150 0 -212.5 67t-62.5 197v539h-162l-88 -516q-9 -52 -29.5 -99t-54.5 -91t-89 -70.5t-124 -26.5zM1135 498
h-410v-234q0 -51 7 -83.5t27.5 -60t61 -40t103.5 -12.5h213q163 0 163 211q0 219 -165 219z" />
    <glyph glyph-name="uni045A" unicode="&#x45a;" horiz-adv-x="1480" 
d="M209 0h-74v870h74v-305h442v305h72v-305h412q239 0 239 -286q0 -42 -6 -79t-22 -74.5t-42 -64.5t-68.5 -44t-98.5 -17h-211q-151 0 -213 66.5t-62 197.5v234h-442v-498zM1135 498h-412v-234q0 -51 7 -83.5t28 -60t61.5 -40t104.5 -12.5h213q163 0 163 211q0 219 -165 219
z" />
    <glyph glyph-name="uni045B" unicode="&#x45b;" horiz-adv-x="870" 
d="M156 0h-72v803h-57v67h57v162h72v-162h305v-67h-305v-195q67 64 200 64h129q152 0 214.5 -67t62.5 -199v-406h-74v406q0 50 -7.5 83t-28.5 60.5t-62 40t-105 12.5h-129q-101 0 -148 -35t-52 -110v-457z" />
    <glyph glyph-name="uni045C" unicode="&#x45c;" horiz-adv-x="792" 
d="M426 969h-76l70 104h108zM209 0h-74v872h74v-397l448 397h107l-440 -389l438 -483h-96l-396 434l-61 -53v-381z" />
    <glyph glyph-name="uni045E" unicode="&#x45e;" horiz-adv-x="907" 
d="M293 1085h59q5 -27 9 -37t20.5 -17t50.5 -7h62q43 0 55.5 13t17.5 48h60q-4 -32 -8 -48.5t-17 -34.5t-39.5 -25.5t-68.5 -7.5h-62q-81 0 -107.5 26.5t-31.5 89.5zM106 -78h74q0 -40 4 -67.5t16.5 -54t34.5 -42t58.5 -25t87.5 -9.5h94q126 0 182 47t56 137v158
q-61 -64 -201 -64h-131q-154 0 -214.5 68.5t-60.5 195.5v606h74v-606q0 -50 7.5 -83t28.5 -61t62 -41t105 -13h129q54 0 91.5 10t59 25t33 42.5t14.5 53.5t3 67v606h73v-962q0 -123 -77.5 -187.5t-231.5 -64.5h-96q-154 0 -214.5 68.5t-60.5 195.5z" />
    <glyph glyph-name="uni045F" unicode="&#x45f;" horiz-adv-x="976" 
d="M459 0h-324v874h74v-806h559v806h72v-874h-308v-102h-73v102z" />
    <glyph glyph-name="uni0490" unicode="&#x490;" horiz-adv-x="792" 
d="M217 0h-74v924q0 119 79.5 203.5t217.5 84.5h250v86h74v-153h-324q-111 0 -167 -65.5t-56 -155.5v-924z" />
    <glyph glyph-name="uni0491" unicode="&#x491;" horiz-adv-x="657" 
d="M176 0h-74v618q0 129 68 190.5t211 61.5h172v91h74v-158h-252q-61 0 -102 -14.5t-61.5 -42.5t-28 -59t-7.5 -73v-614z" />
    <glyph glyph-name="Wgrave" unicode="&#x1e80;" horiz-adv-x="1642" 
d="M909 1300h-78l-100 105h107zM485 0h-86l-383 1212h76l350 -1108l342 1108h72l348 -1108l342 1108h76l-375 -1212h-86l-340 1083z" />
    <glyph glyph-name="wgrave" unicode="&#x1e81;" horiz-adv-x="1507" 
d="M844 969h-78l-100 104h106zM102 264v606h74v-606q0 -50 7.5 -83t28.5 -61t63 -41t106 -13h133q68 0 110 13.5t61.5 43t25.5 60t6 81.5v606h74v-606q0 -50 7.5 -83t28.5 -61t62.5 -41t105.5 -13h133q68 0 110 13.5t61.5 43t25.5 60t6 81.5v606h74v-606
q0 -131 -61.5 -197.5t-215.5 -66.5h-135q-177 0 -237 106q-59 -106 -242 -106h-135q-81 0 -136.5 19t-85.5 56t-42.5 82.5t-12.5 106.5z" />
    <glyph glyph-name="Wacute" unicode="&#x1e82;" horiz-adv-x="1646" 
d="M811 1300h-76l70 105h108zM489 0h-86l-383 1212h76l350 -1108l342 1108h70l350 -1108l342 1108h76l-375 -1212h-86l-342 1083z" />
    <glyph glyph-name="wacute" unicode="&#x1e83;" horiz-adv-x="1507" 
d="M741 969h-75l69 106h109zM102 264v606h74v-606q0 -50 7.5 -83t28.5 -61t63 -41t106 -13h133q68 0 110 13.5t61.5 43t25.5 60t6 81.5v606h74v-606q0 -50 7.5 -83t28.5 -61t62.5 -41t105.5 -13h133q68 0 110 13.5t61.5 43t25.5 60t6 81.5v606h74v-606q0 -131 -61.5 -197.5
t-215.5 -66.5h-135q-177 0 -237 106q-59 -106 -242 -106h-135q-81 0 -136.5 19t-85.5 56t-42.5 82.5t-12.5 106.5z" />
    <glyph glyph-name="Wdieresis" unicode="&#x1e84;" horiz-adv-x="1646" 
d="M735 1300q-34 0 -47.5 25t0.5 49.5t47 24.5t46.5 -24.5t0 -49.5t-46.5 -25zM913 1300q-33 0 -46.5 25t0 49.5t46.5 24.5t46.5 -24.5t0 -49.5t-46.5 -25zM489 0h-86l-383 1212h76l350 -1108l342 1108h70l350 -1108l342 1108h76l-375 -1212h-86l-342 1083z" />
    <glyph glyph-name="wdieresis" unicode="&#x1e85;" horiz-adv-x="1507" 
d="M666 969q-34 0 -48 24.5t0 49t48 24.5q33 0 46.5 -24.5t0 -49t-46.5 -24.5zM844 969q-33 0 -46.5 24.5t0 49t46.5 24.5t46.5 -24.5t0 -49t-46.5 -24.5zM102 264v606h74v-606q0 -50 7.5 -83t28.5 -61t63 -41t106 -13h133q68 0 110 13.5t61.5 43t25.5 60t6 81.5v606h74
v-606q0 -50 7.5 -83t28.5 -61t62.5 -41t105.5 -13h133q68 0 110 13.5t61.5 43t25.5 60t6 81.5v606h74v-606q0 -131 -61.5 -197.5t-215.5 -66.5h-135q-177 0 -237 106q-59 -106 -242 -106h-135q-81 0 -136.5 19t-85.5 56t-42.5 82.5t-12.5 106.5z" />
    <glyph glyph-name="endash" unicode="&#x2013;" horiz-adv-x="727" 
d="M705 573h-685v66h685v-66z" />
    <glyph glyph-name="emdash" unicode="&#x2014;" horiz-adv-x="1036" 
d="M1018 573h-998v66h998v-66z" />
    <glyph glyph-name="quoteleft" unicode="&#x2018;" horiz-adv-x="129" 
d="M72 1063h-64l15 149h86z" />
    <glyph glyph-name="quoteright" unicode="&#x2019;" horiz-adv-x="131" 
d="M96 1063h-86l37 149h64z" />
    <glyph glyph-name="quotesinglbase" unicode="&#x201a;" horiz-adv-x="141" 
d="M84 -70h-64l15 152h86z" />
    <glyph glyph-name="quotedblleft" unicode="&#x201c;" horiz-adv-x="284" 
d="M250 1063h-84l35 149h63zM96 1063h-86l37 149h64z" />
    <glyph glyph-name="quotedblright" unicode="&#x201d;" horiz-adv-x="309" 
d="M254 1063h-64l13 149h86zM82 1063h-64l15 149h86z" />
    <glyph glyph-name="quotedblbase" unicode="&#x201e;" horiz-adv-x="311" 
d="M84 -70h-64l15 152h86zM256 -70h-63l12 152h86z" />
    <glyph glyph-name="dagger" unicode="&#x2020;" horiz-adv-x="612" 
d="M270 1214h74v-247h246v-66h-246v-901h-74v901h-247v66h247v247z" />
    <glyph glyph-name="daggerdbl" unicode="&#x2021;" horiz-adv-x="532" 
d="M231 1214h74v-315h230v-65h-230v-472h230v-65h-230v-297h-74v297h-229v65h229v472h-229v65h229v315z" />
    <glyph glyph-name="bullet" unicode="&#x2022;" horiz-adv-x="208" 
d="M102 678q-31 0 -52.5 16t-26 38t0.5 44.5t26.5 38.5t53.5 16q53 0 74 -38.5t-1.5 -76.5t-74.5 -38z" />
    <glyph glyph-name="ellipsis" unicode="&#x2026;" horiz-adv-x="440" 
d="M76 0q-33 0 -46.5 24.5t0 49t46.5 24.5t46.5 -24.5t0 -49t-46.5 -24.5zM221 0q-34 0 -48 24.5t0 49t48 24.5q32 0 45.5 -24.5t0 -49t-45.5 -24.5zM365 0q-33 0 -46.5 24.5t0 49t46.5 24.5q32 0 45.5 -24.5t0 -49t-45.5 -24.5z" />
    <glyph glyph-name="perthousand" unicode="&#x2030;" horiz-adv-x="2031" 
d="M90 825v127q0 61 12.5 107t42.5 83t85.5 56t136.5 19q80 0 135.5 -19t86 -56.5t43.5 -82.5t15 -107v-127q-3 -131 -70 -197.5t-210 -66.5q-81 0 -136.5 19t-85.5 56t-42.5 82.5t-12.5 106.5zM502 0h-78l471 1214h78zM164 952v-127q0 -50 7.5 -83t28 -61t62 -41t105.5 -13
t105 13t62 41.5t29 61t10 82.5v127q-1 50 -8.5 83t-29 61t-63 41.5t-105.5 13.5t-105.5 -13.5t-62 -41.5t-28 -61t-7.5 -83zM762 264v127q0 62 12.5 107.5t42 82.5t84.5 55.5t135 18.5q154 0 216 -68t65 -196v-127q-3 -131 -70.5 -197.5t-210.5 -66.5q-154 0 -214 68.5
t-60 195.5zM1380 264v127q0 62 12.5 107.5t42.5 82.5t85 55.5t135 18.5q154 0 215.5 -67.5t64.5 -196.5v-127q-3 -131 -70 -197.5t-210 -66.5q-154 0 -214.5 68.5t-60.5 195.5zM836 391v-127q0 -50 7 -82.5t27.5 -61t61 -41.5t104.5 -13t105 13t62.5 41.5t29.5 61t10 82.5
v127q-1 50 -9 83t-29 61t-63 41.5t-106 13.5q-63 0 -104 -13.5t-61.5 -41.5t-27.5 -61t-7 -83zM1454 391v-127q0 -40 4 -67.5t16.5 -54t34.5 -42t58.5 -25t87.5 -9.5q64 0 105 13t62.5 41.5t29.5 61t10 82.5v127q-1 50 -9 83t-29 61t-63 41.5t-106 13.5t-105 -13.5
t-61.5 -41.5t-27.5 -61t-7 -83z" />
    <glyph glyph-name="guilsinglleft" unicode="&#x2039;" horiz-adv-x="624" 
d="M502 -23l-461 459l461 459v-96l-365 -363l365 -360v-99z" />
    <glyph glyph-name="guilsinglright" unicode="&#x203a;" horiz-adv-x="624" 
d="M584 436l-461 -459v99l364 360l-364 363v96z" />
    <glyph glyph-name="fraction" unicode="&#x2044;" horiz-adv-x="614" 
d="M106 0h-77l471 1212h78z" />
    <glyph glyph-name="franc" unicode="&#x20a3;" horiz-adv-x="917" 
d="M182 2h-73v203h-60v65h60v680q0 61 12.5 106.5t42.5 82.5t85 56t136 19h465v-65h-465q-64 0 -105.5 -13.5t-62 -41.5t-28 -61t-7.5 -83v-321h666v-64h-666v-295h434v-65h-434v-203z" />
    <glyph glyph-name="lira" unicode="&#x20a4;" horiz-adv-x="821" 
d="M786 -4h-723v61q113 40 113 170v70h-113v65h113v168h-113v66h113v369q0 117 61 183t209 66h265v-65h-267q-61 0 -101.5 -14.5t-59.5 -43t-26 -58.5t-7 -72v-365h325v-66h-325v-168h325v-65h-325v-86q-3 -91 -62 -150h598v-65z" />
    <glyph glyph-name="peseta" unicode="&#x20a7;" horiz-adv-x="1632" 
d="M217 0h-74v1214h467q81 0 136.5 -19t85.5 -56t42.5 -82.5t12.5 -106.5v-123q0 -61 -12.5 -106.5t-42.5 -82t-85.5 -55t-136.5 -18.5h-393v-565zM217 1149v-520h393q64 0 105.5 13t62 41t28 61t7.5 83v123q0 50 -7.5 83t-28 61t-62 41.5t-105.5 13.5h-393zM1571 0h-232
q-80 0 -131 15.5t-77.5 49t-36 75.5t-9.5 106v561h-57v65h57v154h74v-154h279v-65h-279v-561q0 -54 5.5 -84t24 -54t54 -33t96.5 -9h232v-66z" />
    <glyph glyph-name="Euro" unicode="&#x20ac;" horiz-adv-x="964" 
d="M133 358h-74v66h64q-6 66 -6 197q0 43 4 129h-62v65h68q8 69 21.5 122.5t43 108t72 90t112 57.5t159.5 21h40q71 -1 123.5 -21.5t81.5 -56.5t42.5 -79.5t13.5 -95.5h-72q0 81 -46.5 133t-152.5 55h-30q-72 0 -127.5 -17.5t-91 -46.5t-59.5 -73.5t-36 -90.5t-18 -106h569
v-65h-573q-2 -41 -2 -129q0 -131 6 -197h569v-66h-559q11 -64 31 -113t55.5 -90t91.5 -64t131 -25h39q203 9 203 188h72q0 -251 -273 -254h-41q-96 1 -168 30t-115.5 80.5t-68 111t-37.5 136.5z" />
    <glyph glyph-name="uni2113" unicode="&#x2113;" horiz-adv-x="706" 
d="M104 246v190q-58 -40 -69 -47v82q14 8 38 27t31 24v428q0 125 68 193.5t158 68.5q62 0 110.5 -32.5t70.5 -95.5t-3 -156q-32 -118 -134.5 -242.5t-195.5 -193.5v-246q0 -98 41.5 -139t138.5 -41q44 0 74.5 5.5t62.5 22t49 54t17 94.5h53q0 -59 -13.5 -103t-35.5 -70
t-55.5 -42t-69.5 -21.5t-82 -5.5q-133 0 -193.5 62t-60.5 184zM178 948v-373q74 58 153.5 161t108.5 190q30 97 -7.5 155t-104.5 58q-61 0 -106 -50t-44 -141z" />
    <glyph glyph-name="trademark" unicode="&#x2122;" horiz-adv-x="1304" 
d="M317 573h-73v576h-203v65h481v-65h-205v-576zM741 573h-73v641h75l218 -536l221 536h82v-641h-74v478l-193 -473h-71l-185 448v-453z" />
    <glyph glyph-name="estimated" unicode="&#x212e;" horiz-adv-x="876" 
d="M213 465v-356q46 -46 152 -46h133q64 0 105.5 13.5t62 41.5t27.5 61t7 83h72q0 -128 -59.5 -196t-214.5 -68h-133q-144 0 -207.5 66t-63.5 204v334q0 139 63.5 203.5t207.5 64.5h210q51 0 88.5 -12t58 -30t32.5 -46t15 -53t3 -59t-3.5 -60t-16 -55t-33.5 -47.5t-59 -30.5
t-91 -12h-356zM213 764v-240h356q57 0 88 21v241q-25 19 -84 19h-208q-111 0 -152 -41z" />
    <glyph glyph-name="partialdiff" unicode="&#x2202;" horiz-adv-x="958" 
d="M848 625q-3 -70 -10.5 -133t-23.5 -134t-39 -128.5t-60 -111.5t-84 -89.5t-113.5 -55.5t-146.5 -16q-126 6 -197.5 100.5t-69.5 223.5q1 123 36.5 217.5t94.5 149t128 81.5t145 27q84 0 157 -31.5t115 -87.5q7 108 -5.5 196.5t-37 146t-59.5 97.5t-72.5 57t-75.5 17
q-56 0 -99.5 -35.5t-55.5 -93.5h-62q9 83 75.5 137.5t152.5 54.5q49 0 94 -19t87 -63.5t71.5 -110.5t45 -168t9.5 -228zM768 528q-33 72 -106.5 114t-159.5 42q-49 0 -94.5 -14t-88 -45t-74 -76.5t-51 -112.5t-20.5 -149q-2 -106 51.5 -180.5t153.5 -81.5q163 -11 267.5 117
t121.5 386z" />
    <glyph glyph-name="product" unicode="&#x220f;" horiz-adv-x="1007" 
d="M207 -342h-74v926q0 54 18.5 104t54 92t94 67t130.5 25h150q72 0 130.5 -25t94 -67t54 -92t18.5 -104v-926h-74v926q0 40 -12.5 78t-38 71.5t-70 53.5t-102.5 20h-150q-58 0 -102.5 -20t-70 -53.5t-38 -71.5t-12.5 -78v-926z" />
    <glyph glyph-name="summation" unicode="&#x2211;" horiz-adv-x="888" 
d="M537 653l-435 496v65h684v-65h-598l430 -490l-440 -639h608v-65h-684v65z" />
    <glyph glyph-name="minus" unicode="&#x2212;" horiz-adv-x="727" 
d="M705 573h-685v66h685v-66z" />
    <glyph glyph-name="uni2215" unicode="&#x2215;" horiz-adv-x="606" 
d="M104 0h-77l471 1212h77z" />
    <glyph glyph-name="radical" unicode="&#x221a;" horiz-adv-x="940" 
d="M438 0h-78l-233 582h-82v49h139l217 -531l430 1112h78z" />
    <glyph glyph-name="infinity" unicode="&#x221e;" horiz-adv-x="1400" 
d="M715 389q-59 -113 -234 -113h-121q-127 0 -195.5 60.5t-68.5 214.5v45q0 154 68.5 214t195.5 60h121q176 0 234 -112q28 58 79 83.5t144 28.5h109q127 0 195.5 -60t68.5 -214v-45q0 -144 -63 -208t-193 -67h-111q-172 0 -229 113zM360 350h121q50 0 83 7t61 27.5
t41.5 61.5t13.5 105v45q0 64 -13.5 105t-41.5 61.5t-61 27.5t-83 7h-121q-40 0 -67.5 -4t-54 -16.5t-42 -34.5t-25 -58.5t-9.5 -87.5v-45q0 -51 9.5 -87.5t25 -58.5t42 -34.5t54 -16.5t67.5 -4zM944 350h103q40 0 67.5 4t54 16.5t42 34.5t25 58.5t9.5 87.5v45
q0 51 -9.5 87.5t-25 58.5t-42 34.5t-54 16.5t-67.5 4h-103q-50 0 -83 -7t-61 -27.5t-41.5 -61.5t-13.5 -105v-45q0 -64 13.5 -105t41.5 -61.5t61 -27.5t83 -7z" />
    <glyph glyph-name="integral" unicode="&#x222b;" horiz-adv-x="577" 
d="M123 -344h-88v65h86q45 0 72.5 11.5t40.5 36.5t16.5 50.5t3.5 67.5v1100q2 112 46 168t159 59h88v-65h-86q-45 0 -72.5 -11.5t-40.5 -36.5t-16.5 -50.5t-3.5 -67.5v-1098q-1 -56 -10 -95t-31.5 -70t-63 -47t-100.5 -17z" />
    <glyph glyph-name="approxequal" unicode="&#x2248;" horiz-adv-x="1005" 
d="M20 688v92q114 90 240 90q102 0 262 -63q134 -57 226 -57q62 0 116.5 27.5t120.5 88.5v-90q-117 -90 -237 -90q-92 0 -263 66q-143 55 -229 55q-63 0 -118 -28t-118 -91zM20 416v90q114 92 242 92q103 0 260 -63q153 -62 228 -62q58 0 110.5 27.5t124.5 91.5v-88
q-117 -90 -237 -90q-94 0 -263 65q-139 53 -225 53q-66 0 -121 -27.5t-119 -88.5z" />
    <glyph glyph-name="notequal" unicode="&#x2260;" horiz-adv-x="727" 
d="M369 567h-349v66h373l96 244h78l-94 -244h232v-66h-259l-96 -245h355v-66h-381l-101 -256h-78l101 256h-226v66h252z" />
    <glyph glyph-name="lessequal" unicode="&#x2264;" horiz-adv-x="804" 
d="M739 430l-680 375v57l680 373v-74l-596 -330l596 -325v-76zM741 291h-684v65h684v-65z" />
    <glyph glyph-name="greaterequal" unicode="&#x2265;" horiz-adv-x="808" 
d="M745 803l-679 -373v74l596 327l-596 330v74l679 -373v-59zM748 291h-685v65h685v-65z" />
    <glyph glyph-name="lozenge" unicode="&#x25ca;" horiz-adv-x="958" 
d="M512 -80h-68l-417 647l417 647h68l420 -647zM102 567l377 -577l377 577l-377 578z" />
    <glyph glyph-name="grave.case" horiz-adv-x="219" 
d="M199 1300h-78l-101 105h107z" />
    <glyph glyph-name="dieresis.case" horiz-adv-x="325" 
d="M76 1300q-35 0 -49 25t0.5 49.5t48.5 24.5q32 0 45.5 -24.5t0 -49.5t-45.5 -25zM254 1300q-34 0 -48 25t0 49.5t48 24.5q32 0 45.5 -24.5t0 -49.5t-45.5 -25z" />
    <glyph glyph-name="macron.case" horiz-adv-x="546" 
d="M526 1300h-506v66h506v-66z" />
    <glyph glyph-name="acute.case" horiz-adv-x="219" 
d="M96 1300h-76l72 105h107z" />
    <glyph glyph-name="circumflex.case" horiz-adv-x="270" 
d="M102 1300h-82l89 105h49l92 -105h-84l-31 48z" />
    <glyph glyph-name="caron.case" horiz-adv-x="270" 
d="M158 1300h-49l-89 105h82l33 -45l31 45h84z" />
    <glyph glyph-name="breve.case" horiz-adv-x="397" 
d="M31 1380h59q5 -27 9 -37t20.5 -17t50.5 -7h61q24 0 38.5 3t21.5 13t9 17.5t5 27.5h62q-4 -32 -8.5 -48.5t-17.5 -34.5t-40 -25.5t-70 -7.5h-61q-82 0 -108 26.5t-31 89.5z" />
    <glyph glyph-name="dotaccent.case" horiz-adv-x="147" 
d="M76 1300q-35 0 -49 25t0.5 49.5t48.5 24.5q32 0 45.5 -24.5t0 -49.5t-45.5 -25z" />
    <glyph glyph-name="ring.case" horiz-adv-x="288" 
d="M141 1294q-46 0 -77.5 24t-38 58.5t1 69t39 58.5t77.5 24q47 0 79.5 -24t40 -58.5t-0.5 -69t-40.5 -58.5t-80.5 -24zM143 1352q23 0 39 12.5t20 30t0.5 35.5t-19 30.5t-38.5 12.5t-38.5 -12.5t-19.5 -30.5t-1 -35.5t18.5 -30t38.5 -12.5z" />
    <glyph glyph-name="tilde.case" horiz-adv-x="466" 
d="M20 1298v93q62 57 121 57q42 0 107 -36t96 -36q51 0 102 70v-94q-52 -49 -102 -49q-38 0 -102 34.5t-99 34.5q-60 0 -123 -74z" />
    <glyph glyph-name="hungarumlaut.case" horiz-adv-x="372" 
d="M92 1300h-72l72 105h94zM258 1300h-72l70 105h96z" />
    <glyph glyph-name="caron.salt" horiz-adv-x="272" 
d="M109 1300l-89 105h82l33 -45l31 45h84l-92 -105h-49z" />
    <glyph glyph-name="commaaccent.salt" horiz-adv-x="233" 
d="M94 -92h107l-101 -105h-77z" />
    </font>
</defs>
</svg>
