<?xml version="1.0" standalone="no"?>
<!DOCTYPE svg PUBLIC "-//W3C//DTD SVG 1.1//EN" "http://www.w3.org/Graphics/SVG/1.1/DTD/svg11.dtd" >
<svg xmlns="http://www.w3.org/2000/svg" xmlns:xlink="http://www.w3.org/1999/xlink" version="1.1">
<metadata>
Created by FontForge 20170731 at Fri Mar 31 11:45:25 2023
 By Aleksey,,,
Copyright (c) 2023 by Moriztype. All rights reserved.
</metadata>
<defs>
<font id="ElyzabethPro-SemiBold" horiz-adv-x="890" >
  <font-face 
    font-family="Elyzabeth SemBd"
    font-weight="600"
    font-stretch="normal"
    units-per-em="2048"
    panose-1="0 0 0 0 0 0 0 0 0 0"
    ascent="1638"
    descent="-410"
    x-height="881"
    cap-height="1221"
    bbox="-92 -344 2044 1567"
    underline-thickness="102"
    underline-position="-358"
    unicode-range="U+000D-FB05"
  />
<missing-glyph horiz-adv-x="512" 
 />
    <glyph glyph-name="f_f" unicode="ff" horiz-adv-x="1110" 
d="M184 0h-102v795h-43v88h43v100q0 119 50.5 177t166.5 59h227v-86h-225q-40 0 -64.5 -10t-35.5 -33.5t-14 -46.5t-3 -64v-96h449v100q0 119 50.5 177t166.5 59h227v-86h-225q-40 0 -64.5 -10t-35.5 -33.5t-14 -46.5t-3 -64v-96h342v-88h-342v-795h-102v795h-449v-795z" />
    <glyph glyph-name="fi" unicode="fi" horiz-adv-x="929" 
d="M176 0h-102v795h-43v88h43v100q0 119 50.5 177t166.5 59h227v-86h-225q-40 0 -65 -10.5t-35.5 -34t-13.5 -46.5t-3 -63v-96h619v-883h-103v795h-516v-795zM743 1090q-43 0 -60.5 29.5t0 59t60.5 29.5q31 0 49 -18.5t18 -40.5t-18 -40.5t-49 -18.5z" />
    <glyph glyph-name="fl" unicode="fl" horiz-adv-x="901" 
d="M176 0h-102v795h-43v88h43v100q0 119 50.5 177t166.5 59h485v-1219h-102v1133h-381q-40 0 -64.5 -10t-35.5 -33.5t-14 -46.5t-3 -64v-96h342v-88h-342v-795z" />
    <glyph glyph-name="f_f_i" unicode="ffi" horiz-adv-x="1480" 
d="M176 0h-102v795h-43v88h43v100q0 119 50.5 177t166.5 59h227v-86h-225q-40 0 -65 -10.5t-35.5 -34t-13.5 -46.5t-3 -63v-96h449v100q0 119 51 177t168 59h225v-86h-223q-41 0 -66 -10.5t-36 -34t-14 -46.5t-3 -63v-96h621v-883h-103v795h-518v-795h-102v795h-449v-795z
M1296 1090q-43 0 -61 29.5t0 59t61 29.5q31 0 49 -18.5t18 -40.5t-18 -40.5t-49 -18.5z" />
    <glyph glyph-name="f_f_l" unicode="ffl" horiz-adv-x="1454" 
d="M176 0h-102v795h-43v88h43v100q0 119 50.5 177t166.5 59h227v-86h-225q-40 0 -64.5 -10t-35.5 -33.5t-14 -46.5t-3 -64v-96h449v100q0 119 51 177t168 59h485v-1219h-102v1133h-381q-41 0 -66 -10t-36 -33.5t-14 -46.5t-3 -64v-96h342v-88h-342v-795h-102v795h-449v-795z
" />
    <glyph glyph-name="longs_t" unicode="&#x17f;t" horiz-adv-x="1175" 
d="M215 -2h-102v985q0 119 50.5 177t166.5 59h207q113 -1 165 -57t54 -169v-112h250v-86h-250v-541q0 -52 4.5 -79t20.5 -50t49 -31t90 -8h221v-86h-221q-70 -1 -119.5 11.5t-78 33t-45 55t-21.5 69.5t-5 85v541h-116v86h116v98q0 32 -1.5 51t-7.5 41.5t-18 34t-34.5 19.5
t-54.5 8h-203q-40 0 -65 -10.5t-35.5 -34t-13.5 -46.5t-3 -63v-981z" />
    <glyph glyph-name=".notdef" horiz-adv-x="512" 
 />
    <glyph glyph-name="uni0000" horiz-adv-x="0" 
 />
    <glyph glyph-name="uni0000" horiz-adv-x="0" 
 />
    <glyph glyph-name="uni000D" unicode="&#xd;" horiz-adv-x="512" 
 />
    <glyph glyph-name="space" unicode=" " horiz-adv-x="532" 
 />
    <glyph glyph-name="exclam" unicode="!" horiz-adv-x="397" 
d="M240 203h-82l-15 1016h111zM199 102q30 0 42 -20.5t0 -41t-42 -20.5q-32 0 -45.5 20.5t0 41t45.5 20.5z" />
    <glyph glyph-name="quotedbl" unicode="&#x22;" horiz-adv-x="301" 
d="M270 1047h-96l-6 172h117zM119 1047h-96l-7 172h117z" />
    <glyph glyph-name="numbersign" unicode="#" horiz-adv-x="700" 
d="M158 0h-107l74 365h-76l19 86h75l56 282h-86l18 86h86l80 400h106l-79 -400h143l82 400h104l-80 -400h76l-16 -86h-78l-55 -282h88l-19 -86h-88l-71 -365h-107l72 365h-144zM307 733l-59 -282h143l60 282h-144z" />
    <glyph glyph-name="dollar" unicode="$" horiz-adv-x="954" 
d="M528 0h-102v51h-31q-76 0 -130.5 17.5t-84.5 44t-47.5 68t-22 78.5t-4.5 87v31h103v-31q0 -45 2.5 -72.5t13 -57t30 -44.5t54.5 -25t86 -10h31v420h-31q-137 0 -208 55.5t-81 178.5v100q0 47 7 84t26.5 72.5t51 59t83.5 38t121 14.5h31v58h102v-58h37q76 0 130.5 -17.5
t84.5 -43.5t47.5 -67t22 -78t4.5 -87v-30h-102v30q0 38 -1.5 61.5t-7.5 50t-18.5 41.5t-33 29t-52 19.5t-74.5 5.5h-37v-430h58q158 0 220.5 -63.5t67.5 -202.5v-53q0 -47 -7 -85t-26 -74t-50.5 -60.5t-83.5 -39t-121 -14.5h-58v-51zM395 643h31v430h-31q-59 0 -96.5 -11.5
t-56.5 -36.5t-26 -55.5t-7 -78.5v-64q0 -98 36.5 -141t149.5 -43zM528 557v-420h58q59 0 96.5 11.5t57 37.5t26 57.5t6.5 80.5v49q0 98 -36.5 141t-149.5 43h-58z" />
    <glyph glyph-name="percent" unicode="%" horiz-adv-x="1411" 
d="M66 825v123q0 48 7 86t26 74.5t50.5 60t83.5 38t121 14.5q84 0 143 -21t90.5 -60t45 -85.5t14.5 -106.5v-123q-1 -139 -73.5 -205.5t-219.5 -66.5q-86 0 -145 21t-89 60.5t-42 85t-12 105.5zM510 0h-111l478 1219h110zM168 948v-123q0 -49 6.5 -80.5t26 -57t57 -37
t96.5 -11.5q58 0 96 11.5t58 37t28 57.5t9 80v123q0 97 -39.5 142t-151.5 45q-59 0 -96.5 -11.5t-57 -37.5t-26 -57.5t-6.5 -80.5zM756 272v123q0 143 70 208t218 65q84 0 143 -21t90.5 -60t45 -85.5t14.5 -106.5v-123q-1 -59 -14.5 -105t-45 -85.5t-90.5 -60.5t-143 -21
q-86 0 -145 21t-89 60.5t-42 85t-12 105.5zM858 395v-123q0 -49 6.5 -80.5t26 -57t57 -37t96.5 -11.5q58 0 96 11.5t58 37t28 57.5t9 80v123q0 97 -39.5 142t-151.5 45q-59 0 -96.5 -11.5t-57 -37.5t-26 -57.5t-6.5 -80.5z" />
    <glyph glyph-name="ampersand" unicode="&#x26;" horiz-adv-x="929" 
d="M236 979v-84q0 -99 36.5 -142t149.5 -44h205v-86h-252q-58 0 -95 -11.5t-55.5 -37.5t-25 -57t-6.5 -79v-164q0 -49 6.5 -80.5t26 -57t57 -37t96.5 -11.5h135q57 0 90 8t49 31t20.5 50t4.5 79v506h102v-53h58v-86h-58v-367q0 -44 -3.5 -75.5t-18 -67.5t-39.5 -58t-71 -37
t-111 -16h-158q-86 0 -145 21t-89.5 60.5t-42.5 85t-12 105.5v164q0 38 4.5 69t17 65t38.5 61t65 45q-44 34 -61.5 82.5t-20.5 118.5v67q0 61 12 106.5t42.5 85t89.5 60.5t145 21h70q76 0 131 -17.5t85 -43.5t46.5 -67.5t21 -78.5t4.5 -88v-29h-102v29q0 46 -2.5 73
t-12.5 56.5t-29.5 44.5t-54.5 25t-87 10h-70q-97 0 -139 -35.5t-47 -118.5z" />
    <glyph glyph-name="quotesingle" unicode="'" horiz-adv-x="165" 
d="M127 1047h-94l-13 172h123z" />
    <glyph glyph-name="parenleft" unicode="(" horiz-adv-x="509" 
d="M279 1219h108q-223 -367 -232.5 -777t203.5 -780h-104q-216 368 -210 781.5t235 775.5z" />
    <glyph glyph-name="parenright" unicode=")" horiz-adv-x="512" 
d="M133 1219h109q228 -362 233.5 -775.5t-209.5 -781.5h-106q215 370 205.5 780t-232.5 777z" />
    <glyph glyph-name="asterisk" unicode="*" horiz-adv-x="598" 
d="M248 868l-178 -104l-50 78l187 110l-187 107l48 78l180 -105v187h102v-185l176 105l49 -78l-184 -111l184 -106l-45 -78l-180 102v-184h-102v184z" />
    <glyph glyph-name="plus" unicode="+" horiz-adv-x="634" 
d="M371 324h-103v241h-245v86h245v240h103v-240h243v-86h-243v-241z" />
    <glyph glyph-name="comma" unicode="," horiz-adv-x="176" 
d="M16 -45l27 61q-34 29 -16.5 69.5t63.5 39.5q37 -3 52.5 -33t2.5 -59q-9 -18 -26 -36.5t-31 -29.5t-14 -12h-58z" />
    <glyph glyph-name="hyphen" unicode="-" horiz-adv-x="634" 
d="M614 565h-594v86h594v-86z" />
    <glyph glyph-name="period" unicode="." horiz-adv-x="176" 
d="M88 0q-28 0 -44 21.5t-16.5 47t15.5 47t45 21.5t45.5 -21.5t16 -47t-17 -47t-44.5 -21.5z" />
    <glyph glyph-name="slash" unicode="/" horiz-adv-x="645" 
d="M137 0h-108l475 1219h110z" />
    <glyph glyph-name="zero" unicode="0" horiz-adv-x="974" 
d="M102 272v674q0 61 12 106.5t42.5 85t89.5 60.5t145 21h193q84 0 142.5 -21t89 -60t43 -85t13.5 -107v-674q-1 -60 -13.5 -105.5t-43 -85t-89 -60.5t-142.5 -21h-193q-86 0 -145 21t-89.5 60.5t-42.5 85t-12 105.5zM205 946v-674q0 -49 6.5 -80.5t26 -57t57 -37
t96.5 -11.5h193q58 0 95 11.5t56.5 37.5t26.5 57t8 80v674q0 98 -37.5 142.5t-148.5 44.5h-193q-59 0 -96.5 -11.5t-57 -37.5t-26 -57.5t-6.5 -80.5z" />
    <glyph glyph-name="one" unicode="1" horiz-adv-x="577" 
d="M123 0v86h119v1047h-119v86h221v-1133h109v-86h-330z" />
    <glyph glyph-name="two" unicode="2" horiz-adv-x="1013" 
d="M788 846v112q0 49 -6.5 80.5t-26 57.5t-57 37.5t-96.5 11.5h-151q-51 0 -86 -10t-55 -25t-30.5 -44.5t-13 -57t-2.5 -72.5v-29h-102v51q0 61 12 106.5t42.5 85t89.5 60.5t145 21h151q86 0 145 -21t89.5 -60.5t42.5 -85t12 -106.5v-112q0 -60 -12 -105.5t-42.5 -85.5
t-89.5 -61t-145 -21h-190q-113 0 -150 -43t-37 -141v-119q0 -98 37 -141t150 -43h190q52 0 87 10t54.5 24.5t29.5 44t12.5 56.5t2.5 74v29h103v-54q0 -47 -7 -84.5t-26.5 -73.5t-51 -59.5t-83.5 -38t-121 -14.5h-190q-69 0 -121 14.5t-83.5 38t-51 59.5t-26.5 73.5t-7 84.5
v119q0 47 7 84.5t26.5 73.5t51 59.5t83.5 38t121 14.5h190q59 0 96.5 11.5t57 37.5t26 57.5t6.5 80.5z" />
    <glyph glyph-name="three" unicode="3" horiz-adv-x="1015" 
d="M788 829v117q0 49 -6.5 80.5t-26 57.5t-57 37.5t-96.5 11.5h-190q-51 0 -86 -10t-55 -25t-30.5 -44.5t-13 -57t-2.5 -72.5v-29h-102v51q0 61 12 106.5t42.5 85t89.5 60.5t145 21h190q86 0 145 -21t89.5 -60.5t42.5 -85t12 -106.5v-117q0 -167 -100 -229
q57 -35 77.5 -90.5t22.5 -136.5v-101q0 -60 -12 -105.5t-42.5 -85t-89.5 -60.5t-145 -21h-190q-76 0 -130.5 17.5t-84.5 43.5t-47.5 67.5t-22 78.5t-4.5 88v31h102v-31q0 -45 2.5 -72.5t13 -57t30.5 -44.5t55 -25t86 -10h190q105 0 147 43t42 137v107q0 97 -38 140.5
t-151 43.5h-301v86h301q59 0 96.5 11.5t57 37t26 57t6.5 80.5z" />
    <glyph glyph-name="four" unicode="4" horiz-adv-x="874" 
d="M600 262h-569v74l559 881h112v-869h46v-86h-46v-262h-102v262zM600 1047l-442 -699h442v699z" />
    <glyph glyph-name="five" unicode="5" horiz-adv-x="1013" 
d="M516 0h-393v86h389q98 0 168.5 56t89.5 136.5t7 160.5t-79 136t-170 56h-405v588h719v-86h-617v-418h305q104 0 183.5 -39.5t117.5 -102.5t53 -139.5t-7.5 -153t-65.5 -139.5t-121 -102t-174 -39z" />
    <glyph glyph-name="six" unicode="6" horiz-adv-x="942" 
d="M520 1133h-170q-45 0 -74 -9.5t-44 -30.5t-20.5 -46t-6.5 -64v-266q68 43 186 43h117q55 0 99 -5t75.5 -16.5t54.5 -24.5t37.5 -35t23.5 -41t13 -50t5 -54t1 -61v-166q0 -41 -1.5 -67.5t-8 -62t-18.5 -58t-34.5 -47.5t-55 -39t-81 -23.5t-110.5 -9.5h-117q-86 0 -145 21
t-89.5 60.5t-42.5 84.5t-12 104v713q1 51 11 89t35.5 73.5t76.5 54.5t125 19h170q70 0 122 -14.5t83.5 -38t50.5 -60t26 -74.5t7 -86h-102q0 50 -6.5 81t-26 57t-57 37.5t-97.5 11.5zM508 674h-117q-113 0 -149.5 -43.5t-36.5 -141.5v-219q0 -98 36.5 -141t149.5 -43h117
q69 0 111.5 12.5t63 41.5t26.5 62.5t6 90.5v180q0 39 -2 63.5t-9 50t-20.5 39.5t-36 26t-57 17t-82.5 5z" />
    <glyph glyph-name="seven" unicode="7" horiz-adv-x="882" 
d="M33 1133v86h426q162 0 241.5 -67t79.5 -191v-959h-102v961q0 85 -52.5 127.5t-168.5 42.5h-424z" />
    <glyph glyph-name="eight" unicode="8" horiz-adv-x="974" 
d="M205 600q-101 62 -101 229v117q0 61 12 106.5t42.5 85t89 60.5t143.5 21h193q85 0 143.5 -20.5t88.5 -60.5t42 -85.5t12 -106.5v-117q0 -167 -100 -229q49 -30 71.5 -75.5t28.5 -141.5v-111q0 -60 -12 -105.5t-42 -85t-88.5 -60.5t-143.5 -21h-193q-143 0 -213 61
t-74 193v119q0 165 101 227zM207 946v-117q0 -49 6.5 -80.5t26 -57t56.5 -37t95 -11.5h193q58 0 95 11.5t56.5 37t26 57t6.5 80.5v117q0 49 -6.5 80.5t-26 57.5t-56.5 37.5t-95 11.5h-193q-58 0 -95 -11.5t-56.5 -37.5t-26 -57.5t-6.5 -80.5zM207 373v-101q0 -49 6.5 -80.5
t26 -57t56.5 -37t95 -11.5h193q58 0 95 11.5t56.5 37t26 57t6.5 80.5v101q0 49 -6.5 80t-26 56t-56.5 36.5t-95 11.5h-193q-58 0 -95 -11.5t-56.5 -36.5t-26 -56t-6.5 -80z" />
    <glyph glyph-name="nine" unicode="9" horiz-adv-x="921" 
d="M111 270h102q0 -98 36.5 -141t149.5 -43h172q86 0 115 36t29 114v266q-71 -45 -187 -45h-116q-89 0 -150 18t-92 42t-47 73t-18.5 84.5t-2.5 103.5v113q0 34 0.5 55t3.5 52t9 51t16.5 45.5t26.5 42t39.5 33.5t53.5 27t70.5 16t90.5 6h116q70 0 122 -14.5t83.5 -38
t50.5 -60t26 -74.5t7 -86v-710q0 -50 -10 -88.5t-35 -74t-76 -54.5t-125 -19h-172q-86 0 -145 21t-89 60.5t-42 84.5t-12 104zM412 543h116q60 0 97.5 11.5t57 37t26 56.5t6.5 81v217q0 50 -6.5 81t-26 57t-57 37.5t-97.5 11.5h-116q-56 0 -94.5 -10t-60.5 -25.5
t-33.5 -45.5t-15 -59.5t-3.5 -77.5v-155q0 -38 1 -60.5t5 -49t12.5 -40.5t23.5 -29t37 -22t53.5 -11.5t74.5 -4.5z" />
    <glyph glyph-name="colon" unicode=":" horiz-adv-x="176" 
d="M90 762q-43 0 -61 30t0 60.5t61 30.5q31 0 49 -19t18 -41.5t-18 -41.5t-49 -19zM90 0q-43 0 -61 30t0 60.5t61 30.5q31 0 49 -19t18 -41.5t-18 -41.5t-49 -19z" />
    <glyph glyph-name="semicolon" unicode=";" horiz-adv-x="196" 
d="M90 762q-43 0 -61 30t0 60.5t61 30.5q31 0 49 -19t18 -41.5t-18 -41.5t-49 -19zM16 -45l27 63q-34 28 -16.5 68t63.5 39q37 -3 52.5 -33t2.5 -59q-9 -17 -26 -35.5t-31 -30t-14 -12.5h-58z" />
    <glyph glyph-name="less" unicode="&#x3c;" horiz-adv-x="841" 
d="M737 8l-706 385v70l706 383v-101l-581 -319l581 -315v-103z" />
    <glyph glyph-name="equal" unicode="=" horiz-adv-x="753" 
d="M731 565h-711v86h711v-86zM731 293h-711v86h711v-86z" />
    <glyph glyph-name="greater" unicode="&#x3e;" horiz-adv-x="841" 
d="M809 393l-707 -385v103l584 315l-584 319v101l707 -383v-70z" />
    <glyph glyph-name="question" unicode="?" horiz-adv-x="894" 
d="M338 201h-102v172q0 48 6.5 85t25.5 73t50.5 59.5t83.5 38t122 14.5q115 0 155 44t40 142v117q0 49 -7 81t-26.5 57.5t-57 37t-96.5 11.5h-172q-42 0 -73 -6t-51 -19.5t-32.5 -29t-18.5 -42.5t-7.5 -50.5t-1.5 -61.5v-29h-102v51q0 61 12 106.5t42 85.5t88.5 60.5
t143.5 20.5h172q86 0 145 -21t89.5 -60.5t42.5 -85t12 -106.5v-117q0 -61 -13.5 -107.5t-46 -85t-92 -59t-145.5 -20.5q-60 0 -97.5 -11.5t-56.5 -37t-25.5 -56t-6.5 -79.5v-172zM279 0q-31 0 -49 19t-18 41.5t18 41.5t49 19q43 0 60 -30.5t0 -60.5t-60 -30z" />
    <glyph glyph-name="at" unicode="@" horiz-adv-x="1579" 
d="M1356 141h121q-99 -122 -189 -189t-200.5 -97.5t-268.5 -30.5q-154 0 -285 46t-227 133t-150.5 219.5t-54.5 297.5q0 203 87.5 361.5t246.5 247t363 88.5q120 0 229.5 -40t194 -112t134.5 -182t50 -240t-31.5 -236t-81 -168t-106 -95t-111.5 -33q-58 0 -99 36t-50 103
q-49 -75 -125.5 -120t-165.5 -44q-78 1 -137 37t-89.5 96.5t-40.5 141t9 169.5q35 176 149 296.5t265 119.5q129 0 192 -98l6 59h107l-76 -610q-3 -96 59 -96q33 0 71 30.5t73 84.5t58.5 141t23.5 188q0 137 -68.5 250t-185 176.5t-254.5 63.5q-176 0 -309.5 -81
t-205.5 -218.5t-79 -311.5q-2 -278 165 -446t447 -168q183 0 309.5 56t229.5 175zM633 174q118 -1 204.5 112t104.5 273q15 127 -26.5 212.5t-129.5 86.5q-101 3 -183 -91t-114 -237q-33 -148 7.5 -250.5t136.5 -105.5z" />
    <glyph glyph-name="A" unicode="A" horiz-adv-x="1060" 
d="M610 0h-567l487 1217h107l383 -1217h-107l-335 1063l-392 -977h424v-86z" />
    <glyph glyph-name="B" unicode="B" horiz-adv-x="1032" 
d="M623 0h-480v1219h480q147 0 217.5 -63t70.5 -200v-120q0 -166 -98 -226q47 -29 72.5 -90t25.5 -139v-109q0 -60 -12 -105.5t-42 -85t-89 -60.5t-145 -21zM246 1133v-482h377q59 0 96.5 11.5t57 37.5t26 57.5t6.5 80.5v108q0 49 -6.5 80.5t-26 57.5t-57 37.5t-96.5 11.5
h-377zM246 565v-479h377q59 0 96.5 11.5t57 37t26 57t6.5 80.5v109q0 48 -7 79t-26 56.5t-56.5 37t-96.5 11.5h-377z" />
    <glyph glyph-name="C" unicode="C" horiz-adv-x="976" 
d="M874 86v-86h-342q-83 0 -149 18t-111 46.5t-77 75.5t-49.5 93.5t-27.5 113t-13 122t-3 131.5q0 72 4 131.5t15.5 125t30.5 116.5t52 98.5t77 79t108 50t143 18.5h342v-86h-342q-65 0 -115.5 -18t-84 -45t-57 -73t-36 -86.5t-19 -102.5t-8 -104t-1.5 -106q0 -50 0.5 -81.5
t3.5 -79.5t9 -79t17 -71.5t27 -66.5t40.5 -54t56 -43.5t74 -26t93.5 -10.5h342z" />
    <glyph glyph-name="D" unicode="D" horiz-adv-x="1011" 
d="M479 0h-336v1219h336q83 0 149 -18.5t110.5 -48t77 -78t50 -96.5t28 -116t13 -124t2.5 -132q0 -72 -4 -130.5t-15.5 -123.5t-30.5 -114t-52 -95.5t-77 -76.5t-108 -48t-143 -18zM246 1133v-1047h233q51 0 93.5 11t73.5 28.5t55.5 47.5t40.5 58.5t27.5 70.5t17.5 76
t9.5 83t4 82t0.5 82q0 51 -0.5 81.5t-3.5 79t-9 78.5t-17 70.5t-27 66t-40.5 53.5t-56 43.5t-74 25.5t-94.5 10h-233z" />
    <glyph glyph-name="E" unicode="E" horiz-adv-x="987" 
d="M866 557h-661v-285q0 -49 6.5 -80.5t26 -57t57 -37t96.5 -11.5h475v-86h-475q-86 0 -145 21t-89.5 60.5t-42.5 85t-12 105.5v674q0 61 12 106.5t42.5 85t89.5 60.5t145 21h477v-86h-477q-59 0 -96.5 -11.5t-57 -37.5t-26 -57.5t-6.5 -80.5v-305h661v-84z" />
    <glyph glyph-name="F" unicode="F" horiz-adv-x="1005" 
d="M233 0h-102v946q0 61 12 106.5t42.5 85t89.5 60.5t145 21h477v-86h-477q-59 0 -96.5 -11.5t-57 -37t-26.5 -57.5t-7 -81v-305h662v-84h-662v-557z" />
    <glyph glyph-name="G" unicode="G" horiz-adv-x="972" 
d="M764 518h-178v84h280v-330q0 -60 -12 -105.5t-42 -85t-89 -60.5t-145 -21h-91q-57 0 -104.5 7t-83.5 24.5t-65 34.5t-49 49.5t-35 57t-23.5 69t-14 73t-7.5 82.5t-2.5 83.5t-0.5 89.5v6v5.5v6.5q0 211 6 274q19 197 118 279q94 78 274 78h78q76 0 130.5 -17.5t84.5 -43.5
t47 -67.5t21.5 -78.5t4.5 -88v-29h-102v29q0 46 -2.5 73t-12.5 56.5t-29.5 44.5t-54.5 25t-87 10h-82q-72 0 -125 -19.5t-83 -53t-49 -79t-24 -97.5t-7.5 -108.5t0.5 -112.5q1 -52 1 -77v-58q0 -47 -1 -92.5t5 -89t15 -82.5t29 -71.5t49 -56.5t74 -37t103 -13h95
q59 0 96.5 11.5t57 37t26 57t6.5 80.5v246z" />
    <glyph glyph-name="H" unicode="H" horiz-adv-x="1054" 
d="M246 2h-103v1217h103v-617h563v617h102v-1217h-102v514h-563v-514z" />
    <glyph glyph-name="I" unicode="I" horiz-adv-x="391" 
d="M246 0h-103v1219h103v-1219z" />
    <glyph glyph-name="J" unicode="J" horiz-adv-x="940" 
d="M502 0h-459v86h459q100 0 152.5 61.5t52.5 147.5v924h102v-924q0 -52 -18.5 -102.5t-54 -94.5t-96.5 -71t-138 -27z" />
    <glyph glyph-name="K" unicode="K" horiz-adv-x="983" 
d="M246 0h-103v1219h103v-570l559 570h135l-578 -584l576 -635h-133l-512 565l-47 -49v-516z" />
    <glyph glyph-name="L" unicode="L" horiz-adv-x="942" 
d="M901 86v-86h-459q-77 0 -138.5 27t-97.5 71t-54.5 94.5t-18.5 102.5v924h103v-924q0 -86 52.5 -147.5t153.5 -61.5h459z" />
    <glyph glyph-name="M" unicode="M" horiz-adv-x="1390" 
d="M246 0h-103v1219h109l444 -1069l443 1069h106v-1219h-102v971l-400 -971h-94l-403 969v-969z" />
    <glyph glyph-name="N" unicode="N" horiz-adv-x="1056" 
d="M246 0h-103v1219h105l563 -1022v1022h102v-1219h-108l-559 1018v-1018z" />
    <glyph glyph-name="O" unicode="O" horiz-adv-x="1067" 
d="M532 0q-79 0 -143 18t-108 48t-77 76.5t-52 95.5t-30.5 114t-15.5 123.5t-4 130.5q0 76 2.5 132t13 124t28 116t50 96.5t77 78t110.5 48t149 18.5q65 0 119.5 -11t95.5 -30t74 -49.5t55 -63t38.5 -77t25.5 -85.5t14.5 -95t7 -99t1.5 -103q0 -72 -4 -130.5t-15.5 -123
t-30.5 -114t-52 -96t-77.5 -76.5t-108.5 -48t-143 -18zM532 86q65 0 116 18t84 45.5t57 73.5t36.5 87.5t19 103t8 104.5t1.5 107q0 51 -0.5 81.5t-3.5 79t-9 78.5t-17 70.5t-27 66t-40.5 53.5t-56 43.5t-74 25.5t-94.5 10q-66 0 -117.5 -17t-85 -40.5t-57 -68t-35 -80.5
t-18 -97.5t-7.5 -100t-1 -104.5q0 -64 1.5 -107t8 -105t19 -103t36 -87t57 -73.5t84 -45.5t115.5 -18z" />
    <glyph glyph-name="P" unicode="P" horiz-adv-x="1021" 
d="M246 0h-103v1219h480q69 0 121 -14.5t83.5 -38t50.5 -60t26 -74.5t7 -86v-119q0 -47 -7 -84.5t-26 -73.5t-50.5 -59.5t-83.5 -38t-121 -14.5h-377v-557zM246 1133v-492h377q59 0 96.5 11.5t57 37t26 57t6.5 80.5v119q0 49 -6.5 80.5t-26 57.5t-57 37.5t-96.5 11.5h-377z
" />
    <glyph glyph-name="Q" unicode="Q" horiz-adv-x="974" 
d="M549 -145l-82 145h-76q-86 0 -145 21t-89.5 60.5t-42.5 85t-12 105.5v674q0 61 12 106.5t42.5 85t89.5 60.5t145 21h193q69 0 121 -14.5t83.5 -38t50.5 -60t26 -74.5t7 -86v-674q0 -59 -11.5 -103.5t-39.5 -83.5t-82.5 -61t-134.5 -24h-22l80 -145h-113zM418 86l-70 127
h115l69 -127h52q59 0 96.5 11.5t57 37t26 57t6.5 80.5v674q0 49 -6.5 80.5t-26 57.5t-57 37.5t-96.5 11.5h-193q-59 0 -96.5 -11.5t-57 -37.5t-26 -57.5t-6.5 -80.5v-674q0 -49 6.5 -80.5t26 -57t57 -37t96.5 -11.5h27z" />
    <glyph glyph-name="R" unicode="R" horiz-adv-x="1052" 
d="M246 0h-103v1219h480q69 0 121 -14.5t83.5 -38t50.5 -60t26 -74.5t7 -86v-119q0 -47 -7 -84.5t-26 -73.5t-50.5 -59.5t-83.5 -38t-121 -14.5h-103l408 -557h-121l-408 557h-153v-557zM246 1133v-492h377q59 0 96.5 11.5t57 37t26 57t6.5 80.5v119q0 49 -6.5 80.5
t-26 57.5t-57 37.5t-96.5 11.5h-377z" />
    <glyph glyph-name="S" unicode="S" horiz-adv-x="1013" 
d="M123 295v29h102v-29q0 -46 2.5 -73.5t13 -56.5t30.5 -44.5t55 -25t86 -9.5h190q113 0 149.5 43t36.5 141v119q0 98 -36.5 141t-149.5 43h-190q-86 0 -145 21t-89.5 61t-42.5 85.5t-12 105.5v100q0 61 12 106.5t42.5 85t89.5 60.5t145 21h151q76 0 130.5 -17.5t84.5 -44
t47.5 -68t22 -78.5t4.5 -87v-29h-102v29q0 38 -1.5 61.5t-7.5 50.5t-18.5 42.5t-33 29t-52 19.5t-74.5 6h-151q-59 0 -96.5 -11.5t-57 -37t-26.5 -57.5t-7 -81v-100q0 -49 7 -81t26.5 -57.5t57 -37t96.5 -11.5h190q69 0 121 -14.5t83.5 -38t51 -59.5t26.5 -73.5t7 -84.5
v-119q0 -47 -7 -84.5t-26.5 -73.5t-51 -59.5t-83.5 -38t-121 -14.5h-190q-76 0 -130.5 17.5t-84.5 43.5t-47.5 67.5t-22 78.5t-4.5 88z" />
    <glyph glyph-name="T" unicode="T" horiz-adv-x="1024" 
d="M563 -2h-102v1135h-441v86h984v-86h-441v-1135z" />
    <glyph glyph-name="U" unicode="U" horiz-adv-x="1034" 
d="M133 295v924h103v-924q0 -86 52.5 -147.5t153.5 -61.5h150q101 0 154 61.5t53 147.5v924h102v-924q0 -52 -18.5 -102.5t-54 -94.5t-97 -71t-139.5 -27h-150q-77 0 -138.5 27t-97.5 71t-54.5 94.5t-18.5 102.5z" />
    <glyph glyph-name="V" unicode="V" horiz-adv-x="913" 
d="M514 0h-106l-390 1219h107l336 -1055l327 1055h107z" />
    <glyph glyph-name="W" unicode="W" horiz-adv-x="1673" 
d="M516 0h-106l-390 1219h107l336 -1055l328 1055h94l336 -1055l325 1055h107l-379 -1219h-109l-327 1030z" />
    <glyph glyph-name="X" unicode="X" horiz-adv-x="946" 
d="M137 0h-114l393 608l-393 611h114l336 -519l336 519h115l-392 -611l392 -608h-115l-336 518z" />
    <glyph glyph-name="Y" unicode="Y" horiz-adv-x="946" 
d="M522 2h-100v596l-399 619h116l334 -519l336 519h117l-404 -623v-592z" />
    <glyph glyph-name="Z" unicode="Z" horiz-adv-x="1013" 
d="M891 0h-768v74l639 1059h-639v86h768v-70l-641 -1063h641v-86z" />
    <glyph glyph-name="bracketleft" unicode="[" horiz-adv-x="442" 
d="M135 1133v-1391h182v-86h-284v1563h284v-86h-182z" />
    <glyph glyph-name="backslash" unicode="\" horiz-adv-x="655" 
d="M618 0h-110l-475 1219h108z" />
    <glyph glyph-name="bracketright" unicode="]" horiz-adv-x="440" 
d="M123 -258h182v1391h-182v86h285v-1563h-285v86z" />
    <glyph glyph-name="asciicircum" unicode="^" horiz-adv-x="724" 
d="M141 838h-121l302 381h84l301 -381h-123l-222 278z" />
    <glyph glyph-name="underscore" unicode="_" horiz-adv-x="753" 
d="M731 -57h-711v86h711v-86z" />
    <glyph glyph-name="grave" unicode="`" horiz-adv-x="296" 
d="M250 1219h-111l-121 124h146z" />
    <glyph glyph-name="a" unicode="a" 
d="M229 608h-102q0 60 12 105.5t42.5 85.5t89.5 61t145 21h100q87 0 146 -21t89 -61t42 -85.5t12 -105.5v-338q0 -59 -12 -104t-42 -84.5t-89 -60.5t-146 -21h-151q-72 0 -126 23.5t-83.5 63t-43.5 83t-14 90.5q0 48 15.5 95.5t47 90t88 69t130.5 26.5h323v67q0 50 -6.5 81
t-25.5 57t-56.5 37.5t-97.5 11.5h-100q-59 0 -96.5 -11.5t-57 -37t-26.5 -57.5t-7 -81zM702 270v189h-323q-84 0 -130 -60.5t-48 -142.5q0 -75 41 -122.5t125 -47.5h149q60 0 97.5 11.5t56.5 37t25.5 56t6.5 79.5z" />
    <glyph glyph-name="b" unicode="b" horiz-adv-x="940" 
d="M205 1219v-338h250q96 0 169 -27t116.5 -69t71 -101t37 -115.5t9.5 -119.5q0 -449 -407 -449h-60q-86 0 -145 21t-89.5 60.5t-42.5 85t-12 105.5v947h103zM453 795h-248v-523q0 -100 35.5 -143t148.5 -43h64q73 0 127.5 19t86.5 50t51.5 77.5t26 93.5t5.5 106
q0 363 -297 363z" />
    <glyph glyph-name="c" unicode="c" horiz-adv-x="770" 
d="M688 86v-86h-217q-99 0 -172.5 27.5t-114 69t-65 102.5t-31.5 116t-6 121q0 45 3.5 83t14 85t27 84.5t46.5 75t69 62t97.5 40t129.5 15.5h219v-86h-219q-69 0 -120 -21.5t-81 -55t-48.5 -85t-24.5 -101t-7 -112.5q-1 -58 4.5 -102.5t23 -90t47.5 -75t82.5 -48
t123.5 -18.5h219z" />
    <glyph glyph-name="d" unicode="d" horiz-adv-x="892" 
d="M469 881h217v338h102v-947q0 -48 -6.5 -85.5t-25.5 -73.5t-50.5 -60t-83.5 -38.5t-122 -14.5h-31q-74 0 -133.5 15t-99 39.5t-69 62t-45.5 74.5t-25.5 85t-12 86.5t-2.5 86.5q0 432 387 432zM686 272v523h-217q-72 0 -124.5 -20t-83 -51.5t-48.5 -81.5t-23.5 -99.5
t-5.5 -114.5q0 -60 5.5 -105t23 -92t48 -77t83 -49t125.5 -19h31q60 0 97.5 11.5t56.5 37t25.5 56.5t6.5 81z" />
    <glyph glyph-name="e" unicode="e" 
d="M569 459h-385v-183q0 -106 39 -148t142 -42h133q113 0 149.5 43t36.5 141h102q0 -60 -12 -104.5t-41.5 -84t-88.5 -60.5t-146 -21h-133q-82 0 -139.5 21t-87.5 60t-43 86t-13 109v330q0 133 62 204t221 71h208q55 0 95 -12.5t62.5 -31.5t35.5 -48t16.5 -55t3.5 -60
q0 -35 -4 -62t-17 -57t-36 -50t-63.5 -33t-96.5 -13zM184 606v-65h385q71 0 93 31.5t22 101.5q0 66 -20.5 93.5t-90.5 27.5h-208q-103 0 -142 -41t-39 -148z" />
    <glyph glyph-name="f" unicode="f" horiz-adv-x="559" 
d="M184 0h-102v795h-43v88h43v100q0 119 50.5 177t166.5 59h227v-86h-225q-40 0 -64.5 -10t-35.5 -33.5t-14 -46.5t-3 -64v-96h342v-88h-342v-795z" />
    <glyph glyph-name="g" unicode="g" horiz-adv-x="892" 
d="M82 -66h102q0 -49 7 -80.5t26.5 -57t57 -37t96.5 -11.5h172q86 0 114.5 36t28.5 114v147q-71 -45 -186 -45h-78q-85 0 -147 23.5t-98.5 61.5t-58.5 97t-29 118.5t-7 137.5q1 62 3 103.5t9.5 92.5t21.5 83.5t39 66.5t60.5 53t87.5 31.5t119 12.5h78q70 0 122 -14.5
t83.5 -38t50.5 -60t25.5 -74t6.5 -86.5v-710q0 -50 -9.5 -88.5t-34.5 -74t-76 -54.5t-125 -19h-172q-86 0 -145 20.5t-89.5 60t-42.5 85t-12 106.5zM422 86h78q60 0 97.5 11.5t56.5 37t25.5 56.5t6.5 81v336q0 50 -6.5 81t-25.5 57t-56.5 37.5t-97.5 11.5h-78
q-69 0 -116 -20.5t-71 -46t-36 -78.5t-13.5 -88t-1.5 -105q0 -146 11 -199q26 -131 138 -161q39 -11 89 -11z" />
    <glyph glyph-name="h" unicode="h" horiz-adv-x="933" 
d="M225 0h-102v1219h102v-383q67 45 187 45h129q87 0 146 -21t88.5 -60.5t41.5 -84.5t12 -105v-610h-102v610q0 99 -36 142t-150 43h-129q-113 0 -150 -43.5t-37 -141.5v-610z" />
    <glyph glyph-name="i" unicode="i" horiz-adv-x="380" 
d="M193 1090q-43 0 -60.5 29.5t0 59t60.5 29.5q31 0 49 -18.5t18 -40.5t-18 -40.5t-49 -18.5zM244 0h-103v881h103v-881z" />
    <glyph glyph-name="j" unicode="j" horiz-adv-x="337" 
d="M154 1094q-43 0 -60.5 29.5t0 59t60.5 29.5q31 0 49 -18.5t18 -40.5t-18 -40.5t-49 -18.5zM-86 -338v86q60 0 97.5 11.5t56.5 37t25.5 56t6.5 79.5v949h103v-949q0 -60 -12 -105t-42 -85t-89 -60.5t-146 -19.5z" />
    <glyph glyph-name="k" unicode="k" horiz-adv-x="923" 
d="M225 0h-102v1219h102v-654l496 316h172l-510 -326l481 -555h-125l-442 500l-72 -45v-455z" />
    <glyph glyph-name="l" unicode="l" horiz-adv-x="350" 
d="M225 0h-102v1219h102v-1219z" />
    <glyph glyph-name="m" unicode="m" horiz-adv-x="1529" 
d="M205 0h-103v610q0 60 12 105t42.5 84.5t89.5 60.5t145 21h135q177 0 240 -88q68 88 238 88h133q70 0 121.5 -14t83 -37.5t50.5 -59t26 -73.5t7 -87v-610h-102v610q0 40 -3 65.5t-13.5 50.5t-30.5 38.5t-54.5 22t-84.5 8.5h-133q-59 0 -97 -11.5t-58 -37t-27 -57t-7 -79.5
v-610h-102v610q0 50 -5.5 80t-24 56.5t-57 37.5t-100.5 11h-133q-113 0 -150.5 -43.5t-37.5 -141.5v-610z" />
    <glyph glyph-name="n" unicode="n" horiz-adv-x="913" 
d="M205 0h-103v610q0 60 12 105t42.5 84.5t89.5 60.5t145 21h129q72 0 124 -13t83.5 -35t50 -58t25 -74.5t6.5 -90.5v-610h-102v610q0 50 -5.5 80t-24 56.5t-57 37.5t-100.5 11h-127q-113 0 -150.5 -43.5t-37.5 -141.5v-610z" />
    <glyph glyph-name="o" unicode="o" horiz-adv-x="915" 
d="M506 6h-96q-65 0 -115.5 11.5t-85 30t-58.5 51t-37.5 64.5t-20.5 81.5t-9 90.5t-2 103q0 58 2 100t9.5 92t21.5 84.5t38 69.5t58.5 56t84.5 34t114 13h96q64 0 114 -13t84.5 -34t58.5 -55.5t38 -69t21.5 -84.5t9.5 -91.5t2 -99.5q0 -48 -1 -81t-4.5 -74t-10.5 -69
t-18.5 -59.5t-28.5 -52t-41.5 -41t-56.5 -32t-74 -18.5t-93 -7zM410 92h96q37 0 67.5 5.5t52.5 16t39.5 25t28 32.5t18.5 39.5t11.5 45.5t5.5 49.5t2 52.5v55v29v4q0 67 -1.5 102.5t-13 92t-34 85.5t-67 52t-109.5 23h-96q-37 0 -67 -7.5t-52 -18t-39.5 -31t-28.5 -38
t-19 -47t-11.5 -50t-5.5 -55.5t-2.5 -55t-0.5 -57q0 -139 5 -176q16 -117 101 -153q48 -21 120 -21z" />
    <glyph glyph-name="p" unicode="p" horiz-adv-x="892" 
d="M205 -336h-103v946q0 61 12 106.5t42.5 84.5t89.5 59.5t145 20.5h129q87 0 146 -20.5t89 -59.5t42 -84.5t12 -106.5v-338q0 -60 -12 -105t-42 -85t-89 -61t-146 -21h-315v-336zM205 610v-524h315q60 0 97.5 11.5t57 37t26 56.5t6.5 81v338q0 50 -6.5 81t-26 57t-57 37.5
t-97.5 11.5h-129q-59 0 -96.5 -11.5t-57 -37.5t-26 -57.5t-6.5 -80.5z" />
    <glyph glyph-name="q" unicode="q" horiz-adv-x="913" 
d="M809 -336h-102v336h-316q-69 0 -121 14.5t-83.5 38t-51 59.5t-26.5 73.5t-7 84.5v340q0 60 12 105t42.5 84t89.5 59.5t145 20.5h129q87 0 146 -20.5t89 -59.5t42 -84t12 -105v-946zM391 86h316v524q0 49 -6.5 80t-26 56.5t-57 37t-97.5 11.5h-129q-113 0 -149.5 -43.5
t-36.5 -141.5v-340q0 -98 36.5 -141t149.5 -43z" />
    <glyph glyph-name="r" unicode="r" horiz-adv-x="684" 
d="M205 0h-103v623q0 56 13 99.5t43.5 81t88 57.5t138.5 20h268v-86h-266q-105 0 -143.5 -45t-38.5 -132v-618z" />
    <glyph glyph-name="s" unicode="s" horiz-adv-x="774" 
d="M438 0h-317v86h317q75 0 118.5 46t43.5 112q0 75 -39 122.5t-119 47.5h-100q-130 0 -196 65.5t-66 163.5q0 102 61 170t195 68h299v-86h-297q-160 0 -160 -152q0 -83 50.5 -113t142.5 -30h73q71 0 123 -23.5t79 -63t39.5 -81.5t12.5 -88q0 -98 -65 -171t-195 -73z" />
    <glyph glyph-name="t" unicode="t" horiz-adv-x="618" 
d="M584 0h-222q-69 -1 -118 11.5t-77.5 33t-44.5 55t-21 69.5t-5 85v541h-57v86h57v145h103v-145h250v-86h-250v-541q0 -52 4 -79t20.5 -50t49 -31t89.5 -8h222v-86z" />
    <glyph glyph-name="u" unicode="u" horiz-adv-x="911" 
d="M102 274v609h103v-609q0 -99 37.5 -142.5t150.5 -43.5h127q62 0 100.5 11t57 37.5t24 56.5t5.5 81v609h102v-609q0 -62 -12 -108t-42.5 -85t-89.5 -59t-145 -20h-129q-86 0 -145 21t-89.5 60.5t-42.5 85t-12 105.5z" />
    <glyph glyph-name="v" unicode="v" horiz-adv-x="770" 
d="M428 0h-102l-303 881h104l250 -729l262 729h109z" />
    <glyph glyph-name="w" unicode="w" horiz-adv-x="1529" 
d="M102 272v609h103v-609q0 -99 37.5 -142.5t150.5 -43.5h133q62 0 100.5 11t57 37.5t24 56.5t5.5 81v609h102v-609q0 -99 38 -142.5t151 -43.5h133q62 0 100.5 11t56.5 37.5t23.5 56.5t5.5 81v609h102v-609q0 -63 -12 -108.5t-42.5 -84.5t-89 -59t-144.5 -20h-133
q-170 0 -238 88q-66 -88 -240 -88h-135q-86 0 -145 21t-89.5 60.5t-42.5 85t-12 105.5z" />
    <glyph glyph-name="x" unicode="x" horiz-adv-x="792" 
d="M143 0h-120l313 440l-313 441h120l252 -357l252 357h123l-313 -441l313 -440h-123l-252 356z" />
    <glyph glyph-name="y" unicode="y" horiz-adv-x="933" 
d="M102 -66h103q0 -49 6.5 -80.5t26 -57t57 -37t96.5 -11.5h94q116 0 169 42.5t53 129.5v125q-64 -43 -187 -43h-129q-86 0 -145 21t-89.5 60.5t-42.5 85t-12 105.5v609h103v-609q0 -99 37.5 -142.5t150.5 -43.5h127q62 0 100.5 11t57 37.5t24 56.5t5.5 81v609h102v-961
q0 -126 -80 -193t-242 -67h-96q-86 0 -145 20.5t-89.5 60t-42.5 85t-12 106.5z" />
    <glyph glyph-name="z" unicode="z" horiz-adv-x="782" 
d="M655 748l-454 -660h481v-88h-518q-51 0 -65.5 40t16.5 83l463 670h-449v88h457q50 0 73.5 -21.5t20.5 -51.5t-25 -60z" />
    <glyph glyph-name="braceleft" unicode="{" horiz-adv-x="573" 
d="M449 -252v-86q-158 0 -236 56.5t-78 201.5v350q0 65 -24.5 97.5t-85.5 60.5v72q60 24 85 59t25 98v301q0 145 78.5 203t235.5 58v-86q-117 0 -164 -38t-47 -141v-311q0 -114 -86 -180q42 -33 64 -79t22 -93v-367q0 -103 47.5 -139.5t163.5 -36.5z" />
    <glyph glyph-name="bar" unicode="|" horiz-adv-x="350" 
d="M123 1219h102v-1219h-102v1219z" />
    <glyph glyph-name="braceright" unicode="}" horiz-adv-x="581" 
d="M125 -338v86q116 0 162.5 36.5t46.5 139.5v367q4 107 86 172q-83 63 -86 180v311q0 103 -46.5 141t-162.5 38v86q157 0 234 -58t77 -203v-301q0 -63 25.5 -98t85.5 -59v-72q-61 -27 -86 -60.5t-25 -97.5v-350q0 -145 -77.5 -201.5t-233.5 -56.5z" />
    <glyph glyph-name="asciitilde" unicode="~" horiz-adv-x="1028" 
d="M20 444v125q120 95 256 95q111 0 265 -62q147 -61 213 -61q56 0 109.5 31t144.5 108v-123q-114 -92 -248 -92q-108 0 -266 61q-157 58 -222 58q-55 0 -107 -30.5t-145 -109.5z" />
    <glyph glyph-name="uni00A0" unicode="&#xa0;" horiz-adv-x="532" 
 />
    <glyph glyph-name="exclamdown" unicode="&#xa1;" horiz-adv-x="380" 
d="M193 760q-43 0 -61 30t0 60.5t61 30.5q31 0 49 -19t18 -41.5t-18 -41.5t-49 -19zM152 723h81l15 -1067h-111z" />
    <glyph glyph-name="cent" unicode="&#xa2;" horiz-adv-x="770" 
d="M623 -129h-103v129h-49q-99 0 -172.5 27.5t-114 69t-65 102.5t-31.5 116t-6 121q0 45 3.5 83t14 85t27 84.5t46.5 75t69 62t97.5 40t129.5 15.5h51v131h103v-131h65v-86h-219q-70 0 -121 -21.5t-81 -55t-48 -85t-24 -101t-7 -112.5q-1 -58 4.5 -102.5t23 -90t47.5 -75
t82.5 -48t123.5 -18.5h219v-86h-65v-129z" />
    <glyph glyph-name="sterling" unicode="&#xa3;" horiz-adv-x="847" 
d="M809 -4h-746v80q111 35 111 160v288h-111v86h111v353q0 256 283 256h276v-86h-278q-103 0 -141 -44.5t-38 -130.5v-348h324v-86h-324v-305q0 -75 -47 -137h580v-86z" />
    <glyph glyph-name="currency" unicode="&#xa4;" horiz-adv-x="1116" 
d="M178 0h-125l135 207q-61 136 -61 393q0 136 11 235t44 177l-135 205h127l72 -111q102 113 311 113q208 0 313 -115l72 113h127l-137 -209q33 -76 44 -174t11 -234q0 -265 -61 -395l135 -205h-127l-74 113q-102 -113 -303 -113q-200 0 -305 115zM557 86q65 0 116 18.5
t84 46t57 73.5t36.5 87.5t19 103.5t8 104.5t1.5 105.5q0 50 -0.5 82t-4 80t-9 79t-17 71t-27.5 65.5t-40.5 52.5t-56 42.5t-74 25.5t-93.5 10q-66 0 -117 -16.5t-84.5 -40t-57 -67t-35.5 -80t-18.5 -97t-7.5 -100.5t-1 -107q0 -50 0.5 -83t4 -82t9 -82.5t17 -76t27.5 -71
t40.5 -58t55.5 -47t73.5 -28.5t93.5 -11z" />
    <glyph glyph-name="yen" unicode="&#xa5;" horiz-adv-x="987" 
d="M442 197h-301v86h301v184h-301v86h301v43l-399 621h119l334 -517l333 517h117l-401 -623v-41h307v-86h-307v-184h307v-86h-307v-191h-103v191z" />
    <glyph glyph-name="brokenbar" unicode="&#xa6;" horiz-adv-x="145" 
d="M121 745h-103l2 474h103zM121 0h-103l2 475h103z" />
    <glyph glyph-name="section" unicode="&#xa7;" horiz-adv-x="976" 
d="M608 0h-450v86h450q76 0 119 45.5t43 112.5q0 75 -38.5 122.5t-119.5 47.5h-284q-55 0 -97.5 21t-66 54t-34.5 68.5t-11 71.5q0 49 22 96.5t68 77.5q-88 63 -88 178q0 48 14.5 89t44 75t82.5 54t123 20h434v-86h-432q-162 0 -162 -152q0 -143 166 -143h266
q54 -1 95.5 -22.5t64.5 -54.5t34 -68t11 -68q0 -47 -21 -94.5t-63 -77.5q96 -71 96 -209q0 -45 -15.5 -87t-46 -78t-83.5 -57.5t-121 -21.5zM328 500h323q49 0 78 37.5t29 89.5q2 52 -26.5 88.5t-76.5 36.5h-331q-46 0 -74.5 -36t-28.5 -87q0 -52 29 -90.5t78 -38.5z" />
    <glyph glyph-name="dieresis" unicode="&#xa8;" horiz-adv-x="356" 
d="M86 1219q-43 0 -61 29.5t0 59t61 29.5q31 0 49 -18.5t18 -40.5t-18 -40.5t-49 -18.5zM270 1219q-32 0 -50 18.5t-18 40.5t18 40.5t50 18.5q31 0 49 -18.5t18 -40.5t-18 -40.5t-49 -18.5z" />
    <glyph glyph-name="copyright" unicode="&#xa9;" horiz-adv-x="1388" 
d="M100 594q0 267 163.5 430.5t430.5 163.5q268 0 432 -163.5t164 -430.5t-164 -431.5t-432 -164.5q-267 0 -430.5 164.5t-163.5 431.5zM168 594q0 -238 144.5 -384.5t381.5 -146.5q239 0 385 146.5t146 384.5q0 239 -145.5 383.5t-385.5 144.5q-238 0 -382 -144.5
t-144 -383.5zM877 444h69q-1 -49 -9.5 -84t-31 -68.5t-68.5 -51.5t-116 -21q-82 -3 -142.5 19t-94 57t-53.5 87.5t-25.5 99t-4.5 102.5q0 37 3 69.5t12 72t22.5 71t38.5 62.5t57.5 51t80 31t106.5 9q57 -2 98 -15t65 -32.5t38 -50t18.5 -59.5t5.5 -68h-69q-3 79 -32.5 114.5
t-123.5 41.5q-58 3 -101 -13.5t-68 -44.5t-40.5 -71.5t-20.5 -85.5t-6 -95q-1 -50 3.5 -88.5t19 -78t40 -64.5t69.5 -39.5t104 -11.5q48 3 79 14t47.5 32t22.5 46t7 63z" />
    <glyph glyph-name="ordfeminine" unicode="&#xaa;" horiz-adv-x="847" 
d="M193 1026h-103q0 57 19.5 95.5t57.5 58.5t81.5 28.5t103.5 10.5h113q162 0 224.5 -54t62.5 -178v-149q0 -60 -12 -105.5t-42.5 -85.5t-89 -61t-143.5 -21h-137q-137 0 -190.5 57.5t-53.5 161.5q0 107 58.5 158t199.5 51h307v25q-4 71 -45 93t-164 22h-73q-44 -1 -71 -4.5
t-53 -14t-38 -32.5t-12 -56zM649 838v73h-307q-92 0 -124 -28.5t-32 -104.5q0 -71 29 -99t115 -28h135q58 0 95 11.5t56.5 37.5t26 57.5t6.5 80.5z" />
    <glyph glyph-name="guillemotleft" unicode="&#xab;" horiz-adv-x="940" 
d="M817 90v-133l-491 485l491 486v-133l-358 -353zM532 90v-133l-491 485l491 486v-133l-356 -353z" />
    <glyph glyph-name="logicalnot" unicode="&#xac;" horiz-adv-x="753" 
d="M629 565h-606v86h708v-276h-102v190z" />
    <glyph glyph-name="uni00AD" unicode="&#xad;" horiz-adv-x="753" 
d="M731 565h-711v86h711v-86z" />
    <glyph glyph-name="registered" unicode="&#xae;" horiz-adv-x="1388" 
d="M100 594q0 267 164 430.5t432 163.5q267 0 430.5 -163.5t163.5 -430.5t-163.5 -431.5t-430.5 -164.5q-268 0 -432 164.5t-164 431.5zM168 594q0 -240 144.5 -385.5t383.5 -145.5q238 0 383.5 146t145.5 385t-145.5 383.5t-383.5 144.5q-239 0 -383.5 -144.5
t-144.5 -383.5zM586 217h-82v729h225q130 0 179.5 -56.5t49.5 -156.5q0 -46 -9.5 -81t-32.5 -65t-66.5 -47.5t-106.5 -19.5h-24l201 -303h-97l-200 303h-37v-303zM586 874v-286h143q89 0 117 33.5t28 111.5q0 76 -28 108.5t-117 32.5h-143z" />
    <glyph glyph-name="macron" unicode="&#xaf;" horiz-adv-x="593" 
d="M567 1212h-540v86h540v-86z" />
    <glyph glyph-name="degree" unicode="&#xb0;" horiz-adv-x="589" 
d="M291 778q-54 0 -96 20.5t-66 53.5t-35.5 69.5t-11.5 73.5t12 74t36 70.5t65.5 54t95.5 20.5q55 0 98 -20t67.5 -52.5t37 -69.5t12.5 -75t-12.5 -75t-37 -70t-67.5 -53.5t-98 -20.5zM291 862q55 1 85 36.5t30 96.5q0 60 -30 96.5t-83 36.5q-52 0 -81.5 -37t-29.5 -98
q0 -55 29.5 -93t79.5 -38z" />
    <glyph glyph-name="plusminus" unicode="&#xb1;" horiz-adv-x="753" 
d="M326 565h-306v86h304v299h104v-299h303v-86h-303v-297h-102v297zM731 125h-711v86h711v-86z" />
    <glyph glyph-name="twosuperior" unicode="&#xb2;" horiz-adv-x="937" 
d="M213 1020h-102q0 64 17 103.5t56 60.5t87.5 28t127.5 7h230q97 0 149.5 -57t52.5 -128q0 -73 -54.5 -127.5t-153.5 -54.5h-334q-47 0 -75 -28t-28 -72q0 -42 30.5 -71.5t76.5 -29.5h248q114 0 150 20t36 95h102q0 -120 -65.5 -160.5t-222.5 -40.5h-248
q-100 0 -154.5 57.5t-54.5 131.5q0 72 52.5 127t150.5 55h336q48 0 77 29.5t29 70.5t-28.5 69t-73.5 28h-228q-117 0 -151.5 -18.5t-34.5 -94.5z" />
    <glyph glyph-name="threesuperior" unicode="&#xb3;" horiz-adv-x="925" 
d="M102 766h103q0 -78 28 -96.5t140 -18.5h245q48 0 77.5 29t29.5 72q2 44 -26 72t-76 28h-396v84h394q49 0 77.5 29t28.5 71q0 41 -28 69t-74 28h-236q-117 0 -151.5 -18.5t-34.5 -94.5h-103q0 64 17 103.5t56 60.5t88 28t128 7h238q96 0 149 -56.5t53 -126.5
q0 -89 -69 -141q67 -51 67 -143q0 -72 -54.5 -129.5t-154.5 -57.5h-245q-155 0 -213 41t-58 160z" />
    <glyph glyph-name="acute" unicode="&#xb4;" horiz-adv-x="307" 
d="M152 1219h-109l86 124h145z" />
    <glyph glyph-name="paragraph" unicode="&#xb6;" horiz-adv-x="1034" 
d="M483 -336h-102v721q-104 0 -170 86t-78 208.5t4.5 245t76 208.5t138.5 86h559v-1555h-102v1469h-326v-1469z" />
    <glyph glyph-name="periodcentered" unicode="&#xb7;" horiz-adv-x="176" 
d="M90 762q-43 0 -61 30t0 60.5t61 30.5q31 0 49 -19t18 -41.5t-18 -41.5t-49 -19z" />
    <glyph glyph-name="cedilla" unicode="&#xb8;" horiz-adv-x="356" 
d="M33 -281v66q178 0 180 57q2 50 -141 39l71 135h78l-47 -86q63 1 98 -24t33 -70q0 -24 -11 -43.5t-25 -31.5t-39.5 -20.5t-44 -13t-50.5 -6.5t-45.5 -2h-42.5h-14z" />
    <glyph glyph-name="onesuperior" unicode="&#xb9;" horiz-adv-x="481" 
d="M412 565h-330v86h119v482h-119v86h221v-568h109v-86z" />
    <glyph glyph-name="ordmasculine" unicode="&#xba;" horiz-adv-x="806" 
d="M393 559q-78 0 -139.5 30.5t-97 80t-54 105.5t-18.5 114t18.5 114.5t54.5 106t98.5 80.5t141.5 31q79 1 142.5 -29t101 -78.5t57 -105.5t19.5 -115q0 -60 -20 -117.5t-58 -107t-102 -79.5t-144 -30zM393 643q99 0 162 74.5t63 175.5q0 100 -62 171t-163 71
q-90 0 -149.5 -73t-59.5 -173q0 -101 57 -173.5t152 -72.5z" />
    <glyph glyph-name="guillemotright" unicode="&#xbb;" horiz-adv-x="940" 
d="M614 442l-491 -485v133l358 352l-358 353v133zM899 442l-491 -485v133l356 352l-356 353v133z" />
    <glyph glyph-name="onequarter" unicode="&#xbc;" horiz-adv-x="1212" 
d="M412 565h-330v86h119v482h-119v86h221v-568h109v-86zM385 2h-109l476 1217h110zM981 100h-440v74l434 477h108v-465h47v-86h-47v-102h-102v102zM981 516l-299 -330h299v330z" />
    <glyph glyph-name="onehalf" unicode="&#xbd;" horiz-adv-x="1456" 
d="M412 565h-330v86h119v482h-119v86h221v-568h109v-86zM369 0h-109l475 1219h111zM743 455h-102q0 63 17 102.5t56.5 59.5t88 27t127.5 7h229q95 0 149 -56.5t54 -125.5q0 -73 -55 -128.5t-154 -55.5h-334q-45 0 -72.5 -27t-29.5 -68q0 -44 29 -75t77 -31h248q114 0 150 20
t36 95h103q0 -119 -66 -160t-223 -41h-248q-101 0 -156 59t-53 133q2 71 54 126t149 55h336q48 0 77.5 28.5t29.5 69.5q0 40 -29 68t-74 28h-227q-119 0 -153 -17.5t-34 -92.5z" />
    <glyph glyph-name="threequarters" unicode="&#xbe;" horiz-adv-x="1560" 
d="M102 766h103q0 -78 28 -96.5t140 -18.5h245q48 0 76.5 28.5t30.5 70.5q2 44 -25.5 73t-76.5 29h-396v84h394q48 0 77 28.5t29 69.5q2 41 -26 70t-76 29h-236q-117 0 -151.5 -18.5t-34.5 -94.5h-103q0 64 17 103.5t56 60.5t88 28t128 7h238q97 0 150.5 -57t51.5 -128
q0 -87 -69 -139q35 -26 52 -65.5t15 -79.5q-2 -73 -56 -129t-153 -56h-245q-155 0 -213 41t-58 160zM721 2h-111l477 1217h109zM1298 100h-440v74l434 477h109v-465h47v-86h-47v-102h-103v102zM1298 516l-299 -330h299v330z" />
    <glyph glyph-name="questiondown" unicode="&#xbf;" horiz-adv-x="993" 
d="M659 758q-31 0 -49 19t-18 41.5t18 41.5t49 19q43 0 60 -30.5t0 -60.5t-60 -30zM768 -49v29h102v-52q0 -61 -12 -106.5t-42 -85t-89 -60t-145 -20.5h-170q-86 0 -145 20.5t-89.5 60t-42.5 85t-12 106.5v117q0 61 13.5 107.5t46 85t92 59t145.5 20.5q113 0 149.5 43.5
t36.5 141.5v172h103v-172q0 -60 -12 -105t-42 -84.5t-89 -60.5t-146 -21q-115 0 -155 -44t-40 -142v-117q0 -49 7 -80.5t26.5 -57t57 -37t96.5 -11.5h170q52 0 87 10t54.5 25t29.5 44.5t12.5 56.5t2.5 73z" />
    <glyph glyph-name="Agrave" unicode="&#xc0;" horiz-adv-x="1060" 
d="M702 1313h-110l-121 125h145zM610 0h-567l487 1217h107l383 -1217h-107l-335 1063l-392 -977h424v-86z" />
    <glyph glyph-name="Aacute" unicode="&#xc1;" horiz-adv-x="1060" 
d="M582 1313h-107l86 125h144zM610 0h-567l487 1217h107l383 -1217h-107l-335 1063l-392 -977h424v-86z" />
    <glyph glyph-name="Acircumflex" unicode="&#xc2;" horiz-adv-x="1060" 
d="M547 1313h-111l109 125h63l115 -125h-115l-30 45zM610 0h-567l487 1217h107l383 -1217h-107l-335 1063l-392 -977h424v-86z" />
    <glyph glyph-name="Atilde" unicode="&#xc3;" horiz-adv-x="1060" 
d="M358 1313v108q70 62 134 62q44 0 112 -39t103 -39q53 0 108 63v-108q-53 -45 -108 -45q-39 0 -105.5 37t-105.5 37q-62 0 -138 -76zM610 0h-567l487 1217h107l383 -1217h-107l-335 1063l-392 -977h424v-86z" />
    <glyph glyph-name="Adieresis" unicode="&#xc4;" horiz-adv-x="1060" 
d="M487 1313q-43 0 -60.5 30t0 59.5t60.5 29.5q31 0 49 -18.5t18 -41t-18 -41t-49 -18.5zM672 1313q-32 0 -50 18.5t-18 41t18 41t50 18.5q31 0 49 -18.5t18 -41t-18 -41t-49 -18.5zM610 0h-567l487 1217h107l383 -1217h-107l-335 1063l-392 -977h424v-86z" />
    <glyph glyph-name="Aring" unicode="&#xc5;" horiz-adv-x="1062" 
d="M610 0h-567l475 1186q-34 14 -54.5 44t-21 63.5t12.5 64.5t45.5 51.5t77.5 20.5q57 0 93.5 -30.5t44 -70.5t-10.5 -80.5t-60 -58.5l375 -1190h-107l-335 1063l-392 -977h424v-86zM580 1251q33 0 46.5 26.5t0.5 52.5t-45 26q-33 0 -46.5 -26t-0.5 -52.5t45 -26.5z" />
    <glyph glyph-name="AE" unicode="&#xc6;" horiz-adv-x="1779" 
d="M152 0h-109l487 1217h1131v-87h-477q-59 0 -96.5 -11.5t-57 -37t-26.5 -57t-7 -80.5v-305h662v-84h-662v-285q0 -49 7 -80.5t26.5 -57t57 -37t96.5 -11.5h475v-86h-475q-86 0 -145 21t-89.5 60.5t-42.5 85t-12 105.5v113h-592zM602 1133l-264 -664h557v475q0 126 55 189
h-348z" />
    <glyph glyph-name="Ccedilla" unicode="&#xc7;" horiz-adv-x="976" 
d="M874 86v-86h-249l-39 -70q63 1 98 -24t33 -70q0 -24 -11 -43.5t-25 -31.5t-40 -20.5t-44 -13t-50 -6.5t-46 -2h-43h-14v66q179 0 181 57q2 52 -142 39l64 119h-15q-83 0 -149 18t-111 46.5t-77 75.5t-49.5 93.5t-27.5 113t-13 122t-3 131.5q0 72 4 131.5t15.5 125
t30.5 116.5t52 98.5t77 79t108 50t143 18.5h342v-86h-342q-65 0 -115.5 -18t-84 -45t-57 -73t-36 -86.5t-19 -102.5t-8 -104t-1.5 -106q0 -50 0.5 -81.5t3.5 -79.5t9 -79t17 -71.5t27 -66.5t40.5 -54t56 -43.5t74 -26t93.5 -10.5h342z" />
    <glyph glyph-name="Egrave" unicode="&#xc8;" horiz-adv-x="987" 
d="M621 1313h-109l-121 125h144zM866 557h-661v-285q0 -49 6.5 -80.5t26 -57t57 -37t96.5 -11.5h475v-86h-475q-86 0 -145 21t-89.5 60.5t-42.5 85t-12 105.5v674q0 61 12 106.5t42.5 85t89.5 60.5t145 21h477v-86h-477q-59 0 -96.5 -11.5t-57 -37.5t-26 -57.5t-6.5 -80.5
v-305h661v-84z" />
    <glyph glyph-name="Eacute" unicode="&#xc9;" horiz-adv-x="987" 
d="M557 1313h-108l86 125h145zM866 557h-661v-285q0 -49 6.5 -80.5t26 -57t57 -37t96.5 -11.5h475v-86h-475q-86 0 -145 21t-89.5 60.5t-42.5 85t-12 105.5v674q0 61 12 106.5t42.5 85t89.5 60.5t145 21h477v-86h-477q-59 0 -96.5 -11.5t-57 -37.5t-26 -57.5t-6.5 -80.5
v-305h661v-84z" />
    <glyph glyph-name="Ecircumflex" unicode="&#xca;" horiz-adv-x="987" 
d="M492 1313h-109l109 125h63l115 -125h-115l-31 45zM866 557h-661v-285q0 -49 6.5 -80.5t26 -57t57 -37t96.5 -11.5h475v-86h-475q-86 0 -145 21t-89.5 60.5t-42.5 85t-12 105.5v674q0 61 12 106.5t42.5 85t89.5 60.5t145 21h477v-86h-477q-59 0 -96.5 -11.5t-57 -37.5
t-26 -57.5t-6.5 -80.5v-305h661v-84z" />
    <glyph glyph-name="Edieresis" unicode="&#xcb;" horiz-adv-x="987" 
d="M430 1313q-43 0 -60.5 30t0 59.5t60.5 29.5q31 0 49 -18.5t18 -41t-18 -41t-49 -18.5zM614 1313q-32 0 -50 18.5t-18 41t18 41t50 18.5q31 0 49 -18.5t18 -41t-18 -41t-49 -18.5zM866 557h-661v-285q0 -49 6.5 -80.5t26 -57t57 -37t96.5 -11.5h475v-86h-475
q-86 0 -145 21t-89.5 60.5t-42.5 85t-12 105.5v674q0 61 12 106.5t42.5 85t89.5 60.5t145 21h477v-86h-477q-59 0 -96.5 -11.5t-57 -37.5t-26 -57.5t-6.5 -80.5v-305h661v-84z" />
    <glyph glyph-name="Igrave" unicode="&#xcc;" horiz-adv-x="391" 
d="M313 1313h-108l-121 125h143zM246 0h-103v1219h103v-1219z" />
    <glyph glyph-name="Iacute" unicode="&#xcd;" horiz-adv-x="391" 
d="M190 1313h-108l86 125h145zM246 0h-103v1219h103v-1219z" />
    <glyph glyph-name="Icircumflex" unicode="&#xce;" horiz-adv-x="391" 
d="M164 1313h-111l109 125h63l115 -125h-115l-30 45zM246 0h-103v1219h103v-1219z" />
    <glyph glyph-name="Idieresis" unicode="&#xcf;" horiz-adv-x="391" 
d="M104 1311q-43 0 -60.5 30t0 59.5t60.5 29.5q31 0 49 -18.5t18 -41t-18 -41t-49 -18.5zM289 1311q-42 0 -59.5 30t-0.5 59.5t60 29.5q31 0 49 -18.5t18 -41t-18 -41t-49 -18.5zM246 0h-103v1217h103v-1217z" />
    <glyph glyph-name="Eth" unicode="&#xd0;" horiz-adv-x="1013" 
d="M479 0h-336v537h-69v86h69v596h336q83 0 149 -18.5t110.5 -48t77 -78t50 -96.5t28 -116t13 -124t2.5 -132q0 -72 -4 -130.5t-15.5 -123.5t-30.5 -114t-52 -95.5t-77 -76.5t-108 -48t-143 -18zM246 537v-451h233q51 0 93.5 11t73.5 28.5t55.5 47.5t40.5 58.5t27.5 70.5
t17.5 76t9.5 83t4 82t0.5 82q0 51 -0.5 81.5t-3.5 79t-9 78.5t-17 70.5t-27 66t-40.5 53.5t-56 43.5t-74 25.5t-94.5 10h-233v-510h307v-86h-307z" />
    <glyph glyph-name="Ntilde" unicode="&#xd1;" horiz-adv-x="1056" 
d="M303 1313v108q69 64 133 64q45 0 114 -40t103 -40q54 0 109 63v-108q-53 -45 -109 -45q-39 0 -105.5 37t-105.5 37q-63 0 -139 -76zM246 0h-103v1219h105l563 -1022v1022h102v-1219h-108l-559 1018v-1018z" />
    <glyph glyph-name="Ograve" unicode="&#xd2;" horiz-adv-x="1067" 
d="M649 1315h-110l-121 125h145zM532 0q-79 0 -143 18t-108 48t-77 76.5t-52 95.5t-30.5 114t-15.5 123.5t-4 130.5q0 76 2.5 132t13 124t28 116t50 96.5t77 78t110.5 48t149 18.5q65 0 119.5 -11t95.5 -30t74 -49.5t55 -63t38.5 -77t25.5 -85.5t14.5 -95t7 -99t1.5 -103
q0 -72 -4 -130.5t-15.5 -123t-30.5 -114t-52 -96t-77.5 -76.5t-108.5 -48t-143 -18zM532 86q65 0 116 18t84 45.5t57 73.5t36.5 87.5t19 103t8 104.5t1.5 107q0 51 -0.5 81.5t-3.5 79t-9 78.5t-17 70.5t-27 66t-40.5 53.5t-56 43.5t-74 25.5t-94.5 10q-66 0 -117.5 -17
t-85 -40.5t-57 -68t-35 -80.5t-18 -97.5t-7.5 -100t-1 -104.5q0 -64 1.5 -107t8 -105t19 -103t36 -87t57 -73.5t84 -45.5t115.5 -18z" />
    <glyph glyph-name="Oacute" unicode="&#xd3;" horiz-adv-x="1067" 
d="M547 1315h-109l86 125h146zM532 0q-79 0 -143 18t-108 48t-77 76.5t-52 95.5t-30.5 114t-15.5 123.5t-4 130.5q0 76 2.5 132t13 124t28 116t50 96.5t77 78t110.5 48t149 18.5q65 0 119.5 -11t95.5 -30t74 -49.5t55 -63t38.5 -77t25.5 -85.5t14.5 -95t7 -99t1.5 -103
q0 -72 -4 -130.5t-15.5 -123t-30.5 -114t-52 -96t-77.5 -76.5t-108.5 -48t-143 -18zM532 86q65 0 116 18t84 45.5t57 73.5t36.5 87.5t19 103t8 104.5t1.5 107q0 51 -0.5 81.5t-3.5 79t-9 78.5t-17 70.5t-27 66t-40.5 53.5t-56 43.5t-74 25.5t-94.5 10q-66 0 -117.5 -17
t-85 -40.5t-57 -68t-35 -80.5t-18 -97.5t-7.5 -100t-1 -104.5q0 -64 1.5 -107t8 -105t19 -103t36 -87t57 -73.5t84 -45.5t115.5 -18z" />
    <glyph glyph-name="Ocircumflex" unicode="&#xd4;" horiz-adv-x="1067" 
d="M504 1313h-111l109 125h63l115 -125h-113l-30 45zM532 0q-79 0 -143 18t-108 48t-77 76.5t-52 95.5t-30.5 114t-15.5 123.5t-4 130.5q0 76 2.5 132t13 124t28 116t50 96.5t77 78t110.5 48t149 18.5q65 0 119.5 -11t95.5 -30t74 -49.5t55 -63t38.5 -77t25.5 -85.5
t14.5 -95t7 -99t1.5 -103q0 -72 -4 -130.5t-15.5 -123t-30.5 -114t-52 -96t-77.5 -76.5t-108.5 -48t-143 -18zM532 86q65 0 116 18t84 45.5t57 73.5t36.5 87.5t19 103t8 104.5t1.5 107q0 51 -0.5 81.5t-3.5 79t-9 78.5t-17 70.5t-27 66t-40.5 53.5t-56 43.5t-74 25.5
t-94.5 10q-66 0 -117.5 -17t-85 -40.5t-57 -68t-35 -80.5t-18 -97.5t-7.5 -100t-1 -104.5q0 -64 1.5 -107t8 -105t19 -103t36 -87t57 -73.5t84 -45.5t115.5 -18z" />
    <glyph glyph-name="Otilde" unicode="&#xd5;" horiz-adv-x="1067" 
d="M301 1315v106q69 64 133 64q45 0 113.5 -40t101.5 -40q54 0 109 63v-108q-56 -45 -107 -45q-40 0 -107 37t-106 37q-63 0 -137 -74zM532 0q-79 0 -143 18t-108 48t-77 76.5t-52 95.5t-30.5 114t-15.5 123.5t-4 130.5q0 76 2.5 132t13 124t28 116t50 96.5t77 78t110.5 48
t149 18.5q65 0 119.5 -11t95.5 -30t74 -49.5t55 -63t38.5 -77t25.5 -85.5t14.5 -95t7 -99t1.5 -103q0 -72 -4 -130.5t-15.5 -123t-30.5 -114t-52 -96t-77.5 -76.5t-108.5 -48t-143 -18zM532 86q65 0 116 18t84 45.5t57 73.5t36.5 87.5t19 103t8 104.5t1.5 107
q0 51 -0.5 81.5t-3.5 79t-9 78.5t-17 70.5t-27 66t-40.5 53.5t-56 43.5t-74 25.5t-94.5 10q-66 0 -117.5 -17t-85 -40.5t-57 -68t-35 -80.5t-18 -97.5t-7.5 -100t-1 -104.5q0 -64 1.5 -107t8 -105t19 -103t36 -87t57 -73.5t84 -45.5t115.5 -18z" />
    <glyph glyph-name="Odieresis" unicode="&#xd6;" horiz-adv-x="1067" 
d="M442 1311q-33 0 -52 18.5t-18.5 41t19 41t51.5 18.5q31 0 49 -18.5t18 -41t-18 -41t-49 -18.5zM627 1311q-43 0 -60 30t0 59.5t60 29.5q31 0 49 -18.5t18 -41t-18 -41t-49 -18.5zM532 0q-79 0 -143 18t-108 48t-77 76.5t-52 95.5t-30.5 114t-15.5 123.5t-4 130.5
q0 76 2.5 132t13 124t28 116t50 96.5t77 78t110.5 48t149 18.5q65 0 119.5 -11t95.5 -30t74 -49.5t55 -63t38.5 -77t25.5 -85.5t14.5 -95t7 -99t1.5 -103q0 -72 -4 -130.5t-15.5 -123t-30.5 -114t-52 -96t-77.5 -76.5t-108.5 -48t-143 -18zM532 86q65 0 116 18t84 45.5
t57 73.5t36.5 87.5t19 103t8 104.5t1.5 107q0 51 -0.5 81.5t-3.5 79t-9 78.5t-17 70.5t-27 66t-40.5 53.5t-56 43.5t-74 25.5t-94.5 10q-66 0 -117.5 -17t-85 -40.5t-57 -68t-35 -80.5t-18 -97.5t-7.5 -100t-1 -104.5q0 -64 1.5 -107t8 -105t19 -103t36 -87t57 -73.5
t84 -45.5t115.5 -18z" />
    <glyph glyph-name="multiply" unicode="&#xd7;" horiz-adv-x="749" 
d="M375 516l-355 -287v125l279 221l-279 226v117l355 -283l352 283v-117l-278 -226l278 -221v-125z" />
    <glyph glyph-name="Oslash" unicode="&#xd8;" horiz-adv-x="1067" 
d="M532 0q-95 0 -174 29l-10 -29h-108l28 76q-67 52 -105.5 141t-49.5 178.5t-11 210.5q0 76 2.5 132t13 124t28 116t50 96.5t77 78t110.5 48t149 18.5q98 0 175 -25l8 25h110l-26 -72q54 -38 88.5 -95.5t50 -135t20.5 -145.5t5 -165q0 -72 -4 -130.5t-15.5 -123t-30.5 -114
t-52 -96t-77.5 -76.5t-108.5 -48t-143 -18zM307 178l365 930q-58 25 -140 25q-66 0 -117.5 -17t-85 -40.5t-57 -68t-35 -80.5t-18 -97.5t-7.5 -100t-1 -104.5q0 -76 2.5 -126t11 -116t29 -117t53.5 -88zM532 86q65 0 116 18t84 45.5t57 73.5t36.5 87.5t19 103t8 104.5
t1.5 107q0 61 -1 97t-6 91t-14.5 92t-27.5 76.5t-45 67.5l-367 -936q62 -27 139 -27z" />
    <glyph glyph-name="Ugrave" unicode="&#xd9;" horiz-adv-x="1034" 
d="M627 1313h-111l-121 125h146zM133 295v924h103v-924q0 -86 52.5 -147.5t153.5 -61.5h150q101 0 154 61.5t53 147.5v924h102v-924q0 -52 -18.5 -102.5t-54 -94.5t-97 -71t-139.5 -27h-150q-77 0 -138.5 27t-97.5 71t-54.5 94.5t-18.5 102.5z" />
    <glyph glyph-name="Uacute" unicode="&#xda;" horiz-adv-x="1034" 
d="M526 1311h-108l86 127h145zM133 295v924h103v-924q0 -86 52.5 -147.5t153.5 -61.5h150q101 0 154 61.5t53 147.5v924h102v-924q0 -52 -18.5 -102.5t-54 -94.5t-97 -71t-139.5 -27h-150q-77 0 -138.5 27t-97.5 71t-54.5 94.5t-18.5 102.5z" />
    <glyph glyph-name="Ucircumflex" unicode="&#xdb;" horiz-adv-x="1034" 
d="M489 1313h-110l108 125h64l115 -125h-115l-31 45zM133 295v924h103v-924q0 -86 52.5 -147.5t153.5 -61.5h150q101 0 154 61.5t53 147.5v924h102v-924q0 -52 -18.5 -102.5t-54 -94.5t-97 -71t-139.5 -27h-150q-77 0 -138.5 27t-97.5 71t-54.5 94.5t-18.5 102.5z" />
    <glyph glyph-name="Udieresis" unicode="&#xdc;" horiz-adv-x="1034" 
d="M426 1313q-33 0 -52 18.5t-18.5 41t19 41t51.5 18.5q31 0 49 -18.5t18 -41t-18 -41t-49 -18.5zM610 1313q-32 0 -50 18.5t-18 41t18 41t50 18.5q31 0 49 -18.5t18 -41t-18 -41t-49 -18.5zM133 295v924h103v-924q0 -86 52.5 -147.5t153.5 -61.5h150q101 0 154 61.5
t53 147.5v924h102v-924q0 -52 -18.5 -102.5t-54 -94.5t-97 -71t-139.5 -27h-150q-77 0 -138.5 27t-97.5 71t-54.5 94.5t-18.5 102.5z" />
    <glyph glyph-name="Yacute" unicode="&#xdd;" horiz-adv-x="946" 
d="M467 1313h-109l86 125h146zM524 6h-102v592l-399 621h116l336 -519l336 519h115l-404 -625z" />
    <glyph glyph-name="Thorn" unicode="&#xde;" horiz-adv-x="1003" 
d="M225 0h-102v1219h102v-193q71 40 170 43h76q408 0 408 -446q0 -63 -9.5 -119.5t-37 -115.5t-71 -101.5t-117 -69.5t-169.5 -27h-250v-190zM225 799v-523h248q297 0 297 361q1 59 -5.5 106t-26 93.5t-51.5 77.5t-86.5 50t-127.5 19h-63q-59 0 -96.5 -11.5t-56.5 -36.5
t-25.5 -56t-6.5 -80z" />
    <glyph glyph-name="germandbls" unicode="&#xdf;" horiz-adv-x="1042" 
d="M221 0h-102v983q0 118 50 176.5t167 59.5h282q147 0 218 -63.5t71 -199.5v-120q0 -166 -98 -226q100 -63 100 -229l-2 -109q0 -60 -12 -105t-42 -85t-89 -61t-146 -21h-288v86h288q59 0 96.5 11.5t57 37t26.5 57t7 80.5v109q0 98 -37 141t-150 43h-149v86h149
q59 0 96.5 11.5t57 37t26.5 57.5t7 81v108q0 49 -7 81t-26.5 57.5t-57 37t-96.5 11.5h-280q-40 0 -65 -10.5t-35.5 -34t-13.5 -46.5t-3 -63v-979z" />
    <glyph glyph-name="agrave" unicode="&#xe0;" 
d="M559 985h-110l-123 125h145zM229 608h-102q0 60 12 105.5t42.5 85.5t89.5 61t145 21h100q87 0 146 -21t89 -61t42 -85.5t12 -105.5v-338q0 -59 -12 -104t-42 -84.5t-89 -60.5t-146 -21h-149q-59 0 -106.5 16t-77 41.5t-49.5 60.5t-28 70t-8 72q0 48 15.5 95t47 90
t88.5 69.5t132 26.5h321v67q0 50 -6.5 81t-25.5 57t-56.5 37.5t-97.5 11.5h-100q-59 0 -96.5 -11.5t-57 -37t-26.5 -57.5t-7 -81zM702 270v189h-321q-85 0 -132.5 -60.5t-47.5 -142.5q0 -75 41 -122.5t127 -47.5h147q60 0 97.5 11.5t56.5 37t25.5 56t6.5 79.5z" />
    <glyph glyph-name="aacute" unicode="&#xe1;" 
d="M485 985h-108l86 125h145zM229 608h-102q0 60 12 105.5t42.5 85.5t89.5 61t145 21h100q87 0 146 -21t89 -61t42 -85.5t12 -105.5v-338q0 -59 -12 -104t-42 -84.5t-89 -60.5t-146 -21h-149q-59 0 -106.5 16t-77 41.5t-49.5 60.5t-28 70t-8 72q0 48 15.5 95t47 90
t88.5 69.5t132 26.5h321v67q0 50 -6.5 81t-25.5 57t-56.5 37.5t-97.5 11.5h-100q-59 0 -96.5 -11.5t-57 -37t-26.5 -57.5t-7 -81zM702 270v189h-321q-85 0 -132.5 -60.5t-47.5 -142.5q0 -75 41 -122.5t127 -47.5h147q60 0 97.5 11.5t56.5 37t25.5 56t6.5 79.5z" />
    <glyph glyph-name="acircumflex" unicode="&#xe2;" 
d="M442 985h-112l110 125h64l119 -125h-117l-31 45zM229 608h-102q0 60 12 105.5t42.5 85.5t89.5 61t145 21h100q87 0 146 -21t89 -61t42 -85.5t12 -105.5v-338q0 -59 -12 -104t-42 -84.5t-89 -60.5t-146 -21h-149q-59 0 -106.5 16t-77 41.5t-49.5 60.5t-28 70t-8 72
q0 48 15.5 95t47 90t88.5 69.5t132 26.5h321v67q0 50 -6.5 81t-25.5 57t-56.5 37.5t-97.5 11.5h-100q-59 0 -96.5 -11.5t-57 -37t-26.5 -57.5t-7 -81zM702 270v189h-321q-85 0 -132.5 -60.5t-47.5 -142.5q0 -75 41 -122.5t127 -47.5h147q60 0 97.5 11.5t56.5 37t25.5 56
t6.5 79.5z" />
    <glyph glyph-name="atilde" unicode="&#xe3;" 
d="M221 975v106q69 64 133 64q45 0 114 -40t103 -40q54 0 109 63v-108q-56 -45 -107 -45q-40 0 -108 37t-107 37q-63 0 -137 -74zM229 608h-102q0 60 12 105.5t42.5 85.5t89.5 61t145 21h100q87 0 146 -21t89 -61t42 -85.5t12 -105.5v-338q0 -59 -12 -104t-42 -84.5
t-89 -60.5t-146 -21h-149q-59 0 -106.5 16t-77 41.5t-49.5 60.5t-28 70t-8 72q0 48 15.5 95t47 90t88.5 69.5t132 26.5h321v67q0 50 -6.5 81t-25.5 57t-56.5 37.5t-97.5 11.5h-100q-59 0 -96.5 -11.5t-57 -37t-26.5 -57.5t-7 -81zM702 270v189h-321q-85 0 -132.5 -60.5
t-47.5 -142.5q0 -75 41 -122.5t127 -47.5h147q60 0 97.5 11.5t56.5 37t25.5 56t6.5 79.5z" />
    <glyph glyph-name="adieresis" unicode="&#xe4;" 
d="M379 985q-44 0 -62 29.5t0 59.5t62 30q30 0 47.5 -18.5t17.5 -41t-17.5 -41t-47.5 -18.5zM563 985q-43 0 -60 29.5t0 59.5t60 30q31 0 49 -18.5t18 -41t-18 -41t-49 -18.5zM229 608h-102q0 60 12 105.5t42.5 85.5t89.5 61t145 21h100q87 0 146 -21t89 -61t42 -85.5
t12 -105.5v-338q0 -59 -12 -104t-42 -84.5t-89 -60.5t-146 -21h-149q-59 0 -106.5 16t-77 41.5t-49.5 60.5t-28 70t-8 72q0 48 15.5 95t47 90t88.5 69.5t132 26.5h321v67q0 50 -6.5 81t-25.5 57t-56.5 37.5t-97.5 11.5h-100q-59 0 -96.5 -11.5t-57 -37t-26.5 -57.5t-7 -81z
M702 270v189h-321q-85 0 -132.5 -60.5t-47.5 -142.5q0 -75 41 -122.5t127 -47.5h147q60 0 97.5 11.5t56.5 37t25.5 56t6.5 79.5z" />
    <glyph glyph-name="aring" unicode="&#xe5;" 
d="M471 985q-37 0 -66 14t-43.5 36.5t-21.5 49.5t0.5 54t22.5 49.5t44 36.5t66 14q38 0 68 -14t45.5 -36.5t23 -49.5t0 -54t-23.5 -49.5t-46 -36.5t-69 -14zM475 1061q33 0 46.5 26t0.5 52t-45 26q-33 0 -47 -26t-1 -52t46 -26zM229 608h-102q0 60 12 105.5t42.5 85.5
t89.5 61t145 21h100q87 0 146 -21t89 -61t42 -85.5t12 -105.5v-338q0 -59 -12 -104t-42 -84.5t-89 -60.5t-146 -21h-149q-59 0 -106.5 16t-77 41.5t-49.5 60.5t-28 70t-8 72q0 48 15.5 95t47 90t88.5 69.5t132 26.5h321v67q0 50 -6.5 81t-25.5 57t-56.5 37.5t-97.5 11.5
h-100q-59 0 -96.5 -11.5t-57 -37t-26.5 -57.5t-7 -81zM702 270v189h-321q-85 0 -132.5 -60.5t-47.5 -142.5q0 -75 41 -122.5t127 -47.5h147q60 0 97.5 11.5t56.5 37t25.5 56t6.5 79.5z" />
    <glyph glyph-name="ae" unicode="&#xe6;" horiz-adv-x="1509" 
d="M229 608h-102q0 60 12 105.5t42.5 85.5t89.5 61t145 21h100q176 0 238 -88q63 88 233 88h209q55 0 95 -12.5t62.5 -31.5t35.5 -48t16.5 -55t3.5 -60q0 -35 -4 -62t-17 -57t-36 -50t-63.5 -33t-96.5 -13h-385v-183q0 -106 38.5 -148t141.5 -42h133q113 0 150 43t37 141
h102q0 -59 -12 -104t-42 -84.5t-89 -60.5t-146 -21h-133q-166 0 -231 90q-66 -90 -240 -90h-149q-59 0 -106.5 16t-77 41.5t-49.5 60.5t-28 70t-8 72q0 48 15.5 95t47 90t88.5 69.5t132 26.5h321v67q0 50 -6.5 81t-25.5 57t-56.5 37.5t-97.5 11.5h-100q-59 0 -96.5 -11.5
t-57 -37t-26.5 -57.5t-7 -81zM807 606v-65h385q71 0 93 31.5t22 101.5q0 66 -20.5 93.5t-90.5 27.5h-209q-103 0 -141.5 -41t-38.5 -148zM702 270v189h-321q-85 0 -132.5 -60.5t-47.5 -142.5q0 -75 41 -122.5t127 -47.5h147q60 0 97.5 11.5t56.5 37t25.5 56t6.5 79.5z" />
    <glyph glyph-name="ccedilla" unicode="&#xe7;" horiz-adv-x="770" 
d="M688 86v-86h-119l-39 -70q63 1 98.5 -24.5t33.5 -69.5q0 -24 -11 -43.5t-25 -31.5t-40 -20.5t-44 -13t-50 -6.5t-46 -2h-43h-14v66q178 0 180 57q2 50 -141 39l64 119h-21q-99 0 -172.5 27.5t-114 69t-65 102.5t-31.5 116t-6 121q0 45 3.5 83t14 85t27 84.5t46.5 75
t69 62t97.5 40t129.5 15.5h219v-86h-219q-69 0 -120 -21.5t-81 -55t-48.5 -85t-24.5 -101t-7 -112.5q-1 -58 4.5 -102.5t23 -90t47.5 -75t82.5 -48t123.5 -18.5h219z" />
    <glyph glyph-name="egrave" unicode="&#xe8;" 
d="M557 985h-108l-121 125h143zM569 459h-385v-183q0 -106 39 -148t142 -42h133q113 0 149.5 43t36.5 141h102q0 -60 -12 -104.5t-41.5 -84t-88.5 -60.5t-146 -21h-133q-82 0 -139.5 21t-87.5 60t-43 86t-13 109v330q0 133 62 204t221 71h208q55 0 95 -12.5t62.5 -31.5
t35.5 -48t16.5 -55t3.5 -60q0 -35 -4 -62t-17 -57t-36 -50t-63.5 -33t-96.5 -13zM184 606v-65h385q71 0 93 31.5t22 101.5q0 66 -20.5 93.5t-90.5 27.5h-208q-103 0 -142 -41t-39 -148z" />
    <glyph glyph-name="eacute" unicode="&#xe9;" 
d="M446 983h-108l86 127h145zM569 459h-385v-183q0 -106 39 -148t142 -42h133q113 0 149.5 43t36.5 141h102q0 -60 -12 -104.5t-41.5 -84t-88.5 -60.5t-146 -21h-133q-82 0 -139.5 21t-87.5 60t-43 86t-13 109v330q0 133 62 204t221 71h208q55 0 95 -12.5t62.5 -31.5
t35.5 -48t16.5 -55t3.5 -60q0 -35 -4 -62t-17 -57t-36 -50t-63.5 -33t-96.5 -13zM184 606v-65h385q71 0 93 31.5t22 101.5q0 66 -20.5 93.5t-90.5 27.5h-208q-103 0 -142 -41t-39 -148z" />
    <glyph glyph-name="ecircumflex" unicode="&#xea;" 
d="M424 985h-111l109 125h63l115 -125h-115l-30 45zM569 459h-385v-183q0 -106 39 -148t142 -42h133q113 0 149.5 43t36.5 141h102q0 -60 -12 -104.5t-41.5 -84t-88.5 -60.5t-146 -21h-133q-82 0 -139.5 21t-87.5 60t-43 86t-13 109v330q0 133 62 204t221 71h208
q55 0 95 -12.5t62.5 -31.5t35.5 -48t16.5 -55t3.5 -60q0 -35 -4 -62t-17 -57t-36 -50t-63.5 -33t-96.5 -13zM184 606v-65h385q71 0 93 31.5t22 101.5q0 66 -20.5 93.5t-90.5 27.5h-208q-103 0 -142 -41t-39 -148z" />
    <glyph glyph-name="edieresis" unicode="&#xeb;" 
d="M356 985q-43 0 -60.5 29.5t0 59.5t60.5 30q31 0 49 -18.5t18 -41t-18 -41t-49 -18.5zM541 985q-43 0 -60 29.5t0 59.5t60 30q31 0 49 -18.5t18 -41t-18 -41t-49 -18.5zM569 459h-385v-183q0 -106 39 -148t142 -42h133q113 0 149.5 43t36.5 141h102q0 -60 -12 -104.5
t-41.5 -84t-88.5 -60.5t-146 -21h-133q-82 0 -139.5 21t-87.5 60t-43 86t-13 109v330q0 133 62 204t221 71h208q55 0 95 -12.5t62.5 -31.5t35.5 -48t16.5 -55t3.5 -60q0 -35 -4 -62t-17 -57t-36 -50t-63.5 -33t-96.5 -13zM184 606v-65h385q71 0 93 31.5t22 101.5
q0 66 -20.5 93.5t-90.5 27.5h-208q-103 0 -142 -41t-39 -148z" />
    <glyph glyph-name="igrave" unicode="&#xec;" horiz-adv-x="380" 
d="M305 985h-108l-121 125h143zM244 0h-103v881h103v-881z" />
    <glyph glyph-name="iacute" unicode="&#xed;" horiz-adv-x="380" 
d="M182 985h-106l86 125h143zM244 0h-103v881h103v-881z" />
    <glyph glyph-name="icircumflex" unicode="&#xee;" horiz-adv-x="380" 
d="M160 985h-109l109 125h63l113 -125h-113l-30 45zM244 0h-103v881h103v-881z" />
    <glyph glyph-name="idieresis" unicode="&#xef;" horiz-adv-x="380" 
d="M100 983q-43 0 -60.5 29.5t0 59.5t60.5 30q31 0 49 -18.5t18 -41t-18 -41t-49 -18.5zM285 983q-43 0 -60 29.5t0 59.5t60 30q31 0 49 -18.5t18 -41t-18 -41t-49 -18.5zM244 0h-103v881h103v-881z" />
    <glyph glyph-name="eth" unicode="&#xf0;" horiz-adv-x="995" 
d="M530 860h-124l174 211q-65 27 -158 27h-80v86h84q131 0 215 -41l61 74h125l-102 -123q44 -36 73 -88t42.5 -116.5t18 -119.5t5.5 -127v-86q0 -62 -3.5 -114.5t-13.5 -111t-26.5 -105t-45 -90t-67 -72.5t-93.5 -46.5t-123 -17.5h-95q-75 0 -132 32.5t-86.5 83.5
t-43.5 102.5t-14 100.5t14.5 101t44.5 103.5t88 84.5t135 33h355q0 5 -2 55.5t-3.5 63t-5 55t-9.5 61.5t-16 50.5t-24.5 53t-33.5 40.5zM758 557h-355q-57 0 -98.5 -38.5t-59.5 -92t-18 -111.5q0 -55 17.5 -105.5t58 -87t96.5 -36.5h93q51 0 91.5 16.5t67 41t46.5 66
t30.5 78t17.5 90t9 90t4 89.5z" />
    <glyph glyph-name="ntilde" unicode="&#xf1;" horiz-adv-x="913" 
d="M217 985v109q68 63 133 63q45 0 115 -40t104 -40q53 0 109 64v-109q-53 -45 -109 -45q-39 0 -106.5 37t-106.5 37q-63 0 -139 -76zM205 0h-103v610q0 60 12 105t42.5 84.5t89.5 60.5t145 21h129q72 0 124 -13t83.5 -35t50 -58t25 -74.5t6.5 -90.5v-610h-102v610
q0 50 -5.5 80t-24 56.5t-57 37.5t-100.5 11h-127q-113 0 -150.5 -43.5t-37.5 -141.5v-610z" />
    <glyph glyph-name="ograve" unicode="&#xf2;" horiz-adv-x="915" 
d="M575 985h-110l-121 125h143zM506 6h-96q-65 0 -115.5 11.5t-85 30t-58.5 51t-37.5 64.5t-20.5 81.5t-9 90.5t-2 103q0 58 2 100t9.5 92t21.5 84.5t38 69.5t58.5 56t84.5 34t114 13h96q64 0 114 -13t84.5 -34t58.5 -55.5t38 -69t21.5 -84.5t9.5 -91.5t2 -99.5
q0 -48 -1 -81t-4.5 -74t-10.5 -69t-18.5 -59.5t-28.5 -52t-41.5 -41t-56.5 -32t-74 -18.5t-93 -7zM410 92h96q37 0 67.5 5.5t52.5 16t39.5 25t28 32.5t18.5 39.5t11.5 45.5t5.5 49.5t2 52.5v55v29v4q0 67 -1.5 102.5t-13 92t-34 85.5t-67 52t-109.5 23h-96q-37 0 -67 -7.5
t-52 -18t-39.5 -31t-28.5 -38t-19 -47t-11.5 -50t-5.5 -55.5t-2.5 -55t-0.5 -57q0 -139 5 -176q16 -117 101 -153q48 -21 120 -21z" />
    <glyph glyph-name="oacute" unicode="&#xf3;" horiz-adv-x="915" 
d="M457 985h-109l86 125h146zM506 6h-96q-65 0 -115.5 11.5t-85 30t-58.5 51t-37.5 64.5t-20.5 81.5t-9 90.5t-2 103q0 58 2 100t9.5 92t21.5 84.5t38 69.5t58.5 56t84.5 34t114 13h96q64 0 114 -13t84.5 -34t58.5 -55.5t38 -69t21.5 -84.5t9.5 -91.5t2 -99.5q0 -48 -1 -81
t-4.5 -74t-10.5 -69t-18.5 -59.5t-28.5 -52t-41.5 -41t-56.5 -32t-74 -18.5t-93 -7zM410 92h96q37 0 67.5 5.5t52.5 16t39.5 25t28 32.5t18.5 39.5t11.5 45.5t5.5 49.5t2 52.5v55v29v4q0 67 -1.5 102.5t-13 92t-34 85.5t-67 52t-109.5 23h-96q-37 0 -67 -7.5t-52 -18
t-39.5 -31t-28.5 -38t-19 -47t-11.5 -50t-5.5 -55.5t-2.5 -55t-0.5 -57q0 -139 5 -176q16 -117 101 -153q48 -21 120 -21z" />
    <glyph glyph-name="ocircumflex" unicode="&#xf4;" horiz-adv-x="915" 
d="M422 985h-111l109 125h63l115 -125h-113l-30 45zM506 6h-96q-65 0 -115.5 11.5t-85 30t-58.5 51t-37.5 64.5t-20.5 81.5t-9 90.5t-2 103q0 58 2 100t9.5 92t21.5 84.5t38 69.5t58.5 56t84.5 34t114 13h96q64 0 114 -13t84.5 -34t58.5 -55.5t38 -69t21.5 -84.5t9.5 -91.5
t2 -99.5q0 -48 -1 -81t-4.5 -74t-10.5 -69t-18.5 -59.5t-28.5 -52t-41.5 -41t-56.5 -32t-74 -18.5t-93 -7zM410 92h96q37 0 67.5 5.5t52.5 16t39.5 25t28 32.5t18.5 39.5t11.5 45.5t5.5 49.5t2 52.5v55v29v4q0 67 -1.5 102.5t-13 92t-34 85.5t-67 52t-109.5 23h-96
q-37 0 -67 -7.5t-52 -18t-39.5 -31t-28.5 -38t-19 -47t-11.5 -50t-5.5 -55.5t-2.5 -55t-0.5 -57q0 -139 5 -176q16 -117 101 -153q48 -21 120 -21z" />
    <glyph glyph-name="otilde" unicode="&#xf5;" horiz-adv-x="915" 
d="M225 985v107q68 63 133 63q45 0 114 -40t103 -40q53 0 109 64v-109q-56 -45 -106 -45q-40 0 -108 37t-108 37q-63 0 -137 -74zM506 6h-96q-65 0 -115.5 11.5t-85 30t-58.5 51t-37.5 64.5t-20.5 81.5t-9 90.5t-2 103q0 58 2 100t9.5 92t21.5 84.5t38 69.5t58.5 56t84.5 34
t114 13h96q64 0 114 -13t84.5 -34t58.5 -55.5t38 -69t21.5 -84.5t9.5 -91.5t2 -99.5q0 -48 -1 -81t-4.5 -74t-10.5 -69t-18.5 -59.5t-28.5 -52t-41.5 -41t-56.5 -32t-74 -18.5t-93 -7zM410 92h96q37 0 67.5 5.5t52.5 16t39.5 25t28 32.5t18.5 39.5t11.5 45.5t5.5 49.5
t2 52.5v55v29v4q0 67 -1.5 102.5t-13 92t-34 85.5t-67 52t-109.5 23h-96q-37 0 -67 -7.5t-52 -18t-39.5 -31t-28.5 -38t-19 -47t-11.5 -50t-5.5 -55.5t-2.5 -55t-0.5 -57q0 -139 5 -176q16 -117 101 -153q48 -21 120 -21z" />
    <glyph glyph-name="odieresis" unicode="&#xf6;" horiz-adv-x="915" 
d="M367 983q-44 0 -62 29.5t0 59.5t62 30q31 0 49 -18.5t18 -41t-18 -41t-49 -18.5zM551 983q-43 0 -60 29.5t0 59.5t60 30q31 0 49 -18.5t18 -41t-18 -41t-49 -18.5zM506 6h-96q-65 0 -115.5 11.5t-85 30t-58.5 51t-37.5 64.5t-20.5 81.5t-9 90.5t-2 103q0 58 2 100t9.5 92
t21.5 84.5t38 69.5t58.5 56t84.5 34t114 13h96q64 0 114 -13t84.5 -34t58.5 -55.5t38 -69t21.5 -84.5t9.5 -91.5t2 -99.5q0 -48 -1 -81t-4.5 -74t-10.5 -69t-18.5 -59.5t-28.5 -52t-41.5 -41t-56.5 -32t-74 -18.5t-93 -7zM410 92h96q37 0 67.5 5.5t52.5 16t39.5 25t28 32.5
t18.5 39.5t11.5 45.5t5.5 49.5t2 52.5v55v29v4q0 67 -1.5 102.5t-13 92t-34 85.5t-67 52t-109.5 23h-96q-37 0 -67 -7.5t-52 -18t-39.5 -31t-28.5 -38t-19 -47t-11.5 -50t-5.5 -55.5t-2.5 -55t-0.5 -57q0 -139 5 -176q16 -117 101 -153q48 -21 120 -21z" />
    <glyph glyph-name="divide" unicode="&#xf7;" horiz-adv-x="753" 
d="M352 862q29 0 41 -20.5t0 -41t-41 -20.5q-31 0 -44 20.5t0 41t44 20.5zM731 565h-711v86h711v-86zM352 430q29 0 41 -20t0 -40t-41 -20q-31 0 -44 20t0 40t44 20z" />
    <glyph glyph-name="oslash" unicode="&#xf8;" horiz-adv-x="915" 
d="M506 6h-96q-43 0 -105 8l-18 -47h-109l31 82q-35 20 -59 51t-37 63.5t-20.5 82t-9 90t-1.5 102.5q0 58 2 100t9.5 92t21.5 84.5t38 69.5t58.5 56t84.5 34t114 13h96h33l24 65h111l-33 -84q52 -17 88.5 -49t56.5 -69.5t31 -93t14 -102.5t3 -114q0 -48 -1 -81t-4.5 -74
t-10.5 -69t-18.5 -59.5t-28.5 -52t-41.5 -41t-56.5 -32t-74 -18.5t-93 -7zM248 141l256 660h-94q-37 0 -67 -7.5t-52 -18t-39.5 -31t-28.5 -38t-19 -47t-11.5 -50t-5.5 -55.5t-2.5 -55t-0.5 -57v-39.5v-40.5t0.5 -37t2.5 -38t5 -33.5t7.5 -34t11 -28.5t16 -28t21.5 -22z
M410 92h96q37 0 67.5 5.5t52.5 16t39.5 25t28 32.5t18.5 39.5t11.5 45.5t5.5 49.5t2 52.5v55v29v52.5t-1.5 50.5t-4.5 52.5t-8.5 46.5t-15 46t-22.5 37t-31.5 33t-41.5 22l-268 -684q30 -6 72 -6z" />
    <glyph glyph-name="ugrave" unicode="&#xf9;" horiz-adv-x="911" 
d="M565 985h-110l-123 125h145zM102 274v609h103v-609q0 -99 37.5 -142.5t150.5 -43.5h127q62 0 100.5 11t57 37.5t24 56.5t5.5 81v609h102v-609q0 -62 -12 -108t-42.5 -85t-89.5 -59t-145 -20h-129q-86 0 -145 21t-89.5 60.5t-42.5 85t-12 105.5z" />
    <glyph glyph-name="uacute" unicode="&#xfa;" horiz-adv-x="911" 
d="M479 985h-108l86 125h145zM102 274v609h103v-609q0 -99 37.5 -142.5t150.5 -43.5h127q62 0 100.5 11t57 37.5t24 56.5t5.5 81v609h102v-609q0 -62 -12 -108t-42.5 -85t-89.5 -59t-145 -20h-129q-86 0 -145 21t-89.5 60.5t-42.5 85t-12 105.5z" />
    <glyph glyph-name="ucircumflex" unicode="&#xfb;" horiz-adv-x="911" 
d="M424 985h-109l107 125h65l115 -125h-115l-30 45zM102 274v609h103v-609q0 -99 37.5 -142.5t150.5 -43.5h127q62 0 100.5 11t57 37.5t24 56.5t5.5 81v609h102v-609q0 -62 -12 -108t-42.5 -85t-89.5 -59t-145 -20h-129q-86 0 -145 21t-89.5 60.5t-42.5 85t-12 105.5z" />
    <glyph glyph-name="udieresis" unicode="&#xfc;" horiz-adv-x="911" 
d="M375 985q-43 0 -61 29.5t0 59.5t61 30q31 0 49 -18.5t18 -41t-18 -41t-49 -18.5zM559 985q-43 0 -60 29.5t0 59.5t60 30q31 0 49 -18.5t18 -41t-18 -41t-49 -18.5zM102 274v609h103v-609q0 -99 37.5 -142.5t150.5 -43.5h127q62 0 100.5 11t57 37.5t24 56.5t5.5 81v609
h102v-609q0 -62 -12 -108t-42.5 -85t-89.5 -59t-145 -20h-129q-86 0 -145 21t-89.5 60.5t-42.5 85t-12 105.5z" />
    <glyph glyph-name="yacute" unicode="&#xfd;" horiz-adv-x="933" 
d="M473 985h-108l86 125h145zM102 -66h103q0 -49 6.5 -80.5t26 -57t57 -37t96.5 -11.5h94q116 0 169 42.5t53 129.5v125q-64 -43 -187 -43h-129q-86 0 -145 21t-89.5 60.5t-42.5 85t-12 105.5v609h103v-609q0 -99 37.5 -142.5t150.5 -43.5h127q62 0 100.5 11t57 37.5
t24 56.5t5.5 81v609h102v-961q0 -126 -80 -193t-242 -67h-96q-86 0 -145 20.5t-89.5 60t-42.5 85t-12 106.5z" />
    <glyph glyph-name="thorn" unicode="&#xfe;" horiz-adv-x="1001" 
d="M225 -336h-102v1555h102v-381q66 42 170 45h76q408 0 408 -449q0 -63 -9.5 -119.5t-37 -115.5t-71 -101t-117 -69t-169.5 -27h-250v-338zM225 610v-522h248q297 0 297 363q1 59 -5.5 106t-26 93.5t-51.5 77.5t-86.5 50t-127.5 19h-63q-113 0 -149 -43.5t-36 -143.5z" />
    <glyph glyph-name="ydieresis" unicode="&#xff;" horiz-adv-x="933" 
d="M377 985q-44 0 -62 29.5t0 59.5t62 30q30 0 47.5 -18.5t17.5 -41t-17.5 -41t-47.5 -18.5zM561 985q-43 0 -60 29.5t0 59.5t60 30q31 0 49 -18.5t18 -41t-18 -41t-49 -18.5zM102 -66h103q0 -49 6.5 -80.5t26 -57t57 -37t96.5 -11.5h94q116 0 169 42.5t53 129.5v125
q-64 -43 -187 -43h-129q-86 0 -145 21t-89.5 60.5t-42.5 85t-12 105.5v609h103v-609q0 -99 37.5 -142.5t150.5 -43.5h127q62 0 100.5 11t57 37.5t24 56.5t5.5 81v609h102v-961q0 -126 -80 -193t-242 -67h-96q-86 0 -145 20.5t-89.5 60t-42.5 85t-12 106.5z" />
    <glyph glyph-name="Amacron" unicode="&#x100;" horiz-adv-x="1060" 
d="M850 1313h-541v86h541v-86zM610 0h-567l487 1217h107l383 -1217h-107l-335 1063l-392 -977h424v-86z" />
    <glyph glyph-name="amacron" unicode="&#x101;" 
d="M739 985h-542v86h542v-86zM229 608h-102q0 60 12 105.5t42.5 85.5t89.5 61t145 21h100q87 0 146 -21t89 -61t42 -85.5t12 -105.5v-338q0 -59 -12 -104t-42 -84.5t-89 -60.5t-146 -21h-149q-59 0 -106.5 16t-77 41.5t-49.5 60.5t-28 70t-8 72q0 48 15.5 95t47 90
t88.5 69.5t132 26.5h321v67q0 50 -6.5 81t-25.5 57t-56.5 37.5t-97.5 11.5h-100q-59 0 -96.5 -11.5t-57 -37t-26.5 -57.5t-7 -81zM702 270v189h-321q-85 0 -132.5 -60.5t-47.5 -142.5q0 -75 41 -122.5t127 -47.5h147q60 0 97.5 11.5t56.5 37t25.5 56t6.5 79.5z" />
    <glyph glyph-name="Abreve" unicode="&#x102;" horiz-adv-x="1060" 
d="M401 1442h74q2 -19 3.5 -26t8 -18t19.5 -14.5t35 -3.5h84q26 0 40 10t17 21t4 31h74q-5 -65 -31.5 -97t-103.5 -32h-84q-76 0 -106.5 30.5t-33.5 98.5zM610 0h-567l487 1217h107l383 -1217h-107l-335 1063l-392 -977h424v-86z" />
    <glyph glyph-name="abreve" unicode="&#x103;" 
d="M283 1114h73q2 -19 3.5 -26t8 -17.5t20 -14t36.5 -3.5h84q26 0 40 10t17 20.5t4 30.5h74q-5 -65 -31.5 -97t-103.5 -32h-84q-78 0 -107 30t-34 99zM229 608h-102q0 60 12 105.5t42.5 85.5t89.5 61t145 21h100q87 0 146 -21t89 -61t42 -85.5t12 -105.5v-338
q0 -59 -12 -104t-42 -84.5t-89 -60.5t-146 -21h-149q-59 0 -106.5 16t-77 41.5t-49.5 60.5t-28 70t-8 72q0 48 15.5 95t47 90t88.5 69.5t132 26.5h321v67q0 50 -6.5 81t-25.5 57t-56.5 37.5t-97.5 11.5h-100q-59 0 -96.5 -11.5t-57 -37t-26.5 -57.5t-7 -81zM702 270v189
h-321q-85 0 -132.5 -60.5t-47.5 -142.5q0 -75 41 -122.5t127 -47.5h147q60 0 97.5 11.5t56.5 37t25.5 56t6.5 79.5z" />
    <glyph glyph-name="Aogonek" unicode="&#x104;" horiz-adv-x="1060" 
d="M610 0h-567l487 1217h107l383 -1217q-56 -35 -85.5 -80t-21.5 -72q6 -20 33 -20q20 0 44 13t42 32v-94q-56 -47 -110 -47q-65 0 -95 61q-24 60 -0.5 115t82.5 104l-331 1051l-392 -977h424v-86z" />
    <glyph glyph-name="aogonek" unicode="&#x105;" 
d="M229 608h-102q0 60 12 105.5t42.5 85.5t89.5 61t145 21h100q87 0 146 -21t89 -61t42 -85.5t12 -105.5v-338q0 -171 -107 -231q-54 -35 -82 -79t-20 -71q6 -20 33 -20q20 0 44 13t42 32v-94q-53 -45 -109 -45q-67 0 -96 59q-38 74 31 168q-8 -2 -25 -2h-149
q-59 0 -106.5 16t-77 41.5t-49.5 60.5t-28 70t-8 72q0 48 15.5 95t47 90t88.5 69.5t132 26.5h321v67q0 50 -6.5 81t-25.5 57t-56.5 37.5t-97.5 11.5h-100q-59 0 -96.5 -11.5t-57 -37t-26.5 -57.5t-7 -81zM702 270v189h-321q-85 0 -132.5 -60.5t-47.5 -142.5q0 -75 41 -122.5
t127 -47.5h147q60 0 97.5 11.5t56.5 37t25.5 56t6.5 79.5z" />
    <glyph glyph-name="Cacute" unicode="&#x106;" horiz-adv-x="976" 
d="M567 1313h-108l86 127h145zM874 86v-86h-342q-83 0 -149 18t-111 46.5t-77 75.5t-49.5 93.5t-27.5 113t-13 122t-3 131.5q0 72 4 131.5t15.5 125t30.5 116.5t52 98.5t77 79t108 50t143 18.5h342v-86h-342q-65 0 -115.5 -18t-84 -45t-57 -73t-36 -86.5t-19 -102.5t-8 -104
t-1.5 -106q0 -50 0.5 -81.5t3.5 -79.5t9 -79t17 -71.5t27 -66.5t40.5 -54t56 -43.5t74 -26t93.5 -10.5h342z" />
    <glyph glyph-name="cacute" unicode="&#x107;" horiz-adv-x="770" 
d="M485 985h-106l86 125h143zM688 86v-86h-217q-99 0 -172.5 27.5t-114 69t-65 102.5t-31.5 116t-6 121q0 45 3.5 83t14 85t27 84.5t46.5 75t69 62t97.5 40t129.5 15.5h219v-86h-219q-69 0 -120 -21.5t-81 -55t-48.5 -85t-24.5 -101t-7 -112.5q-1 -58 4.5 -102.5t23 -90
t47.5 -75t82.5 -48t123.5 -18.5h219z" />
    <glyph glyph-name="Ccircumflex" unicode="&#x108;" horiz-adv-x="976" 
d="M522 1313h-108l108 125h64l114 -125h-114l-31 45zM874 86v-86h-342q-83 0 -149 18t-111 46.5t-77 75.5t-49.5 93.5t-27.5 113t-13 122t-3 131.5q0 72 4 131.5t15.5 125t30.5 116.5t52 98.5t77 79t108 50t143 18.5h342v-86h-342q-65 0 -115.5 -18t-84 -45t-57 -73
t-36 -86.5t-19 -102.5t-8 -104t-1.5 -106q0 -50 0.5 -81.5t3.5 -79.5t9 -79t17 -71.5t27 -66.5t40.5 -54t56 -43.5t74 -26t93.5 -10.5h342z" />
    <glyph glyph-name="ccircumflex" unicode="&#x109;" horiz-adv-x="770" 
d="M412 985h-111l109 125h63l115 -125h-115l-31 45zM688 86v-86h-217q-99 0 -172.5 27.5t-114 69t-65 102.5t-31.5 116t-6 121q0 45 3.5 83t14 85t27 84.5t46.5 75t69 62t97.5 40t129.5 15.5h219v-86h-219q-69 0 -120 -21.5t-81 -55t-48.5 -85t-24.5 -101t-7 -112.5
q-1 -58 4.5 -102.5t23 -90t47.5 -75t82.5 -48t123.5 -18.5h219z" />
    <glyph glyph-name="Cdotaccent" unicode="&#x10a;" horiz-adv-x="976" 
d="M569 1313q-43 0 -60.5 30t0 59.5t60.5 29.5q31 0 49 -18.5t18 -41t-18 -41t-49 -18.5zM874 86v-86h-342q-83 0 -149 18t-111 46.5t-77 75.5t-49.5 93.5t-27.5 113t-13 122t-3 131.5q0 72 4 131.5t15.5 125t30.5 116.5t52 98.5t77 79t108 50t143 18.5h342v-86h-342
q-65 0 -115.5 -18t-84 -45t-57 -73t-36 -86.5t-19 -102.5t-8 -104t-1.5 -106q0 -50 0.5 -81.5t3.5 -79.5t9 -79t17 -71.5t27 -66.5t40.5 -54t56 -43.5t74 -26t93.5 -10.5h342z" />
    <glyph glyph-name="cdotaccent" unicode="&#x10b;" horiz-adv-x="770" 
d="M461 985q-43 0 -60.5 29.5t0 59.5t60.5 30q31 0 49 -18.5t18 -41t-18 -41t-49 -18.5zM688 86v-86h-217q-99 0 -172.5 27.5t-114 69t-65 102.5t-31.5 116t-6 121q0 45 3.5 83t14 85t27 84.5t46.5 75t69 62t97.5 40t129.5 15.5h219v-86h-219q-69 0 -120 -21.5t-81 -55
t-48.5 -85t-24.5 -101t-7 -112.5q-1 -58 4.5 -102.5t23 -90t47.5 -75t82.5 -48t123.5 -18.5h219z" />
    <glyph glyph-name="Ccaron" unicode="&#x10c;" horiz-adv-x="976" 
d="M547 1313l-109 125h111l31 -45l30 45h115l-115 -125h-63zM874 86v-86h-342q-83 0 -149 18t-111 46.5t-77 75.5t-49.5 93.5t-27.5 113t-13 122t-3 131.5q0 72 4 131.5t15.5 125t30.5 116.5t52 98.5t77 79t108 50t143 18.5h342v-86h-342q-65 0 -115.5 -18t-84 -45t-57 -73
t-36 -86.5t-19 -102.5t-8 -104t-1.5 -106q0 -50 0.5 -81.5t3.5 -79.5t9 -79t17 -71.5t27 -66.5t40.5 -54t56 -43.5t74 -26t93.5 -10.5h342z" />
    <glyph glyph-name="ccaron" unicode="&#x10d;" horiz-adv-x="770" 
d="M473 985h-63l-109 125h111l30 -45l31 45h115zM688 86v-86h-217q-99 0 -172.5 27.5t-114 69t-65 102.5t-31.5 116t-6 121q0 45 3.5 83t14 85t27 84.5t46.5 75t69 62t97.5 40t129.5 15.5h219v-86h-219q-69 0 -120 -21.5t-81 -55t-48.5 -85t-24.5 -101t-7 -112.5
q-1 -58 4.5 -102.5t23 -90t47.5 -75t82.5 -48t123.5 -18.5h219z" />
    <glyph glyph-name="Dcaron" unicode="&#x10e;" horiz-adv-x="1011" 
d="M483 1313h-63l-109 125h109l33 -45l30 45h115zM479 0h-336v1219h336q83 0 149 -18.5t110.5 -48t77 -78t50 -96.5t28 -116t13 -124t2.5 -132q0 -72 -4 -130.5t-15.5 -123.5t-30.5 -114t-52 -95.5t-77 -76.5t-108 -48t-143 -18zM246 1133v-1047h233q51 0 93.5 11t73.5 28.5
t55.5 47.5t40.5 58.5t27.5 70.5t17.5 76t9.5 83t4 82t0.5 82q0 51 -0.5 81.5t-3.5 79t-9 78.5t-17 70.5t-27 66t-40.5 53.5t-56 43.5t-74 25.5t-94.5 10h-233z" />
    <glyph glyph-name="dcaron" unicode="&#x10f;" horiz-adv-x="1112" 
d="M469 881h217v338h102v-947q0 -48 -6.5 -85.5t-25.5 -73.5t-50.5 -60t-83.5 -38.5t-122 -14.5h-31q-74 0 -133.5 15t-99 39.5t-69 62t-45.5 74.5t-25.5 85t-12 86.5t-2.5 86.5q0 432 387 432zM1012 1047h-117l41 172h92zM686 272v523h-217q-72 0 -124.5 -20t-83 -51.5
t-48.5 -81.5t-23.5 -99.5t-5.5 -114.5q0 -60 5.5 -105t23 -92t48 -77t83 -49t125.5 -19h31q60 0 97.5 11.5t56.5 37t25.5 56.5t6.5 81z" />
    <glyph glyph-name="Dcroat" unicode="&#x110;" horiz-adv-x="1011" 
d="M479 0h-336v537h-69v86h69v596h336q83 0 149 -18.5t110.5 -48t77 -78t50 -96.5t28 -116t13 -124t2.5 -132q0 -72 -4 -130.5t-15.5 -123.5t-30.5 -114t-52 -95.5t-77 -76.5t-108 -48t-143 -18zM246 537v-451h233q51 0 93.5 11t73.5 28.5t55.5 47.5t40.5 58.5t27.5 70.5
t17.5 76t9.5 83t4 82t0.5 82q0 51 -0.5 81.5t-3.5 79t-9 78.5t-17 70.5t-27 66t-40.5 53.5t-56 43.5t-74 25.5t-94.5 10h-233v-510h307v-86h-307z" />
    <glyph glyph-name="dcroat" unicode="&#x111;" 
d="M469 881h217v192h-383v86h383v60h102v-60h58v-86h-58v-801q0 -48 -6.5 -85.5t-25.5 -73.5t-50.5 -60t-83.5 -38.5t-122 -14.5h-31q-74 0 -133.5 15t-99 39.5t-69 62t-45.5 74.5t-25.5 85t-12 86.5t-2.5 86.5q0 432 387 432zM686 272v523h-217q-72 0 -124.5 -20t-83 -51.5
t-48.5 -81.5t-23.5 -99.5t-5.5 -114.5q0 -60 5.5 -105t23 -92t48 -77t83 -49t125.5 -19h31q60 0 97.5 11.5t56.5 37t25.5 56.5t6.5 81z" />
    <glyph glyph-name="Emacron" unicode="&#x112;" horiz-adv-x="987" 
d="M776 1313h-540v86h540v-86zM866 557h-661v-285q0 -49 6.5 -80.5t26 -57t57 -37t96.5 -11.5h475v-86h-475q-86 0 -145 21t-89.5 60.5t-42.5 85t-12 105.5v674q0 61 12 106.5t42.5 85t89.5 60.5t145 21h477v-86h-477q-59 0 -96.5 -11.5t-57 -37.5t-26 -57.5t-6.5 -80.5
v-305h661v-84z" />
    <glyph glyph-name="emacron" unicode="&#x113;" 
d="M717 985h-543v86h543v-86zM569 459h-385v-183q0 -106 39 -148t142 -42h133q113 0 149.5 43t36.5 141h102q0 -60 -12 -104.5t-41.5 -84t-88.5 -60.5t-146 -21h-133q-82 0 -139.5 21t-87.5 60t-43 86t-13 109v330q0 133 62 204t221 71h208q55 0 95 -12.5t62.5 -31.5
t35.5 -48t16.5 -55t3.5 -60q0 -35 -4 -62t-17 -57t-36 -50t-63.5 -33t-96.5 -13zM184 606v-65h385q71 0 93 31.5t22 101.5q0 66 -20.5 93.5t-90.5 27.5h-208q-103 0 -142 -41t-39 -148z" />
    <glyph glyph-name="Ebreve" unicode="&#x114;" horiz-adv-x="987" 
d="M344 1440h72q2 -19 3.5 -26t7.5 -18t19.5 -14.5t36.5 -3.5h84q20 0 32 4.5t18 15.5t8 18.5t4 23.5h71q-3 -64 -30 -96.5t-103 -32.5h-84q-76 0 -106 30.5t-33 98.5zM866 557h-661v-285q0 -49 6.5 -80.5t26 -57t57 -37t96.5 -11.5h475v-86h-475q-86 0 -145 21t-89.5 60.5
t-42.5 85t-12 105.5v674q0 61 12 106.5t42.5 85t89.5 60.5t145 21h477v-86h-477q-59 0 -96.5 -11.5t-57 -37.5t-26 -57.5t-6.5 -80.5v-305h661v-84z" />
    <glyph glyph-name="ebreve" unicode="&#x115;" 
d="M264 1114h74q2 -19 3.5 -26t7.5 -17.5t19 -14t35 -3.5h86q20 0 32.5 4.5t18 15t7 18.5t2.5 23h74q-3 -64 -30 -96.5t-104 -32.5h-86q-76 0 -105 30t-34 99zM569 459h-385v-183q0 -106 39 -148t142 -42h133q113 0 149.5 43t36.5 141h102q0 -60 -12 -104.5t-41.5 -84
t-88.5 -60.5t-146 -21h-133q-82 0 -139.5 21t-87.5 60t-43 86t-13 109v330q0 133 62 204t221 71h208q55 0 95 -12.5t62.5 -31.5t35.5 -48t16.5 -55t3.5 -60q0 -35 -4 -62t-17 -57t-36 -50t-63.5 -33t-96.5 -13zM184 606v-65h385q71 0 93 31.5t22 101.5q0 66 -20.5 93.5
t-90.5 27.5h-208q-103 0 -142 -41t-39 -148z" />
    <glyph glyph-name="Edotaccent" unicode="&#x116;" horiz-adv-x="987" 
d="M541 1313q-43 0 -60.5 30t0 59.5t60.5 29.5q31 0 49 -18.5t18 -41t-18 -41t-49 -18.5zM866 557h-661v-285q0 -49 6.5 -80.5t26 -57t57 -37t96.5 -11.5h475v-86h-475q-86 0 -145 21t-89.5 60.5t-42.5 85t-12 105.5v674q0 61 12 106.5t42.5 85t89.5 60.5t145 21h477v-86
h-477q-59 0 -96.5 -11.5t-57 -37.5t-26 -57.5t-6.5 -80.5v-305h661v-84z" />
    <glyph glyph-name="edotaccent" unicode="&#x117;" 
d="M453 985q-43 0 -60.5 29.5t0 59.5t60.5 30q31 0 49 -18.5t18 -41t-18 -41t-49 -18.5zM569 459h-385v-183q0 -106 39 -148t142 -42h133q113 0 149.5 43t36.5 141h102q0 -60 -12 -104.5t-41.5 -84t-88.5 -60.5t-146 -21h-133q-82 0 -139.5 21t-87.5 60t-43 86t-13 109v330
q0 133 62 204t221 71h208q55 0 95 -12.5t62.5 -31.5t35.5 -48t16.5 -55t3.5 -60q0 -35 -4 -62t-17 -57t-36 -50t-63.5 -33t-96.5 -13zM184 606v-65h385q71 0 93 31.5t22 101.5q0 66 -20.5 93.5t-90.5 27.5h-208q-103 0 -142 -41t-39 -148z" />
    <glyph glyph-name="Eogonek" unicode="&#x118;" horiz-adv-x="987" 
d="M866 557h-661v-285q0 -49 6.5 -80.5t26 -57t57 -37t96.5 -11.5h475v-86h-20q-57 -35 -87 -80t-22 -72q6 -20 31 -20q41 0 82 45v-94q-56 -47 -107 -47q-62 0 -92 61q-47 97 70 207h-330q-86 0 -145 21t-89.5 60.5t-42.5 85t-12 105.5v674q0 61 12 106.5t42.5 85
t89.5 60.5t145 21h477v-86h-477q-59 0 -96.5 -11.5t-57 -37.5t-26 -57.5t-6.5 -80.5v-305h661v-84z" />
    <glyph glyph-name="eogonek" unicode="&#x119;" 
d="M569 459h-385v-183q0 -106 39 -148t142 -42h133q113 0 149.5 43t36.5 141h102q0 -175 -112 -235q-44 -32 -66 -71t-14 -62q6 -21 31 -21q43 0 88 45v-94q-53 -45 -111 -45q-65 0 -94 59q-38 74 20 156q-10 -2 -30 -2h-133q-82 0 -139.5 21t-87.5 60t-43 86t-13 109v330
q0 133 62 204t221 71h208q55 0 95 -12.5t62.5 -31.5t35.5 -48t16.5 -55t3.5 -60q0 -35 -4 -62t-17 -57t-36 -50t-63.5 -33t-96.5 -13zM184 606v-65h385q71 0 93 31.5t22 101.5q0 66 -20.5 93.5t-90.5 27.5h-208q-103 0 -142 -41t-39 -148z" />
    <glyph glyph-name="Ecaron" unicode="&#x11a;" horiz-adv-x="987" 
d="M535 1315h-64l-109 125h109l33 -45l31 45h114zM866 557h-661v-285q0 -49 6.5 -80.5t26 -57t57 -37t96.5 -11.5h475v-86h-475q-86 0 -145 21t-89.5 60.5t-42.5 85t-12 105.5v674q0 61 12 106.5t42.5 85t89.5 60.5t145 21h477v-86h-477q-59 0 -96.5 -11.5t-57 -37.5
t-26 -57.5t-6.5 -80.5v-305h661v-84z" />
    <glyph glyph-name="ecaron" unicode="&#x11b;" 
d="M479 985h-63l-109 125h109l33 -45l30 45h115zM569 459h-385v-183q0 -106 39 -148t142 -42h133q113 0 149.5 43t36.5 141h102q0 -60 -12 -104.5t-41.5 -84t-88.5 -60.5t-146 -21h-133q-82 0 -139.5 21t-87.5 60t-43 86t-13 109v330q0 133 62 204t221 71h208q55 0 95 -12.5
t62.5 -31.5t35.5 -48t16.5 -55t3.5 -60q0 -35 -4 -62t-17 -57t-36 -50t-63.5 -33t-96.5 -13zM184 606v-65h385q71 0 93 31.5t22 101.5q0 66 -20.5 93.5t-90.5 27.5h-208q-103 0 -142 -41t-39 -148z" />
    <glyph glyph-name="Gcircumflex" unicode="&#x11c;" horiz-adv-x="972" 
d="M481 1313h-108l106 125h66l112 -125h-112l-31 45zM764 518h-178v84h280v-330q0 -60 -12 -105.5t-42 -85t-89 -60.5t-145 -21h-91q-57 0 -104.5 7t-83.5 24.5t-65 34.5t-49 49.5t-35 57t-23.5 69t-14 73t-7.5 82.5t-2.5 83.5t-0.5 89.5v6v5.5v6.5q0 211 6 274
q19 197 118 279q94 78 274 78h78q76 0 130.5 -17.5t84.5 -43.5t47 -67.5t21.5 -78.5t4.5 -88v-29h-102v29q0 46 -2.5 73t-12.5 56.5t-29.5 44.5t-54.5 25t-87 10h-82q-72 0 -125 -19.5t-83 -53t-49 -79t-24 -97.5t-7.5 -108.5t0.5 -112.5q1 -52 1 -77v-58q0 -47 -1 -92.5
t5 -89t15 -82.5t29 -71.5t49 -56.5t74 -37t103 -13h95q59 0 96.5 11.5t57 37t26 57t6.5 80.5v246z" />
    <glyph glyph-name="gcircumflex" unicode="&#x11d;" horiz-adv-x="892" 
d="M428 985h-111l109 125h63l115 -125h-112l-33 45zM82 -66h102q0 -49 7 -80.5t26.5 -57t57 -37t96.5 -11.5h172q86 0 114.5 36t28.5 114v147q-71 -45 -186 -45h-78q-85 0 -147 23.5t-98.5 61.5t-58.5 97t-29 118.5t-7 137.5q1 62 3 103.5t9.5 92.5t21.5 83.5t39 66.5
t60.5 53t87.5 31.5t119 12.5h78q70 0 122 -14.5t83.5 -38t50.5 -60t25.5 -74t6.5 -86.5v-710q0 -50 -9.5 -88.5t-34.5 -74t-76 -54.5t-125 -19h-172q-86 0 -145 20.5t-89.5 60t-42.5 85t-12 106.5zM422 86h78q60 0 97.5 11.5t56.5 37t25.5 56.5t6.5 81v336q0 50 -6.5 81
t-25.5 57t-56.5 37.5t-97.5 11.5h-78q-69 0 -116 -20.5t-71 -46t-36 -78.5t-13.5 -88t-1.5 -105q0 -146 11 -199q26 -131 138 -161q39 -11 89 -11z" />
    <glyph glyph-name="Gbreve" unicode="&#x11e;" horiz-adv-x="972" 
d="M342 1442h74q2 -20 3.5 -26.5t7.5 -17.5t19 -14.5t35 -3.5h86q20 0 32 4.5t18 15.5t8 18.5t4 23.5h71q-3 -64 -30 -96.5t-103 -32.5h-86q-76 0 -105 30t-34 99zM764 518h-178v84h280v-330q0 -60 -12 -105.5t-42 -85t-89 -60.5t-145 -21h-91q-57 0 -104.5 7t-83.5 24.5
t-65 34.5t-49 49.5t-35 57t-23.5 69t-14 73t-7.5 82.5t-2.5 83.5t-0.5 89.5v6v5.5v6.5q0 211 6 274q19 197 118 279q94 78 274 78h78q76 0 130.5 -17.5t84.5 -43.5t47 -67.5t21.5 -78.5t4.5 -88v-29h-102v29q0 46 -2.5 73t-12.5 56.5t-29.5 44.5t-54.5 25t-87 10h-82
q-72 0 -125 -19.5t-83 -53t-49 -79t-24 -97.5t-7.5 -108.5t0.5 -112.5q1 -52 1 -77v-58q0 -47 -1 -92.5t5 -89t15 -82.5t29 -71.5t49 -56.5t74 -37t103 -13h95q59 0 96.5 11.5t57 37t26 57t6.5 80.5v246z" />
    <glyph glyph-name="gbreve" unicode="&#x11f;" horiz-adv-x="892" 
d="M272 1114h74q2 -19 3.5 -26t8 -17.5t20 -14t36.5 -3.5h84q26 0 40 10t17 20.5t4 30.5h74q-5 -65 -31.5 -97t-103.5 -32h-84q-78 0 -107.5 30t-34.5 99zM82 -66h102q0 -49 7 -80.5t26.5 -57t57 -37t96.5 -11.5h172q86 0 114.5 36t28.5 114v147q-71 -45 -186 -45h-78
q-85 0 -147 23.5t-98.5 61.5t-58.5 97t-29 118.5t-7 137.5q1 62 3 103.5t9.5 92.5t21.5 83.5t39 66.5t60.5 53t87.5 31.5t119 12.5h78q70 0 122 -14.5t83.5 -38t50.5 -60t25.5 -74t6.5 -86.5v-710q0 -50 -9.5 -88.5t-34.5 -74t-76 -54.5t-125 -19h-172q-86 0 -145 20.5
t-89.5 60t-42.5 85t-12 106.5zM422 86h78q60 0 97.5 11.5t56.5 37t25.5 56.5t6.5 81v336q0 50 -6.5 81t-25.5 57t-56.5 37.5t-97.5 11.5h-78q-69 0 -116 -20.5t-71 -46t-36 -78.5t-13.5 -88t-1.5 -105q0 -146 11 -199q26 -131 138 -161q39 -11 89 -11z" />
    <glyph glyph-name="Gdotaccent" unicode="&#x120;" horiz-adv-x="972" 
d="M514 1313q-43 0 -61 30t0 59.5t61 29.5q31 0 49 -18.5t18 -41t-18 -41t-49 -18.5zM764 518h-178v84h280v-330q0 -60 -12 -105.5t-42 -85t-89 -60.5t-145 -21h-91q-57 0 -104.5 7t-83.5 24.5t-65 34.5t-49 49.5t-35 57t-23.5 69t-14 73t-7.5 82.5t-2.5 83.5t-0.5 89.5v6
v5.5v6.5q0 211 6 274q19 197 118 279q94 78 274 78h78q76 0 130.5 -17.5t84.5 -43.5t47 -67.5t21.5 -78.5t4.5 -88v-29h-102v29q0 46 -2.5 73t-12.5 56.5t-29.5 44.5t-54.5 25t-87 10h-82q-72 0 -125 -19.5t-83 -53t-49 -79t-24 -97.5t-7.5 -108.5t0.5 -112.5q1 -52 1 -77
v-58q0 -47 -1 -92.5t5 -89t15 -82.5t29 -71.5t49 -56.5t74 -37t103 -13h95q59 0 96.5 11.5t57 37t26 57t6.5 80.5v246z" />
    <glyph glyph-name="gdotaccent" unicode="&#x121;" horiz-adv-x="892" 
d="M449 985q-44 0 -62 29.5t0 59.5t62 30q31 0 49 -18.5t18 -41t-18 -41t-49 -18.5zM82 -66h102q0 -49 7 -80.5t26.5 -57t57 -37t96.5 -11.5h172q86 0 114.5 36t28.5 114v147q-71 -45 -186 -45h-78q-85 0 -147 23.5t-98.5 61.5t-58.5 97t-29 118.5t-7 137.5q1 62 3 103.5
t9.5 92.5t21.5 83.5t39 66.5t60.5 53t87.5 31.5t119 12.5h78q70 0 122 -14.5t83.5 -38t50.5 -60t25.5 -74t6.5 -86.5v-710q0 -50 -9.5 -88.5t-34.5 -74t-76 -54.5t-125 -19h-172q-86 0 -145 20.5t-89.5 60t-42.5 85t-12 106.5zM422 86h78q60 0 97.5 11.5t56.5 37t25.5 56.5
t6.5 81v336q0 50 -6.5 81t-25.5 57t-56.5 37.5t-97.5 11.5h-78q-69 0 -116 -20.5t-71 -46t-36 -78.5t-13.5 -88t-1.5 -105q0 -146 11 -199q26 -131 138 -161q39 -11 89 -11z" />
    <glyph glyph-name="uni0122" unicode="&#x122;" horiz-adv-x="968" 
d="M764 518h-178v84h280v-330q0 -60 -12 -105.5t-42 -85t-89 -60.5t-145 -21h-91q-57 0 -104.5 7t-83.5 24.5t-65 34.5t-49 49.5t-35 57t-23.5 69t-14 73t-7.5 82.5t-2.5 83.5t-0.5 89.5v6v5.5v6.5q0 211 6 274q19 197 118 279q94 78 274 78h78q76 0 130.5 -17.5t84.5 -43.5
t47 -67.5t21.5 -78.5t4.5 -88v-29h-102v29q0 46 -2.5 73t-12.5 56.5t-29.5 44.5t-54.5 25t-87 10h-82q-72 0 -125 -19.5t-83 -53t-49 -79t-24 -97.5t-7.5 -108.5t0.5 -112.5q1 -52 1 -77v-58q0 -47 -1 -92.5t5 -89t15 -82.5t29 -71.5t49 -56.5t74 -37t103 -13h95
q59 0 96.5 11.5t57 37t26 57t6.5 80.5v246zM477 -217h-108l86 125h145z" />
    <glyph glyph-name="uni0123" unicode="&#x123;" horiz-adv-x="892" 
d="M471 1110h145l-122 -127h-109zM82 -66h102q0 -49 7 -80.5t26.5 -57t57 -37t96.5 -11.5h172q86 0 114.5 36t28.5 114v147q-71 -45 -186 -45h-78q-85 0 -147 23.5t-98.5 61.5t-58.5 97t-29 118.5t-7 137.5q1 62 3 103.5t9.5 92.5t21.5 83.5t39 66.5t60.5 53t87.5 31.5
t119 12.5h78q70 0 122 -14.5t83.5 -38t50.5 -60t25.5 -74t6.5 -86.5v-710q0 -50 -9.5 -88.5t-34.5 -74t-76 -54.5t-125 -19h-172q-86 0 -145 20.5t-89.5 60t-42.5 85t-12 106.5zM422 86h78q60 0 97.5 11.5t56.5 37t25.5 56.5t6.5 81v336q0 50 -6.5 81t-25.5 57t-56.5 37.5
t-97.5 11.5h-78q-69 0 -116 -20.5t-71 -46t-36 -78.5t-13.5 -88t-1.5 -105q0 -146 11 -199q26 -131 138 -161q39 -11 89 -11z" />
    <glyph glyph-name="Hcircumflex" unicode="&#x124;" horiz-adv-x="1054" 
d="M498 1313h-111l109 125h63l115 -125h-113l-31 45zM246 2h-103v1217h103v-617h563v617h102v-1217h-102v514h-563v-514z" />
    <glyph glyph-name="hcircumflex" unicode="&#x125;" horiz-adv-x="933" 
d="M141 1313h-108l106 125h64l114 -125h-114l-31 45zM225 0h-102v1219h102v-383q67 45 187 45h129q87 0 146 -21t88.5 -60.5t41.5 -84.5t12 -105v-610h-102v610q0 99 -36 142t-150 43h-129q-113 0 -150 -43.5t-37 -141.5v-610z" />
    <glyph glyph-name="Hbar" unicode="&#x126;" horiz-adv-x="1054" 
d="M246 2h-103v1026h-57v86h57v105h103v-105h563v105h102v-105h58v-86h-58v-1026h-102v514h-563v-514zM246 1028v-426h563v426h-563z" />
    <glyph glyph-name="hbar" unicode="&#x127;" horiz-adv-x="933" 
d="M225 0h-102v1028h-57v86h57v105h102v-105h383v-86h-383v-192q67 45 187 45h129q87 0 146 -21t88.5 -60.5t41.5 -84.5t12 -105v-610h-102v610q0 99 -36 142t-150 43h-129q-113 0 -150 -43.5t-37 -141.5v-610z" />
    <glyph glyph-name="Itilde" unicode="&#x128;" horiz-adv-x="391" 
d="M25 1348v90q44 39 92 39q37 0 95.5 -32t84.5 -32q40 0 70 41v-92q-40 -37 -80 -37q-32 0 -91.5 34t-89.5 34q-41 0 -81 -45zM246 0h-103v1219h103v-1219z" />
    <glyph glyph-name="itilde" unicode="&#x129;" horiz-adv-x="380" 
d="M18 1010v92q44 39 93 39q37 0 95.5 -32t84.5 -32q38 0 71 41v-94q-38 -35 -79 -35q-34 0 -92.5 33t-88.5 33q-42 0 -84 -45zM244 0h-103v881h103v-881z" />
    <glyph glyph-name="Imacron" unicode="&#x12a;" horiz-adv-x="391" 
d="M362 1313h-333v86h333v-86zM246 2h-103v1217h103v-1217z" />
    <glyph glyph-name="imacron" unicode="&#x12b;" horiz-adv-x="380" 
d="M356 985h-329v86h329v-86zM244 0h-103v881h103v-881z" />
    <glyph glyph-name="Ibreve" unicode="&#x12c;" horiz-adv-x="391" 
d="M16 1442h74q2 -19 3.5 -26t8 -18t19.5 -14.5t35 -3.5h84q20 0 32 4.5t18 16t7.5 18t3.5 23.5h72q-3 -64 -30 -96.5t-103 -32.5h-84q-76 0 -106.5 30.5t-33.5 98.5zM246 2h-103v1217h103v-1217z" />
    <glyph glyph-name="ibreve" unicode="&#x12d;" horiz-adv-x="380" 
d="M12 1114h74q2 -19 3.5 -26t8 -17.5t19.5 -14t35 -3.5h84q20 0 32 4.5t18 15.5t7.5 17.5t3.5 23.5h72q-3 -64 -30 -96.5t-103 -32.5h-84q-76 0 -106.5 30.5t-33.5 98.5zM244 0h-103v881h103v-881z" />
    <glyph glyph-name="Iogonek" unicode="&#x12e;" horiz-adv-x="391" 
d="M258 -127v-94q-56 -47 -111 -47q-64 0 -94 61q-28 57 -0.5 116t90.5 109v1201h103v-1219q-56 -35 -85.5 -80t-21.5 -72q6 -20 31 -20q43 0 88 45z" />
    <glyph glyph-name="iogonek" unicode="&#x12f;" horiz-adv-x="380" 
d="M193 1090q-43 0 -60.5 29.5t0 59t60.5 29.5q31 0 49 -18.5t18 -40.5t-18 -40.5t-49 -18.5zM256 -127v-94q-58 -47 -111 -47q-32 0 -57 16t-37 43q-28 58 -0.5 117.5t90.5 107.5v865h103v-881q-56 -35 -85.5 -80t-21.5 -72q5 -22 31 -22q41 0 88 47z" />
    <glyph glyph-name="Idotaccent" unicode="&#x130;" horiz-adv-x="391" 
d="M197 1313q-43 0 -60.5 30t0 59.5t60.5 29.5q31 0 49 -18.5t18 -41t-18 -41t-49 -18.5zM246 2h-103v1217h103v-1217z" />
    <glyph glyph-name="dotlessi" unicode="&#x131;" horiz-adv-x="372" 
d="M240 0h-103v881h103v-881z" />
    <glyph glyph-name="IJ" unicode="&#x132;" horiz-adv-x="1333" 
d="M246 0h-103v1219h103v-1219zM891 0h-459v86h459q101 0 154 61.5t53 147.5v924h102v-924q0 -52 -18.5 -102.5t-54 -94.5t-97 -71t-139.5 -27z" />
    <glyph glyph-name="ij" unicode="&#x133;" horiz-adv-x="688" 
d="M500 1094q-43 0 -61 29.5t0 59t61 29.5q31 0 49 -18.5t18 -40.5t-18 -40.5t-49 -18.5zM193 1090q-43 0 -60.5 29.5t0 59t60.5 29.5q31 0 49 -18.5t18 -40.5t-18 -40.5t-49 -18.5zM244 0h-103v881h103v-881zM260 -338v86q60 0 97.5 11.5t56.5 37t25.5 56t6.5 79.5v949h103
v-949q0 -60 -12 -105t-42 -85t-89 -60.5t-146 -19.5z" />
    <glyph glyph-name="Jcircumflex" unicode="&#x134;" horiz-adv-x="940" 
d="M725 1313h-109l107 125h63l115 -125h-115l-30 45zM502 0h-459v86h459q100 0 152.5 61.5t52.5 147.5v924h102v-924q0 -52 -18.5 -102.5t-54 -94.5t-96.5 -71t-138 -27z" />
    <glyph glyph-name="jcircumflex" unicode="&#x135;" horiz-adv-x="335" 
d="M113 985h-111l109 125h63l115 -125h-115l-31 45zM-92 -338v86q60 0 97.5 11.5t56.5 37t25.5 56t6.5 79.5v949h103v-949q0 -60 -12 -105t-42 -85t-89 -60.5t-146 -19.5z" />
    <glyph glyph-name="uni0136" unicode="&#x136;" horiz-adv-x="983" 
d="M246 0h-103v1219h103v-570l559 570h135l-578 -584l576 -635h-133l-512 565l-47 -49v-516zM485 -240h-108l86 125h145z" />
    <glyph glyph-name="uni0137" unicode="&#x137;" horiz-adv-x="923" 
d="M225 0h-102v1219h102v-654l496 316h172l-510 -326l481 -555h-125l-442 500l-72 -45v-455zM455 -240h-109l86 125h146z" />
    <glyph glyph-name="kgreenlandic" unicode="&#x138;" horiz-adv-x="923" 
d="M225 0h-102v881h102v-316l496 316h172l-510 -326l481 -555h-125l-442 500l-72 -45v-455z" />
    <glyph glyph-name="Lacute" unicode="&#x139;" horiz-adv-x="942" 
d="M188 1313h-106l86 125h143zM901 86v-86h-459q-77 0 -138.5 27t-97.5 71t-54.5 94.5t-18.5 102.5v924h103v-924q0 -86 52.5 -147.5t153.5 -61.5h459z" />
    <glyph glyph-name="lacute" unicode="&#x13a;" horiz-adv-x="350" 
d="M168 1313h-107l84 125h146zM225 0h-102v1219h102v-1219z" />
    <glyph glyph-name="uni013B" unicode="&#x13b;" horiz-adv-x="942" 
d="M901 86v-86h-459q-77 0 -138.5 27t-97.5 71t-54.5 94.5t-18.5 102.5v924h103v-924q0 -86 52.5 -147.5t153.5 -61.5h459zM463 -240h-109l86 125h146z" />
    <glyph glyph-name="uni013C" unicode="&#x13c;" horiz-adv-x="350" 
d="M225 0h-102v1219h102v-1219zM145 -240h-108l86 125h145z" />
    <glyph glyph-name="Lcaron" unicode="&#x13d;" horiz-adv-x="942" 
d="M901 86v-86h-459q-77 0 -138.5 27t-97.5 71t-54.5 94.5t-18.5 102.5v924h103v-924q0 -86 52.5 -147.5t153.5 -61.5h459zM653 1092h-106l86 127h143z" />
    <glyph glyph-name="lcaron" unicode="&#x13e;" horiz-adv-x="634" 
d="M225 0h-102v1219h102v-1219zM420 1087h-109l86 127h146z" />
    <glyph glyph-name="Ldot" unicode="&#x13f;" horiz-adv-x="942" 
d="M901 86v-86h-459q-77 0 -138.5 27t-97.5 71t-54.5 94.5t-18.5 102.5v924h103v-924q0 -86 52.5 -147.5t153.5 -61.5h459zM606 610q-43 0 -61 30t0 60.5t61 30.5q31 0 49 -19t18 -41.5t-18 -41.5t-49 -19z" />
    <glyph glyph-name="ldot" unicode="&#x140;" horiz-adv-x="526" 
d="M225 2h-102v1217h102v-1217zM367 612q-44 0 -62.5 30t0 60.5t62.5 30.5q30 0 47.5 -19t17.5 -41.5t-17.5 -41.5t-47.5 -19z" />
    <glyph glyph-name="Lslash" unicode="&#x141;" horiz-adv-x="942" 
d="M901 86v-86h-459q-77 0 -138.5 27t-97.5 71t-54.5 94.5t-18.5 102.5v78l-80 -45v98l80 45v748h103v-693l333 183v-99l-333 -182v-133q0 -86 52.5 -147.5t153.5 -61.5h459z" />
    <glyph glyph-name="lslash" unicode="&#x142;" horiz-adv-x="350" 
d="M225 0h-102v389l-74 -41v98l74 41v732h102v-676l88 49v-98l-88 -50v-444z" />
    <glyph glyph-name="Nacute" unicode="&#x143;" horiz-adv-x="1056" 
d="M549 1313h-109l86 125h146zM246 0h-103v1219h105l563 -1022v1022h102v-1219h-108l-559 1018v-1018z" />
    <glyph glyph-name="nacute" unicode="&#x144;" horiz-adv-x="913" 
d="M483 985h-108l86 125h145zM205 0h-103v610q0 60 12 105t42.5 84.5t89.5 60.5t145 21h129q72 0 124 -13t83.5 -35t50 -58t25 -74.5t6.5 -90.5v-610h-102v610q0 50 -5.5 80t-24 56.5t-57 37.5t-100.5 11h-127q-113 0 -150.5 -43.5t-37.5 -141.5v-610z" />
    <glyph glyph-name="uni0145" unicode="&#x145;" horiz-adv-x="1056" 
d="M246 0h-103v1219h105l563 -1022v1022h102v-1219h-108l-559 1018v-1018zM520 -240h-106l86 125h145z" />
    <glyph glyph-name="uni0146" unicode="&#x146;" horiz-adv-x="913" 
d="M205 0h-103v610q0 60 12 105t42.5 84.5t89.5 60.5t145 21h129q72 0 124 -13t83.5 -35t50 -58t25 -74.5t6.5 -90.5v-610h-102v610q0 50 -5.5 80t-24 56.5t-57 37.5t-100.5 11h-127q-113 0 -150.5 -43.5t-37.5 -141.5v-610zM449 -240h-107l86 127h145z" />
    <glyph glyph-name="Ncaron" unicode="&#x147;" horiz-adv-x="1056" 
d="M565 1313h-63l-109 125h109l33 -45l30 45h115zM246 0h-103v1219h105l563 -1022v1022h102v-1219h-108l-559 1018v-1018z" />
    <glyph glyph-name="ncaron" unicode="&#x148;" horiz-adv-x="913" 
d="M485 985h-63l-109 125h109l33 -45l30 45h115zM205 0h-103v610q0 60 12 105t42.5 84.5t89.5 60.5t145 21h129q72 0 124 -13t83.5 -35t50 -58t25 -74.5t6.5 -90.5v-610h-102v610q0 50 -5.5 80t-24 56.5t-57 37.5t-100.5 11h-127q-113 0 -150.5 -43.5t-37.5 -141.5v-610z
" />
    <glyph glyph-name="napostrophe" unicode="&#x149;" horiz-adv-x="913" 
d="M135 963h-106l86 124h143zM205 0h-103v610q0 60 12 105t42.5 84.5t89.5 60.5t145 21h129q72 0 124 -13t83.5 -35t50 -58t25 -74.5t6.5 -90.5v-610h-102v610q0 50 -5.5 80t-24 56.5t-57 37.5t-100.5 11h-127q-113 0 -150.5 -43.5t-37.5 -141.5v-610z" />
    <glyph glyph-name="Eng" unicode="&#x14a;" horiz-adv-x="1056" 
d="M246 -2h-103v1219h105l563 -1020v1020h102v-1219q0 -51 -18.5 -101t-54 -94t-97 -71t-139.5 -27v86q98 0 151 57.5t56 141.5l-565 1028v-1020z" />
    <glyph glyph-name="eng" unicode="&#x14b;" horiz-adv-x="913" 
d="M205 0h-103v608q0 61 12 106.5t42.5 85t89.5 60.5t145 21h129q89 0 147.5 -18.5t88.5 -57t41.5 -84.5t11.5 -113v-608q0 -61 -12 -106.5t-42 -85.5t-89 -60.5t-146 -19.5v86q60 0 97.5 11.5t57 37t26 56.5t6.5 81v608q0 51 -5.5 81t-24 57t-57 38t-100.5 11h-127
q-113 0 -150.5 -44t-37.5 -143v-608z" />
    <glyph glyph-name="Omacron" unicode="&#x14c;" horiz-adv-x="1067" 
d="M805 1313h-543v86h543v-86zM532 0q-79 0 -143 18t-108 48t-77 76.5t-52 95.5t-30.5 114t-15.5 123.5t-4 130.5q0 76 2.5 132t13 124t28 116t50 96.5t77 78t110.5 48t149 18.5q65 0 119.5 -11t95.5 -30t74 -49.5t55 -63t38.5 -77t25.5 -85.5t14.5 -95t7 -99t1.5 -103
q0 -72 -4 -130.5t-15.5 -123t-30.5 -114t-52 -96t-77.5 -76.5t-108.5 -48t-143 -18zM532 86q65 0 116 18t84 45.5t57 73.5t36.5 87.5t19 103t8 104.5t1.5 107q0 51 -0.5 81.5t-3.5 79t-9 78.5t-17 70.5t-27 66t-40.5 53.5t-56 43.5t-74 25.5t-94.5 10q-66 0 -117.5 -17
t-85 -40.5t-57 -68t-35 -80.5t-18 -97.5t-7.5 -100t-1 -104.5q0 -64 1.5 -107t8 -105t19 -103t36 -87t57 -73.5t84 -45.5t115.5 -18z" />
    <glyph glyph-name="omacron" unicode="&#x14d;" horiz-adv-x="915" 
d="M731 985h-545v86h545v-86zM506 6h-96q-65 0 -115.5 11.5t-85 30t-58.5 51t-37.5 64.5t-20.5 81.5t-9 90.5t-2 103q0 58 2 100t9.5 92t21.5 84.5t38 69.5t58.5 56t84.5 34t114 13h96q64 0 114 -13t84.5 -34t58.5 -55.5t38 -69t21.5 -84.5t9.5 -91.5t2 -99.5q0 -48 -1 -81
t-4.5 -74t-10.5 -69t-18.5 -59.5t-28.5 -52t-41.5 -41t-56.5 -32t-74 -18.5t-93 -7zM410 92h96q37 0 67.5 5.5t52.5 16t39.5 25t28 32.5t18.5 39.5t11.5 45.5t5.5 49.5t2 52.5v55v29v4q0 67 -1.5 102.5t-13 92t-34 85.5t-67 52t-109.5 23h-96q-37 0 -67 -7.5t-52 -18
t-39.5 -31t-28.5 -38t-19 -47t-11.5 -50t-5.5 -55.5t-2.5 -55t-0.5 -57q0 -139 5 -176q16 -117 101 -153q48 -21 120 -21z" />
    <glyph glyph-name="Obreve" unicode="&#x14e;" horiz-adv-x="1067" 
d="M354 1442h72q2 -19 3.5 -26t8 -18t20 -14.5t36.5 -3.5h84q26 0 40 10t17 21t4 31h74q-5 -65 -31.5 -97t-103.5 -32h-84q-76 0 -106.5 30.5t-33.5 98.5zM532 0q-79 0 -143 18t-108 48t-77 76.5t-52 95.5t-30.5 114t-15.5 123.5t-4 130.5q0 76 2.5 132t13 124t28 116
t50 96.5t77 78t110.5 48t149 18.5q65 0 119.5 -11t95.5 -30t74 -49.5t55 -63t38.5 -77t25.5 -85.5t14.5 -95t7 -99t1.5 -103q0 -72 -4 -130.5t-15.5 -123t-30.5 -114t-52 -96t-77.5 -76.5t-108.5 -48t-143 -18zM532 86q65 0 116 18t84 45.5t57 73.5t36.5 87.5t19 103
t8 104.5t1.5 107q0 51 -0.5 81.5t-3.5 79t-9 78.5t-17 70.5t-27 66t-40.5 53.5t-56 43.5t-74 25.5t-94.5 10q-66 0 -117.5 -17t-85 -40.5t-57 -68t-35 -80.5t-18 -97.5t-7.5 -100t-1 -104.5q0 -64 1.5 -107t8 -105t19 -103t36 -87t57 -73.5t84 -45.5t115.5 -18z" />
    <glyph glyph-name="obreve" unicode="&#x14f;" horiz-adv-x="915" 
d="M279 1114h73q2 -19 3.5 -26t8 -17.5t20 -14t36.5 -3.5h84q26 0 40 10t17 20.5t4 30.5h74q-5 -65 -31.5 -97t-103.5 -32h-84q-78 0 -107 30t-34 99zM506 6h-96q-65 0 -115.5 11.5t-85 30t-58.5 51t-37.5 64.5t-20.5 81.5t-9 90.5t-2 103q0 58 2 100t9.5 92t21.5 84.5
t38 69.5t58.5 56t84.5 34t114 13h96q64 0 114 -13t84.5 -34t58.5 -55.5t38 -69t21.5 -84.5t9.5 -91.5t2 -99.5q0 -48 -1 -81t-4.5 -74t-10.5 -69t-18.5 -59.5t-28.5 -52t-41.5 -41t-56.5 -32t-74 -18.5t-93 -7zM410 92h96q37 0 67.5 5.5t52.5 16t39.5 25t28 32.5t18.5 39.5
t11.5 45.5t5.5 49.5t2 52.5v55v29v4q0 67 -1.5 102.5t-13 92t-34 85.5t-67 52t-109.5 23h-96q-37 0 -67 -7.5t-52 -18t-39.5 -31t-28.5 -38t-19 -47t-11.5 -50t-5.5 -55.5t-2.5 -55t-0.5 -57q0 -139 5 -176q16 -117 101 -153q48 -21 120 -21z" />
    <glyph glyph-name="Ohungarumlaut" unicode="&#x150;" horiz-adv-x="1067" 
d="M465 1313h-98l86 125h122zM653 1313h-100l86 125h123zM532 0q-79 0 -143 18t-108 48t-77 76.5t-52 95.5t-30.5 114t-15.5 123.5t-4 130.5q0 76 2.5 132t13 124t28 116t50 96.5t77 78t110.5 48t149 18.5q65 0 119.5 -11t95.5 -30t74 -49.5t55 -63t38.5 -77t25.5 -85.5
t14.5 -95t7 -99t1.5 -103q0 -72 -4 -130.5t-15.5 -123t-30.5 -114t-52 -96t-77.5 -76.5t-108.5 -48t-143 -18zM532 86q65 0 116 18t84 45.5t57 73.5t36.5 87.5t19 103t8 104.5t1.5 107q0 51 -0.5 81.5t-3.5 79t-9 78.5t-17 70.5t-27 66t-40.5 53.5t-56 43.5t-74 25.5
t-94.5 10q-66 0 -117.5 -17t-85 -40.5t-57 -68t-35 -80.5t-18 -97.5t-7.5 -100t-1 -104.5q0 -64 1.5 -107t8 -105t19 -103t36 -87t57 -73.5t84 -45.5t115.5 -18z" />
    <glyph glyph-name="ohungarumlaut" unicode="&#x151;" horiz-adv-x="915" 
d="M395 985h-100l88 125h121zM582 985h-99l86 125h121zM506 6h-96q-65 0 -115.5 11.5t-85 30t-58.5 51t-37.5 64.5t-20.5 81.5t-9 90.5t-2 103q0 58 2 100t9.5 92t21.5 84.5t38 69.5t58.5 56t84.5 34t114 13h96q64 0 114 -13t84.5 -34t58.5 -55.5t38 -69t21.5 -84.5
t9.5 -91.5t2 -99.5q0 -48 -1 -81t-4.5 -74t-10.5 -69t-18.5 -59.5t-28.5 -52t-41.5 -41t-56.5 -32t-74 -18.5t-93 -7zM410 92h96q37 0 67.5 5.5t52.5 16t39.5 25t28 32.5t18.5 39.5t11.5 45.5t5.5 49.5t2 52.5v55v29v4q0 67 -1.5 102.5t-13 92t-34 85.5t-67 52t-109.5 23
h-96q-37 0 -67 -7.5t-52 -18t-39.5 -31t-28.5 -38t-19 -47t-11.5 -50t-5.5 -55.5t-2.5 -55t-0.5 -57q0 -139 5 -176q16 -117 101 -153q48 -21 120 -21z" />
    <glyph glyph-name="OE" unicode="&#x152;" horiz-adv-x="1740" 
d="M528 0q-79 0 -143 18t-108 48t-77 76.5t-52 95.5t-30.5 114t-15.5 123.5t-4 130.5q0 76 2.5 132t13 124t28 116t50 96.5t77 78t110.5 48t149 18.5q244 0 346 -160q42 160 273 160h477v-86h-477q-59 0 -96.5 -11.5t-57 -37.5t-26 -57.5t-6.5 -80.5v-305h661v-84h-661v-285
q0 -49 6.5 -80.5t26 -57t57 -37t96.5 -11.5h475v-86h-475q-233 0 -275 170q-102 -170 -344 -170zM528 86q65 0 116 18t84 45.5t57 73.5t36.5 87.5t19 103t8 104.5t1.5 107q0 51 -0.5 81.5t-3.5 79t-9 78.5t-17 70.5t-27 66t-40.5 53.5t-56 43.5t-74 25.5t-94.5 10
q-66 0 -117.5 -17t-85 -40.5t-57 -68t-35 -80.5t-18 -97.5t-7.5 -100t-1 -104.5q0 -64 1.5 -107t8 -105t19 -103t36 -87t57 -73.5t84 -45.5t115.5 -18z" />
    <glyph glyph-name="oe" unicode="&#x153;" horiz-adv-x="1523" 
d="M506 6h-96q-65 0 -115.5 11.5t-85 30t-58.5 51t-37.5 64.5t-20.5 81.5t-9 90.5t-2 103q0 58 2 100t9.5 92t21.5 84.5t38 69.5t58.5 56t84.5 34t114 13h96q190 0 264 -115q59 109 246 109h209q55 0 95 -12.5t62.5 -31.5t35.5 -48t16.5 -55t3.5 -60q0 -35 -4 -62t-17 -57
t-36 -50t-63.5 -33t-96.5 -13h-385v-183q0 -106 38.5 -148t141.5 -42h133q113 0 149.5 43t36.5 141h103q0 -59 -12 -104t-42 -84.5t-89 -60.5t-146 -21h-133q-187 0 -244 111q-72 -105 -266 -105zM410 92h96q37 0 67.5 5.5t52.5 16t39.5 25t28 32.5t18.5 39.5t11.5 45
t5.5 49t2 52.5v54v29v4q0 68 -1.5 103.5t-13 92.5t-34 86t-67 52t-109.5 23h-96q-37 0 -67 -7.5t-52 -18.5t-39.5 -31t-28.5 -37.5t-19 -47t-11.5 -50.5t-5.5 -56.5t-2.5 -55.5t-0.5 -57v-34q0 -28 -0.5 -54.5t2 -52t6 -48.5t11 -44t18.5 -38.5t28.5 -31.5t40 -24t53 -15.5
t67.5 -5.5zM836 606v-65h385q71 0 92.5 31.5t21.5 101.5q0 66 -20 93.5t-90 27.5h-209q-103 0 -141.5 -41t-38.5 -148z" />
    <glyph glyph-name="Racute" unicode="&#x154;" horiz-adv-x="1052" 
d="M520 1313h-108l86 125h145zM246 0h-103v1219h480q69 0 121 -14.5t83.5 -38t50.5 -60t26 -74.5t7 -86v-119q0 -47 -7 -84.5t-26 -73.5t-50.5 -59.5t-83.5 -38t-121 -14.5h-103l408 -557h-121l-408 557h-153v-557zM246 1133v-492h377q59 0 96.5 11.5t57 37t26 57t6.5 80.5
v119q0 49 -6.5 80.5t-26 57.5t-57 37.5t-96.5 11.5h-377z" />
    <glyph glyph-name="racute" unicode="&#x155;" horiz-adv-x="684" 
d="M412 985h-109l86 125h146zM205 0h-103v623q0 56 13 99.5t43.5 81t88 57.5t138.5 20h268v-86h-266q-105 0 -143.5 -45t-38.5 -132v-618z" />
    <glyph glyph-name="uni0156" unicode="&#x156;" horiz-adv-x="1052" 
d="M246 0h-103v1219h480q69 0 121 -14.5t83.5 -38t50.5 -60t26 -74.5t7 -86v-119q0 -47 -7 -84.5t-26 -73.5t-50.5 -59.5t-83.5 -38t-121 -14.5h-103l408 -557h-121l-408 557h-153v-557zM246 1133v-492h377q59 0 96.5 11.5t57 37t26 57t6.5 80.5v119q0 49 -6.5 80.5
t-26 57.5t-57 37.5t-96.5 11.5h-377zM520 -240h-108l86 127h145z" />
    <glyph glyph-name="uni0157" unicode="&#x157;" horiz-adv-x="684" 
d="M205 0h-103v623q0 56 13 99.5t43.5 81t88 57.5t138.5 20h268v-86h-266q-105 0 -143.5 -45t-38.5 -132v-618zM336 -240h-109l86 127h146z" />
    <glyph glyph-name="Rcaron" unicode="&#x158;" horiz-adv-x="1052" 
d="M553 1313h-64l-108 125h111l32 -45l31 45h113zM246 0h-103v1219h480q69 0 121 -14.5t83.5 -38t50.5 -60t26 -74.5t7 -86v-119q0 -47 -7 -84.5t-26 -73.5t-50.5 -59.5t-83.5 -38t-121 -14.5h-103l408 -557h-121l-408 557h-153v-557zM246 1133v-492h377q59 0 96.5 11.5
t57 37t26 57t6.5 80.5v119q0 49 -6.5 80.5t-26 57.5t-57 37.5t-96.5 11.5h-377z" />
    <glyph glyph-name="rcaron" unicode="&#x159;" horiz-adv-x="684" 
d="M424 985h-66l-106 125h108l33 -45l31 45h113zM205 0h-103v623q0 56 13 99.5t43.5 81t88 57.5t138.5 20h268v-86h-266q-105 0 -143.5 -45t-38.5 -132v-618z" />
    <glyph glyph-name="Sacute" unicode="&#x15a;" horiz-adv-x="1013" 
d="M500 1313h-107l86 125h146zM123 295v29h102v-29q0 -46 2.5 -73.5t13 -56.5t30.5 -44.5t55 -25t86 -9.5h190q113 0 149.5 43t36.5 141v119q0 98 -36.5 141t-149.5 43h-190q-86 0 -145 21t-89.5 61t-42.5 85.5t-12 105.5v100q0 61 12 106.5t42.5 85t89.5 60.5t145 21h151
q76 0 130.5 -17.5t84.5 -44t47.5 -68t22 -78.5t4.5 -87v-29h-102v29q0 38 -1.5 61.5t-7.5 50.5t-18.5 42.5t-33 29t-52 19.5t-74.5 6h-151q-59 0 -96.5 -11.5t-57 -37t-26.5 -57.5t-7 -81v-100q0 -49 7 -81t26.5 -57.5t57 -37t96.5 -11.5h190q69 0 121 -14.5t83.5 -38
t51 -59.5t26.5 -73.5t7 -84.5v-119q0 -47 -7 -84.5t-26.5 -73.5t-51 -59.5t-83.5 -38t-121 -14.5h-190q-76 0 -130.5 17.5t-84.5 43.5t-47.5 67.5t-22 78.5t-4.5 88z" />
    <glyph glyph-name="sacute" unicode="&#x15b;" horiz-adv-x="774" 
d="M416 987h-109l86 125h146zM438 0h-317v86h317q75 0 118.5 46t43.5 112q0 75 -39 122.5t-119 47.5h-100q-130 0 -196 65.5t-66 163.5q0 102 61 170t195 68h299v-86h-297q-160 0 -160 -152q0 -83 50.5 -113t142.5 -30h73q71 0 123 -23.5t79 -63t39.5 -81.5t12.5 -88
q0 -98 -65 -171t-195 -73z" />
    <glyph glyph-name="Scircumflex" unicode="&#x15c;" horiz-adv-x="1013" 
d="M473 1313h-108l108 125h64l114 -125h-114l-31 45zM123 295v29h102v-29q0 -46 2.5 -73.5t13 -56.5t30.5 -44.5t55 -25t86 -9.5h190q113 0 149.5 43t36.5 141v119q0 98 -36.5 141t-149.5 43h-190q-86 0 -145 21t-89.5 61t-42.5 85.5t-12 105.5v100q0 61 12 106.5t42.5 85
t89.5 60.5t145 21h151q76 0 130.5 -17.5t84.5 -44t47.5 -68t22 -78.5t4.5 -87v-29h-102v29q0 38 -1.5 61.5t-7.5 50.5t-18.5 42.5t-33 29t-52 19.5t-74.5 6h-151q-59 0 -96.5 -11.5t-57 -37t-26.5 -57.5t-7 -81v-100q0 -49 7 -81t26.5 -57.5t57 -37t96.5 -11.5h190
q69 0 121 -14.5t83.5 -38t51 -59.5t26.5 -73.5t7 -84.5v-119q0 -47 -7 -84.5t-26.5 -73.5t-51 -59.5t-83.5 -38t-121 -14.5h-190q-76 0 -130.5 17.5t-84.5 43.5t-47.5 67.5t-22 78.5t-4.5 88z" />
    <glyph glyph-name="scircumflex" unicode="&#x15d;" horiz-adv-x="774" 
d="M350 985h-110l108 125h64l114 -125h-114l-31 45zM438 0h-317v86h317q75 0 118.5 46t43.5 112q0 75 -39 122.5t-119 47.5h-100q-130 0 -196 65.5t-66 163.5q0 102 61 170t195 68h299v-86h-297q-160 0 -160 -152q0 -83 50.5 -113t142.5 -30h73q71 0 123 -23.5t79 -63
t39.5 -81.5t12.5 -88q0 -98 -65 -171t-195 -73z" />
    <glyph glyph-name="Scedilla" unicode="&#x15e;" horiz-adv-x="1013" 
d="M123 295v29h102v-29q0 -46 2.5 -73.5t13 -56.5t30.5 -44.5t55 -25t86 -9.5h190q113 0 149.5 43t36.5 141v119q0 98 -36.5 141t-149.5 43h-190q-86 0 -145 21t-89.5 61t-42.5 85.5t-12 105.5v100q0 61 12 106.5t42.5 85t89.5 60.5t145 21h151q76 0 130.5 -17.5t84.5 -43.5
t47.5 -67.5t22 -78.5t4.5 -88v-29h-102v29q0 45 -2.5 72.5t-13 57t-30.5 44.5t-55 25t-86 10h-151q-59 0 -96.5 -11.5t-57 -37t-26.5 -57.5t-7 -81v-100q0 -49 7 -81t26.5 -57.5t57 -37t96.5 -11.5h190q69 0 121 -14.5t83.5 -38t51 -59.5t26.5 -73.5t7 -84.5v-119
q0 -47 -7 -84.5t-26.5 -73.5t-51 -59.5t-83.5 -38t-121 -14.5h-57l-39 -68q64 1 98.5 -24t32.5 -70q0 -25 -10 -44t-26 -31t-37.5 -21t-45 -12.5t-48 -6.5t-47 -2t-41.5 0h-17v64h15.5h22t24.5 0.5t28 2.5t26.5 4.5t25 7t19.5 10.5t14.5 14.5t4.5 19.5q2 49 -142 37l64 119
h-55q-76 0 -130.5 17.5t-84.5 43.5t-47.5 67.5t-22 78.5t-4.5 88z" />
    <glyph glyph-name="scedilla" unicode="&#x15f;" horiz-adv-x="774" 
d="M334 0h-213v86h317q75 0 118.5 46t43.5 112q0 75 -38.5 122.5t-119.5 47.5h-98q-132 0 -198 65t-66 164q0 48 13.5 88.5t42 75.5t80.5 54.5t122 19.5h297v-86h-295q-162 0 -162 -152q0 -83 50.5 -113t142.5 -30h73q71 0 123 -23.5t79 -63t39.5 -81.5t12.5 -88
q0 -98 -65 -171t-195 -73h-26l-35 -68q65 1 100 -23t33 -69q-1 -42 -30 -68t-69.5 -33.5t-85.5 -11t-77 0.5h-8v65q13 -2 42.5 -1t59.5 4t53 16t23 34q1 22 -29 32t-61 8t-47 -3z" />
    <glyph glyph-name="Scaron" unicode="&#x160;" horiz-adv-x="1013" 
d="M537 1313h-64l-108 125h108l33 -45l31 45h114zM123 295v29h102v-29q0 -46 2.5 -73.5t13 -56.5t30.5 -44.5t55 -25t86 -9.5h190q113 0 149.5 43t36.5 141v119q0 98 -36.5 141t-149.5 43h-190q-86 0 -145 21t-89.5 61t-42.5 85.5t-12 105.5v100q0 61 12 106.5t42.5 85
t89.5 60.5t145 21h151q76 0 130.5 -17.5t84.5 -44t47.5 -68t22 -78.5t4.5 -87v-29h-102v29q0 38 -1.5 61.5t-7.5 50.5t-18.5 42.5t-33 29t-52 19.5t-74.5 6h-151q-59 0 -96.5 -11.5t-57 -37t-26.5 -57.5t-7 -81v-100q0 -49 7 -81t26.5 -57.5t57 -37t96.5 -11.5h190
q69 0 121 -14.5t83.5 -38t51 -59.5t26.5 -73.5t7 -84.5v-119q0 -47 -7 -84.5t-26.5 -73.5t-51 -59.5t-83.5 -38t-121 -14.5h-190q-76 0 -130.5 17.5t-84.5 43.5t-47.5 67.5t-22 78.5t-4.5 88z" />
    <glyph glyph-name="scaron" unicode="&#x161;" horiz-adv-x="774" 
d="M403 985h-65l-107 125h109l33 -45l30 45h113zM438 0h-317v86h317q75 0 118.5 46t43.5 112q0 75 -39 122.5t-119 47.5h-100q-130 0 -196 65.5t-66 163.5q0 102 61 170t195 68h299v-86h-297q-160 0 -160 -152q0 -83 50.5 -113t142.5 -30h73q71 0 123 -23.5t79 -63
t39.5 -81.5t12.5 -88q0 -98 -65 -171t-195 -73z" />
    <glyph glyph-name="uni0162" unicode="&#x162;" horiz-adv-x="1024" 
d="M489 0h-28v1133h-441v86h984v-86h-441v-1133l-45 -86q61 1 95 -23.5t32 -68.5q0 -24 -10.5 -42.5t-24.5 -30t-39 -20t-42.5 -12.5t-48.5 -6t-44 -2h-41h-14v66q106 0 143 16q30 13 31 37q1 14 -11.5 23.5t-29 13t-38.5 4t-33.5 0t-22.5 -1.5z" />
    <glyph glyph-name="uni0163" unicode="&#x163;" horiz-adv-x="610" 
d="M223 -272v65q110 0 148 17q31 15 32 40q2 49 -141 37l60 115q-74 4 -121.5 22t-71.5 52.5t-32.5 75.5t-8.5 102v541h-57v86h57v145h102v-145h250v-86h-250v-541q0 -52 4.5 -79t20.5 -50t49 -31t90 -8h221v-86h-176l-34 -61q63 0 98 -25.5t33 -69.5q0 -24 -11 -43.5
t-24.5 -31.5t-39.5 -20.5t-43.5 -12.5t-50.5 -6t-46 -2h-42h-16z" />
    <glyph glyph-name="Tcaron" unicode="&#x164;" horiz-adv-x="1024" 
d="M541 1313h-64l-106 125h108l31 -45l31 45h114zM563 -2h-102v1135h-441v86h984v-86h-441v-1135z" />
    <glyph glyph-name="tcaron" unicode="&#x165;" horiz-adv-x="624" 
d="M446 985h-108l86 125h145zM584 0h-222q-69 -1 -118 11.5t-77.5 33t-44.5 55t-21 69.5t-5 85v541h-57v86h57v145h103v-145h250v-86h-250v-541q0 -52 4 -79t20.5 -50t49 -31t89.5 -8h222v-86z" />
    <glyph glyph-name="Tbar" unicode="&#x166;" horiz-adv-x="1024" 
d="M563 -2h-102v731h-219v86h219v318h-441v86h984v-86h-441v-318h219v-86h-219v-731z" />
    <glyph glyph-name="tbar" unicode="&#x167;" horiz-adv-x="624" 
d="M590 0h-221q-69 -1 -118 11.5t-78 33t-45 55t-21 69.5t-5 85v281h-63v86h63v174h-57v86h57v145h103v-145h250v-86h-250v-174h250v-86h-250v-281q0 -52 4.5 -79t20.5 -50t49 -31t90 -8h221v-86z" />
    <glyph glyph-name="Utilde" unicode="&#x168;" horiz-adv-x="1034" 
d="M289 1313v119q68 63 133 63q45 0 114 -40t103 -40q53 0 109 64v-121q-56 -45 -107 -45q-40 0 -108 36.5t-107 36.5q-64 0 -137 -73zM133 295v924h103v-924q0 -86 52.5 -147.5t153.5 -61.5h150q101 0 154 61.5t53 147.5v924h102v-924q0 -52 -18.5 -102.5t-54 -94.5
t-97 -71t-139.5 -27h-150q-77 0 -138.5 27t-97.5 71t-54.5 94.5t-18.5 102.5z" />
    <glyph glyph-name="utilde" unicode="&#x169;" horiz-adv-x="911" 
d="M270 999v95q50 45 103 45q39 0 100 -35t90 -35q40 0 80 51v-98q-44 -41 -88 -41q-35 0 -98 37t-95 37q-47 0 -92 -56zM102 274v609h103v-609q0 -99 37.5 -142.5t150.5 -43.5h127q62 0 100.5 11t57 37.5t24 56.5t5.5 81v609h102v-609q0 -62 -12 -108t-42.5 -85t-89.5 -59
t-145 -20h-129q-86 0 -145 21t-89.5 60.5t-42.5 85t-12 105.5z" />
    <glyph glyph-name="Umacron" unicode="&#x16a;" horiz-adv-x="1034" 
d="M776 1313h-518v86h518v-86zM133 295v924h103v-924q0 -86 52.5 -147.5t153.5 -61.5h150q101 0 154 61.5t53 147.5v924h102v-924q0 -52 -18.5 -102.5t-54 -94.5t-97 -71t-139.5 -27h-150q-77 0 -138.5 27t-97.5 71t-54.5 94.5t-18.5 102.5z" />
    <glyph glyph-name="umacron" unicode="&#x16b;" horiz-adv-x="911" 
d="M694 985h-475v86h475v-86zM102 274v609h103v-609q0 -99 37.5 -142.5t150.5 -43.5h127q62 0 100.5 11t57 37.5t24 56.5t5.5 81v609h102v-609q0 -62 -12 -108t-42.5 -85t-89.5 -59t-145 -20h-129q-86 0 -145 21t-89.5 60.5t-42.5 85t-12 105.5z" />
    <glyph glyph-name="Ubreve" unicode="&#x16c;" horiz-adv-x="1034" 
d="M338 1442h74q2 -19 3.5 -26t7.5 -18t19.5 -14.5t36.5 -3.5h84q37 0 48.5 16t13.5 46h73q-5 -65 -31.5 -97t-103.5 -32h-84q-78 0 -107 30t-34 99zM133 295v924h103v-924q0 -86 52.5 -147.5t153.5 -61.5h150q101 0 154 61.5t53 147.5v924h102v-924q0 -52 -18.5 -102.5
t-54 -94.5t-97 -71t-139.5 -27h-150q-77 0 -138.5 27t-97.5 71t-54.5 94.5t-18.5 102.5z" />
    <glyph glyph-name="ubreve" unicode="&#x16d;" horiz-adv-x="911" 
d="M276 1114h74q2 -19 3.5 -26t8 -17.5t20 -14t36.5 -3.5h84q26 0 40 10t17 20.5t4 30.5h74q-5 -65 -31.5 -97t-103.5 -32h-84q-78 0 -107.5 30t-34.5 99zM102 274v609h103v-609q0 -99 37.5 -142.5t150.5 -43.5h127q62 0 100.5 11t57 37.5t24 56.5t5.5 81v609h102v-609
q0 -62 -12 -108t-42.5 -85t-89.5 -59t-145 -20h-129q-86 0 -145 21t-89.5 60.5t-42.5 85t-12 105.5z" />
    <glyph glyph-name="Uring" unicode="&#x16e;" horiz-adv-x="1034" 
d="M514 1313q-37 0 -66 14t-43.5 36.5t-21.5 49.5t0.5 54t22.5 49.5t44 36.5t66 14q38 0 68 -14t45.5 -36.5t23 -49.5t0 -54t-23.5 -49.5t-46 -36.5t-69 -14zM518 1389q33 0 46.5 26t0.5 52t-45 26q-34 0 -48 -26t-0.5 -52t46.5 -26zM133 295v924h103v-924
q0 -86 52.5 -147.5t153.5 -61.5h150q101 0 154 61.5t53 147.5v924h102v-924q0 -52 -18.5 -102.5t-54 -94.5t-97 -71t-139.5 -27h-150q-77 0 -138.5 27t-97.5 71t-54.5 94.5t-18.5 102.5z" />
    <glyph glyph-name="uring" unicode="&#x16f;" horiz-adv-x="911" 
d="M455 985q-37 0 -66 14t-43.5 36.5t-21.5 49.5t0.5 54t22.5 49.5t44 36.5t66 14q38 0 68 -14t45.5 -36.5t23 -49.5t0 -54t-23.5 -49.5t-46 -36.5t-69 -14zM459 1061q33 0 46.5 26t0.5 52t-45 26q-33 0 -46.5 -26t-0.5 -52t45 -26zM102 274v609h103v-609q0 -99 37.5 -142.5
t150.5 -43.5h127q62 0 100.5 11t57 37.5t24 56.5t5.5 81v609h102v-609q0 -62 -12 -108t-42.5 -85t-89.5 -59t-145 -20h-129q-86 0 -145 21t-89.5 60.5t-42.5 85t-12 105.5z" />
    <glyph glyph-name="Uhungarumlaut" unicode="&#x170;" horiz-adv-x="1034" 
d="M444 1313h-98l86 125h123zM633 1313h-101l86 125h123zM133 295v924h103v-924q0 -86 52.5 -147.5t153.5 -61.5h150q101 0 154 61.5t53 147.5v924h102v-924q0 -52 -18.5 -102.5t-54 -94.5t-97 -71t-139.5 -27h-150q-77 0 -138.5 27t-97.5 71t-54.5 94.5t-18.5 102.5z" />
    <glyph glyph-name="uhungarumlaut" unicode="&#x171;" horiz-adv-x="911" 
d="M377 985h-98l86 125h120zM563 985h-98l86 125h123zM102 274v609h103v-609q0 -99 37.5 -142.5t150.5 -43.5h127q62 0 100.5 11t57 37.5t24 56.5t5.5 81v609h102v-609q0 -62 -12 -108t-42.5 -85t-89.5 -59t-145 -20h-129q-86 0 -145 21t-89.5 60.5t-42.5 85t-12 105.5z" />
    <glyph glyph-name="Uogonek" unicode="&#x172;" horiz-adv-x="1034" 
d="M133 295v924h103v-924q0 -86 52.5 -147.5t153.5 -61.5h150q101 0 154 61.5t53 147.5v924h102v-924q0 -76 -37 -146t-100 -106q-40 -31 -60 -67.5t-14 -57.5q8 -22 33 -22q20 0 44 13t42 32v-95q-53 -45 -109 -45q-67 0 -96 60q-31 63 12 141q-6 -2 -24 -2h-150
q-77 0 -138.5 27t-97.5 71t-54.5 94.5t-18.5 102.5z" />
    <glyph glyph-name="uogonek" unicode="&#x173;" horiz-adv-x="911" 
d="M102 274v609h103v-609q0 -99 37.5 -142.5t150.5 -43.5h127q62 0 100.5 11t57 37.5t24 56.5t5.5 81v609h102v-609q0 -86 -25 -145.5t-88 -91.5q-38 -33 -56.5 -67.5t-12.5 -57.5q6 -21 32 -21q20 0 44 13.5t42 32.5v-95q-53 -45 -108 -45q-67 0 -96 60q-32 69 16 147
q-10 -2 -37 -2h-129q-86 0 -145 21t-89.5 60.5t-42.5 85t-12 105.5z" />
    <glyph glyph-name="Wcircumflex" unicode="&#x174;" horiz-adv-x="1673" 
d="M803 1313h-109l109 125h63l115 -125h-115l-30 45zM516 0h-106l-390 1219h107l336 -1055l328 1055h94l336 -1055l325 1055h107l-379 -1219h-109l-327 1030z" />
    <glyph glyph-name="wcircumflex" unicode="&#x175;" horiz-adv-x="1529" 
d="M733 983h-110l108 125h64l114 -125h-114l-31 45zM102 272v609h103v-609q0 -99 37.5 -142.5t150.5 -43.5h133q62 0 100.5 11t57 37.5t24 56.5t5.5 81v609h102v-609q0 -99 38 -142.5t151 -43.5h133q62 0 100.5 11t56.5 37.5t23.5 56.5t5.5 81v609h102v-609
q0 -63 -12 -108.5t-42.5 -84.5t-89 -59t-144.5 -20h-133q-170 0 -238 88q-66 -88 -240 -88h-135q-86 0 -145 21t-89.5 60.5t-42.5 85t-12 105.5z" />
    <glyph glyph-name="Ycircumflex" unicode="&#x176;" horiz-adv-x="946" 
d="M440 1313h-108l106 125h66l114 -125h-114l-31 45zM524 6h-102v592l-399 621h116l336 -519l336 519h115l-404 -625z" />
    <glyph glyph-name="ycircumflex" unicode="&#x177;" horiz-adv-x="933" 
d="M432 983h-108l108 125h64l114 -125h-114l-31 45zM102 -66h103q0 -49 6.5 -80.5t26 -57t57 -37t96.5 -11.5h94q116 0 169 42.5t53 129.5v125q-64 -43 -187 -43h-129q-86 0 -145 21t-89.5 60.5t-42.5 85t-12 105.5v609h103v-609q0 -99 37.5 -142.5t150.5 -43.5h127
q62 0 100.5 11t57 37.5t24 56.5t5.5 81v609h102v-961q0 -126 -80 -193t-242 -67h-96q-86 0 -145 20.5t-89.5 60t-42.5 85t-12 106.5z" />
    <glyph glyph-name="Ydieresis" unicode="&#x178;" horiz-adv-x="946" 
d="M383 1313q-43 0 -60.5 30t0 59.5t60.5 29.5q31 0 49 -18.5t18 -41t-18 -41t-49 -18.5zM569 1313q-42 0 -59.5 30t-0.5 59.5t60 29.5q30 0 47.5 -18.5t17.5 -41t-17.5 -41t-47.5 -18.5zM524 8h-102v592l-399 619h116l336 -517l336 517h115l-404 -623z" />
    <glyph glyph-name="Zacute" unicode="&#x179;" horiz-adv-x="1013" 
d="M500 1313h-107l86 125h144zM891 0h-768v74l639 1059h-639v86h768v-70l-641 -1063h641v-86z" />
    <glyph glyph-name="zacute" unicode="&#x17a;" horiz-adv-x="782" 
d="M500 987h-109l86 125h146zM655 748l-454 -662h481v-86h-518q-46 0 -62 40t13 83l463 672h-449v86h457q50 0 73.5 -21.5t20.5 -51t-25 -60.5z" />
    <glyph glyph-name="Zdotaccent" unicode="&#x17b;" horiz-adv-x="1013" 
d="M508 1313q-43 0 -61 30t0 59.5t61 29.5q31 0 49 -18.5t18 -41t-18 -41t-49 -18.5zM891 0h-768v74l639 1059h-639v86h768v-70l-641 -1063h641v-86z" />
    <glyph glyph-name="zdotaccent" unicode="&#x17c;" horiz-adv-x="782" 
d="M467 985q-43 0 -60.5 29.5t0 59.5t60.5 30q31 0 49 -18.5t18 -41t-18 -41t-49 -18.5zM655 748l-454 -662h481v-86h-518q-46 0 -62 40t13 83l463 672h-449v86h457q50 0 73.5 -21.5t20.5 -51t-25 -60.5z" />
    <glyph glyph-name="Zcaron" unicode="&#x17d;" horiz-adv-x="1013" 
d="M537 1313h-64l-108 125h108l33 -45l31 45h114zM891 0h-768v74l639 1059h-639v86h768v-70l-641 -1063h641v-86z" />
    <glyph glyph-name="zcaron" unicode="&#x17e;" horiz-adv-x="782" 
d="M489 985h-63l-109 125h111l31 -45l30 45h115zM655 748l-454 -662h481v-86h-518q-46 0 -62 40t13 83l463 672h-449v86h457q50 0 73.5 -21.5t20.5 -51t-25 -60.5z" />
    <glyph glyph-name="longs" unicode="&#x17f;" horiz-adv-x="499" 
d="M205 0h-103v985q0 117 50.5 175t166.5 59h105v-86h-102q-40 0 -65 -10.5t-35.5 -34t-13.5 -46t-3 -61.5v-981z" />
    <glyph glyph-name="florin" unicode="&#x192;" horiz-adv-x="567" 
d="M113 0h-103v86h101q39 0 63.5 10.5t35.5 34t14 46.5t3 63v557h-77v86h77v100q0 119 50.5 177t166.5 59h105v-86h-103q-32 0 -54.5 -8t-34.5 -19.5t-18 -34t-7.5 -41.5t-1.5 -51v-96l182 -2v-86h-182v-559q0 -118 -50 -176.5t-167 -59.5z" />
    <glyph glyph-name="uni0218" unicode="&#x218;" horiz-adv-x="1013" 
d="M123 295v29h102v-29q0 -46 2.5 -73.5t13 -56.5t30.5 -44.5t55 -25t86 -9.5h190q113 0 149.5 43t36.5 141v119q0 98 -36.5 141t-149.5 43h-190q-86 0 -145 21t-89.5 61t-42.5 85.5t-12 105.5v100q0 61 12 106.5t42.5 85t89.5 60.5t145 21h151q76 0 130.5 -17.5t84.5 -44
t47.5 -68t22 -78.5t4.5 -87v-29h-102v29q0 38 -1.5 61.5t-7.5 50.5t-18.5 42.5t-33 29t-52 19.5t-74.5 6h-151q-59 0 -96.5 -11.5t-57 -37t-26.5 -57.5t-7 -81v-100q0 -49 7 -81t26.5 -57.5t57 -37t96.5 -11.5h190q69 0 121 -14.5t83.5 -38t51 -59.5t26.5 -73.5t7 -84.5
v-119q0 -47 -7 -84.5t-26.5 -73.5t-51 -59.5t-83.5 -38t-121 -14.5h-190q-76 0 -130.5 17.5t-84.5 43.5t-47.5 67.5t-22 78.5t-4.5 88zM500 -240h-107l86 125h146z" />
    <glyph glyph-name="uni0219" unicode="&#x219;" horiz-adv-x="794" 
d="M453 0h-334v86h334q75 0 118 46t43 112q0 75 -38 122.5t-119 47.5h-115q-130 0 -196 65.5t-66 163.5q0 102 61 170t195 68h323v-86h-321q-160 0 -160 -152q0 -83 50.5 -113t142.5 -30h88q71 0 123 -23.5t79 -63t39.5 -81.5t12.5 -88q0 -98 -65 -171t-195 -73zM381 -240
h-109l86 125h146z" />
    <glyph glyph-name="uni021A" unicode="&#x21a;" horiz-adv-x="1024" 
d="M563 -2h-102v1135h-441v86h984v-86h-441v-1135zM471 -238h-109l87 125h145z" />
    <glyph glyph-name="uni021B" unicode="&#x21b;" horiz-adv-x="610" 
d="M575 0h-221q-69 -1 -118 11.5t-77.5 33t-44.5 55t-21 69.5t-5 85v541h-57v86h57v145h102v-145h250v-86h-250v-541q0 -52 4.5 -79t20.5 -50t49 -31t90 -8h221v-86zM297 -240h-109l86 125h146z" />
    <glyph glyph-name="uni0237" unicode="&#x237;" horiz-adv-x="335" 
d="M-92 -338v86q60 0 97.5 11.5t56.5 37t25.5 56t6.5 79.5v949h103v-949q0 -60 -12 -105t-42 -85t-89 -60.5t-146 -19.5z" />
    <glyph glyph-name="circumflex" unicode="&#x2c6;" horiz-adv-x="333" 
d="M133 1290h-108l106 127h66l112 -127h-112l-31 47z" />
    <glyph glyph-name="caron" unicode="&#x2c7;" horiz-adv-x="333" 
d="M197 1290h-66l-106 127h108l33 -47l31 47h112z" />
    <glyph glyph-name="breve" unicode="&#x2d8;" horiz-adv-x="464" 
d="M55 1348h72q2 -19 3.5 -26t8 -18t20 -14.5t36.5 -3.5h84q20 0 32 4.5t18 16t7.5 18t3.5 23.5h72q-3 -64 -30 -96.5t-103 -32.5h-84q-76 0 -106.5 30.5t-33.5 98.5z" />
    <glyph glyph-name="dotaccent" unicode="&#x2d9;" horiz-adv-x="169" 
d="M86 1100q-43 0 -61 30t0 59.5t61 29.5q31 0 49 -18.5t18 -41t-18 -41t-49 -18.5z" />
    <glyph glyph-name="ring" unicode="&#x2da;" horiz-adv-x="317" 
d="M154 1217q-51 0 -86 26t-42.5 63.5t1 74.5t43.5 63t86 26q38 0 68 -14t45.5 -36.5t23 -49t0 -53.5t-23.5 -49.5t-46 -36.5t-69 -14zM158 1292q33 0 46.5 26t0.5 52.5t-45 26.5q-33 0 -47 -26.5t-1 -52.5t46 -26z" />
    <glyph glyph-name="ogonek" unicode="&#x2db;" horiz-adv-x="262" 
d="M203 41l30 -66q-37 -24 -67 -50.5t-44.5 -45t-12.5 -24.5q3 -7 12 -7q30 0 108 70l7 -90q-67 -53 -123 -53q-45 0 -66 35q-15 34 -8 65.5t36.5 64.5t61 57t66.5 44z" />
    <glyph glyph-name="tilde" unicode="&#x2dc;" horiz-adv-x="413" 
d="M18 1233v94q50 45 103 45q39 0 100 -34.5t90 -34.5q40 0 80 51v-99q-44 -41 -88 -41q-36 0 -97.5 37t-94.5 37q-49 0 -93 -55z" />
    <glyph glyph-name="hungarumlaut" unicode="&#x2dd;" horiz-adv-x="444" 
d="M121 1217h-98l86 124h120zM307 1217h-98l86 124h121z" />
    <glyph glyph-name="uni0326" unicode="&#x326;" horiz-adv-x="307" 
d="M133 -217h-108l86 125h145z" />
    <glyph glyph-name="tonos" unicode="&#x384;" horiz-adv-x="307" 
d="M152 1219h-109l86 124h145z" />
    <glyph glyph-name="Alphatonos" unicode="&#x386;" horiz-adv-x="1060" 
d="M387 1178h-106l86 127h143zM610 0h-567l487 1217h107l383 -1217h-107l-335 1063l-392 -977h424v-86z" />
    <glyph glyph-name="Epsilontonos" unicode="&#x388;" horiz-adv-x="1073" 
d="M145 1180h-108l86 125h145zM952 557h-661v-285q0 -49 6.5 -80.5t26 -57t57 -37t96.5 -11.5h475v-86h-475q-86 0 -145 21t-89.5 60.5t-42.5 85t-12 105.5v674q0 61 12 106.5t42.5 85t89.5 60.5t145 21h477v-86h-477q-59 0 -96.5 -11.5t-57 -37.5t-26 -57.5t-6.5 -80.5
v-305h661v-84z" />
    <glyph glyph-name="Etatonos" unicode="&#x389;" horiz-adv-x="1206" 
d="M141 1180h-108l86 125h145zM397 2h-102v1217h102v-617h561v617h103v-1217h-103v514h-561v-514z" />
    <glyph glyph-name="Iotatonos" unicode="&#x38a;" horiz-adv-x="546" 
d="M137 1178h-106l86 127h143zM401 0h-102v1219h102v-1219z" />
    <glyph glyph-name="Omicrontonos" unicode="&#x38c;" horiz-adv-x="1067" 
d="M162 1180h-107l86 125h144zM532 0q-79 0 -143 18t-108 48t-77 76.5t-52 95.5t-30.5 114t-15.5 123.5t-4 130.5q0 76 2.5 132t13 124t28 116t50 96.5t77 78t110.5 48t149 18.5q65 0 119.5 -11t95.5 -30t74 -49.5t55 -63t38.5 -77t25.5 -85.5t14.5 -95t7 -99t1.5 -103
q0 -72 -4 -130.5t-15.5 -123t-30.5 -114t-52 -96t-77.5 -76.5t-108.5 -48t-143 -18zM532 86q65 0 116 18t84 45.5t57 73.5t36.5 87.5t19 103t8 104.5t1.5 107q0 51 -0.5 81.5t-3.5 79t-9 78.5t-17 70.5t-27 66t-40.5 53.5t-56 43.5t-74 25.5t-94.5 10q-66 0 -117.5 -17
t-85 -40.5t-57 -68t-35 -80.5t-18 -97.5t-7.5 -100t-1 -104.5q0 -64 1.5 -107t8 -105t19 -103t36 -87t57 -73.5t84 -45.5t115.5 -18z" />
    <glyph glyph-name="Upsilontonos" unicode="&#x38e;" horiz-adv-x="1198" 
d="M133 1178h-106l86 127h143zM776 2h-100v596l-400 621h117l334 -519l336 519h117l-404 -625v-592z" />
    <glyph glyph-name="Omegatonos" unicode="&#x38f;" horiz-adv-x="1415" 
d="M600 0h-487v102h245q-121 81 -183.5 226t-59.5 309q2 114 38.5 215t106.5 184t186 132t265 49q120 0 220 -34t167.5 -91.5t114 -135t67.5 -163t20 -177.5q0 -159 -62.5 -298t-178.5 -216h246v-102h-488v102q162 21 264.5 171t108.5 343q3 97 -23 183.5t-81.5 158.5
t-153 114t-225.5 42q-119 0 -212.5 -40.5t-149.5 -109t-85 -152t-31 -177.5q-3 -125 38.5 -240t129 -196.5t203.5 -96.5v-102zM137 1092h-108l86 125h145z" />
    <glyph glyph-name="iotadieresistonos" unicode="&#x390;" horiz-adv-x="688" 
d="M229 1139h-108l86 125h145zM45 985q-43 0 -60.5 29.5t0 59.5t60.5 30q31 0 49 -18.5t18 -41t-18 -41t-49 -18.5zM311 985q-43 0 -60.5 29.5t0 59.5t60.5 30q31 0 49 -18.5t18 -41t-18 -41t-49 -18.5zM614 0h-221q-69 -1 -118 11.5t-77.5 33t-44.5 55t-21 69.5t-5 85v625
h102v-625q0 -52 4.5 -79t20.5 -50t49 -31t90 -8h221v-86z" />
    <glyph glyph-name="Alpha" unicode="&#x391;" horiz-adv-x="1060" 
d="M610 0h-567l487 1217h107l383 -1217h-107l-335 1063l-392 -977h424v-86z" />
    <glyph glyph-name="Beta" unicode="&#x392;" horiz-adv-x="1032" 
d="M623 0h-480v1219h480q147 0 217.5 -63t70.5 -200v-120q0 -166 -98 -226q47 -29 72.5 -90t25.5 -139v-109q0 -60 -12 -105.5t-42 -85t-89 -60.5t-145 -21zM246 1133v-482h377q59 0 96.5 11.5t57 37.5t26 57.5t6.5 80.5v108q0 49 -6.5 80.5t-26 57.5t-57 37.5t-96.5 11.5
h-377zM246 565v-479h377q59 0 96.5 11.5t57 37t26 57t6.5 80.5v109q0 48 -7 79t-26 56.5t-56.5 37t-96.5 11.5h-377z" />
    <glyph glyph-name="Gamma" unicode="&#x393;" horiz-adv-x="1005" 
d="M233 2h-102v946q0 60 12 105t42.5 84.5t89.5 60.5t145 21h477v-86h-477q-113 0 -150 -43.5t-37 -141.5v-946z" />
    <glyph glyph-name="uni0394" unicode="&#x394;" horiz-adv-x="1064" 
d="M1020 0h-977l487 1217h107zM578 1063l-392 -977h701z" />
    <glyph glyph-name="Epsilon" unicode="&#x395;" horiz-adv-x="987" 
d="M866 557h-661v-285q0 -49 6.5 -80.5t26 -57t57 -37t96.5 -11.5h475v-86h-475q-86 0 -145 21t-89.5 60.5t-42.5 85t-12 105.5v674q0 61 12 106.5t42.5 85t89.5 60.5t145 21h477v-86h-477q-59 0 -96.5 -11.5t-57 -37.5t-26 -57.5t-6.5 -80.5v-305h661v-84z" />
    <glyph glyph-name="Zeta" unicode="&#x396;" horiz-adv-x="1013" 
d="M891 0h-768v74l639 1059h-639v86h768v-70l-641 -1063h641v-86z" />
    <glyph glyph-name="Eta" unicode="&#x397;" horiz-adv-x="1054" 
d="M246 2h-103v1217h103v-617h563v617h102v-1217h-102v514h-563v-514z" />
    <glyph glyph-name="Theta" unicode="&#x398;" horiz-adv-x="1058" 
d="M528 0q-79 0 -143 18t-108 48t-77 76.5t-52 95.5t-30.5 114t-15.5 123.5t-4 130.5q0 76 2.5 132t13 124t28 116t50 96.5t77 78t110.5 48t149 18.5t149 -18.5t110.5 -48t77 -78t50 -96.5t28 -116t13 -124t2.5 -132q0 -72 -4 -130.5t-15.5 -123.5t-30.5 -114t-52 -95.5
t-77 -76.5t-108 -48t-143 -18zM528 86q65 0 116 18t84 45.5t57 73.5t36.5 87t19 102.5t8 104t1.5 106.5q0 51 -0.5 81.5t-3.5 79t-9 79t-17 71t-27 66.5t-40.5 53.5t-56 43.5t-74 26t-94.5 10q-66 0 -117.5 -17t-85 -41t-57 -68.5t-35 -81t-18 -97.5t-7.5 -99.5t-1 -105.5
q0 -49 0.5 -82.5t4 -82t9.5 -82t17.5 -75.5t27.5 -70.5t40.5 -58t55.5 -47t73 -28.5t93 -11zM762 563h-461v86h461v-86z" />
    <glyph glyph-name="Iota" unicode="&#x399;" horiz-adv-x="391" 
d="M246 0h-103v1219h103v-1219z" />
    <glyph glyph-name="Kappa" unicode="&#x39a;" horiz-adv-x="983" 
d="M246 0h-103v1219h103v-570l559 570h135l-578 -584l576 -635h-133l-512 565l-47 -49v-516z" />
    <glyph glyph-name="Lambda" unicode="&#x39b;" horiz-adv-x="913" 
d="M18 0l390 1219h106l381 -1219h-107l-327 1055l-336 -1055h-107z" />
    <glyph glyph-name="Mu" unicode="&#x39c;" horiz-adv-x="1390" 
d="M246 0h-103v1219h109l444 -1069l443 1069h106v-1219h-102v971l-400 -971h-94l-403 969v-969z" />
    <glyph glyph-name="Nu" unicode="&#x39d;" horiz-adv-x="1056" 
d="M246 0h-103v1219h105l563 -1022v1022h102v-1219h-108l-559 1018v-1018z" />
    <glyph glyph-name="Xi" unicode="&#x39e;" horiz-adv-x="1013" 
d="M891 1133h-768v86h768v-86zM778 578h-540v86h540v-86zM891 0h-768v86h768v-86z" />
    <glyph glyph-name="Omicron" unicode="&#x39f;" horiz-adv-x="1067" 
d="M532 0q-79 0 -143 18t-108 48t-77 76.5t-52 95.5t-30.5 114t-15.5 123.5t-4 130.5q0 76 2.5 132t13 124t28 116t50 96.5t77 78t110.5 48t149 18.5q65 0 119.5 -11t95.5 -30t74 -49.5t55 -63t38.5 -77t25.5 -85.5t14.5 -95t7 -99t1.5 -103q0 -72 -4 -130.5t-15.5 -123
t-30.5 -114t-52 -96t-77.5 -76.5t-108.5 -48t-143 -18zM532 86q65 0 116 18t84 45.5t57 73.5t36.5 87.5t19 103t8 104.5t1.5 107q0 51 -0.5 81.5t-3.5 79t-9 78.5t-17 70.5t-27 66t-40.5 53.5t-56 43.5t-74 25.5t-94.5 10q-66 0 -117.5 -17t-85 -40.5t-57 -68t-35 -80.5
t-18 -97.5t-7.5 -100t-1 -104.5q0 -64 1.5 -107t8 -105t19 -103t36 -87t57 -73.5t84 -45.5t115.5 -18z" />
    <glyph glyph-name="Pi" unicode="&#x3a0;" horiz-adv-x="1040" 
d="M242 2h-103v1215h760v-1215h-102v1131h-555v-1131z" />
    <glyph glyph-name="Rho" unicode="&#x3a1;" horiz-adv-x="1021" 
d="M246 0h-103v1219h480q69 0 121 -14.5t83.5 -38t50.5 -60t26 -74.5t7 -86v-119q0 -47 -7 -84.5t-26 -73.5t-50.5 -59.5t-83.5 -38t-121 -14.5h-377v-557zM246 1133v-492h377q59 0 96.5 11.5t57 37t26 57t6.5 80.5v119q0 49 -6.5 80.5t-26 57.5t-57 37.5t-96.5 11.5h-377z
" />
    <glyph glyph-name="Sigma" unicode="&#x3a3;" horiz-adv-x="985" 
d="M584 655l-447 478v86h711v-86h-592l436 -469l-452 -578h608v-86h-711v86z" />
    <glyph glyph-name="Tau" unicode="&#x3a4;" horiz-adv-x="1024" 
d="M563 -2h-102v1135h-441v86h984v-86h-441v-1135z" />
    <glyph glyph-name="Upsilon" unicode="&#x3a5;" horiz-adv-x="946" 
d="M522 2h-100v596l-399 619h116l334 -519l336 519h117l-404 -623v-592z" />
    <glyph glyph-name="Phi" unicode="&#x3a6;" horiz-adv-x="1054" 
d="M573 2h-102v127q-58 3 -106.5 13t-84.5 24.5t-64.5 38t-47.5 46.5t-32.5 57.5t-21.5 64.5t-12 73t-5 77.5t-1 84.5t1 84.5t5 78t12 73.5t21.5 64.5t32.5 57.5t47.5 46.5t64.5 38t84.5 24t106.5 12.5v134h102v-134q76 -3 134.5 -18t98.5 -36.5t68 -58t43.5 -71.5t24 -88.5
t10.5 -97.5t2 -109t-2 -108.5t-10.5 -97t-24 -88t-43.5 -71t-68 -58.5t-98.5 -37.5t-134.5 -18.5v-127zM471 223v770q-77 -5 -127.5 -25.5t-78.5 -47t-41.5 -81.5t-16 -100t-2.5 -131t2.5 -131t16 -100t41.5 -81.5t78.5 -47t127.5 -25.5zM573 993v-770q40 2 73 7t58.5 15.5
t45.5 21t35 29.5t25 34.5t17 43t11 48t5.5 56.5t2 61t0.5 69t-0.5 69t-2 61t-5.5 56.5t-11 48t-17 43t-25 34.5t-35 29.5t-45.5 21t-58.5 15.5t-73 7z" />
    <glyph glyph-name="Chi" unicode="&#x3a7;" horiz-adv-x="946" 
d="M137 0h-114l393 608l-393 611h114l336 -519l336 519h115l-392 -611l392 -608h-115l-336 518z" />
    <glyph glyph-name="Psi" unicode="&#x3a8;" horiz-adv-x="1183" 
d="M133 719v500h103v-500q0 -85 52.5 -144t153.5 -59h99v701h102v-701h100q101 0 153 59t52 144v500h103v-500q0 -52 -18.5 -102.5t-54.5 -94.5t-97 -71t-138 -27h-100v-426h-102v426h-99q-77 0 -138.5 27t-97.5 71t-54.5 94.5t-18.5 102.5z" />
    <glyph glyph-name="uni03A9" unicode="&#x3a9;" horiz-adv-x="1415" 
d="M600 0h-487v102h245q-121 81 -183.5 226t-59.5 309q2 114 38.5 215t106.5 184t186 132t265 49q120 0 220 -34t167.5 -91.5t114 -135t67.5 -163t20 -177.5q0 -159 -62.5 -298t-178.5 -216h246v-102h-488v102q162 21 264.5 171t108.5 343q3 97 -23 183.5t-81.5 158.5
t-153 114t-225.5 42q-119 0 -212.5 -40.5t-149.5 -109t-85 -152t-31 -177.5q-3 -125 38.5 -240t129 -196.5t203.5 -96.5v-102z" />
    <glyph glyph-name="Iotadieresis" unicode="&#x3aa;" horiz-adv-x="391" 
d="M104 1313q-43 0 -60.5 30t0 59.5t60.5 29.5q31 0 49 -18.5t18 -41t-18 -41t-49 -18.5zM289 1313q-42 0 -59.5 30t-0.5 59.5t60 29.5q31 0 49 -18.5t18 -41t-18 -41t-49 -18.5zM246 2h-103v1217h103v-1217z" />
    <glyph glyph-name="Upsilondieresis" unicode="&#x3ab;" horiz-adv-x="946" 
d="M383 1313q-43 0 -60.5 30t0 59.5t60.5 29.5q31 0 49 -18.5t18 -41t-18 -41t-49 -18.5zM567 1313q-32 0 -50 18.5t-18 41t18 41t50 18.5q31 0 49 -18.5t18 -41t-18 -41t-49 -18.5zM522 2h-100v596l-399 619h116l334 -517l336 517h117l-404 -623v-592z" />
    <glyph glyph-name="alphatonos" unicode="&#x3ac;" horiz-adv-x="954" 
d="M520 985h-108l86 125h145zM926 86v-86q-140 3 -191 82q-33 -39 -96 -60.5t-123 -21.5h-80q-84 0 -146 23.5t-98 61.5t-58 97t-29 118.5t-7 137.5q1 62 3 103.5t9.5 92.5t21.5 83.5t38.5 66.5t60 53t87 31.5t118.5 12.5h80q113 0 184 -41l39 41h64v-631q0 -46 3 -70
t14.5 -48t37 -34.5t68.5 -11.5zM436 86h80q113 0 148.5 43t35.5 143v336q0 50 -6.5 81t-25.5 57t-56 37.5t-96 11.5h-80q-68 0 -114.5 -20t-70 -45.5t-35.5 -78.5t-13.5 -87.5t-1.5 -104.5v-2q0 -146 10 -198q25 -131 136 -162q39 -11 89 -11z" />
    <glyph glyph-name="epsilontonos" unicode="&#x3ad;" horiz-adv-x="966" 
d="M530 985h-106l86 127h143zM836 98v-94h-379q-67 0 -118.5 13t-86 32.5t-58.5 53.5t-36.5 64t-19 78t-8 81t-1.5 86q0 179 14 250q31 152 152 201q66 26 162 26h379v-94h-379q-60 0 -102.5 -15.5t-66.5 -39.5t-37 -65.5t-16.5 -79.5t-3.5 -95h506v-94h-506q0 -48 1 -73.5
t5 -63.5t12.5 -58.5t25 -45.5t40.5 -37.5t59.5 -21t82.5 -8.5h379z" />
    <glyph glyph-name="etatonos" unicode="&#x3ae;" horiz-adv-x="913" 
d="M487 985h-108l86 125h145zM205 0h-103v610q0 60 12 105t42.5 84.5t89.5 60.5t145 21h129q72 0 125 -14t84 -36.5t49.5 -59t24.5 -74t6 -87.5v-948h-102v948q0 50 -6 80.5t-25 56.5t-57 37t-99 11h-127q-113 0 -150.5 -43.5t-37.5 -141.5v-610z" />
    <glyph glyph-name="iotatonos" unicode="&#x3af;" horiz-adv-x="616" 
d="M150 985h-109l86 125h145zM586 0h-221q-69 -1 -118 11.5t-78 33t-45 55t-21 69.5t-5 85v627h103v-627q0 -52 4.5 -79t20.5 -50t49 -31t90 -8h221v-86z" />
    <glyph glyph-name="upsilondieresistonos" unicode="&#x3b0;" horiz-adv-x="935" 
d="M489 1106h-108l86 125h145zM270 985q-44 0 -62 29.5t0 59.5t62 30q30 0 47.5 -18.5t17.5 -41t-17.5 -41t-47.5 -18.5zM623 985q-43 0 -60.5 29.5t0 59.5t60.5 30q31 0 49 -18.5t18 -41t-18 -41t-49 -18.5zM102 272v609h103v-609q0 -99 37 -142.5t149 -43.5h115
q345 0 139 764q-6 22 -8 31h104q16 -58 28 -103.5t27.5 -118.5t23 -130t10 -128t-6.5 -125t-30.5 -108t-58 -89t-94.5 -57t-134 -22h-115q-86 0 -145 21t-89.5 60.5t-42.5 85t-12 105.5z" />
    <glyph glyph-name="alpha" unicode="&#x3b1;" horiz-adv-x="958" 
d="M926 86v-86q-140 3 -191 82q-33 -39 -96 -60.5t-123 -21.5h-80q-84 0 -146 23.5t-98 61.5t-58 97t-29 118.5t-7 137.5q1 62 3 103.5t9.5 92.5t21.5 83.5t38.5 66.5t60 53t87 31.5t118.5 12.5h80q113 0 184 -41l39 41h64v-631q0 -46 3 -70t14.5 -48t37 -34.5t68.5 -11.5z
M436 86h80q113 0 148.5 43t35.5 143v336q0 50 -6.5 81t-25.5 57t-56 37.5t-96 11.5h-80q-68 0 -114.5 -20t-70 -45.5t-35.5 -78.5t-13.5 -87.5t-1.5 -104.5v-2q0 -146 10 -198q25 -131 136 -162q39 -11 89 -11z" />
    <glyph glyph-name="beta" unicode="&#x3b2;" horiz-adv-x="1042" 
d="M221 -338h-102v1321q0 118 50 176.5t167 59.5h282q147 0 218 -63.5t71 -199.5v-120q0 -166 -98 -226q100 -63 100 -229l-2 -109q0 -60 -12 -105t-42 -85t-89 -61t-146 -21h-288v86h288q59 0 96.5 11.5t57 37t26.5 57t7 80.5v109q0 98 -37 141t-150 43h-149v86h149
q59 0 96.5 11.5t57 37t26.5 57.5t7 81v108q0 49 -7 81t-26.5 57.5t-57 37t-96.5 11.5h-280q-40 0 -65 -10.5t-35.5 -34t-13.5 -46.5t-3 -63v-1317z" />
    <glyph glyph-name="gamma" unicode="&#x3b3;" horiz-adv-x="784" 
d="M311 -338h-98q41 264 143 516l-317 703h108l263 -576q16 37 56.5 129t63.5 145.5t57 138.5t62 163h107q-53 -149 -130 -328t-130 -299t-106 -279.5t-79 -312.5z" />
    <glyph glyph-name="delta" unicode="&#x3b4;" horiz-adv-x="946" 
d="M522 4h-98q-65 0 -115 11.5t-84 30t-58 51t-37.5 64.5t-20.5 81.5t-9 91t-2 102.5q0 58 2 100t9.5 92t21 84.5t38 69.5t58.5 56t84 34t113 13h84l-250 200q-29 22 -33 53.5t23.5 56t79.5 24.5h456v-89h-430l373 -299q75 -52 98 -147t23 -246q0 -63 -2 -103.5t-9 -91
t-20 -82t-37 -64.5t-58 -51.5t-84.5 -30t-115.5 -11.5zM424 90h98q37 0 67 5.5t52 16t39 25t28 32.5t18.5 39.5t11 45.5t5.5 49.5t2 52.5v54v30q0 45 -1 74.5t-5.5 71t-13.5 68.5t-25 57t-39.5 47.5t-58.5 29t-80 11.5h-98q-36 0 -66 -7.5t-52 -18t-39 -31t-28 -38
t-18.5 -47t-11.5 -50t-5.5 -56t-2 -55t-0.5 -56.5q0 -140 5 -175q15 -117 97 -154q48 -21 121 -21z" />
    <glyph glyph-name="epsilon" unicode="&#x3b5;" horiz-adv-x="968" 
d="M836 96v-94h-379q-52 0 -95 8t-75 20t-57 33.5t-41.5 42.5t-28 52.5t-17.5 56.5t-9.5 63t-4 64t-0.5 66q0 179 14 250q31 152 152 201q66 26 162 26h379v-94h-379q-60 0 -102.5 -15.5t-66.5 -39.5t-37 -65.5t-16.5 -79.5t-3.5 -95h506v-95h-506q0 -47 1 -73t5 -63.5
t12.5 -58t25 -45t40.5 -36.5t59.5 -20.5t82.5 -8.5h379z" />
    <glyph glyph-name="zeta" unicode="&#x3b6;" horiz-adv-x="876" 
d="M451 -311v104q38 -14 73 -14q64 0 99.5 39.5t22 89.5t-74.5 76q-34 17 -96.5 42t-108 43t-100.5 51.5t-90.5 71t-60.5 98.5t-27 136q-2 90 23.5 171.5t63 140t98.5 119t111.5 99t121 91.5t108.5 86h-428v86h586v-86q-34 -39 -88.5 -83t-107 -82t-111 -82t-106.5 -92
t-87 -103.5t-59.5 -125t-17.5 -147.5q4 -66 30 -115t66 -78.5t88.5 -51t101.5 -38.5t100.5 -35t90 -47.5t65.5 -68.5q37 -49 32.5 -103.5t-33.5 -100t-84.5 -75t-119.5 -29.5q-34 0 -81 13z" />
    <glyph glyph-name="eta" unicode="&#x3b7;" horiz-adv-x="913" 
d="M205 0h-103v610q0 60 12 105t42.5 84.5t89.5 60.5t145 21h129q72 0 124 -13t83.5 -35t50 -58t25 -74.5t6.5 -90.5v-948h-102v948q0 50 -5.5 80t-24 56.5t-57 37.5t-100.5 11h-127q-113 0 -150.5 -43.5t-37.5 -141.5v-610z" />
    <glyph glyph-name="theta" unicode="&#x3b8;" horiz-adv-x="1044" 
d="M528 0q-79 0 -143 18t-108 48t-77 76.5t-52 95.5t-30.5 114t-15.5 123.5t-4 130.5q0 76 2.5 132t13 124t28 116t50 96.5t77 78t110.5 48t149 18.5t149 -18.5t110.5 -48t77 -78t50 -96.5t28 -116t13 -124t2.5 -132q0 -72 -4 -130.5t-15.5 -123.5t-30.5 -114t-52 -95.5
t-77 -76.5t-108 -48t-143 -18zM207 649h643q0 46 -1 78.5t-4.5 76t-10 75t-18 68t-28 62t-41 50.5t-55 40t-72.5 24.5t-92 9.5q-64 0 -114 -15.5t-83 -39t-57 -63.5t-37 -77t-20 -92t-8.5 -96.5t-1.5 -100.5zM528 86q60 0 108 15t81 39.5t57 62.5t38 76.5t22.5 90t11.5 95
t4 98.5h-643q1 -55 4 -98.5t11.5 -95t22.5 -90t38.5 -76.5t57 -62.5t80.5 -39.5t107 -15z" />
    <glyph glyph-name="iota" unicode="&#x3b9;" horiz-adv-x="600" 
d="M575 0h-221q-69 -1 -118 11.5t-77.5 33t-44.5 55t-21 69.5t-5 85v627h102v-627q0 -52 4.5 -79t20.5 -50t49 -31t90 -8h221v-86z" />
    <glyph glyph-name="kappa" unicode="&#x3ba;" horiz-adv-x="833" 
d="M231 0h-102v883h102v-371l422 371h150l-451 -396l445 -487h-135l-386 422l-45 -39v-383z" />
    <glyph glyph-name="lambda" unicode="&#x3bb;" horiz-adv-x="1028" 
d="M981 104v-92q-51 -14 -78 -14q-115 0 -182 156l-236 553l-327 -705h-109l381 829l-115 261q-25 60 -47.5 83t-56.5 23q-28 0 -109 -24v90q73 28 123 28q117 0 183 -155l405 -940q25 -58 46 -82.5t56 -24.5q28 0 66 14z" />
    <glyph glyph-name="uni03BC" unicode="&#x3bc;" horiz-adv-x="911" 
d="M102 -338v1221h103v-609q0 -99 37.5 -142.5t150.5 -43.5h127q62 0 100.5 11t57 37.5t24 56.5t5.5 81v609h102v-609q0 -62 -12 -108t-42.5 -85t-89.5 -59t-145 -20h-129q-119 0 -186 45v-385h-103z" />
    <glyph glyph-name="nu" unicode="&#x3bd;" horiz-adv-x="854" 
d="M428 0h-102l-303 881h104l264 -758q133 181 188.5 355t71.5 403h97q-4 -137 -25 -252t-63.5 -221t-96 -199t-135.5 -209z" />
    <glyph glyph-name="xi" unicode="&#x3be;" horiz-adv-x="772" 
d="M387 -311v90q20 -2 43.5 -0.5t46.5 4t44.5 10.5t38 20t26.5 33.5t10 49.5q0 27 -21.5 49t-57 37t-81.5 33t-93.5 35.5t-93.5 46.5t-81.5 64.5t-57.5 91t-22 124.5q0 130 78.5 217.5t179.5 112.5q-209 51 -209 213q0 79 65.5 140.5t145.5 72.5h-223v86h534v-86
q-6 -1 -18 -2q-41 -5 -66 -8t-74 -11.5t-81 -17.5t-73 -25t-65.5 -35t-41.5 -46.5t-17 -59.5q0 -152 307 -152h117v-86h-117q-155 0 -256.5 -96.5t-99.5 -224.5q1 -62 29.5 -108.5t72.5 -75t97.5 -51.5t107 -43t97.5 -44t72.5 -61.5t29.5 -87.5q3 -45 -9 -80t-36 -57
t-52.5 -37t-65 -22.5t-66.5 -10t-64 -2.5z" />
    <glyph glyph-name="omicron" unicode="&#x3bf;" horiz-adv-x="915" 
d="M506 6h-96q-65 0 -115.5 11.5t-85 30t-58.5 51t-37.5 64.5t-20.5 81.5t-9 90.5t-2 103q0 58 2 100t9.5 92t21.5 84.5t38 69.5t58.5 56t84.5 34t114 13h96q64 0 114 -13t84.5 -34t58.5 -55.5t38 -69t21.5 -84.5t9.5 -91.5t2 -99.5q0 -48 -1 -81t-4.5 -74t-10.5 -69
t-18.5 -59.5t-28.5 -52t-41.5 -41t-56.5 -32t-74 -18.5t-93 -7zM410 92h96q37 0 67.5 5.5t52.5 16t39.5 25t28 32.5t18.5 39.5t11.5 45.5t5.5 49.5t2 52.5v55v29v4q0 67 -1.5 102.5t-13 92t-34 85.5t-67 52t-109.5 23h-96q-37 0 -67 -7.5t-52 -18t-39.5 -31t-28.5 -38
t-19 -47t-11.5 -50t-5.5 -55.5t-2.5 -55t-0.5 -57q0 -139 5 -176q16 -117 101 -153q48 -21 120 -21z" />
    <glyph glyph-name="pi" unicode="&#x3c0;" horiz-adv-x="1120" 
d="M276 0h-102v795h-131v30l131 56h700v-86h-249v-541q0 -52 4 -79t20.5 -50t49 -31t89.5 -8h222v-86h-222q-69 -1 -118 11.5t-77.5 33t-44.5 55t-21 69.5t-5 85v541h-246v-795z" />
    <glyph glyph-name="rho" unicode="&#x3c1;" horiz-adv-x="905" 
d="M205 -336h-103v946q0 61 12 106.5t42.5 84.5t89.5 59.5t145 20.5h129q87 0 146 -20.5t89 -59.5t42 -84.5t12 -106.5v-338q0 -60 -12 -105t-42 -85t-89 -61t-146 -21h-82q-166 0 -233 45v-381zM205 610v-340q0 -49 7 -80.5t26.5 -56.5t57 -36t95.5 -11h129q60 0 97.5 11.5
t57 37t26 56.5t6.5 81v338q0 50 -6.5 81t-26 57t-57 37.5t-97.5 11.5h-129q-59 0 -96.5 -11.5t-57 -37.5t-26 -57.5t-6.5 -80.5z" />
    <glyph glyph-name="uni03C2" unicode="&#x3c2;" horiz-adv-x="917" 
d="M705 -311h-109q4 7 21 34t25 41t19 41.5t11 45.5t-7.5 42.5t-28 41.5t-58 35t-91.5 30q-99 23 -170.5 57.5t-113.5 73t-66 90.5t-32 101.5t-7 113.5q0 45 3.5 83t14 85t27 84.5t46.5 75t69 62t97.5 40t129.5 15.5q90 0 158 -12t160 -42v-90q-176 58 -318 58
q-58 0 -103.5 -14t-76 -41t-51 -60t-31 -77.5t-15 -87t-5.5 -95.5q-2 -136 56.5 -208t225.5 -120q213 -58 262.5 -151.5t-42.5 -251.5z" />
    <glyph glyph-name="sigma" unicode="&#x3c3;" horiz-adv-x="946" 
d="M506 4h-96q-65 0 -115.5 11.5t-85 30t-58.5 51t-37.5 64.5t-20.5 81.5t-9 90.5t-2 103q0 58 2 100t9.5 92t21.5 84.5t38 69.5t58.5 56t84.5 34t114 13h505v-86h-167q54 -54 70 -140.5t16 -220.5q0 -48 -1 -81t-4.5 -74t-10.5 -69t-18.5 -59.5t-28.5 -52t-41.5 -41
t-56.5 -32t-74 -18.5t-93 -7zM410 90h96q37 0 67.5 5.5t52.5 16t39.5 25t28 32.5t18.5 39.5t11.5 45.5t5.5 49.5t2 52.5v55v29v4q0 67 -1.5 102.5t-13 92t-34 85.5t-67 52t-109.5 23h-96q-37 0 -67 -7.5t-52 -18t-39.5 -31t-28.5 -38t-19 -47t-11.5 -50t-5.5 -55.5t-2.5 -55
t-0.5 -57q0 -139 5 -176q16 -117 101 -153q48 -21 120 -21z" />
    <glyph glyph-name="tau" unicode="&#x3c4;" horiz-adv-x="841" 
d="M256 795h-219v30l131 56h440v-86h-250v-541q0 -52 4.5 -79t20.5 -50t49 -31t90 -8h221v-86h-221q-69 -1 -118 11.5t-77.5 33t-44.5 55t-21 69.5t-5 85v541z" />
    <glyph glyph-name="upsilon" unicode="&#x3c5;" horiz-adv-x="925" 
d="M102 274v609h103v-609q0 -99 37.5 -142.5t150.5 -43.5h127q64 0 107.5 31t63 83t26 119.5t-0.5 141t-19 147t-26 138t-26 112.5q-4 16 -6 23h104q20 -60 37.5 -129.5t30.5 -156.5t15.5 -168.5t-12.5 -160t-47.5 -137t-95.5 -94t-151 -35.5h-129q-86 0 -145 21t-89.5 60.5
t-42.5 85t-12 105.5z" />
    <glyph glyph-name="phi" unicode="&#x3c6;" horiz-adv-x="1187" 
d="M655 -338h-102v340q-126 0 -219.5 41t-144.5 109.5t-74.5 158t-15 188t40.5 198t85 188.5h103q-36 -61 -64 -132.5t-44 -148.5t-18.5 -150.5t16.5 -140t58 -116.5t110 -79.5t167 -29.5v526q0 129 70.5 204t169.5 75q92 0 170 -71t106 -204q16 -75 17 -147t-12.5 -140
t-46.5 -125.5t-82.5 -102t-123.5 -71t-166 -30.5v-340zM655 614v-526q94 3 161.5 36t103.5 85t52 121t12.5 140.5t-21.5 147.5q-22 85 -68.5 130t-99.5 45q-58 0 -99 -48.5t-41 -130.5z" />
    <glyph glyph-name="chi" unicode="&#x3c7;" horiz-adv-x="901" 
d="M883 -233v-93q-51 -14 -78 -14q-115 0 -182 156l-189 444l-307 -598h-111l365 719l-131 305q-26 60 -49.5 83.5t-57.5 23.5q-27 0 -86 -17v88q58 25 103 25q115 0 182 -158l98 -233l195 383h115l-258 -502l223 -520q25 -58 46 -82.5t56 -24.5q25 0 66 15z" />
    <glyph glyph-name="psi" unicode="&#x3c8;" horiz-adv-x="1187" 
d="M651 -338h-102v340q-123 2 -214.5 43.5t-141.5 110.5t-72.5 158t-14 186.5t40.5 196.5t84 188h103q-35 -61 -63 -131.5t-44.5 -147t-19 -150t16 -139.5t56 -116.5t106.5 -80.5t163 -32v1129h102v-1129q107 3 181 44t107.5 107t43.5 148.5t-6 171t-45.5 172t-71.5 154.5
h103q45 -76 75.5 -159.5t42.5 -168t6.5 -164.5t-36 -150t-81 -123t-132.5 -84.5t-187 -33.5v-340z" />
    <glyph glyph-name="omega" unicode="&#x3c9;" horiz-adv-x="1515" 
d="M707 317l-2 234h102v-234q3 -93 67 -155.5t181 -61.5q62 1 109.5 19t77.5 46.5t47.5 74t25 90.5t4.5 106.5t-10 112.5t-22 118.5t-26.5 113.5t-29.5 108h104q30 -87 50.5 -170t32 -172t8.5 -166t-25.5 -146.5t-65 -118.5t-114.5 -77.5t-170 -28.5q-87 0 -168.5 39.5
t-126.5 108.5q-33 -75 -117.5 -114.5t-177.5 -39.5q-96 0 -168 28.5t-114.5 78t-65.5 118.5t-26.5 146t7 165.5t31.5 172.5t51 170h105q-23 -83 -37 -142t-30 -148t-18 -151t8.5 -132.5t39 -113.5t83.5 -72.5t134 -29.5q115 -1 179 63.5t67 159.5z" />
    <glyph glyph-name="iotadieresis" unicode="&#x3ca;" horiz-adv-x="636" 
d="M98 985q-44 0 -62 29.5t0 59.5t62 30q30 0 47.5 -18.5t17.5 -41t-17.5 -41t-47.5 -18.5zM281 985q-31 0 -49 18.5t-18 41t18 41t49 18.5t49 -18.5t18 -41t-18 -41t-49 -18.5zM614 0h-221q-69 -1 -118 11.5t-77.5 33t-44.5 55t-21 69.5t-5 85v627h102v-627q0 -52 4.5 -79
t20.5 -50t49 -31t90 -8h221v-86z" />
    <glyph glyph-name="upsilondieresis" unicode="&#x3cb;" horiz-adv-x="919" 
d="M348 985q-43 0 -60.5 29.5t0 59.5t60.5 30q31 0 49 -18.5t18 -41t-18 -41t-49 -18.5zM532 985q-32 0 -50 18.5t-18 41t18 41t50 18.5q31 0 49 -18.5t18 -41t-18 -41t-49 -18.5zM102 274v609h103v-609q0 -99 37.5 -142.5t150.5 -43.5h127q64 0 107.5 31t63 83t26 119.5
t-0.5 141t-19 147t-26 138t-26 112.5q-4 16 -6 23h104q20 -60 37.5 -129.5t30.5 -156.5t15.5 -168.5t-12.5 -160t-47.5 -137t-95.5 -94t-151 -35.5h-129q-86 0 -145 21t-89.5 60.5t-42.5 85t-12 105.5z" />
    <glyph glyph-name="omicrontonos" unicode="&#x3cc;" horiz-adv-x="915" 
d="M451 985h-107l86 125h145zM506 6h-96q-65 0 -115.5 11.5t-85 30t-58.5 51t-37.5 64.5t-20.5 81.5t-9 90.5t-2 103q0 58 2 100t9.5 92t21.5 84.5t38 69.5t58.5 56t84.5 34t114 13h96q64 0 114 -13t84.5 -34t58.5 -55.5t38 -69t21.5 -84.5t9.5 -91.5t2 -99.5q0 -48 -1 -81
t-4.5 -74t-10.5 -69t-18.5 -59.5t-28.5 -52t-41.5 -41t-56.5 -32t-74 -18.5t-93 -7zM410 92h96q37 0 67.5 5.5t52.5 16t39.5 25t28 32.5t18.5 39.5t11.5 45.5t5.5 49.5t2 52.5v55v29v4q0 67 -1.5 102.5t-13 92t-34 85.5t-67 52t-109.5 23h-96q-37 0 -67 -7.5t-52 -18
t-39.5 -31t-28.5 -38t-19 -47t-11.5 -50t-5.5 -55.5t-2.5 -55t-0.5 -57q0 -139 5 -176q16 -117 101 -153q48 -21 120 -21z" />
    <glyph glyph-name="upsilontonos" unicode="&#x3cd;" horiz-adv-x="923" 
d="M440 985h-106l86 125h143zM102 274v609h103v-609q0 -99 37.5 -142.5t150.5 -43.5h127q64 0 107.5 31t63 83t26 119.5t-0.5 141t-19 147t-26 138t-26 112.5q-4 16 -6 23h104q20 -60 37.5 -129.5t30.5 -156.5t15.5 -168.5t-12.5 -160t-47.5 -137t-95.5 -94t-151 -35.5h-129
q-86 0 -145 21t-89.5 60.5t-42.5 85t-12 105.5z" />
    <glyph glyph-name="omegatonos" unicode="&#x3ce;" horiz-adv-x="1540" 
d="M758 985h-107l86 125h144zM717 317l-2 234h102v-234q3 -93 67 -155.5t181 -61.5q62 1 109.5 19t77.5 46.5t47.5 74t25 90.5t4.5 106.5t-10 112.5t-22 118.5t-26.5 113.5t-29.5 108h105q30 -87 50.5 -170t32 -172t8.5 -166t-26 -146.5t-65.5 -118.5t-114.5 -77.5
t-170 -28.5q-87 0 -168.5 39.5t-126.5 108.5q-33 -75 -117.5 -114.5t-177.5 -39.5q-96 0 -167.5 28.5t-114 78t-66 118.5t-27 146t7.5 165.5t31.5 172.5t50.5 170h105q-23 -83 -37 -142t-30 -148t-18 -151t8.5 -132.5t39 -113.5t83.5 -72.5t134 -29.5q115 -1 179 63.5
t67 159.5z" />
    <glyph glyph-name="uni0401" unicode="&#x401;" horiz-adv-x="1046" 
d="M479 1313q-43 0 -60.5 30t0 59.5t60.5 29.5q31 0 49 -18.5t18 -41t-18 -41t-49 -18.5zM664 1313q-32 0 -50 18.5t-18 41t18 41t50 18.5q31 0 49 -18.5t18 -41t-18 -41t-49 -18.5zM901 557h-661v-285q0 -49 6.5 -80.5t26 -57t57 -37t96.5 -11.5h475v-86h-475
q-86 0 -145 21t-89.5 60.5t-42.5 85t-12 105.5v674q0 61 12 106.5t42.5 85t89.5 60.5t145 21h477v-86h-477q-59 0 -96.5 -11.5t-57 -37.5t-26 -57.5t-6.5 -80.5v-305h661v-84z" />
    <glyph glyph-name="uni0402" unicode="&#x402;" horiz-adv-x="1210" 
d="M469 -2h-102v1128h-332v95h766v-95h-332v-286q70 45 182 45h131q154 0 220.5 -70t66.5 -205v-336q0 -154 -77 -214t-240 -60v94q123 0 169 34.5t46 145.5v336q0 99 -37.5 140t-147.5 41h-131q-179 0 -182 -132v-661z" />
    <glyph glyph-name="uni0403" unicode="&#x403;" horiz-adv-x="819" 
d="M528 1313h-106l86 127h143zM246 2h-103v922q0 122 83.5 209.5t226.5 87.5h335v-95h-335q-98 0 -152.5 -58t-54.5 -144v-922z" />
    <glyph glyph-name="uni0404" unicode="&#x404;" horiz-adv-x="1067" 
d="M797 1311h-527v86h527v-86zM532 0q-79 0 -143 18t-108 48t-77 76.5t-52 95.5t-30.5 114t-15.5 123.5t-4 130.5q0 76 2.5 132t13 124t28 116t50 96.5t77 78t110.5 48t149 18.5q65 0 119.5 -11t95.5 -30t74 -49.5t55 -63t38.5 -77t25.5 -85.5t14.5 -95t7 -99t1.5 -103
q0 -72 -4 -130.5t-15.5 -123t-30.5 -114t-52 -96t-77.5 -76.5t-108.5 -48t-143 -18zM532 86q65 0 116 18t84 45.5t57 73.5t36.5 87.5t19 103t8 104.5t1.5 107q0 51 -0.5 81.5t-3.5 79t-9 78.5t-17 70.5t-27 66t-40.5 53.5t-56 43.5t-74 25.5t-94.5 10q-66 0 -117.5 -17
t-85 -40.5t-57 -68t-35 -80.5t-18 -97.5t-7.5 -100t-1 -104.5q0 -64 1.5 -107t8 -105t19 -103t36 -87t57 -73.5t84 -45.5t115.5 -18z" />
    <glyph glyph-name="uni0405" unicode="&#x405;" horiz-adv-x="1013" 
d="M123 295v29h102v-29q0 -46 2.5 -73.5t13 -56.5t30.5 -44.5t55 -25t86 -9.5h190q113 0 149.5 43t36.5 141v119q0 98 -36.5 141t-149.5 43h-190q-86 0 -145 21t-89.5 61t-42.5 85.5t-12 105.5v100q0 61 12 106.5t42.5 85t89.5 60.5t145 21h151q76 0 130.5 -17.5t84.5 -44
t47.5 -68t22 -78.5t4.5 -87v-29h-102v29q0 38 -1.5 61.5t-7.5 50.5t-18.5 42.5t-33 29t-52 19.5t-74.5 6h-151q-59 0 -96.5 -11.5t-57 -37t-26.5 -57.5t-7 -81v-100q0 -49 7 -81t26.5 -57.5t57 -37t96.5 -11.5h190q69 0 121 -14.5t83.5 -38t51 -59.5t26.5 -73.5t7 -84.5
v-119q0 -47 -7 -84.5t-26.5 -73.5t-51 -59.5t-83.5 -38t-121 -14.5h-190q-76 0 -130.5 17.5t-84.5 43.5t-47.5 67.5t-22 78.5t-4.5 88z" />
    <glyph glyph-name="uni0406" unicode="&#x406;" horiz-adv-x="391" 
d="M246 0h-103v1219h103v-1219z" />
    <glyph glyph-name="uni0407" unicode="&#x407;" horiz-adv-x="391" 
d="M104 1313q-43 0 -60.5 30t0 59.5t60.5 29.5q31 0 49 -18.5t18 -41t-18 -41t-49 -18.5zM289 1313q-42 0 -59.5 30t-0.5 59.5t60 29.5q31 0 49 -18.5t18 -41t-18 -41t-49 -18.5zM246 2h-103v1217h103v-1217z" />
    <glyph glyph-name="uni0408" unicode="&#x408;" horiz-adv-x="940" 
d="M502 0h-459v86h459q100 0 152.5 61.5t52.5 147.5v924h102v-924q0 -52 -18.5 -102.5t-54 -94.5t-96.5 -71t-138 -27z" />
    <glyph glyph-name="uni0409" unicode="&#x409;" horiz-adv-x="1609" 
d="M115 0h-95v94h95q61 0 108 34t70 79.5t31 95.5l153 918h361v-336h247q90 0 161 -24.5t116 -65.5t74 -98t41 -117.5t12 -128.5q0 -451 -408 -451h-57q-156 0 -222.5 69.5t-66.5 204.5v852h-172l-137 -833q-9 -52 -31 -100.5t-58 -93.5t-93.5 -72t-128.5 -27zM1083 791
h-245v-517q0 -100 36 -140t148 -40h61q88 0 148 25t91.5 73.5t44.5 106t13 135.5q0 61 -8 111.5t-28.5 97t-53.5 78.5t-85.5 51t-121.5 19z" />
    <glyph glyph-name="uni040A" unicode="&#x40a;" horiz-adv-x="1476" 
d="M246 0h-103v1221h103v-336h348v336h102v-336h248q90 0 161 -24.5t116 -65.5t74 -98t41 -117.5t12 -128.5q0 -451 -408 -451h-57q-156 0 -222.5 69.5t-66.5 204.5v517h-348v-791zM942 791h-246v-517q0 -100 36.5 -140t148.5 -40h61q71 0 124 17t86 46.5t53 74t27.5 93
t6.5 109.5q0 61 -8 111.5t-28.5 97t-53.5 78.5t-85.5 51t-121.5 19z" />
    <glyph glyph-name="uni040B" unicode="&#x40b;" horiz-adv-x="1206" 
d="M459 -2h-103v1128h-331v95h763v-95h-329v-286q70 45 182 45h129q154 0 220.5 -70t66.5 -203v-610h-103v610q0 98 -37 138.5t-147 40.5h-129q-179 0 -182 -132v-661z" />
    <glyph glyph-name="uni040C" unicode="&#x40c;" horiz-adv-x="983" 
d="M485 1313h-108l86 125h145zM246 0h-103v1219h103v-570l559 570h135l-578 -584l576 -635h-133l-512 565l-47 -49v-516z" />
    <glyph glyph-name="uni040E" unicode="&#x40e;" horiz-adv-x="843" 
d="M264 1442h74q2 -20 3.5 -26.5t7.5 -17.5t19 -14.5t35 -3.5h86q26 0 39.5 10t16.5 21t4 31h74q-3 -64 -30 -96.5t-104 -32.5h-86q-76 0 -105 30t-34 99zM211 0h-94v94h94q32 0 58 7.5t46.5 23.5t35 31.5t28 42t21 43.5t18.5 47q4 16 16.5 52.5t16.5 49.5l-420 830h112
l351 -693l223 693h104l-309 -969q-16 -49 -39 -89.5t-58.5 -79.5t-87.5 -61t-116 -22z" />
    <glyph glyph-name="uni040F" unicode="&#x40f;" horiz-adv-x="1042" 
d="M471 0h-328v1221h103v-1127h551v1127h102v-1221h-326v-115h-102v115z" />
    <glyph glyph-name="uni0410" unicode="&#x410;" horiz-adv-x="1060" 
d="M610 0h-567l487 1217h107l383 -1217h-107l-335 1063l-392 -977h424v-86z" />
    <glyph glyph-name="uni0411" unicode="&#x411;" horiz-adv-x="1021" 
d="M621 0h-478v1221h668v-95h-565v-460h375q156 0 222 -69t66 -202v-123q0 -133 -66 -202.5t-222 -69.5zM246 573v-479h375q112 0 149 40t37 138v123q0 98 -37 138t-149 40h-375z" />
    <glyph glyph-name="uni0412" unicode="&#x412;" horiz-adv-x="1032" 
d="M623 0h-480v1219h480q147 0 217.5 -63t70.5 -200v-120q0 -166 -98 -226q47 -29 72.5 -90t25.5 -139v-109q0 -60 -12 -105.5t-42 -85t-89 -60.5t-145 -21zM246 1133v-482h377q59 0 96.5 11.5t57 37.5t26 57.5t6.5 80.5v108q0 49 -6.5 80.5t-26 57.5t-57 37.5t-96.5 11.5
h-377zM246 565v-479h377q59 0 96.5 11.5t57 37t26 57t6.5 80.5v109q0 48 -7 79t-26 56.5t-56.5 37t-96.5 11.5h-377z" />
    <glyph glyph-name="uni0413" unicode="&#x413;" horiz-adv-x="813" 
d="M244 2h-103v922q0 122 83.5 209.5t226.5 87.5h335v-95h-335q-98 0 -152.5 -58t-54.5 -144v-922z" />
    <glyph glyph-name="uni0414" unicode="&#x414;" horiz-adv-x="899" 
d="M127 -158h-102v252h112q139 213 207 516t68 611h315v-1127h145v-252h-102v158h-643v-158zM254 94h371v1032h-111q-17 -622 -260 -1032z" />
    <glyph glyph-name="uni0415" unicode="&#x415;" horiz-adv-x="1001" 
d="M866 557h-661v-285q0 -49 6.5 -80.5t26 -57t57 -37t96.5 -11.5h475v-86h-475q-86 0 -145 21t-89.5 60.5t-42.5 85t-12 105.5v674q0 61 12 106.5t42.5 85t89.5 60.5t145 21h477v-86h-477q-59 0 -96.5 -11.5t-57 -37.5t-26 -57.5t-6.5 -80.5v-305h661v-84z" />
    <glyph glyph-name="uni0416" unicode="&#x416;" horiz-adv-x="1165" 
d="M145 0h-116l387 639l-387 580h118l383 -572v572h101v-572l383 572h119l-390 -580l387 -639h-116l-383 631v-631h-101v631z" />
    <glyph glyph-name="uni0417" unicode="&#x417;" horiz-adv-x="1015" 
d="M788 829v117q0 49 -6.5 80.5t-26 57.5t-57 37.5t-96.5 11.5h-190q-51 0 -86 -10t-55 -25t-30.5 -44.5t-13 -57t-2.5 -72.5v-29h-102v51q0 61 12 106.5t42.5 85t89.5 60.5t145 21h190q86 0 145 -21t89.5 -60.5t42.5 -85t12 -106.5v-117q0 -167 -100 -229
q57 -35 77.5 -90.5t22.5 -136.5v-101q0 -60 -12 -105.5t-42.5 -85t-89.5 -60.5t-145 -21h-190q-76 0 -130.5 17.5t-84.5 43.5t-47.5 67.5t-22 78.5t-4.5 88v31h102v-31q0 -45 2.5 -72.5t13 -57t30.5 -44.5t55 -25t86 -10h190q105 0 147 43t42 137v107q0 97 -38 140.5
t-151 43.5h-301v86h301q59 0 96.5 11.5t57 37t26 57t6.5 80.5z" />
    <glyph glyph-name="uni0418" unicode="&#x418;" horiz-adv-x="1056" 
d="M248 0h-105v1219h103v-1020l559 1020h108v-1219h-102v1022z" />
    <glyph glyph-name="uni0419" unicode="&#x419;" horiz-adv-x="1056" 
d="M360 1442h74q2 -19 3.5 -26t8 -18t20 -14.5t36.5 -3.5h84q26 0 40 10t17 21t4 31h74q-5 -65 -31.5 -97t-103.5 -32h-84q-78 0 -107.5 30t-34.5 99zM250 2h-107v1217h103v-1020l563 1020h104v-1217h-102v1018z" />
    <glyph glyph-name="uni041A" unicode="&#x41a;" horiz-adv-x="983" 
d="M246 0h-103v1219h103v-570l559 570h135l-578 -584l576 -635h-133l-512 565l-47 -49v-516z" />
    <glyph glyph-name="uni041B" unicode="&#x41b;" horiz-adv-x="997" 
d="M86 0h-61v94h61q68 0 125 70.5t94 183.5t65.5 242.5t43 261t21.5 224t7 145.5h412v-1221h-102v1126h-209q-4 -59 -8.5 -110.5t-14 -139.5t-21.5 -162.5t-32.5 -167t-44 -166.5t-58 -147.5t-74 -122.5t-92 -79.5t-112.5 -30.5z" />
    <glyph glyph-name="uni041C" unicode="&#x41c;" horiz-adv-x="1388" 
d="M246 0h-103v1219h109l444 -1069l443 1069h106v-1219h-102v971l-400 -971h-94l-403 969v-969z" />
    <glyph glyph-name="uni041D" unicode="&#x41d;" horiz-adv-x="1054" 
d="M246 2h-103v1217h103v-617h563v617h102v-1217h-102v514h-563v-514z" />
    <glyph glyph-name="uni041E" unicode="&#x41e;" horiz-adv-x="1058" 
d="M528 0q-79 0 -143 18t-108 48t-77 76.5t-52 95.5t-30.5 114t-15.5 123.5t-4 130.5q0 76 2.5 132t13 124t28 116t50 96.5t77 78t110.5 48t149 18.5t149 -18.5t110.5 -48t77 -78t50 -96.5t28 -116t13 -124t2.5 -132q0 -72 -4 -130.5t-15.5 -123.5t-30.5 -114t-52 -95.5
t-77 -76.5t-108 -48t-143 -18zM528 86q65 0 116 18t84 45.5t57 73.5t36.5 87.5t19 103t8 104.5t1.5 107q0 51 -0.5 81.5t-3.5 79t-9 78.5t-17 70.5t-27 66t-40.5 53.5t-56 43.5t-74 25.5t-94.5 10q-66 0 -117.5 -17t-85 -40.5t-57 -68t-35 -80.5t-18 -97.5t-7.5 -100
t-1 -104.5q0 -64 1.5 -107t8 -105t19 -103t36 -87t57 -73.5t84 -45.5t115.5 -18z" />
    <glyph glyph-name="uni041F" unicode="&#x41f;" horiz-adv-x="1042" 
d="M899 0h-756v1221h103v-1127h551v1127h102v-1221z" />
    <glyph glyph-name="uni0420" unicode="&#x420;" horiz-adv-x="1021" 
d="M246 0h-103v1219h480q69 0 121 -14.5t83.5 -38t50.5 -60t26 -74.5t7 -86v-119q0 -47 -7 -84.5t-26 -73.5t-50.5 -59.5t-83.5 -38t-121 -14.5h-377v-557zM246 1133v-492h377q59 0 96.5 11.5t57 37t26 57t6.5 80.5v119q0 49 -6.5 80.5t-26 57.5t-57 37.5t-96.5 11.5h-377z
" />
    <glyph glyph-name="uni0421" unicode="&#x421;" horiz-adv-x="976" 
d="M874 86v-86h-342q-83 0 -149 18t-111 46.5t-77 75.5t-49.5 93.5t-27.5 113t-13 122t-3 131.5q0 72 4 131.5t15.5 125t30.5 116.5t52 98.5t77 79t108 50t143 18.5h342v-86h-342q-65 0 -115.5 -18t-84 -45t-57 -73t-36 -86.5t-19 -102.5t-8 -104t-1.5 -106q0 -50 0.5 -81.5
t3.5 -79.5t9 -79t17 -71.5t27 -66.5t40.5 -54t56 -43.5t74 -26t93.5 -10.5h342z" />
    <glyph glyph-name="uni0422" unicode="&#x422;" horiz-adv-x="1024" 
d="M563 -2h-102v1135h-441v86h984v-86h-441v-1135z" />
    <glyph glyph-name="uni0423" unicode="&#x423;" horiz-adv-x="833" 
d="M199 0h-95v94h95q32 0 58 7.5t46.5 23.5t35 31.5t28 42t21 43.5t18.5 47q4 17 15.5 53.5t14.5 48.5l-418 830h113l348 -693l226 693h104l-309 -969q-88 -252 -301 -252z" />
    <glyph glyph-name="uni0424" unicode="&#x424;" horiz-adv-x="1054" 
d="M573 2h-102v127q-58 3 -106.5 13t-84.5 24.5t-64.5 38t-47.5 46.5t-32.5 57.5t-21.5 64.5t-12 73t-5 77.5t-1 84.5t1 84.5t5 78t12 73.5t21.5 64.5t32.5 57.5t47.5 46.5t64.5 38t84.5 24t106.5 12.5v134h102v-134q76 -3 134.5 -18t98.5 -36.5t68 -58t43.5 -71.5t24 -88.5
t10.5 -97.5t2 -109t-2 -108.5t-10.5 -97t-24 -88t-43.5 -71t-68 -58.5t-98.5 -37.5t-134.5 -18.5v-127zM471 223v770q-77 -5 -127.5 -25.5t-78.5 -47t-41.5 -81.5t-16 -100t-2.5 -131t2.5 -131t16 -100t41.5 -81.5t78.5 -47t127.5 -25.5zM573 993v-770q40 2 73 7t58.5 15.5
t45.5 21t35 29.5t25 34.5t17 43t11 48t5.5 56.5t2 61t0.5 69t-0.5 69t-2 61t-5.5 56.5t-11 48t-17 43t-25 34.5t-35 29.5t-45.5 21t-58.5 15.5t-73 7z" />
    <glyph glyph-name="uni0425" unicode="&#x425;" horiz-adv-x="946" 
d="M137 0h-117l396 608l-396 611h117l336 -519l334 519h117l-394 -611l394 -608h-117l-334 518z" />
    <glyph glyph-name="uni0426" unicode="&#x426;" horiz-adv-x="995" 
d="M850 0h-707v1221h103v-1127h506v1127h102v-1127h98v-252h-102v158z" />
    <glyph glyph-name="uni0427" unicode="&#x427;" horiz-adv-x="1052" 
d="M909 0h-102v430q-80 -74 -207 -74h-147q-143 0 -226.5 87.5t-83.5 211.5v566h103v-566q0 -88 54 -146t153 -58h147q99 0 153 58t54 146v566h102v-1221z" />
    <glyph glyph-name="uni0428" unicode="&#x428;" horiz-adv-x="1619" 
d="M1479 0h-1336v1221h103v-1127h506v1127h102v-1127h522v1127h103v-1221z" />
    <glyph glyph-name="uni0429" unicode="&#x429;" horiz-adv-x="1665" 
d="M1526 0h-1383v1221h103v-1127h510v1127h102v-1127h502v1127h102v-1127h166v-252h-102v158z" />
    <glyph glyph-name="uni042A" unicode="&#x42a;" horiz-adv-x="1071" 
d="M301 1221v-336h248q111 0 192 -36.5t125 -100t64 -137t20 -160.5q0 -451 -405 -451h-60q-154 0 -220 69.5t-66 204.5v852h-172v95h274zM547 791h-246v-517q0 -100 36 -140t146 -40h64q70 0 122.5 17t85 46.5t52.5 74t27.5 92.5t7.5 110q0 78 -13.5 138t-45 111.5
t-91.5 79.5t-145 28z" />
    <glyph glyph-name="uni042B" unicode="&#x42b;" horiz-adv-x="1257" 
d="M205 1221v-336h248q90 0 161 -24.5t115.5 -65.5t74 -98t41 -117.5t11.5 -128.5q0 -451 -407 -451h-58q-156 0 -222.5 69.5t-66.5 204.5v947h103zM1112 0h-102v1221h102v-1221zM451 791h-246v-517q0 -100 36 -140t148 -40h62q71 0 124 17t86 46.5t53 74t27.5 93t6.5 109.5
q0 61 -8 111.5t-28.5 97t-53.5 78.5t-85.5 51t-121.5 19z" />
    <glyph glyph-name="uni042C" unicode="&#x42c;" horiz-adv-x="1024" 
d="M143 0v1219h103v-557h377q86 0 145 -20.5t89 -59.5t42 -84.5t12 -106.5v-119q0 -61 -12 -106.5t-42 -85t-89 -60t-145 -20.5h-480zM623 578h-377v-492h377q59 0 96.5 11.5t57 37t26 57t6.5 80.5v119q0 49 -6.5 80.5t-26 57.5t-57 37.5t-96.5 11.5z" />
    <glyph glyph-name="uni042D" unicode="&#x42d;" horiz-adv-x="1013" 
d="M471 0h-334v94h334q61 0 109.5 13.5t82 35.5t57.5 57t37.5 71.5t21 86.5t10 93t2.5 100h-508v96h508q-1 57 -3.5 100.5t-11 96t-22 90.5t-37.5 76.5t-56.5 62t-81 38.5t-108.5 15h-334v95h334q66 0 121.5 -13t96.5 -34t73.5 -54.5t54 -68t37.5 -81.5t24.5 -87t13.5 -92
t6 -90.5t1 -88.5q0 -75 -3 -132.5t-13.5 -124.5t-28.5 -115.5t-50.5 -96t-76.5 -77t-109 -48t-147 -18.5z" />
    <glyph glyph-name="uni042E" unicode="&#x42e;" horiz-adv-x="1646" 
d="M246 0h-103v1221h103v-553h432q1 48 3.5 85.5t8.5 85.5t15.5 85t25.5 78t38 71.5t54.5 59.5t72.5 47.5t93.5 29.5t116.5 11q65 0 119.5 -11t95 -30t73 -49t55 -62.5t39 -76.5t25.5 -85.5t14.5 -95.5t7 -99.5t1.5 -103.5q0 -51 -1 -89t-6 -90.5t-13.5 -92.5t-24 -86.5
t-37.5 -80.5t-54.5 -67.5t-73.5 -54.5t-97 -34t-123 -13q-80 0 -145 19t-109 50t-76.5 78t-50.5 94t-29 108.5t-14.5 111.5t-3.5 112h-432v-573zM1106 94q50 0 92 10.5t73 27.5t55.5 45.5t40.5 57t27.5 69t18 74.5t9.5 81.5t4 81.5t1 82q0 68 -1 105.5t-7 99t-18 96.5
t-35 79t-56.5 67t-85 39.5t-118.5 16.5q-52 0 -94.5 -10t-74 -24.5t-55.5 -41.5t-40 -51t-27 -64.5t-16.5 -70t-8.5 -79t-3.5 -79.5t-0.5 -83q0 -49 0.5 -82.5t4 -81.5t9.5 -81.5t17.5 -74.5t27.5 -69t40.5 -56.5t55.5 -45.5t73 -27.5t92 -10.5z" />
    <glyph glyph-name="uni042F" unicode="&#x42f;" horiz-adv-x="1071" 
d="M928 1219v-1219h-103v557h-151l-410 -557h-121l408 557h-102q-69 0 -121 14.5t-83.5 38t-51 59.5t-26.5 73.5t-7 84.5v119q0 61 12 106.5t42.5 85t89.5 60.5t145 21h479zM449 641h376v492h-376q-59 0 -96.5 -11.5t-57 -37t-26.5 -57.5t-7 -81v-119q0 -49 7 -80.5
t26.5 -57t57 -37t96.5 -11.5z" />
    <glyph glyph-name="uni0430" unicode="&#x430;" 
d="M229 608h-102q0 60 12 105.5t42.5 85.5t89.5 61t145 21h100q87 0 146 -21t89 -61t42 -85.5t12 -105.5v-338q0 -59 -12 -104t-42 -84.5t-89 -60.5t-146 -21h-149q-59 0 -106.5 16t-77 41.5t-49.5 60.5t-28 70t-8 72q0 48 15.5 95t47 90t88.5 69.5t132 26.5h321v67
q0 50 -6.5 81t-25.5 57t-56.5 37.5t-97.5 11.5h-100q-59 0 -96.5 -11.5t-57 -37t-26.5 -57.5t-7 -81zM702 270v189h-321q-85 0 -132.5 -60.5t-47.5 -142.5q0 -75 41 -122.5t127 -47.5h147q60 0 97.5 11.5t56.5 37t25.5 56t6.5 79.5z" />
    <glyph glyph-name="uni0431" unicode="&#x431;" horiz-adv-x="946" 
d="M623 1186v-94h-119q-57 -2 -101.5 -16.5t-74.5 -36.5t-51.5 -58t-33.5 -69t-19.5 -82.5t-10.5 -87t-6 -92.5v-3h354q73 0 130 -31t89 -80.5t48 -104t16 -109.5q0 -54 -15.5 -108t-46.5 -103t-87 -80t-128 -31h-94q-72 0 -129.5 20t-95.5 51.5t-66 82t-43.5 99t-24.5 116
t-11 119t-3 120.5q0 76 6.5 140.5t21.5 132.5t44.5 120t72 94.5t107 66t146.5 24.5h125zM561 553h-354q0 -48 2.5 -88t9.5 -89t18.5 -87t31.5 -76t47.5 -63t67.5 -40.5t89 -15.5h92q84 0 128 67t44 161q0 92 -47.5 161.5t-128.5 69.5z" />
    <glyph glyph-name="uni0432" unicode="&#x432;" horiz-adv-x="978" 
d="M586 0h-457v885h457q144 0 215 -53t71 -179q0 -157 -90 -217q55 -32 72.5 -84t17.5 -129q0 -114 -78.5 -168.5t-207.5 -54.5zM231 791v-312h355q112 0 148 38.5t36 137.5q0 81 -38.5 108.5t-145.5 27.5h-355zM231 385v-291h355q86 0 135 32.5t49 96.5q0 69 -13 101
t-51.5 46.5t-119.5 14.5h-355z" />
    <glyph glyph-name="uni0433" unicode="&#x433;" horiz-adv-x="681" 
d="M205 2h-103v621q0 262 283 262h266v-94h-264q-104 0 -143 -42t-39 -131v-616z" />
    <glyph glyph-name="uni0434" unicode="&#x434;" horiz-adv-x="905" 
d="M131 -158h-102v252h112q102 158 167 365t91 426h332v-791h146v-252h-103v158h-643v-158zM258 94h371v697h-140q-57 -403 -231 -697z" />
    <glyph glyph-name="uni0435" unicode="&#x435;" 
d="M571 459h-385v-183q0 -106 39 -148t142 -42h133q113 0 149.5 43t36.5 141h102q0 -60 -12 -104.5t-41.5 -84t-88.5 -60.5t-146 -21h-133q-82 0 -139.5 21t-87.5 60t-43 86t-13 109v330q0 133 62 204t221 71h208q55 0 95 -12.5t62.5 -31.5t35.5 -48t16.5 -55t3.5 -60
q0 -35 -4 -62t-17 -57t-36 -50t-63.5 -33t-96.5 -13zM186 606v-65h385q71 0 93 31.5t22 101.5q0 66 -20.5 93.5t-90.5 27.5h-208q-103 0 -142 -41t-39 -148z" />
    <glyph glyph-name="uni0436" unicode="&#x436;" horiz-adv-x="1024" 
d="M143 0h-123l328 469l-309 414h125l297 -400v400h102v-400l297 400h127l-311 -414l330 -469h-125l-318 455v-455h-102v455z" />
    <glyph glyph-name="uni0437" unicode="&#x437;" horiz-adv-x="970" 
d="M100 297v35h103v-35q0 -46 3 -74.5t13.5 -55.5t30.5 -41.5t54 -23t85 -8.5h189q112 0 149 41t37 139q0 31 -2 51t-11.5 43.5t-27.5 37.5h-412v94h414q39 21 39 110q0 49 -7 80.5t-27 55.5t-57 34.5t-95 10.5h-189q-63 0 -100.5 -11.5t-56 -40t-24 -61.5t-5.5 -92v-35
h-103v59q0 135 66.5 205t222.5 70h189q156 0 222 -70t66 -205q0 -111 -53 -164q53 -53 53 -172q0 -134 -65.5 -204t-222.5 -70h-189q-72 0 -124.5 15.5t-83.5 40.5t-49.5 64.5t-25 80.5t-6.5 96z" />
    <glyph glyph-name="uni0438" unicode="&#x438;" horiz-adv-x="1024" 
d="M221 0h-92v883h102v-711l572 711h92v-883h-102v717z" />
    <glyph glyph-name="uni0439" unicode="&#x439;" horiz-adv-x="997" 
d="M332 1114h74q2 -19 3.5 -26t7.5 -17.5t19.5 -14t36.5 -3.5h84q20 0 32 4.5t18 15.5t7.5 17.5t3.5 23.5h72q-3 -64 -30 -96.5t-103 -32.5h-84q-78 0 -107 30t-34 99zM207 0h-92v883h102v-711l574 711h92v-883h-103v717z" />
    <glyph glyph-name="uni043A" unicode="&#x43a;" horiz-adv-x="829" 
d="M231 0h-102v883h102v-371l422 371h150l-451 -396l445 -487h-135l-386 422l-45 -39v-383z" />
    <glyph glyph-name="uni043B" unicode="&#x43b;" horiz-adv-x="956" 
d="M86 0h-61v94h61q45 0 86 34.5t71 86.5t57.5 129t45.5 145t34.5 153t24 135t15.5 108h409v-885h-102v791h-215q-9 -68 -19 -128t-29 -143.5t-41 -151.5t-56 -139t-73 -119t-93 -79t-115 -31z" />
    <glyph glyph-name="uni043C" unicode="&#x43c;" horiz-adv-x="1075" 
d="M231 0h-102v883h109l303 -727l303 727h104v-883h-102v633l-260 -633h-92l-263 629v-629z" />
    <glyph glyph-name="uni043D" unicode="&#x43d;" horiz-adv-x="1021" 
d="M231 0h-102v883h102v-381h560v381h102v-883h-102v408h-560v-408z" />
    <glyph glyph-name="uni043E" unicode="&#x43e;" horiz-adv-x="915" 
d="M506 6h-96q-65 0 -115.5 11.5t-85 30t-58.5 51t-37.5 64.5t-20.5 81.5t-9 90.5t-2 103q0 57 2 98.5t9.5 91.5t21.5 84.5t38 69.5t58.5 56t84.5 34t114 13h96q64 0 114 -13t84.5 -34t58.5 -55.5t38 -69t21.5 -84.5t9.5 -91.5t2 -99.5q0 -48 -1 -80.5t-4.5 -73.5
t-10.5 -68.5t-18.5 -59t-28.5 -52.5t-41.5 -41t-56.5 -31.5t-74 -18.5t-93 -7zM410 92h96q37 0 67.5 5.5t52.5 16t39.5 25t28 32.5t18.5 39.5t11.5 45t5.5 49t2 52.5v54v29v4q0 68 -1.5 103.5t-13 92t-34 85t-67 51.5t-109.5 23h-96q-37 0 -67 -7.5t-52 -18t-39.5 -30.5
t-28.5 -37.5t-19 -47t-11.5 -50t-5.5 -56t-2.5 -55.5t-0.5 -57v-34q0 -28 -0.5 -54.5t2 -52t6 -48.5t11 -44t18.5 -38.5t28.5 -31.5t40 -24t53 -15.5t67.5 -5.5z" />
    <glyph glyph-name="uni043F" unicode="&#x43f;" horiz-adv-x="1009" 
d="M231 2h-102v889h754v-889h-103v795h-549v-795z" />
    <glyph glyph-name="uni0440" unicode="&#x440;" horiz-adv-x="911" 
d="M205 -336h-103v946q0 61 12 106.5t42.5 84.5t89.5 59.5t145 20.5h129q87 0 146 -20.5t89 -59.5t42 -84.5t12 -106.5v-338q0 -60 -12 -105t-42 -85t-89 -61t-146 -21h-315v-336zM205 610v-524h315q60 0 97.5 11.5t57 37t26 56.5t6.5 81v338q0 50 -6.5 81t-26 57t-57 37.5
t-97.5 11.5h-129q-59 0 -96.5 -11.5t-57 -37.5t-26 -57.5t-6.5 -80.5z" />
    <glyph glyph-name="uni0441" unicode="&#x441;" horiz-adv-x="770" 
d="M688 86v-86h-217q-99 0 -172.5 27.5t-114 69t-65 102.5t-31.5 116t-6 121q0 45 3.5 83t14 85t27 84.5t46.5 75t69 62t97.5 40t129.5 15.5h219v-86h-219q-69 0 -120 -21.5t-81 -55t-48.5 -85t-24.5 -101t-7 -112.5q-1 -58 4.5 -102.5t23 -90t47.5 -75t82.5 -48
t123.5 -18.5h219z" />
    <glyph glyph-name="uni0442" unicode="&#x442;" horiz-adv-x="806" 
d="M455 2h-103v789h-332v94h766v-94h-331v-789z" />
    <glyph glyph-name="uni0443" unicode="&#x443;" horiz-adv-x="933" 
d="M102 -66h103q0 -49 6.5 -80.5t26 -57t57 -37t96.5 -11.5h94q116 0 169 42.5t53 129.5v125q-64 -43 -187 -43h-129q-86 0 -145 21t-89.5 60.5t-42.5 85t-12 105.5v609h103v-609q0 -99 37.5 -142.5t150.5 -43.5h127q62 0 100.5 11t57 37.5t24 56.5t5.5 81v609h102v-961
q0 -126 -80 -193t-242 -67h-96q-86 0 -145 20.5t-89.5 60t-42.5 85t-12 106.5z" />
    <glyph glyph-name="uni0444" unicode="&#x444;" horiz-adv-x="1024" 
d="M569 2h-102v68h-43q-138 0 -222.5 87t-84.5 212v147q0 125 84.5 212t222.5 87h43v70h102v-70h35q137 0 221 -87.5t84 -211.5v-147q0 -124 -84 -211.5t-221 -87.5h-35v-68zM424 166h43v553h-43q-91 0 -148 -54.5t-57 -148.5v-147q0 -94 57 -148.5t148 -54.5zM569 719v-553
h35q88 0 145.5 55t57.5 148v147q0 93 -57.5 148t-145.5 55h-35z" />
    <glyph glyph-name="uni0445" unicode="&#x445;" horiz-adv-x="788" 
d="M141 0h-121l314 440l-314 441h121l254 -357l250 357h123l-313 -441l313 -440h-123l-250 356z" />
    <glyph glyph-name="uni0446" unicode="&#x446;" horiz-adv-x="1021" 
d="M893 0h-764v885h102v-791h502v791h103v-791h159v-252h-102v158z" />
    <glyph glyph-name="uni0447" unicode="&#x447;" horiz-adv-x="946" 
d="M819 0h-102v252q-83 -74 -207 -74h-88q-143 0 -226 87.5t-83 211.5v408h102v-408q0 -88 54.5 -146.5t152.5 -58.5h88q98 0 152.5 58.5t54.5 146.5v408h102v-885z" />
    <glyph glyph-name="uni0448" unicode="&#x448;" horiz-adv-x="1595" 
d="M1468 0h-1339v885h102v-791h504v791h103v-791h528v791h102v-885z" />
    <glyph glyph-name="uni0449" unicode="&#x449;" horiz-adv-x="1628" 
d="M1501 0h-1372v885h102v-791h508v791h103v-791h504v791h102v-791h156v-252h-103v158z" />
    <glyph glyph-name="uni044A" unicode="&#x44a;" horiz-adv-x="1042" 
d="M295 885v-301h393q60 0 105.5 -18.5t72 -47.5t43.5 -69t23 -78.5t6 -81.5q0 -42 -6 -80t-23 -77.5t-43.5 -67.5t-72 -46t-103.5 -18h-211q-156 0 -221 69.5t-65 204.5v517h-173v94h275zM688 489h-393v-215q0 -100 36 -140t146 -40h213q146 0 146 195q0 200 -148 200z" />
    <glyph glyph-name="uni044B" unicode="&#x44b;" horiz-adv-x="1183" 
d="M205 885v-301h393q60 0 106 -18.5t73 -47t44 -69t23 -79t6 -81.5q0 -42 -6.5 -80t-23.5 -77t-44 -67.5t-72.5 -46.5t-103.5 -18h-209q-156 0 -222.5 69.5t-66.5 204.5v611h103zM1057 0h-103v885h103v-885zM598 489h-393v-215q0 -100 36 -140t148 -40h211q148 0 148 195
q0 200 -150 200z" />
    <glyph glyph-name="uni044C" unicode="&#x44c;" horiz-adv-x="952" 
d="M205 885v-301h393q60 0 106 -18.5t73 -47t44 -69t23 -79t6 -81.5q0 -42 -6.5 -80t-23.5 -77t-44 -67.5t-72.5 -46.5t-103.5 -18h-209q-156 0 -222.5 69.5t-66.5 204.5v611h103zM598 489h-393v-215q0 -100 36 -140t148 -40h211q148 0 148 195q0 200 -150 200z" />
    <glyph glyph-name="uni044D" unicode="&#x44d;" horiz-adv-x="931" 
d="M498 6h-379v94h379q36 0 65.5 5t51.5 12.5t39 23t28 28.5t18.5 37.5t11.5 41.5t6 49t2.5 52t0.5 57h-506v94h506q0 57 -3.5 95.5t-16 80t-36 65.5t-65.5 40t-102 16h-379v94h379q68 0 120.5 -14.5t86.5 -34.5t57.5 -60t35 -71t17.5 -89.5t7 -92.5t1 -102v-15
q0 -40 -0.5 -66t-4 -64t-9.5 -63t-17.5 -57t-27.5 -52t-41 -42t-56.5 -34t-74 -20t-94.5 -8z" />
    <glyph glyph-name="uni044E" unicode="&#x44e;" horiz-adv-x="1374" 
d="M229 0h-102v881h102v-371h289q3 68 11 118.5t29 102t55.5 83.5t93 52.5t137.5 20.5h98q63 0 113 -13t84 -34t58.5 -56t38 -69.5t21 -84.5t9.5 -91.5t2 -98.5q0 -63 -2 -103.5t-9 -91t-20 -82t-37 -64.5t-58 -51.5t-84.5 -30t-115.5 -11.5h-98q-63 0 -112 10.5t-83 28
t-58 47.5t-38.5 60.5t-22.5 75.5t-11 85t-3 95h-287v-408zM844 92h98q37 0 67 5.5t52 16t39 25t28 32.5t18.5 39.5t11 45t5.5 49t2 52v54.5v29v4q0 38 -0.5 57.5t-2 55t-5.5 55.5t-11.5 49.5t-18.5 46.5t-28 37t-39 30.5t-52 18t-66 7.5h-98q-36 0 -66 -7.5t-52 -18t-39 -31
t-28 -38t-18.5 -47t-11.5 -50t-5.5 -56t-2 -55t-0.5 -56.5q0 -140 5 -175q15 -117 97 -154q48 -21 121 -21z" />
    <glyph glyph-name="uni044F" unicode="&#x44f;" horiz-adv-x="978" 
d="M299 0h-125l219 301h-39q-74 0 -126.5 27t-78.5 73.5t-36.5 94t-10.5 102.5q0 41 6.5 78.5t23.5 77t44 67.5t72.5 46t103.5 18h498v-885h-102v301h-230zM354 395h394v396h-396q-147 0 -147 -193q0 -203 149 -203z" />
    <glyph glyph-name="uni0451" unicode="&#x451;" 
d="M352 985q-43 0 -61 29.5t0 59.5t61 30q31 0 49 -18.5t18 -41t-18 -41t-49 -18.5zM537 985q-43 0 -60 29.5t0 59.5t60 30q31 0 49 -18.5t18 -41t-18 -41t-49 -18.5zM571 459h-385v-183q0 -106 39 -148t142 -42h133q113 0 149.5 43t36.5 141h102q0 -60 -12 -104.5
t-41.5 -84t-88.5 -60.5t-146 -21h-133q-82 0 -139.5 21t-87.5 60t-43 86t-13 109v330q0 133 62 204t221 71h208q55 0 95 -12.5t62.5 -31.5t35.5 -48t16.5 -55t3.5 -60q0 -35 -4 -62t-17 -57t-36 -50t-63.5 -33t-96.5 -13zM186 606v-65h385q71 0 93 31.5t22 101.5
q0 66 -20.5 93.5t-90.5 27.5h-208q-103 0 -142 -41t-39 -148z" />
    <glyph glyph-name="uni0452" unicode="&#x452;" horiz-adv-x="886" 
d="M182 -2h-102v793h-57v94h57v159h102v-159h285v-94h-285v-148q73 47 183 47h131q155 0 220.5 -70.5t65.5 -205.5v-475q0 -135 -65.5 -205t-220.5 -70v94q110 0 147 41t37 140v475q0 99 -37 139.5t-147 40.5h-131q-180 0 -183 -129v-467z" />
    <glyph glyph-name="uni0453" unicode="&#x453;" horiz-adv-x="684" 
d="M434 987h-108l86 125h145zM205 2h-103v621q0 262 283 262h266v-94h-264q-104 0 -143 -42t-39 -131v-616z" />
    <glyph glyph-name="uni0454" unicode="&#x454;" horiz-adv-x="927" 
d="M713 406h-506q0 -37 0.5 -57t2.5 -52t6 -49t11.5 -41.5t19 -37.5t28 -28.5t39 -23t52 -12.5t66.5 -5h377v-94h-377q-52 0 -95 8t-75 20t-57 33.5t-41.5 42.5t-28 52.5t-17.5 56.5t-9.5 63t-4 64t-0.5 66q0 181 15 254q32 153 156 201q65 24 157 24h377v-94h-377
q-61 0 -103.5 -16t-66 -40t-36.5 -66t-16 -79.5t-3 -95.5h506v-94z" />
    <glyph glyph-name="uni0455" unicode="&#x455;" horiz-adv-x="794" 
d="M453 0h-334v86h334q75 0 118 46t43 112q0 75 -38 122.5t-119 47.5h-115q-130 0 -196 65.5t-66 163.5q0 102 61 170t195 68h323v-86h-321q-160 0 -160 -152q0 -83 50.5 -113t142.5 -30h88q71 0 123 -23.5t79 -63t39.5 -81.5t12.5 -88q0 -98 -65 -171t-195 -73z" />
    <glyph glyph-name="uni0456" unicode="&#x456;" horiz-adv-x="382" 
d="M193 1092q-43 0 -60.5 29.5t0 59t60.5 29.5q31 0 49 -18.5t18 -40.5t-18 -40.5t-49 -18.5zM244 0h-103v881h103v-881z" />
    <glyph glyph-name="uni0457" unicode="&#x457;" horiz-adv-x="382" 
d="M100 985q-43 0 -60.5 29.5t0 59.5t60.5 30q31 0 49 -18.5t18 -41t-18 -41t-49 -18.5zM285 985q-43 0 -60 29.5t0 59.5t60 30q31 0 49 -18.5t18 -41t-18 -41t-49 -18.5zM244 0h-103v881h103v-881z" />
    <glyph glyph-name="uni0458" unicode="&#x458;" horiz-adv-x="335" 
d="M147 1096q-43 0 -60.5 29.5t0 59t60.5 29.5q31 0 49 -18.5t18 -40.5t-18 -40.5t-49 -18.5zM-92 -338v86q60 0 97.5 11.5t56.5 37t25.5 56.5t6.5 81v947h103v-947q0 -61 -12 -106.5t-42 -85.5t-89 -60.5t-146 -19.5z" />
    <glyph glyph-name="uni0459" unicode="&#x459;" horiz-adv-x="1492" 
d="M117 0h-97v94h97q45 0 83 19.5t62.5 51t40 66.5t21.5 72l102 582h319v-301h394q60 0 106 -18.5t73 -47t44 -69t23 -79t6 -81.5q0 -42 -6.5 -80t-23.5 -77t-44 -67.5t-72.5 -46.5t-103.5 -18h-209q-156 0 -222.5 69.5t-66.5 204.5v517h-133l-84 -498q-9 -52 -30.5 -100.5
t-57 -93.5t-93 -72t-128.5 -27zM1139 489h-394v-215q0 -99 37 -139.5t148 -40.5h211q147 0 147 195q0 200 -149 200z" />
    <glyph glyph-name="uni045A" unicode="&#x45a;" horiz-adv-x="1490" 
d="M231 0h-102v885h102v-301h410v301h102v-301h394q60 0 106 -18.5t72.5 -47t43 -69.5t22 -79t5.5 -81q0 -42 -6 -80t-23 -77.5t-43.5 -67.5t-71.5 -46t-103 -18h-211q-156 0 -221.5 69.5t-65.5 204.5v215h-410v-489zM1137 489h-394v-215q0 -50 7 -81.5t26.5 -55t56 -33.5
t93.5 -10h213q145 0 145 195q0 200 -147 200z" />
    <glyph glyph-name="uni045B" unicode="&#x45b;" horiz-adv-x="901" 
d="M195 2h-103v789h-57v94h57v159h103v-159h303v-94h-303v-150q73 47 182 47h131q155 0 221 -70t66 -204v-412h-103v412q0 98 -37 138t-147 40h-131q-85 0 -133 -29t-49 -100v-461z" />
    <glyph glyph-name="uni045C" unicode="&#x45c;" horiz-adv-x="825" 
d="M461 985h-109l86 125h146zM231 0h-102v883h102v-371l422 371h150l-451 -396l445 -487h-135l-386 422l-45 -39v-383z" />
    <glyph glyph-name="uni045E" unicode="&#x45e;" horiz-adv-x="933" 
d="M299 1116h74q2 -19 3.5 -26t7.5 -17.5t19 -14t35 -3.5h86q20 0 32.5 4.5t18 15t7 18.5t2.5 23h73q-3 -64 -30 -96.5t-103 -32.5h-86q-76 0 -106 30.5t-33 98.5zM109 -66h102q0 -49 6.5 -80.5t26 -57t57 -37t96.5 -11.5h95q116 0 168.5 42.5t52.5 129.5v125
q-64 -43 -187 -43h-129q-86 0 -145 21t-89 60.5t-42 85t-12 105.5v609h102v-609q0 -99 37.5 -142.5t150.5 -43.5h127q62 0 100.5 11t57 37.5t24 56.5t5.5 81v609h102v-961q0 -126 -79.5 -193t-241.5 -67h-97q-86 0 -145 20.5t-89 60t-42 85t-12 106.5z" />
    <glyph glyph-name="uni045F" unicode="&#x45f;" horiz-adv-x="1009" 
d="M457 0h-328v891h102v-797h549v797h103v-891h-324v-115h-102v115z" />
    <glyph glyph-name="uni0490" unicode="&#x490;" horiz-adv-x="819" 
d="M246 2h-103v922q0 122 83.5 209.5t226.5 87.5h231v90h104v-185h-335q-98 0 -152.5 -58t-54.5 -144v-922z" />
    <glyph glyph-name="uni0491" unicode="&#x491;" horiz-adv-x="677" 
d="M205 2h-103v621q0 141 76.5 201.5t224.5 60.5q16 1 42 1t58 -0.5t46 -0.5v90h102v-184h-264q-104 0 -143 -42t-39 -131v-616z" />
    <glyph glyph-name="Wgrave" unicode="&#x1e80;" horiz-adv-x="1673" 
d="M950 1313h-108l-121 125h143zM514 0h-106l-390 1219h107l336 -1055l327 1055h95l336 -1055l327 1055h105l-379 -1219h-109l-327 1030z" />
    <glyph glyph-name="wgrave" unicode="&#x1e81;" horiz-adv-x="1529" 
d="M881 983h-109l-123 125h146zM102 272v609h103v-609q0 -99 37.5 -142.5t150.5 -43.5h133q62 0 100.5 11t57 37.5t24 56.5t5.5 81v609h102v-609q0 -99 38 -142.5t151 -43.5h133q62 0 100.5 11t56.5 37.5t23.5 56.5t5.5 81v609h102v-609q0 -63 -12 -108.5t-42.5 -84.5
t-89 -59t-144.5 -20h-133q-170 0 -238 88q-66 -88 -240 -88h-135q-86 0 -145 21t-89.5 60.5t-42.5 85t-12 105.5z" />
    <glyph glyph-name="Wacute" unicode="&#x1e82;" horiz-adv-x="1673" 
d="M829 1313h-108l86 125h145zM516 0h-106l-390 1219h107l336 -1055l328 1055h94l336 -1055l325 1055h107l-379 -1219h-109l-327 1030z" />
    <glyph glyph-name="wacute" unicode="&#x1e83;" horiz-adv-x="1529" 
d="M758 985h-109l86 125h146zM102 272v609h103v-609q0 -99 37.5 -142.5t150.5 -43.5h133q62 0 100.5 11t57 37.5t24 56.5t5.5 81v609h102v-609q0 -99 38 -142.5t151 -43.5h133q62 0 100.5 11t56.5 37.5t23.5 56.5t5.5 81v609h102v-609q0 -63 -12 -108.5t-42.5 -84.5t-89 -59
t-144.5 -20h-133q-170 0 -238 88q-66 -88 -240 -88h-135q-86 0 -145 21t-89.5 60.5t-42.5 85t-12 105.5z" />
    <glyph glyph-name="Wdieresis" unicode="&#x1e84;" horiz-adv-x="1673" 
d="M748 1313q-33 0 -52 18.5t-18.5 41t19 41t51.5 18.5q30 0 47.5 -18.5t17.5 -41t-17.5 -41t-47.5 -18.5zM932 1313q-32 0 -50 18.5t-18 41t18 41t50 18.5q30 0 47.5 -18.5t17.5 -41t-17.5 -41t-47.5 -18.5zM516 2h-106l-390 1217h107l336 -1055l328 1055h94l336 -1055
l325 1055h107l-379 -1217h-109l-327 1028z" />
    <glyph glyph-name="wdieresis" unicode="&#x1e85;" horiz-adv-x="1529" 
d="M674 985q-43 0 -61 29.5t0 59.5t61 30q31 0 49 -18.5t18 -41t-18 -41t-49 -18.5zM858 985q-32 0 -50 18.5t-18 41t18 41t50 18.5q31 0 49 -18.5t18 -41t-18 -41t-49 -18.5zM102 272v609h103v-609q0 -99 37.5 -142.5t150.5 -43.5h133q62 0 100.5 11t57 37.5t24 56.5
t5.5 81v609h102v-609q0 -99 38 -142.5t151 -43.5h133q62 0 100.5 11t56.5 37.5t23.5 56.5t5.5 81v609h102v-609q0 -63 -12 -108.5t-42.5 -84.5t-89 -59t-144.5 -20h-133q-170 0 -238 88q-66 -88 -240 -88h-135q-86 0 -145 21t-89.5 60.5t-42.5 85t-12 105.5z" />
    <glyph glyph-name="endash" unicode="&#x2013;" horiz-adv-x="753" 
d="M731 565h-711v86h711v-86z" />
    <glyph glyph-name="emdash" unicode="&#x2014;" horiz-adv-x="1001" 
d="M983 565h-963v86h963v-86z" />
    <glyph glyph-name="quoteleft" unicode="&#x2018;" horiz-adv-x="161" 
d="M100 1047h-92l17 172h116z" />
    <glyph glyph-name="quoteright" unicode="&#x2019;" horiz-adv-x="163" 
d="M129 1047h-119l41 172h92z" />
    <glyph glyph-name="quotesinglbase" unicode="&#x201a;" horiz-adv-x="174" 
d="M113 -70h-93l17 172h117z" />
    <glyph glyph-name="quotedblleft" unicode="&#x201c;" horiz-adv-x="317" 
d="M283 1047h-119l43 172h90zM129 1047h-119l41 172h92z" />
    <glyph glyph-name="quotedblright" unicode="&#x201d;" horiz-adv-x="342" 
d="M281 1047h-93l17 172h117zM111 1047h-93l17 172h117z" />
    <glyph glyph-name="quotedblbase" unicode="&#x201e;" horiz-adv-x="344" 
d="M113 -70h-93l17 172h117zM283 -70h-93l17 172h117z" />
    <glyph glyph-name="dagger" unicode="&#x2020;" horiz-adv-x="634" 
d="M266 1219h103v-238h245v-86h-245v-893h-103v893h-246v86h246v238z" />
    <glyph glyph-name="daggerdbl" unicode="&#x2021;" horiz-adv-x="532" 
d="M215 1219h102v-326h215v-86h-215v-428h215v-86h-215v-293h-102v293h-215v86h215v428h-215v86h215v326z" />
    <glyph glyph-name="bullet" unicode="&#x2022;" horiz-adv-x="239" 
d="M117 668q-37 0 -62 18t-30.5 43.5t1 51t31.5 43.5t62 18q38 0 63.5 -18t30.5 -43.5t-1.5 -51t-32 -43.5t-62.5 -18z" />
    <glyph glyph-name="ellipsis" unicode="&#x2026;" horiz-adv-x="530" 
d="M94 0q-32 0 -50 18.5t-18 41t18 41t50 18.5q30 0 47.5 -18.5t17.5 -41t-17.5 -41t-47.5 -18.5zM266 0q-32 0 -50 18.5t-18 41t18 41t50 18.5q30 0 47.5 -18.5t17.5 -41t-17.5 -41t-47.5 -18.5zM436 0q-43 0 -60 30t0 59.5t60 29.5q31 0 49 -18.5t18 -41t-18 -41
t-49 -18.5z" />
    <glyph glyph-name="perthousand" unicode="&#x2030;" horiz-adv-x="2142" 
d="M90 825v125q0 60 12 105t42.5 84.5t89.5 60.5t145 21q84 0 143 -21t90.5 -60t45 -85t14.5 -105v-125q-1 -135 -76.5 -203.5t-216.5 -68.5q-86 0 -145 21t-89.5 60.5t-42.5 85t-12 105.5zM557 0h-108l475 1219h110zM193 950v-125q0 -49 6.5 -80.5t26 -57t57 -37
t96.5 -11.5q58 0 96 11.5t58 37t27.5 57.5t8.5 80v125q0 96 -39 140.5t-151 44.5q-113 0 -149.5 -43.5t-36.5 -141.5zM819 274v123q0 61 12 106.5t42.5 85t89.5 60.5t145 21q84 0 143 -21t90.5 -60t45 -85.5t14.5 -106.5v-123q-1 -135 -76.5 -203.5t-216.5 -68.5
q-86 0 -145 21t-89.5 60.5t-42.5 85t-12 105.5zM1462 274v123q0 61 12 106.5t42.5 85t89.5 60.5t145 21q84 0 143 -21t90.5 -60t45 -85.5t14.5 -106.5v-123q-1 -135 -76.5 -203.5t-216.5 -68.5q-86 0 -145 21t-89.5 60.5t-42.5 85t-12 105.5zM922 397v-123q0 -49 6.5 -80.5
t26 -57t57 -37t96.5 -11.5q58 0 96 11.5t58 37t27.5 57.5t8.5 80v123q0 97 -39 142t-151 45q-59 0 -96.5 -11.5t-57 -37.5t-26 -57.5t-6.5 -80.5zM1565 397v-123q0 -49 6.5 -80.5t26 -57t57 -37t96.5 -11.5q58 0 96 11.5t58 37t28 57.5t9 80v123q0 97 -39.5 142t-151.5 45
q-59 0 -96.5 -11.5t-57 -37.5t-26 -57.5t-6.5 -80.5z" />
    <glyph glyph-name="guilsinglleft" unicode="&#x2039;" horiz-adv-x="657" 
d="M532 -43l-491 485l491 486v-133l-356 -353l356 -352v-133z" />
    <glyph glyph-name="guilsinglright" unicode="&#x203a;" horiz-adv-x="657" 
d="M614 442l-491 -485v133l358 352l-358 353v133z" />
    <glyph glyph-name="fraction" unicode="&#x2044;" horiz-adv-x="653" 
d="M139 0h-108l475 1219h110z" />
    <glyph glyph-name="franc" unicode="&#x20a3;" horiz-adv-x="942" 
d="M225 0h-102v188h-55v86h55v672q0 61 12 106.5t42.5 85t89.5 60.5t145 21h477v-86h-477q-59 0 -96.5 -11.5t-57 -37t-26.5 -57.5t-7 -81v-305h662v-84h-662v-283h434v-86h-434v-188z" />
    <glyph glyph-name="lira" unicode="&#x20a4;" horiz-adv-x="847" 
d="M809 -4h-746v80q111 35 111 160v55h-111v86h111v147h-111v86h111v353q0 256 283 256h276v-86h-278q-103 0 -141 -44.5t-38 -130.5v-348h324v-86h-324v-147h324v-86h-324v-72q0 -75 -47 -137h580v-86z" />
    <glyph glyph-name="peseta" unicode="&#x20a7;" horiz-adv-x="1660" 
d="M246 0h-103v1219h480q69 0 121 -14.5t83.5 -38t50.5 -60t26 -74.5t7 -86v-121q0 -60 -12 -104.5t-42 -83.5t-89 -59.5t-145 -20.5h-377v-557zM246 1133v-492h377q113 0 149.5 43t36.5 141v121q0 49 -6.5 80.5t-26 57.5t-57 37.5t-96.5 11.5h-377zM1599 0h-221
q-69 -1 -118 11.5t-77.5 33t-44.5 55t-21 69.5t-5 85v541h-57v86h57v145h102v-145h250v-86h-250v-541q0 -52 4.5 -79t20.5 -50t49 -31t90 -8h221v-86z" />
    <glyph glyph-name="Euro" unicode="&#x20ac;" horiz-adv-x="970" 
d="M135 354h-76v86h64q-6 61 -6 185q0 18 1 56t1 58h-60v86h70q7 65 20 116.5t42.5 105.5t73.5 90t116 59t166 23h41q76 0 131.5 -22.5t85.5 -61t43.5 -82.5t13.5 -95h-102q0 77 -44.5 124.5t-140.5 50.5h-28q-84 0 -143.5 -23.5t-93.5 -68t-51.5 -95.5t-25.5 -121h564v-86
h-572v-114q0 -124 6 -185h566v-86h-553q23 -120 86 -190.5t190 -77.5h37q203 3 203 176h102q0 -259 -301 -262h-45q-77 3 -138.5 25t-102 54.5t-70 78.5t-45.5 93t-25 103z" />
    <glyph glyph-name="uni2113" unicode="&#x2113;" horiz-adv-x="757" 
d="M121 254v117q-22 -14 -80 -49v110q12 6 25 15t29.5 20.5t25.5 17.5v453q0 131 74.5 205t173.5 74q50 0 93.5 -19.5t75.5 -59t43.5 -98.5t-3.5 -137q-13 -66 -51.5 -136t-91 -130t-105.5 -108.5t-107 -86.5v-188q0 -96 32.5 -132t131.5 -36q37 0 62 2t55 11t48 25.5
t30 46.5t12 73l70 -2q0 -76 -18.5 -125.5t-58 -74t-85.5 -33.5t-115 -9q-81 -1 -135 17t-82 54t-38.5 79t-10.5 104zM223 938v-383q101 77 172 172t90 176q22 99 -16.5 155t-101.5 56q-58 0 -101 -46.5t-43 -129.5z" />
    <glyph glyph-name="trademark" unicode="&#x2122;" horiz-adv-x="1327" 
d="M346 565h-102v568h-201v86h506v-86h-203v-568zM766 565h-102v654h100l207 -500l207 500h106v-654h-102v408l-164 -404h-94l-158 377v-381z" />
    <glyph glyph-name="estimated" unicode="&#x212e;" horiz-adv-x="894" 
d="M240 459v-338q40 -35 131 -35h133q113 0 149.5 43t36.5 141h103q0 -59 -12 -104t-42 -84.5t-89 -60.5t-146 -21h-133q-82 0 -139.5 21t-87.5 60t-43 86t-13 109v330q0 133 62 204t221 71h209q55 0 95 -12.5t62.5 -31.5t35.5 -48t16.5 -55t3.5 -60q0 -35 -4 -62t-17.5 -57
t-36.5 -50t-63.5 -33t-96.5 -13h-335zM240 764v-223h335q46 0 68 14v229q-26 11 -63 11h-209q-89 0 -131 -31z" />
    <glyph glyph-name="partialdiff" unicode="&#x2202;" horiz-adv-x="968" 
d="M872 623q-3 -75 -11 -141.5t-24.5 -141.5t-41 -136t-64 -118t-90 -95t-121 -58.5t-155.5 -16.5q-68 4 -123.5 33.5t-90 77t-52.5 107t-17 124.5q1 106 26.5 193t67 144.5t97 97t114.5 56.5t121 17q85 0 159 -31.5t117 -85.5q6 108 -7 196t-38.5 145t-60.5 96.5t-72 56
t-76 16.5q-53 0 -94 -32t-51 -85h-82q10 89 80.5 147t161.5 58q52 0 100 -20t93 -67.5t76.5 -117.5t48 -178t9.5 -241zM768 512q-33 72 -106.5 114t-159.5 42q-62 0 -119 -23.5t-104.5 -69.5t-76.5 -125t-30 -180q-2 -106 51.5 -180.5t153.5 -81.5q165 -11 269.5 117
t121.5 387z" />
    <glyph glyph-name="product" unicode="&#x220f;" horiz-adv-x="1034" 
d="M236 -338h-103v924q0 52 18.5 102.5t54.5 94.5t97.5 71t138.5 27h150q78 0 139.5 -27t97 -71t54 -94.5t18.5 -102.5v-924h-102v924q0 86 -53 147.5t-154 61.5h-150q-101 0 -153.5 -61.5t-52.5 -147.5v-924z" />
    <glyph glyph-name="summation" unicode="&#x2211;" horiz-adv-x="915" 
d="M549 655l-447 478v86h711v-86h-592l436 -467l-452 -670h608v-86h-711v86z" />
    <glyph glyph-name="minus" unicode="&#x2212;" horiz-adv-x="753" 
d="M731 565h-711v86h711v-86z" />
    <glyph glyph-name="uni2215" unicode="&#x2215;" horiz-adv-x="645" 
d="M137 0h-108l475 1219h110z" />
    <glyph glyph-name="radical" unicode="&#x221a;" horiz-adv-x="987" 
d="M475 0h-108l-234 551h-92v65h176l205 -477l420 1080h110z" />
    <glyph glyph-name="infinity" unicode="&#x221e;" horiz-adv-x="1409" 
d="M721 362q-64 -100 -232 -100h-116q-61 0 -106.5 12t-85 42.5t-60.5 89.5t-21 145v41q0 86 21 145t60.5 89.5t85 42.5t106.5 12h116q167 0 232 -101q30 49 74.5 72t138.5 29h113q47 0 84.5 -7t73.5 -26.5t59.5 -51t38 -83.5t14.5 -121v-41q0 -145 -61 -215t-193 -74h-117
q-166 0 -225 100zM373 365h116q49 0 80.5 6.5t57.5 26t37.5 57t11.5 96.5v41q0 59 -11.5 96.5t-37.5 57t-57.5 26t-80.5 6.5h-116q-49 0 -80.5 -6.5t-57.5 -26t-37.5 -57t-11.5 -96.5v-41q0 -59 11.5 -96.5t37.5 -57t57.5 -26t80.5 -6.5zM946 365h101q98 0 141 36.5
t43 149.5v41q0 113 -43 149.5t-141 36.5h-101q-98 0 -141 -36.5t-43 -149.5v-41q0 -113 43 -149.5t141 -36.5z" />
    <glyph glyph-name="integral" unicode="&#x222b;" horiz-adv-x="608" 
d="M141 -340h-102v86h100q40 0 64.5 10.5t35.5 34t14 46.5t3 63v1083q0 119 50.5 177t166.5 59h105v-86h-103q-40 0 -65 -10.5t-35.5 -34t-13.5 -46.5t-3 -63v-1083q0 -118 -50 -176.5t-167 -59.5z" />
    <glyph glyph-name="approxequal" unicode="&#x2248;" horiz-adv-x="1028" 
d="M20 664v124q120 95 256 95q111 0 265 -62q123 -53 213 -53q71 0 129 32t125 99v-123q-114 -92 -248 -92q-108 0 -266 61q-137 52 -228 52q-72 0 -129 -32t-117 -101zM20 365v124q120 95 256 95q111 0 265 -62q139 -59 217 -59q63 0 118 32t132 105v-123
q-114 -92 -248 -92q-108 0 -266 61q-128 46 -218 46q-76 0 -136.5 -32t-119.5 -95z" />
    <glyph glyph-name="notequal" unicode="&#x2260;" horiz-adv-x="753" 
d="M352 563h-332v86h367l92 234h111l-94 -234h235v-86h-270l-90 -223h360v-86h-395l-103 -254h-108l102 254h-207v86h242z" />
    <glyph glyph-name="lessequal" unicode="&#x2264;" horiz-adv-x="843" 
d="M772 418l-706 385v69l706 383v-100l-582 -317l582 -318v-102zM774 258h-711v86h711v-86z" />
    <glyph glyph-name="greaterequal" unicode="&#x2265;" horiz-adv-x="835" 
d="M774 805l-706 -387v102l583 318l-583 317v102l706 -385v-67zM776 260h-710v86h710v-86z" />
    <glyph glyph-name="lozenge" unicode="&#x25ca;" horiz-adv-x="980" 
d="M535 -96h-91l-415 657l415 658h91l415 -658zM131 561l358 -567l359 567l-359 567z" />
    <glyph glyph-name="grave.case" horiz-adv-x="272" 
d="M252 1313h-111l-121 125h146z" />
    <glyph glyph-name="dieresis.case" horiz-adv-x="360" 
d="M90 1313q-43 0 -61 30t0 59.5t61 29.5q31 0 49 -18.5t18 -41t-18 -41t-49 -18.5zM274 1313q-32 0 -50 18.5t-18 41t18 41t50 18.5q31 0 49 -18.5t18 -41t-18 -41t-49 -18.5z" />
    <glyph glyph-name="macron.case" horiz-adv-x="583" 
d="M563 1313h-543v86h543v-86z" />
    <glyph glyph-name="acute.case" horiz-adv-x="272" 
d="M129 1313h-109l86 125h146z" />
    <glyph glyph-name="circumflex.case" horiz-adv-x="327" 
d="M129 1313h-109l109 125h64l114 -125h-114l-31 45z" />
    <glyph glyph-name="caron.case" horiz-adv-x="327" 
d="M193 1313h-64l-109 125h109l33 -45l31 45h114z" />
    <glyph glyph-name="breve.case" horiz-adv-x="438" 
d="M41 1366h74q2 -19 3.5 -26t7.5 -17.5t19 -14t35 -3.5h84q37 0 48.5 15.5t13.5 45.5h73q-5 -65 -31.5 -97t-103.5 -32h-84q-76 0 -106 30.5t-33 98.5z" />
    <glyph glyph-name="dotaccent.case" horiz-adv-x="176" 
d="M90 1313q-43 0 -61 30t0 59.5t61 29.5q31 0 49 -18.5t18 -41t-18 -41t-49 -18.5z" />
    <glyph glyph-name="ring.case" horiz-adv-x="317" 
d="M156 1296q-51 0 -86 26t-43 63.5t0.5 75t44 63.5t86.5 26q38 0 67.5 -14t45 -36.5t22.5 -49.5t-0.5 -54t-23 -49.5t-45.5 -36.5t-68 -14zM158 1372q33 0 46.5 27t0.5 53.5t-45 26.5q-33 0 -46.5 -26.5t-0.5 -53.5t45 -27z" />
    <glyph glyph-name="tilde.case" horiz-adv-x="499" 
d="M20 1313v119q68 63 134 63q45 0 114 -40t103 -40q52 0 108 64v-121q-56 -45 -106 -45q-40 0 -108 36.5t-107 36.5q-65 0 -138 -73z" />
    <glyph glyph-name="hungarumlaut.case" horiz-adv-x="436" 
d="M119 1313h-99l86 125h123zM305 1313h-98l86 125h123z" />
    <glyph glyph-name="caron.salt" horiz-adv-x="333" 
d="M129 1313l-109 125h109l33 -45l31 45h114l-114 -125h-64z" />
    <glyph glyph-name="commaaccent.salt" horiz-adv-x="292" 
d="M111 -92h145l-123 -125h-108z" />
    </font>
</defs>
</svg>
