<svg xmlns="http://www.w3.org/2000/svg" viewBox="0 0 64.75 64.75"><defs><style>.cls-1{fill:none;stroke:#1e4e63;}.cls-1,.cls-2{stroke-miterlimit:10;stroke-width:0.75px;}.cls-2{fill:#ee7046;stroke:#ee7046;}</style></defs><g id="Layer_2" data-name="Layer 2"><g id="Layer_1-2" data-name="Layer 1"><path class="cls-1" d="M37.71,16.37a5.34,5.34,0,0,1-5.34,5.34V32.37H21.71a5.34,5.34,0,0,0-10.67,0H5.71A5.33,5.33,0,0,0,.38,37.71V.38h32V11A5.34,5.34,0,0,1,37.71,16.37Z"/><path class="cls-1" d="M64.38,11V27A5.33,5.33,0,0,1,59,32.37H53.71a5.34,5.34,0,1,1-10.67,0H32.37V21.71a5.34,5.34,0,1,0,0-10.67V.38H53.71A10.67,10.67,0,0,1,64.38,11Z"/><path class="cls-2" d="M27,48.38a5.33,5.33,0,0,0,5.33,5.33V64.38H11A10.67,10.67,0,0,1,.38,53.71v-16a5.33,5.33,0,0,1,5.33-5.34H11a5.34,5.34,0,0,1,10.67,0H32.37V43A5.34,5.34,0,0,0,27,48.38Z"/></g></g></svg>