<svg xmlns="http://www.w3.org/2000/svg" viewBox="0 0 72 72"><defs><style>.cls-1{fill:#f6f6f6;}.cls-2{fill:none;stroke:#1e4e63;}.cls-2,.cls-3{stroke-miterlimit:10;stroke-width:0.75px;}.cls-3{fill:#ee7046;stroke:#ee7046;}</style></defs><g id="Layer_2" data-name="Layer 2"><g id="Layer_1-2" data-name="Layer 1"><rect class="cls-1" width="72" height="72" rx="5"/><path class="cls-2" d="M41.36,20A5.33,5.33,0,0,1,36,25.33V36H25.36A5.33,5.33,0,1,0,14.7,36H9.36A5.33,5.33,0,0,0,4,41.33V4H36V14.67A5.33,5.33,0,0,1,41.36,20Z"/><path class="cls-2" d="M68,14.67v16A5.33,5.33,0,0,1,62.7,36H57.36A5.33,5.33,0,0,1,46.7,36H36V25.33a5.33,5.33,0,0,0,0-10.66V4H57.36A10.67,10.67,0,0,1,68,14.67Z"/><path class="cls-3" d="M30.7,52A5.32,5.32,0,0,0,36,57.33V68H14.7A10.67,10.67,0,0,1,4,57.33v-16A5.33,5.33,0,0,1,9.36,36H14.7a5.33,5.33,0,1,1,10.66,0H36V46.67A5.32,5.32,0,0,0,30.7,52Z"/></g></g></svg>